<?xml version="1.0" encoding="UTF-8"?> <svg xmlns="http://www.w3.org/2000/svg" viewBox="0 0 2400 2400"><path d="m598.24 1803.51-7.46 99.55-3.19 103.27-20.23 44.18s10.65 16 13.31 16.5 55.89 12.78 59.62 13.31 121.9-5.32 121.9-5.32l111.25-154.38 45.78-7.45 45.25 26.62 31.41 1.06 51.1-16.5 47.91-39.92s-2.13 29.27-1.6 30.87-27.68 84.64-27.68 84.64l-.53 32.47 24.48 13.84s17 30.34 18.64 31.94 25 5.32 25 5.32l56.43-28.74 36.73-9.58 56.44 21.81 13.84-6.39s-11.72-49.5-12.25-51.63-6.92-31.41-6.92-31.41l31.94-11.71 49.51 1.06 31.4-13.84-4.26-78.78 106.47-67.6 85.17 18.63 39.92-8 9.58 31.94 3.73 90.5 24 1.06s46.32 12.24 50.57 10.65 36.2-14.37 36.2-14.37l34.07-7.46-1.6-57.49-6.38-104.86 26.08-11.71 70.8 16.5 41-14.91 1.06-33.53 12.72-117.65-13.31-83.57 4.79-67.6s22.36-84.11 22.36-86.77-.54-21.83-.54-21.83l3.2-39.92-5.86-43.65-7.45-58 3.19-14.91 13.84 10.65 12.25-4.26s12.77-11.71 12.77-14.9-18.63-59.62-18.63-59.62l12.24-17.57 10.12 20.23 16.5 35.66 20.23 12.25 11.71-19.17s-9.58-27.15-10.65-28.74-16-22.89-16-22.89l5.33-14.91 44.71 17.57 13.84-11.18-.53-20.23-50-13.3 7.44-13.34 31.41-12.25 18.59-12.75-14.37-12.24h-18.63l-26.62 11.17.53-13.84 6.39-17.56-12.24-13.31-20.23 13.31-21.82 29.27-10.12 3.2-6.89-13.3-2.13-75.59-2.66-53.76 12.24-61.75 3.73-94.22-8-44.72-19.7-31.4-26.62-27.68-29.81-10.65-.53-18.1 6.92-49.5 7.45-48.44-11.71-41-26.08-28.75-33-3.19-14.91 6.92-18.1 16-24.48 37.26-24.49-23.95-23.42-12.78-26.62-1.06-39.92 32.47-30.88 51.1-31.93 84.64-11.18 12.24-10.65-13.84 13.31-47.38 18.63-78.25 7.45-51.1-15.44-52.7-33-14.37-26.58 5.85-22.89 10.63-20.23 25-20.23 43.65-9.54 27.17-20.76-16-16-19.16-1.6-60.69-13.31-45.78-38.86-25-26.08 7.46-18.1 10.11-17.56 22.36-19.73 47.38-23.42 67.08-36.2-21.3-27.68-1.06-31.41 7.45-41 47.38-5.29-16.51-3.19-50.57-34.07-28.21-55.36-9.05-3.2-33 3.2-53.23-24-64.41-39.38-13.84-28.21 9-26.59 21.34-22.35 42.58-18.1 67.61-15.44 41.52-35.66-10.11-60.65 16.5-48.44 44.18-24.56 106.99-17 74-27.15-39.93-59.62-36.19-41-.54-25.55 10.65-21.82 21.82s-12.77 51.64-14.86 50.57-3.76 76.15-3.76 76.15l-3.24 66 12.78 69.2 29.81 84.11 30.41 74.5.53 36.2-9 24-16-15.44-5.85-42-18.68-23.52-10.65 11.72s-5.85 16.5-5.32 19.16 8 35.66 8 35.66l-12.77 4.26-14.38-13.31-29.27-20.22-17.61 4.79s-.53 11.18 0 12.77 13.31 25 16 25.55 28.75 18.64 28.75 18.64l3.19 18.63-14.37.53s-32.47-11.18-34.07-10.12-13.84 5.33-13.84 5.33l-11.71 16.5 6.92 19.16 28.74 11.18h41.52l1.07 9-22.36 13.84-26.09 13.88-4.26 17.57 6.92 9.05s14.9-3.73 19.69-5.33 50-20.76 50-20.76l4.26 5.86-17 16.5-5.86 16 6.92 21.83 12.78-.54s8.51-13.84 10.64-16.5 24.49-45.78 24.49-45.78l22.36-2.13 4.79 26.62 7.45 69.73 4.79 122.43 12.24 99 18.1 74 24.49 105.4 4.26 76.12z" fill="#fff" fill-rule="evenodd"></path><path d="m1485.61 1763.06 5.85-43.12-22.89-1.6s-13.3 6.92-13.3 8.52-20.23 63.88-19.7 67.07-10.65 78.25-9 78.78 28.75 5.33 28.75 5.33l16.5-16s6.39-37.8 9-44.72 4.79-54.26 4.79-54.26z" fill="#fef065"></path><path d="m596.11 1807.24-35.67-2.13-14.37 106.46s.53 38.86 4.26 39.93 33 9 34.07 4.79 12.24-137.87 12.24-137.87z" fill="#fef065"></path><path d="m900.59 1937.66-22.36-10.12-18.09 18.63-4.8 167.15s10.65 17.57 13.31 17.57 44.72-2.13 44.72-5.86-1.6-26.61-.53-35.13-12.25-152.24-12.25-152.24z" fill="#fef065"></path><g fill="#0e5256"><path d="m1620.87 1910.27c0-6.85-.08-13.71 0-20.57a124.28 124.28 0 0 0 -2.6-24.76c-1-5.06-1-10.28-1.53-15.43s-.73-10.33-1.46-15.45-9.06-8.54-13.25-5.46-6.07 7.32-12 6.86c-3-.23-5.81-1.32-8.76-1.78-6.07-.94-12.22.78-18.37.81-7.26 0-13.1-2.86-19.56-5.67-7.49-3.26-15.17-6.21-22.85-9-3.93-1.43-8.22-1.86-12.36-2.73-1.3-.28-2.64-.44-3.93-.78a17.2 17.2 0 0 0 -14.82 2.81c-5.8 4.47-5.14 8.84-4.75 15.46.43 7.18-4 13.65-5.82 20.6-1.75 6.67-1.18 14.15-5 19.9-2.46 3.73-6.43 6.17-10.45 8.12-3.68 1.79-7.61 3.29-11.69 3.33-5.51 0-10.69-1.85-16.24-1.53-5.88.33-11.17-1.28-17-2.25-6.61-1.1-13.26-2-19.94-2.5-1.6-.13-3.45-.16-4.56 1s-1 3-.77 4.57c1.84 15 4.18 30.13 4.72 45.29.06 1.79 0 3.59 0 5.39 0 6 .88 12.92-.63 18.79-1.57 6-8.09 9.7-13.18 12.42a113.53 113.53 0 0 1 -13.15 6.34 59.62 59.62 0 0 1 -11.88 3.14 17.42 17.42 0 0 1 -7 0c-2.57-.66-4.79-2.32-7.32-3.15-4.09-1.33-8.56-.36-12.84-.83-3.69-.41-7.23-1.89-10.94-2-4.33-.14-7.88 1.68-11.79 3.18-3.38 1.29-7.09 1.76-10.4 3.29-4 1.86-7.59 4.71-11.07 7.49-2.23 1.78-1.65 4.53-.86 7 1.36 4.23 3.49 8.33 4.12 12.66 1.21 8.37 5.21 15.57 8.06 23.29a40 40 0 0 1 2.1 17.2 24.82 24.82 0 0 0 2.44 13.22c.85 1.89 1.93 3.38 1.15 6.13-1.21 4.29-1.92 8.43-6.71 9.95-5.44 1.72-10.49 4.06-16.84 2-6.18-2-10.89-6.26-16.46-9.45a77.81 77.81 0 0 0 -18.66-7.7c-3.39-.9-6.83-1.57-10.28-2.25-8.65-1.69-17.5-3.39-26.22-2.07a43.46 43.46 0 0 0 -19.64 8.53c-5.91 4.47-10.85 10.3-17.4 13.75-4.3 2.26-9.1 3.39-13.5 5.45-3.92 1.84-7.5 4.4-11.58 5.83-4.48 1.58-9.32 1.72-14.08 1.81-6.75.12-15.42 1.59-22 0-5-1.18-10-5.58-13.37-9.23-10.69-11.81-15.67-30.6-33-34.75-3.76-.9-7.94-1-11-3.39-5.19-4.14-3.89-12.22-2.09-18.62 8.33-33.32 17.06-67.93 28.85-100.2 2.52-6.9 3.16-13.89 3.88-21a7.83 7.83 0 0 0 -.31-2 17.23 17.23 0 0 0 -2.09 1.21c-4.25 3.3-9.24 6-12.53 10.12-24.34 30.28-78.75 49.81-115.37 31.83-9.87-4.85-17.64-14.86-27.77-18.73-6.75-2.59-13.33-6.65-21.06-3.24-1.19.53-1.86.9-1.4 2.4a15.85 15.85 0 0 1 .94 5.22c-.25 3.93 1.06 7.51 1.79 11.26 3.45 17.76 3.71 35.8 6.88 53.88 1.54 8.74 2 17.63 2.47 26.49.8 15.34 1 30.69 1.58 46 .26 6.89-.47 13.86-.14 20.73.42 8.68 4.55 17.49 3.82 26.13-.58 6.88-5.15 13-11 16.68-15.18 9.5-40.53 8.87-57.72 9.06-21.54.24-43-1.7-64.56-2l-56.37-.9-20.94-.34c-18.09-.28-73.3 9.23-80.88-14.51a5.54 5.54 0 0 1 -.26-3.22 26.69 26.69 0 0 0 -16.41-34.64c-9.54-3.34-19.92-3-29.9-4.51s-20.57-5.84-25-14.9-1.37-20.13 3.57-29c5.64-10.1 17.65-22.5 16.94-35.06-.18-3.14 0-6.41-.15-9.63s.75-6.23.88-9.36c.23-5.68.34-11.38.27-17.06a2.83 2.83 0 0 0 -3.27-2.79c-4.39.43-8.44-1.11-12.62-1.88s-8.31-1.55-12.5-2.15c-15.85-2.24-40.57 5.56-57 7.07l-67.31 6.22c-16.7 1.54-38-4-53.73-.23-3.63.87-7.94-.7-11.31-3a4.61 4.61 0 0 1 -1.44-3.54 273.35 273.35 0 0 0 -1.38-46.16c-1.09-9.95-.52-20 0-30l2-35.94c1-18.18 4-40.92 19.27-53.17 7.54-6.06 16.51-8.14 26-8.51 5.37-.21 29.59-.88 33.18 1.24 4.47 2.64 9-.49 9-5.92-.47-55.12 46.85-67.93 88.71-45.28 3.73 2 7.64 4.23 9.7 8 5.44 9.82-6 39.52 10 40.89 6.85.59 13.61-2.65 20.47-2 7.48.66 16.6 10.75 17.53-3.31a84.26 84.26 0 0 1 1.36-8.59c.42-2.41 1-4.8 1.29-7.22.56-4.68 1.12-9.38 1.32-14.1 3.23-79.19-24.68-151.07-40.32-227.08-16-77.63-23.17-155.32-24.84-234.53-.52-24.73 5.31-49.19-3.76-73.19-1.28-3.41-2.85-6.78-3.28-10.39s.16-8.1-2.49-10.78c-10-10-32.54 39.86-36.45 46.74-5 8.81-11.31 18.55-21.32 20.11-9.39 1.46-18.7-5.73-21.67-14.76s-.59-19.13 4.19-27.35 11.74-14.9 18.61-21.47c-6.4 6.12-27.24 13.68-36.07 18.76-11.31 6.5-26.87 15.13-38.78 6.5-7.46-5.41-9.34-13.6-8.84-22.18.72-12.52 16.83-25.35 28.06-28.66 5.21-1.54 10.45.12 15.7-2.68 1.49-.8 10.65-11.79 8-11.46-15.75 1.94-32.21 3.8-47.08-1.72s-27.39-20.91-24-36.41c1.24-5.67 4.42-10.74 8.19-15.15 4.07-4.78 9.16-9.07 15.29-10.46 7.7-1.73 14.86 1.11 22.22 2.94 6.62 1.63 13.24 2.28 19.42 5.51 1.47.77 3.66 1.44 4.46 0a2.81 2.81 0 0 0 .23-1.44c-.24-5.31-4.2-9.76-8.6-12.75-8.26-5.6-18.54-8.84-23.75-17.92-2.67-4.65-5.54-9.18-8.33-13.77-4.43-7.29-4.32-14.89-1.38-22.61 1-2.71 2.31-5.32 3.48-8 11.27-25.72 44 7.27 51.21 20.86 1.26 2.38 2.66 5.11 5.26 5.82 3.37.91 6.64-2.4 7.2-5.85s-.7-6.88-1.63-10.24a54.85 54.85 0 0 1 6.31-43c4.62-7.38 13-14.15 21.3-11.64 7.37 2.22 10.87 10.44 13.18 17.79a332.75 332.75 0 0 1 11.82 52.16c.56 3.89 2.17 8.84 6.1 8.83 4.09 0 5.56-5.39 5.56-9.48 0-36.12-17.13-70.86-30.52-103.56-12.37-30.22-18-60.72-27.28-91.61-5.07-16.82-10.17-33.74-12.46-51.16-2.77-21.1-1.24-42.34-1.55-63.53-.59-39.3 1.28-73.7 9.77-112.42 3.2-14.58 6.93-29.28 14.3-42.27s18.89-24.23 33.26-28.28c4.52-1.27 9.23-1.82 13.68-3.31 26.81-9 53.87-.7 77.06 13.68 10.84 6.72 22.1 13.49 31.48 22.2 7.66 7.13 13.41 26.39 21.3 30.29 5.88-35.7 12.32-71.08 22.83-105.76 5.3-17.46 3.55-36.3 9.9-53.51 5-13.55 14.11-25.18 24.91-34.61 23.09-20.18 53.15-31 81.92-40.27 5.8-1.87 11.92-3.75 17.89-2.54 4.57.93 8.56 3.59 12.77 5.61s9.14 3.42 13.47 1.69c6.35-2.52 9-21.74 9.85-27.72.76-5 2.23-10 3.31-15 1.3-6.09 3-12.1 4.84-18.05a75.57 75.57 0 0 1 4.6-11.84c2.8-5.57 5.59-11 6.7-17.3.87-4.94 3.93-9.46 5.51-14.33a99.16 99.16 0 0 1 9.6-21c3.68-6 6.58-12.75 12.35-17.63 18-15.26 32.9-33.18 58.5-35 22.38-1.57 42.86 12.4 54.54 30.8 5.93 9.34 8.36 20.44 10.14 31.36a323.41 323.41 0 0 1 4.09 58.31c-.11 5.59-5.2 45.39-1.25 46.13a8.9 8.9 0 0 0 3.41.06c5.75-1.32 11.47.11 17.19.16a90.3 90.3 0 0 1 16.16 1.33 151.26 151.26 0 0 1 15.48 4.07 22 22 0 0 1 5.93 3c6.48 4.45 12.57 9.43 18.83 14.16 5 3.75 7.54 8.71 10.37 13.64 3.17 5.51 3.52 11.91 4.24 18.12.36 3.11 1.11 6.18 1.3 9.29.29 4.57-.85 9.08-.1 13.78.71 4.45.25 9.12.11 13.69-.36 11.82 1.92 11.59 8.69 1.85 5.47-7.87 9.83-16.3 16.29-23.49 21.79-24.3 61.34-30.25 89.32-13.45 11.48 6.9 21.47 16.89 24.18-3.75a20.67 20.67 0 0 1 .85-3.22c1.1-3.61 2-7.3 3.37-10.82 9.8-25.54 18.32-51.95 31.83-75.9 15.55-27.59 39-50.94 73.34-43.84 5.18 1.07 10.33 2.82 14.51 6.07a81.56 81.56 0 0 1 6.9 6.64c15.22 14.94 26.56 36.82 28.59 58.32.51 5.45 0 10.95.45 16.4.49 6.09 2.14 12.08 2.24 18.19.14 8.34-2.62 16.53-2.46 24.88.31 15.4 12.47 18.94 24.11 24.82 1.46.73 3.68.43 5.4 0 1.07-.27 2.75-1.87 2.61-2.56-.89-4.33 2.37-7.17 3.65-10.62 1.69-4.52 4.73-8.52 6.92-12.87 1.81-3.58 3.24-7.36 4.82-11.05 3.19-7.4 6.28-14.63 11.83-21s11.64-12.45 16.39-19.69c6.11-9.3 18.16-18.06 28.63-21.64 7.71-2.63 15.92-3.33 24.06-3.68 9.94-.44 20.37-.27 29.15 4.41 12.24 6.54 18.59 20.3 23 33.45 2.61 7.73 6.27 14.94 7.19 23 1.25 11 .65 22.59 1 33.69 1 35.58-15.09 63.72-25.42 96.88a178.92 178.92 0 0 0 -6.21 27.39c-1 7 .37 16.9-2.68 23.22a10.14 10.14 0 0 0 -1.23 3.09 11.31 11.31 0 0 0 .62 3.21 9.46 9.46 0 0 0 2.19-1.9c3.17-5.38 6.32-10.78 9.32-16.26 13.12-24 16.64-51.93 29.79-76.22a212.93 212.93 0 0 1 52.7-63.73c6.71-5.45 14-10.6 22.34-12.76 21.69-5.59 53 9 64.94 27.61a22 22 0 0 0 2.19 3.35c2.33 2.49 4.2 2.39 6.11-.43 2.12-3.14 3.82-6.58 6.07-9.61 2.6-3.51 5.53-6.79 8.47-10 7.75-8.56 14.42-18.06 23-25.91a15.22 15.22 0 0 1 6.29-3.63c3.35-1 6.52-2.68 9.9-3.51 8.64-2.12 17.26-1.87 26.08-.35a80.67 80.67 0 0 1 14.18 3.75 19.15 19.15 0 0 1 7.14 4.8c3.09 3.05 6 6.34 9.26 9.16 7.41 6.39 10.87 17.71 13.75 26.71 3.9 12.23 5.23 26 5.91 38.73a205.47 205.47 0 0 1 -3.84 50.28c-1.66 8.52-4 16.8-6.19 25.19-2 7.61-1.85 15.62-4.09 23.16-.62 2.1-.13 3.8.65 5.83s2.38 1.77 3.75 2.18c3 .89 6.09 1.42 9 2.55a72.18 72.18 0 0 1 9.41 4.66 162.49 162.49 0 0 1 29 21.4c12.55 11.74 21.25 27.19 26.76 43.47a168.87 168.87 0 0 1 7.79 75.81c-.87 6.52-2.13 13-2.76 19.54-1.29 13.21 0 26.53-.36 39.8-.52 20.54-4.86 40.72-9.82 60.57s-3.27 36.67-1.22 57l.58 5.76 1 9.66c1.22 12 4.45 25.43 2.37 37.44-.86 5-.85 9.88-1 14.82-.11 2.74.3 5.54-.1 8.22-.59 3.88 2.16 6.21 3.66 9.12.2.4 1.5.62 2.08.39 1.83-.72 4-1.28 5.25-2.64 11.78-12.72 22-26 35.38-37.25q3.63-3.06 7.33-6a7.58 7.58 0 0 1 3.1-1.76 6.61 6.61 0 0 1 3.65.56 23.44 23.44 0 0 1 10.63 35.55c-1.61 2.25-6.6 7.11-5.6 10.29 1.19 3.85 5.35 1.91 7.66-.38 4.14-4.08 9.58-5.86 14.65-8.16 2.74-1.24 6.1-1.24 9.21-1.52 2.49-.23 5.06.2 7.53-.1 9.43-1.13 15.4 4.64 20.57 11 2.57 3.13 1.35 7.64.14 11.66-2.52 8.36-9.25 12.29-16.15 16.1a74.6 74.6 0 0 1 -23.27 8.17c-4.55.82-8.94 2.59-13.34 4.11-.81.29-1.31 1.47-2 2.24.94.55 1.83 1.43 2.83 1.58a31.18 31.18 0 0 0 5.47.08c5.89-.2 11.94-.48 17.46 1.52 15.84 5.7 31.9 17 25.08 36.17-2.84 8-9.32 14.41-16.9 18.26-4 2-8.55 3.41-12.86 2.29a24 24 0 0 1 -6.22-3l-21.68-13.23a6.71 6.71 0 0 0 -3.07-1.23c-2.34-.1-4.14 2.37-4.19 4.72s1.13 4.51 2.3 6.54c7.6 13.2 22.33 27.61 22.89 43.17.22 5.38-1.52 10.61-3.23 15.71-1.26 3.72-2.63 7.63-5.59 10.22-8.62 7.53-23.32 4.07-30.29-3.76a84.28 84.28 0 0 1 -16.4-26.59 143.54 143.54 0 0 1 -6.26-18 11.7 11.7 0 0 0 -1.43-3.84 3.14 3.14 0 0 0 -5.94 1.7 10.73 10.73 0 0 0 1 4.31q2.16 5.67 3.94 11.46c3 9.64 9 18.67 10 28.7.49 5.44 0 11 .17 16.44a10.52 10.52 0 0 1 -2.65 7.46c-4.16 4.78-8.53 9.38-12.68 14.17a14.2 14.2 0 0 1 -6.84 4c-3.31 1.06-6.16.93-8.6-1.93a15.43 15.43 0 0 0 -3.65-3c-3.32-2-5.13-1.18-5.36 2.51-.36 6.14 1.09 10.53 1.95 16.36s-.68 11.8-.06 17.67c.51 4.75 2.36 9.24 3.94 13.75 9.2 26.3 10 59.27 3.73 86.4-.62 2.72-1.4 5.5-1 8.27.28 2.15 1.22 4.15 1.76 6.26 1.41 5.59-.16 11.46-1.73 17-3.94 19.74-11.18 38.54-14.64 58.37l-8.73 50.11a108.17 108.17 0 0 0 -2 16.89c-.11 7.8 1.51 15.45 2.54 23.14 1.07 8 .59 15.85 1.23 23.83l3.63 44.85c.65 8 1.3 16.11 1.38 24.2.32 34.89-5 70.38-8 105.16-.51 5.91-.89 11.8.29 17.66.91 4.55 4 9 4.39 13.52.46 5.08-.3 7.46-4.26 9.49-5.76 2.94-11.63 5.68-17.27 8.83a56.47 56.47 0 0 1 -16.24 6c-4.81 1-9.62 2-14.46 2.77a14.47 14.47 0 0 1 -4.78 0 138.92 138.92 0 0 1 -25.87-6.46 103.12 103.12 0 0 0 -21.87-5.92 66.34 66.34 0 0 1 -12.28-3 17.42 17.42 0 0 0 -11.85-.1 25.6 25.6 0 0 0 -2.43 1.15l-9.47 4.63c.15 4.53.25 9.06.49 13.58.08 1.55.72 3.07.75 4.61.52 30.06 2.08 60.22.45 90.27-.22 4.23-.51 8.52.3 12.68 1.06 5.4 3.28 10.14 3.56 15.69.3 6.28.63 12.61 1 18.93.33 5.7-1.85 12.49-7.36 14-2.94.81-6-.13-9-.36-4.73-.37-9.41 1-14 2.32-7.2 2.11-14.46 4.23-21.33 7.31-6.45 2.89-12 7.42-18.89 9.36a48.26 48.26 0 0 1 -15.49 1.26 115 115 0 0 1 -27.74-4.8c-10.68-3.23-21.3-8.07-32.43-7.38-8.11.5-18.73 2.41-18.28-9.38.15-9.39-.11-18.75-.11-28.12zm-642.38 22.45c8.4.84 17.07 0 26.72-.55a7.38 7.38 0 0 0 2-.29c21.54-7.64 38-17.8 54.11-34.05a44.28 44.28 0 0 1 6.11-5.51c10.39-7.16 19.63-8.76 17.66-23.76-7.46-56.88-18.69-114-22.59-171.27a717.24 717.24 0 0 1 .3-101.67c1.31-17.62 2.16-36 5.44-53.4 2.5-13.29 2.77-27.83 6.19-40.92.89-3.37 2.16-6.66 2.65-10.12.64-4.5-.08-9.06-.54-13.59-1.44-14.16-.36-28.45-.92-42.67s-2.95-28.83-10.56-40.86q-10.23 18-21.13 35.53c-5.36 8.64-13.87 15.74-18.42 24.63-2.83 5.56-9.67 7.87-15 11-2.44 1.43-6.19.76-9.35.79-6.66 0-10.9-4.14-11-10.83-.18-7.92 3.23-14.86 7-21.34 2.51-4.25 5.1-8.34 6.77-13 .9-2.51 1.9-5.29 3.69-7.12 4.41-4.51 5.36-10.7 8.45-15.84 1.92-3.19 2.86-7 4.12-10.56a2 2 0 0 0 -.61-1.78 1.86 1.86 0 0 0 -1.79.24c-3.12 3-7.19 5.63-8.92 9.32a15.93 15.93 0 0 1 -6.07 6.65 58.16 58.16 0 0 0 -16.35 16.51 39.49 39.49 0 0 1 -10.82 10.89c-3.34 2.25-6.45 5.53-10.13 6.41-5.38 1.29-11.08 2.71-16.75 1.63-3.85-.74-7.55-3.4-8.85-6.49s-1-7.9.39-11.22c2.44-5.85 6.21-11.15 9.43-16.69 1.23-2.12 2-4.82 3.78-6.28 6.33-5.16 10.21-12.46 16.89-17.51 7.59-5.74 13.73-13.36 20.57-20.09 2.21-2.17 2.53-4.53.26-6.37-11 5.41-18.36 16.74-30.6 21.39-2.73 1-5.58 1.83-8 3.4-3 1.94-5.21 4.93-8 7.17a25.37 25.37 0 0 1 -11.41 4.84c-4.65.83-9.77.59-13.63-2.14-9.79-6.91-.56-22.45 4.17-29.56 9.25-13.91 23.35-23.39 37.58-31.71 3.24-1.89 6.82-3.75 10.55-3.31 2.25.28 4.9 1.27 6.53-.32 1.43-1.4.79-4-.77-5.28-2.69-2.18-8.36-4.57-11.59-6.34-4.71-2.58-10.19-3.31-15.32-4.65a29.52 29.52 0 0 1 -15.66-9.78 13.88 13.88 0 0 1 -3.51-10.5 14.39 14.39 0 0 1 2.74-6.76c2.25-3 4.7-6.14 7.79-8.1 14.84-9.43 28.55-4.72 44.18.07 4.46 1.37 9 2.75 13 5.16 4.79 2.9 13.79 10.84 18.82 3.45a3 3 0 0 0 0-2.85c-5.2-6.45-10.88-11.4-16.91-17-12.36-11.46-19.15-37-3.69-48.71a28 28 0 0 1 7.27-3.69c4.3-1.6 8.82-2.89 13.41-2.67 8.39.4 12.16 6.11 16.88 12 2.68 3.36 4.87 3.27 5.76-.63 3.15-13.82 6.52-30.25 3.65-44.3-1.17-5.73-3.49-11.29-3.59-17.14-.14-8.31 4.23-16.23 4-24.54-.09-3.06-.81-6.13-.45-9.17s2.23-6.25 5.24-6.81c4.14-.77 7.28 3.5 9.3 7.18 8.93 16.31 16.48 37.38 30.82 49.6 2.6 2.21 4.41 1.18 4.64-2.28.72-10.63 2.83-14.29-5.86-20.58-7.11-5.16-9.64-15.34-17.36-19.53-1.88-1-4-1.64-5.69-2.94-2.27-1.74-3.51-4.46-4.66-7.08-2.06-4.69-4.17-9.58-4-14.7s3.37-10.53 8.4-11.49a17.13 17.13 0 0 1 5.62.18c8.49 1.21 17.9 1.12 26.13 3.08 6.31 1.51 9.06-.66 11.07-7a54.62 54.62 0 0 0 2-9.13 71.22 71.22 0 0 0 .27-7.88c-2.28.66-4.57 1.3-6.84 2-14.29 4.35-27.83 6.49-42.94 5.34-3.51-.27-7.47-1-9.37-3.92-2.07-3.23-.58-7.65 1.91-10.57s5.85-5 8.27-8c1.6-2 2.76-4.35 4.53-6.2a24.9 24.9 0 0 1 6.85-4.51c14.9-7.58 49.66-17.19 47.88-39.25-.22-2.81-1.41-5.84-4-7-1.88-.86-4.08-.54-6.08 0-14.09 3.58-24.19 14.8-34.13 24.63a125 125 0 0 1 -37.88 25.61c-22.16 9.88-11.3-41.19-9.28-49.76a827.83 827.83 0 0 0 18.67-115.29c3.35-37.08-.78-76.38 7-112.84 2.79-13.18 8.13-25.67 12.26-38.49 10.65-33.11 20.14-83.72-.5-114.45a104.07 104.07 0 0 1 -5.39-9.27c-19.88-37.33-81.29-16.19-108.67-1-3.66 2-7.38 4-11 6.14-4.63 2.73-9.57 5-14 8-5.15 3.55-10.51 6.74-15.19 11.12-27.43 25.72-52 57.49-61.08 94.62-5.53 22.59-5.86 46.21-8.86 69.17-1 7.64-.08 15.51-.31 23.27s-1.1 15.79-1.25 23.69a61.06 61.06 0 0 1 -2.64 17.87c-4.94 15.52-6.72 31.89-10.94 47.63a255.72 255.72 0 0 0 -8.53 57.55c-.35 11 0 22 .35 32.94.58 17.86 2.87 37.71-.09 54.94-1.78 10.33-6.89 17.25-17.23 19.94a17.26 17.26 0 0 0 -3.79 1.28c-5.73 3.09-11.12.68-15-2.68-8.56-7.41-16.62-15.51-23.16-24.87a195.66 195.66 0 0 1 -11.93-18.47c-3.63-6.65-10.85-10.28-18.18-8.36a11 11 0 0 0 -4.79 2.28c-2.1 1.94-2.68 5-3.15 7.81a8.92 8.92 0 0 0 .12 4.92c1.92 4.6 9.69 9.28 13 13.22a16.69 16.69 0 0 0 7.64 5.17 76.44 76.44 0 0 1 16.06 6.57c2.51 1.4 5.19 3.21 6.68 5.55s3.09 6.12 2.44 8.69c-1 4-3.79 7.54-6 11.14-1.28 2-3.35 2.64-5.87 2.71-7 .17-13.25.29-20.12-1.12-18.12-3.72-39.83-1.4-57.86 2.42-5.15 1.09-10 2.4-10.52 9.2-.2 2.44-1.46 4.92.06 7.12 5.91 8.53 15.69 4.89 24.6 3.68q16.19-2.19 32.11-6c3.8-.9 7.65-1.88 11.56-1.75s8 1.55 10.38 4.63a13.28 13.28 0 0 1 2.4 9c-.72 10.61-10.06 18.65-19.69 23.16-12.55 5.86-25.56 11.85-38.34 17.15a17.23 17.23 0 0 0 -5 2.68c-3.56 3.1-3.78 8.47-3.73 13.19a3.25 3.25 0 0 0 .64 2.34 3 3 0 0 0 2.58.53c14-1.68 28.8-15.85 40-23.78 3.86-2.72 8.15-5.53 10.63-9.35 3.77-5.82 9.5-7.93 15.14-10.32 6.45-2.72 14.89 3.92 13.12 12.27-1.6 7.53-3.91 14.71-10.72 19.48-3.3 2.32-6.35 5-9.5 7.56a28.88 28.88 0 0 0 -4 3.48c-3.78 4.45-7.1 9.35-11.19 13.47-4.55 4.57-6.74 10.6-10.7 15.52-1.6 2-2.22 4.85-2.93 7.41-.91 3.24.8 5.16 4.24 5.33 2.91.14 5.15-1.15 7.38-2.85 2.84-2.16 6-4 8.8-6.14 2.68-2 5.84-3.87 7.63-6.56 6.69-10 13.67-19.9 19-30.81a48.78 48.78 0 0 1 10.47-14.78c3.1-2.85 6.37-2.77 9.55.14 11 10 1.93 23.37-4.49 33.37-3.36 5.23-7.19 10.22-9.74 15.88-2.25 5-3.47 10.43-6.07 15.25-2.69 5-7 9.34-8.83 14.79-2.07 6.16-3.38 12.41-5.68 18.63a11.48 11.48 0 0 0 -.73 5.26c.47 3.52 3.86 5.14 7 3.43a20.28 20.28 0 0 0 4.74-3.67c1.55-1.59 2.6-3.69 4.2-5.22a36.55 36.55 0 0 0 6.23-8.75c3.48-6.12 8-11.46 11.41-17.56 3.8-6.92 5.5-14.82 7.56-22.37a217.36 217.36 0 0 1 15.32-40c1.21-2.44 3.2-5.24 5.89-4.8 2.12.34 3.32 2.57 4.08 4.58 5.7 15.11 3.71 30.92 1 46.39-2.83 15.86-3.73 32.12-4 48.22-.55 33.77 2.48 67.46 3.09 101.21.91 49.74-24.07 93.54-21.92 143.41.88 20.51 6.9 40.65 14.2 59.69 22 57.3 40 110.38 42.58 172.44 1 23.48.22 47-.35 70.49a332.39 332.39 0 0 0 3.1 50.43c1.13 8.69 2.5 17.35 4.05 26 1.41 7.84 3.17 13.74 3 21.81 0 1.24 0 2.7 1.06 3.41a3.79 3.79 0 0 0 2.56.38l36.73-3.14c9.32-.8 18.89-1.58 27.89 1 11 3.13 20 10.9 29.56 17.22a49.78 49.78 0 0 0 23.13 8.28zm-173.83-921.72c-.94-11.29-3.86-18.61-11.14-12.61-3.08 2.55-5.14 6.26-8.52 8.4-5.17 3.26-12.24 1.89-17.19-1.7s-8.24-9-11.31-14.27c-8.19-14.07-15.71-28.46-22.92-43-5.25-10.64-11.45-19.06-14.88-30.75-25.47-86.98-40.7-178.95-74.58-262.91l-9.57-23.77a50.73 50.73 0 0 0 -5.54-11c-2.89-4-6.86-7-10.81-10-19.39-14.39-43.92-37-69.35-37.41-7.68-.13-15.39-.4-23 1.28-8.62 1.89-15.15 1.15-22 7.68-17 16.11-27.24 38.35-32.64 61.16-7.91 33.43-8.06 71.08-8.49 105.36-1.07 84.18 31.16 161.27 60.1 238.49 9.05 24.14 21.64 61.77 10.64 87.13-2.44 5.62-7.45 9.48-12.27 12.81-3.49 2.41-13.45-2.12-14.86-6.4-.78-2.38-2.25-3.78-3.53-5.58a25.1 25.1 0 0 1 -3.54-6.37 110 110 0 0 1 -3.42-12.88 185.66 185.66 0 0 1 -3.36-19.78 34.18 34.18 0 0 0 -2.58-11c-1.09-2.45-2.4-4.9-2.87-7.48-3.16-17.3-17.79-2-17.21 8.88.3 5.7 2.48 11.11 4.64 16.39 5.35 13.1 12.34 25.5 12.69 39.94.08 3 0 6.17-1.5 8.8-2.47 4.42-8.24 6.11-13.24 5.3-11.81-1.91-23.8-12.9-29.51-23-2.52-4.45-5.74-7.94-9.09-11.53-1.68-1.8-2.95-4-4.71-5.69-4.4-4.24-8.84-8.44-13.52-12.34-2.14-1.78-7-1.12-8.89.52-2.49 2.14-2.11 4.35-1.17 7.31 5.85 18.39 20.79 24.67 35.61 34.19 10.5 6.74 18.4 16.85 25 27.43 2.73 4.39 4.13 8.52 1.36 13.17-3.22 5.39-7.37 7.71-13.39 7-2.43-.28-4.83-.81-7.22-1.31-1.95-.41-3.89-1.35-5.82-1.31-8.49.14-23.81-9.51-32.36-12.13-8.8-2.69-20.06-4.7-25.77 2.52-4.05 5.12-2.9 13 1.26 18.08s10.6 7.66 17 9c20.34 4.37 41.38-2 62.18-1.58 2.8.05 5.71.26 8.19 1.57 8 4.23 6.23 17.19-.74 23s-16.54 6.9-25.29 9.27c-12.31 3.33-23.64 9.49-34.83 15.59-3.81 2.08-8.07 4.82-8.47 9.13-.43 4.67 4.33 8.5 9 8.81s9.11-1.85 13.26-4a463.78 463.78 0 0 0 48.83-29.61c6.74-4.67 17.18-9 21.9-2.33a11.26 11.26 0 0 1 1.72 6.82c-.39 16.1-17.86 25.14-29.78 36-4.43 4-8.46 9-9.07 15s3.57 12.62 9.54 12.8c6.77.2 11-7 13.58-13.31 4.13-10.1 29.19-75.66 46.79-60 3.25 2.89 6.69 5.53 7.47 10.81.86 5.84 4.09 11.29 5.44 17.11 12.71 55 13.46 115 12.34 171.09-.63 31.52 4.09 59 8.43 89.83 11.08 78 38 152.8 48.4 230.9 5.17 38.58 6.64 78.72-.88 117.12-11.15 57-11.37 108.7-12.43 166.25-.28 15.25-2.05 31-7.66 45.25-3.25 8.28-15.13 20.75-11.48 30.37 4 10.49 20.88 12.32 30.17 14 16.08 2.95 24.78 6.51 27.06-12.48 3.21-26.7 4.15-54.54 6.83-81.55 1.16-11.68 2.39-23.6 7.19-34.31 10.12-22.59 35.5-28.78 58.09-23.25 16.52 4 19.64-8.8 24.32-19.54 7.26-16.64 13.65-30.5 31.81-37.92a53.92 53.92 0 0 1 49.2 4.8c6.1 4 11.51 9.57 13.85 16.5 3 8.88.73 19.15 4.89 27.56a5.55 5.55 0 0 0 2.69 2.94c2 .79 4.38-.77 5.23-2.79s.62-4.3.37-6.48c-5.14-45-8.33-88.3-8.11-133.73.1-22.48-.38-45.08-3.36-67.39-1.19-8.94-3.18-18.23-4.53-26.78-5.33-33.64-18.43-61.57-31.19-92.85a221.92 221.92 0 0 1 -15.14-106.64c2.82-26.67 10-52.77 15.35-79 5.56-27.12 1.85-54.73-.76-81.92-2.8-29.12 1.48-59.11 4.84-88l-7.61 11.38c-9.64 14.42-19.39 29-32 40.91-3.45 3.26-7.43 6.47-12.16 6.84-7.22.58-13.47-6-14.95-13.08s.67-14.39 3.2-21.17c4.61-12.36 12.43-23.24 16.92-35.46.24-.64-.78-2.22-1.58-2.59a3.05 3.05 0 0 0 -2.76.89c-7.12 8.95-14.12 15.8-24 22.18-3.21 2.08-6.71 4.08-10.53 4.09-5.13 0-9.78-3.76-11.75-8.49-7-16.88 13.71-41.77 23.9-53.7 2.22-2.6 4.67-5.47 4.61-8.89-2.82-.37-5.36 1.57-7.58 3.34-10.58 8.4-23.18 17.21-36.34 20.92a123.17 123.17 0 0 1 -16.17 3.91c-10.47 1.47-10.9-11.79-8.34-18.72 1.87-5 5.21-9.39 8.64-13.54 13.11-15.88 29.26-28.06 48.81-35 2-.71 3.78-2.2 5.65-3.33-1.63-2.83-4.4-2-6.78-1.93-16.61.76-37 7.79-53 2-20.36-7.4-17.78-30.88-2.79-42.37 5.36-4.11 11.3-7.65 17.87-9.19 19.72-4.62 42.84-1.9 62.9-1.07-3.29-.14-14.26-10.81-17.11-13.25-5-4.27-10.39-9.07-14.37-14.38-3.57-4.76-6.08-10.55-5.87-16.5a23.7 23.7 0 0 1 7.59-15.91 37.78 37.78 0 0 1 15.7-8.59c4.63-1.36 9.65-2.09 14.24-.61 9.51 3.05 16.42 14.46 23.21 21.33 3 3 3.69 7.19 6 10.3 3.41 4.51 5.76 9.65 9.09 14.08a77.1 77.1 0 0 0 11.93 12.16c3 2.58 9.71.76 11.86-2.62a3.41 3.41 0 0 0 .5-1.9c-.21-4.44 2.64-29.32 1.3-45.72zm160.4 272.63c-1-.06-2-.1-3-.13-2.69-.07-6 .38-7 2.88-1.33 3.33 2.71 6.17 6 7.47q15.93 6.21 32.29 11.22c5 1.52 10.65 3.6 12.24 8.54 1.69 5.23-2.29 10.58-6.67 13.91-10 7.64-22.85 10.29-34.75 14.46s-24.17 11-28.58 22.87a6.91 6.91 0 0 0 -.45 4.59c1.59 4.58 8.47 2.62 12.44-.14l45-31.28c4-2.76 8.12-5.59 12.9-6.31s10.36 1.39 12 5.93c2 5.5-2.38 11.08-6.41 15.3-17.58 18.4-34.4 37-51 56.38a13.76 13.76 0 0 0 -3.17 5c-.53 1.92 0 4.29 1.7 5.29 2 1.15 4.47.09 6.48-1 18.36-10.18 33.24-24.84 45.53-41.73 5.15-7.08 24.94-25.11 26.07-3.86.55 10.34-4 21.9-9.83 30.18-3.21 4.55-7.12 8.56-10.28 13.14-4.08 5.92-6.8 12.64-9.49 19.3a17.44 17.44 0 0 0 -1.72 6.7c0 2.32 1.24 4.78 3.41 5.59 3 1.09 6-1.17 8.27-3.37a116.89 116.89 0 0 0 24.58-34.78c5.29-11.48 6-25.55 14.06-35.49a14.4 14.4 0 0 1 11.35-5.82c4.54-.22 6.39 2.17 8.4 5.33 3.38 5.29 6.71 10.54 7.9 16.88a91.7 91.7 0 0 0 2.56 8.94c15.07 50.6 3.47 104.72-2.54 155.94q-4 34.23-5.43 68.7c-1.81 43.9 1.59 87.84 7.41 131.33 2.93 21.84 6.48 43.58 10.34 65.27 5.4 30.41 8.79 59.2 4.54 90.19-2.9 21.1-8.26 41.75-14.44 62.1-5 16.37-12.66 33.47-13.21 50.7-.07 2.12 1.39 4.41 3.89 5.87 14.47 8.43 22 22 30.64 35.68a23.79 23.79 0 0 0 4.07 5.27 17.51 17.51 0 0 0 9.46 3.79c8.59 1.14 17.21-2.31 25.46-4.37a21.42 21.42 0 0 0 3.86-1.23 32.59 32.59 0 0 0 3.41-2c4.07-2.54 8.67-4.11 13-6.3 12.56-6.4 22.42-18.06 36-21.78 11-3 23.63-1 34.9-.52 10.37.46 20.34 7.08 29.23 12.07 3.94 2.2 21.63 10.08 20.86-.09a41.78 41.78 0 0 0 -1.68-9.16c-2.17-7-4.66-13.24-6.23-20.3s-5.51-13.1-7.83-19.8a85 85 0 0 1 -3.34-15.9 334.39 334.39 0 0 1 -3.66-39.44c-.15-7 0-14 .34-21.06q.48-11.76 1.27-23.53c.48-7.21 1-14.44.81-21.67a159.48 159.48 0 0 0 -1.53-16c-3.86-28.76-8.35-56.58-7.44-85.79.69-22.14 3.47-44.17 6.24-66.15 0-26.29 8.49-51.56 7.46-78.22-1.06-27.8-6.1-55.25-7.84-83-1.32-21-2.71-44.7 3-65.16 5.46-19.39 16.37-37.38 17.87-57.8.47-6.34 0-12.9 2.26-18.84 1.93-5.09 5.67-9.14 8-14 2.43-5.08 2.07-10.86 5.59-15.49 8.41-11 24.93-4.36 31.17 5.33 5.44 8.46 6.54 18.89 8.18 28.82a219 219 0 0 0 12.06 43.9 6.3 6.3 0 0 0 1.88 3c2.58 1.86 6-.89 7.66-3.61 9-14.86 5.34-34.27-2.35-49.83-3.67-7.4-8.25-14.66-9.12-22.87s3.59-17.8 11.74-19.14c7.49-1.23 14 4.64 19.88 9.5a107.72 107.72 0 0 0 12.72 9.1c2.6 1.59 5.66 3.12 8.57 2.23 4-1.25 5.38-6.78 3.62-10.63s-5.56-6.32-9.26-8.39a130 130 0 0 0 -18.82-8.62c-4-1.48-8.3-2.84-11.48-5.74s-5-7.9-2.78-11.62c1.47-2.49 4.28-3.81 6.92-5 6.48-2.88 12.92-5.88 19.45-8.65 5.36-2.28 11.73-3.42 16.33-7.15 3.41-2.77 4.37-6 5.23-9.67.46-2-.71-3.19-2.7-2.71a46 46 0 0 0 -8.91 2.76c-4.42 2.06-9.76 2.42-13.16 6.36-5 5.78-11.84 8.09-18.81 9.81-10.71 2.62-19.35-8-13.71-17.54 1.26-2.13 3-3.91 4.29-6s1.93-4.62 3-6.89c4-8.85 13-14.18 19.5-21.43a18.21 18.21 0 0 0 4.63-8.09c.65-3.08-.18-6.63-2.69-8.52-4.38-3.3-10.58-.12-14.8 3.38a98.12 98.12 0 0 0 -19.4 21.67c-4.44 6.76-8.12 14.16-13.91 19.81-7 6.85-12.58 16.13-21.59 20.12a10.43 10.43 0 0 1 -5.21.89 14.66 14.66 0 0 1 -13-14.77c.22-24.66 2.06-50 3.6-74.73a1139.62 1139.62 0 0 1 16.15-133c3.53-19.43 7.57-38.81 13.77-57.56 1.73-5.21 3.61-10.36 5.16-15.63 5.17-17.54 6.64-36.08 8.91-54.14a374.37 374.37 0 0 0 3.24-57.56c-.69-23.67-3.52-47.87-14.13-69-15.8-31.53-54-52.21-87.5-36.93a112.8 112.8 0 0 0 -27.96 17.99c-9.35 8.3-17.25 18.1-24.44 28.32-23 32.8-36.63 68-44.8 106.65-1 4.67-1 9.4-1.51 14.07-.41 3.6-.46 7.2-.76 10.78-2.47 29.22-13.56 59.31-20.54 87.75-4.56 18.58-9.12 37.17-12.88 55.93a676.86 676.86 0 0 0 -11.62 86.48c-.78 11.21-.87 22.33-1.12 33.53-.26 11.57-2.8 23.65 1.5 34.81.75 2 1.73 3.94 1.69 6a11 11 0 0 1 -2.16 5.66 21.67 21.67 0 0 1 -7.89 7.68 12.11 12.11 0 0 1 -10.71.51 19.47 19.47 0 0 1 -5.46-4.62c-5.33-5.76-11.62-11.28-15.68-18-3.73-6.2-7.25-12.53-10.77-18.85l-2.81-5.05c-7.29-13.11-14.92-26.62-26.95-35.58-2.54-1.89-5.49-3.62-8.65-3.39-5.48.41-8.35 9-6.74 13.58 2.51 7.09 5.27 14 11.8 18.7 8.27 5.94 17.72 16.41 20.61 26.32 8.84 30.34-24.9 19.43-38.87 12.73a89.43 89.43 0 0 0 -33.18-8.61zm550.44 20.55c5.26 0 10.52.08 15.77 0a20.92 20.92 0 0 1 10.25 2.86c4.86 2.58 5.54 12.19 1.11 15-6 3.86-12.5 7-17.26 12.54-2.76 3.23-10.7 4.58-14.51 6.44a109 109 0 0 0 -16 9.58 75.82 75.82 0 0 1 -6.57 4.53c-2.42 1.4-5 2.45-7.47 3.83-4.52 2.58-8.29 6.27-12 9.91-4.42 4.34-9 9-10.66 14.92a5.54 5.54 0 0 0 -.15 3.12c1 3.09 5.42 2.94 8.52 1.95 10-3.19 18.44-9.29 26.72-15.56 4-3.06 6.86-5.2 9.57-9.37a36.29 36.29 0 0 1 11.57-10.65c5.67-3.52 11.85-6.2 17.35-10 3.79-2.63 8.44-5.93 12.55-3.83 2.42 1.24 3.66 4.1 3.69 6.82a20.48 20.48 0 0 1 -1.94 7.85 156.22 156.22 0 0 1 -23.15 39.44c-9.35 11.61-19.92 23.22-22.32 38.55-.55 3.51-.43 7.58 2.2 10 2.3 2.09 5.75 2.17 8.83 1.82 4.87-.56 9.84-2 13.44-5.38 3.88-3.59 5.56-8.69 7.5-13.45s5.9-9.15 7.34-14.11c4.09-14.06 9.63-27.63 14-41.6 2.25-7.17 5.38-14.39 11-19.33 3.32-2.88 8.14-4.89 12.07-2.93 4.93 2.45 5.42 9.16 5.23 14.66-.3 8.62-.62 17.38-3.28 25.58-1.81 5.56-4.65 10.73-6.73 16.2-2.94 7.71-1.72 14.77-2.6 22.67-.48 4.29-1.18 9.49 2.23 12.13 2.47 1.93 6.2 1.42 8.74-.41s4.11-4.69 5.4-7.54c4.46-9.86 6.49-20.59 7.85-31.26 1.07-8.41 1.85-16.75 3.86-25l2.47-10.2c1.16-4.8 2.41-9.78 5.54-13.6s8.73-6.09 13.15-3.89c4.19 2.09 5.79 7.15 7 11.68 1.26 4.83 2.53 9.66 3.37 14.57 1.44 8.36 1.64 16.87 1.84 25.34.12 4.94 1.44 11.55-.16 16.33-1.66 5-5.23 8.15-6 13.75-.66 5-.29 10.06-.85 15.06-.86 7.57-3.83 14.7-6.08 22-2.53 8.18-4.17 16.61-6.71 24.78-2 6.56-4.67 13-6 19.71-1.71 8.92-1 18.11-.33 27.17l1 13.25 2.2 28.86c3.25 42.63 13.09 84.56 12 127.46-.16 6.52-.52 13-.74 19.53q-.77 21.87.3 43.73c.51 10.37 1.33 20.84 4.47 30.74a26 26 0 0 1 1.29 5c.13 1.28 0 2.58.06 3.87.12 7.91 3.45 16.42 5 24.22l6 30.39c1.18 6 2.36 12.06 3.08 18.15 1.83 15.63-.71 30.66-2.2 46.11-.19 2.06.78 2.8 2.8 2.79 13.6-.06 27.3 5.55 40.4 9.15 10.73 3 22.7 6.37 33.15.89a209.59 209.59 0 0 1 52.37-19 1.11 1.11 0 0 0 .68-.34 1 1 0 0 0 .15-.58c.78-13.42-3.12-26.07-4.07-39.33q-1.38-19.17-2.41-38.36c-.88-16.32-1.58-32.71-.12-49 .63-7 1.66-14.08 1.45-21.14-.24-8-2.1-15.92-2.27-23.94s1.33-16.38 2.24-24.28a215.26 215.26 0 0 1 4.36-23.33c2.65-11.5 5.52-23 7.3-34.64 1.55-10.18 3.92-23.06 2.31-33.26s-3.81-20.65-5.7-31l-7.52-40.9-6.16-33.55c-1.17-6.36-2.34-12.73-3.4-19.12a540.28 540.28 0 0 1 -6.75-65.82c-.38-9.52-1.32-18.64 1.68-27.64 3.37-10.09 4.08-20.82 7.39-30.91 1.84-5.6 5-10.45 10.42-13.27 4.61-2.41 11.23 0 12.71 4.94a35.81 35.81 0 0 1 1.36 16c-1.89 11.7-1.27 22.33-2.13 34a13.46 13.46 0 0 0 0 4.06 11.7 11.7 0 0 0 1.79 3.67l5.25 8.19a2.26 2.26 0 0 0 1.11 1.07c.9.28 1.72-.58 2.22-1.38 10.39-16.46-.71-38.29-1.86-55.74a18.63 18.63 0 0 1 .07-4 19.63 19.63 0 0 1 2.06-5.51c2-4 4-8.14 7.13-11.39 5.59-5.83 15.76-7.44 21.39-.63 4.82 5.82 8 15 10.32 22.07 1.28 3.85 2.15 7.82 3.34 11.7 3 9.72 7.92 18.7 12.83 27.6 2.13 3.88 9.64 17.31 16.08 14.29 7.48-3.51 7.27-15.67 5.23-22.14s-6-12.16-9.85-17.8c-11.25-16.71-23.44-34.84-29.4-54.14-2.21-7.13 7.35-18.06 14.84-17.6a2.18 2.18 0 0 1 .68 0c8 3.44 14.59 4.7 21.87 10.14q6.69 5 13.74 9.45c3.83 2.43 7.74 4.73 11.65 7a29.15 29.15 0 0 0 5.82 2.87 14.71 14.71 0 0 0 12.47-1.81c5.49-3.73 5.84-10.1.94-14.24-7.51-6.34-17.35-9-26.84-11.52l-12.44-3.28c-3.34-.88-6.68-1.76-10-2.7-9.32-2.64-23.11-11.37-13.1-22 1.37-1.46 2.35-3.28 3.71-4.75a22.44 22.44 0 0 1 4.06-3.48c6.84-4.48 14.76-5.16 22.56-6.52a285.55 285.55 0 0 0 29.15-7 6.92 6.92 0 0 0 3.5-1.8c1.33-1.56 1-4.08-.42-5.6a8.29 8.29 0 0 0 -5.51-2.34c-4.07-.35-8.08.93-11.95 2.19a273.74 273.74 0 0 0 -42.67 18.34 31.63 31.63 0 0 1 -6.85 2.68c-7.09 1.77-10.7-6.18-10.21-12.1.37-4.47 3.62-8.14 7-11.13 10.87-9.7 24.92-16.42 32.52-28.86 1.54-2.53 2.75-5.87 1.09-8.32-1.49-2.19-4.74-2.55-7.18-1.52s-4.26 3.1-6 5.1l-12.32 14.23c-14 16.16-32.34 39.28-55.58 37.12a5.73 5.73 0 0 1 -3.69-2.66c-5-8.66-2.28-15.34-2.33-24.9-.07-10.63-1.89-21.19-1.43-31.83a150 150 0 0 1 2.82-20.75c0-11.79 4.63-25.23 6.76-36.86 2.23-12.14 5-24.24 7.09-36.35s4.18-24.38 5.24-36.7 1.07-24.73 2.64-37c1-8.08 2.75-16 4.51-24 4.73-21.45 10.68-42.61 15.42-64.06 4.5-20.37 10.15-42.31 8.32-63.3-9.25 2.85-15.49 11.22-23 17.28a42.49 42.49 0 0 1 -21.87 9.52c-24.37 2.57-35-19.11-35.55-40a25.48 25.48 0 0 1 .1-4.1c1.45-11.43 10.09-22.89 18.25-30.48 7.9-7.35 17.27-13 26.94-17.75 8.28-4.1 14.79-5.39 23.4-2.22 5.93 2.19 10.36 3 9.45-5.25-1.5-13.58-9.79-25.3-15.07-37.91-1.72-4.12-3.14-8.4-5.55-12.16-7.06-11-27.33-21.68-40.56-19-2.79.56-5.41 1.73-8.18 2.35-8.93 2-17.73.11-26.69 2.59-10 2.75-19.87 4.75-29 9.83-11 6.14-15.57 14.15-20.7 25-5.54 11.76-15.56 21.39-22.72 32.15-9.86 14.8-15.89 31.74-19.87 49-2 8.73-3.52 17.57-4.79 26.43-1.23 8.67-.08 16.12-.23 24.77 0 3.11-.37 6.22-.36 9.33 0 10.7-1.5 21.37-.9 32.21.18 3.13.45 6.25.58 9.38a146.81 146.81 0 0 1 -.83 20.21c-1.89 19-6.06 37.35-11.42 55.63-5.27 18-7.13 36.41-7.85 55.09-.48 12.25-.61 24.51-.75 36.76l-.6 54.34c-.19 17 0 34.24-5.75 50.52-1.35 3.81-3.23 7.58-6.32 10.18-2.39 2-5.88 3.23-8.64 1.76a13.8 13.8 0 0 1 -2.68-2.16c-3.66-3.33-8.19-5.43-12.17-8.33-10.06-7.33-18.72-20.54-24.12-31.53a19.48 19.48 0 0 0 -3.55-5.66c-2.28-2.21-5.57-3-8.11-4.93-3.18-2.37-5.33-6.47-9.22-7.27-4.27-.87-8.07 2.74-10.62 6.27-4.79 6.66-4.14 12 2 17.12 10.82 10.82 23.86 19.68 35.22 29.88a22.46 22.46 0 0 1 4.86 6.42 6 6 0 0 1 -.72 7c-3.59 4.06-7.13 8.18-10.81 12.17-4.58 5-11.22 1.84-16.1-.53-9-4.37-19.26-5.62-29.24-4.94s-19.72 3.23-29.29 6.13c-1.64.5-3.56 1.3-3.86 3-.43 2.36 2.53 3.76 4.89 4.2 10.68 1.95 21.53 1.24 32.32 1.24zm82.17-559.43a172.08 172.08 0 0 0 -11.57-64.06c-6.1-15.76.9-30.79-17.1-39.69-7-3.44-14.77-4.59-22.44-5.71-9.56-1.38-19.29-2.77-28.85-1.3-7.27 1.11-14.21 3.85-20.88 7-12.68 5.92-24.85 13.41-34.4 23.65-21.69 23.27-40.16 50.17-51.35 80.08s-16.15 62.34-32 90.49c-7.47 13.33-9.84 27.48-17.41 40.43a7.63 7.63 0 0 0 -.92 5.71c2.6 14.8 2.44 29.58 3.8 44.64 4.74 52.49-17.16 98.84-29.26 148.5-3.88 15.94-4.26 32.64-6.45 48.91l-7.15 53.09c-1.55 11.55-3.11 23.1-4.2 34.7-1 10.35-1.57 20.73-2.17 31.1l-2.82 48.49c-.12 2 0 4.38 1.7 5.37 2 1.14 4.37-.54 6-2.11 4.82-4.55 11.49-9 15.52-14.16 7.27-9.38 12.72-20 20.41-29.08 5.46-6.43 12.21-12.19 20.38-14.26s17.89.4 22.43 7.49c3.46 5.41 3.39 12.43 1.73 18.64-2.3 8.63-7.32 16.12-12.81 23-1.75 2.2-13 13.07-8.64 16.46 1.48 1.15 3.6.2 5.22-.73a165.49 165.49 0 0 1 19.62-9.7c4.82-2 10.06-3.81 15.18-2.75 6.45 1.34 17.15 10.13 16.93 17.34a12.53 12.53 0 0 1 -1.69 5.34c-8 15.07-25.69 21.54-39.45 31.62-2.28 1.66 13.54 11.38 14.62 12 5.67 3.38 12.47 8.2 13.29 15.44a13.79 13.79 0 0 1 -.56 4.67c-1.82 7.56-3.89 15.56-9.51 20.93-7.66 7.32-21.23 7.09-28.64-.48-1.44-1.47-2.85-3.28-4.89-3.6-3-.47-5.5 2.76-5.49 5.79s1.7 5.75 3.29 8.33c4.62 7.46 4.46 16.82 4.36 25.32-.13 10.56-.43 21.48-4.85 31.07s-14.08 17.58-24.61 16.7c-8.51-.71-15.74-7-19.79-14.55-7-13-6.56-28.17-9.1-42.26-1.06-5.86-1.28-12-4.81-17.29-3-4.48-3.54-4.78-7.13-.57-.44.52-1.13 1-1.27 1.58-1.33 5.76-4.82 10.42-7.5 15.52-2.78 5.29-4.54 11.12-6.56 16.79-1.77 5-1.52 10.42-2.9 15.53-1.91 7.1-5.2 13.75-7.48 20.74-6.74 20.65-4 41.8-4.75 63a123.74 123.74 0 0 0 -.2 12.48 105.69 105.69 0 0 0 1.83 12.35c9.68 52.87 5.44 103.55-3.11 156.11-1.62 10-2.12 20.16-2.62 30.29l-1.92 39.29c-.56 11.52-1.12 23.16 1 34.5.86 4.74 2.18 9.38 3.22 14.08 4.54 20.4 3.86 41.55 3.16 62.43-.56 16.72-.63 33.81-2.61 50.31-.44 3.73.91 7.08 2.44 10.35 2.91 6.23 13.17 3.49 18.08 1.72 6.52-2.34 11.58-9.24 18.87-9.31 3.37 0 6.52 1.58 9.83 2.2 5 .92 10.07-.41 15.1 0 5.91.47 11.45 3.29 17.39 3.44 6.17.16 11.77-3.27 16.6-6.78a10.65 10.65 0 0 0 3.62-3.69 10.36 10.36 0 0 0 .64-4.92c-.51-13.14-3.73-26.08-3.82-39.21 0-5-2-9.29-2.89-14-1.1-5.6-.68-11.94-.73-17.63-.1-11.9.45-23.78 1.09-35.66.48-8.82 1-17.64 1.89-26.43 3.57-35.45 15.08-68.43 22.52-103 3.67-17.08 7.57-34.16 11.29-51.24 2.13-9.75 4.25-19.52 5.31-29.43 1.43-13.46.89-27.07 2-40.55.46-5.34 1.18-10.66 1.3-16 .27-11.06-2-22-2.91-33a272.19 272.19 0 0 1 -.39-28.71c0-12.23-.29-24.36 3-36.07 1.94-6.88 2.94-14 4.13-21 1-5.88 2.13-11.75 3.26-17.61l4-20.88c.56-2.87 1.11-5.74 1.83-8.57 1.24-4.82 3-9.51 3.86-14.41 1.42-7.81.24-15.67 1.6-23.38 1.27-7.25 3.09-13.93 2.84-21.37-.26-7.88-1.7-15.7-1.38-23.61.22-5.45 1.28-10.84 1.8-16.28.3-3.14.43-6.28.55-9.43l.45-11.36.76-19.48.52-13.21q.15-3.92.33-7.81c.11-2.24.24-4.47.36-6.7 0-5.33-.53-13 .91-18.11 3.35-11.76 9.41-21.58 14-32.6 9.69-23 9.58-48.1 18.59-71.41 1.65-4.27 3.69-8.75 7.59-11.15 2.68-1.65 6.66-1.87 8.58.62a7.33 7.33 0 0 1 1.26 3.5c.8 5.47-.63 11-2 16.34l-3.32 12.52a137.43 137.43 0 0 0 -5 39 16.28 16.28 0 0 0 1.85 6.35c1 2.12 2.55 2.08 4.3.17 2.57-2.81 3.2-6.27 3.3-10 .25-8.82-.81-17.67 1.28-26.44a180.94 180.94 0 0 0 3.78-20.36 17.47 17.47 0 0 1 4.56-9.48 112.2 112.2 0 0 1 10.15-10.19c4.77-4.26 14.35-2.34 15.58 3.57 2.3 11 4.52 20.7 4.94 32 .29 8 .62 16.07 3.43 23.5a36.88 36.88 0 0 0 5.3 9.47 11 11 0 0 0 4.93 4c2 .67 4.66 0 5.6-1.92a6.9 6.9 0 0 0 .5-2.34 87.51 87.51 0 0 0 -.15-18.66c-1.17-9.59-3.81-20-8.37-28.56a193.26 193.26 0 0 1 -9-19.38c-2.33-5.82-1.83-11.53.13-17.14 1.39-4 9.06-8.64 12.51-7.9a39.11 39.11 0 0 1 21.07 12.44c3.91 4.33 7.3 9.12 11 13.59 1.69 2 3.68 3.77 5.56 5.6s3.38 1.07 5.36-.26c6.86-4.63 6.33-24.32-3.23-27.33-6-1.88-10.73-6.08-16.81-7.78l-20.51-5.72a23.64 23.64 0 0 1 -6.11-2.32 10 10 0 0 1 -4.64-8.54 13.44 13.44 0 0 1 3.4-8.53 23.73 23.73 0 0 1 19.74-6.47c5.91.73 11.72.51 17.56.83a8.11 8.11 0 0 0 6.94-3.55 42 42 0 0 1 4.55-4.7c1.87-1.78 2.32-4.57.48-6.29-4.77-4.46-8.57-2.29-13.91-.15-6.06 2.44-12.21 4.72-17.91 8a20.72 20.72 0 0 1 -5.11 2.4 17.82 17.82 0 0 1 -5.31.22c-6.73-.39-13.46-.84-20.19-1.18-10.61-.54-20.78-8.73-17.8-22.5a587.92 587.92 0 0 1 21.2-74c1.58-4.36 3.52-8.58 5.4-12.81 13.59-30.49 24.4-62.12 34.59-93.88 9-28.09 20.9-58.65 22.24-88.34q.2-3.12.24-6.16zm-737.91-247.1a54.75 54.75 0 0 0 0-7.42c-1.23-8.39-3.11-16.7-3.89-25.12-1.12-11.92-5.27-32.47-13.4-41.45-2.77-3.06-6.44-5.14-10.17-6.89-35.59-16.61-73.4-1.53-103.6 19.25a50.12 50.12 0 0 0 -10.58 9.1c-2.92 3.55-4.94 7.72-6.94 11.85-13.49 27.85-25.58 59.19-32.91 89.26-1.7 7-3 14.07-4.28 21.15l-7.46 40.62c-1.14 6.27-1.75 13-3.47 19.13-.91 3.24-5.7 11.15-4.69 14.36 1.48 4.7 2.94 9.4 2.85 14.43 0 .54.87 1 1.11 1.66.56 1.42 1 2.89 1.46 4.33.74 2.08 1.41 4.19 2.31 6.2 1.26 2.84 3.38 5.47 3.9 8.41.81 4.68 2.61 9 4.09 13.38 14.68 44.76 25.56 90.63 36.64 136.39 5.7 23.54 11.4 47.09 17.69 70.48 8.59 32 25 61.43 42.78 89.55a13.79 13.79 0 0 0 3.44 4.1c3.74 2.61 9 1 12.81-1.49 16.14-10.22 17.55-15.59 15.4-35.21-.9-8.22 1.53-16.39 3.82-24.33 9.93-34.45 17.41-69.47 20.16-105.27 1.93-25.24-.65-50.86 3.12-76 3.81-25.31 13.44-50.09 26.9-71.79a16.29 16.29 0 0 0 2.67-5.84 25.61 25.61 0 0 0 -.13-5.39c-.48-9.86 3.55-20.15 3.41-30.37-.16-11.74-1.95-23.4-1.79-35.16.21-16.35 1.79-32.86-1.14-49-.21-1.15-.75-2.58-1.93-2.61-.83 0-1.47.72-2 1.39-5.85 7.88-12.18 20.8-22.83 22.69-4.32.77-8.71-.57-12.83-2-29.78-10.63-27.88-43.45-11.5-65.37 4.35-5.83 9.74-11.13 16.45-14 10.71-4.53 22-.85 29 8 1.45 1.84 1.57 6.05 4.08 5.41 3.12-.69.74-4.59 1.45-6.43zm1118.74 589.43c.34-1.29.47-3.65 1.52-5.5 3.6-6.31 8.3-8 15.32-5.7 5.43 1.82 10.8 3.88 16.08 6.09 2.46 1 4.51 3.4 7 3.9 6.58 1.32 11.13 4.63 16.32 8.61 2.65 2 6.26 3.56 9.27 2.11 2.33-1.13 3.57-3.72 4.26-6.22a12.51 12.51 0 0 0 .48-5.59 11.49 11.49 0 0 0 -2.87-5.48c-4.8-5.51-12.32-7.76-19.53-8.89-10.56-1.65-21-4-31.58-5.81-2.51-.44-5.21-1-6.9-2.87-2.23-2.5-1.82-6.54 0-9.32s4.82-4.6 7.68-6.33l9.93-6c4.68-2.82 9.58-5.72 15-6.15 3.07-.25 6.16.31 9.21 0 4.32-.48 16.75-4.56 19.41-8 3.57-4.6-.78-12.12-6.26-12.41-8.63-.44-15.33 4.39-22.34 8.33-3.1 1.75-6.11 3.66-9.26 5.31-2.53 1.33-5.39 2.09-7.77 3.61-7 4.43-13.94 8.93-20.63 13.78-5.12 3.71-10.25 3.73-15.81 1.58-5.31-2.06-6.64-5.44-3.28-11.36 3.71-6.54 9.39-11.48 15.41-16a90.16 90.16 0 0 0 11.26-9.73c3.39-3.56 6.16-7.71 9.11-11.66a16.43 16.43 0 0 0 2.31-4.1 5.51 5.51 0 0 0 -2.56-6.46c-5.82-3.29-11.16 6.07-14.81 9.5-5.57 5.21-11.47 10.07-16.67 15.67-4.39 4.73-8.25 9.94-12.85 14.46-9.41 9.25-20.46 13.73-25.23-1-2.89-8.94-3.49-19.65-2.56-29 .73-7.34 1.55-14.69 1.74-22.06.52-20-2.82-39.67-5.26-59.44-.54-4.36-1.08-8.73-1.32-13.12a97.81 97.81 0 0 1 1.68-24.21c2-10.22 5.64-20.05 7.87-30.22 3-13.75 3.48-27.92 3.92-42 .67-21.5 1.93-42.74 3.17-64.15 0-.9.16-1.8.27-2.69.36-2.89 1.16-5.8 1-8.64s1-5.42.33-8.39c-1-4.56-1.13-9.35-1.57-14-.51-5.37-.87-10.77-1.5-16.13a17.36 17.36 0 0 0 -1.67-5.07c-2-4.39-4.55-8.59-6.33-13.09-3.09-7.79-6.9-15-13.33-20.63-1.48-1.29-2.41-3.2-3.66-4.79-4.31-5.48-7.73-11.8-13.36-16.09a171.38 171.38 0 0 0 -16.2-10.73 42.06 42.06 0 0 0 -9.11-3.67 31.53 31.53 0 0 0 -7.22-1.29c-17.14-1.19-34.71 5.65-48.07 16.13-12.23 9.59-21.74 22.28-29.4 35.8a186.41 186.41 0 0 0 -22.73 68.72c-.59 4.81.23 8.89 1.34 13.53.41 1.74 1.65 2.47 3.44 2.74 5.52.83 11 1.8 16.51 2.76 3.3.58 6.63 1.05 9.84 1.91 9.19 2.47 20.29 9.79 26 17.51 6.45 8.75 8.61 19.87 13.59 29.39 2.39 4.58 5.47 8.84 7.17 13.72a52.76 52.76 0 0 1 2.21 11.59c1.38 12.11 2.77 24.23 3.37 36.4s.42 24.27.24 36.4l-.14 9c0 3-.09 6-.31 9-1.36 18-3.22 36.56-8.85 53.85a43.32 43.32 0 0 0 -2 7.56c-.26 1.93-.22 3.88-.37 5.82-.37 4.63-1.87 9.09-3.27 13.53a337.53 337.53 0 0 0 -10.61 43.69c-2.36 13.63-1.41 27-2.82 40.83-2.13 21-4.8 42-8.85 62.7-2.76 14.14-6.16 28.14-8.57 42.34-1.71 10-3.89 20.1-4.44 30.25s.11 20.47-.81 30.73a38.72 38.72 0 0 0 -.16 9.06c.7 4.71 4.09 10.6 9.42 7.06a103.07 103.07 0 0 0 8.65-7c2.24-1.86 4.9-3.4 6.64-5.65 8.92-11.58 18.72-22.53 28.14-33.7 2-2.36 4-4.77 6.7-6.34a20.89 20.89 0 0 1 8-2.45c5.07-.66 10.4-.38 15 1.79s8.46 6.43 9.2 11.49a20.93 20.93 0 0 1 -.89 8.52 56.3 56.3 0 0 1 -9.06 18.55c-2.09 2.8-4.77 5-6.93 7.72-7.56 9.43 11.36.13 14.63-.66s6.53-.7 9.63-1.72c5-1.66 8-2.75 13.24-2.74 2.67 0 10.08.72 8.36-4.11-3.55-10-4.77-24-4.89-34.48-.17-14.56-2.49-29-4.06-43.41-1.27-11.64-2-23.4-1-35.07a23.85 23.85 0 0 1 2.19-9.1c4.83-9.15 12.88-4.3 16.09 3a47.58 47.58 0 0 1 2.91 11.32 164.54 164.54 0 0 1 2.5 19c.42 7.89 2.52 26.34 13.58 27.48 3.69.38 7-2.76 8.1-6.31s.48-7.37-.22-11c-2-10.67-5.54-20.55-9.34-30.7-2.81-7.49-5.18-15.36-4.67-23.34a26.48 26.48 0 0 1 16.86-23.1 2.66 2.66 0 0 1 2-.09c3.13 2 7.31 2.19 8.88 6.61 2.82 7.93 7.87 14.85 9.76 23.34 1.49 6.67 5.64 12.74 7.11 19.41 1.7 7.66 7.51 11.58 12.25 16.56 1.8 1.89 7.36 1.64 8.88.07 2-2 3.2-10.93 1.84-13.65-1.59-3.18-3.76-6.17-4.74-9.51-1.25-4.26-4.76-6.55-7.11-9.81-4-5.63-6.62-12.27-11.87-17.11a9.23 9.23 0 0 1 -2.86-4.49c-1.27-6.5-2.15-12.92-3.34-20.3zm-831.77-482.42c-16.6-2.52-24.72-20-22.91-37.73.73-7.2 1.87-14.44 4.53-21.16a49 49 0 0 1 19.65-23.44c6-3.68 13-6.09 19.93-5.38 16.18 1.64 17.15 16.5 24 27.74 10.83-9.7 13.75-24.93 28-33.64 7-4.25 15-7.2 22.15-2.07 3.33 2.4 5.78 1.85 7.07-3.32a5.75 5.75 0 0 0 0-3.39c-2.44-5.95-3.74-12.4-7.24-17.88-3.73-5.83-7.81-11.44-11.65-17.21-1.75-2.64-3.62-4.9-6.65-6.33a49.27 49.27 0 0 1 -9.61-5.85 24.09 24.09 0 0 0 -13.61-4.9c-14.49-1-28.82-.69-41.9 6.6-10.92 6.08-18.89 16.29-25.82 26.7a268.65 268.65 0 0 0 -14.22 24c-6.18 11.76-9.22 24.91-13.79 37.32-5.26 14.3-10 28.87-12.68 43.89-7.09 39.4 3.38 78.76-3.94 117.87-3.2 17.09-9.12 33.55-13.35 50.41-7.52 29.94-9.65 60.88-10.38 91.65-.71 29.88-4.34 58.28-9 87.88-4.3 27.32-10.21 54.22-14.76 81.49-.52 3.12-.95 6.64 1 9.14 1.79 2.33 5.17 3 8 2.25s5.31-2.48 7.65-4.27c13.2-10.08 24.15-24.63 38.52-32.94a8.6 8.6 0 0 0 1.48-1.42c6.89-6.79 15-10.59 24.85-10.12a16.71 16.71 0 0 0 2.74 0c2.52-.27 5.22-2.84 5.85-5.35 17.17-67.8 42-132.5 99.29-177 1.51-1.17 3.09-2.41 3.8-4.18a11.43 11.43 0 0 0 .27-5.4c-1.7-16.69 3.31-32.39 5.78-48.7 4.13-27.3 9.47-55.43 12.67-83.24a411.22 411.22 0 0 0 2.92-44.22c.08-12.83 2.84-27.36.66-39.92a2.12 2.12 0 0 0 -1.33-1.86c-5.71 4.88-11 11.4-17.61 15.37-16.75 10.14-33.9-.34-41.44-16.58-.24-.52-.76-1.24-1.17-1.26a2 2 0 0 0 -1.35 1.08c-8.86 19.37-14.23 31.95-37.42 35.4a30 30 0 0 1 -8.98-.03zm344 1178.83v7.2c.08 4.18 1.21 5.38 5.58 5.72 14.47 1.12 27.29 2 40.77 8 7.44 3.3 14.65 7.15 22.31 9.95 8.44 3.1 16.24 3.24 25 4a13.18 13.18 0 0 0 11.56-4.41c1.12-1.19 3-1.72 4.56-2.44a38.17 38.17 0 0 1 3.76-1.34c2-.66 2.21-1.49 1.84-3.86-.74-4.67-.45-9.61-.33-14.33s-1.85-8.72-2.44-13.67a48.73 48.73 0 0 1 -.1-7.35c.27-7.61.55-15.22.57-22.84 0-9.28-.35-18.55-.71-27.83l-.33-8.33-.62-15.62c-1-24.71.77-51.25-5.18-75.37-.47-1.92-1-3.83-1.51-5.74-7.43-28.43-6.75-58-7.48-87.15-.07-3 .2-5.95 0-8.9-.44-5.06 1.25-9.78 2-14.63a31.33 31.33 0 0 1 2.19-8.35c5-10.7 8-23.21 11.3-34.56a280.48 280.48 0 0 0 8.36-38.23c1.12-7.69 1.93-15.42 2.73-23.15l.39-3.7c.19-1.86-.21-4.47-2.09-4.52-1.56 0-2.35 1.83-2.71 3.35l-7.18 30.58c-2.92 12.41-15.47 32.72-30.28 32.37a19.75 19.75 0 0 1 -16.93-10.86c-3.48-7.14-2.26-15.57-1-23.42a9 9 0 0 0 0-4.22 3.13 3.13 0 0 0 -3.15-2.31c-1.89.29-2.59 2.58-3 4.45-3.51 16.22-16.29 34.24-33 38.93a29.8 29.8 0 0 1 -12.72.34c-7.58-1.23-15.5-4.8-18.76-11.76-2.6-5.58-1.67-12.18.2-18 3.85-12.11 11.31-22 18.22-32.42s14-20.51 21.61-30.36a6 6 0 0 0 1.68-3.72c-.1-2-2.37-3.4-4.34-3a5.81 5.81 0 0 0 -4.09 4c-.42 1.25-.55 2.59-1.07 3.79a12.33 12.33 0 0 1 -2.79 3.61c-10.45 10.48-21.92 21.51-35.64 27.62-7.69 3.43-15.62 6.9-24.5 6.17-2.47-.2-3.52 1.32-3.87 3.76a57.25 57.25 0 0 1 -2 8.45c-10 32.66-15.36 69.23-14.33 103.44.59 19.52 6 40.11 2.35 59.38-1.91 10.06-.49 19.8-1.15 30-.29 4.57-1 9.1-1.68 13.63 0 9.74-3.14 20.43-4.61 30.08-1.43 9.31-3.92 17.85-6.64 26.91-1.22 4.06-2.74 8.19-2 12.52.24 1.33 1.42 3.41 2.41 3.56 8.39 1.23 16.28 4.89 25.07 4.5 14.46-.65 28.09 4.19 41.67 8.74 6.55 2.19 13.16 6.92 14 13.78.43 3.77-1 7.48-2.24 11.06a145.63 145.63 0 0 0 -6.27 24.57c-1.29 7.37-3.43 14.44-3.43 21.93zm185.07-1200.87c.31-4.55-.2-8.93 2.28-13.63 3.05-5.79 4.56-12.59 8.75-17.75 5.06-6.23 10-12.85 18.4-15.33 5.39-1.59 10.93-2.35 15.73.43a28.18 28.18 0 0 1 13.63 17.77c1.55 6.26 2 12.8 3 19.21a28.16 28.16 0 0 0 1.07 4.51c.2.63.87 1.1 1.33 1.65.45-.5 1.21-1 1.3-1.52a105.48 105.48 0 0 0 1.6-12 48.65 48.65 0 0 1 3.2-15.69 11.56 11.56 0 0 0 .93-4.54c-.36-10.18-.85-20.36-1.35-30.53a21.29 21.29 0 0 0 -.79-2.55c-1.12-5.68-2.58-11.34-3.15-17.08-.37-3.72-.73-7.06-3.33-10-1.13-1.27-1.51-3.21-2.29-4.8-2.76-5.58-4.61-11.73-10-15.59-5.8-4.13-11.33-8.61-17.59-12.08-9.18-5.09-18.85-4.74-28.7-3.13-.61.09-1.11.74-1.7 1.06-4.29 2.34-8.52 4.8-12.91 6.94s-8.72 4.69-12 8.5c-24.62 28.23-40.79 58.52-55.2 93-5.19 12.43-7.67 26.79-13.83 38.52a49.65 49.65 0 0 0 -4.74 16c-1.91 12.78-1.45 13.3 7.27 18.32 18.77 10.81 10.62 40.4 18.63 56.88 1.35 2.77 3.15 5.31 4.28 8.16a36.35 36.35 0 0 1 2 10.52 267.89 267.89 0 0 1 -9.61 95.95c-5.73 19.94-12.65 39.51-19.57 59.05-12.34 34.9-25.4 69.49-36.26 104.89l-3.38 11c-2.43 7.91-5.72 15.73-6.81 23.92a48.77 48.77 0 0 1 -2.77 11c-2.46 6.44 2.71 14.69 9.69 14.85 3.88.09 7.78-.22 11.65.07 6.41.49 11.82-2.07 17.22-4.95 8.11-4.33 17.95-8 27.24-6.37a15.13 15.13 0 0 1 8.08 3.69c3.44 3.4 3.09 11.23 3 15.79a17.77 17.77 0 0 1 -5.41 12.22c-4.81 4.6-11.94 6.22-16.6 11-1.33 1.36-2.48 3.17-2.18 5s1.94 3.21 3.5 4.27a55.63 55.63 0 0 0 6.89 4c2.44 1.19 5.1 2.22 7.8 1.93 6.25-.67 6.34-7.29 7.31-11.86 1.42-6.68 4.92-13.09 6.82-19.83 4.21-14.94 3.57-30.58 3.54-45.94 0-14.64.76-29.26.91-43.91.31-28.88 1.82-58.65 12.1-86 5.47-14.53 13.64-27.85 21.76-41.08l7.21-11.75c4.72-7.7 9.51-15.47 15.54-22.24 6.37-7.15 15.26-10.07 21.73-16.37 4-3.93 7.7-8.28 11.36-12.58a18.5 18.5 0 0 0 3.16-5.13c3.17-8.09 2.71-17.19 6.89-25 1.27-2.39.35-7.42.39-10 .08-4.73.17-9.46.33-14.2.31-9.16.86-18.31 1.93-27.42.74-6.34 1.74-12.65 2.63-19 1.64-11.62 2.92-23.28 4.41-34.92 1.29-10.1 5.73-19.86 5.42-29.85a3.31 3.31 0 0 0 -1.35-2.56c-.65-.23-1.93.57-2.6 1.24-9.32 9.26-17.56 13.5-30.71 15.78a32 32 0 0 1 -9 .66 13.26 13.26 0 0 1 -10-6.75c-4.34-7.3-10.01-14.37-8.08-23.85zm100 1159.52a24.07 24.07 0 0 0 .93 6.47c.55 1.78 1.22 2.42 3.81 1.78 5.59-1.37 11-4.41 17-3.32 5.27.94 10.56 1.76 15.77 3 10.12 2.33 19.91 5.64 29.81 8.8a85.92 85.92 0 0 0 13.87 3.59c11.2 1.59 22.59-1.32 33.12-5.45 2.94-1.15 5.95-2.48 8-4.92 4-4.87 2.87-13.22 2.47-19-.61-8.72-1.12-16.7-.14-25.5 1.54-13.87 3.15-27.73 4.31-41.64a193.43 193.43 0 0 0 .81-26.58 73.21 73.21 0 0 1 -.22-11.37c.4-3.87 1.6-7.64 1.81-11.53.23-4.39-.82-8.74-1.61-13.07-2.6-14.2-2.83-28.68-3.14-43.07-.3-14-2.83-27.56-3.27-41.57-1-29.94 5.2-59.54 11.29-88.69 1.72-8.22 3.43-16.45 5.56-24.58 1.78-6.75 6.64-14.76 7-21.61.14-3 .08-6.44 1.16-9.24 2.2-5.71.84-11.07-.29-16.55-.11-.53-.65-1.28-1.08-1.34s-1.1.5-1.41 1c-2.1 3.16-4 6.45-6.24 9.53a7.25 7.25 0 0 1 -5 3c-8.73 1.5-17.34 7-25.81 1.87-3.73-2.26-6.74-5.52-10.2-8.19a77.86 77.86 0 0 0 -13.15-7.64l-7.68-3.81c-2.49-1.23-6.36-2-7.27.66-.85 2.46 2.67 5.6 3.75 7.67 2.12 4 3.28 8.47 5.71 12.42 2.24 3.64 5 6.91 7.46 10.44a117.88 117.88 0 0 1 6.62 11.43c7.19 13.59 17.25 32.85 6.35 47.21-4.72 6.21-7.9 11.94-14.89 16.22-1.84 1.13-3.92 2.14-6.06 1.91s-3.76-1.47-5.38-2.68c-7.84-5.87-16-12.17-19.76-21.21-1.12-2.71-1.81-5.6-3.18-8.19-1.11-2.09-2.65-3.94-3.66-6.08a27.83 27.83 0 0 1 -1.38-3.87c-1.68-5.59-2.89-11.69-5.52-16.94-2.18-4.37-4.65-8.59-7.07-12.83a15.48 15.48 0 0 0 -2.7-3.8 3.19 3.19 0 0 0 -5.54 2 12.82 12.82 0 0 0 .38 4.69 79.06 79.06 0 0 0 3.41 11.49c1.28 3 .73 6.73 1.8 9.85 3 9 .78 19.79-1 28.9a33.07 33.07 0 0 1 -13.45 20.62 10.57 10.57 0 0 1 -3.86 1.87c-11.6 2.31-20.76-18.19-24.4-26a1.9 1.9 0 0 0 -1.72-.63 1.92 1.92 0 0 0 -1 1.48c-.46 7.9-1.67 13.41 0 21.37q2.94 14.53 5.69 29.11 5.49 29.14 10.15 58.45a59.18 59.18 0 0 0 1.39 7c.51 1.83 1.2 3.61 1.78 5.43a91.29 91.29 0 0 1 2.73 12.69c7 42.17 11.38 83.14 1.25 125.31-2.11 8.81-4.75 17.53-6.1 26.51-.81 5.1-2.1 11.4-1.98 17.13zm-383.8-1278.88a81.74 81.74 0 0 0 -58.4 30.1c-1.21 1.53-2.37 3.1-3.7 4.51-1 1-2 1.93-3 2.93-17.51 17.95-32.56 50.34-38.76 74.21-.72 2.79-1.89 5.45-2.69 8.22-1.59 5.56-3.36 11.1-4.52 16.75-5.37 26.1-12.48 51.36-16 77.94-2.8 21.17-4.81 42.1-10.81 62.71-4.14 14.22-4.89 28.26-6.42 42.81-.54 5.16-.94 5.12 3.83 5.08a10.7 10.7 0 0 0 3.41-.14c17.25-6.54 40.08.21 56.54 6.93a35.61 35.61 0 0 1 10.62 6.05 41.38 41.38 0 0 1 6.71 8.56l21 32.18c.88 1.36 2.16 2.91 3.76 2.62a4.08 4.08 0 0 0 2.09-1.43c7.38-7.9 11.19-19.9 15.48-29.76 5.25-12.09 8.38-24.95 12.24-37.52a346.13 346.13 0 0 1 46.7-96c3.1-4.45 8.48-9.43 10.51-14.39 1.76-4.3 1.48-9.72 2-14.31.29-2.42 1.67-5.09 1-7.15-2.12-6.59-.72-14.43-.36-21.19a7.35 7.35 0 0 0 -.36-3.4 2.52 2.52 0 0 0 -2.75-1.57 3.64 3.64 0 0 0 -1.86 1.77c-3.79 6-7.28 12.51-13 16.76-8.09 6-18.92 6.35-29 6.44-3.34 0-6.83 0-9.82-1.48-7.91-4-11.17-9.3-20.72-10.62a5.53 5.53 0 0 0 -5.85 2.64c-2.42 4-8.57 8.12-12 11.38-5 4.72-11.94 6.93-18.79 7.31-13.55.75-25.5-2.33-32.77-14.39a49.7 49.7 0 0 1 -3.45-43.59c8.66-21.39 25-33.34 45.11-42.86a18.1 18.1 0 0 1 6.68-2.14 15.18 15.18 0 0 1 7.11 1.87 49 49 0 0 1 18.12 14.91c1.57 2.11 3.58 4.62 6.18 4.2a7.12 7.12 0 0 0 3.55-2.34c8.46-8.32 19.46-14.76 31.32-15.1s24.32 6.63 27.85 18c6.35-2.59 6.86-11.23 6.33-18.06l-2.61-33.44c-1.06-13.66-2.41-28.11-10.57-39.12-8.75-11.81-24.21-17.39-38.91-16.84zm-510-104.83a39.79 39.79 0 0 1 .6-7.7c1.63-9.58 6.41-18.38 12.21-26.18 3.51-4.71 7.62-9.27 13-11.51 11.51-4.74 30 3.52 33.13 16a91.47 91.47 0 0 0 4.1 11.3c.56 1.4 1.82 1.41 2.4 0 4.71-11.34 18.13-27.2 30.6-29.5 8.64-1.6 27.06 11 25.42-.22-3.41-23.37-6.27-44.57-23.28-62.63-10-10.64-24.11-14-38.32-10.71-10.77 2.48-20.52 8.4-28.9 15.61-44.49 38.25-42.89 96.56-62.62 147-1.78 4.56-1.23 8.7 1.55 11.86 4.43 5 6.42 11.12 9.39 16.83 3.81 7.32 5.23 15.17 6.64 23 .71 3.94.82 7.93 2.07 11.87 7 22 2 50.14 2.23 73 .27 35.13 5.78 72.55 2.78 107.25a3.75 3.75 0 0 0 .18 1.33c.61 2 2.73 2.67 4.16 1.14 1.84-1.95 3.28-4.27 5.07-6.28 4.07-4.59 8.48-9.07 14-11.68 10.49-5 7.65-21.46 9.69-30.65 1.69-7.59 6.12-14.25 9-21.47 3.37-8.53 4.52-17.73 6-26.78 4.82-30.16 12.83-61.31 24-89.76 2.18-5.54 5.79-10.5 8.51-15.85 3-5.95 5.89-12 9.93-17.33 1.89-2.5 3.67-5.1 5.75-7.44 4.61-5.2 8.51-10.88 14.42-15.1 6.3-4.49 12.28-9.56 16.3-16.81 2.52-4.54 2.13-8 .17-12-1.08-2.17-2.43-2.27-4.29-.65-1.54 1.34-2.83 3.1-4.58 4.06-8.13 4.46-16.38 8.68-26.19 7-5.76-1-11.4-2-15.75-6.53-4.13-4.34-2.83-13-7.29-16.3-5.5 8.85-12.59 17.17-22.06 21.51-19.26 8.82-39.64-5.05-40.08-25.68zm655.14 14.1a49.41 49.41 0 0 0 -7.79.75c-18.24 3.2-34 15.23-45.35 29.84-15.94 20.45-27.7 46.5-32.1 72-.33 1.91.07 4.68 2 4.63 1.34 0 2.07-1.54 2.55-2.8 5.88-15.58 16.93-26.8 31.82-34.13a36.26 36.26 0 0 1 10.43-3.64c24.91-3.75 39.09 19.13 33.66 41.89-.71 3-1.77 5.91-2.41 8.93a48.36 48.36 0 0 1 -1.63 7.17 24.13 24.13 0 0 1 -5.4 7.8c-13.67 14.41-40.6 26.35-56.72 8.89-6.19-6.71-7.67-3.26-7.82 4.44-.44 22.3 1.38 44-1.3 66.35-1 8.18-1.85 16.41-1.51 24.65.25 6 1.78 12 1.58 18-.15 4.55-2.94 11.08-.61 15.3 4.52 8.18 16.71-5.93 22-8.91 19.53-10.92 35.4-16.46 57.56-16.72 9.88-.11 9.79-18.51 11.43-25.51 3-12.81 6.53-25.49 10-38.17l1.92-6.93c2.73-9.86 7.8-21.58 6.46-32-.12-.95-.73-2.44-1.37-2.6a45 45 0 0 0 -9.25-1.51c-5.38-.13-8.77-2.86-11.35-7.24-3.13-5.31-4-11.28-5.51-17.13-1.63-6.47-1.57-12.27 1.22-18.8 5.48-12.8 13.14-23 26.33-28.28 3.82-1.54 8.33-.83 11.59-2.31 2-.88 2.41-3.41 2.5-5.56.88-20-7.16-45.06-26.19-54.84a35.52 35.52 0 0 0 -16.8-3.56zm-439.67 96.37c-.68-28.87-12-56-43.32-63.67a81.52 81.52 0 0 0 -32-1.31c-11.69 1.85-23.19 6.43-31.82 14.53-21.93 20.58-34.8 54-43.46 82-1 3.18-2.2 5.46-.88 8.18 5.64-3.78 10-14 16.42-19.36 2.75-2.29 5.48-4.77 8.62-6.37a69.72 69.72 0 0 1 14.84-6c16.88-4.12 25 7.2 27.09 22.92 1.4 10.85 1 22.73-5.57 31.52-3.44 4.63-8.27 8-13 11.28-7.23 5-15 10.19-23.82 10.35-12.84.25-23.45-10.42-29.14-21.93-2 .43-2.78 2.92-3.12 5l-10.5 62.47a5 5 0 0 0 .12 3c1.23 2.56 5.08 1.37 7.5-.12 21.69-13.32 45.91-20.69 71-24 16.73-2.17 33.71-3.47 48.88 5.21 5 2.87 10 5.74 13.82 10.15s3.61 4.5 6.75-.43a19.28 19.28 0 0 0 2.55-5.34c4.47-17.42 9-34.68 11.43-52.63 2.5-18.85 6.67-37.9 7.52-57 .13-2.83.16-5.65.09-8.45zm171.57 83c.19 7.89.85 21.65 3.23 19.32a16.88 16.88 0 0 0 3-4.31c.59-1.15.56-2.63 1.14-3.79 2.77-5.58 5.66-11.1 8.51-16.64 13.24-25.77 24.9-57.86 48.39-76.21 7.73-6 16.58-9.07 25-13.87 5.83-3.33 10.46-8.17 17.52-9.14 5.16-.71 10-1.09 14.62-4.1 5.09-3.29 6.79-5.31 5.44-11.15a2.15 2.15 0 0 0 -1.91-.92 6.14 6.14 0 0 0 -2.06 1.72c-6.22 6.22-13.86 8.71-22.5 8.86a25.26 25.26 0 0 1 -12.23-2.64c-5.14-2.54-10-4.68-12.15-10.49a3.2 3.2 0 0 0 -.87-1.05c-3.56-3.35-6.95-2.94-9.55 1.19-.36.56-.42 1.32-.82 1.83-1.94 2.48-3.61 5.31-6 7.26-4.84 4-10.06 7.47-15.14 11.14a3.56 3.56 0 0 1 -1.78.86c-13.67.13-25 .39-30.51-13.85-1.74-4.49-3.5-9-4.08-13.82-1.21-10 2.86-19.94 7.67-28.83 3.93-7.28 8.58-14.42 15.22-19.37 9-6.71 30.24-12.05 37.5.09 1.54 2.59 2.05 5.7 3.63 8.27s5.09 4.46 7.6 2.8a8.55 8.55 0 0 0 2.44-3.29 36.48 36.48 0 0 1 30.27-18.75c3-.1 6.58-.21 7.9-2.85.73-1.46.42-3.21 0-4.79a48.57 48.57 0 0 0 -23.32-30.08 47.68 47.68 0 0 0 -26.52-5.79c-10.53.88-15.38 9-25.22 10.73-35.11 38.7-38.68 90.66-59.77 136-.53 1.14.3 3 .78 4.49.92 2.75 2.52 5.35 3 8.16.68 4.2 4.08 6.52 5.07 10.14 1.63 5.94 1 13.22 2.3 19.48a202.33 202.33 0 0 1 4.2 38.25c-.04.47-.04 2.48-.04 5.18zm465.65 209.34 3.94-.77c1.31-.26 2.61-.59 3.93-.78 9-1.31 8.56-14.85 10.25-21.61 5.94-23.74 10.65-47.73 21.68-69.81 2.41-4.83 5.07-9.53 7.89-14.12 2.44-4 5-7.86 7.77-11.59a117.59 117.59 0 0 1 40.23-34c4.89-2.51 11.13-3.66 15.45-7 10.26-7.92 11.54-28.27 14.32-39.83.66-2.74-4.51-5.86-6.86-5.11-8 2.54-16.44 6.67-24.47 4.1a15.62 15.62 0 0 1 -5-2.69c-4.53-3.62-7-9.58-9-14.9-.7-1.9-.2-5.47-3.24-5.11-1.63.19-3.29 2.73-4.36 4.55a21.77 21.77 0 0 1 -7.83 8.12c-4.21 2.52-7.88 5.92-11.86 8.83a16.28 16.28 0 0 1 -4.65 2.66c-5.67 1.74-11.39 2.36-17.24.52-3.55-1.12-4.36-.5-6.38 2.95a30.73 30.73 0 0 0 -4 13.38c-1.67 20.46-10.24 39.32-12 59.63-.59 6.66-.22 13.38-.82 20-.8 8.94-3.28 17.6-4.48 26.48-1.22 9.1.62 17.6.78 26.65a98.28 98.28 0 0 1 -4.48 29.71c-1.42 4.45-3.15 8.79-4.58 13.24s.83 6.93 5.01 6.54zm-133 400.53.12-10.82c.06-5.42.11-10.93-1.36-16.14a6.31 6.31 0 0 0 -2.32-3.84c-1.33-.84-3-.69-4.6-.65a28.25 28.25 0 0 1 -18.26-6.13c-4.9-3.92-8.32-9.35-11.69-14.65a11.86 11.86 0 0 0 -3.68-4.17c-1.61-1-3.94-1-5.13.49s-.78 3.59-.22 5.37a97 97 0 0 0 4.7 10.93c1.43 3.14 1.39 7 3.1 9.92a37.47 37.47 0 0 1 5.12 20.49 8.05 8.05 0 0 0 .26 2.69c2.51 8 1.75 15.71-3.09 22.57a55.45 55.45 0 0 1 -9.19 10c-17.89 15.31-31.79-11.94-34.19-27.37-1-6.31-.23-12.86-1.81-19a2.81 2.81 0 0 0 -1.27-2 2.48 2.48 0 0 0 -2.23.36c-3.79 2.29-4.54 7.37-5 11.78-1.08 9.45-4.1 18.41-4.73 27.92a28.85 28.85 0 0 1 -12.08 21.64c-3.25 2.25-7.29 3.83-11.15 3-2.76-.63-5.14-2.44-7.9-3.08-8.27-1.91-11.79 13.83-11.67 19.6a172.26 172.26 0 0 1 -1.05 23.6 103.57 103.57 0 0 0 -1 11.52c0 4.34.71 8.69.45 13s-1.57 8-1.2 12.6c.29 3.44 2.94 4.54 5.72 2.5 4.55-3.36 9.4-4.76 15.15-6a125.37 125.37 0 0 1 53.35.12c1.72.38 13.87 3.85 9.79-2.74a11.6 11.6 0 0 0 -2.57-2.76c-2.42-2-5-3.86-7.4-5.87-8.33-6.89-16.33-14.23-25.09-20.52-3-2.14-4-4.68-5-7.42a91 91 0 0 1 -2.82-12.35 5.09 5.09 0 0 1 .31-2.63 25.85 25.85 0 0 1 11-13.43c4.16-2.49 8.31-5.1 12.45-7.65 4.8-2.94 9.77-4.58 15.33-4 25.72 2.54 29.83 33.76 45.33 48.49 1.9 1.8 4.54 3.48 7 2.51a5.62 5.62 0 0 0 2.52-2.33c1.56-2.47 2-5.45 2.41-8.34q2-15 2.79-30.1c.48-9.5.58-19 .68-28.52zm-705 847.48a246.17 246.17 0 0 1 -1.22-35 71 71 0 0 0 -2.8-23.33c-.68-2.35-.93-4.81-1.43-7.2-.85-4-6.62-7.68-9.91-5.73-13.71 8.12-12.91 35.45-13.72 49.43-1.18 20.28-.46 40.61.25 60.91.29 8.38-3 71.58 6.35 71.59 7 0 22.76 1.37 27.84-4.81 5.62-6.85.75-34 .54-42.75-.44-20.36-3.85-41.94-5.84-63.07zm859.68-1520.8c.62 3.28 1.08 6.62 1.92 9.85a3.15 3.15 0 0 0 5 1.55 68.56 68.56 0 0 0 5.38-5.27c5.8-5.91 15.06-10.23 23.38-10.36 7.63-.12 15.78 4.4 17.57 11.81.67 2.77.44 5.73 1.47 8.38s4.18 4.88 6.66 3.51a7.48 7.48 0 0 0 2.52-3 46.94 46.94 0 0 1 19.35-18.25 16.32 16.32 0 0 1 7.19-2.12c3.67 0 7.08 2 10.74 2.29 5.23.47 10-5.33 6.83-10.18-2.93-4.44-3.54-11.57-5.17-16.66-1.91-6-3.62-11.29-7.5-16.4-7.34-9.64-18.88-16.3-31.1-16.7-13-.43-25.57 5.47-35.21 14.14-11.45 10.28-15.71 24-24.86 35.58a19.49 19.49 0 0 0 -4.11 11.87zm-308.47 1378.38c7.6.46 12.47-2.6 14.15-10.07l3.69-16.41c1.62-7.21 3.24-14.42 4.43-21.72 3.69-22.74 5.14-45.79 8.64-68.6.78-5.08 1.83-10.16 2.08-15.27.28-5.53-1.59-6.45-7.36-5.54-3.84.61-7.17 1.88-8.77 5.42s-4 5.95-6.44 8.62c-3.1 3.39-3 10.84-3.92 15.15-1.39 6.68-2.79 13.36-4.25 20-2.85 13-5.93 26-9.5 38.9a81.38 81.38 0 0 0 -2.64 11.39c-1.23 9.54-.34 19.08-4.18 28.19-.81 1.93-1.4 4.16.21 5.87a8.34 8.34 0 0 0 3.56 2 42.27 42.27 0 0 0 10.3 2.07zm-358.13-661a7.7 7.7 0 0 0 -.76-4 15.44 15.44 0 0 0 -2.85-3c-8.54-8.56-11.09-21.12-17.12-31-1.19-2-4.09-3-5.82-1.53a5.93 5.93 0 0 0 -1.51 2.77c-4.74 14.27-9.54 29.19-7.34 44.07 1 6.92 3.55 13.64 3.62 20.63.08 7.49-1.7 13.93 2 20.67 4.47 8.17 10.78 15.77 16 23.45 1 1.46 2.32 3.08 4.07 3 2-.15 3-2.33 3.57-4.21 2.64-8.71 3-17.53 3.57-26.55l.38-6.64 2.11-36.37zm-520.77 739.17.09-.43h2.06c5.75-.1 6.95-2.22 6.88-8.42-.06-4.79-1.06-9.49-.77-14.31 1.19-20.35 2.38-40.74 5-61 1.11-8.49 14.92-50.53-.56-46.69-41.09 10.22-10.66 89.14-24.13 114.1-1 1.85-2 4.45-1.49 6.19 1.07 3.36 2.56 7 5.88 8.84 2.04 1.12 4.63 1.16 7.04 1.72zm735.23-1335.86a43.6 43.6 0 0 0 .09 7.53 57.28 57.28 0 0 0 2.6 8.94 7.11 7.11 0 0 0 1.85 3.37c3.37 2.57 6.66 5.63 10.52 7 3.24 1.17 7.21.28 10.86.3a7.72 7.72 0 0 0 2 0c15-4.06 25.88-14.64 28.48-30.92a49.76 49.76 0 0 0 .33-12c-.43-5.34-1.55-10.73-4.24-15.35s-7.15-8.43-12.41-9.4c-9.82-1.81-23 6.34-29.8 12.93-7.41 7.24-10.28 17.46-10.28 27.6zm526.36 272.17c.92-21-16.46-26.85-33.87-19.72-9.44 3.88-18.14 10.33-23 19.32-5.9 11-5 26.65 5.69 34.46 8.07 5.9 19.1 3.92 26.62-2 6.25-4.91 14.82-10.93 19.73-17.17 2.89-3.6 4.57-9.15 4.83-14.89zm-1356.59 900.31c.86 5.69 4.44 10.05 12.12 10.66 5.35.42 10.68-.38 16-.17 4.5.18 9 1.41 13.61 1.26 5.29-.17 13.3-1.74 12.13-8.39-.69-3.94-1.64-7.83-2.63-11.72-4.57-17.9-20.42-34.34-39.51-19.52-7.16 5.57-13.13 18.52-11.72 27.88zm298.44 134.66c13.3 0 27.45-9.61 32.13-21.84 4.78-12.48-10-17.11-19.36-17.29-9-.18-18.39 1.58-25.27 7.33-15 12.52-6.13 31.78 12.5 31.8zm658.23-1318.55c-.29-10.25-5-26-16.14-26.93-9.15-.78-15.12 1.25-22.21 7.22a32.8 32.8 0 0 0 -5.26 5.14c-2.58 3.4-3.74 7.64-4.65 11.81-1.27 5.76-2.18 11.77-.91 17.53 2.72 12.43 16.84 17.83 28.38 14.16 12.19-3.88 19.79-12.77 20.73-25.8.07-.96.09-2.01.06-3.13zm89-118.64a49.26 49.26 0 0 0 -.51-6.76c-.83-5.83-3.09-12.32-8.56-14.51-3.6-1.44-7.68-.62-11.51-1.19-1.51-.23-3-.67-4.5-.78-5.42-.37-17.75 5.41-20.35 10.44s-5.3 9.9-7.43 15.07c-1.47 3.54-1.16 7 .79 10.9 4 7.89 14.9 17.34 24.36 14.74 3.47-.95 6.45-3.22 9.85-4.39 1.74-.6 3.57-.91 5.31-1.53 5.3-1.91 9.21-6.72 11-12a30.5 30.5 0 0 0 1.58-9.99zm402 808.68c-8.17 5.07-14.45 8.89-24.15 10.94a182.25 182.25 0 0 1 -22.8 3.8c-5.26.42-9 .46-6.86 6.27 1.88 5 5.76 5.36 10.22 6a94.09 94.09 0 0 1 19 5.33c8.21 3.09 16.75 6.4 22.65 12.89 1.1 1.21 2.18 2.58 3.74 3.11 6.61 2.25 5.23-15.38 5-18.58-.25-5.78 2.18-29.7-6.73-29.76zm-466.67 67.23c0 12.13 9.69.74 14-3.13 2.36-2.12 4.72-4.25 7.23-6.17 10.24-7.86 22.84-12.86 35-16.91 2.67-.89 13.7-3.43 6.22-6.7-12.25-5.36-27.22 0-39.44-5.42a12.52 12.52 0 0 0 -4.49-1.52c-2.61-.09-13.76 3.68-14.75 5.92-1.42 3.17-1.42 7.17-1.64 10.58-.23 3.74-.19 7.48-.12 11.23.1 4.31-2.01 7.99-2.01 12.12zm-125-953.35c0-2.6.11-6-.06-9.43a13 13 0 0 0 -1.28-3.78c-1.61-4.12-7.81-8.35-11.19-7-15.24 6.27-22 10.8-26 27.44-1.66 6.94-3.07 15.06 1.5 20.54 12.32 14.79 29.37.39 35.3-11.73 2.42-4.69 2.01-10.01 1.81-16zm-170.19 129.93c-2 .79-3.72 1-4.83 2-8.48 7.17-15.64 17.67-17.91 28.66-1.45 7-.4 14.82 4.21 20.29a20 20 0 0 0 18.46 6.5c14.78-2.57 21.83-20.38 16.76-33.77-.63-1.65-.82-3.46-1.39-5.14-1.89-5.47-3.18-11.35-8.5-14.81-2.18-1.45-4.61-2.54-6.8-3.73zm-187.38 6a29.63 29.63 0 0 0 16.1-6.25c-3.57-5-11-3.72-12.82-10.68a9.72 9.72 0 0 1 4-10.27c3.34-2.18 23.47 0 18.91-7-6.17-9.55-16.17-15.89-27-8.28-8.17 5.76-19.72 23.52-15.65 33.92 2.73 6.9 9.49 9.09 16.46 8.56zm-125-9.13c-.27-5 1.11-10.57-3.84-15.37-9.15-8.85-24.94-2.77-30.63 7.32-6.14 10.89-1.2 21 5.56 29.87 2.32 3 6.08 3.94 9.7 3.56 3-.31 6-1.53 8.94-2.6a8.55 8.55 0 0 0 3.82-2.52c4.1-5.41 7.84-11 6.46-18.39a13.49 13.49 0 0 1 .01-1.87zm136.2-199.23c-10-.07-18 3.68-24 11.88-2.15 2.95-2 6.31-2.88 9.48-2.38 8.18 2 17.61 10.58 19.74 6.28 1.56 13-.63 18.36-4.23 8.35-5.61 9.58-20.59 7.17-29.7-1.58-6.04-2.7-7.12-9.21-7.17zm879.94 191.89c0-2.05.16-4.12 0-6.15-.88-9.38-8.79-15.52-18.09-11.44-3.45 1.51-6.39 4-9.53 6-2.88 1.91-6 3.61-8.1 6.38-3.76 5-2.84 12.12-1 18.16 1.21 4.08 3 8.39 6.73 10.46a12.43 12.43 0 0 0 9.06.75c1.91-.5 9.65-5.87 10.93-5.56a8.89 8.89 0 0 0 -2.94-.66c-4 .5-6.49-.79-8.8-4.46-2.4-3.82-3-7.34-1.29-11.15 1.75-4 3.15-8.36 9-8.51 1.64 0 3-.56 4 .86 2.88 3.79 5.91 7.78 4.23 12.82-.68 2.07 1 3.3.49 5 .47.1 1.15.45 1.36.27 2.2-1.95 4.6-3.75 4-7.34a34.28 34.28 0 0 1 -.03-5.43zm-63.06.1c.24-4.16-2.27-15.61-7.13-17.05a6.35 6.35 0 0 0 -3 .06c-7.4 1.36-14.94 3.42-20.81 8.11-8.92 7.13-8.92 17.18-6.91 27.46.41 2.1 1.09 4.47 3 5.34a13.76 13.76 0 0 0 3.16.56c2 .34 3.74 1.52 5.67 2.14 3.69 1.19 7.81.2 11.15-1.76a30.8 30.8 0 0 0 14.89-24.86zm-585.44 40.32a33.22 33.22 0 0 1 2.27-11.52 18.31 18.31 0 0 1 6-8.46c2.87-2 6.86-2.73 10-1.08 5.34 2.84 5.48 10.49 3.8 16.31-1.34 4.64-4.55 9.22-4.48 13.55 6.64-3.64 13.55-10.81 11.31-19.15l-3-11.06c-1.51-5.63-3.54-11.92-8.79-14.45-4.2-2-9.39-.89-13.21 1.77s-6.5 6.64-8.86 10.66c-3.17 5.36-6 11.3-5.63 17.52s5 12.59 11.17 12.89a32.66 32.66 0 0 1 -.56-6.98zm176.79-155.53.49-.08c-.62-4.21-1.07-8.45-1.91-12.62-1.17-5.82-7.19-11.38-12.37-11.95a28.53 28.53 0 0 0 -18.06 4.32 16.26 16.26 0 0 0 -6.16 6.24c-2.88 5.93-2.63 12.4-1.37 18.76a8.54 8.54 0 0 0 1.89 3.56c3.08 3.64 5.85 3 7.41-1.54.36-1.06 1.23-2.09 1.18-3.11-.26-6.21 4-10.33 6.83-15 1-1.59 2.57-2.23 4.63-2.38 4.22-.33 7.53.4 9.25 4.82 2.2 5.67 5 11.22-.15 16.84a69.1 69.1 0 0 0 -5.44 6.86 3.48 3.48 0 0 0 -.56 2.86 2.13 2.13 0 0 0 3.33 1c9.37-5.41 11.68-7.21 11-16.49-.04-.74.01-1.43.01-2.09zm158.81 70.27c.15 8.59 7.4 25.64 17.82 18.31 1.85-1.3 5-.93 5.49-4.09-2.18-.27-4.36-.56-6.55-.79a6 6 0 0 1 -5.53-5c-1.12-5.87 2-10.51 4.61-15.15 1.65-3 5.09-3.17 8.38-3.4 3.48-.25 4.22-2.9 2.4-5.78-2.24-3.54-6.13-3.51-9.36-4.66-10.1-3.58-17 12-17.26 19.82-.01.24-.01.47 0 .71zm-641.67-133.42c6.94 0 9.46 1.24 10.66 5.87.77 3 1.4 6.77.21 9.31s-4.62 3.86-7.25 5.41a6.12 6.12 0 0 1 -4.31.9c-3.49-1.1-7.51-1.77-8.72-6.24-.09-.33-.78-.51-1.19-.76-.21.71-.72 1.48-.58 2.11 1 4.51 8.27 10.3 13.11 10.85 14 1.6 25.22-19.54 17.53-30.69-4.64-6.72-18.58-10.3-23.27-2.17a26.24 26.24 0 0 0 -1.42 3c-.4 1-.7 2-1 3l3-.3zm783 235c.18 5.95 3 11.81 8.11 14.79 12.66 7.38 22.13-4.21 24.92-15.37.7-2.8.38-5.94.08-8.88-2-18.81-26-11.52-31.61 1.37a18.82 18.82 0 0 0 -1.57 8.07zm-568.4 465.67c-.85-1.63-1.43-3.73-2.8-4.94-.64-.57-2.83.49-4.25 1a6 6 0 0 0 -2.24 1.43c-2.09 2.19-4.78 3.06-7.48 4.25-8.55 3.79-16.87 8.09-25.22 12.31-1.17.59-2.58 1.65-2.88 2.77s.3 2.87.84 4.19c.16.41 1.51.7 2.14.49 12.56-4 25.53-6.77 36.84-14.22 2.82-1.94 3.52-4.29 4.98-7.3zm-23.63 76.62c-1-6.2-5.38-9.52-13-13-1.25-.57-6.57 1.58-7.09 2.78a5.07 5.07 0 0 0 1.12 6.08c4.22 4.2 9.28 7.64 12 13.23a4.19 4.19 0 0 0 1.44 1.43 3.28 3.28 0 0 0 5.23-2.11 25.54 25.54 0 0 0 .23-8.43z"></path><path d="m1011.41 761.85c-11.54-.24-20.67-6.5-26.11-18.13a42 42 0 0 1 -2.39-28.83c3.49-12.51 12.55-22.6 21.56-32 21.42-22.25 41.21-20.48 59.77 4.29a17.23 17.23 0 0 1 3.62 7.2c.55 3.24-.58 6.5-1.28 9.71-1.76 8-.36 16.73-2.73 24.58s-8.36 15.1-14.63 20.07c-8.59 6.82-19.35 10.39-30.14 12.41a38.06 38.06 0 0 1 -7.67.7zm7.78-17.16a63.6 63.6 0 0 0 19.31-6.69c1.94-1.07 4.3-2.26 5.28-4 3.75-6.81 8.41-13.36 8-21.75a11.07 11.07 0 0 1 .74-4.6c4.24-10.44-11.71-19.18-18.24-24.15a12.19 12.19 0 0 0 -4.52-2.49 10.07 10.07 0 0 0 -6.1 1c-7.07 3-12.31 9.16-16.93 15.32-4 5.34-7.83 11-9.69 17.42-4.31 14.94 6.31 30.09 22.15 29.94z"></path><path d="m980.66 694.59a42.14 42.14 0 0 1 -1.37 7.61c-1.55 5.42-4.36 10.38-7.13 15.28-2.46 4.32-4.93 8.69-8.23 12.41-7.34 8.27-16.39 12.7-26.37 16.14-12.93 4.47-28.56-2.93-35.94-13.77-10.91-16-4.19-38 4.82-53.32a32.25 32.25 0 0 1 5.52-7.55c5.14-4.69 10.16-9.88 16.16-13.17 6.49-3.55 13.51-7.25 21.37-6.75 9.55.62 20 2.11 25.11 11.25 4.73 8.54 7.02 21.18 6.06 31.87zm-47.41 33.79c12.9.26 28.9-10.47 31.27-23.6.85-4.73.45-9.6 0-14.39a45.5 45.5 0 0 0 -1.88-11c-3.62-10.5-14.62-17.71-25.24-13-17 7.58-28.12 26.76-26.2 45.3a15.36 15.36 0 0 0 2.09 7 16.46 16.46 0 0 0 5.41 4.66c3.82 2.33 7.95 4.35 12.4 4.9a18.55 18.55 0 0 0 2.15.13z"></path><path d="m558.32 735.21c.33 11.82-3.23 23.21-11.26 33.64-25.34 32.87-77 18.54-76.73-24.81.12-18 9.57-35.12 22.65-47.54 6.3-6 14.1-11.27 22.79-11.29 16 0 33.24 15.69 38.51 30a63.3 63.3 0 0 1 4.04 20zm-15.75-1.21c.47-7.61-.91-15.56-6.31-19.78-9.63-7.51-17.83-12.59-29.56-7.19-13.07 6-22.15 19.65-19.38 34.08.66 3.43 1 6.36 0 9.78-1.77 5.68.32 9.67 5.77 12.73 1.16.65 2.18 1.55 3.36 2.14 7.28 3.65 14.51 6.19 23.07 3.86 11.21-3.06 16.39-11.71 20.25-21.94a49 49 0 0 0 2.8-13.68z"></path><path d="m600.39 762.36c-11.39-.77-23.14-6.36-29.81-14.36-9.39-11.32-12.48-29.31-8.36-43.38 1.75-6 3.7-11.87 5.55-17.81a22.67 22.67 0 0 1 10.31-13.4c11-6.43 21-15.78 34-8.37 4.43 2.52 8.12 6.14 11.76 9.71 7.24 7.12 14.67 14.53 18.45 24 8.88 22.16-5.69 53.22-27.8 61.78a33.07 33.07 0 0 1 -14.1 1.83zm-23.39-45.44.4.05c0 2.5.12 5 0 7.51a9.35 9.35 0 0 0 2.51 6.79c5.6 6.59 12 12.19 20.79 14a12.34 12.34 0 0 0 5.16.17c6.43-1.5 11.77-5.36 17.1-8.91 3.68-2.47 6.88-5.95 6.56-11.2-.07-1 .81-2.09.91-3.17.48-5.36 1.19-10.65-1.57-15.83-5.05-9.46-12.63-16.39-21.53-21.86-4.6-2.82-9.36-3.4-15.2-.91-8 3.39-11 9.73-13.11 16.71-1.63 5.26-1.43 11.07-2.02 16.65z"></path><path d="m1180.09 953.75c-.25-1.94-.42-3.89-.57-5.84-.21-2.81-.38-5.63-.31-8.45.64-25.74 22-48.25 48.28-47.54 12.86.35 31.37 9.25 33.23 23.75a14.83 14.83 0 0 1 .28 1.73c0 2.15-.09 4.3-.14 6.45a45.4 45.4 0 0 0 4.53-4.1c4-4.74 9.32-7.71 14.61-10.7 1.56-.89 3-2 4.55-2.88 7.81-4.43 14.43-4.55 22.92-1.71 6.69 2.24 13.86 4.84 17.76 10.72 2.62 4 3.34 8.85 4 13.55a88.77 88.77 0 0 1 .44 28.88 27 27 0 0 1 -1.55 7.58c-7 16.81-30 26.47-46.95 27a20.31 20.31 0 0 1 -6.55-.63c-8.6-2.6-17.69-12.31-21.15-20.32-.8-1.84-1.64-1.85-3-.74a50.17 50.17 0 0 1 -20.2 10.18 48.11 48.11 0 0 0 -10 3.57c-4.58 2.3-13.3 2.12-17.89.34a34.94 34.94 0 0 1 -19.86-20.25 47.55 47.55 0 0 1 -2.43-10.59zm66.65-13.37a55.45 55.45 0 0 1 -.4-10.14c.13-3.5-.79-7.07-1.53-10.56-.2-1-1.3-1.85-2.16-2.55a35.8 35.8 0 0 0 -19.57-7.73c-2.31-.23-4.81.69-7.13 1.4-7.19 2.19-12.5 5.45-16 12.36-1.7 3.34-3.08 6.83-4.45 10.32a34.58 34.58 0 0 0 -1.83 5.6c-1 5.07.27 10.28 1.57 15.29.67 2.57 1.37 5.21 3 7.31 2.5 3.24 6.68 4.59 10.6 5.76 3.28 1 6.62 2 10 1.83 4-.16 7.69-1.82 11.25-3.55s7.38-3.72 10.21-6.67c4.57-4.75 4.8-12.52 6.44-18.67zm18.73 14.49c.37 3.12.41 6.32 1.18 9.34 1.32 5.19 5.15 8 9.95 10.15 8.74 3.95 19.43 2.49 26.19-4.19 4.36-4.3 10.53-8.22 12.31-14.34 1.23-4.22.63-8.74 0-13.09l-1.72-12.36c-.61-4.43-1.37-9.17-4.44-12.44-5.22-5.56-15.18-3.22-20.07 1.72-1.71 1.73-4 2.84-5.87 4.46-4.24 3.71-9.62 6.87-12.22 11.54-3.13 5.64-6.51 11.98-5.31 19.21z"></path><path d="m1652.41 888.9c0-11.93 7-23 14.55-32.28a54.6 54.6 0 0 1 31.55-19.17c9.15-1.78 18.59-1.14 27.87-.3 5 .45 10.31 1.11 14.08 4.38 2.76 2.4 4.3 5.87 5.75 9.22 4.89 11.29 8.08 26 3.45 38.1-2.65 6.89-4.29 14.61-10.64 19.71-1.87 1.5-3.08 3.82-4.64 5.73a16.74 16.74 0 0 1 -2.35 2.48c-12.92 10.43-24.14 19.56-41.77 20.12-10.32.33-21.22-3.49-27.35-11.81a37.77 37.77 0 0 1 -3.25-5.44 66.46 66.46 0 0 1 -7.25-30.74zm84.13-13c.76-5-1.75-15.37-6.81-17.59-2.42-1-5.15-1.29-7.47-2.54-3-1.64-5-4.8-8-6.55-5.08-3-11.55-1.19-17.06.91-7.23 2.76-14.54 6.07-19.74 11.81-5.4 6-8 13.94-9.61 21.81-1.24 6-2 12.27-.33 18.14 2.73 9.49 13.52 17.95 23.34 18.29a41 41 0 0 0 12.12-1.8 50.47 50.47 0 0 0 8.54-3.05c8.24-4 20.92-16.89 22.91-26.18.97-4.39 1.44-8.86 2.11-13.28z"></path><path d="m1512.3 732.16c.43 15.28-5.11 31.65-14.1 42.24-11.36 13.38-30.26 20.55-47.28 16.24-23.15-5.86-27.38-32.8-21.32-52.95 4.56-15.16 15.5-28 29-36.24 7.39-4.47 15.93-7.69 24.53-6.82 10.13 1 19.2 7.9 24 16.88a46.28 46.28 0 0 1 5.17 20.65zm-72.71 19.84a20.72 20.72 0 0 0 4.74 12.76c4.67 5.37 10.14 9.3 17.78 8.63a17.19 17.19 0 0 0 2-.43c-.5-.34-1-.66-1.5-1-2.56-1.73-3.91-4.28-4.86-7.1-4-11.87 0-19 7.84-27.31a8.28 8.28 0 0 1 3.46-2c3.51-1.13 7.11-1.31 9.35 3.89a15.14 15.14 0 0 0 3.25 4.91 6.62 6.62 0 0 1 2.21 6.09c-.62 4.42-1.26 8.83-4 12.61-1 1.46-1.89 3-2.81 4.57a2 2 0 0 0 -.14.67c-.15.72-.29 1.44-.43 2.17a5.69 5.69 0 0 0 2 .08c4.58-1.62 7.68-4.9 10.59-8.72 4.14-5.43 8.44-10.59 9.42-17.72.66-4.81.61-9.51-1.45-13.87-2.82-5.94-6.9-14.24-13.17-17.09-3.24-1.47-7-1.52-10.47-1a39.28 39.28 0 0 0 -27.4 17.22c-3.93 6.08-6.82 14.73-6.41 22.64z"></path><path d="m1510.08 786.67c.72-24.3 15.41-47.87 37.16-58.86a30.81 30.81 0 0 1 7-2.7c10.35-2.42 20.66 3.38 29.71 8.95a10.39 10.39 0 0 1 3.19 2.61c1.27 1.78 1.3 4.14 1.28 6.33-.13 10.67 2.35 22.66-1 32.81a108.89 108.89 0 0 1 -9.23 21.48c-9.72 17.81-35.88 24.71-53.7 16.62a24.39 24.39 0 0 1 -10.25-7.92c-2.9-4.19-3.79-9.46-4-14.55-.19-1.59-.24-3.18-.16-4.77zm34.05 12.8a33.47 33.47 0 0 0 4.67-.26l-8.1-6.91a11 11 0 0 1 -2.69-2.92c-2-3.65.21-13.29 2.39-16.77 2.91-4.63 8.56-6.56 13.7-7.36 1.06-.16 2.56-.15 3.27.46 3.76 3.25 7.8 6.38 7.4 12.23-.19 2.73-.08 5.48 0 8.22a29.59 29.59 0 0 0 .42 3.34c.88-.7 1.81-1.34 2.64-2.09 2-1.83 3.75-3.72 4.2-6.7.79-5.27 2.48-10.44 2.9-15.73.66-8.52.57-19.12-8.6-22.89-7.89-3.25-16.71 1-24 5.42-5.88 3.53-11.92 7.48-15.17 13.53-1.79 3.32-2.6 7.06-3.4 10.74-1.39 6.46-2.64 13.72 1 19.24 3.89 5.98 12.09 8.35 19.37 8.45z"></path><path d="m784.89 530c2.77 13.7-14.16 34.36-25.17 39.86-16.65 8.31-37.25 1.17-44.1-16.24-6.06-15.38-4.54-29.3 6.6-43a98.34 98.34 0 0 1 9.54-9.72c3.11-2.89 6.29-5.83 10.14-7.62 6.86-3.18 15.2-2.22 21.81 1.47 10.1 5.64 17 17.85 19.86 28.8.51 2 .81 3.99 1.32 6.45zm-58 7.37c-1.68 8 3.87 12.5 9.32 17.31 2.91 2.58 6.31 3.13 9.72 4.06 3.78 1 11.74-1.39 13.63-4.59 4.32-7.34 9.34-14.49 7-23.93-1.1-4.54-1.33-9.26-5.45-12.5-1-.77-1.34-2.3-2.15-3.34-4.51-5.81-13.28-7.69-18.52-3.21-7.75 6.71-14.44 14.36-13.54 26.22z"></path><path d="m1932.75 718.7a61.85 61.85 0 0 1 -2.91 17c-1.76 5.5-4.39 10.88-8.6 14.83-4 3.77-9.21 6-14.29 8.15-8.09 3.44-17.73 7.66-26.5 4.18-6.86-2.73-14.3-10.6-14.15-18.4 0-2.19.87-5.2-1.82-5.94-1.07-.29-3 2.29-4.43 3.66a72.44 72.44 0 0 0 -5.32 5.34c-8.28 9.57-30.09 13-41.49 8.54-13.68-5.37-20.4-22.27-17.3-36.64s14.06-26 26.67-33.54c6.71-4 14.17-7.14 22-7.44 8.9-.33 17.83 3.41 22.31 11.33 2.59 4.59 4.27 9.59 6.06 14.53 4.49-4.72 9-9.43 14.38-13.19s11.51-6.53 18-6.91a12.47 12.47 0 0 1 5.59.73 16.13 16.13 0 0 1 3.28 2.09c5.71 4.3 12.47 8.11 15.77 14.73a29.84 29.84 0 0 1 2.66 11.66c.11 1.77.14 3.53.09 5.29zm-75.19-2c.39-9.68-2.08-19.55-10-21-12.59-2.38-27 3.44-32.34 15.07a37.42 37.42 0 0 0 -2.87 11.67c-.45 4.27-.5 8.73 1.15 12.7 3 7.22 11.37 11.28 19.17 10.74 8-.56 16.31-5 20.61-11.87 2.28-3.7 4-10.48 4.28-17.35zm63.61.77a19.73 19.73 0 0 0 -7.49-16.78c-3.55-2.92-8.38-4.51-12.85-3.43-3.63.88-6.64 3.36-9.3 6-9.32 9.2-16.15 22.24-13.85 35.13.84 4.73 3.39 9.71 8 11.13a15.27 15.27 0 0 0 7 .06c7.78-1.3 20.56-3.77 23.9-12.18 2.55-6.49 4.92-13.03 4.59-19.97z"></path><path d="m1085.73 508.41v.7c-.35 17.51-15.45 35.13-31.18 40.83a46.5 46.5 0 0 1 -6.52 1.34c-12.56 2.61-24.12-7.3-28.34-18.09-4.16-10.62-3.55-22.81.61-33.44s11.7-19.75 20.7-26.75 20.91-11.41 30.11-2.24c4.65 4.64 7.16 10.95 9.51 17.08 2.53 6.62 5.08 13.47 5.11 20.57zm-53.32 4.3a20.91 20.91 0 0 0 1.74 11.4 18.61 18.61 0 0 0 13.61 10.14c9.89 1.57 17.39-4.93 21.5-13.19 2.32-4.65 3.18-10.67 1.14-15.8-2.62-6.61-3.18-14.6-10.93-18.41-11.34-5.57-19.28 6-24.2 16.11a29.94 29.94 0 0 0 -2.86 9.75z"></path><path d="m1349.91 601.2c.55 4.56-.34 9.12-3.88 12.88a49.23 49.23 0 0 1 -4.13 3.29c-1.15 1-2.23 2.28-3.73 2.51a6.22 6.22 0 0 1 -2.45-.31c-3.83-1-7.94-2.23-10.37-5.36a11.91 11.91 0 0 1 -2-9 26.55 26.55 0 0 1 3.34-8.79c2.52-4.57 5.7-9 10.29-11.5a6.16 6.16 0 0 1 3.29-.92c2 .14 3.49 1.76 4.49 3.45a36.49 36.49 0 0 1 5.15 13.75z"></path><path d="m1793.79 903.89c-4 0-7.85-.16-9.79-4.49-1.84-4.09-1.4-7.66.29-12.11 2.59-6.79 7.16-10.15 13.24-13.08s9.44-2.68 13.45 2.16c4.19 5 3.07 10.61.79 15.38-3.45 7.25-9.53 11.77-17.98 12.14z"></path><path d="m1394.43 604.19c-.09-3.09.06-6.24 1.53-8.91 1.06-1.91 2.72-3.43 3.74-5.36a27.86 27.86 0 0 1 1.55-3.09 9 9 0 0 1 5.07-3.09c2.85-.8 6-1 8.69.22 8.56 4 3.75 19.25 1.21 25.47-2.75 6.71-15.64 9.68-20.15 3.14-1.31-1.9-1.46-4.34-1.57-6.64-.03-.57-.05-1.16-.07-1.74z"></path><path d="m1494.5 498.42c-6-.57-9.12-3.57-9.38-9.55-.23-5.14 1-9.64 5-13.32 3.31-3 6.12-6.59 10.8-7.66 2.36-.53 4.32-.29 6.13 1.67 2.83 3.09 5.6 6 2.88 10.56 1 7.76-5.94 11.13-9.34 16.41-.86 1.37-3.99 1.3-6.09 1.89z"></path><path d="m1322.25 411.24a25.75 25.75 0 0 1 -2.44 4.41 63.07 63.07 0 0 1 -5.26 5.34 9.69 9.69 0 0 1 -12.23 1.39c-2.88-1.81-4.7-7.2-3.63-10.92a5.36 5.36 0 0 1 1-1.73c2-2.45 3.83-5 5.93-7.29 3.42-3.78 8.87-4.62 12.81-1.8 3.24 2.36 3.17 6.15 3.82 10.6z"></path><path d="m1149.16 566.89c-.46-6.17 2.58-10.75 5.76-15 2.81-3.76 8.89-4.21 12.83-1.71a10.67 10.67 0 0 1 4.33 13 35.21 35.21 0 0 0 -2.46 8.26c-1 7.16-8 9.74-14.39 6-4.33-2.56-6.76-5.77-6.07-10.55z"></path><path d="m842.06 533.6c0 1.83.1 3.66 0 5.48-.22 3-3.59 6.63-6.53 6.75-2.68.1-6 .6-7.92-.7-2.2-1.45-3.61-4.56-4.62-7.23-2.23-5.91 3.14-15.21 9.32-16.71a8.08 8.08 0 0 1 9.77 7.62c.04 1.59-.02 3.19-.02 4.79z"></path><path d="m987.41 349c.36 5.36-1.08 9.54-6.36 12.22-3.54 1.8-6.22.54-8.73-1.26-2.81-2-4.7-5-4.1-8.74.75-4.62 6.78-10.38 11.3-11.09 4.25-.66 7.76 2.36 7.89 6.82.02.7.01 1.38 0 2.05z"></path><path d="m1770.36 528.58a12.79 12.79 0 0 1 2-6.22c3.93-6.13 14.58-10.33 19.12-2.6 2.88 4.89-1.4 12.92-4.63 16.53-2.32 2.57-5.88 4.31-9.25 3.51a8.73 8.73 0 0 1 -4.08-2.38 11.58 11.58 0 0 1 -3.16-8.84z"></path><path d="m1709.5 562.25c5.08 0 7.52 2.19 8.86 7.29 1.82 6.88-.06 12.44-4.82 17.62-2.84 3.09-6.2 3.29-9.32 2.3-3.61-1.16-6.36-5-5.82-8.33.76-4.69-.23-9.77 3.07-14.19 3.12-4.18 2.97-4.71 8.03-4.69z"></path><path d="m1043.58 713.55c.56 7.92-2.83 13-7.51 17.44-3.08 2.93-7.17 4-10.68 2.39-4.39-2-8.64-4.77-9.32-10.59-.9-7.81 2.84-13.43 8.14-18.34a28.81 28.81 0 0 1 5.59-3.66c6.49-3.64 10.24-.27 12.43 4.58a13.54 13.54 0 0 1 1.29 3.78 30.41 30.41 0 0 1 .06 4.4z"></path><path d="m927.9 707.13c1.49-12 23.49-33.49 27.5-11.37a18.12 18.12 0 0 1 -1.32 10c-3 7.37-14.8 20.61-23.26 12.36-2.44-2.39-3.07-6.08-3-9.5-.01-.5.02-.98.08-1.49z"></path><path d="m523.51 762.38c-10.51-.48-15.4-12.62-10.68-21.56 3-5.71 9.57-7.24 15.1-4.16 8 4.44 6.62 12.63 4.09 20.08a10 10 0 0 1 -1.58 3.28 7.45 7.45 0 0 1 -5.42 2.35c-.51.03-1.02.03-1.51.01z"></path><path d="m624.51 717.3a9.76 9.76 0 0 1 0 4.59c-2.55 9.85-23.36 18.85-27.91 6.24-1.3-3.6-.81-7.61.14-11.32 2.86-11.12 11.7-14.13 21.63-8a13.78 13.78 0 0 1 6.14 8.49z"></path><path d="m1232.93 942.52c.28 3.61-.33 7.07-2 9.05-3.42 4.07-9.72 3.54-15 2.65-3-.51-6.83-1.84-6.91-4.91a6.3 6.3 0 0 1 .51-2.29 59.84 59.84 0 0 1 5.38-11.17c1.49-2.42 3.27-4.83 5.84-6.05 7.01-3.31 11.59 5.07 12.18 12.72z"></path><path d="m1302.77 941.82c-.36 4.84-.36 9.8-3.31 14-3.67 5.24-9.25 6.58-15.09 6.83-3 .13-5.34-3.52-4.86-7.64a35 35 0 0 1 2.62-9.55 29.21 29.21 0 0 1 4.7-7.24c3.36-3.91 8.18-4.26 12.87-4.15 1 0 2.5 1.76 3 3s.07 3.16.07 4.75z"></path><path d="m1692.05 890.72a18.49 18.49 0 0 1 .49-4.87c1.85-7.67 17.1-27.4 23.88-13.16 3.41 7.15 4.59 15 0 22a25.37 25.37 0 0 1 -12.3 9.52 6.52 6.52 0 0 1 -2.48.55 5.72 5.72 0 0 1 -2.8-1c-4.33-2.71-6.63-7.84-6.79-13.04z"></path><path d="m760.17 536.91c-1.06 3.06-2 6.28-3.28 9.32-.94 2.16-6.68 4.36-8.81 3.46-5.28-2.23-10-5.05-11.43-11.33-1.36-6 3.09-14.07 8.93-15.72 3.48-1 11 2.53 12.55 6.21 1.01 2.44 1.33 5.15 2.04 8.06z"></path><path d="m1825.12 724.11a22.93 22.93 0 0 1 1.83-8.81 15.84 15.84 0 0 1 8.82-8.62 8.2 8.2 0 0 1 5.37-.27c11.6 4 2.07 24.53-5.53 27.69-2.65 1.1-6 1.34-8.12-.61-1.55-1.43-2-3.66-2.23-5.75a31.47 31.47 0 0 1 -.14-3.63z"></path><path d="m1908.92 715.13c-.46 8.09.09 16.24-8.48 20.64a11.11 11.11 0 0 1 -6.8 1.41c-2.32-.4-4.51-2.19-4.78-4.53a8.74 8.74 0 0 1 .49-3.35c1.2-4.27 2.43-8.62 4.92-12.29s15.21-11.91 14.65-1.88z"></path><path d="m1048.4 526.05a7.81 7.81 0 0 1 -4.33-2c-2.73-2.6-3-7-1.7-10.53 6.94-18.3 27.81-12.31 19 4.24-1.67 3.14-4.07 6-7.32 7.52a10.21 10.21 0 0 1 -5.65.77z"></path><path d="m1643.81 550.37h-.35a12.4 12.4 0 0 0 -5.59.88.59.59 0 0 1 -.15.25c-4.23 3.44-4.63 9.07-7.64 13.23-1.86 2.57-1.49 5.71-.32 8.46 2.55 6 5 6.48 11.4 5.09a8.58 8.58 0 0 0 3-1.51c5.38-3.81 7.6-12.57 6-19.31-.91-4.01-3.42-5.62-6.35-7.09z"></path><path d="m1669.74 560.21c-.71-2.88-2.36-5.46-3-8.35-.56-2.41-.42-5-1.2-7.31-1.45-4.34-5.7-7-9.78-9.13-6.37-3.23-13.06-5.78-20.17-3.41-4.55 1.52-8.52 4.35-12.32 7.27-8.24 6.34-16.32 13.74-19.72 23.56-4.25 12.27.1 26.73 9.67 35.5 7.6 6.95 17.92 9.12 27.49 5.09a34.82 34.82 0 0 0 7.49-4.8c8.58-6.61 21.53-21.22 22-33.79a16.63 16.63 0 0 0 -.46-4.63zm-18.93 19.63c-2.41 3.37-4.85 6.33-8.6 8.26a14.77 14.77 0 0 1 -16.78-2.56 22.76 22.76 0 0 1 -5-24.14 19.7 19.7 0 0 1 3.47-5.34c3.51-4.07 8-7.53 13.24-8.73 9.4-2.16 15 3 16.64 11.68a7.07 7.07 0 0 0 .63 1.9c3.85 7.3.59 13.09-3.6 18.93z"></path></g></svg> 