<?xml version="1.0" encoding="UTF-8"?> <svg xmlns="http://www.w3.org/2000/svg" viewBox="0 0 2400 2400"><g fill-rule="evenodd"><path d="m543.69 1880 23.77 9.58 42.23 25.55 60.31 27.32s97.59 4.26 102.56 4.26 86.59 9.58 87.66 9.58 23.77 5 23.77 5l119.6 38.68 112.49 19.16 49.69 1.07 45.07 3.9 39.39 14.91 16.32 14.19s12.78 26.26 13.84 26.26 57.49 3.19 57.49 3.19l47.91 10.65 51.1 5.32 45.11-4.62 24.14-12.06 35.48 3.19 23.07 11.36 64.94 27.68 96.53 28.39 19.87 1.06s14.55 4.61 15.62 4.61 10.64 3.91 10.64 3.91 9.59 9.58 11 9.22 34.43-31.93 34.43-31.93l96.88-96.89 92.27-89.07 51.81-50.75-23.78-5 15.26-25.55-34.07-1.42 17.75-25.55-58.91-11.71 39-38.33.35-15.26-93-15.26-78.43-4.61-52.16-2.48 7.09-32.65.36-66.72-3.9-89.43-20.94-140.17-24.49-145.5-27.64-111.08-27-116.76-19.87-83.39-9.23-76.3 14.55-12.78-8.87-48.26-2.49-103.27-5.32-18.1-16.68 16.33-7.45-5 37.62-65.3 40.1-47.55-18.81-1.07s-34.78 9.94-34.78 11-21.65 48.27-21.65 48.27l-11.71 29.45-3.19-15.61-16.68-104 54.29-44.66-4.26-9.22-35.49 22s-18.45 6-18.1 5-.71-16-.71-16l36.56-27.33 16.33-17.74-4.62-9.23-30.16 17.39-42.94 10.29 9.23-13.84 42.94-23.42 29.1-22.36 19.87-26.26-11.36 1.42-41.16 12.78 11.77-24.13 26.61-33-5.32-6-18.45 13.13-21.65 18.81-16 9.22-28.74 9.59 2.48-7.46 31.94-30.52 35.13-39-4.26-8.52-20.22 15.26-24.14 15.26-3.19-6.39 23.81-30.23 16-22-3.55-11-11.71 8.88-33.36 27s-38.68 25.9-39.75 25.9-14.9 4.62-14.9 4.62l-19.52-11-30.88-7.09-14.9-4.62-9.23-19.51s-8.51-63.17-9.58-64.24-17.74-17-17.74-17l2.12 42.86 5 46.49-4.25 9.22-11.45-23.01s-18.1-49.69-18.45-51.46-2.49-20.94-2.49-20.94l-25.19-14.19 3.19 25.9 19.87 58.91 16.33 35.14-8.88 6.38-17-12.06-31.23-35.13-.71 9.93 5.26 31.52 2.13 11.71-14.55-2.49-15.26-11-20.93-30.52-13.84-16.32-2.84 2.84 3.9 21.64 10.29 33.36-11.71-7.09-23.42-14.91 2.13 11 10.29 20.58 18.1 18.1 19.52 16.68-24.13 18.81-49.33 44.72-39.35 33.37s-30.89 14.52-33 14.52-24.84 21.65-24.84 21.65l-11.35 23.42-20.59 24.84-17.39 14.91-14.9-2.13s-11-46.84-12.07-47.91-31.94-28.74-31.94-28.74l-53.58-14.55-33.34 8.9-20.58 15.26s-8.17 18.81-8.17 21.29-2.48 23.42-2.48 23.42l4.23 18.46-32.65-9.58-52.17-19.52-57.49-29.81-50.39-26.26-46.5-6.75-46.49 6.75-33.31 20.93-23.77 28s-8.23 24.88-8.23 25.95-.71 17.74-.71 17.74l28.39 31.94 5 17.39-11 .35-32.68-5.32-2.48 20.58 10.3 51.79 25.91 63.88 50.74 62.12 42.23 34.06 86.24 39 113.21 30.52 104.33 17 137.34-1.42-8.17 33.36 14.91 38.33-5 32.65-12.77 43.29-22 70.27-13.84 18.1-7.45-15.62-9.58 7.1-13.13 28-4.61 21.29-2.13 13.13-15.62 32.29-17 72.4-14.92 35.25-25.19 75.59-22.72 47.2-27.32-25.55-10.28-3.91-6 15.67-66.71-14.2-34.78-1.42-42.94 18.81-16 19.88-32.65 50.74-13.49 40.81-16.67 38-16 51.1-28 105.4-24.84 19.52-61 31.93-19.92 8.81z" fill="#fff"></path><g fill="#fef065"><path d="m543.69 1972.52 39.92 17.04-49.77 43.38-26.35-13.84-17.04-16.23 28.48-13.84z"></path><path d="m1888.32 1924.35 29.81 3.99 38.06-46.58-26.88-4.25z"></path><path d="m1832.43 1993.28c1.33.54 18.09 4.53 18.09 4.53l40.19-42.32-24.48-6.12z"></path><path d="m1784 2067.54c1.07 0 13.84 4.26 14.91 2.66s12.24-25 14.37-25.55 16.24-17 16.24-17l-16.77-8.78z"></path><path d="m1679.38 1723.13-48.7 28.75 25.55 23.42 49.5 13.31 34.87-42.32-39.66-8.52z"></path><path d="m1677 2016.17s1.33 55.9 2.66 55.9 59.35-2.13 58.82-3.46-3.46-54-3.46-54z"></path><path d="m1564.4 2009c6.66-1.6 66-20.76 66-20.76l27.15 24.22-7.45 11.44s-53.5 14.38-54.57 13.58-31.13-28.48-31.13-28.48z"></path><path d="m1803.95 1893.47-20.76 28.22-6.39 17.56 46.04 6.13.54-9.05 34.86-38.86z"></path><path d="m1596.08 1830.4-39.39 50.3 59.88 7.45 18.1-27.15 25.55 29.55-1.6 7.18-33.8-.26-17.82 37.53-.27 21s49-3.19 49-4 19.43-54.56 18.36-54.56-10.91-1.33-10.91-1.33l2.13-10.65 33.8-21.29 25.29 20-.54 5.86-32.47 49.23 53 7.46 21-47.38-39.12-6.39.26-10.38 15.44-10.11 33.8 20.49 38.6-21.82 6.38-10.38 47.91 2.66 16.24-47.91-55.9-4.8-9.32 14.9-8.52 24.23-19.16-15.44-24 11.18-11.17-16.24-17.3-8.78-35.14 30.07-12-23.42-38.86 16.24-6.39-9.85z"></path><path d="m1482.69 1924.08 27.42 20.76s8 8.52 10.91 8 56.43-20.5 56.43-20.5l11.17-23.42-41.25-8.25-27.95 18.63z"></path><path d="m1427.87 2006.86 31.67-35.13 56.95 12.24-26.61 36.46z"></path><path d="m1333.64 1924.35 36.2 25.55-29.28 25 24.76 11.71-30.88 24.75-21.56 13.64-56.15-32.74 25-24.49-10.91-11.44s34.6-15.17 37-16 25.82-15.98 25.82-15.98z"></path><path d="m1228.25 1878.84c.79.53 42 23.42 42 23.42l-20.23 24.22-19.16 13.57s-28.22-8-29-8.51-17.84-13.31-17.3-14.11 43.69-38.59 43.69-38.59z"></path><path d="m800 2014s12.51-9.84 13.84-10.38 35.4-12.5 36.2-13 17.83 17.84 17.83 17.84l27.41 12.24-36.46 28-39.39-10.38z"></path><path d="m627.53 2018.84-16.24 43.91 42.85 1.07 9.58-20 6.39 1.87s2.4 22.89 3.46 22.62 53.23-2.93 53.23-2.93l2.93-41.78-59.09 4.26 2.13-12.25z"></path><path d="m499.24 1887.89c-1.6-1.87-22.09-23.16-22.09-23.16l-67.34 21s27.19 33.27 29.54 32.5 31.41-11.45 31.41-11.45 29 27.42 29.81 27.15 15.44-9.31 15.44-9.31l11.44 29.27s1.33 3.46 4 2.66 60.95-19.16 60.95-19.16l-31.67-31.94-5.59-17-17.3-6.66-22.36 1.33z"></path><path d="m498.71 1766.52 39.65 35.93-67.6 32.47s-27.68-16.24-27.95-17.57-10.38-17.3-10.38-17.3l46.05-17z"></path><path d="m480.34 1742-34.87-22.89-12.77-15.11-40.7 28.18s25.81 31.94 27.15 32.47 20.49 13.58 21.55 12.78 39.64-35.43 39.64-35.43z"></path><path d="m673.57 1720.21-62.28-6.92-1.6 35.4-45.77 12.77s18.89 40.19 22.09 40.19 73.19-25.82 73.19-25.82z"></path><path d="m763 1449.79-26.35 39.12s31.41 16 34.34 16 56.16-16.5 57.75-17.56 10.38-41.79 10.38-41.79l-46.84 10.38z"></path><path d="m575.89 1567.7c2.13 1.06 32.47 20.76 31.94 21.82s-26.35 28.75-27.68 29.81-36.46 29.55-37.53 28.75-32.74-36.47-32.74-36.47z"></path><path d="m511.22 1671.5s-24.76 43.65-24 43.92 31.41 18.89 33.27 19.16 30.88 6.12 31.94 4.26 23.95-49.24 23.95-49.24l-41.78-7.45z"></path><path d="m937.6 1013.56-43.12 96.35 17.57 8 40.46-.53s66.54-11.18 68.66-12.25 47.91-20.76 55.9-22.89 100.07-37.79 103.27-38.85 20.76-7.46 20.76-7.46 6.92 5.33 10.11 5.33 39.39.53 44.72 1.06 40.45-7.45 46.84-5.85 38.86 17.56 38.86 17.56 48.44 31.41 52.17 33.54 64.94 46.84 64.94 46.84l43.65 31.41 5.85-9.58 41.53-86.77 4.79-12.24-18.63-7.46-42.59-12.24-63.34-27.17-59.08-19.69-44.72-8.52-15.43 2.66-6.92-8-34.61-2.13-32.47 4.79-19.16 3.19-59.62-1.6-40.46 4.26-77.18 15.44s-67.07 12.78-68.67 12.78z"></path></g><path d="m1389.16 441.59c2.85 5.08-3.4 9-5.91 11.82-3.2 3.65-6.55 7-9.46 10.64-6.2 7.76-9.76 16.43-15.37 24.82-5.21 7.81-11.14 15.51-16.54 23.65-5.06 7.61-10.18 18.36-20.1 20.1-2.24-9.52 7.15-16.54 11.82-23.65 15.35-23.38 28.12-50.29 49.65-68.57 1.75.65 6.12-1.4 5.91 1.19z" fill="#0e5256"></path><path d="m1434.09 561c-4.8 10.74-15.28 1-20.1-2.36-6.19-4.37-13.07-10.14-17.73-14.19-11.26-9.78-24.38-21.11-26-36.65 1.55-1.2 4.36-1.16 5.91-2.36 1 .22 1.18 1.18 2.36 1.18 10.27 20.47 29.09 32.39 44.93 47.29 4 1.89 10.19 1.61 10.63 7.09z" fill="#0e5256"></path><path d="m1051 556.26c-.42 6.88-10.66 7.64-17.73 8.28-14.95 1.36-33.49.05-46.11-3.55-13.22-3.76-34.72-11.49-26-21.28 1-.73 2.11-1.43 2.36 0 16.83 8.63 37.87 14.77 67.39 14.19 7.21-.14 15.71-2.78 20.09 2.36z" fill="#0e5256"></path><path d="m1297 705.23c-2 6.52-11.38 2.52-15.37 1.18-9.47-3.18-17.45-10.36-24.83-17.73-6-6-10.53-9.92-10.64-20.1a6 6 0 0 0 3.55-3.55c1.91-.33 2 1.12 3.55 1.18 5.26 13.6 15.39 25.46 28.37 31.92 4.84 2.44 12.37 1.02 15.37 7.1z" fill="#0e5256"></path><path d="m1242.57 682.77c1.37 14.23 6.5 23.11 14.18 31.92 4.52 5.17 12.14 9.43 13 17.73-5.45 4.07-10.54-2.57-14.19-5.91-9.67-8.86-19.57-21.47-20.1-40.2 2.9-.66 2.54-4.57 7.11-3.54z" fill="#0e5256"></path><path d="m1416.36 1260.89c2.77.38 4.43 1.87 8.27 1.18 15.63 66.37 21.58 140.77 37.83 208.08 4 16.37 9.55 29.88 11.83 49.65.51 4.44 4.7 11.09-1.19 14.19-10.34-1.64-7-15.24-8.27-22.47-1.71-9.62-5.92-19.63-8.28-29.55-16.2-68.11-24.45-147.73-40.19-217.53-2.11-.87-.17-2.15 0-3.55z" fill="#0e5256"></path><path d="m789.76 1521c1.55.41 1.86 2.07 3.55 2.36a961.91 961.91 0 0 0 9.46 121.77c1.83 13.05 6.86 26 9.45 39 15.37 77.14 43.64 147.25 75.67 209.26 2.7 5.24 4.3 11.32 7.09 16.56s7.75 10.07 7.1 16.55c-15-3.88-19.48-21.63-26-34.29-32.87-63.64-59.79-140-76.85-221.08a502.19 502.19 0 0 1 -8.28-50.84c-2.84-26.68-11.69-71.76-1.19-99.29z" fill="#0e5256"></path><path d="m757.84 1551.72c1.55.42 1.86 2.08 3.55 2.37-8.67 69.86-4.11 153.37 4.73 224.62 3 24.32 8 46.89 9.45 68.57-11.14.66-9.3-14-10.64-20.09-5.58-25.51-8.61-49.36-10.64-75.67-2.79-36.26-7.09-75-7.09-111.13 0-29.81.87-65.85 10.64-88.67z" fill="#0e5256"></path><path d="m575.77 1560c9 2.11 11.4 11.9 18.92 16.55 6.29 3.89 15.6 3.88 18.92 11.82-15 30-45.39 44.47-69.76 65-14.67-7.65-22.88-23.3-34.28-35.47-1.8-2.93-7.35-2.11-7.1-7.1 3.93-6.89 12.42-7.37 18.92-10.64 11.94-6 24-14.43 35.47-23.64 6.28-5 13-9.86 16.55-16.55zm-1.18 13c-16.64 16.07-37.84 27.58-57.93 40.2 9.11 9.41 17 20 27.19 28.37 19.09-17.16 44.48-28 56.75-52-10.16-4.05-17.09-11.3-26.01-16.57z" fill="#0e5256"></path><path d="m1268.58 1641.57a3.27 3.27 0 0 1 2.36 3.55c-5.59 13.47-17.54 22.07-26 33.11-41.22 53.64-76.67 116.12-113.5 177.33-9.52 15.83-20.81 36.41-30.74 56.75-4 8.27-5.84 17.64-10.63 17.73-11 .21-3.22-13.19-1.19-17.73 7.92-17.72 22-38.58 30.74-53.2 21.93-36.65 40.75-69.78 62.66-105.22 14-22.58 28.47-44.35 44.93-66.21 12.51-16.62 21.31-33 39-43.74.29-1.28 2.35-.8 2.37-2.37z" fill="#0e5256"></path><path d="m582.87 1685.32c-7.6 19.47-18.33 36.74-27.19 56.75-32.52 3.72-56.49-11.29-74.49-26 3.16-9.18 8.5-17.86 13-27.2 5-10.31 10.59-21.74 17.73-28.37 9.21 9.46 26.1 20.22 43.75 22.46 8.83 1.11 18.26-1.34 27.2 2.36zm-70.94-9.46c-7 11.09-12.32 23.94-17.73 36.65 13.81 11.41 30.58 19.86 54.38 21.28 6.28-13.43 13.44-26 18.92-40.2-23.12-1.31-39.58-9.28-55.57-17.73z" fill="#0e5256"></path><path d="m475.28 1735c6.26 0 13.34-.73 15.37 3.55 0 6.07-6.7 9.94-10.64 13-12.43 9.66-26 20.23-39 30.74-23.58-12.28-43.75-28-55.57-52 14.14-10.11 32.13-21.4 44.93-31.92 6.9-5.68 14 10.9 16.55 14.19 6.97 8.99 19.32 16.06 28.36 22.44zm-78-2.36c9.4 17 26.39 26.42 41.38 37.83 12.42-7.68 23.84-16.36 33.11-27.19a168.81 168.81 0 0 1 -34.29-24.83c-1-3.72-2.19-7.27-5.91-8.28-14.05 4.83-22.74 15.1-34.32 22.44z" fill="#0e5256"></path><path d="m547.4 1796.45c-4.56 10.54-17.36 15-27.19 20.1-16.39 8.4-33.15 14.61-48.47 23.64-19.85-7.75-40.51-21-44.93-40.19 4.52-7.71 14.22-5.52 21.28-8.28 15.72-6.14 37.25-18.5 48.47-29.55 10.2-2 12.39 7.65 18.92 14.18 4.39 4.39 10.94 10.69 15.37 13 6.7 3.51 10.37.1 16.55 7.1zm-48.47-23.65c-15.45 14.11-36.67 22.44-57.93 30.74 5.2 13.72 17.77 20.07 30.74 26 17.27-11.1 39.59-17.15 56.74-28.37-8.72-10.58-20.69-17.91-29.55-28.37z" fill="#0e5256"></path><path d="m1892.81 1809.45c3 8.68-6.7 15-9.46 23.65-2.09 6.56-2.19 13.3-4.73 20.1-2.22 5.92-5.07 11-7.1 16.55-15.9-.65-28.75-4.35-46.1-3.55-4.11 1-4.11 6.14-7.1 8.28-12.12 7.58-26 13.4-36.65 22.46-4.41.11-3.37 1.33-7.09 0-3.59 1.46 1.28 4.06 0 7.09-12.79 12.44-16.95 33.5-28.37 47.29-18.67-5-44.6-2.7-62.67-8.27-1-7.43 6.29-10.72 9.46-15.37 4.79-7 7.82-14.73 13-21.28s10.5-12.18 15.37-18.92c-7.62-5.78-15.75-11-22.47-17.73-12.16 6-24.36 11.89-31.91 22.46 4.74 2.35 14.16 0 15.37 5.91-9.9 17.3-16.8 37.59-22.47 59.12-21.13-1-46.29 3.78-61.47 1.18-1-8.31 3.71-21.11 8.27-33.11 5.08-13.38 11.57-27.14 17.73-30.73 7-4.1 17.23-.21 31.93-1.19.2-4.53-5.61-9.15-9.46-13-4.23-4.22-9.11-8.34-13-11.82-6 7.36-9.8 17-15.37 24.82-16.11-1.69-41.41-7.3-59.11-8.27-4-.22-9.39 4.27-11.82-1.18 0-8.51 8.45-14.37 14.18-20.1 11.63-11.63 23.51-23.1 33.11-37.83 18.32 2.16 38.36 2.62 59.11 2.36 1 2.55 3.06 4 2.37 8.27 13.55-3 26.18-13.21 35.46-16.55 7.65 4.57 9 15.39 14.19 22.47 12.52-9.55 24.38-19.76 34.29-31.92 8.53 8 17.49 15.6 28.37 21.27-.32 4.91 1.55 4.61 0 8.28 8.92-1.93 13.07-12.1 21.28-11.82 8 .27 10.3 10.34 18.92 13 7.83-10.28 7.39-28.86 18.91-35.46 23.22-.49 46.08 3.46 65.03 3.54zm-60.3 5.92c-10.14 8.77-11.17 26.66-16.55 40.19 17.48.94 35.87 2.16 49.65 3.55 6-11.74 7.85-27.62 13-40.2-13.61-2.91-30.5-2.59-46.1-3.54zm-92.21 9.45c-10.09 8-19.57 16.69-27.2 27.19 2.07 1.09 2.61 3.7 2.37 7.1-1 3-4.87 3-7.1 4.73 3.13 9.79 26.21 21.56 24.83 0 8.27-8.29 19-14.13 29.56-20.1-3.23-10.57-15.06-12.53-22.46-18.92zm-53.21 7.09c-15.32 8.73-32.55 15.53-46.1 26a67.73 67.73 0 0 0 21.28 23.64c11.49-10.58 27.23-16.91 40.19-26-5.59-7.4-7.07-18.93-15.37-23.64zm-91 7.1c-7.89 14.57-21 24-30.74 36.65 15.42 3.1 32.45 4.59 48.47 7.09 3.53-8.54 11.16-14.34 10.64-23.64 7.48-4 10.65-12.21 14.19-20.1-13.13-4.76-30.33-2.7-42.59-.01zm192.71 0c-14.1 9.15-31.81 14.69-42.56 27.19 8.93 4 20.54 20.16 30.73 20.1 5 0 13.62-6.52 18.92-9.46 6.17-3.42 12.5-7.09 16.55-11.82-3.55-1.17-8.58-.87-9.46-4.73-.94-4.1 1.76-4.54 1.19-8.28-7.6-1.89-7.6-11.34-15.4-13.01zm-60.3 49.66c12.32 1.48 26.12 7.75 39 4.72-8.16-5.23-15-11.8-24.82-15.37-5.99 2.31-9.9 6.67-14.21 10.65zm-5.91 13c-8 8.44-20 24.43-23.65 34.28 13.46 1.52 27.44 2.51 41.39 3.55 10.19-7.93 13.49-22.76 18.91-35.47-12.24-2.03-30.79-8.59-36.68-2.36zm-95.76 0c-4.83 16.45-13.63 28.92-16.55 47.29 14.11-.08 27.79-.58 40.19-2.37 7.92-12.18 11.42-28.77 16.56-43.74-13.98.15-27.79.15-40.23-1.18z" fill="#0e5256"></path><path d="m1234.29 1868.57c2.66 2.13 2.78 6 1.18 9.45 13.26 8.42 29.17 14.19 41.38 23.65-5.69 13.68-19.64 24.58-33.1 34.28-4.85 3.5-8 7.69-11.83 8.28-9.36 1.44-23.15-5.12-31.92-9.45-9.35-4.64-19.15-10.43-22.46-18.93 19.09-14.4 38.92-28.07 53.2-47.28zm-7.09 17.73a157 157 0 0 1 -34.29 29.55c7.6 10.93 22.14 14.91 36.65 18.93 12.4-8.89 25.93-16.64 33.1-30.75-11.32-6.4-21.79-13.68-35.46-17.73z" fill="#0e5256"></path><path d="m1864.43 1893.39c-1.29 11.34-10 18.28-16.55 24.83-6.9 6.9-14 13.59-20.1 21.28-1.69 4.39.9 6.93-2.36 10.64-20.46-1.22-41-2.36-56.75-8.27 7-21.76 23.08-34.46 31.92-54.39 19.09 5.14 47.41 1.23 63.84 5.91zm-81.57 42.61c11.29 1.33 21.49 3.73 34.28 3.55 8.38-15.27 23-24.29 31.92-39a402 402 0 0 0 -42.56-2.36c-8.73 11.69-18.07 22.81-23.64 37.81z" fill="#0e5256"></path><path d="m1597.24 1907.58c1.51 5.84-3 5.69-5.91 7.1 1.09 9.75-5.71 11.62-7.1 18.91-14.76 8.8-36 21.4-55.56 23.65-12.55 1.43-14.1-2.59-22.46-8.28-4.28-2.91-9.87-4.86-13-7.09-7.51-5.35-17-11.87-18.91-20.1 8.41-6.8 19.42-2.24 29.55-3.55 15.53-2 31.71-11.86 37.84-23.64 9-.14 20.24 3.78 29.55 5.9 9.08 2.08 19.25 1.79 26 7.1zm-49.65-2.36c-13.73 11.1-27.81 21.85-52 22.46-1.25 5.13 6.27 7.62 10.64 10.64s10.31 8.73 15.37 9.46c6.78 1 19.78-3.91 30.74-8.28 15.13-6 29.56-11.73 29.55-27.19-11.35-2.46-20.74-6.87-34.3-7.09z" fill="#0e5256"></path><path d="m1522.76 1979.7c-3.82 16.34-16.9 25.51-26 37.83 1.83 1.72 1 6 1.18 9.46-12.11.8-25.6-3.28-39-5.91-13.16-2.59-27.48-2.22-37.83-8.28-1.07-8.8 7.32-16.26 13-22.46 7.08-7.74 15.67-13.64 21.28-22.46 5.22-1.78 10.75 2.26 16.55 3.54 16.56 3.67 36.27 3.09 50.82 8.28zm-62.66-3.55c-7.89 11-19.19 18.64-26 30.74 18 2.15 32.5 7.7 50.84 9.46 9.41-8.32 16.58-18.88 23.64-29.56-14.92-4.79-34.83-4.59-48.48-10.64z" fill="#0e5256"></path><path d="m1664.63 2011.62c-9 26.44-43.74 26.65-70.93 31.92-9.47-9.58-20.35-19.56-30.74-29.56-2.87-2.76-9.48-5.55-7.1-10.63 3.38-6.45 12.7-1.68 22.47-2.37 19.75-1.4 41.16-11.45 55.56-18.92 10.11 9.94 21.74 18.46 30.74 29.56zm-34.29-17.73c-14.84 9.58-36.39 12.47-55.56 17.73 6.64 7.54 14.1 14.27 21.28 21.28 21.24-3.59 45.1-4.55 56.75-17.74-4.41-10.16-13.22-15.94-22.47-21.27z" fill="#0e5256"></path><path d="m860.7 2053c-24.9-3.78-42.74-5.93-55.57-21.28a98 98 0 0 1 -11.82-18.92c14-14.36 39.18-17.57 55.57-29.55h3.54c5.91 7 9.64 16.1 18.92 21.27s29.45 8.89 29.55 16.56c.06 4.34-16.46 13.66-20.09 16.55-8.49 6.74-12.8 10.93-20.1 15.37zm4.73-40.2c-7.29-4.94-12.56-19.55-22.47-16.55-11.13 3.37-23.28 12.45-35.47 17.73 5.86 20.94 27 26.58 53.21 27.2 8.24-6 16.32-12 22.46-20.1-5.88-4.45-11.05-3.75-17.73-8.28z" fill="#0e5256"></path><path d="m1736.75 2009.25c5.42 8.42 2.74 22.57 3.55 35.47.64 10.3 3.16 19.57 4.72 27.2-16.32 7-43.65 3.62-68.57 4.72-5.86-15.91-3.84-45.65-2.36-65 23.04-4.02 41.85 2.57 62.66-2.39zm-55.57 11.83c2.82 12.94-.64 32.17 2.36 44.92 15.2 2.72 35.26.76 49.66-1.18q-2.51-21.14-3.55-43.74c-16.85-1.08-31.1-1.68-48.47 0z" fill="#0e5256"></path><path d="m676.27 2010.44c3.34 2.92 4.83 9.25 1.18 13 24.2 2.1 42.69-7.69 61.47-7.09 2.37 8.86-5.54 17.33-7.09 28.37-1.22 8.72 1.4 18.6-3.54 26-19.53-3-40.54-.34-57.94 2.36-4-4.64-1.8-15.52-2.36-23.64-6.68-1-8.08 11.05-8.28 17.74-15.46 2-40.81 5-55.56 0 .09-10.68 8.16-17.36 11.82-26s4.86-17.87 9.46-27.2c20.28.65 31.64-1.98 50.84-3.54zm-46.11 13q-2.29 21.94-13 35.47c12 3.14 18-1.24 31.92 0 5.54-12.6 14.47-21.79 17.74-36.65-10.66-2.6-23.14 2.74-36.66 1.18zm46.11 11.82c1.33 9.49 2 19.81 2.36 27.2 11.4-3.58 27.88-2.07 42.56-2.37 1.79-12.63 1.85-19.75 3.55-31.92-16.93 1.6-32.1 4.95-48.47 7.09z" fill="#0e5256"></path><path d="m1642.17 419.12c16.32-11 33.57-22.84 48.47-36.65 4.12-3.81 7.92-12.29 15.37-9.46 1.72 8.34-6.75 14.12-11.82 18.92-15.63 14.77-36.58 28.06-53.2 42.56 21.76-7.79 38.38-20.72 59.11-29.56 5.9-3.16 8.13-10 15.37-11.82 5 7-2.86 14.33-7.1 18.92a479.34 479.34 0 0 1 -80.37 69.75c-6 4.09-12.74 7.38-18.92 10.64s-13.92 5.55-17.73 11.82c11.79-.49 23.17-5.64 33.1-10.64 24.31-12.21 46.52-29.72 68.57-46.1 3.8-2.82 8.88-8.45 14.19-5.91 2.08 12.93-10.41 21.94-17.73 29.55-7.93 8.24-16.8 16.28-24.83 23.65-8.46 7.77-16.91 16.62-26 23.64-9.47 7.31-20.88 11.06-28.37 20.1a7.73 7.73 0 0 1 1.18 5.91c11.09-.09 20.76-7.33 29.56-13 17.3-11.16 35-22.89 50.83-36.65 7.43-6.45 14.24-16.76 24.83-16.55 1.48 10-9.73 13.71-15.37 20.09-.27 4.94 1.92 5.59 0 9.46-24.25 28.21-55.31 49.49-86.31 70.94 7 32.85 14.16 65.45 15.37 104 5.57-9.64 9.7-21.84 15.37-34.29 4.6-10.09 8.87-25.76 16.56-31.92 7-5.62 38.56-12.56 52-13 5.51-.18 11.41.49 15.37 3.55-6.24 10.13-16 17.2-23.64 26-22.41 25.93-43.65 54.1-59.11 88.67 10.64-3.94 8.84-20.32 23.64-20.1 8 8.88 2.74 21.45 2.36 33.1-1.62 50.08-2.1 114.24 14.19 151.33-2.95 5.71-11.54 5.8-14.19 11.82 0 63.37 16.86 122.68 30.74 180.89 13.62 57.11 26.13 113.93 40.2 170.25 21.14 84.62 34.21 174.55 47.29 268.37 5.66 40.61 8.63 76.16 10.64 121.77 1.61 36.49 1.65 73.8-4.73 113.49 46.94 5.1 92 4.69 146.6 10.64 15.09 1.65 26.63 3.41 42.56 5.92 12.24 1.92 34.14 5.74 36.65 10.64 3 5.76-3.39 12.4-2.36 17.73-12.92 9.94-26.16 19.56-35.47 33.11 9.55 1.85 20.31 4 30.74 5.9 10.67 1.93 22.1 1.08 29.56 7.1-4.37 10.22-16 13.12-21.29 22.46 13 .41 26.91-.1 35.47 4.73-.37 13-13.13 13.67-17.73 22.46 6.37 4.27 19.85 1.44 24.83 7.09-2.79 8.36-10.64 13.46-16.55 18.92-41.8 38.58-83.07 81.79-126.5 120.59-24.82 25.45-57.6 58.94-87.49 88.67-12.07 12-22.47 20.66-36.65 34.29-8.36 8-22 24.87-27.2 4.73-14.29-4.58-25.06-12.42-41.37-9.46-67.1-17.24-130.1-38.57-186.8-66.21-8.79.67-18.46-5.43-27.19-4.72-9.82.78-21 9.82-29.56 11.82-15 3.51-32.38 4.2-47.29 4.72-53.39 1.87-107-22.55-163.15-21.27-6.7-20.84-22-37.27-44.93-46.11-8.92-3.46-22.7-7.93-30.73-7.1-9.65 1-21.8 11.24-35.47 17.74-26.88 12.78-58.31 20.16-93.4 27.19-18.87 3.77-37.73 8.54-57.93 9.46-20.43.92-39.07 3.35-57.93 4.72-28.22 2.06-62.92-1-74.48-16.54-11-14.84.66-28.85 13-36.66 23.79-15 58-23.35 85.12-34.28-37.7-9.19-71-22.79-104-36.65-27.41 17.15-68.54 20.82-112.32 27.19-35.63 5.18-73.66 13.72-104 16.55-28.06 2.63-57.83 5.24-72.11-13-19.2 13.51-36.5 28.92-53.21 44.92-15.22-7.35-31.06-16.84-43.74-28.37-3.2-2.91-11.28-6.84-8.28-13 3.35-5.95 10.48-3.34 15.37-4.73 18.91-5.38 33.19-19.41 48.48-28.38 9 9.93 20.15 16.92 39 18.92 8.15-26.53 34.45-34.91 57.93-46.11-26-11.8-50-25.67-73.3-40.2-2.6 1.34-.08 7.8-3.55 8.28 6.8 14.49 24.18 18.39 33.11 30.74-7 8.78-35 13-49.66 18.91-6.32 2.55-12.51 6.06-16.55 5.91-11.09-.39-13.37-19.46-20.1-29.55-4-2-7.32 6.83-13 7.09-11.21-8.1-20.58-18-31.92-26-10.45 2.17-18.8 6.43-27.19 10.64-11.16-8.76-19.95-19.66-30.74-29.55-3.18-2.92-9.42-3.83-9.46-9.46 2.4-8.26 12.08-5.69 18.92-7.1a253.53 253.53 0 0 0 40.19-11.82c7.07-2.74 13.86-7 18.92-5.91 9.95 2.22 13.77 19.52 24.83 22.46 10.25 0 13.74-6.75 24.82-5.91 20.46-11.75 43.6-18.27 63.85-29.56a311.3 311.3 0 0 0 54.38-39c1.85-7.61 3.81-15.1 4.73-23.64-14.28 10.94-43.07 17.62-66.21 23.64-7.76-6-11.73-15.6-16.55-23.64s-12.74-16-13-27.19c19.27-2.41 34.07-9.28 49.65-15.37-2.19-10.89-1.83-28.33 2.37-36.66a267 267 0 0 0 61.47 10.65c6.11-9.69 7.57-21 10.64-31.93 6-21.27 14.45-41.76 22.46-62.66 3.86-10 6.6-21.1 10.65-30.74 6.43-15.32 16.42-29 24.82-42.55 8.71-14.07 17.43-27.79 28.38-39a99.34 99.34 0 0 1 -36.65-17.73c8.13-17.88 20.83-31.18 29.55-48.48 10.91 2.59 19.5 7.88 30.74 8.28 19.69.7 37.57-11.8 54.39-10.64 5.19 14.59-6.12 31.19-9.46 44.93 25.58 4.36 49.51 10.38 74.48 15.37 4.8-8.27 6.42-17.48 15.37-17.74 11.73-.34 23 21.62 31.92 26 9.4-22.68 22-43.55 30.74-68.57 3.53-10.06 7-20.76 10.64-30.74 5-13.71 12.76-25.76 13-41.38 19.16-34 23-83.41 40.2-119.4v-8.28c4.92-6.09 7.32-20.15 13-33.1 6.23-14.18 21.5-37.7 29.56-15.37 19.74-37 31.79-81.71 43.74-126.5-28.48 8.53-57.16 21.64-86.3 31.92-9.47 3.33-17.81 8.39-27.19 11.82-12.94 4.73-30.65 7.12-47.29 9.46-32 4.5-69.11 10.85-92.22-5.91.2-8.09 5-11.6 9.46-15.37 15-28.32 27.18-59.53 41.38-88.67 27.85 3.81 65.37-5.82 92.21-10.64 28.26-5.08 56.38-11.36 80.4-15.37 8.68-1.45 20.66 3.15 24.82-9.46-30.38-3.37-69.71 1.77-109.94 0a972.55 972.55 0 0 1 -144.24-17.73c-41.73-8.4-79.52-21.32-117-36.65-33-13.48-71.52-32.93-96.95-56.75-20.07-18.8-39.17-36.94-54.38-61.48-4.83-7.79-11.36-14.72-15.37-22.46-5.12-9.89-8.13-23.24-13-35.47-10.89-27.33-24.2-62.76-14.18-100.49 14.29.68 25.63 4.32 36.65 8.27-1.2-15.71-18.36-24.46-26-36.65-10.72-17.08 3.68-42.35 11.82-56.75 5.89-10.41 12.53-21.4 18.92-27.19 15.47-14 46.29-26.12 73.3-28.37 34.44-2.87 70.12 5.51 94.58 20.1 11.38 6.79 21.11 15.13 31.92 21.28 32.47 18.48 70.84 37 113.49 46.11 2.72-5.8-.78-8.27 0-15.37-6.18-1.31-12.22-2.76-15.37-7.1 1-21.88 11.74-34 18.92-49.65 9.34-.28 15.72 2.41 22.46 4.73 34.86-29.5 99.23-9.35 124.14 17.73 16-.59 27.85 2 43.74 2.37 10 .21 23.42 2.35 30.74 0 5.22-1.68 12.09-11.08 17.74-16.56 10.67-10.34 17.72-18.2 31.92-23.64 5.16-2 11.84-1.45 16.55-3.55 8.87-3.95 16.73-15.19 26-23.64 24.63-22.43 55.86-46.2 79.21-66.21-20.19-17.37-42.38-38.48-54.38-67.39-2.86-6.89-8.61-15.59-1.19-22.46 17.17 9.63 26.34 27.26 42.56 37.83-3-16.8-15.26-37.71-18.91-60.29-1-6.2-4.8-17.38 3.54-21.28 6.68-.37 5.51 7.1 7.1 11.82 17.33 24.83 29.14 55.19 54.38 72.12a359.58 359.58 0 0 1 -29.55-65c-3.89-11.57-11-25.34-5.91-37.83 8.76.27 6.93 11.41 8.27 16.55a170 170 0 0 0 5.91 17.74c6.57 16.8 12.56 33.24 22.47 46.1-6.09-18.87-14.45-40.75-17.74-61.47-.94-5.95-5.91-16.86 4.73-17.74 5.48 3.58 4.62 13.51 5.91 21.28.69 3.65 4.28 4.4 7.1 5.91 11.71 30.46 30.79 53.55 55.56 70.94 1.6-8.41-6.13-16.51-9.46-24.83-2.43-6.09-4.47-13.14-7.09-20.1-5.84-15.47-12.79-32.17-17.74-52-1-3.84-3.73-11.72-3.54-17.74.11-3.6-2.1-14 7.09-10.64 4 3.37 2.38 11.27 3.55 17.73 2.73 15.15 9.15 32.67 15.37 47.3 6.38 15 10.81 30.68 18.92 44.92 1.79 3.16 2.79 12 9.45 8.28 0-8.25-5.63-15.81-9.45-24.83a307.74 307.74 0 0 1 -17.74-55.57c-1.84-8.6-7.45-21.91 1.18-28.37 6.91 5.36 6.41 15.75 8.28 23.64 5.73 24.14 13.3 48.8 23.65 68.57 2-29.21-11-60.76-4.73-91 12.79 2.1 7.8 20.07 8.27 29.56 1.25 25.11 12 52.87 8.27 73.3 6.36 2.46 8.47-.74 16.56 0-6.3-10-8.85-27.75-11.83-43.75a233.46 233.46 0 0 1 -3.54-24.82c-.38-5.35-4.06-16.75 5.91-16.55 5.44 2.3 2.47 12.16 3.55 20.09.88 6.53 3.41 13.32 4.72 20.1 2.79 14.33 3.49 30.59 10.65 40.2 5-8.41-.75-27.55 7.09-33.1 13.65-.17-.17 29.69 7.09 37.83a154.63 154.63 0 0 1 50.84 20.1c42.84-18.86 76.77-49.24 108.77-80.4 4-3.86 7.14-9.93 13-10.64 8.7 5.5-.78 14.71-3.54 20.1-3.8 7.41-7.67 14.56-9.46 21.28-13.48 17.26-26.32 35.17-41.38 50.84 31.82-20 57.77-46.6 81.58-75.67 3-3.61 6.34-9.89 11.82-10.64 4.91 10.27-5.7 19.1-13 27.2s-15.86 17-22.46 23.64c1.5 2.83 4.32 4.35 3.55 9.46-23 31-49.8 58.19-79.21 82.76a243.94 243.94 0 0 0 55.56-34.29 382.62 382.62 0 0 0 44.92-43.74c3.13-3.61 5-8.95 8.28-13 2.46-3.06 6-9.21 11.82-7.09 2.43 15.89-16.91 27.13-26 39 .06 3.88 3.35 4.52 2.36 9.46-11.69 16.76-23.71 33.11-37.97 47.23zm-34.29 151.33c18.77-10.22 35-24.18 50.84-36.65 1.24-.06.93-1.52-1.18-1.18-13.73 9.14-33.42 21.67-50.84 27.19-6.09 1.93-16 5.89-20.1-2.37 2.14-6.13 13.87-2.68 15.37-9.45-3.39-14.4-25.71 10.81-29.56-7.1 27.55-9.75 55.15-24.83 73.3-42.56 2.18-2.12 7-4.23 5.92-8.27-14.59 8.15-58.17 34.68-76.85 24.83-9.6-5.07-9.8-8.53-7.09-17.74 38.25-9.45 69.81-32.13 94.58-54.38 3-2.68 8.53-5.59 8.27-10.64-25.26 13.35-54.64 26.81-80.39 39-7.54 3.57-18.49 13.52-27.19 5.91 4.24-9.16 17.21-9.58 23.64-16.55-9-.29-11.95 5.39-20.1 5.91-1.89-4-5.5-6.32-5.91-11.82 42.72-12.84 72.81-38.32 97-69.75-30.55 19.5-51 49.09-98.13 52-2.21-3.3-5.27-5.76-5.91-10.63 33.71-18.71 64.55-46.58 83.94-75.67-17.8 16.23-46 33.56-68.57 46.11-8.92 5-17.39 11.31-24.83 14.19-7 2.68-14.94 6.4-17.73-2.37 3.21-5.1 9.42-7.64 14.18-10.64 5.31-3.34 9.22-6.79 14.19-10.64 9.59-7.44 20.36-13.45 29.55-21.28 8.83-7.51 16.23-17.37 23.65-26 7.66-8.92 17.71-16.92 20.1-28.37-22.35 20-51.51 41.63-80.39 56.74-10.24 5.36-21.56 12.48-30.74 15.37-4.44 1.4-16.93 6.44-17.73-3.54 6.21-4.82 18-4 22.46-10.64-12.72-8.19-21.64-12.47-39-14.19-41-4-62.8 4.74-89.85 18.92-33.51 17.56-65.2 40.33-92.21 62.65-11 9.12-22.6 17.47-31.92 26-2.91 2.66-7.53 6.4-7.1 10.63 23.06 2.83 51.8 1.45 69.76-4.72 7.69-10 12.16-24.21 18.91-33.11 2.75-3.62 4.31-9.13 10.64-7.09 1.57 10.1-7.31 18.38-11.82 27.19-4.72 9.23-9.75 19-14.19 28.38-6.74 14.32-12 30.42-20.1 42.56-2 3-5.73 10.15-10.64 8.27-2.08-9 7.57-15.93 8.28-26-15.5 1.46-28.39 5.5-44.93 5.92 6.67 11.28 5.12 28.5 3.55 40.19 7.5-5.88 14.23-22.52 24.83-17.73 0 8.78-8.63 14.59-14.19 21.28-11.64 14-22.79 28.21-33.1 42.56-4.71 6.55-9.16 17.77-18.92 16.55-.42-7.51 4.56-9.63 5.91-15.37-10.8 4.17-18.42 11.53-33.1 11.82 2 10.29 10.25 24.36 8.27 42.56 17.53-6.51 36.69-11.38 60.3-11.82-2.08-52 35-108.9 91-99.31-3.34-9.33-23.58-25-8.27-34.28 9.54 14.79 17.93 27.67 28.37 41.38a150.27 150.27 0 0 0 37.83 35.46c4.78 3.15 13.25 5.43 14.19 13-22.49 4.7-29.69-16-44.93-22.46 8.52 39.53-7.25 78.37-34.28 93.39 4.63 9.17 13.08 14.51 16.55 24.83 6.41-2 19.18-2.48 21.28 3.55-.39 18.07 1.06 42.55 4.73 60.29 48.48-37.7 86.14-103.08 125.32-157.24a293.93 293.93 0 0 1 21.28-26c6.81-7.36 19.52-19.82 28.37-18.91 12.51 1.28 14.28 19.18 13 34.28-.8 9.44-3.74 23.7-5.91 35.47-2.26 12.23-3.8 28.34-14.19 27.19-6.1-7.09-2.25-19.08-1.18-29.55 1.12-11 3.59-22.29 1.18-31.92-15.36 12.29-23.61 32.86-35.46 52-15.9 25.68-35 54.35-53.21 78-6.24 8.13-13.63 15.59-20.1 23.65-14.08 17.55-26.59 35.49-41.37 47.29-5.45 4.34-13 9.92-21.29 9.46s-8.08-4-11.82-10.64c-4.33-7.65-8.64-16.71-10.64-24.83-21 20.65-61.73 32.77-105.22 23.64-9.81-2.05-32.26-12-37.83-16.55-19.76-16.3-35.57-41.66-43.75-65-6.65-2.41-14.63-3.5-17.73-9.46 1.71-15.2 4.25-32.27 1.18-46.11-3.7-16.74-20.84-32-35.47-33.1-11.34-.85-23.11 6.23-35.46 7.09-5.61.39-10.43-.89-16.55-1.18-45.87-2.13-82.18-8.26-120.59-17.73a904.66 904.66 0 0 1 -92.22-28.38 400.13 400.13 0 0 1 -80.39-40.19c-25.87-16.64-52.36-29.91-87.49-30.74-62.51-1.49-108.51 33.23-114.68 92.21 16.38 8.25 35.16 18.61 49.66 33.11a214.2 214.2 0 0 1 18.91 22.46c5 6.72 16.52 18.67 5.91 27.19-29.22-8.6-50.35-25.27-82.74-30.7-4.67 32 6.14 63.85 15.37 86.31 12.88 31.36 27.32 61.61 48.47 82.76 12.56 12.56 24.27 25.78 37.83 36.64 13.78 11.05 30.45 19 47.29 28.38 65.36 36.41 144.04 57.34 231.68 68.57 78.62 10 163.73 3.66 247.09 0 26.61-1.17 47.55-2.92 70.94-4.73 17.14-1.33 34.61-1.16 50.84-3.55 15-2.2 28.75-11.34 42.56-20.09 12.8-8.12 26-17.11 37.83-24.83 13.39-8.78 27.2-15.32 39-23.65 61.26-43.18 121.07-94.29 177.33-136-4.32-56.19-3.62-110.48-17.73-159.6-4.49-2.75-14.36 3.3-15.37-4.73 4.57-5.51 11.87-7.41 17.75-10.6zm-262.46-179.7c4.78-3.11 8.57-7.19 14.19-9.46-3.32-6.27-10.26-8.52-15.37-13-17.09-15-29.6-33.93-42.56-53.2 9.56 30.23 22.57 57.02 43.74 75.66zm35.47-23.65c6.39-.7 9.59-4.59 14.19-7.09-11.25-12-23.7-22.81-34.29-35.47 4.1 16.79 13.14 28.64 20.1 42.56zm-63.84 26c4.23 3.47 10.35 10.4 16.55 5.91 1.51-6.62-6.41-9.61-10.64-13-14.79-11.85-29.43-24.57-42.56-36.65 7.5 17.19 23.04 32.64 36.65 43.75zm-66.21 86.31c-.28-.18-.88.14-1.18 0-5.7 8.88-17.67 11.49-21.28 22.46 21.53 4.86 55.22 3.46 76.84-2.36 8.38-2.26 18.69-7.61 18.92-16.56-24.93.89-55.14 7.95-73.3-3.53zm-49.65 88.67c-10.58-1.8-22.66-13.05-23.65-24.83-.64-7.65 4.15-11.08 2.37-17.74-17.12 14.85-34.5 32.9-30.74 65 9.79 2 16.29 2 24.83 4.73 6.84 2.17 13.18 8.61 20.09 9.46 18.33 2.24 46.52-18.86 54.39-29.56 11.44-15.56 20.45-50.1 3.54-59.11h-2.36c7.91 29.08-21.12 56.7-48.47 52.06zm-115.86 34.28c1-53.16-51.15-90.81-104-83.94-17.65 2.29-31 16.41-39 29.56-7.24 11.88-12.22 26.74-7.09 44.92 42.8 14.8 86 22.57 140.69 26 1.52-7.07 6.28-10.97 9.4-16.53zm4.73-41.38c-1.33.25-1.85 1.31-2.37 2.37a84.19 84.19 0 0 1 9.46 34.28c5.83.71 7.17-3.07 13-2.36 10-11.29 24-18.57 29.56-34.29zm277.82 20.1c-8.44 12.84-15.52 33.27-35.46 35.47-18.18 2-32.22-6.32-39-21.28-6.26 13.08-16.52 34.21-8.27 50.83 22 .39 44.19 8.91 61.47 17.74 29.43-12.2 43.94-64.14 24.83-97-1.51-.06-1.64-1.51-3.55-1.18zm-237.63 9.46c2.1 2.21 3-1 7.09 0v-5.91c-3.91.42-5.12 3.55-7.09 5.92zm68.57 66.2c6.78-56.25-51.85-62.93-87.49-48.47 47.18.52 69.41 26 69.76 73.3 4.44-9.74 10.7-17.66 17.73-24.82zm470.54-31.92c-8.92 13.73-15.75 29.9-22.46 46.11-6.59 15.92-14.26 33.84-13 53.2 19.1-42.38 46.21-76.74 74.48-109.95-17.66-1.09-24.98 8.14-39.02 10.65zm-451.62 41.38c-10.09 5.82-21.26 19.39-22.46 31.92-1.7 17.68 8.38 32.21 17.73 44.93 6.57 8.94 16.54 21.51 23.64 26 3.39 2.14 9.61 3.37 15.37 5.91 12.92 5.68 21.11 8.37 36.65 9.46 37.23 2.62 75.47-12.82 80.4-35.47 1.27-5.84-.73-12.58-1.19-18.92-1.49-20.58-3.61-26.93-13-39-4.86-6.25-10.32-13.91-15.37-17.73-19.62-14.87-58-18.27-85.12-15.37-14.39 1.54-27.2 2.84-36.65 8.28zm443.34 57.93c-2 .12-2.62 2.62-3.54 3.55-22.14 22.41-49 42.47-75.67 61.48-13.42 9.56-25.09 19.89-37.83 30.74s-27.22 19.58-40.2 29.55c-25.95 19.95-51.82 40.22-79.21 57.93-14 9.06-28.62 17.29-42.56 26-14.53 9.09-27.87 19.55-43.74 26-.92 7.22 1.54 11.06 1.18 17.74 60.58 8.77 102.21 36.5 153.69 54.38 40.08-42.4 87.66-78.63 133.6-113.5 15.71-11.92 32.18-22.9 46.1-36.65-13.9-44.69-9.24-113.8-11.82-157.21zm-237.63 29.57c-10.38 10.38-30.13 19.35-18.92 34.29 18.29-12.07 30.58-30.12 43.75-47.29-3.31-1.43-1-8.5-3.55-10.65a309.43 309.43 0 0 1 -21.28 23.65zm368.86 876.05c-1.33-24.1-.22-45-3.54-66.21-.79-5-3-9.25-3.55-14.18-.58-5.17.41-10.28 0-15.37-2.25-28-10.18-56.88-14.18-85.13-5-34.87-8.5-69.18-14.2-101.67-.61-3.5-2.78-7.09-3.54-10.64-1-4.9-.23-9.61-1.18-14.19-1-4.84-3.86-9.32-4.73-14.18-.55-3 .56-6.4 0-9.46-2.34-12.67-8.23-24.42-10.64-36.65-.61-3.07.47-6.48 0-9.46-2.09-13.28-8.56-26.7-11.82-40.2-3.48-14.34-5.73-28.71-9.46-42.56-15.16-56.24-26.6-112.85-40.2-170.24-7-29.61-12.24-60.44-13-92.22-1.19 0-1.41-.95-2.37-1.18-21.87 14.8-42.83 32.1-62.66 47.29-6.69 5.13-14.33 9.14-21.28 14.19-6.25 4.55-11.74 11.18-17.73 16.55-18.66 16.74-40.4 31-53.2 52 8.64 4.41 16.65 6.44 29.55 9.46 8.26 1.93 26.35 3.75 28.38 10.64 1.85 6.3-10.42 22.08-14.19 28.37-12.41 20.71-20.31 38.83-29.56 57.93-5.35 11.07-6.07 22.44-13 30.74-33.63-15.23-53.93-43.81-87.49-59.11-9.28 32.88-15.46 68.88-22.46 104 10.37-3.78 17-15.43 26-23.65 4.45-4 9.91-7.55 14.18-11.82 4.62-4.61 8.26-12.54 16.56-10.64-.29 15.15-14.36 22-22.46 29.56-18.7 17.36-34.08 31.85-53.21 50.83-3.94 3.91-7.07 9.83-11.82 14.19-5 4.61-12.26 8.35-14.19 13-2.45 5.9-2.07 16.65-3.55 26-4.19 26.63-10 56.57-11.82 80.4-1 13.91-.55 29.87-1.18 43.74-2.08 45.78-10.45 89.5-10.64 127.68 0 6.32 3.55 15.21-2.36 20.1-13.22-5.73-6.47-20.63-5.91-30.74.41-7.58-.58-15.74 0-23.64.61-8.43 3.75-17.22 4.72-26 6.51-58.82 2.25-113.85 13-167.88-19 12.27-35.55 31.54-53.2 48.47-18 17.28-38.53 32.51-53.2 52 6.58 3.91 10.47 10.32 14.18 16.55 13.11 22 21.13 48.79 31.93 74.49s21.26 52.33 28.37 79.2c31.46 9.52 55.52 26.46 82.76 40.2 17.7-9.09 33.3-20.29 44.92-35.47-6-1.84-5.5-5-7.09-9.46-4-11.34-5.06-25.78-7.09-39-10.53-68.39-23.79-133.94-36.66-196.25-4-19.57-8.48-38.16-10.64-59.12-.53-5.21-5-15.23 3.55-17.73 7.63 25.33 11.3 51.67 16.55 78 15.49 77.76 30.86 158.58 46.11 237.63 12.54-8 23-21.1 31.92-33.1a435 435 0 0 0 26-39c44.34-75.27 79.72-162.64 111.13-248.27 2.79-7.61 4.75-18.29 11.82-21.28 7.45 7.48.3 19.19-2.36 26-10.8 27.73-22 54.76-33.1 82.76-29.2 73.92-60.76 143.5-105.22 204.53-17.45 23.95-40.39 51.16-66.21 68.57-1.36.92-12 5.76-11.82 8.28.13 2.29 11.88 7.47 17.73 10.64 19.94 10.78 39.93 20.94 55.57 29.55 19.4 10.68 37.15 20.23 55.56 29.56 5.86 3 15.2 4.86 16.56 13-10 2.16-20-4-28.38-8.27-26.88-13.72-51.13-28.32-76.85-41.38-26.2-13.31-51.74-27.47-75.66-41.38-8.36-4.86-16.42-11.58-24.83-15.37-5.41-2.44-12.85-3.47-18.91-5.91-10.89-4.38-16.42-8.49-28.38-5.91-31.35 6.75-58.23 26.88-86.3 41.38-14 7.21-28.7 14.64-42.56 21.27-18.56 8.9-34.31 21.7-55.57 24.83-2 8.87-8.22 19.48-5.91 30.74 1.52 7.43 8.38 12.39 11.82 18.92 3.73 7 7 16.31 7.1 23.64.14 12.74-8.23 31.17-18.92 31.93-3.43.24-8.31-2.83-11.82-4.73-2.2-1.19-6.16-8.31-8.28-3.55 4.72 15.36 6.67 39.8-8.27 41.38-18.78 2-23-24.17-30.74-37.83-5.51.55-7.89 1.59-13 0 .36 17.68 11.3 46.36-7.09 49.65-14.34 2.57-22.61-13.44-28.38-27.19-3.63-8.68-4.11-19.91-9.45-24.83-16.26 8-12.2 44.86-30.74 48.48-14.41 2.8-25.8-10.69-27.19-20.1-2.08-14 6.23-27.79 10.64-41.38 4.7-14.54 8.86-27.88 10.64-39-6.51 10.53-9.75 22.85-21.28 26-17 4.67-24-11.69-22.47-28.37 1.28-13.6 8.13-32.28 14.19-47.29 7.3-18.08 17.63-33.77 17.74-42.56-14.51 9.73-53.93 13.83-53.21-7.1.37-10.5 21.18-21.31 27.19-29.55 13.44-18.42 14.18-43.18 24.83-55.57-14.92-9.12-20.94-27.13-22.46-49.66-23.44-5.71-50.61-13.13-74.48-16.55-16.52-2.36-29.39 4.3-41.38 10.65-4.42 2.33-10.14 4-13 5.9-15.35 10.11-21.63 23.56-30.73 37.84-11.93 18.7-24.08 36.73-31.93 57.93-10.58 28.61-21.42 58.55-30.74 89.85-9.19 30.92-17.89 63-26 94.58-6.38 24.78-11.76 48.87-17.74 72.12-1.55 6-1.38 19.61-11.82 18.91-.13-17.13 7.31-36.78 10.64-54.38-15.11 6.62-27.23 17.76-41.38 26-14.5 8.46-30.53 14.44-46.11 22.46 34.37 19.23 64.16 43 105.22 55.57 34.4-14.08 72.14-24.81 101.68-43.74-16.74-9.6-34.29 8.88-43.75 3.54-.45-8.39 7.1-10.77 13-13 6.34-2.4 15.15-4 21.28-3.55 37.33 2.61 52.78 25.63 74.48 44.92 13.39 11.91 29.19 24.19 48.47 33.11 72.39 33.47 171.38 52.1 268.38 60.29 27.12 2.3 51.77 2.5 73.29 8.28 32.74 8.78 56.27 21.45 66.21 50.83 75.42 1.23 145.57 37.22 209.26 11.83-35.19-5.36-79.57-6-117-8.28-7.55-.45-16 2.56-21.28-4.72-1.59-8.69 2.91-11.28 3.55-17.74-4.78-1.14-10.25-1.58-13-4.73 4.07-10.59-5.15-8.19-5.91-16.55 1.83-7.46 8.66-12.83 13-18.92 2.37-3.31 3.72-7.67 5.92-10.63 2-2.78 8-4 5.9-8.28a417.31 417.31 0 0 1 -50.83 36.65c-8.17-4.34-18.84-11.4-31.92-18.92-6.36-3.65-30.57-13.64-30.74-21.28-.3-12.63 23.58-11.69 27.19-23.64-4.82-4.25-12.82-5.31-13-14.19 27.2-8.26 51.53-19.4 70.93-35.47 7.83 5.89 14.08 14.46 22.47 20.1 5.92 4 16.13 4.34 17.73 13-7.39 9.17-20.37 12.74-26 23.65 8.21 3.22 20.29 2.56 21.28 13a313.94 313.94 0 0 0 41.38-43.75c-16.17-18.43-27.24-41.92-39-65s-23.49-47.39-33.1-72.12c-14.06-36.21-32.88-74.29-41.38-114.68-2.8-13.3-8.68-27.58-4.73-41.38 7.55 1.66 7.93 9.86 9.46 15.37 6.24 22.45 9.69 41.29 16.55 61.48a1007.35 1007.35 0 0 0 61.48 144.23c11.87 22.69 21.26 46.54 36.65 66.21 31.22-27.7 61.84-58.82 97-87.49 23.49-19.19 54.49-39.29 80.39-57.93 14.59-10.5 27.1-18.69 46.11-20.1-5-8-14.61-11.39-16.56-22.46 6.52-8.36 17.45-13 27.2-17.73 10.31-5 20.57-10.72 30.74-15.37 8.36 11.78 21.45 19.75 40.19 21.28 10.29.84 22-4.35 29.56 1.18.54 9.21-8.34 9-9.46 16.55 17.83.75 26.79-1.36 42.56-1.18 10.16-43.17 9.28-83.78 6.98-125.24zm-524.92-665.61c-7.48.51-20.67-.51-21.28 8.28 21.72 4.1 56.13-10.4 69.76 5.91 3.88-1.24 9.67-.57 13-2.37-.43-4.68 1.09-11.33-1.18-14.18-16.47-.19-40.34 1-60.3 2.36zm-123 7.09c1.56 3.67-3.51 6.56 0 8.28 12.93-2.69 33-1.48 48.47-2.36 6.68-.39 15.89 2.18 15.37-7.1-14.69-.98-43.31.49-63.79 1.18zm73.3 7.1c8.51-.56 19 .84 17.73-9.46h-17.73zm63.84 3.54c4.14 14.15 5.58 36.78 7.09 49.66 25.17-1.79 25.53-30.83 15.37-49.66a51 51 0 0 0 -22.41 0zm-29.53 2.37c.84 3.5 3.52 5.15 2.37 10.64-8.45 10.84-7.46 37.77-18.92 42.56 13.5.89 23.79-1.44 36.65-1.18-1.18-7.19-7.57-7.28-9.46-13-.75-2.27-.14-9.09 0-13 .29-7.61 2.22-17.19 1.19-27.19-5.02-.71-7.83.84-11.83 1.17zm-26 3.55c-6.66 15-18.27 25.07-20.09 44.92 4 4.39 15.2 8.1 22.46 3.55-21.18-10.88 12.2-36.87 9.46-50.84-2.89 1.84-7.69 1.77-11.83 2.37zm-283.74 33.1c-14.93 28.41-27.43 59.27-42.56 87.49 19.83 8.56 42.94 5.45 66.21 2.36 65.32-8.68 114.61-36 166.69-55.57 16.82-6.3 34.14-11.9 49.66-17.73 4.65-1.74 11.48-3.66 14.19-8.27-85.57 6.86-155 39-231.72 54.38-7.9 1.58-28.77 10.34-30.74-3.55 7.89-4.66 17.52-3.16 26-4.73 20-3.68 39.57-10.28 59.11-15.37 49.62-12.91 97.92-29.56 150.14-37.83 11.11-1.76 23.46-1.33 30.74-7.09-4.15-12.68-20.73-10.23-30.74-9.46-28.51 2.2-58.58 11.52-89.85 17.73-7.8 1.56-15.74 1.67-23.64 3.55-7.19 1.71-14 4.41-21.28 5.91-16.35 3.41-32.31 4.47-47.29 7.1-8 1.4-22.26 10-28.38 1.18 5.07-7 18.29-6.69 27.2-8.28 29.12-5.2 56.79-11.13 87.48-17.73 18.2-3.92 39-7.82 59.11-11.83 26-5.18 55.12-11.52 73.31-1.18q3.54-7.1 7.09-14.18c-101.36-4.68-177.62 25.6-270.72 33.1zm377.15-31.89c-1.7 7.52 7.68 6.35 10.64 7.09 5 1.26 11 1.35 15.37 2.37 9.27 2.17 18.1 6.73 27.19 9.46a634 634 0 0 1 126.51 53.2c6.15 3.45 19.56 7.67 16.54 17.73-6.73-.23-13-4-18.91-7.09-19.65-10.28-38.19-20.73-59.11-29.56-35.91-15.15-74.1-33.47-117.05-36.65 3.26 10.8 14.57 8.84 22.46 11.82 6.41 2.42 12 6.56 18.92 9.46 6.66 2.81 14.28 5.33 21.28 8.28 34.51 14.49 66.48 32.89 95.77 50.83 4.55 2.8 15.93 6.84 11.82 15.37-7.22.51-14.2-4.84-20.1-8.27-6.73-3.92-13.4-8-20.1-11.82-40.09-23-83.23-45.16-131.23-60.3-1.24 5.07-5 7.59-5.91 13 36.25 15.3 66.39 38.11 97 59.12 7.78 5.35 15.85 10 23.64 15.37 7.63 5.21 13.9 12.24 21.28 17.73s15 10.61 22.46 16.55c7.29 5.81 15 13.37 24.83 15.37 11.06-25.53 21.94-50.66 34.29-73.3 4.26-7.81 9.43-15.89 11.82-24.83-77.48-12.8-144.06-73.04-229.41-70.93zm-24.83 54.38c-12.31 4.07-29.33 2.05-42.56 4.73-.32 63 7.1 118.22 17.74 170.25 20.65-54.22 41.44-108.31 59.11-165.52-10.75-7.14-23.68-12.99-34.29-9.49zm-99.3-1.18c-15.37 7.49-34.63 11.09-48.48 20.1 18.11 23.12 38.1 49.82 56.75 70.93 2.31 2.62 5.13 8 9.46 7.1 3.45-33.59 15.52-58.56 20.1-91a120.9 120.9 0 0 1 -37.83-7.16zm159.6 106.4c9.86-5.43 19.39-12.26 28.37-18.91s19.6-13.29 24.83-23.65c-15.62-15.11-35.56-25.92-54.38-37.83.02 27.14 1.99 52.36 1.18 80.36zm-216.35-47.29c-9.41 28.79-17.69 54.79-28.38 81.58-4.29 10.76-11.66 25-11.82 31.92-.2 8.66 6.11 20.09 8.28 30.74 7.2 35.38 11.86 66.77 20.09 99.31 11-82 28.81-157.2 47.3-231.72a333.36 333.36 0 0 0 -28.38-33.11c-2.98 6.97-4.38 12.97-7.09 21.25zm-68.53 119.38c-3.1 8.06-8.15 19.22-8.28 24.83-.17 7.08 5.58 17.27 8.28 27.19 13 47.92 20.24 99.3 29.55 147.78 3.82 19.9 3.18 44.27 20.1 52 1.66-19.9 1.37-40.83 2.37-60.29.43-8.45 3-17.07 2.36-24.83-.63-7.21-3.21-15.7-4.73-23.65-11-57.83-22-112.13-35.47-166.69-.26-.92-1-1.38-2.36-1.19-3.82 7.71-7.82 14.39-11.82 24.85zm-39 124.14c-2.42 7.84-7.76 20.66-7.09 26 .81 6.52 11.94 19.49 16.55 24.82 15.57 18 37.64 36.81 54.38 53.2-10.76-62.53-21.61-125-37.83-182.06-.07-.72-.17-1.4-1.18-1.19-9.12 21.46-16.96 53.61-24.89 79.23zm158.42 92.22c-11.45 8-22.09 14.31-33.1 21.27-11.58 7.33-27.08 7.28-26 23.65 8.57 0 15.5-6.3 22.46-10.64 21.93-13.67 43.15-28.59 61.48-44.93a3.26 3.26 0 0 0 -2.36-3.55c-11.05 2.15-14.46 8.58-22.54 14.2zm-355.85 15.36c-18.57 4.91-48.72 12.43-70.94 2.37-6.32 11.41-14.9 20.56-20.1 33.1 7.48 9.86 24.31 10.37 40.2 11.82 12-6.55 23.22-13.82 40.19-15.37q8.46-12.76 10.59-31.92zm263.64 48.48c-7.89 5.4-17.5 10-20.1 16.55 13.3-10.74 31.88-16.2 42.56-29.56-7.91-.42-15.24 8.01-22.52 13.01zm-44.93 22.46c-3.22-2.33-10.18-2.86-16.55-7.1-10.89-7.25-22.38-28.46-30.74-24.82-11.42 5-28.21 16.47-35.46 28.37 11.33 13.89 26.53 23.91 49.65 26 4.41-2.29 5.87-7.53 9.46-10.64 1.39-5.7-.54-14.72 5.91-15.37 7.21 3.38 5 18.2 1.18 23.65 8.28.79 13.44-1.54 20.1-2.37-.41-5.53 2.55-7.69 3.55-11.82-4.32 2.45-4.67-4.1-7.16-5.9zm-132.41-13c-1.1 22.36 7.41 33.12 18.92 42.56 15.74 12.93 39.88 23.77 60.29 27.2 3-2.53 11.13-6.33 13 0 .49 8-5.64 9.32-11.82 10.63-28.79 24.68-51.62 57.54-68.57 95.77-9.42 21.25-23.7 50.27-17.73 74.48 9.23 2.15 12.71-6.73 16.55-13 11.86-19.41 21-40.14 33.1-59.11 11.25-17.66 25.88-35.22 40.2-50.83 3.81-4.16 12.73-15.27 17.73-3.55-4.24 4.8-9.55 11.35-15.37 17.73-5.52 6.07-15 11.76-15.37 18.92-.52 10.52 16.22 24.66 20.1 30.74 7.67-12.83 13.13-27.86 27.2-34.29 1.12 2.43 1.46 5.63 4.72 5.92-10 10.9-19.1 22.66-24.82 37.83 11.36 5.58 20.85 13 34.28 16.55 5-10.75-1.56-33.09 8.28-39 9.66 3.91 3.56 22.42 3.54 34.29 0 5.38 3.76 9.06 0 11.82 14.89 3.78 35.07 32.53 9.46 39 5.62 9 15.5 13.67 24.83 18.92 22.62-25-9.87-44.64-11.82-62.66-1.5-13.88 7.33-28.46 8.27-43.74.4-6.4-3.41-11.79 2.37-17.73h5.91c3.32 1 2.28 6.39 2.36 10.63 10-4.34 17.8-12.58 24.83-20.09s13.84-16.68 17.73-27.19c-37.08-20.46-64-51-88.66-83.94-63 29.82-101.6-26.27-133.6-52-.07-.72-.18-1.4-1.18-1.19a33.84 33.84 0 0 0 -4.79 15.32zm145.36 10.65c2.73 3.38 10.82-1.89 8.27-3.55-1.45 2.47-7.12.75-8.27 3.55zm-124.14 47.28c-6.38 6.54-9.21 17.11-13 27.19-6.08 16.18-13.75 28-23.64 37.84-4.32 4.3-12.45 7.82-11.82 16.55 8.15 5.82 13.43 2.26 23.64-1.18 11.79-4 16.83-6.15 24.83-11.83 3.66-2.59 8.46-5.73 9.46-7.09 4.5-6.15 2.89-13.9 4.73-21.28 2.75-11.07 9-17.53 13-26-8.9-4.92-19.29-8.35-27.2-14.21zm27.19 37.83c6.86-4.56 13.6-9.25 16.55-17.73-3.35-.19-4.92-2.17-8.27-2.36-.06 9.38-8.41 10.5-8.28 20.08zm189.16 31.89c-7.75 16.67-21.17 27.69-31.92 41.37 21-9.3 42.77-17.92 60.3-30.73-8.7-4.29-18.6-7.39-28.38-10.64zm-153.69 74.48c-7.94-8.87-10.91-19.51-18.92-29.56-1.18 0-1.4-1-2.36-1.18-11.43 9.85-17.71 24.85-23.65 40.2 15.36 14.58 36.91 28.82 61.48 36.65 20.39 6.49 42.78 13.4 55.57 1.18-16.57-24.12-52.81-25.71-72.12-47.26zm-387.75 46.14c10.47 4.33 28.64 6.51 42.56 3.55 2.11-13.26 7.4-23.35 9.46-36.66-18.29-1.81-35.54-4.65-53.2-7.09.39 13.37-1.06 32.24 1.18 40.2zm1062.85-29.56c-12.55 8.73-28.43 14.14-41.38 22.46 3.35 12.81 18.48 13.84 26 22.46 13.33 2.44 25.34 6.19 39 8.28 9.28-11.61 19.65-22.12 29.56-33.1-23.2-1.25-40.81-8.06-53.21-20.1zm-717.66 10.64c-7.14 9.82-9.23 24.35-15.37 43.74-7.81 24.65-23.35 46.8 2.36 52 9-11.18 12.63-26 17.74-40.19 5-14 11.72-28.36 14.18-43.75-6.04-4.18-11.3-9.16-18.91-11.8zm-391.33 24.83c5.12 11.43 11.31 21.79 17.74 31.92 21.41-5 45.86-7 56.74-22.47-14.48-1.66-29.77-2.53-39-9.45-.63-4.1 1.75-11.22-2.37-11.83-10.11 4.88-21.7 8.3-33.11 11.83zm419.7-5.91a114.42 114.42 0 0 1 -4.73 14.18c7.29 17.79 12.25 42.11 21.28 56.75 2.49 4 6 11.64 11.83 9.46 2.9-25.76-5.77-50.19-9.46-73.3-5.98-2.71-11.32-6.03-18.92-7.09zm896.15 8.27c-7.87-.79-16.29.37-23.64 0-2-.1-4.7-2.31-7.09-2.36-22.92-.51-50.52.18-69.76 1.18-12.68.66-42.94-2-54.38 1.18-12.15 3.35-14.58 20.23-26 26-15.46-4.24-34-5.44-47.29-11.82-7.78 4.86-20.5 1.29-30.74 4.73-5.57 1.87-13.46 7.6-20.1 11.82-6.45 4.1-12.82 8.71-18.92 13-39.06 27.53-77.86 55.51-110 85.12-34.54 31.88-67.67 63.75-96.94 98.13-4.68 5.48-10.76 10.79-15.37 16.55-1.14 1.42-1.06 4.19-2.37 5.91-2.13 2.8-12.34 11.4-7.09 13 45.51-.26 78.85 11.9 114.68 23.65 89.45 29.34 159.34 76 257.73 93.4 40.61-67.76 79.28-134.4 128.87-192.71 42.78-50.31 87.15-103 134.78-146.6 6.81-6.24 18.19-11.18 18.91-22.46-34.72-10.16-84.23-13.61-125.28-17.72zm-859.5 29.56c1.36-3.77 8.3-2 8.28-7.1-3.65-6.59-4-16.54-11.82-18.91h-2.37c1.24 9.4 1.64 19.64 5.91 26.01zm15.37-17.74c9.3 16.33 11 40.21 28.38 48.48 5-19.11-7.12-29.43-4.73-49.66-9.75.68-17.07-1.06-24.83-2.36.19 1.39-.2 3.36 1.18 3.54zm932.8 62.66c-12.88 8.8-22.87 20.48-31.92 33.11 7.94 1.24 17.13.4 18.92 7.09 2.25 8.44-14.11 16.71-18.92 22.46-10 11.93-17 26.08-26 29.56-7.79-2.06-15.24-4.46-26-3.55-3.8 5.46-12.77 11.41-11.82 17.74 7.23 1.43 16.1 1.24 18.91 7.09-5.53 9.65-14.85 16-22.46 23.65-7.92 7.94-14.57 16.8-22.46 24.83q-8.91-1.74-17.73-3.55c-4 5.85-9.66 10-11.83 17.73 2.16 4.94 11.09 3.1 11.83 9.46-4.21 12.58-16.57 19.35-23.65 29.56-4.38 6.32-5.64 15.24-14.19 17.73h-13a637.7 637.7 0 0 0 -37.83 63.84c3.7 1.42 7.88 2.36 11.82 3.55 22.35-24.24 42.52-50.37 65-74.48 11.1-11.9 23.64-22.83 34.29-35.47s20.36-26.74 31.92-39c45.27-48.08 93.6-93.23 136-144.23-15.87-3.49-31.26-7.42-50.88-7.12zm-1500.28 28.38c-16.81 8.41-38.47 12-56.75 18.92 8 7.77 16.66 14.87 23.65 23.64 7.75-1.71 13.18-5.74 21.28-7.09 3.32-12.84 20.29-12 29.55-18.92-5.91-5.52-9.76-13.09-17.73-16.55zm1536.9 9.46c-40.18 45.93-86.23 87.87-126.5 134.77-35.24 41.06-73.9 81.08-107.59 121.78-4.66 5.64-10.77 11.43-11.82 18.91 7.64-3 13.42-9.87 18.92-15.37 40.74-40.75 80.37-81.56 120.59-121.77 23.06-23.07 47.56-44.62 69.75-68.57 22.38-24.15 45.33-47.66 67.39-72.12-14.1-1.67-16.61.82-30.74 2.37zm-79.21 3.54q-16.15 18.74-31.92 37.83c4.76 1.55 11.32 1.3 15.37 3.55 12-12.8 23.14-26.52 34.28-40.19-4.36-1.94-11.59-.94-17.7-1.19zm-1409.22 3.55c-6.44 1.51-15.71 5.44-23.64 8.28-8.58 3.06-18 6.65-21.28 10.64 5.26 9.71 14.91 15 23.64 21.28 7.83-4 14.7-10.17 23.65-14.19s20.41-4.79 26-13c-6.57-9.81-14.41-16.31-28.37-13.01zm1507.43 18.92c-11.83 10.36-23 22-34.29 34.28-30.56 33.12-63 64.94-94.58 95.76-21.56 21-43.79 41.17-63.84 62.66-17.89 19.18-37.32 37.89-53.2 56.75-1.29 1.53-8.89 4.66-3.55 8.28 2.85 4 6.6-2.14 8.28-3.55 20.5-17.21 40.23-39.93 57.93-57.93 34.38-31.83 68.36-64 101.67-96.95 29-28.65 58.49-59.54 87.49-86.3 4.14-3.82 11.47-6.19 11.82-13-8.11-.48-11.36 1.42-17.73 0zm-1468.36 8.27c-3.6.06-4.6-2.49-7.1-3.54-10.07 8-27.89 8.35-35.46 18.91a153.79 153.79 0 0 1 13 22.46c16.23-5.44 32.21-11.14 49.65-15.37-5.91-8.32-16.58-11.83-20.14-22.46zm769.65 18.92c-7 3.72-14.46 9.53-23.65 14.18s-19.14 8.09-26 13c10.61 5.94 19.81 13.29 30.74 18.92 18.6-6.23 36-13.71 46.1-28.38-5.65-1.42-21.27-20.9-27.24-17.72zm537.92 22.46c-9.39 11.9-20.8 21.76-27.19 36.65 9.34 4.32 12.87-5.9 17.73-10.64 8.17-8 17.47-15 23.65-23.64-4.23-1.35-9.78-1.31-14.24-2.37zm-584 18.92c-5.7 7.31-15.41 10.6-21.28 17.73 15.71 9.9 30.7 20.53 48.47 28.37 15.82-9.79 31.63-19.59 43.74-33.1-14.65-8-30.15-4.55-43.74 2.36-10.4-3.91-16.4-12.07-27.27-15.36zm-742.46 4.73c-12.17 10.69-27.78 17.93-43.74 24.83 7.61 11.69 20 18.56 34.28 23.64 12.69-12.14 28.66-21 39-35.47-12.82-1.43-19.1-9.34-29.62-13zm1273.25 47.29c-8.25 12.24-16.34 24.65-23.65 37.83 11.08-1.93 11.37-14.65 17.74-21.28 6.4-2.66 10-8.15 13-14.19a26.86 26.86 0 0 1 -7.09-2.36zm-454 15.37c-.92.26-1.37 1-1.18 2.36 15.31.46 33.19 4.63 47.29 2.36-13.63-2.62-30.76-7.79-46.11-4.72zm105.22 26c-6.85-.64-14-2.28-21.27-3.55a592.21 592.21 0 0 0 -78-8.28c-1.63 2.7-2.4 6.26-3.54 9.46 42.42 2.51 88.43 7.73 130.05 7.1-8.46-4.81-17.94-3.86-27.27-4.72z" fill="#0e5256"></path></g></svg> 