<?xml version="1.0" encoding="UTF-8"?> <svg xmlns="http://www.w3.org/2000/svg" viewBox="0 0 2400 2400"><path d="m1002.52 1475.24c2.58-7.44 5.88-14.79 12-20.6 3.3-3.15 5.22-7.79 7.52-11.9.85-1.52 2-7.82-3.22-8.37-8.84-.93-37.53-3.62-42.65-3.78-22.28-.71-44.58.82-66.86-1.42-8-.81-16.11-.13-24.17-.13-9.86 0-19.73.09-29.59-.07a15.84 15.84 0 0 1 -6.79-1.58c-3.58-1.84-4.3-6-2.56-9.72 2.17-4.67 6.61-6.12 10.79-7.33a89.91 89.91 0 0 1 16.62-3c9-.81 18.06-1.37 27.09-1.44 6.62 0 13.3-1 19.92 1.17 3.09 1 5.66-1.58 8.17-3.48s1.52-3.86 1.29-6.05a15.13 15.13 0 0 1 .12-5c1.06-4.32 2.63-8.52 3.56-12.87 1.81-8.53 3.32-17.12 5-25.69 1.32-6.94 2.78-13.87 3.89-20.85 1.27-7.94 2.23-15.92 3.32-23.88a23.14 23.14 0 0 1 .62-4.19c1.24-3.77 2.51-21 2.31-24.71a9.75 9.75 0 0 0 -2-5.86c-2.76-3.69-7.06-5.38-10-8.52-10.73-11.29-23-21.12-32.43-33.63a24.23 24.23 0 0 0 -5.16-5c-4.9-3.5-6.49-3.24-10.42 1.21a18.65 18.65 0 0 0 -2 2.89c-2.27 3.86-4.12 8-6.85 11.53-4.06 5.18-8.75 9.85-13.14 14.78-7.18 8-14.42 16.06-21.47 24.22-4.69 5.43-9 11.18-13.65 16.65-6.52 7.67-13.59 14.9-19.71 22.88-10.73 14-22 27.62-30.68 43.14-9.09 16.18-20.17 31.2-28.8 47.71-6.81 13-13.15 26.18-17.6 40.31-3.73 11.85-11.78 43.68-12.69 46-1.79 4.64-1.45 9.39-1.31 14.12a6.38 6.38 0 0 0 1.68 3.71c2.41 2.68 5 5.22 7.64 7.66 1 .94 17.56 8.37 19.75 9.32 16.55 7.14 33.16 14.16 49.69 21.36 18.07 7.87 37 12.9 56.24 16.78 12 2.42 24 5.06 36.29 6.31 8.69.89 41.85 5.56 45.54 5.11 1.65-.2 3.16-1.57 4.21-4 2.58-5.95 14.69-24.25 17.86-27.52 2.48-2.57 4.94-5 6.45-8.46 2-4.68 4.74-9.09 7.25-13.57 1.49-2.67 3.23-5.2 4.71-7.88 3.27-6 6.3-12 9.74-17.88 1.31-2.38 11.87-20.94 14.48-28.48z" fill="#fff"></path><path d="m1367.05 575.82c15.22 6.4 30.4 5.37 33.22 5.53a1.91 1.91 0 0 0 1.55-1 2.82 2.82 0 0 0 -.64-1.86 4.18 4.18 0 0 0 -1.51-1.53c-8.07-3.82-12.1-11.55-16.09-18.54a229.71 229.71 0 0 1 -17.58-37.35c-10-28.4-16.56-57.64-21.42-87.27-1.45-8.88-1.86-17.94-2.86-26.91-1.18-10.66-1.34-21.46-1.56-32.21-.25-12 0-24.05-.06-36.08a49.94 49.94 0 0 0 -.12-5.05c0-.53-.71-1-1.09-1.51-.49.38-1.35.71-1.42 1.16-1.07 6.74-7.13 41.94-8 53.12-1 12.47-3.72 54.33-3.72 62.75 0 6.74.06 13.48 0 20.21-.09 9.1-.31 18.23 1.52 27.19 2.88 14.1 5.65 28.28 11 41.73 10.01 25.35 13.55 31.23 28.78 37.62z" fill="#fff"></path><path d="m1350.37 314.18c4.35 2.36 6.79 7 4.52 12.71-.58 1.47-.32 3.31-.28 5 .17 7.36 1.42 36.71 1.42 44h.18c0 5 1.82 27.76 2.7 34.07 1.12 8 8.19 43.08 10 52.8 3.81 20.11 6 23.88 19.1 57.71s24.13 43.29 31.84 47.72c2.81 1.61 3.87 1.9 5.7-.85s1.47-5.28 0-8.05c-3.14-6-8.74-36-10.76-44.27-5.37-22-10.11-44.09-14.47-66.31-3.19-16.22-5.63-32.54-8.21-48.84-1.47-9.34-11.32-47.66-12.83-57.81-2.2-14.74-6.13-29.06-8.77-43.66-1.64-9.06-5.84-39.85-6-44.81 0-.84-.53-2.29-1-2.37a4.92 4.92 0 0 0 -3.31.61c-4.59 3.16-11.84 40.53-14.09 50.8-.86 4.21-1.22 8.57 4.26 11.55z" fill="#fff"></path><path d="m1522.12 1534.1c-.71 7.31-6 59.64-5.77 63.48a36.45 36.45 0 0 0 1.2 5.43c.48 2.33 7.16 2.71 8.92 2.08 4.73-1.67 13.1-37 15-44.69.94-3.84 3.47-19.52 3.69-21.42 1.36-11.87 4.41-51 4.21-58.66-.18-7.11-1.56-8.63-8.6-10.93-7.94-2.6-8.76-2-10.06 6-1.09 6.72-5.48 37.95-6.16 42.64-.79 5.35-1.9 10.68-2.43 16.07z" fill="#fff"></path><path d="m1172.91 1551.13c-4.47-8.86-26-33.65-43.22-46.28s-46.92-26.12-51.59-28c-3-1.21-5.59-3.16-9-3.69-1.89-.29-3.71-2.05-5.22-3.5-4.16-4-3.19-8.41 2.35-10.3a39.06 39.06 0 0 1 8.3-1.51c3.7-.41 14.11.75 24.64.66 6.32-.06 42.52.82 42.91-6.91s-14.3-9.92-20.56-9.71c-13.46.46-62.69 1.43-69.07 1.49-5.94 0-9.57 2.85-12.75 7.54-4.45 6.57-12.58 20.68-12.67 20.9-3 7.3-17.61 32.5-18.47 34.17-2.32 4.55-20.53 33.31-23 41.4-1 3.27-.54 5.54 2 7.6 4.34 3.57 18.46 28.91 19 30.45.91 2.39 6.74 13 8.42 16.08 3.12 5.75 7 11 9.58 17.18s7.83 11.11 11.93 16.58c2 2.73 6 14.24 12.45 11.66s-5.21-36.48-11-51.29-22.78-29.48-25.29-33.05-5-7.5-4.72-12.27c.16-3.06 3.71-7.11 5.9-6.48 6.92 2 13.31 5 18 10.77 2.25 2.75 4.54 5.47 6.8 8.21 1.36 1.64 2.72 3.27 4 4.93 4.59 5.73 8.92 11.69 13.82 17.12a57.46 57.46 0 0 1 9.37 13.29c.8 1.65 10.46 15.65 18.81 24.81 3.35 3.67 16.87 19.3 23.24 13.22s-.12-20.06-1.44-22.84a58.06 58.06 0 0 0 -11.51-15.79c-3.66-3.72-6.81-7.94-10.29-11.85-4.36-4.87-8.82-9.64-13.25-14.45-.16-.17-.4-.26-.57-.43-6.35-5.94-27.31-26.82-32.18-30.58a31 31 0 0 1 -6.12-5.75 7.28 7.28 0 0 1 1.49-9.51c1.94-1.5 5.67-.74 8.54 1.12a72.58 72.58 0 0 0 9.88 5.29 47.9 47.9 0 0 1 10.81 6.6c4.75 3.83 8.4 8.69 12.94 12.59 6.7 5.77 45.92 42.7 49.49 46.83s13.32 12 19.58 7.53-5-21.42-6.77-23.31c-2.87-3-5.48-6.24-8.17-9.41-2.45-2.89-4.68-6-7.32-8.7-9.52-9.71-19.19-19.26-28.84-28.83-1.66-1.64-24.69-20.38-32.2-24a24.94 24.94 0 0 1 -9-7.84c-3.93-5.52-.23-11.93 6.6-11.79 6.55.13 51.65 29.82 56.7 35.26 11.42 12.32 24.81 22.28 38.26 32.16a104.81 104.81 0 0 0 12 7.46c4.51 2.47 5 2.1 8.56-1.53 1.94-2 2.43-4.08 1.35-6.49s-2.35-4.53-3.5-6.81z" fill="#fff"></path><path d="m1367.83 1265.85c-15.25-.41-109.54-4.34-114-4.31-13.47.07-26.94 0-40.41 0a33.07 33.07 0 0 0 -5.72.39c-6.75 1.22-89.51 4.7-107 3.64-4.91-.3-30.84-3.67-38.9-4-1.2-.06-24.38-2.68-28.41-2.84-6.62-.26-30.92-5.53-32.92-9.6-1.79-3.66-.65-7 3.13-8.47a11.91 11.91 0 0 1 4.84-.8c11.91.57 50 1.19 57.17 2.73 5.07 1.08 10.5.57 15.54 1.77 12.73 3 25.75 3.8 38.64 5.31s68.6.11 73.81.1c1.71 0 3.46-1.35 5.11-2.23.93-.5 1.06-1.19.28-2.23-2.07-2.76-26.79-12.61-29.9-13.63-10-3.28-19.8-7.24-29.63-11.06-6.08-2.36-12.52-4.22-19.11-.22-2 1.21-23.13-1.28-24.51-1.57-7.82-1.64-15.64-3.29-23.47-4.9-8.53-1.76-17.12-3.27-25.61-5.25-17-4-34-7.74-51.23-10.69-6.95-1.19-13.85-2.72-20.71-4.38-7.1-1.73-14.11-3.87-21.18-5.71-6.82-1.77-13.53-3.71-20.63-4.73-6.56-.94-34.06-4.86-41.19-5.29a1.89 1.89 0 0 0 -1.94 2.89 37.62 37.62 0 0 0 4.81 7c2.58 3 18.82 21.56 20.31 23.1 15.47 16.09 30.48 32.68 48.65 45.88 10 7.29 20.26 14.32 31.92 18.89a126.37 126.37 0 0 0 28.63 7.66c9.43 1.32 18.79 2.79 28.34 2.81 3.31 0 23.53.28 27.82 0 7.12-.54 14.34-.49 21.36-1.64a183.07 183.07 0 0 1 31.26-2.74c15.15.14 30.31 0 45.46 0a35.62 35.62 0 0 0 5.76-.15q11.88-1.95 23.7-4.18c9-1.71 18.06-3.52 27.08-5.33 8.58-1.72 17.14-3.52 26-3.34 2.64.06 5.29 0 7.93 0 2.89.07 19.46-1.68 21.31-1.49 3.83.4 6.18 2.16 6.63 5.17.57 3.81-1.16 7.65-4.46 8.67a58.34 58.34 0 0 1 -10.32 2.12c-5.88.69-11.84.77-17.69 1.62-7.95 1.15-15.84 2.67-23.72 4.22-8.32 1.63-16.66 3.24-24.88 5.28-12.33 3.06-23.43 9.12-34.67 14.79-5.25 2.65-29.86 8.69-31.5 9.58-1.33.72-1.34 2 0 2.66 5.2 2.71 10.29 5.79 15.77 7.7 2.89 1 32.55 10.56 61.17 10.56s86.55-18.07 105.55-25.26a220.54 220.54 0 0 0 46.33-23.6c2.7-1.84 5.82-3.08 8.47-5 5.28-3.79 19.62-16.29 21.67-18.49a2.2 2.2 0 0 0 .47-1.9 2.13 2.13 0 0 0 -1.75-.81c-4.97.45-37.6 1.35-39.46 1.3z" fill="#fef065"></path><g fill="#fff"><path d="m1568.35 1567.46a11.84 11.84 0 0 0 5.38-1.37c5-2.58 10.2-5 14.77-8.28 3-2.15 5.56-2 8.65-1.1 6.65 1.9 31.73 30.81 40.81 39.69 8.84 8.64 16.64 18.33 25 27.51a8.27 8.27 0 0 0 3.32 2.62c1.21.35 4.48 0 3-3.65s-12.68-19.88-21.24-28.3a133.93 133.93 0 0 1 -17-20.08c-4-5.89-8-11.35-13.36-16.11-2.7-2.42-4.64-6-6-9.48-1.61-4.1.57-6.94 4.85-8.86 5.19-2.32 9.51-1 13.76 2.17a92.94 92.94 0 0 0 10.5 7.2c10.21 5.58 19.21 12.58 28.21 19.84 5.12 4.14 10.58 7.87 15.89 11.78 3.79 2.8 7.5 5.73 11.4 8.37 5.45 3.7 11 7.2 16.59 10.74a3.35 3.35 0 0 0 2 .54c1.11-.15 2.71-.29 3.11-1a3.48 3.48 0 0 0 -.57-3.23 120.06 120.06 0 0 0 -10.37-9.94c-4.56-3.72-7.91-7.72-17.53-16s-29-21.25-39.65-27.42c-6.29-3.64-7.45-12.13-3.71-16.9s16.07-5.24 22.54-2.53c12.68 5.29 23.25 10.59 36.07 15.56 3.28 1.26 9.76 3.87 12.85 5.48 10.6 5.55 31.41 17.33 33.88 12.93s-3.11-8.08-7-10.12q-13-6.87-26.43-13c-6-2.76-12.34-4.72-18.32-7.49-7.49-3.47-15.5-5.86-22.85-9.64-17.64-9.06-21.05-17.57-15.59-28.29s32.15-2.06 38 .28c3.85 1.55 25.89 8.68 42.26 14.58 13.45 4.85 26.08 7.08 27.8 4.48 3.82-5.77-10.3-10.57-16.66-13-7-2.63-14.14-5-21.08-7.86-6.32-2.59-12.4-5.76-18.7-8.41-7-2.92-14-5.88-21.14-8.19s-15.21-3.1-21.78-7.59a5.81 5.81 0 0 0 -6.7-.33c-4.3 2.43-8.62 4.84-13 7.19-7.27 3.93-31.46 22.4-36.57 24.61a13.9 13.9 0 0 1 -10.73.55c-6.49-2.52-8.66-10-3.46-14.66 4.73-4.19 9.92-8.24 15.59-10.93 10.3-4.88 20.23-10.41 30.25-15.78 11-5.91 21.93-12 32.92-18 3.74-2 7.63-3.77 11.37-5.8 2.52-1.36 3.28-3.55 2.55-6.73-.67-2.93-5.23-1.75-5.47-1.75a85.31 85.31 0 0 0 -15.74 3.56c-8.32 3.23-16.45 7-24.5 10.86-13.15 6.33-47.07 22.19-55.8 27s-19.25 8.36-19.84 18.46c-.24 4.16-2.52 28.32-2.7 38.11-.12 6.9-.83 13.79-1.46 20.66-.14 1.6-1 3.12-1.52 4.7-1.41 4.7-3.24 9.34-4 14.15-.91 5.38 1.72 8.1 7.15 8.2z"></path><path d="m943.66 852.76c-8 11.5-11.9 24.7-14.95 38.24-2 8.74-10 31.19-8.55 66.88s15.78 49.71 18 52c4 4.06 6.1 3 7.87-2.19 1.5-4.36.48-55.82 1.41-65.55.91-9.55 1-19.1 1.56-28.64a339.36 339.36 0 0 1 6.43-40.71s1.53-12.84 2.56-21c1.01-7.9-8.1-6.79-14.33.97z"></path><path d="m1392.08 299.94c2.16 10.64 3.67 21.42 6.12 32 4.78 20.67 10.22 41.18 15 61.85 3 12.86 5.27 25.88 7.79 38.85 1.67 8.57 3.14 17.17 4.8 25.74 1.7 8.81 8.11 41.62 9.47 49.24 2 11.17 10.25 69.15 11.25 71.12a1.66 1.66 0 0 0 3.18-.1 19 19 0 0 0 1.46-6.1c.12-6.65 1.33-115.07-1.05-141.43-.6-8.33-.9-16.68-1.88-25-1.06-8.91-3.13-17.71-4.11-26.62-1.22-11.07-3.8-21.86-5.69-32.79-2.92-16.86-8.42-32.86-14-48.94-6-17.17-13.87-33.5-20.65-50.32-3.76-9.3-9.59-26.87-17.56-26.87-3.53 0-3.08 14.09-1.35 30.44 2.14 20.63 6.39 44.81 7.22 48.93z"></path><path d="m1458.88 241.81c16.08 21.08 27.06 44.66 34.25 70 3.54 12.48 6.8 25.06 9.65 37.71 2.07 9.2 3.08 18.64 4.89 27.91 3.75 19.19 2.9 38.59 2.77 57.95-.07 10.27-.19 20.63-1.53 30.78a427.83 427.83 0 0 1 -12.12 61.09c-2.71 9.55-6.33 18.67-9.79 27.9-1.47 3.92-9.36 14.24-1.11 16.69s18.58-28.76 20.44-37.13c2.26-10.13 5.39-20.06 7.74-30.17 1.55-6.66 2.49-13.47 3.54-20.23 1.49-9.58 2.82-19.18 4.2-28.78a396.39 396.39 0 0 0 1.61-69c-2.36-38.34-12.58-87.48-21.31-112.64-5.24-15.07-10.69-30-18.67-43.87-3.36-5.86-11.71-18.08-20.21-25.2a37.16 37.16 0 0 0 -14.94-7.34c-3.44-1.69-9.29-2.85-13.37.8-3.68 3.28-3.74 5.84-.56 10.66 7.93 11.16 16.23 22.06 24.52 32.87z"></path><path d="m1407.49 215.76a47.58 47.58 0 0 1 4.85 6.88c6 10.78 12.05 21.59 17.21 32.78 10.13 22 29.54 75.24 36 109.61s5.74 89.07 6 96.93-2.06 78.45-2.82 93.25a3.09 3.09 0 0 0 .09 1.43 8.06 8.06 0 0 0 1.16 1.47c.48-.39 1.26-.71 1.38-1.19 1.08-4.09 10.4-33.71 13.64-58.78s4.84-85.68 3.69-99.73c-1.54-18.86-3.87-37.7-8.71-56.06s-10.23-36.44-17.93-53.78a230.4 230.4 0 0 0 -24.81-42.45c-4.76-6.52-8.87-13.54-13.06-20.47-2.24-3.72-4.32-7.53-6.45-11.31h-.1s-3.23-5.79-7-6.38-6.46 2.94-3.07 7.57c.01.14-.14.11-.07.23z"></path><path d="m1781.76 923.2c-2.69-27.4-7.72-54.27-17.93-80.05-6.91-17.45-13.74-34.94-22.39-51.61-7.45-14.37-15.8-28.28-23.48-42.54a223.15 223.15 0 0 0 -28.74-41c-11.54-13.19-24.07-25.53-36.36-38-5-5.13-10.53-9.8-15.91-14.58-1.76-1.55-19.06-12.13-24.82-17.52-3.61-3.36-7.81-6.1-11.85-9-.69-.49-1.93-.2-2.91-.27.25 1.07.16 2.76.8 3.1 5.28 2.84 7.82 8.22 11.79 12.23s8.33 7.13 12.19 11c3.7 3.69 6.8 8 10.46 11.69 2.65 2.7 6 4.67 8.66 7.38 5 5.18 9.9 10.48 14.47 16a390.53 390.53 0 0 1 31 43c10.92 17.66 20 36.29 28.61 55.1 9.4 20.46 16.2 42 23.64 63.19 1.4 4 7 23.11 6.84 27-.13 2.4 0 4.81 0 7.21-.1 2.69-3.18 7-5.55 7.69-3 .82-4.91-.79-6.89-2.8-3-3-8-26-10.16-33.44-8.78-30.28-23.24-58.07-37.2-86.11-12.06-24.22-26.85-46.68-43.45-68-7.48-9.61-15.18-19.06-22.71-28.64-1.87-2.39-3.19-5.25-5.25-7.43-3-3.2-6.51-5.95-9.74-8.95-1.85-1.72-3.64-3.52-5.36-5.37-5.69-6.12-11.27-12.34-17-18.41-5.48-5.79-12.75-8.76-19.79-12-.68-.31-1.78.28-2.68.45a23.15 23.15 0 0 0 .53 2.53 7.09 7.09 0 0 0 4.21 4.43c4.71 2.27 27.83 26 35 34.81 1.43 1.77 18.86 21.08 24.67 30 16.54 25.38 31.36 51.83 45.65 78.52 8.28 15.45 27.26 57.79 24.94 76.77-.28 2.22-3.37 4.3-5.53 6-.54.43-2.72-.53-3.65-1.38-5-4.58-8.53-10.12-9.26-16.92a40.35 40.35 0 0 0 -2.9-10.11c-2.57-6.75-5.84-13.16-9-19.63s-6.42-13.24-10-19.67c-7.92-14.4-15.51-29-24.26-42.91-9.4-14.94-19.42-29.57-30.18-43.55-11.36-14.74-22.74-29.54-36.18-42.58-3.57-3.46-6.3-7.81-10-11.17-8.25-7.59-16.82-14.82-25.31-22.14a1.84 1.84 0 0 0 -1.77-.17 2.16 2.16 0 0 0 -.53 1.91c1 2.09 2 4.42 3.54 6 3.6 3.65 16.13 15.66 18.39 18.38 4.54 5.48 8.85 11.15 13.53 16.49 5.67 6.47 12 12.36 17.34 19.09 4.72 6 8.43 12.76 12.58 19.2 12 18.63 21.56 38.6 31.22 58.49 5.39 11.1 10.63 22.29 15.51 33.62 2.13 5 2.83 10.53 4.89 15.54a154.33 154.33 0 0 1 5.18 17.65c.7 4.49 1.23 9-1.29 13.2-2.36 3.91-4.47 4.14-9.09 2.58-3.82-1.29-5.46-4-6.5-7.41-3.42-11.19-6.69-22.43-10.19-33.6-6.79-21.67-17.63-41.47-28.83-61.07-14.35-25.1-31.54-48.3-48.66-71.53a228.29 228.29 0 0 0 -18.92-23.19c-5.7-5.93-12.73-10.57-19.12-15.85-2.57-2.13-4.92-4.52-7.52-6.61-1.2-1-2.45-.43-2.35 1.16a9.11 9.11 0 0 0 1.34 4.55c1.39 1.93 35.55 56.57 40.61 70.05 5 13.3 10.73 26.34 16.52 39.32 8.23 18.46 17.13 36.63 25.08 55.21a164.11 164.11 0 0 1 8.44 26.91c1.13 4.79.29 10.06.22 15.11 0 2.25-1.39 3.36-3.62 3.67-5.42.75-8.09-.49-10.76-5.56a37 37 0 0 1 -2.2-5.93c-6.66-20.47-15.34-40.15-23.65-60-4-9.56-8.21-19.05-11.87-28.75-3-7.87-5.38-16-7.83-24-1-3.35-1.34-6.91-2.26-10.3a12.28 12.28 0 0 0 -2.32-4.19c-.49-.63-1.87-1.31-2.36-1.05a6.25 6.25 0 0 0 -2.23 2.58 2.89 2.89 0 0 0 .13 2.09c3.64 9.43 10.83 65.67 11.26 74 .12 2.4-.07 4.82 0 7.22.15 3.53 0 26.39.06 28.93a16.91 16.91 0 0 1 -2.49 9.48c-2.28 3.77-2.92 4.54-6.61 3.84-2.92-.56-6.24-1.07-7-5a64.92 64.92 0 0 1 -1.39-7.6c-.23-3.84-.09-7.7 0-11.55a158.84 158.84 0 0 0 -2.81-31.15 14.54 14.54 0 0 1 -.08-2.88c.21-8.85-1.16-17.5-2.73-26.18-1.82-10-2.46-20.25-4.66-30.15-3.21-14.51-6.87-28.93-12.3-42.85a292.62 292.62 0 0 0 -22.38-46.1c-3.49-5.74-7.06-11.1-11.82-15.74-1.49-1.47-6.91-8.74-11.87-5.2s1.65 15.81 5.36 21.37c.91 1.37 2 2.65 2.78 4.09 16.69 30.45 30.25 62.19 38.76 95.93 2.71 10.75 5.56 21.48 6.12 32.72.31 6.13-.87 36.43-2.45 43-.53 2.21-2 2.9-4.24 2.79-5.39-.25-8.9-3.34-9.44-8.69 0-.23 0-.48 0-.72.16-11.92-2.15-23.51-4.12-35.22a243.34 243.34 0 0 0 -8.88-36.42c-7.77-23.41-15.83-46.74-26.89-68.84-3.58-7.14-18-38.37-21.28-44.24s-7.91-.67-8 1.69a25.18 25.18 0 0 0 1.19 9.09c1.55 4.64 15.91 55.29 19.33 104.93s-.71 94.25-1.77 98.81c-1.14 4.9-5.12 7.22-9.12 9.35-1.58.85-5.28-1-6.57-3a10.3 10.3 0 0 1 -1.38-8.86 14.15 14.15 0 0 0 1-3.35c.56-9.51 1.22-19 1.42-28.55.16-7.42.77-50-4.45-90s-6.58-52.3-9.39-53.11a5.55 5.55 0 0 0 -6.37 2.07 85 85 0 0 1 -7.33 8.69 113.39 113.39 0 0 0 -18 22.22c-6.28 10.13-13.62 19.62-19.7 29.86a360.29 360.29 0 0 0 -18.1 34c-7 15.3-24 59-24.74 64.11-1.2 8.25-12.39 13.55-19.37 9-1-.61-2.19-1.72-2.21-2.63-.11-3.8 8.83-36.34 14.13-48.43 12.16-27.72 25.3-54.86 43.22-79.44 3.89-5.33 7.15-11.13 11-16.5 3.52-4.9 7.51-9.45 11.19-14.24 3.92-5.08 23.26-23.21 27.4-24.91 2.48-1 2.81-2.39 2.66-6.17-.11-2.76-2.51-2.56-3.88-3.6-.38-.29-2.09.75-2.88 1.51-3.82 3.67-7.45 7.53-11.3 11.16-2.4 2.27-26 26.2-29.28 29.68-12.86 13.63-25.92 27.1-38.5 41-21.4 23.62-40 49.38-57.09 76.24-3.93 6.17-6.36 13-10.1 19.24a76.68 76.68 0 0 1 -4.42 7.23c-3.29 4.29-12 4.06-13.86-2a9 9 0 0 1 .31-5.42c1.29-3.51 3.42-6.6 3.86-10.58.26-2.33 2.39-4.46 3.73-6.65.46-.74 1.28-1.29 1.6-2.07 6-14.81 15.7-27.26 25.34-39.66 11.17-14.36 23.13-28.1 34.65-42.2 17.06-20.86 35.87-40.09 54.86-59.16 3.57-3.58 17-17 27.52-27.62 7.44-7.52 2.18-10.12-5-10.12s-13 4-26.37 12.74c-11.45 7.47 4.28 7.21-12.11 19.19-16.68 12.2-34 23.47-50.68 35.73-11.36 8.37-22.08 17.62-33 26.63-7.2 6-14.61 11.76-21.13 18.41-7.54 7.68-14.34 16.1-21.21 24.41s-13.27 16.94-20.09 25.26c-9.41 11.48-18 23.51-26.26 35.84-5.94 8.89-12 17.76-18.57 26.16-3.56 4.52-11.51 13.35-17.86 10.43s.89-15.63 2.54-18.3c4.53-7.34 8.9-14.78 13.81-21.86 9.24-13.33 19.06-26.28 28.75-39.3 19.29-25.92 42-48.73 65.36-70.89 8.48-8 18.09-14.91 27.19-22.3 3.69-3 7.15-6.37 11.13-8.9 9.7-6.14 38.53-26 44-28.65a1 1 0 0 0 .11-1c-.45-.54-1.17-1.44-1.57-1.34-3.16.79-6.47 1.39-9.36 2.81-5.89 2.87-24.28 10.67-26.15 11.55-5.3 2.5-45.64 20.89-55.21 26.28-16 9-31.69 18.5-47.38 28-11.06 6.71-21 14.9-30.68 23.53-7.86 7-16.08 13.66-23.92 20.72-5.16 4.65-9.95 9.72-14.82 14.68-3.55 3.6-6.88 7.41-10.46 11a218.72 218.72 0 0 0 -33.19 42.27c-3.87 6.41-7.21 13.16-10.66 19.82-2.42 4.64-10.31 7.83-14.33 5.62-4.52-2.49-6.08-5.47-4.07-10.81 2.12-5.63 28.66-47.83 41-60.29 11.52-11.62 23-23.28 34.72-34.7 22-21.43 45.39-41.21 71.72-57.13 15.5-9.37 31.58-17.81 47.57-26.36 5.36-2.87 11.25-4.75 16.88-7.13 3.63-1.54 7.29-3.05 10.85-4.75 4.87-2.31 9.7-4.71 14.45-7.26.87-.46 2-2.24 1.74-2.69a5.33 5.33 0 0 0 -3.07-2.42c-1.26-.26-2.75.35-4.08.77-5.14 1.59-10.3 3.15-15.38 4.93-2.43.86-22 10.46-24.9 11.56-25.82 9.73-50.46 22-74.94 34.61-6.55 3.37-12.82 7.34-19.08 11.25-10.31 6.43-20.49 13.07-30.76 19.56a288.49 288.49 0 0 0 -39.21 30.1c-13.19 11.92-26.43 23.81-39 36.37-6.19 6.19-11.23 13.62-16.13 20.94-3.27 4.88-5.38 10.54-8 15.88-.4.83-5.25 13.58-8.54 18.37-2.9 5.26-8.78 15.05-10.49 23.6s-6.31 30-6.31 30c0 6-7.42 60-8.47 64.77-1.89 8.55-2.53 45.92-1.62 54.52.72 6.82 4.54 31.63 5.79 37.15 2 8.74 3.34 17.62 6.89 26 5.75 13.61 11.24 27.31 20.05 39.32a116.83 116.83 0 0 0 18.47 20 369.25 369.25 0 0 0 45.48 33.66c6.07 3.75 12.18 7.5 18.56 10.67 23.61 11.71 47.41 23.06 71 34.81 9.59 4.78 18.89 10.16 28.26 15.38 14.6 8.13 30.28 13.44 46.35 17.63 11.42 3 22.91 5.69 34.43 8.21 4.84 1.06 9.86 1.3 14.79 2 6.09.81 12.18 1.66 18.27 2.5.94.13 51.69 2 55.29 1.8 10.27-.41 20.58-.44 30.78-1.56 10.39-1.16 45.07-3.44 51.9-4.32 12.64-1.65 25.26-3.74 37.47-7.58 4.72-1.48 59.76-15.87 66.13-18.8 27.23-12.53 54.88-24.17 81.22-38.55a326.77 326.77 0 0 0 45.76-30.62q20-15.78 40-31.6a402.13 402.13 0 0 0 46.25-43.29c14.51-15.75 23.42-34.5 28.14-55.32 2.45-10.84 4.37-21.75 6-32.76 1.86-12.26 1.39-24.46.78-36.57-.21-7.5-.25-15.18-.99-22.75zm-381.87 42.11c.91-2.94 3.15-5.42 2.76-9-.32-3 .48-6 .95-9 .79-4.89 1.63-9.78 2.6-14.63.79-4 .2-7.95 1.34-12 1.49-5.4 1.32-11.27 1.81-16.95.52-6.14.75-12.31 1.6-18.41.34-2.46 1.39-5.51 3.19-6.91 2-1.57 5.24-2 8-2.1 1.94-.06 4.58.69 5.78 2.06a18.38 18.38 0 0 1 4.48 13c-.28 5.34-2 10.6-2.56 15.95a22.42 22.42 0 0 1 -2 7.44 8.42 8.42 0 0 0 -.93 3.35c0 9.54-2.87 18.69-3.8 28-.51 5.13-2.31 9.75-3 14.62a131.82 131.82 0 0 1 -3.25 14.41c-1.22 4.64-5.27 7.21-7.34 11.18-.39.74-2.11.77-2.51.9-6.59.14-8.9-2.17-9.11-8a41 41 0 0 1 1.99-13.91zm-36.18-171.55c1.9-6.92 3.76-13.76 4.1-21.2.53-11.37 3.46-22.61 4.81-34 .63-5.23 2.65-10 3.72-15 1.22-5.71 4.67-18.79 5-19.65 1.62-3.79 3.67-5.21 6.63-4.65 5 .94 6.83 2.88 7 7.34v2.57c-.54 2.83-1.33 6.75-2 10.67-.86 4.86-7.09 54.77-8.09 63.23a37.4 37.4 0 0 1 -9 20.31 6.31 6.31 0 0 1 -9.47 0c-2.5-2.67-3.81-5.54-2.7-9.62zm-2.83 173.48c1.47-7.87 3.28-15.64 3.87-23.7.53-7.24 2.35-14.39 3.6-21.58.2-1.16.45-2.31.57-3.47.69-6.84 1.5-13.67 2-20.52a36.54 36.54 0 0 0 -.38-9.75c-1-5.15 1-9.34 3.41-13.41 1.22-2 3.2-3 5.94-3.29 8.53-.92 14.79 3.59 13.72 13.23-.13 1.19 0 2.4 0 4.28.52 5.8-1.11 12-2.47 18.23-1.91 8.75-3.19 17.65-4.75 26.48-.29 1.62-.67 3.22-1 4.83-.91 4.63-1.31 9.39-2.18 13.94-1.36 7.09.67 14.86-3.89 21.35-.24.33 0 .94-.16 1.4-.43 1.78-.35 4.46-1.48 5.14a17 17 0 0 1 -7.94 2.4c-6 .23-9-3.73-9.37-8.49a26.76 26.76 0 0 1 .51-7.07zm-23.32 67.27c.64.86 1.36 2.56 1 3.16-1.85 2.8-1.26 6.19-3.41 9.17-6.2 8.59-13 16.63-19.61 24.9-4.47 5.63-9.19 11.06-13.88 16.51-7.67 8.9-16.85 15.16-28.68 17.53-7.48 1.49-37.23 4.51-40.89 11.41s8.76 8.56 13.23 10c2 .62 4 1.17 6.07 1.72 1.57.43 45.78 7.28 53 8.44 5.13.83 33 3.91 41.05 4.31 11.22.55 22.44 1.39 33.66 1.35 14.13 0 28.27-.65 42.38-1.44 5.61-.32 34.59-3.62 39.5-4.33a4.84 4.84 0 0 0 3.08-7.51c-3.08-4-19.68-17.75-24.27-21.14-7.87-5.82-15.83-11.54-24-16.89a52 52 0 0 1 -19.09-22.64c-2.24-4.91-4.79-9.68-7.11-14.55a12 12 0 0 1 -1.55-4.65c0-3.61-2-7.8 2.09-10.55 6.07-4 11.08-4.09 15.67-.17a16.86 16.86 0 0 1 5.25 8.26c4.12 13.73 12.71 24.37 24 32.89 9.89 7.5 20 14.79 30 22 8.57 6.13 29.37 25.67 27.9 35.12s-16.49 16.39-35.56 19.23-65.14 5.94-91.84 4.62c-34.62-1.71-66.9-5.85-71.8-6.57-7.7-1.14-15.33-2.83-23-4.27a353.68 353.68 0 0 1 -45.85-11.7c-5.29-1.75-22-10.06-17.22-22.1s28.35-21.43 36.62-22.72c15-2.33 29.92-5.4 42-15.67q7.11-6 13.91-12.42c2.8-2.63 5.19-5.68 7.92-8.39a56.58 56.58 0 0 0 8.52-11.37 75.34 75.34 0 0 1 10-12.8c3.12-3.25 8.16-2.43 10.91 1.26zm-211.1 43.7c-15.67-5.87-30.81-13-44-23.45-16.83-13.32-31.8-28.45-41.38-48.08-4.79-9.82-8.8-19.77-10.31-30.89-1.94-14.34-.48-21.78 11.48-36.58a69.14 69.14 0 0 1 34.84-23c8.15-2.29 5.39-4.53 2.55-7.92s-11.23-12.29-4.22-18.29 25.53 5.75 28.77 7.71c14.42 8.73 30.16 14.73 45.58 21.38a314.94 314.94 0 0 0 42.82 15.14c9.79 2.64 41.08 10.64 57.93 12.5 23.65 2.62 40.8 4.43 61.44 3.78 17.11-.53 18 5.05 16.14 10.1-4.8 12.9-26.87 5.08-30.32 10.66s9.63 19 2.52 52-46.75 53.77-71.53 60.21c-13.52 3.51-27.44 5.93-38.39 4.93-24.05.05-44.38-2.87-63.92-10.2zm397.59 112.79c-1 2.22-3.18 4.12-5.2 5.65-8.1 6.16-17.69 9-27.34 11.48-15.52 4-31.08 7.82-46.74 11.24-7.6 1.66-56.85 10.54-112.36 7.56s-125.59-28.78-152.41-42.55c-8.62-4.43-16.11-10.25-10.33-18.63 3.81-5.5 25.09 5 28.61 6.76 6.23 3.2 13 5.46 19.53 8.07 20 8 40.85 13.22 61.58 18.81 8.42 2.26 38.59 11 81.65 10.09s91.17-13.44 101.51-15.81c5-1.16 10-2.59 15.09-3.68 9-1.93 17.36-5.87 26-8.81a49.56 49.56 0 0 1 13.36-2.18c5.89-.33 10.43 4.7 7.05 12zm142.23-149.64a202.92 202.92 0 0 1 -24.65 17.17 300.52 300.52 0 0 1 -54.63 26.15c-9.36 3.29-19.1 5.09-28.91 6.78-7.67 1.32-15.25.89-21.8 1.23-4.19 0-7.32 0-10.45 0-14.84-.07-28.56-4.37-41.52-11.29a68.25 68.25 0 0 1 -17.85-13.09c-7.87-8.33-12.47-17.82-13.62-28.38-.39-3.52-.29-19.08 7.12-32.36s17.28-21.47 20.61-25.8c1.53-2 .69-3.35-.92-4a42.56 42.56 0 0 0 -7.45-2c-5.29-1.14-23.19-8.79-17.55-16.92s26.37-2.17 33.23-1.88c10.12.44 20.06-1 30-1.7 9.41-.67 40.49-4.58 46.52-5.77 9.25-1.81 18.52-3.61 27.47-6.91 17.75-6.53 35.82-12.24 53.46-19a112.55 112.55 0 0 0 32.97-19.59c5.08-4.33 14.57-15.61 23.35-10.78s-15.77 31.2-17.46 32.46c-3 2.24-2.48 5 .68 7.26 3.79 2.71 17.77 17 19.3 40.34s-23.62 56.3-37.9 68.04z"></path><path d="m1211.82 1068a97 97 0 0 0 35.06-9.81c9.94-5 19-11 26.38-19.43 10.4-11.89 14.52-25.37 9.35-40.81-1.72-5.14-4.37-10-6-15.13-3.17-10.06-7.58-15.92-21.09-15.82-2.65 0-5.36.32-7.92-.15-6.45-1.18-12.82-2.79-19.24-4.11-3-.63-4 .56-3.47 3.46 1 5.3 5.57 13.24 3.89 24-4.41 28.36-18.85 42.21-30.33 52.66-12.37 11.26-27.5 14.86-43.36 11.81-14.89-2.86-28.35-9.86-38.5-21.76a59.32 59.32 0 0 1 -14.77-37c-.41-10.37 1.89-20.3 5.12-30 2.45-7.36 4.16-15.08 9.13-21.42 2.32-3 4.46-6.07 6.54-9.2 1.86-2.81 1-4.26-2.51-4.34-3.85-.09-7.7 0-13.35 0-5.11-.24-12.14-.61-18.69 1.9a73.68 73.68 0 0 0 -26.8 17.7 27.85 27.85 0 0 0 -7 11.48 41.44 41.44 0 0 0 0 23.94c6.36 21.82 18.3 39.78 37.56 52.24 11.6 7.5 24.2 13.15 37 18.33 12.14 4.91 25 7.09 37.61 10.06a114 114 0 0 0 31.93 2.8c4.5-.22 8.97-1.01 13.46-1.4z"></path><path d="m1554.49 1069.55c-10.55-.08-36.16-17.55-39.63-39.94s6.88-43.22 9-47.86c1.59-3.45 1.31-4-1.88-5.34-.89-.36-12.72-1-13.69-1-4.82.22-33.55 30.91-33.55 59.07s28.06 33.82 39.39 37.58c6.36 2.1 33.26 1 39.6.23a23.56 23.56 0 0 0 4.66-1.48c.2-.07.34-.32.5-.49-.27-.24-.52-.67-.81-.69-1.19-.1-2.39-.07-3.59-.08z"></path><path d="m1669.09 944.84c-.91-1.25-3-5.32-9.11-2.53-4.09 1.87-8.45 3.08-12.68 4.61-8.54 3.1-17.11 6.13-25.63 9.3-3.75 1.4-4 4-.81 6.57 4.77 3.78 9.37 8.37 10.51 14 1.6 8.06 2.83 13 3.31 24.61a57.73 57.73 0 0 1 -6 27.49c-2.72 5-5.55 9.88-10.48 14.25s-12 8.25-12 10.72c0 4.92 18.54-7.59 22.71-9.76 3.17-1.64 32-22.69 34.86-25.72 3.37-3.53 5.54-7.68 8.06-11.63 6.19-9.71 11-20 10.35-31.95 0-10-.44-11.72-6.35-20.6-2.1-3.2-4.47-6.2-6.74-9.36z"></path><path d="m1813.28 931.51c-1.91-3.76-3.77-4.48-9-3.47-3.72.72-4.79 2-5 6.16-.06 1.19-.24 21.59-2.5 42.87-1.45 13.62-3.74 27.6-5.73 37.12-1.13 5.37-5.75 14.72-1.28 15.79s13-29.68 17.29-38.91c1.68-3.61 7.68-27.35 8.73-35.32 1-7.71-1.23-14.87-1.74-22.29a5.66 5.66 0 0 0 -.77-1.95z"></path><path d="m1598 964.21c-4.59-.66-8.1 1.94-11.61 4.3a2.7 2.7 0 0 0 -.72 1.91c-.28 4.76 2.73 8 7.38 8.07 6.48.09 7.12-.41 8.93-7 1.02-3.77-.53-6.78-3.98-7.28z"></path><path d="m1188.52 971.6c6.47.09 7.11-.41 8.92-7 1-3.79-.51-6.81-4-7.31-4.59-.66-8.1 1.94-11.61 4.3a2.79 2.79 0 0 0 -.72 1.91c-.25 4.79 2.76 8.04 7.41 8.1z"></path></g><path d="m1228.77 1083.54c24.78-6.44 64.43-27.23 71.53-60.21s-6-46.45-2.52-52 25.52 2.24 30.32-10.66c1.88-5 1-10.63-16.14-10.1-20.64.65-37.79-1.16-61.44-3.78-16.85-1.86-48.14-9.86-57.93-12.5a314.94 314.94 0 0 1 -42.82-15.14c-15.42-6.65-31.16-12.65-45.58-21.38-3.24-2-21.76-13.71-28.77-7.71s1.47 15 4.23 18.25 5.6 5.63-2.55 7.92a69.14 69.14 0 0 0 -34.84 23c-12 14.8-13.42 22.24-11.48 36.58 1.51 11.12 5.52 21.07 10.31 30.89 9.58 19.63 24.55 34.76 41.38 48.08 13.18 10.42 28.32 17.58 44 23.45 19.54 7.33 39.87 10.25 63.92 10.26 10.94.98 24.86-1.44 38.38-4.95zm-46.92-121.92c3.51-2.36 7-5 11.61-4.3 3.47.5 5 3.52 4 7.31-1.81 6.56-2.45 7.06-8.92 7-4.65-.06-7.66-3.31-7.39-8.07a2.79 2.79 0 0 1 .7-1.94zm-53 94.92c-12.8-5.18-25.4-10.83-37-18.33-19.26-12.46-31.2-30.42-37.56-52.24a41.44 41.44 0 0 1 0-23.94 27.85 27.85 0 0 1 7-11.48 73.68 73.68 0 0 1 26.8-17.7c6.55-2.51 13.58-2.14 18.69-1.9 5.65 0 9.5-.07 13.35 0 3.52.08 4.37 1.53 2.51 4.34-2.08 3.13-4.22 6.24-6.54 9.2-5 6.34-6.68 14.06-9.13 21.42-3.23 9.71-5.53 19.64-5.12 30a59.32 59.32 0 0 0 14.77 37c10.15 11.9 23.61 18.9 38.5 21.76 15.86 3 31-.55 43.36-11.81 11.48-10.45 25.92-24.3 30.33-52.66 1.68-10.77-2.91-18.71-3.89-24-.54-2.9.42-4.09 3.47-3.46 6.42 1.32 12.79 2.93 19.24 4.11 2.56.47 5.27.17 7.92.15 13.51-.1 17.92 5.76 21.09 15.82 1.63 5.16 4.28 10 6 15.13 5.17 15.44 1.05 28.92-9.35 40.81-7.35 8.38-16.44 14.48-26.38 19.43a97 97 0 0 1 -35.06 9.81c-4.49.36-9 1.15-13.45 1.37a114 114 0 0 1 -31.93-2.8c-12.67-2.94-25.47-5.12-37.64-10.03z" fill="#0e5256"></path><path d="m1684.88 932.89c-3.16-2.26-3.66-5-.68-7.26 1.69-1.26 26.25-27.63 17.46-32.46s-18.27 6.45-23.35 10.78a112.55 112.55 0 0 1 -32.92 19.54c-17.64 6.81-35.71 12.52-53.46 19-9 3.3-18.22 5.1-27.47 6.91-6 1.19-37.11 5.1-46.52 5.77-10 .71-19.93 2.14-30 1.7-6.86-.29-27.58-6.24-33.23 1.88s12.26 15.78 17.55 16.92a42.56 42.56 0 0 1 7.45 2c1.61.67 2.45 2 .92 4-3.33 4.33-13.2 12.53-20.61 25.8s-7.51 28.84-7.12 32.36c1.15 10.56 5.75 20 13.62 28.38a68.25 68.25 0 0 0 17.85 13.09c13 6.92 26.68 11.22 41.52 11.29h10.45c6.55-.34 14.13.09 21.8-1.23 9.81-1.69 19.55-3.49 28.91-6.78a300.52 300.52 0 0 0 54.63-26.15 202.92 202.92 0 0 0 24.65-17.17c14.28-11.74 39.43-44.78 37.9-68.09s-15.56-37.57-19.35-40.28zm-126.48 137.91a23.56 23.56 0 0 1 -4.66 1.48c-6.34.79-33.24 1.87-39.6-.23-11.33-3.76-39.38-9.41-39.39-37.58s28.73-58.85 33.55-59.07c1 0 12.8.65 13.69 1 3.19 1.3 3.47 1.89 1.88 5.34-2.13 4.64-12.48 25.46-9 47.86s29.08 39.86 39.63 39.94c1.2 0 2.4 0 3.6.07.29 0 .54.45.81.69-.17.18-.31.43-.51.5zm34.6-92.31c-4.65-.07-7.66-3.31-7.38-8.07a2.7 2.7 0 0 1 .72-1.91c3.51-2.36 7-5 11.61-4.3 3.46.5 5 3.51 4 7.3-1.79 6.57-2.43 7.07-8.95 6.98zm78.83 28.29c-2.52 4-4.69 8.1-8.06 11.63-2.9 3-31.69 24.08-34.86 25.72-4.17 2.17-22.71 14.68-22.71 9.76 0-2.47 7-6.34 12-10.72s7.76-9.25 10.48-14.25a57.73 57.73 0 0 0 6-27.49c-.48-11.63-1.71-16.55-3.31-24.61-1.14-5.66-5.74-10.25-10.51-14-3.23-2.55-2.94-5.17.81-6.57 8.52-3.17 17.09-6.2 25.63-9.3 4.23-1.53 8.59-2.74 12.68-4.61 6.12-2.79 8.2 1.28 9.11 2.53 2.27 3.12 4.64 6.18 6.78 9.39 5.91 8.88 6.35 10.64 6.35 20.6.64 11.94-4.16 22.21-10.35 31.92z" fill="#0e5256"></path><path d="m1316.66 1046a56.58 56.58 0 0 1 -8.52 11.37c-2.73 2.71-5.12 5.76-7.92 8.39q-6.78 6.39-13.91 12.42c-12.1 10.27-27 13.34-42 15.67-8.27 1.29-31.82 10.67-36.62 22.72s11.93 20.35 17.22 22.1a353.68 353.68 0 0 0 45.85 11.7c7.65 1.44 15.28 3.13 23 4.27 4.9.72 37.18 4.86 71.8 6.57 26.7 1.32 72.78-1.77 91.84-4.62s34.09-9.78 35.56-19.23-19.33-29-27.9-35.12c-10.1-7.22-20.16-14.51-30-22-11.26-8.52-19.85-19.16-24-32.89a16.86 16.86 0 0 0 -5.25-8.26c-4.59-3.92-9.6-3.87-15.67.17-4.13 2.75-2.09 6.94-2.09 10.55a12 12 0 0 0 1.55 4.65c2.32 4.87 4.87 9.64 7.11 14.55a52 52 0 0 0 19.09 22.64c8.2 5.35 16.16 11.07 24 16.89 4.59 3.39 21.19 17.15 24.27 21.14a4.84 4.84 0 0 1 -3.08 7.51c-4.91.71-33.89 4-39.5 4.33-14.11.79-28.25 1.39-42.38 1.44-11.22 0-22.44-.8-33.66-1.35-8.1-.4-35.92-3.48-41.05-4.31-7.24-1.16-51.45-8-53-8.44-2-.55-4.06-1.1-6.07-1.72-4.47-1.4-16.89-3.05-13.23-10s33.41-9.92 40.89-11.41c11.83-2.37 21-8.63 28.68-17.53 4.69-5.45 9.41-10.88 13.88-16.51 6.57-8.27 13.41-16.31 19.61-24.9 2.15-3 1.56-6.37 3.41-9.17.4-.6-.32-2.3-1-3.16-2.75-3.69-7.79-4.53-10.87-1.29a75.34 75.34 0 0 0 -10.04 12.83z" fill="#0e5256"></path><path d="m1517 1179a49.56 49.56 0 0 0 -13.32 2.13c-8.68 2.94-17 6.88-26 8.81-5.06 1.09-10.05 2.52-15.09 3.68-10.34 2.37-58.46 14.93-101.51 15.81s-73.23-7.83-81.65-10.09c-20.73-5.59-41.6-10.8-61.58-18.81-6.51-2.61-13.3-4.87-19.53-8.07-3.52-1.81-24.8-12.26-28.61-6.76-5.78 8.38 1.71 14.2 10.33 18.63 26.82 13.77 96.9 39.57 152.41 42.55s104.76-5.9 112.36-7.56c15.66-3.42 31.22-7.28 46.74-11.24 9.65-2.47 19.24-5.32 27.34-11.48 2-1.53 4.17-3.43 5.2-5.65 3.34-7.25-1.2-12.28-7.09-11.95z" fill="#0e5256"></path><path d="m1369.71 982.8a17 17 0 0 0 7.94-2.4c1.13-.68 1-3.36 1.48-5.14.11-.46-.08-1.07.16-1.4 4.56-6.49 2.53-14.26 3.89-21.35.87-4.55 1.27-9.31 2.18-13.94.32-1.61.7-3.21 1-4.83 1.56-8.83 2.84-17.73 4.75-26.48 1.36-6.27 3-12.43 2.47-18.23 0-1.88-.11-3.09 0-4.28 1.07-9.64-5.19-14.15-13.72-13.23-2.74.29-4.72 1.24-5.94 3.29-2.44 4.07-4.45 8.26-3.41 13.41a36.54 36.54 0 0 1 .38 9.75c-.48 6.85-1.29 13.68-2 20.52-.12 1.16-.37 2.31-.57 3.47-1.25 7.19-3.07 14.34-3.6 21.58-.59 8.06-2.4 15.83-3.87 23.7a26.76 26.76 0 0 0 -.54 7.07c.41 4.76 3.4 8.69 9.4 8.49z" fill="#0e5256"></path><path d="m1406.89 987.23c.4-.13 2.12-.16 2.51-.9 2.07-4 6.12-6.54 7.34-11.18a131.82 131.82 0 0 0 3.25-14.41c.72-4.87 2.52-9.49 3-14.62.93-9.36 3.75-18.51 3.8-28a8.42 8.42 0 0 1 .93-3.35 22.42 22.42 0 0 0 2-7.44c.52-5.35 2.28-10.61 2.56-15.95a18.38 18.38 0 0 0 -4.48-13c-1.2-1.37-3.84-2.12-5.78-2.06-2.72.1-5.94.53-8 2.1-1.8 1.4-2.85 4.45-3.19 6.91-.85 6.1-1.08 12.27-1.6 18.41-.49 5.68-.32 11.55-1.81 16.95-1.14 4.08-.55 8.07-1.34 12-1 4.85-1.81 9.74-2.6 14.63-.47 3-1.27 6.08-.95 9 .39 3.55-1.85 6-2.76 9a41 41 0 0 0 -2.11 13.94c.34 5.8 2.64 8.11 9.23 7.97z" fill="#0e5256"></path><path d="m1375.86 803.44a37.4 37.4 0 0 0 9-20.31c1-8.46 7.23-58.37 8.09-63.23.69-3.92 1.48-7.84 2-10.67 0-1.6 0-2.09 0-2.57-.17-4.46-2-6.4-7-7.34-3-.56-5 .86-6.63 4.65-.37.86-3.82 13.94-5 19.65-1.07 5-3.09 9.74-3.72 15-1.35 11.36-4.28 22.6-4.81 34-.34 7.44-2.2 14.28-4.1 21.2-1.11 4.08.2 7 2.68 9.67a6.31 6.31 0 0 0 9.49-.05z" fill="#0e5256"></path><path d="m1816 903.37c-15.7 2-17.61-2.47-18.24-13.15s-6.34-32.09-9.72-41.91a550.2 550.2 0 0 0 -31.51-72.53c-6.2-12-11.18-24.85-18.78-36.06-47.65-70.22-99.11-104.09-116.21-114.1-22.19-13-44.28-26.16-68.32-35.54-6.29-2.46-13-4-19.52-5.69-5-1.29-10.11-2.08-15.13-3.29-.56-.13-.82-1.53-1.21-2.34 5.27-2.09 7.35-7.39 10.51-11.35s15.18-25.5 18-32c5.45-12.6 18.32-39.69 25.23-84s6-83.16 3.14-109.27a152.37 152.37 0 0 0 -4-23.76c-3-11.13-6.64-22.1-10-33.13-.91-2.93-1.84-5.85-3-8.7-1.73-4.4-8.44-34.32-17.08-31.17s-1.59 28.3 1.29 38.2c2 6.75 9.95 28.18 13.53 56.38 3.88 30.55 3.17 68.64-.4 93.46-3.44 23.89-12 60.13-12.2 61.27-1.1 5.27-13.42 48-19 45.53s14.91-53.7 17.07-101.08-.34-79.35-1.2-85.7c-1.13-8.43-2.68-16.79-4.19-25.16-1.64-9.05-3.11-18.15-5.24-27.09-3.29-13.77-6.79-27.5-10.74-41.09-5.79-19.93-13-39.24-26.09-55.85-5.81-7.38-13.49-12.56-20.62-18.34a33.43 33.43 0 0 0 -7.89-4.33 16.2 16.2 0 0 0 -3.4-1.51h-.07a31.77 31.77 0 0 0 -4.3-1.21c-20.34-4-38.52 10.44-43.76 14.67l-.09.06-.27.22c-4.84 3.91-4.65 4.27-8.44 7.77s-12.51 1.86-15.13 1c-.35-.12-.5 0-.74 0-5.63-1.29-10.88-.18-17 4.83a42.62 42.62 0 0 0 -8.85 9.35c-13 20-23.39 41.28-29.52 64.42-4 15.05-7.82 30.15-11.19 45.35-2.09 9.45-12.76 62.4-14.85 114.81-1.27 31.75 5.29 72.63 7.32 81.6 2.14 9.42 3.91 19.21 7.95 27.85 5 10.7 8.2 22.89 19 30.12 2.11 1.41 1.49 3.6-.87 4.88-7.09 3.85-14.76 3.26-22.33 2.55-1.8-.17-3.85-2-5.06-3.56-4.12-5.45-8.09-11-11.82-16.78-8.16-12.57-16.64-25-24-38-7.16-12.59-14.12-25.4-18.64-39.28-4.61-14.17-14.89-38.38-15.4-84.42-.2-18.13 3.68-42.74-6.86-45.24s-14.92 49.5-8.48 85 19.75 68.26 28.89 87.32c7.44 15.52 16.77 29.9 25.75 44.51.74 1.19 16.82 19.72 8.08 21.89s-13.39 2.92-20 4.67c-3 .78-5.69-.86-7.59-3.06-4-4.65-7.85-9.47-11.6-14.35-2.16-2.8-3.88-5.94-6-8.79a430 430 0 0 1 -33.54-53.12c-9.77-18.25-21.36-45.83-23.63-57.12s-3.21-25-10.13-24.75-14.48 6.05-5.64 38.56 18.16 52 28.91 70.07c11.67 19.61 23.77 39 39.8 55.45a9.8 9.8 0 0 1 1.89 2.15c.68 1.31 1 2.84-.74 3.64a60.27 60.27 0 0 1 -7.16 3c-4.45 1.4-44.8 18.75-60.68 25.72a524.24 524.24 0 0 0 -66.18 35.15 484.57 484.57 0 0 0 -48 33.8c-9.34 7.51-23.43 14.15-46.93 43.63a289.52 289.52 0 0 0 -27.87 42v-.06l-.22.45c-1.37 2.54-2.58 4.85-3.61 6.93a52.4 52.4 0 0 1 -4.32 6.67c-4.1 5.13-12.39 7-20.51 8.55-31.45 6.15-43.18 45.65-45.32 55.56-1.89 8.77-3.58 17.59-5.16 26.42-1.62 9.1-6.92 48.72-2.2 80.54 1.51 10.15 5.14 23 11.42 31 7.31 9.25 14.89 18.25 23.66 26.13 9.5 8.53 15.79 19 19.79 31a212.63 212.63 0 0 0 17.91 39.38 22.86 22.86 0 0 0 5.35 6.37 45 45 0 0 1 8.21 9.77c1.89 2.82 1.21 4.66-1.17 7.22a21.89 21.89 0 0 1 -7.66 5c-7.51 3.3-15 6.69-22.18 10.68-4.49 2.51-8.26 6.29-12.52 9.26-3.06 2.15-6.14 4.43-10.19 4.56-3.17.11-6.25-.62-9.53-.24s-7-.71-10.44-1.44c-8.25-1.75-16.38-4.32-24.71-5.35a124.26 124.26 0 0 1 -24-5.58c-5.75-1.91-10.44-1.13-15.36 1.43s-7.05 11.6-3.57 16q9 11.46 18.31 22.65c1.88 2.26 3.42 4.51 3.51 7.55.12 4-26.11 16.41-29.32 18.4-11.35 7-22.78 13.89-34.2 20.79-22.41 13.56-126.92 82.18-139.93 91.15-8.27 5.7-16.15 12-24.06 18.14-10.92 8.55-21.58 17.45-32.6 25.87-9.67 7.39-19.77 14.2-29.51 21.49-9.56 7.16-18.8 14.76-28.37 21.9a538.83 538.83 0 0 0 -43.3 35.51c-7 6.48-14.14 13.06-22 18.48-21.06 14.57-40.85 30.77-61.06 46.42-13.29 10.3-14.58 26.85-3.14 38.92 2.49 2.62 5 5.23 7.6 7.71 11 10.43 21.23 21.46 30 33.93 11.23 16 25.79 29.06 39.8 42.55 9 8.67 18.46 17 26.73 26.28a269.63 269.63 0 0 0 37.36 34.8 472 472 0 0 1 39.61 34.44 190.7 190.7 0 0 0 33.44 25.82c21 12.74 41.46 26.35 61.11 41.11 13.81 10.38 28.49 18.85 45.29 23.43 9.58 2.6 19.25 5 28.56 8.46 14.45 5.31 28.62 11.37 42.92 17.11 17 6.82 34.64 10.92 52.61 14 10 1.71 19.88 3.73 29.8 5.67 4.84 1 9.66 2 14.47 3.08 2 .45 1.83 2.14 1.18 3.39-1.08 2.09-2.72 3.89-3.8 6-2.66 5.16-1.47 9.52 3 13.14 3.7 3 7.53 5.91 10.67 9.44 5 5.58 4.4 7.3.12 12.21-7.55 8.66-14.92 17.36-19.84 27.89-1.59 3.4-3.84 6.48-5.63 9.8-3.15 5.87-5.89 12-9.32 17.67-7.86 13.07-15.93 26-22.48 39.81-3.76 7.9-8 15.58-12 23.35-3.2 6.13-6.59 12.17-9.56 18.41-1.41 3-6.82 10.33-7.3 11.61-3.14 8.55-1.5 15.9 4.37 20.63 2 1.58 11.91 5 22.24 7.55s19.32 2 22.55-2.57 4.83-9.44 4.41-16.3c-.32-5-.12-10.1-.05-15.15.05-4 .28-9.06 5-9.52s13.7 32.6 17 38.82c2.73 5.12 6.57 8.7 12.09 10.14 1.81.47 42.87 7.63 53.65 8.59 15 1.33 83.34 5.4 92.42-1.37 5.28-3.94 7.57-10.68 8-16.38.34-4.1-4.42-44.12-6.6-50.84-3.45-10.64-5.6-16.1-22-20.5s-40.29 3.51-50.73 6.61c-9.55 2.84-59.11 11.16-62.23.83s8.9-50 10.37-54.88c5.49-18.28 14.33-35.17 24-51.68 1.45-2.47 5.94-10 9.48-16.73 7.36-14 7.36-14 19.88-12.45 5.54.7 25 3 30.37 4.06 9 1.74 18 3.9 27.08 5.26 8.18 1.22 27.93 3.85 29.6 3.92 2.58.11 5.17.15 7.75.1 7.44-.12 66.32 1 72.23.82 17.48-.69 113.63-3.86 121.23-4.34 3.3-.21 29.75-2.83 38.56-3.69s17.94 17.77 22.29 22.42c5.39 5.74 9.75 12.22 8.22 21-.67 3.82-11.91 26.86-15.52 33.81-6.83 13.14-15.18 25.37-23.93 37.31-4.65 6.33-23.56 34.66-29.85 41.51-3.85 4.2-5.73 9.72-4.15 15.23 1.65 5.76 3.34 11.21 16.52 13.3s18.13-1.12 23-8.92 11.84-18.08 13.87-22.11c1.7-3.36 3.76-6.54 5.71-9.77.33-.55.86-1.24 1.4-1.36 1-.21 2.26-2.42 3 .46.63 2.48 19.28 38.13 23.75 45s11.11 6.78 25.67 8 42.92.55 62 1.17 47.38.92 57.55-7.81c4.15-3.57 5.59-7.54 7.17-16s9.16-36.79 7.24-52.7-12.54-21.6-25.27-20.24-36.61 11.8-54.33 17.9-39.61 10.91-51.91 4.49-14.83-11.27-15.63-20.92c-.91-11.13-.83-22.43 2.52-33.38 1.79-5.86 16.4-37 20.34-42.82 2.3-3.4 1.38-6.4-.91-9.06s-4.83-4.68-7.21-7.06c-2.23-2.24-4.36-4.58-6.57-6.85-1.69-1.74-1.49-2.92 1-3.47 4.1-.91 42.72-4 46-4.5 1.79-.25 60.71-4.69 66.8-5.58 9.41-1.38 32.31-1.75 46.07-5.27 16-4.08-12.83-66.41-19.5-81.37-3.58-8-7.4-16-10.12-24.31-6.53-20-12.64-40.07-18.57-60.22a82.73 82.73 0 0 1 -1.21-43.8c2.51-10 6.22-26.34 8.21-34.91s4.56-8.86 9.45-8c2.75.48 5.43 1.86 8.15 1.9 5.08.09 10.55-.87 13.28-5.37 3.48-5.74 4.82-13.38 6.43-19s3.58-12.11 11.6-14 21.66-6.14 29-7.86c11.05-2.59 19.71 3.11 26.5 11.86a161.4 161.4 0 0 0 10.77 12.21c7.79 8.2 15.64 16.33 23.41 24.53a36.61 36.61 0 0 0 13.46 8.46c8 2.74 22.11-4 22.87-12.3.41-4.56-10.73-20.8-21.34-33.78-6-7.41-9.29-9.33-12.91-13.21-.37-.41-5-4.25-3-5.47s4.92 2.23 5.68 2.89c2.78 2.42 5.48 4.74 8.72 7.06 7.25 5.2 14.15 10 21.72 14.7 5.78 3.63 12.88 7 18.5 10.81 5.27 3.63 11.11 3.36 17 2.87s12.16-8.73 9.83-16.93a32.15 32.15 0 0 0 -5.48-10.74 134 134 0 0 0 -17-17.6c-3.17-2.62-15.3-10.45-26.36-16.92-2.87-1.68-6.58-4.81-7.53-6.87s.88-3.24 2.28-2.57c2.13 1 5.12 2.41 8.61 4 14.9 6.9 38.88 17.82 43.24 19.75 7.59 3.34 15.51 6.12 24.07 4.94 9.37-1.28 14.44-7.64 14.25-15.41-.25-10.47-4.39-15.62-10.72-20.07-5.38-3.78-32.18-15.68-39.93-19-2.5-1.06-5-2.06-7.56-3-1.63-.63-11.78-5-10.05-7.35s11 2.12 12 2.45c10.34 3.43 20 6.47 21.79 7.39 5.68 3 12 4 17.8 6.32s12.12 2.49 18.33 2.14c5.09-.29 13-3.91 15-10.9s-2.49-17.07-12.57-24.93c-12.11-9.42-75-32.67-79.44-36s7.17-7.13 17-21.73c3.8-5.64 5.65-16.22-6.2-22.3-7.73-4-25.81-.12-34 2.07-14.48 3.86-66.67 29.88-79.77 37s-24.82 9.5-31.68 6.51c-5.36-2.33-10.9-4.75-16.6-5.68-4.82-.78-6.45-3.28-7.34-7.22a21.79 21.79 0 0 1 -.85-5.56c.53-13.4-.37-26.76 1-40.23a123 123 0 0 0 -.79-33c-2-11.86.39-23.91 1.57-35.77.87-8.77 1.64-17.46 1.19-26.23-.38-7.38 0-14.75-1.46-22.14-1.5-7.63-1.17-15.57-3-23.2-.84-3.41-1.93-6.75-2.75-10.16s.08-4.74 3.3-6c12.28-4.84 24.61-9.57 36.83-14.55 18.68-7.6 91.26-48.39 106.92-59.8 53.15-38.71 95.7-87.18 103.91-94.58 11.54-10.39 25-20.13 32.15-33.88 9.09-17.57 15.75-36 21.33-54.92 3.93-13.25 6.54-26.75 5.9-40.7-.15-3.36.16-17.34-.88-20.79-2.76-8.69-12.31-17.13-21.6-15.93zm-860.51-30.6a339.36 339.36 0 0 0 -6.49 40.71c-.56 9.54-.65 19.09-1.56 28.64-.93 9.73.09 61.19-1.41 65.55-1.77 5.16-3.87 6.25-7.87 2.19-2.23-2.27-16.6-16.28-18-52s6.58-58.14 8.55-66.88c3-13.54 6.9-26.74 14.95-38.24 6.23-7.73 15.31-8.87 14.33-1-1 8.2-2.56 21-2.56 21zm609.77 672.39c.47-1.58 1.38-3.1 1.52-4.7.63-6.87 1.34-13.76 1.46-20.66.18-9.79 2.46-34 2.7-38.11.59-10.1 11.12-13.66 19.84-18.46s42.65-20.66 55.8-27c8-3.88 16.18-7.63 24.5-10.86a85.31 85.31 0 0 1 15.74-3.56c.24 0 4.8-1.18 5.47 1.75.73 3.18 0 5.37-2.55 6.73-3.74 2-7.63 3.77-11.37 5.8-11 6-21.9 12.08-32.92 18-10 5.37-20 10.9-30.25 15.78-5.67 2.69-10.86 6.74-15.59 10.93-5.2 4.62-3 12.14 3.46 14.66a13.9 13.9 0 0 0 10.73-.55c5.11-2.21 29.3-20.68 36.57-24.61 4.35-2.35 8.67-4.76 13-7.19a5.81 5.81 0 0 1 6.7.33c6.57 4.49 14.45 5.24 21.78 7.59s14.17 5.27 21.14 8.19c6.3 2.65 12.38 5.82 18.7 8.41 6.94 2.83 14.06 5.23 21.08 7.86 6.36 2.39 20.48 7.19 16.66 13-1.72 2.6-14.35.37-27.8-4.48-16.37-5.9-38.41-13-42.26-14.58-5.82-2.34-32.52-11-38-.28s-2 19.23 15.59 28.29c7.35 3.78 15.36 6.17 22.85 9.64 6 2.77 12.33 4.73 18.32 7.49q13.37 6.17 26.43 13c3.88 2 9.46 5.72 7 10.12s-23.28-7.38-33.88-12.93c-3.09-1.61-9.57-4.22-12.85-5.48-12.82-5-23.39-10.27-36.07-15.56-6.47-2.71-18.8-2.23-22.54 2.53s-2.58 13.26 3.71 16.9c10.69 6.17 30 19.16 39.65 27.42s13 12.26 17.53 16a120.06 120.06 0 0 1 10.37 9.94 3.48 3.48 0 0 1 .57 3.23c-.4.7-2 .84-3.11 1a3.35 3.35 0 0 1 -2-.54c-5.55-3.54-11.14-7-16.59-10.74-3.9-2.64-7.61-5.57-11.4-8.37-5.31-3.91-10.77-7.64-15.89-11.78-9-7.25-18-14.28-28.18-19.84a92.94 92.94 0 0 1 -10.5-7.2c-4.25-3.15-8.57-4.49-13.76-2.17-4.28 1.92-6.46 4.76-4.85 8.86 1.35 3.44 3.29 7.06 6 9.48 5.31 4.76 9.39 10.22 13.36 16.11a133.93 133.93 0 0 0 17 20.08c8.56 8.42 19.82 24.62 21.24 28.3s-1.84 4-3 3.65a8.27 8.27 0 0 1 -3.32-2.62c-8.31-9.18-16.11-18.87-25-27.51-9.08-8.88-34.16-37.79-40.81-39.69-3.09-.89-5.63-1-8.65 1.1-4.57 3.25-9.74 5.7-14.77 8.28a11.84 11.84 0 0 1 -5.38 1.37c-5.43-.1-8.06-2.82-7.18-8.15.74-4.86 2.54-9.5 3.95-14.2zm-130.35-1346.84c4.08-3.65 9.93-2.49 13.37-.8a37.16 37.16 0 0 1 14.94 7.34c8.5 7.12 16.85 19.34 20.21 25.2 8 13.92 13.43 28.8 18.67 43.87 8.73 25.16 19 74.3 21.31 112.64a396.39 396.39 0 0 1 -1.61 69c-1.38 9.6-2.71 19.2-4.2 28.78-1 6.76-2 13.57-3.54 20.23-2.35 10.11-5.48 20-7.74 30.17-1.86 8.37-12.19 39.59-20.44 37.13s-.36-12.77 1.11-16.69c3.46-9.23 7.08-18.35 9.79-27.9a427.83 427.83 0 0 0 12.12-61.09c1.34-10.15 1.46-20.51 1.53-30.78.13-19.36 1-38.76-2.77-57.95-1.81-9.27-2.82-18.71-4.89-27.91-2.85-12.65-6.11-25.23-9.65-37.71-7.19-25.38-18.17-49-34.25-70-8.29-10.86-16.59-21.71-24.53-32.83-3.17-4.86-3.11-7.42.57-10.7zm-24.38 9.68c3.8.59 7 6.38 7 6.38h.1c2.13 3.78 4.21 7.59 6.45 11.31 4.19 6.93 8.3 13.95 13.06 20.47a230.4 230.4 0 0 1 24.86 42.41c7.7 17.34 13.12 35.48 17.93 53.78s7.17 37.2 8.71 56.06c1.15 14-.45 74.66-3.69 99.73s-12.56 54.69-13.64 58.78c-.12.48-.9.8-1.38 1.19a8.06 8.06 0 0 1 -1.16-1.47 3.09 3.09 0 0 1 -.09-1.43c.76-14.8 3.06-85.31 2.82-93.25s.44-62.57-6-96.93-25.82-87.65-36-109.61c-5.16-11.19-11.2-22-17.21-32.78a47.58 47.58 0 0 0 -4.85-6.88c-.07-.12.08-.09 0-.24-3.37-4.63-.7-8.15 3.09-7.52zm-24.32 12.65c8 0 13.8 17.57 17.56 26.87 6.78 16.82 14.69 33.15 20.65 50.32 5.58 16.08 11.08 32.08 14 48.94 1.89 10.93 4.47 21.72 5.69 32.79 1 8.91 3.05 17.71 4.11 26.62 1 8.28 1.28 16.63 1.88 25 2.38 26.36 1.17 134.78 1.05 141.43a19 19 0 0 1 -1.46 6.1 1.66 1.66 0 0 1 -3.18.1c-1-2-9.24-60-11.25-71.12-1.36-7.62-7.77-40.43-9.47-49.24-1.66-8.57-3.13-17.17-4.8-25.74-2.52-13-4.82-26-7.79-38.85-4.78-20.67-10.22-41.18-15-61.85-2.45-10.57-4-21.35-6.12-32-.83-4.12-5-28.3-7.22-48.9-1.73-16.43-2.18-30.52 1.35-30.52zm-40 82c2.25-10.27 9.5-47.64 14.09-50.8a4.92 4.92 0 0 1 3.31-.61c.45.08.94 1.53 1 2.37.18 5 4.38 35.75 6 44.81 2.64 14.6 6.57 28.92 8.77 43.66 1.51 10.15 11.36 48.47 12.83 57.81 2.58 16.3 5 32.62 8.21 48.84 4.36 22.22 9.1 44.32 14.47 66.31 2 8.24 7.62 38.24 10.76 44.27 1.44 2.77 1.72 5.43 0 8.05s-2.89 2.46-5.7.85c-7.71-4.43-18.72-13.89-31.84-47.72s-15.29-37.6-19.1-57.71c-1.84-9.72-8.91-44.84-10-52.8-.88-6.31-2.7-29-2.7-34.07h-.31c0-7.33-1.25-36.68-1.42-44 0-1.67-.3-3.51.28-5 2.27-5.68-.17-10.35-4.52-12.71-5.45-3-5.09-7.36-4.17-11.55zm-8 235.55c-5.34-13.45-8.11-27.63-11-41.73-1.83-9-1.61-18.09-1.52-27.19.07-6.73 0-13.47 0-20.21 0-8.42 2.77-50.28 3.72-62.75.86-11.18 6.92-46.38 8-53.12.07-.45.93-.78 1.42-1.16.38.5 1 1 1.09 1.51a49.94 49.94 0 0 1 .12 5.05c0 12-.19 24.06.06 36.08.22 10.75.38 21.55 1.56 32.21 1 9 1.41 18 2.86 26.91 4.86 29.63 11.39 58.87 21.42 87.27a229.71 229.71 0 0 0 17.63 37.35c4 7 8 14.72 16.09 18.54a4.18 4.18 0 0 1 1.51 1.53 2.82 2.82 0 0 1 .64 1.86 1.91 1.91 0 0 1 -1.55 1c-2.82-.16-18 .87-33.22-5.53s-18.76-12.27-28.83-37.62zm-360 983.45c-1.48 2.68-3.22 5.21-4.71 7.88-2.51 4.48-5.21 8.89-7.25 13.57-1.51 3.45-4 5.89-6.45 8.46-3.17 3.27-15.28 21.57-17.86 27.52-1 2.43-2.56 3.8-4.21 4-3.69.45-36.85-4.22-45.54-5.11-12.29-1.25-24.29-3.89-36.29-6.31-19.2-3.88-38.17-8.91-56.24-16.78-16.53-7.2-33.14-14.22-49.69-21.36-2.19-1-18.74-8.38-19.75-9.32-2.65-2.44-5.23-5-7.64-7.66a6.38 6.38 0 0 1 -1.68-3.71c-.14-4.73-.48-9.48 1.31-14.12.91-2.36 9-34.19 12.69-46 4.45-14.13 10.79-27.27 17.6-40.31 8.63-16.51 19.71-31.53 28.8-47.71 8.72-15.52 20-29.14 30.68-43.14 6.12-8 13.19-15.21 19.71-22.88 4.64-5.47 9-11.22 13.65-16.65 7.05-8.16 14.29-16.17 21.47-24.22 4.39-4.93 9.08-9.6 13.14-14.78 2.73-3.49 4.58-7.67 6.85-11.53a18.65 18.65 0 0 1 2-2.89c3.93-4.45 5.52-4.71 10.42-1.21a24.23 24.23 0 0 1 5.16 5c9.47 12.51 21.7 22.34 32.43 33.63 3 3.14 7.28 4.83 10 8.52a9.75 9.75 0 0 1 2 5.86c.2 3.76-1.07 20.94-2.31 24.71a23.14 23.14 0 0 0 -.62 4.19c-1.09 8-2 15.94-3.32 23.88-1.11 7-2.57 13.91-3.89 20.85-1.63 8.57-3.14 17.16-5 25.69-.93 4.35-2.5 8.55-3.56 12.87a15.13 15.13 0 0 0 -.12 5c.23 2.19 1.12 4.22-1.29 6.05s-5.08 4.5-8.17 3.48c-6.62-2.18-13.3-1.21-19.92-1.17-9 .07-18.08.63-27.09 1.44a89.91 89.91 0 0 0 -16.62 3c-4.18 1.21-8.62 2.66-10.79 7.33-1.74 3.73-1 7.88 2.56 9.72a15.84 15.84 0 0 0 6.79 1.58c9.86.16 19.73.07 29.59.07 8.06 0 16.19-.68 24.17.13 22.28 2.24 44.58.71 66.86 1.42 5.12.16 33.81 2.85 42.65 3.78 5.21.55 4.07 6.85 3.22 8.37-2.3 4.11-4.22 8.75-7.52 11.9-6.11 5.81-9.41 13.16-12 20.6s-13.17 26.1-14.6 28.53c-3.35 5.79-6.38 11.88-9.65 17.83zm196.88 42.79c-3.53 3.63-4 4-8.56 1.53a104.81 104.81 0 0 1 -12-7.46c-13.45-9.88-26.84-19.84-38.26-32.16-5-5.44-50.15-35.13-56.7-35.26-6.83-.14-10.53 6.27-6.6 11.79a24.94 24.94 0 0 0 9 7.84c7.51 3.63 30.54 22.37 32.2 24 9.65 9.57 19.32 19.12 28.84 28.83 2.64 2.7 4.87 5.81 7.32 8.7 2.69 3.17 5.3 6.42 8.17 9.41 1.81 1.89 13 18.89 6.77 23.31s-16.06-3.46-19.58-7.53-42.79-41.06-49.49-46.83c-4.54-3.9-8.19-8.76-12.94-12.59a47.9 47.9 0 0 0 -10.81-6.6 72.58 72.58 0 0 1 -9.88-5.29c-2.87-1.86-6.6-2.62-8.54-1.12a7.28 7.28 0 0 0 -1.36 9.49 31 31 0 0 0 6.12 5.75c4.87 3.76 25.83 24.64 32.18 30.58.17.17.41.26.57.43 4.43 4.81 8.89 9.58 13.25 14.45 3.48 3.91 6.63 8.13 10.29 11.85a58.06 58.06 0 0 1 11.51 15.79c1.32 2.78 7.82 16.77 1.44 22.84s-19.89-9.55-23.24-13.22c-8.35-9.16-18-23.16-18.81-24.81a57.46 57.46 0 0 0 -9.37-13.29c-4.9-5.43-9.23-11.39-13.82-17.12-1.33-1.66-2.69-3.29-4-4.93-2.26-2.74-4.55-5.46-6.8-8.21-4.71-5.75-11.1-8.75-18-10.77-2.19-.63-5.74 3.42-5.9 6.48-.25 4.77 2.28 8.79 4.72 12.27s19.53 18.24 25.29 33.05 17.38 48.72 11 51.29-10.4-8.93-12.45-11.66c-4.1-5.47-9.34-10.47-11.93-16.58s-6.46-11.43-9.58-17.18c-1.68-3.09-7.51-13.69-8.42-16.08-.58-1.54-14.7-26.88-19-30.45-2.51-2.06-3-4.33-2-7.6 2.44-8.09 20.65-36.85 23-41.4.86-1.67 15.44-26.87 18.47-34.17.09-.22 8.22-14.33 12.67-20.9 3.18-4.69 6.81-7.49 12.75-7.54 6.38-.06 55.61-1 69.07-1.49 6.26-.21 21 2 20.56 9.71s-36.59 6.85-42.91 6.91c-10.53.09-20.94-1.07-24.64-.66a39.06 39.06 0 0 0 -8.3 1.51c-5.54 1.89-6.51 6.3-2.35 10.3 1.51 1.45 3.33 3.21 5.22 3.5 3.41.53 6 2.48 9 3.69 4.67 1.88 34.39 15.37 51.59 28s38.75 37.42 43.22 46.28c1.15 2.28 2.46 4.49 3.5 6.82s.43 4.51-1.51 6.5zm233.48-297.2c-2 2.2-16.39 14.7-21.67 18.49-2.65 1.91-5.77 3.15-8.47 5a220.54 220.54 0 0 1 -46.33 23.6c-19 7.19-76.93 25.26-105.55 25.26s-58.28-9.55-61.17-10.56c-5.48-1.91-10.57-5-15.77-7.7-1.34-.69-1.33-1.94 0-2.66 1.64-.89 26.25-6.93 31.5-9.58 11.24-5.67 22.34-11.73 34.67-14.79 8.22-2 16.56-3.65 24.88-5.28 7.88-1.55 15.77-3.07 23.72-4.22 5.85-.85 11.81-.93 17.69-1.62a58.34 58.34 0 0 0 10.32-2.12c3.3-1 5-4.86 4.46-8.67-.45-3-2.8-4.77-6.63-5.17-1.85-.19-18.42 1.56-21.31 1.49-2.64-.07-5.29 0-7.93 0-8.83-.18-17.39 1.62-26 3.34-9 1.81-18 3.62-27.08 5.33q-11.82 2.22-23.7 4.18a35.62 35.62 0 0 1 -5.76.15c-15.15 0-30.31.11-45.46 0a183.07 183.07 0 0 0 -31.26 2.74c-7 1.15-14.24 1.1-21.36 1.64-4.29.32-24.51.06-27.82 0-9.55 0-18.91-1.49-28.34-2.81a126.37 126.37 0 0 1 -28.63-7.66c-11.66-4.57-21.89-11.6-31.92-18.89-18.17-13.2-33.18-29.79-48.65-45.88-1.49-1.54-17.73-20.07-20.31-23.1a37.62 37.62 0 0 1 -4.81-7 1.89 1.89 0 0 1 1.94-2.89c7.13.43 34.63 4.35 41.19 5.29 7.1 1 13.81 3 20.63 4.73 7.07 1.84 14.08 4 21.18 5.71 6.86 1.66 13.76 3.19 20.71 4.38 17.21 3 34.24 6.73 51.23 10.69 8.49 2 17.08 3.49 25.61 5.25 7.83 1.61 15.65 3.26 23.47 4.9 1.38.29 22.52 2.78 24.51 1.57 6.59-4 13-2.14 19.11.22 9.83 3.82 19.59 7.78 29.63 11.06 3.11 1 27.83 10.87 29.9 13.63.78 1 .65 1.73-.28 2.23-1.65.88-3.4 2.22-5.11 2.23-5.21 0-60.8 1.43-73.81-.1s-25.91-2.29-38.64-5.31c-5-1.2-10.47-.69-15.54-1.77-7.12-1.54-45.26-2.16-57.17-2.73a11.91 11.91 0 0 0 -4.84.8c-3.78 1.5-4.92 4.81-3.13 8.47 2 4.07 26.3 9.34 32.92 9.6 4 .16 27.21 2.78 28.41 2.84 8.06.37 34 3.74 38.9 4 17.44 1.06 100.2-2.42 107-3.64a33.07 33.07 0 0 1 5.72-.39h40.41c4.51 0 98.8 3.9 114 4.31 1.86.05 34.49-.88 39.43-1.32a2.13 2.13 0 0 1 1.75.81 2.2 2.2 0 0 1 -.47 1.92zm122.15 208.14c1.3-8 2.12-8.59 10.06-6 7 2.3 8.42 3.82 8.6 10.93.2 7.68-2.85 46.79-4.21 58.66-.22 1.9-2.75 17.58-3.69 21.42-1.88 7.69-10.25 43-15 44.69-1.76.63-8.44.25-8.92-2.08a36.45 36.45 0 0 1 -1.2-5.43c-.19-3.84 5.06-56.17 5.77-63.48.53-5.39 1.64-10.72 2.41-16.08.67-4.68 5.06-35.91 6.15-42.63zm251.42-492.78c-1.67 11-3.59 21.92-6 32.76-4.72 20.82-13.63 39.57-28.14 55.32a402.13 402.13 0 0 1 -46.25 43.29q-20 15.79-40 31.6a326.77 326.77 0 0 1 -45.76 30.62c-26.34 14.38-54 26-81.22 38.55-6.37 2.93-61.41 17.32-66.13 18.8-12.21 3.84-24.83 5.93-37.47 7.58-6.83.88-41.51 3.16-51.9 4.32-10.2 1.12-20.51 1.15-30.78 1.56-3.6.15-54.35-1.67-55.29-1.8-6.09-.84-12.18-1.69-18.27-2.5-4.93-.65-10-.89-14.79-2-11.52-2.52-23-5.23-34.43-8.21-16.07-4.19-31.75-9.5-46.35-17.63-9.37-5.22-18.67-10.6-28.26-15.38-23.6-11.75-47.4-23.1-71-34.81-6.38-3.17-12.49-6.92-18.56-10.67a369.25 369.25 0 0 1 -45.48-33.66 116.83 116.83 0 0 1 -18.47-20c-8.81-12-14.3-25.71-20.05-39.32-3.55-8.39-4.9-17.27-6.89-26-1.25-5.52-5.07-30.33-5.79-37.15-.91-8.6-.27-46 1.62-54.52 1-4.78 8.44-58.79 8.47-64.77 0 0 4.6-21.45 6.31-30s7.59-18.34 10.49-23.6c3.29-4.79 8.14-17.54 8.54-18.37 2.59-5.34 4.7-11 8-15.88 4.9-7.32 9.94-14.75 16.13-20.94 12.56-12.56 25.8-24.45 39-36.37a288.49 288.49 0 0 1 39.21-30.1c10.27-6.49 20.45-13.13 30.76-19.56 6.26-3.91 12.53-7.88 19.08-11.25 24.48-12.6 49.12-24.88 74.94-34.61 2.93-1.1 22.47-10.7 24.9-11.56 5.08-1.78 10.24-3.34 15.38-4.93 1.33-.42 2.82-1 4.08-.77a5.33 5.33 0 0 1 3.07 2.42c.26.45-.87 2.23-1.74 2.69-4.75 2.55-9.58 5-14.45 7.26-3.56 1.7-7.22 3.21-10.85 4.75-5.63 2.38-11.52 4.26-16.88 7.13-16 8.55-32.07 17-47.57 26.36-26.33 15.92-49.73 35.7-71.72 57.13-11.71 11.42-23.2 23.08-34.72 34.7-12.36 12.46-38.9 54.66-41 60.29-2 5.34-.45 8.32 4.07 10.81 4 2.21 11.91-1 14.33-5.62 3.45-6.66 6.79-13.41 10.66-19.82a218.72 218.72 0 0 1 33.19-42.27c3.58-3.56 6.91-7.37 10.46-11 4.87-5 9.66-10 14.82-14.68 7.84-7.06 16.06-13.69 23.92-20.72 9.65-8.63 19.62-16.82 30.68-23.53 15.69-9.52 31.4-19 47.38-28 9.57-5.39 49.91-23.78 55.21-26.28 1.87-.88 20.26-8.68 26.15-11.55 2.89-1.42 6.2-2 9.36-2.81.4-.1 1.12.8 1.57 1.34a1 1 0 0 1 -.11 1c-5.45 2.7-34.28 22.51-44 28.65-4 2.53-7.44 5.9-11.13 8.9-9.1 7.39-18.71 14.25-27.19 22.3-23.35 22.16-46.07 45-65.36 70.89-9.69 13-19.51 26-28.75 39.3-4.91 7.08-9.28 14.52-13.81 21.86-1.65 2.67-8.89 15.39-2.54 18.3s14.3-5.91 17.86-10.43c6.6-8.4 12.63-17.27 18.57-26.16 8.24-12.33 16.85-24.36 26.26-35.84 6.82-8.32 13.24-17 20.09-25.26s13.67-16.73 21.21-24.41c6.52-6.65 13.93-12.45 21.13-18.41 10.88-9 21.6-18.26 33-26.63 16.64-12.26 34-23.53 50.68-35.73 16.39-12 .66-11.72 12.11-19.19 13.38-8.72 19.21-12.74 26.37-12.74s12.43 2.6 5 10.12c-10.51 10.65-24 24-27.52 27.62-19 19.07-37.8 38.3-54.86 59.16-11.52 14.1-23.48 27.84-34.65 42.2-9.64 12.4-19.38 24.85-25.34 39.66-.32.78-1.14 1.33-1.6 2.07-1.34 2.19-3.47 4.32-3.73 6.65-.44 4-2.57 7.07-3.86 10.58a9 9 0 0 0 -.31 5.42c1.87 6.07 10.57 6.3 13.86 2a76.68 76.68 0 0 0 4.42-7.23c3.74-6.22 6.17-13.07 10.1-19.24 17.12-26.86 35.69-52.62 57.09-76.24 12.58-13.89 25.64-27.36 38.5-41 3.28-3.48 26.88-27.41 29.28-29.68 3.85-3.63 7.48-7.49 11.3-11.16.79-.76 2.5-1.8 2.88-1.51 1.37 1 3.77.84 3.88 3.6.15 3.78-.18 5.16-2.66 6.17-4.14 1.7-23.48 19.83-27.4 24.91-3.68 4.79-7.67 9.34-11.19 14.24-3.85 5.37-7.11 11.17-11 16.5-17.92 24.58-31.06 51.72-43.22 79.44-5.3 12.09-14.24 44.63-14.13 48.43 0 .91 1.26 2 2.21 2.63 7 4.51 18.17-.79 19.37-9 .74-5.13 17.74-48.81 24.74-64.11a360.29 360.29 0 0 1 18.1-34c6.08-10.24 13.42-19.73 19.7-29.86a113.39 113.39 0 0 1 18-22.22 85 85 0 0 0 7.33-8.69 5.55 5.55 0 0 1 6.37-2.07c2.81.81 4.17 13.14 9.39 53.11s4.61 82.59 4.45 90c-.2 9.52-.86 19-1.42 28.55a14.15 14.15 0 0 1 -1 3.35 10.3 10.3 0 0 0 1.38 8.86c1.29 2.09 5 3.9 6.57 3 4-2.13 8-4.45 9.12-9.35 1.06-4.56 5.2-49.18 1.77-98.81s-17.78-100.29-19.33-104.93a25.18 25.18 0 0 1 -1.19-9.09c.08-2.36 4.69-7.57 8-1.69s17.7 37.1 21.28 44.24c11.06 22.1 19.12 45.43 26.89 68.84a243.34 243.34 0 0 1 8.88 36.42c2 11.71 4.28 23.3 4.12 35.22v.72c.54 5.35 4 8.44 9.44 8.69 2.28.11 3.71-.58 4.24-2.79 1.58-6.61 2.76-36.91 2.45-43-.56-11.24-3.41-22-6.12-32.72-8.51-33.74-22.07-65.48-38.76-95.93-.79-1.44-1.87-2.72-2.78-4.09-3.71-5.56-10.32-17.83-5.36-21.37s10.38 3.73 11.87 5.2c4.76 4.64 8.33 10 11.82 15.74a292.62 292.62 0 0 1 22.38 46.1c5.43 13.92 9.09 28.34 12.3 42.85 2.2 9.9 2.84 20.14 4.66 30.15 1.57 8.68 2.94 17.33 2.73 26.18a14.54 14.54 0 0 0 .08 2.88 158.84 158.84 0 0 1 2.81 31.15c0 3.85-.18 7.71 0 11.55a64.92 64.92 0 0 0 1.39 7.6c.72 3.89 4 4.4 7 5 3.69.7 4.33-.07 6.61-3.84a16.91 16.91 0 0 0 2.49-9.48c0-2.54.09-25.4-.06-28.93-.11-2.4.08-4.82 0-7.22-.43-8.34-7.62-64.58-11.26-74a2.89 2.89 0 0 1 -.13-2.09 6.25 6.25 0 0 1 2.23-2.58c.49-.26 1.87.42 2.36 1.05a12.28 12.28 0 0 1 2.32 4.19c.92 3.39 1.25 7 2.26 10.3 2.45 8.06 4.86 16.16 7.83 24 3.66 9.7 7.86 19.19 11.87 28.75 8.31 19.82 17 39.5 23.65 60a37 37 0 0 0 2.2 5.93c2.67 5.07 5.34 6.31 10.76 5.56 2.23-.31 3.6-1.42 3.62-3.67.07-5 .91-10.32-.22-15.11a164.11 164.11 0 0 0 -8.44-26.91c-8-18.58-16.85-36.75-25.08-55.21-5.79-13-11.53-26-16.52-39.32-5.06-13.48-39.22-68.12-40.61-70.05a9.11 9.11 0 0 1 -1.34-4.55c-.1-1.59 1.15-2.14 2.35-1.16 2.6 2.09 5 4.48 7.52 6.61 6.39 5.28 13.42 9.92 19.12 15.85a228.29 228.29 0 0 1 18.77 23.22c17.12 23.23 34.31 46.43 48.66 71.53 11.2 19.6 22 39.4 28.83 61.07 3.5 11.17 6.77 22.41 10.19 33.6 1 3.41 2.68 6.12 6.5 7.41 4.62 1.56 6.73 1.33 9.09-2.58 2.52-4.16 2-8.71 1.29-13.2a154.33 154.33 0 0 0 -5.18-17.65c-2.06-5-2.76-10.58-4.89-15.54-4.88-11.33-10.12-22.52-15.51-33.62-9.66-19.89-19.19-39.86-31.22-58.49-4.15-6.44-7.86-13.22-12.58-19.2-5.32-6.73-11.67-12.62-17.34-19.09-4.68-5.34-9-11-13.53-16.49-2.26-2.72-14.79-14.73-18.39-18.38-1.59-1.61-2.5-3.94-3.54-6a2.16 2.16 0 0 1 .53-1.91 1.84 1.84 0 0 1 1.77.17c8.49 7.32 17.06 14.55 25.31 22.14 3.65 3.36 6.38 7.71 10 11.17 13.44 13 24.82 27.84 36.18 42.58 10.76 14 20.78 28.61 30.18 43.55 8.75 13.89 16.34 28.51 24.26 42.91 3.55 6.43 6.74 13.07 10 19.67s6.44 12.88 9 19.63a40.35 40.35 0 0 1 2.9 10.11c.73 6.8 4.29 12.34 9.26 16.92.93.85 3.11 1.81 3.65 1.38 2.16-1.69 5.25-3.77 5.53-6 2.32-19-16.66-61.32-24.94-76.77-14.29-26.69-29.11-53.14-45.65-78.52-5.81-8.93-23.24-28.24-24.67-30-7.13-8.83-30.25-32.54-35-34.81a7.09 7.09 0 0 1 -4.21-4.43 23.15 23.15 0 0 1 -.53-2.53c.9-.17 2-.76 2.68-.45 7 3.26 14.31 6.23 19.79 12 5.74 6.07 11.32 12.29 17 18.41 1.72 1.85 3.51 3.65 5.36 5.37 3.23 3 6.72 5.75 9.74 8.95 2.06 2.18 3.38 5 5.25 7.43 7.53 9.58 15.23 19 22.71 28.64 16.6 21.3 31.39 43.76 43.45 68 14 28 28.42 55.83 37.2 86.11 2.16 7.46 7.15 30.39 10.16 33.44 2 2 3.94 3.62 6.89 2.8 2.37-.66 5.45-5 5.55-7.69.08-2.4-.09-4.81 0-7.21.2-3.93-5.44-23-6.84-27-7.44-21.23-14.24-42.73-23.64-63.19-8.65-18.81-17.69-37.44-28.61-55.1a390.53 390.53 0 0 0 -31-43c-4.57-5.56-9.47-10.86-14.47-16-2.63-2.71-6-4.68-8.66-7.38-3.66-3.72-6.76-8-10.46-11.69-3.86-3.86-8.35-7.11-12.19-11s-6.51-9.39-11.79-12.23c-.64-.34-.55-2-.8-3.1 1 .07 2.22-.22 2.91.27 4 2.87 8.24 5.61 11.85 9 5.76 5.39 23.06 16 24.82 17.52 5.38 4.78 10.88 9.45 15.91 14.58 12.29 12.51 24.82 24.85 36.36 38a223.15 223.15 0 0 1 28.76 40.89c7.68 14.26 16 28.17 23.48 42.54 8.65 16.67 15.48 34.16 22.39 51.61 10.21 25.78 15.24 52.65 17.93 80.05.74 7.57.78 15.25 1.16 22.83.57 12.11 1.04 24.31-.82 36.57zm24.93 8.47c-4.32 9.23-12.81 40-17.29 38.91s.15-10.42 1.28-15.79c2-9.52 4.28-23.5 5.73-37.12 2.26-21.28 2.44-41.68 2.5-42.87.22-4.21 1.29-5.44 5-6.16 5.21-1 7.07-.29 9 3.47a5.66 5.66 0 0 1 .78 2c.51 7.42 2.76 14.58 1.74 22.29-1.06 7.92-7.06 31.66-8.74 35.27z" fill="#0e5256"></path></svg> 