<?xml version="1.0" encoding="UTF-8"?> <svg xmlns="http://www.w3.org/2000/svg" id="Snorkfröken_5_Image" data-name="Snorkfröken_5 Image" viewBox="0 0 2400 2400"><defs><style>.cls-1{fill:#fff;}.cls-2{fill:#fef065;}.cls-3{fill:#0e5256;}</style></defs><title>Characters</title><path class="cls-1" d="M760.79,1943.81c2.77-4.14,4.36-13.88,4.31-15.86-.19-9-.65-18-2.72-26.79a74.41,74.41,0,0,1-1.3-10.45c-.21-2.45,0-4.94-.26-7.38-.35-3.09-1.82-3.76-4.1-2a17.49,17.49,0,0,0-3.86,3.61c-10.83,15.91-25.76,28.34-37.11,43.81-1,1.42-2.59,2.44-3.81,3.74-4.88,5.17-9.66,10.44-14.58,15.57-10.05,10.49-20,21.1-30.32,31.31-5.56,5.48-24.55,23.6-28.56,27-5.65,4.78-26.09,22.44-28.75,24.71-4.3,3.67-8.91,7-13.36,10.47-6.93,5.46-13.72,11.11-20.79,16.38-16.74,12.5-15.69,12.66-52.85,33.29s-59,29-65.33,31.35c-5,1.86-16.39-6.27-18.51-7.51-4.6-2.7-16.47-9-45.27-17.11s-41.49-9-66.73-9.76-30.57,1.23-45.54,4.66a38,38,0,0,0-6.84,2.59,2,2,0,0,0-.68,1.79,2.1,2.1,0,0,0,1.23,1.36,15,15,0,0,0,3.14.48c15.25,1.46,30.52,2.82,45.76,4.42,6.72.71,10.79,3.16,9.44,4.81-2.43,3-5.95,2.85-9.62,3.1a152.08,152.08,0,0,0-48.4,11.71c-12.75,5.35-25.56,10.68-37.86,17-7.19,3.66-13.6,9-20.05,13.95-1.74,1.34-3.67,4.51-3.2,6.19.9,3.23,4.24,1.23,6.42.92,6.34-.9,12.8-1.57,18.88-3.43,12.56-3.84,24.88-8.46,37.34-12.61,3.69-1.23,7.57-1.86,11.31-2.92,13.66-3.84,27.32-7.68,40.94-11.66,7.48-2.19,22.48,6.38,9.25,15.19-26.91,17.9-81.15,59-84.22,64.21-.27.46-.18,1.7.07,1.8a5.15,5.15,0,0,0,2.9.51,6.6,6.6,0,0,0,2.72-1.58c12.95-11.34,28.3-19,42.8-28,7-4.3,38-21.31,46.29-26.12,4.22-2.45,9.16-3.69,13.85-5.24,3-1,6.12,0,7.42,2.64,1.39,2.87-1.58,4.35-3.67,5.57q-17.91,10.39-35.9,20.61c-4.63,2.64-55.67,32.85-63.5,40.45-5.86,5.68-11.9,11.18-17.8,16.81-.45.43-.47,1.3-.69,2,1,.28,2.23,1.09,2.86.75,7.76-4.23,15.48-8.52,23.1-13,10.11-6,20-12.26,30.19-18.1,15.67-9,31.83-17.21,46.11-28.46,6.08-4.79,12.06-9.73,18.22-14.41,2-1.49,4.4-2.31,6.55-3.57s4-.55,5.72,1c1.12,1-2.31,11-7.22,20.66-1.14,2.25-10.1,15.77-21.26,28.1-16.53,18.28-37.38,37.48-40.71,42.18-2.13,3-6.71,7.37-4.46,10.34s20.18-7.48,25.16-10.17c10.31-5.59,20.19-11.95,29.95-18.49,3.23-2.16,23-18.06,30.26-23.11,5.82-4,25.24-23.81,30.12-28.46,2.71-2.59,6.14-1.8,8,1.51,2.42,4.32,1.47,9.85-3.1,14.55-5.18,5.34-10.3,10.86-16.17,15.35-8.12,6.2-15.48,13.32-23.21,20-5.69,4.91-31.64,19.43-28.15,22.82s9.43-1.82,13.54-4.3c31-18.75,59.6-40.36,82.3-69a94.51,94.51,0,0,0,8.2-12.29c8.08-14.36,18.22-26,34.59-31.62a225.77,225.77,0,0,0,40.52-18.61c5.19-3,31.92-17.53,35-19.33,2.12-1.27,4.47-2.19,6.5-3.6,14.84-10.31,29.71-20.6,44.42-31.12,12.68-9.07,70.38-57.31,84.58-71.23,2-2,4-3.91,6.11-5.81C724.12,1984.83,750.28,1959.51,760.79,1943.81Z"></path><path class="cls-1" d="M1213.4,1771.8c3.41-6,4-10.9,1.16-16.93-3.58-7.71-6.54-15.7-10-23.46a44.75,44.75,0,0,0-5.06-8.12c-2.29-3.07-3-1.36-16.19,11.06s-32.58,6.67-39.17,2.75c-2.56-1.52-4.48-1.23-6.69.65-3.79,3.21-5.58,8.37-15.41,10.17s-21.33-3.52-25.09-11.74c-.62-1.35-1.76-4.06-5.14-.07s-6.33,5.88-17.33,7.78c-5.5.95-14.67,0-19-4.26s-7.31-12.76-8-14.4c-1.69-4.11-3.35-4.93-7.48-3.94-3.46.83-15.86,3-23.06-3.37s-9.13-13.75-10.36-22.29c-.4-2.78-1.85-2.55-3.55-1.17-5.93,4.82-9.56,11.3-12.79,18-6.27,13.06-11,26.9-18.81,39.16-2.85,4.46-3.2,8.11-.78,12.81,4,7.88,7.59,16.16,7.89,25.13.34,9.77,1.25,19.9-.82,29.28-2.34,10.59-3.87,21.78-9.89,31.36-1.64,2.6.28,3.94,2.36,4.75,5.43,2.09,43.75,3.84,51.5,4.57,6,.56,12,.66,18,1,2.13.13,4.24.56,6.36.57,8.14,0,10.44-2.34,7-9.36s-4.06-14.28-5-21.56c-.72-5.54,1.48-25,11.56-44.39s32.12-24.52,44-21.75,20.82,18.56,21.29,30.89a200.89,200.89,0,0,1-.13,24.54,45.36,45.36,0,0,1-10,24.27c-4.15,5.28-9.19,9.85-13.75,14.81-1.3,1.42.73,5.19,2.82,5.18,2.82,0,5.64-.47,8.45-.45,13.06.08,26,1.44,39.17.66,8.74-.53,25.36-.61,36.46-.77,5.91-.08,22.82-.18,22.45-5.33s-.38-5.14-.61-7.87c-.28-3.19-4.72-36-3.46-49.43C1207.32,1790.65,1208.52,1780.46,1213.4,1771.8Z"></path><path class="cls-1" d="M782.76,1950.77c.28.88,1.18,2.07,1.91,2.15s1.94-.92,2.27-1.72c1.88-4.59,3.37-9.37,5.37-13.91,3.59-8.1,8.68-15.77,10.85-24.21,2.3-8.89,21.94-51.43,24.53-61.46.7-2.69,15.5-45.52,21.15-58.5,3.24-7.44,20.24-56.49,22.44-62.83,4.41-12.66,8.14-25.57,13-38.06,5.23-13.48,26.49-63,29.66-74.86a287.31,287.31,0,0,1,9.46-29.34c2.83-7.36,2.4-8-4.26-13.41-10.47-8.45-21.24-16.52-30.68-26.2-3.22-3.29-29.24-22.88-36.7-32.07-1.47-1.82-4-2.79-6.15-4-2.46-1.43-4.3-.18-5,2-4.82,16-12.81,30.84-15.67,47.53S806.61,1646,802.39,1663c-2.21,8.88-9.92,49.16-11.54,58.91-3.09,18.57-7.3,42.63-11.62,73.56-6.77,48.5-6.85,83.07-5.9,95.84C774.09,1901.51,780.58,1944,782.76,1950.77Z"></path><path class="cls-2" d="M1111.59,1829.17c3.25-9.05,2.08-23.94,1.67-26.36-2.16-12.76-4.74-21.82-22-23.94-7.88-1-14.78,2.35-18.68,9.4-1.19,2.16-2.22,4.41-3.24,6.66-6.82,15-12.16,30.2-4.66,46.7,2.25,5,5.08,9.91,10.38,11.22,6.68,1.65,13.63.66,19.08-4.19S1108.34,1838.21,1111.59,1829.17Z"></path><path class="cls-2" d="M958.29,1779.74c-3.7,1.45-.56,8.44-.47,11.51.37,11.78-2.73,23.26-4.72,34.81-1,5.92-2.86,11.69-4.35,17.52-.26,1-2.55,5,.9,6.34s5.29-4.32,5.66-5.68c1.29-4.79,7-24,7.67-29.42.34-2.86,2.68-14.9,2-23.23C964.56,1786,962,1778.29,958.29,1779.74Z"></path><path class="cls-2" d="M927.64,1784.84c.59-1.61,3-5.78,1.37-6.78s-6.59,4.15-7.59,5.15c-4,4-8.12,11-12.43,30.36-5.29,23.71-1.18,34.55,1.4,40.84.56,1.37.91,4.82,3.06,4.13s-.65-10-.5-14.18c.48-13.12,1.86-26.13,6.74-38.52C922.43,1798.87,925,1791.86,927.64,1784.84Z"></path><path class="cls-1" d="M832.23,1497.15c3.13-7.38,5.91-14.91,8.83-22.38a13.67,13.67,0,0,0-8.41-12c-1.13-.5-4.2.45-4.37,1.19-1.57,6.89-6.85,11.41-10.37,17-3.1,5-2.54,9.15,2,13.17,2.06,1.84,4.67,3.06,7.06,4.53A3.42,3.42,0,0,0,832.23,1497.15Z"></path><path class="cls-1" d="M943.6,1800.08c-5.43-1.5-9.71.67-11.78,5.8-3.85,9.54-6.2,19.39-6,29.5a53.35,53.35,0,0,0,.07,7.62c.49,3.22,3.11,4.63,6,5.21,3.24.65,4-2.16,5.2-4.28a7.77,7.77,0,0,0,.75-2c2.57-10.91,5.16-21.82,7.65-32.76a19.57,19.57,0,0,0,.62-6.21A4.22,4.22,0,0,0,943.6,1800.08Z"></path><path class="cls-1" d="M894.7,1846.58c-.59-16.26,4.32-36,5.89-41.79a163.2,163.2,0,0,1,9.87-25.66c4.47-9.59,10.27-18.71,21.39-22.48a7.27,7.27,0,0,0,4-4.44c3.86-15.39,41.46-90.84,55.59-109,4.59-5.9,9.44-11.62,14.36-17.25,3.45-4,5.34-8.26,4.83-13.62-.72-7.7-1.05-15.43-1.88-23.11-.58-5.48-2.41-10-8.71-11.83a235.86,235.86,0,0,1-26.14-9.15c-9-3.85-28.35-14.39-42.75-22-8-4.22-48.23-30.16-59.12-38.37-2.07-1.56-10.3-9.67-13.57-6.57s5.35,8.1,6.71,9.22c9.31,7.68,40.53,34.66,43.35,37.28,8.07,7.51,53.52,43.2,66.78,50.92,3.06,1.79,15.39,12.51,18.17,16.14,2.26,3,.41,6.57-3.24,7.25a11.35,11.35,0,0,1-9.08-2c-7.51-5.35-15.19-10.45-22.68-15.83-5.18-3.72-10.14-7.74-15.22-11.61-4.29-3.26-5.4-3.17-7.52,2.25-7.63,19.48-15.52,38.88-22.17,58.7-2.63,7.85-6.33,15-9.69,22.41-1.59,3.52-24,65.07-29.59,79.6-6,15.53-10.63,31.55-15.87,47.36-1.67,5-30.37,75.34-32.86,83.08-6.21,19.3-25.42,62.68-26.58,66-4.21,12.07-7.88,24.35-12.67,36.18-4.38,10.84-10,21.2-15,31.77-.76,1.6-1.6,3.16-2.4,4.74-1.68,3.26-.32,5.56,2.56,7,7.27,3.62,14.64,7,21.94,10.6,6.37,3.12,32.89,18.21,40.26,21.63s14.86,6.87,23.27,7c6.5-.1,7.59-.91,8.81-6.82,1.5-7.29,2.9-14.6,4.42-21.89,3.54-16.94,6.82-34,10.81-50.78,2.46-10.35,12.11-48.1,12.94-54.7,1-8.22,10.18-41.56,12.85-50.32a7.61,7.61,0,0,0-1.46-7.81C901.07,1873.51,895.24,1861.77,894.7,1846.58Z"></path><path class="cls-2" d="M1601.64,1126.93c3.53-1.65,6.75-4,10.26-5.66a24.77,24.77,0,0,1,8-2.57,7.1,7.1,0,0,1,5.28,2.13c.67.75-.16,3.33-.91,4.77-1.61,3.11-3.77,5.93-5.39,9-.94,1.8-.43,3.47,2.06,3.65a48.3,48.3,0,0,1,6.39.42,7,7,0,0,1,5.19,9c-.71,2.34-2.24,4.41-3.29,6.65-4.45,9.5-6.69,19.46-5.72,30,.15,1.6,1.11,3.13,1.69,4.7,1.48-.67,3.43-1,4.37-2.07,5.7-6.77,11.15-13.76,16.74-20.63,4-4.92,7.77-10.09,12.24-14.55,4-4,8.8-2.64,11,2.59a31.25,31.25,0,0,1,1.12,4.12c2.07,7.8,0,15.46-.78,23.16-.26,2.43-1.33,5.11-.65,7.24a162.08,162.08,0,0,0,7.53,19.81c2.28,4.88,7.2,5.17,10.06.73s5.69-9.15,7.35-14.13c4.71-14,13.39-26.64,14.82-41.93.46-4.87,6-6.36,10-3.27,1.64,1.28,2.77,3.2,4.15,4.82,4.15,4.82,7.91,10.06,12.57,14.32s9.31,7.72,10.47,14.23c.08.48,1,1,1.56,1.13.33.06,1-.63,1.2-1.12a37.48,37.48,0,0,0,1.61-22,81.83,81.83,0,0,1-2.18-12.57c-.49-6.73,3.51-9.76,9.93-7.77,4.72,1.46,9.43,2.73,12.77,7.13,3,4,7.57,4.67,12.51,3.92a136.65,136.65,0,0,1,13.73-1.16c4.45-.21,5-.69,5.23-4.79.16-3.34-.47-6.24-2.93-8.78a19.78,19.78,0,0,1-5.39-11.38,17.26,17.26,0,0,0-2.94-7.88c-8.81-11.54-17-23.8-32.92-26.9-6.94-1.35-8.65-7.34-4-12.85,2.24-2.67,5.09-5.35,8.23-6.61a105.17,105.17,0,0,0,24.17-13.07,88.46,88.46,0,0,0,15-14.76c3.13-3.81.95-7.39-4.17-8-3.53-.46-7.3,0-10.58-1.13-8-2.68-14.64.49-21.32,4-8.17,4.24-16.24,8.67-24.49,12.73a18,18,0,0,1-7.25,1.39c-7,.2-10.17-3.5-8-10.08,1.64-5,4.56-9.61,6.61-14.52a56.17,56.17,0,0,0,4-11.95c1-5.63-1.47-7.17-6.72-4.82-10.94,4.91-18.43,13.9-26.53,22.23-2.87,3-2.21,6.49-3.09,9.82-1.43,5.4-6.82,9.29-10.91,8.33-4.36-1-6.54-4.67-6.48-10.89a22.72,22.72,0,0,1,.15-3.2c1.08-7,2.16-14,3.32-21,.49-3,2.56-7-.45-8.52-1.68-.83-5.52,2.18-8.13,3.86a17.34,17.34,0,0,0-4.51,4.49c-6.63,9.24-13.48,18.35-19.59,27.93-5.26,8.26-8.68,9.59-16.86,3.73-4.72-3.39-8.86-3.52-13.7-.58-5.76,3.49-11.82,6.51-17.63,9.94a19.33,19.33,0,0,0-4.72,4.18c-3.4,4-2.63,6.35,2.62,7.27,3.08.53,6.34.09,9.52.09v.37c2.83-.15,5.9-1,8.41-.22s5.19,3,6,5.22c1.18,3.14-1.8,4.61-4.54,6-3.38,1.77-7.07,3.85-9.27,6.8-6.74,9.09-12.85,18.66-17,29.28-.52,1.32-1.11,2.63-1.5,4-.77,2.63-2.93,5.84.1,7.69C1596.35,1129.34,1599.54,1127.92,1601.64,1126.93Zm53.76-19.15c2.17-5.56,4.77-11,7.44-16.31,1.42-2.82,3.65-5.25,4.94-8.12,4.46-9.92,13.4-12.64,22.76-13,6.59-.23,11.45,5.34,16.29,9.45,1.64,1.4,2.11,4.19,3,6.08-.81,2.32-1.1,4.13-2,5.57-4.79,7.88-9.69,15.69-14.63,23.47a46.43,46.43,0,0,1-4,5c-10.37,12.21-27.09,5.8-33.52-6A8.26,8.26,0,0,1,1655.4,1107.78Z"></path><path class="cls-1" d="M712.46,1425.49c3.74-.69,36.09,1.77,51.69,3.92,10.58,1.45,23.32,6.34,25.78,7.15,6.76,2.22,13.5,4.48,20.34,6.43a36.49,36.49,0,0,0,9.34,1.37c2.94,0,4-2.88,2.24-5.39a7.67,7.67,0,0,0-1.35-1.64c-9.32-7.66-18.28-15.84-28.12-22.78-9.25-6.52-19.35-11.86-29.21-17.48q-26.83-15.32-53.84-30.34c-5.55-3.11-9.36-2.67-14.49,1.64a84,84,0,0,0-9.36,8.61c-6.75,7.68-14.9,14-19.92,23.4-5.49,10.29-12.49,19.78-18.74,29.68-2.66,4.21-5.24,8.48-7.55,12.89-1.91,3.67-.89,5.36,3,5.75a18.19,18.19,0,0,0,3.21.12c17.16-1.17,34.1,1.79,51.11,3,29.82,2.18,59.59,4.91,89.38,7.41v-.08c3.28.26,6.55.54,9.83.79,1.34.1,10.81,1.76,11.9-2.71s-15.6-6.44-18.39-7.36c-7.39-2.43-14.65-5.74-22.24-7-14.68-2.39-29.58-3.41-44.34-5.41a33.57,33.57,0,0,1-11.86-4C707.24,1431.43,708.28,1426.25,712.46,1425.49Z"></path><path class="cls-2" d="M1801.09,953.85c8,5.16,16.47,9.3,21.66,18.34,2.93,5.11,7.63,10.23,14.89,10.76,1.62.12,3.28,1.33,4.71,2.34,3.73,2.64,3.5,6.8-.83,8-5.74,1.61-11.76,2.23-17.67,3.24-2.36.41-4.79.55-7.1,1.16-2.64.71-5.18,1.81-7.77,2.74,2.12,3.47,28,9.49,35.36,8.6a33.5,33.5,0,0,1,9.47.46c4.41.76,6.58,5.13,4.15,8.84-1.89,2.88-4.7,5.21-7.31,7.56-6.06,5.44-12.26,10.72-18.35,16.13-.43.39-.8,1.65-.62,1.79a4.05,4.05,0,0,0,2.45,1.13c7-.86,14-2.29,21.06-2.69,5.48-.32,7.94,3.7,5.12,8.32a59.28,59.28,0,0,1-9.5,11.33,21.23,21.23,0,0,0-6.78,15c-.49,9.56-1.11,19.25-3.1,28.58-1.72,8.09.57,15.5,1.41,23.17.25,2.21,2.47,2.64,4,1,7.16-7.94,15.42-14.59,24-20.85,2.59-1.88,5.12-3.85,7.65-5.82a28.06,28.06,0,0,0,10.28-14.53,68.6,68.6,0,0,1,5.12-11.71c1.57-3.08,4.41-4.52,7.89-4.63,4.26-.14,6.74,1.9,7,6.15.21,3.54,0,7.1,0,10.65l-.75,0c.36,5-.23,10.23,1.34,14.76,1.76,5.07,3.59,10,3.94,15.35.08,1.18,1.43,3.29,2,3.22,1.56-.19,3.63-.9,4.38-2.1,2.07-3.29,3.34-7.07,5.34-10.41,1.78-3,3.7-6.1,6.29-8.31,3.29-2.8,6.46-1.77,9,1.81,2.41,3.39,2.94,7.16,2.79,11.17-.23,6,2.45,11,6,15.63,2,2.6,4.23,2.42,5.83-.48a96.13,96.13,0,0,0,9.72-27.94c1.06-5.24,1.35-9.7-2.37-14a18.09,18.09,0,0,1-2.87-5.68c-1.53-4.2-.34-7.66,3.25-10.19,3.31-2.34,6.73-2.66,9.86-.06,2.06,1.73,3.34,4.4,5,6.63,2.53,3.38,4.42,7.9,7.79,9.87,6.69,3.91,14.15,6.55,21.42,9.39,2.48,1,5.44.09,6.19-2.64,3.31-11.88,8.62-23.44,6.24-36.35-.9-4.85-2.93-8.7-7.33-11.15a106.48,106.48,0,0,1-10.09-5.91c-2.83-2-4-4.81-2.13-8.4,1.09-2.07,2.8-5,2.09-6.55-1.06-2.31-3.89-4-6.22-5.48-1.75-1.15-3.91-1.67-5.89-2.46-4.93-2-6.1-4.73-2.92-8.68,3.78-4.67,8.09-8.93,13.88-11.22,2.65-1.05,5.53-1.67,7.9-3.14,1-.65,1.93-3.32,1.44-4.41-2.36-5.16-8.52-8.25-13.92-6.41-5.12,1.74-8.88-.38-13-2.41a111.79,111.79,0,0,0-14.54-6.3c-2.92-.94-6.32-.35-9.49-.64-6.42-.57-9-3.79-7.57-10,.68-3.11,2.13-6,3-9.12.31-1.17.32-3-.38-3.73-3.52-3.63-11.82-3.67-15.58-.43-2.95,2.54-5.92,5.07-9,7.44-4.83,3.69-11.45,2.15-14.74-3.32a20,20,0,0,1-3-10.89c.23-3.47-1-5.3-3.12-7.26-6.78-6.09-15.09-9.06-23.64-11.46a3.3,3.3,0,0,0-4.09,3.6c.16,1.37,1.1,2.66,1.2,4,.58,8.34,0,16.38-6.79,22.52-1.78,1.61-3.47,2-5.72.64-4.87-2.9-10.1-5.23-14.81-8.35-11.56-7.65-24.83-7.88-37.85-9.24-1.62-.17-3.46.7-5,1.46-4.45,2.16-8.8,4.5-13.18,6.8-1.81.95-1.74,2.88.16,4.12C1799.17,952.9,1800.19,953.27,1801.09,953.85Zm94.79,51c5.95-6.92,13.36-11.56,21.35-15.33a14.23,14.23,0,0,1,15.15,1.46c2.27,1.69,4.08,4.19,6.55,5.38,10,4.84,12.15,14.12,14,23.66.65,3.38,0,6.59-2.57,8.81-5.62,4.83-11.17,9.87-17.4,13.79-3,1.91-7.52,1.49-11.93,2.23-1.92-.67-4.79-.86-6.38-2.38-5.87-5.6-11.44-11.52-16.83-17.59-1.83-2.07-2.94-4.85-4.11-7.43C1891.59,1012.81,1892.35,1009,1895.88,1004.85Z"></path><path class="cls-1" d="M794,1472.14c-4.76-.85-9.7-.79-14.56-1-11.71-.55-23.43-1-35.15-1.59-3.81-.2-6.7,1.18-9.68,3.51a98.48,98.48,0,0,1-14.91,10.07c-12,6.23-50.17,26.91-55.12,29.54-11.8,6.28-54.5,30.21-63.09,34.37-4,2-5.88,6-5.83,10.62.08.8.13,1.51.24,2.21,2.73,17.5,5,35.08,8.36,52.45,2.23,11.43,6,22.56,9.28,33.77.24.79,2.38,1.79,3.19,1.5a19.69,19.69,0,0,0,6.45-3.58c5.25-4.77,10.2-9.87,15.32-14.79,7.39-7.11,14.69-14.32,22.28-21.21,6.26-5.69,13-10.81,19.31-16.49,14.71-13.34,29.15-27,43.91-40.26,6-5.44,12.7-10.18,18.86-15.48,10.2-8.77,20.09-17.9,30.36-26.58,6.3-5.33,13.36-9.91,17.9-16.72,1.64-2.46,5.45-10.7,6.2-11.9C800.22,1476,799.32,1473.09,794,1472.14Z"></path><path class="cls-1" d="M1350.8,408.72c-8.43,9.5-11.86,22.22-10.17,35,2,15.35,10.46,30.34,13.16,33.81,16.09,20.71,37,31.49,63.73,29.48,6.89-.52,13-3,16-9a63.66,63.66,0,0,0,7.18-25.38c.42-8.59-2-11.06-10.49-10.89-5.52.12-10.59-.61-15.26-3.66-12.2-8-21.65-18.24-27.13-31.9-2.55-6.35-.83-14,4.62-18.19,2.72-2.09,6.19-3.2,9.28-4.83.88-.47,2-1.09,2.25-1.89.17-.51-.9-1.63-1.63-2.2C1395.81,394.05,1369.34,387.81,1350.8,408.72Z"></path><path class="cls-2" d="M1224.87,1805.14c-.12-2.84.05-5.77-.68-8.44a5,5,0,0,0-3.8-2.86c-1.12,0-2.91,1.94-3.21,3.3a42.74,42.74,0,0,0-.54,8.49c-.13,7.69,1.23,15.11,3,22.46,1,4.06,2.63,20.15,7,20.22s2.94-3.45,2-9.27C1227.07,1829.56,1225,1806.91,1224.87,1805.14Z"></path><path class="cls-1" d="M872.24,1493.28q11.09,8.28,22.74,15.81c9.84,6.34,41.68,25.92,48.08,28.85,14.89,6.83,29.72,13.78,44.78,20.19,3.75,1.59,8.3,1.76,12.48,1.77,4.83,0,6.43-1.67,6.59-6.51.22-6.76.16-13.55-.17-20.31-.62-12.42-2.11-56.35-3.39-66s-1.21-19.18-1.13-28.79c0-5.27-.77-21.59,7.51-21.43s7.6,21.71,7.58,30.16c0,18.18.83,44.58,1.48,51.87,1,10.83,1.28,21.8,1.54,32.72.09,3.84,2.85,71,4.32,90.13.39,5.08-.43,10-4.19,13.91-3.62,3.8-4.72,8.53-5.39,13.62-1.73,13.11.35,26.11,1.08,39.11a32.71,32.71,0,0,0,5.37,15.92c2.34,3.44,7.31,5,12.47,3.49,4.93-1.48,8.27-4.08,9.26-9.15,1.19-6-.9-26.88.5-31.14,1-2.91,2.81-4.92,6.3-4.62s5.9,2.29,6.18,6.13a84.06,84.06,0,0,1-.19,12.79c-.54,6.68-1.5,21.77,1.54,33.32,2.73,10.39,9.14,17.69,14.59,17.16,11.51-1.13,10.62-11.51,11-15,1.18-10.46-.27-29-.83-38.52-.76-12.65,8-15.28,9.88-10.81a65.73,65.73,0,0,1,3.25,12.18c2.45,12.91,4.83,25.84,8,38.58,1,4.31,3.84,8.36,6.5,12s9.32,5,12.52,2.79c8.45-5.76,13.54-12.38,9.22-23.42a89.47,89.47,0,0,1-3.3-11.2c-1.53-6.19-2.94-12.41-4.38-18.62-.32-1.37-4.73-11.49,1.52-14s9.61.86,12.83,10c4.68,13.3,9.17,33.76,11.46,40.11s8.65,12.24,16.08,13.13c10.07.41,15.66-10,18.91-14.6,2.44-3.45,2.52-10.9.52-15.08-3.6-7.54-4.37-15.73-1.15-23.83,3.69-9.32,12-11.21,19.59-4.42a32.25,32.25,0,0,1,4.34,4.71c2.77,3.7,5.37,7.53,8.05,11.3,3.17,4.46,6.86,8.41,12.59,9.11,1.86.23,3.3,1.93,5.84-1.51s-1.18-4-2.51-5.24c-9.6-8.59-18.07-18.07-24.68-29.19-4.9-8.25-9.6-16.67-15.18-24.45-4.65-6.48-5.11-13.49-3.37-20.32,2.54-9.93,2.88-20,4.33-30,2.44-16.8,12.4-85.38,14.23-102.94,2.13-20.51,3-41.15,4.7-61.71.34-4.18,3.38-14.23,8.55-14.42,8.12-.32,6.42,8.42,5.94,13-1.08,10.27-2,41.49-5.55,72.2-3,26-14.5,93.46-15.32,101.21-.46,4.25,1.37,6.94,5.2,8.16,7.76,2.47,15.49,5.25,23.43,6.92,13.1,2.77,44.3,8.64,46.73,8.92,13.4,1.55,26.8,3,40.21,4.36,9.55,1,19.1,1.9,28.65,2.81,12,1.14,65,2,75.18,1.21,17.94-1.3,80.18-4.82,93.22-6.52,20.12-2.63,40.28-5.15,60-10.31,17.9-4.69,36.31-7.21,53.68-14.2,14.32-5.76,13.06-5.47,12.69-21.46a17.51,17.51,0,0,0-.38-2.1c-1.25-8.38-9.06-66.48-10.15-75.6-.25-2.11-8-54.43-9.56-63.88-2-12.16-22.52-113.18-24.52-123.57-1.12-5.83-15.39-71.13-26.7-121.37-6.79-30.19-15.9-64.08-16.86-67.13-3.74-11.83-7.28-23.73-11.17-35.52-2.33-7.08-33.67-101-41.54-119.91-8.33-20-21.28-50-29.79-70-2.15-5-4.74-7.29-9.85-8.08-9.86-1.54-60.29-15.93-97.49-32.88S1305.58,816,1297.14,810a120.21,120.21,0,0,1-14.92-11.93c-3.22-3.14-11.39-11.21-6.52-15.94s10.07,3,12.55,5c22.11,18,44.58,35.52,70.3,48.29,8.25,4.09,16.33,8.59,24.83,12.06,15.41,6.3,63.89,28.39,130,27.72s123.15-11.63,143.26-16.13c18-4,35.92-9.18,53.5-15,12.49-4.1,80-36.42,100.84-48.77a397.48,397.48,0,0,0,65.83-49.61c22.38-20.64,46.76-60.46,55.37-78.65s14.36-30.81,19.72-47a234.9,234.9,0,0,0,11.22-59.52c.75-12,.94-44.51-.28-65.32s-8.76-45.42-12.5-56.9c-4.9-15.07-10.91-29.22-19.8-42.33-9.77-14.41-21.43-33.94-54.16-42.82s-70.16-.31-83.83,2.1a376.37,376.37,0,0,0-38.5,9c-24.4,7-46.83,18.67-69.07,30.7-8.41,4.54-19.22,11.79-33.75,15.07-16.2,3.65-35.9,3.1-39,3.09-13.85,0-27.7.1-41.55.12-7.12,0,1.24.91-50-1.69-28-1.41-55.13-6.26-74-10.31-7-1.51-24-8.28-25.76-6-.8,1.05,10.8,8.15,18.1,21.49,8.44,15.43,12.86,38.12,13.41,51.89.57,14.12-3.07,26.65-9.62,38.77a23.71,23.71,0,0,1-14.62,11.68c-6.18,1.92-30.34,5-60.23-10.27s-38.42-49.73-40-55.16c-2.89-9.76-4-32.66,10.26-50.29s26.62-19.39,38.23-20.51,19,1.86,20-.78-11.54-7.43-14.73-9c-9.22-4.53-18.52-8.92-27.22-14.51-7.13-4.58-72.08-38.65-78.64-42.14-1-.52-2-1-2.95-1.55-16.41-8.53-33.27-15.55-51.84-18.25-4.76-.69-11.34-11.28-8.43-16.86s.65-13-.42-16.76c-1.18-4.09-2.33-8.18-3.55-12.25-2.44-8.15-4.7-16.39-7.61-24.38-2.06-5.65-5-11-7.69-16.4-.25-.5-1-.75-1.53-1.12-.3.52-.9,1.05-.86,1.54.25,3.9.49,7.8,1,11.67,1,7.73,3.64,35.6,4.78,41.84.89,4.8.43,10-.18,14.89-.49,3.95-3.52,5.62-7.79,5.83-3.94.19-6.13-1.82-6.71-5.4-.61-3.78-1.43-7.76-.87-11.46,1.14-7.56-4.12-53.38-4.26-63.29-.14-10.21-.48-20.55-.83-30.84a49.81,49.81,0,0,0-.45-5.31c-2-14.23-8-27.17-13.13-40.35-1.52-3.88-4.14-7.44-6.74-10.78s-5.16-2.85-6.42.69c-1.91,5.35-4.53,10.79-4.82,16.31-1,18.79-.14,121.08,0,123.21.43,7.08,1,14.17,1,21.26,0,5.47-2.35,9.45-8.44,10.62a22.51,22.51,0,0,0-12.26,6.06c-3.27,3.34-3.77,5.54-1.48,9.49,1.78,3.05,3.69,6,5.72,8.91,3,4.22,8.9,11.67,12.88,18.67s6,13.55,1.16,16c-9.66,4.84-24.86-25.86-30.28-35.46-10.65-18.86-21.06-37.86-32.26-56.39-9.35-15.49-48.68-74.1-58.1-86.5-2.41-3.17-3.93-9.1-9.59-7.72s-5,17.76-5.73,26.1c-1,11.22-2.06,24.28-2,26.29.4,10.25.89,20.49,1.58,30.72a49.24,49.24,0,0,0,1.88,10.35c2.77,9.54,15,53.17,20.29,64.87,7.27,16.19,14.76,32.31,21.07,48.87,4.38,11.48,36.11,57.77,40.56,62.9a123,123,0,0,1,9.61,12.76c2.33,3.51,1.24,7.67-2.13,10.47-3,2.45-6.13,2.09-9.36-1.27a61,61,0,0,1-4.8-5.74c-3.44-4.62-6.84-9.27-10.26-13.91-1.64-2.23-3.71-9.52-7.17-8.73s-4.88,16.62-5.49,22.38c-2.68,25.56-6.1,79.88-6.51,87.4-.44,8.16-6.72,120.19-7.12,128-.34,6.75,0,13.54-.41,20.29-1.69,29.91-3.87,59.79-5.2,89.71-.9,20.28-4.72,92.63-4.52,103.36.18,10.31-1.74,41.45-1.91,46.73-.24,7.16-.22,41.28-1.71,64-.36,5.45-3,15-6.26,25.17-4.59,14.17-10.46,29.48-13.29,36.33-3.9,9.47-23.66,61.79-30.46,78.13q-6.12,14.73-11.6,29.71c-3.15,8.66-19.9,52.3-25.41,65.36-4.13,9.8-65.82,170.8-70,180.88-8.62,20.79-13.51,42.73-20.48,64-1.91,5.84-1.07,11.13,4.23,15.3C864.47,1486,868,1490.11,872.24,1493.28ZM1256.89,396.16c4.87-29.94,24.83-41.19,28.29-42.8,1.74-.8,4.29,2.07,3.65,4.06a19.35,19.35,0,0,1-2.81,5.64c-2.76,3.7-14.83,15.23-15,41.48s4.66,34.24,10.66,46.18c.87,1.71,1.35,4.45.56,5.95a9.14,9.14,0,0,1-5.4,4.31c-1.27.29-3.7-1.82-4.67-3.42C1266.37,448,1252,426.1,1256.89,396.16Zm-156.64,16.29c-2.58,2.44-6.14,2.51-8.52-.13a24.36,24.36,0,0,1-4.32-6.07c-2.91-6.45-5.49-13.05-8.18-19.61-6.87-16.77-14.25-33.36-20.38-50.4-3.59-10-17.7-50.89-21.19-61.32-2.35-7-5.62-24.45-5.43-25.85.58-4.34,4.38-7.14,8.47-5.54a18.16,18.16,0,0,1,7.53,5.51c6.72,8.73,13,17.77,19.43,26.73,1.43,2,35.25,55,40,62.56,5.09,8.14,27.8,37.57,20,43s-16.89-11.8-20-17c-5.67-9.45-10.48-19.41-16.25-28.79-5-8.11-10.86-15.67-16.27-23.53-4.61-6.71-9.1-13.51-13.72-20.22-.32-.47-1.58-.91-1.78-.72-.63.62-1.52,1.69-1.35,2.33,1.73,6.47,3.32,13,5.61,19.29,4.39,12,9.19,23.85,13.84,35.76,5.56,14.2,11,28.46,16.83,42.55,1.6,3.85,4.55,7.14,6.82,10.73A8.28,8.28,0,0,1,1100.25,412.45Z"></path><path class="cls-1" d="M818.13,2097.27c-3-6.38-6-12.8-9.18-19.11-4.57-9.11-11.05-16.31-20.62-20.5a238.44,238.44,0,0,1-29.93-15.95c-7.31-4.54-8.36-7.09-4.7-14.41q9.06-18.1,17.8-36.37a61.81,61.81,0,0,0,2.55-7.26c-1.09-6.11-1.83-11.37-3-16.53-1.23-5.39-3.88-6-8.23-2a26.37,26.37,0,0,0-3.69,3.86,106.26,106.26,0,0,1-22.87,23.61c-6.92,5.1-7.72,12-4.13,19.75,2.54,5.45,4.85,11,6.86,16.69,3.79,10.71,7.09,21.6,11,32.28,6,16.68,12.07,33.33,19.71,49.45,5.62,11.83,10.38,23.92,17.4,35.18a215.68,215.68,0,0,0,30.31,38.5,85,85,0,0,0,19.56,14.72c3.12,1.7,6.31,4.39,9.85,2.24s3.27-6.35,2.86-9.75c-1.72-14.49-15.85-58.33-18.95-66.25-2.07-5.27-4.33-10.47-6.63-15.65C822.18,2105.57,820.12,2101.44,818.13,2097.27Z"></path><path class="cls-1" d="M1721.09,1449.07c-6.79-4.52-13.38-9.37-20.35-13.59-5.11-3.09-12.2-8-15.92-8s-2.6,1.62-3,2.44a3.34,3.34,0,0,0,.39,2.85,154,154,0,0,0,10.32,12.14c8.24,8.28,15.78,17.35,26.91,22.31,7.52,3.34,14.48,3,20.39-2.55.55-.51.39-2.91-.21-3.33C1733.57,1457.15,1727.28,1453.18,1721.09,1449.07Z"></path><path class="cls-1" d="M1755.45,1420.61a210.46,210.46,0,0,1-45.82-13c-1.63-.67-3.27-1.35-4.93-1.95-3.31-1.19-6.3-.86-8.65,2-2.59,3.18-1,6.51.84,8.81a37.16,37.16,0,0,0,8.92,7.45c14.26,9.19,28.67,18.15,43,27.27,2.09,1.33,3.83,1.35,5.81-.1,6.53-4.78,8.75-11.78,10.06-18.41C1764.55,1426.18,1760.87,1421.52,1755.45,1420.61Z"></path><path class="cls-1" d="M1780.21,1354.58c-15.2-1.41-30.39-2.94-45.62-3.75-4.39-.23-9.18,1.16-13.27,3-4.88,2.16-4.88,6.94-.52,10a31.34,31.34,0,0,0,14.87,5.24c10.57,1.22,21.08,2.87,31.61,4.35l14.69,2.09c2.2,0,3.27,0,4.33,0,8.08-.45,10.46-5,6.51-12.21C1790.06,1358.22,1785.92,1355.11,1780.21,1354.58Z"></path><path class="cls-1" d="M1767.48,1386.19c-4.87-1-9.78-2-14.71-2.65-11.89-1.65-40.1-3.41-42.23-3.32-3.29.15-7.07.82-7.54,4.39-.43,3.33,2.56,5.58,5.76,6.79.66.25,1.35.47,2,.77,3.86,1.76,7.7,3.57,11.58,5.3,9.7,4.3,19.22,9,29.92,10.64,5.22.78,10.32,2.39,15.54,3.22a10.33,10.33,0,0,0,5.79-1.07c4.56-2.24,6.79-5.77,6-11.21C1778.73,1392.52,1774.64,1387.72,1767.48,1386.19Z"></path><path class="cls-2" d="M2138.43,1160.08c.49-1.45-.54-3.44-.95-5.16-1.4-5.87-3.31-11.66-4.1-17.61a39.23,39.23,0,0,1,.89-12.56c.68-3.44,2.34-6.69,3.66-10,1.82-4.52.9-8.39-2.69-11.59-4.63-4.12-10-6.84-16.23-7.21-4.45-.26-8.57-1.22-11.84-4.12-2.59-2.3-4.18-6.95-6.9-7.58-4.56-1-4.42,5.71-8,7.4a3.76,3.76,0,0,0-.81.69c-5.59,4.71-11.22,4-15.29-2.24a33.94,33.94,0,0,1-3.5-7.73c-2.58-7.67-7.5-12.88-15.42-14.81-7.3-1.77-14.23-4.13-20.23-8.92-2.38-1.9-4.26-1-4.4,1.79-.91,17.16,2.27,33.25,12.61,47.44a44.39,44.39,0,0,1,4,6.28c2.49,5,1.45,8.33-3,12a15.52,15.52,0,0,1-11,3.3c-6.49-.25-12.82.65-18.59,3.77-2.1,1.14-5.74,0-5.74,4.47s16.88,9.91,22.45,12.93a17.25,17.25,0,0,1,3.45,2.5c4.14,3.83,8.55,7.44,12.24,11.67,6,6.9,8.57,10.14,2.28,17.6-7.89,9.37-10.06,20.11-10.51,35.08.85,3.38,2.35,9.9,4.16,16.33,1,3.44,2.34,7.17,6.42,7.78,4.49.68,6.91-2.91,9.44-5.89a5.26,5.26,0,0,0,.6-.88c6.26-11,16.4-18.31,25.73-26.35a19.24,19.24,0,0,1,4.48-2.88,5.72,5.72,0,0,1,7.93,4.61,14.84,14.84,0,0,1-.58,4.12c-.84,5.26-1.92,10.49-2.46,15.77-.27,2.66-.32,7.33.84,7.79,4.22,1.68,6.08-2.33,7.78-5.34,1.89-3.35,3.25-7,5-10.42,1.89-3.65,4.65-6.69,9.08-6.27a8.25,8.25,0,0,1,7.51,6.59,35.15,35.15,0,0,0,2,4.94c1.11,2.56,2.71,2.92,4.91,1.17a7.65,7.65,0,0,1,2.8-1.54c6.24-1.5,8.46-5.68,8.59-11.76a77.54,77.54,0,0,1,1.44-12.7A26.12,26.12,0,0,0,2145,1188C2141.67,1179,2134.75,1170.81,2138.43,1160.08Zm-18.08-1.19c.16,7.6-3.93,12-10.55,14.14a77.06,77.06,0,0,0-14.45,6.28c-8,4.51-13.78,1-14.5-8.25-.39-4.92-.07-9.89-.07-14.84h-.1c0-2.84.12-5.68,0-8.51-.62-13.08,3.91-19.2,16.44-21.78,5.15-1,10.36-1.83,15.56-2.67,4.15-.66,7.51,1.25,8.19,6.32.93,6.93.74,14,.72,21C2121.57,1153.38,2120.29,1156.14,2120.35,1158.89Z"></path><path class="cls-2" d="M1999.14,1256.12A35.28,35.28,0,0,0,1981,1243.6c-5.89-1.85-9.43-7.89-9.29-14,.12-5.56,2.79-8.27,9.69-10.79,5-1.83,10.09-3.71,14.57-6.49,2.71-1.67,8.58-1.21,7.45-5.78-.57-2.3-5.54-3.64-8.66-5.13a15.44,15.44,0,0,0-5.18-1.21c-7.41-.64-14.84-1.06-22.26-1.71-10.18-.9-13.93-5.92-11.66-15.83a24.64,24.64,0,0,1,3.15-6.57c1.14-2,4.69-3.44,2.57-5.9-.86-1-4.53.23-6.85.76-4.78,1.09-10,1.46-14.18,3.76-14.42,8-29.28,7.55-44.51,3.77-5.24-1.3-10-3.46-13.58-7.88-2.9-3.56-6.3-6.72-9.55-10-4-4-7.65-3.63-9.94,1.71-1.78,4.17-2.62,8.78-3.56,13.26-1.21,5.82-5,10.13-10.64,9.08-6.79-1.27-12.45.58-18.55,2.6-3.94,1.3-8.36,1.16-10.92,1.47-11.93-2.26-19.63,2.56-26.68,9a3.37,3.37,0,0,0-.89,1.71,5.15,5.15,0,0,0,2.39,1.33c4.24.46,8.61.27,12.7,1.26a42.28,42.28,0,0,1,11.67,4.83c3.42,2.06,2.87,6.84-.76,8.65a13.7,13.7,0,0,1-6.08,1.51c-4.22-.06-7.53,1.84-10.8,4-4.12,2.78-8.37,5.39-12.32,8.4-8.55,6.52-16,14-20.62,24-1.42,3.06-.3,5.36,2.41,5.68,5.2.62,10.8,1.42,15.72.15,9-2.32,18.44.41,27.31-3.21,2.71-1.11,5.38,3.09,3.67,5.67a56.15,56.15,0,0,1-6.84,8.12c-8.34,8.51-14.69,18.07-16.33,30.18-.17,1.27-.24,3.08.48,3.79s2.62.51,3.7,0c4.54-2,8.93-4.37,13.43-6.46,2.57-1.2,5.2-2.65,7.92-3,1.77-.22,4.07,1,5.58,2.24,2.13,1.75.6,3.82-.43,5.7-2,3.69-4.35,7.26-5.87,11.15-1.12,2.87.82,4.78,4,4.48a21.15,21.15,0,0,0,6.27-1.22,28,28,0,0,1,15.5-1.6,21.17,21.17,0,0,0,14.23-3.31,23.54,23.54,0,0,1,6.73-2.69c5.84-1.41,9.43,1.58,9.33,7.64a80.7,80.7,0,0,1-.65,9.58c-1.69,12.51-4.25,25,3,36.86.86,1.41.73,3.44,1,5.19.34,2.39,1.67,3.11,3.55,1.7,5.08-3.85,10.06-7.83,15-11.83,4.11-3.33,8.13-6.76,12.19-10.15,6.1-5.09,11.69-10.44,12.2-19.19a20.75,20.75,0,0,1,1.92-7.17,17.91,17.91,0,0,1,4.08-6c3.71-3.31,8.27-2.36,10.8,2,.88,1.51,2,3.35,1.88,4.91-.81,7.76,2.7,14.48,4.57,21.61.84,3.22,1.89,3.29,4,1.29a31.77,31.77,0,0,1,4.78-4.24c8-4.86,10.23-13.16,13.37-21.12,2.41-6.11,0-10.87-2.19-16.2-2.66-6.49,2.59-12.69,9.36-11,4.77,1.15,9.31,3.41,13.77,5.56s11.57,11,18.67,6,5.17-28.21,4.12-30.24C2006.69,1268.09,2003.35,1261.75,1999.14,1256.12Zm-65.83,1.36a205.74,205.74,0,0,0-20.31,13.39c-9.39,7.06-18,6.35-24.56-3.15-3.29-4.76-6.81-9-11.93-11.9a29.44,29.44,0,0,1-5.76-4.72c-4.12-4-4.49-6.33-1-11a21.11,21.11,0,0,0,4.27-9.5c1.07-6.06,4.52-9.93,11.19-11.08,5.89-1,11.54-3.38,17.34-5,2.71-.74,5.54-1.06,8.31-1.58,9.29,0,15.2,5.7,20.53,12,2.7,3.2,4.45,7.17,6.81,10.67C1944.87,1245.51,1943.32,1251.67,1933.31,1257.48Z"></path><path class="cls-1" d="M1636.48,2063.82c-3.1,1.67-6.18,3.44-9.1,5.41-1.54,1-2.64,3-.62,4.33,5,3.33,28.34,20.28,43.91,27.48,7.79,3.6,14.43,7.39,19.55,10.05s10,4.47,16.91-1.32,13.94-14.07,19.07-19.6c5.8-6.23,31.58-32.5,38-40.07,3.37-4,22.25-23.12,23.79-25,9-11.34,18-22.76,27-34.15,1.08-1.38,11.68-18.17,16.48-24.76,8.21-11.28,14.54-23.54,20.15-36.22,4-9.08,8-18.17,11.81-27.36,1.75-4.24,2.91-8.73,3.75-11.3.46-6.91-2.29-9.32-7.09-8.14a26.68,26.68,0,0,0-4,1.56,112.38,112.38,0,0,0-37,24.78c-13.66,13.94-28.62,26.48-41.78,41-4.54,5-24.65,27-41.78,43.1a569,569,0,0,1-48.16,38.68A523.78,523.78,0,0,1,1636.48,2063.82Z"></path><path class="cls-1" d="M1674.55,1444.94a36.3,36.3,0,0,1-4.93-17.42c0-5.89,7.38-6.48,7.6-11.92.09-2.11,2.18-10.65,4.49-14,4.22-6.08,2.62-9.91,1.83-13.35-2.71-11.76.51-16.73,9.94-18.81,5.39-1.18,7.38-3.77,7.66-9.51.66-13.26,7.88-21.67,21-24.89a64.83,64.83,0,0,0,12.16-3.9,18.23,18.23,0,0,0,7.22-5.84c3.09-4.61.16-9.52-5.36-9.52a37.87,37.87,0,0,0-7.41.88c-23.78,4.82-45.84,13-62.53,31.83-2.23,2.51-5,3.3-8.6,2.78-9.45-1.37-19-2.26-28.47-3.2-4.29-.42-5.88,1.28-5.19,5.69.93,6,2.25,11.83,3.3,17.76,2,11.5,4.1,23,6,34.54q3.62,22,7,44c1,6.3,1.7,12.64,2.62,19,.45,3.17,1.88,5,5.61,4.88,4.41-.17,8.83-.14,13.24-.11,2.34,0,13-.3,14.69-3.43a72.3,72.3,0,0,1,5.28-9.19c1.9-2.56,1.33-4.49-.3-6.69C1679,1451.38,1676.58,1448.28,1674.55,1444.94Z"></path><path class="cls-1" d="M1303.32,2099.93c-1.91-7.15-5.22-40.32-7.43-49.32-1.09-4.45-8.63-38.16-10.41-45.34-3.91-15.73-7.35-31.59-11.12-47.36a91.1,91.1,0,0,0-3.39-10.08c-2.43-6.64-6.76-26.89-10.44-25.34s-1.15,5.62-.78,19.19c.41,15,2.86,64.25,4.49,76.46.94,7,3.52,27.47,2.83,30.54a9.08,9.08,0,0,1-9.08,7.55c-3.16,0-5-2.1-6.43-7.4-.46-1.71-.88-26.26-1.3-37.1-.29-7.37.17-29.53-.15-33.11-.76-8.68-1.58-17.93-2.61-27.15-.51-4.54-1.22-15.09-4.25-15s-4,9.81-4.5,13.91c-2.73,20.42-5,40.9-7.7,61.31-1.49,11.23-3.65,22.38-5.41,33.58-1.82,11.55-3.83,23.08-5.17,34.68-1,8.38-4.29,47.14-5.1,56.6-.33,3.9.49,5.8,4.09,5.49a105.86,105.86,0,0,0,18.85-3.06c13.57-3.73,27-7.89,40.44-12.24a123.48,123.48,0,0,0,15.57-6.72C1302.84,2115.9,1305.86,2109.45,1303.32,2099.93Z"></path><path class="cls-1" d="M1246.61,1850c4.74,0,5.44-12.18,5.93-13.94,1.67-6.12.16-23.38-.14-25.48a44.33,44.33,0,0,0-1.77-8.26c-1.65-4.83-3.88-5.74-10.12-5.08-5,.53-3.67,4.28-3.9,7.25-.11,1.41,0,2.84,0,4.26h0v3.2a86.08,86.08,0,0,0,5.29,29.33C1242.55,1843.28,1241.87,1850,1246.61,1850Z"></path><path class="cls-2" d="M1273.66,1854.63c1.86-10.2,3-29.64.75-39.81-1.23-5.58-6.79-14.28-8.27-6.48s-2.44,48.38-3.8,56.69c-.56,3.39-1.36,12.35,2.62,12.35S1270.79,1870.42,1273.66,1854.63Z"></path><path class="cls-1" d="M1660,1488.14c-2.39-.5-5-1.09-7.23-.49-.88.24-1,3.53-1.3,5.45a19.83,19.83,0,0,0,0,3.18h.13c0,2.47,0,5,0,7.43,0,2.88,1.32,4.67,4.41,4.8s5-1.61,5.24-4.21a113.76,113.76,0,0,0,.37-13.7A3.15,3.15,0,0,0,1660,1488.14Z"></path><path class="cls-1" d="M1644.58,1606c-9.86,2.74-19.57,6.14-29.53,8.41-11.62,2.65-36.38,7.77-37.07,7.93-10,2.33-34,7.72-36.14,7.93-9.53,1-54.48,5-67.39,6.51-8.84,1-56,2.26-63.4,2-8.49-.26-42.35.17-50.83-1.64-6.34-1.36-8.65.71-9,7-.62,11.71-1.72,29.42-3.13,60.64s-6,62.56-8.73,69.21c-2.05,5-4.93,6.59-7.3,6.47-5.52-.29-1.72-16.84-1.14-20.31a342.24,342.24,0,0,0,5.07-54.83c.07-9.95,1.31-19.89,1.28-29.83,0-10.59-.73-21.2-1.53-31.78-.36-4.75-4-8.48-7.87-9-5.94-.71-11.91-1.27-17.88-1.74-13-1-57.3-7.22-63.88-8.47-11.09-2.1-22.27-3.71-33.31-6-2.7-.56-4.76-.74-6.83,1-2.58,2.19-1.07,4.49-.17,6.78a27.39,27.39,0,0,0,1.18,3c5.45,10,10.63,20.13,16.5,29.86a108.73,108.73,0,0,0,15.92,20c4.49,4.38,11.62,8.89,13.27,10.43,2.74,2.58,2.8,5.55,1.23,8.76-2.24,4.59-6.4,6.21-10.94,7.77-7.13,2.46-7.82,4-5.07,11,3.75,9.53,8.72,18.59,10.25,28.93.52,3.49,2.17,6.82,2.66,10.31a11.36,11.36,0,0,0,5.64,8.53c1.8,1.14,3.4,2.63,5.28,3.59,6.42,3.26,19.83,28.8,21.73,51.1s.17,34.06-1,41.84c-2,12.94-5.23,25.82-11.42,37.58a9,9,0,0,0-.14,9c1.55,3.19,2.81,6.53,4.12,9.83,4.19,10.54,16.8,49.55,21.29,69.84,8.47,38.27,20,92.07,20.86,97.09,1.44,8.38,3.74,16.62,5.21,25,1.08,6.19.35,11.84-6.44,15.1s-13,7.13-19.68,10.46c-4.42,2.22-9.12,3.87-13.61,6-.7.33-1.12,1.6-1.3,2.51-.06.35.87,1.24,1.42,1.31,2.46.31,26.37,3.71,65.37,2.75,50.13-1.24,47.78-2.68,109.52-25.14s103.56-38.47,126.15-49c25.74-12,55.3-29,59-31.21,5.18-3,59.3-37.44,69.46-49.75,2.84-3.44.43-6.77-.1-8-3.43-8.15-7.57-16-11.4-24-1.69-3.51-20-35.94-24.69-43a2.34,2.34,0,0,0-1.89-.69c-.55.06-1.42.65-1.49,1.1-.6,4.18-1.11,8.39-1.56,12.6-.64,6-.66,12.07-2,17.88s-4,7.7-7.66,7.38-6-2.84-6.09-8.71c-.14-7.36,1-14.72,1.33-22.09.14-3.81,4.44-30.6,5.54-66.48,1.44-47.14-.26-106.14-.37-111-.15-7.11-2.4-44.5-2.61-47.32-.73-9.8-2.26-29.41-2.15-29.42-.8-14.18-1.47-28.37-2.45-42.54a165.43,165.43,0,0,0-2.27-17.74C1651.73,1606.81,1648.45,1604.88,1644.58,1606ZM1405.9,1927.21c-4.74,2.27-9.55-.56-9.91-5.83a8.06,8.06,0,0,1,.07-2.14c3.49-17.24-1.53-34.55.47-51.82a179.5,179.5,0,0,0,1.3-21.23c0-9.15-.46-18.31-1.21-27.43-.84-10.2-1.89-80.55-1.85-85.44.16-16.29-1.3-32.53-1.13-48.81a129.68,129.68,0,0,0-1.4-18c-.58-4.47-.29-8.66,2.69-12.08a8.39,8.39,0,0,1,5.31-2.79c2.79-.1,4.42,2.32,4.75,4.93.94,7.36,2,14.74,2.29,22.14.37,11.71.2,35.17.25,35.17,0,12.44-1.15,25,.27,37.28,2.33,20.18.52,40.41,2.48,60.58,1.28,13.19.61,26.59.49,39.89-.07,8.76-1.25,17.53-1,26.27.4,12.4,1.64,24.78,2.58,37.17C1412.78,1920.33,1410.31,1925.09,1405.9,1927.21Z"></path><path class="cls-3" d="M2206.46,1072.09c-4.16-.92-8.39-2-12.61-2.1-18.9-.33-37.75.12-56.25,4.76a71.81,71.81,0,0,1-7.37,1c-3.51.49-7.48,2.26-10.41,1.18-3.87-1.42-3.33-6.53-4.44-10.18-1.47-4.85-4.37-6.11-9-3.76-3.15,1.62-6,3.78-9.1,5.55s-6,3.22-9,4.83c-.5-3.49-.65-7.06-1.58-10.43s.53-5.12,2.54-7.42c4.38-5,10-5,15.73-4.59,7.35.48,13.6-1.5,19.95-5.43a102.17,102.17,0,0,1,24.05-11.2c8.69-2.59,18-3,27.07-4.41,6.42-1,9-5.61,6.74-11.71-1.61-4.3-4.18-5.52-10.55-4.29-13.3,2.57-26.16,6.29-38.52,12.24-9.45,4.55-18.77,9.58-30,10.06a40.31,40.31,0,0,0-23.52,9c-6.15,4.9-14.33,5.86-22,7.43a9.51,9.51,0,0,1-4.22-.34c-4-1.06-5.95-4.74-3.77-8.17a33.56,33.56,0,0,1,7-7.89c4.1-3.34,9-5.77,12.93-9.23,13.2-11.48,27.74-21.08,42.36-30.56,5-3.26,10.62-5.7,16.09-8.21,3.6-1.64,5.77-4.07,6.09-8a8.49,8.49,0,0,0-5.56-8.3c-3.65-1.34-5.77,1-8.4,3.07-5.32,4.09-11,7.69-16.7,11.32-2.08,1.34-4.68,1.91-6.68,3.33-10.74,7.6-21.35,15.36-32,23.06-1.72,1.24-3.34,2.87-5.27,3.5a5.27,5.27,0,0,1-4.62-1,5,5,0,0,1-.46-4.7,64,64,0,0,1,8-10c10.28-10.36,20.94-20.35,31.06-30.86,3.4-3.52,5.83-8.05,8.29-12.36,1.68-2.93.39-5.44-2.79-6.86-5.22-2.35-8.65-1.06-12.69,4.32-3.61,4.82-6.82,10.24-11.37,14a314.11,314.11,0,0,1-28.59,20.67c-3.34,2.17-8,2.66-12.1,3.19a3.21,3.21,0,0,1-3.3-4.35c1.53-3.9,3.26-8,6-11.09,8.18-9.35,16.49-18.64,25.45-27.22,9.91-9.48,17.64-21.48,31.19-26.93,4.56-1.84,5.37-7.35,2.89-12-2.16-4.06-6-4.89-11-2.12-11.93,6.64-22,15.71-32,24.87-10.76,9.88-21.39,19.9-32.26,29.65-2,1.82-4.91,2.83-7.54,3.83-1.1.41-3.26.26-3.73-.44-.87-1.29-1.65-3.69-1-4.73a61,61,0,0,1,7.71-10.17c10.55-11,21.54-21.67,31.89-32.9,7-7.59,13.26-15.83,19.57-24,1-1.31,1.29-4.43.42-5.6a6.34,6.34,0,0,0-5.55-1.94,17.7,17.7,0,0,0-6.95,4.41c-5.4,5.16-10,11.35-15.89,15.79-11.15,8.37-22.21,16.7-31,27.67-4,5-7.81,10.09-11.92,15-3.18,3.79-6.32,7.76-10.15,10.81-4.29,3.41-8.81,2-11.46-2.82-8.11-14.75-5.76-29.73,3-42.35,7.71-11,21.7-35.15,26.09-44s-5.13-11.57-10.77-7.5c-3.84,2.78-12.8,15.61-18.66,25-2.73,4.39-17.84,27.36-20.41,34.75-1.4,4-4.14,6.54-7.48,8.64-.78.48-2.28.82-2.81.41a3.22,3.22,0,0,1-.64-2.83c1.82-6.14,4.39-12.11,5.57-18.36a39.06,39.06,0,0,1,4-12c3.43-6.26,3.51-10.85.7-11.45-5-1.07-7.5,3.18-10.75,5.7a6.39,6.39,0,0,0-1.54,2.74c-2.41,6.29-4.7,12.64-7.19,18.9a69.66,69.66,0,0,1-4.9,10.58c-2.77,4.53-4.34,5-8.43,1.51-7.83-6.65-16.2-12.51-24.51-18.49-4.58-3.3-6.46-7.86-5.43-14,1.4-8.43-3.59-49-8-57.15-2.43-4.53-6.66-8.18-10.48-11.82a5.55,5.55,0,0,0-7.83-.2c-1.59,1.55-3,4.2-3,6.3.1,2.57,1.19,5.88,3.06,7.44,4.38,3.7,5.92,8.23,7.52,13.53,3.37,11.2,3.6,22.5,3,33.86-.5,8.84-.75,18-3.46,26.31-2.45,7.45-5.72,14.47-5.67,22.51a2.94,2.94,0,0,1-1.67,2.21,3.11,3.11,0,0,1-2.71-1c-4-6.27-8.36-12.37-10-19.9-1.93-8.69-4.17-17.32-6.4-25.94a114.11,114.11,0,0,0-12.92-31.54c-2.93-4.79-4.73-10.26-7.24-15.32a67.39,67.39,0,0,0-6.31-11.07c-.91-1.21-3.89-1.54-5.68-1.14-1.1.24-2.45,2.61-2.45,4a82.38,82.38,0,0,0,1,12.74c.87,5.63,3,11.2,3,16.8,0,10.76,1.65,21.26,3.11,31.86.86,6.22-.07,12.71-.36,19.07a3.46,3.46,0,0,1-1.48,2.64c-.61.26-2.07-.55-2.64-1.28-5.87-7.57-11.62-15.24-17.43-22.86-1.73-2.27-3.45-4.56-5.35-6.67a2.34,2.34,0,0,0-4,1.42c-.11,6-.29,12.13.12,18.16.44,6.31,1.58,12.58,2.27,18.88.09.9-.65,1.89-1,2.83-.91-.41-2.11-.58-2.66-1.28-5.58-6.92-10.84-14.11-16.61-20.85-5.31-6.2-11.09-12-16.83-17.82a4,4,0,0,0-3.69-.66,4.36,4.36,0,0,0-1.85,3.47c.38,3.85.67,7.87,2.07,11.4,2,5.18,2.3,10.39,2,15.74,0,.93-.48,2.34-1.1,2.59a3.24,3.24,0,0,1-2.69-.95c-10.61-10.83-24.32-17.15-36.73-25.35a28.94,28.94,0,0,0-18.3-4.81c-1.26.09-3.11.65-3.5,1.53s.3,2.81,1.14,3.64c10.68,10.5,19.72,22.38,29,34.07,6.18,7.78,23.32,46,27.94,53.13,2.13,3.28,0,6.18-.32,9.19-.12.94-2,2.19-3.19,2.39-5.37.89-13.93-3.42-16-8.51-3.75-9.2-7.51-18.45-10.32-28-4.09-13.8-10.94-25.53-22.66-34-5.08-3.68-9.27-4.18-10.55-1.86-2.19,4,.61,6.74,2.85,9.45,4.55,5.5,6,12,6.45,18.89,0,.46-.59,1-1,1.41-.16.14-.75,0-1-.18a12.43,12.43,0,0,1-1.48-1.51c-3.94-4.58-7.62-9.4-11.85-13.67-4.58-4.63-9.84-8.37-17-7.53-3.11.36-4.28,2.26-3.07,5.24.8,2,1.85,3.85,2.82,5.76,3.21,6.32,6.83,12.46,9.55,19,3.13,7.51,5.52,15.33,8.09,23.06a3.21,3.21,0,0,1-.77,2.86c-.53.41-2,0-2.82-.41a8.73,8.73,0,0,1-2.38-2.13c-7.74-8.8-15.27-17.79-23.25-26.37-4.56-4.9-8.77-10.45-15.49-12.8-2.38-.84-4.7,1-3.85,3.26,4.37,11.65,8.2,23.59,13.69,34.71,3.59,7.28,7.32,14.41,10.14,22.07,3.55,9.6-.19,17.48-5.36,24.85-1.62,2.31-6,5.08-7.91,4.37-7.93-2.93-14.07,1.42-20.3,4.14-15.41,6.74-29.51,15.46-39.31,29.82-4,5.8-2.84,11.24,3.6,13.72,2.6,1,5.54,1.15,8.31,1.73,4.6,1,5.52,2.62,3,6.56a152.09,152.09,0,0,0-14.62,28.35,28.16,28.16,0,0,1-3.7,6.45c-1.88,2.52-4.54,2.53-6.09-.14a42.32,42.32,0,0,1-3.79-8.73c-5.76-18.74-11.22-37.57-17.1-56.27-13.9-44.17-30.38-87.39-48-130.18-4.75-11.52-9-23.23-13.34-34.93-1.66-4.51-.66-5.83,4.38-5.6,22.13,1,36,0,66.16-2.57s81.85-9.12,127.37-20.73S1820,810.64,1856.42,781s64.26-64.56,79.57-91.74,20.43-41.4,22.5-47a325.61,325.61,0,0,0,19.88-107.71c.36-23.37-4.47-76-15.59-105.51s-18.21-39.29-31.56-56.67c-8-10.48-35.12-27.73-56.17-31.92s-46.84-2.95-70.17.35c-20.12,2.84-39.79,8.13-59.23,14a282.25,282.25,0,0,0-36,13.43c-15.55,7.07-30.66,15.15-45.82,23.06-11.22,5.85-22.91,9.6-35.64,9.86-8.9.18-108.62-.59-144.65-5.87s-75.83-21.68-87.74-28.27c-34-18.83-68.58-36.55-102-56.54-17.3-10.37-35.33-20-55-25.58-3.6-1-4.61-3.35-6-6.53-7.93-18.3-13.24-37.53-20.25-56.16-5.27-14-10.12-28.18-15.27-42.24-8.94-24.4-16.09-49.5-27.77-72.85a121.58,121.58,0,0,0-8.91-15.68c-3.44-4.88-9.35-6-14.11-3-2.22,1.42-4,4-5.22,6.44a110.38,110.38,0,0,0-9.71,31.93c-2.48,17.49-2.3,86.64-2.25,94.44.07,11.27.61,22.55,1.09,33.81.65,15.06.56,15.4-10.57,24.45-4.45,3.62-7.81,3.49-10.7-1.06-5.34-8.38-10.35-17-15.47-25.49-3.84-6.38-7.55-12.83-11.5-19.13-2.17-3.47-14.45-21.35-27.81-40.53-15.64-22.47-32.77-46.72-36.9-51.72-2.62-3.19-5.67-5.55-10.12-4.34-3.89,1.06-5.71,4-6.51,7.73-1.7,8-4,15.95-5,24-1.86,14.82-3.46,29.7-4.25,44.61-1.29,24.37,3.29,48.06,10,71.4,2.72,9.54,34.48,90.16,38.8,98.22,3,5.65,6,11.31,9,17,1.75,3.27,1.82,6.61,1.45,10.32-2.08,20.53-4.09,41.08-5.63,61.66-1.87,24.86-3.3,49.75-4.83,74.63-1.06,17.36-2.19,34.71-3.22,52.07-.86,14.31-1.87,69.14-3.6,84.47s-5.94,90.85-7.17,120.39c-1.5,36-2.68,72-3.9,107.93-.87,25.65-1.46,51.3-2.46,76.95a43.79,43.79,0,0,1-2.82,13.49c-14.27,37.63-28.77,75.17-43.14,112.76-2.53,6.61-42.5,106.9-46.14,116.55q-35.49,93.95-70.69,188c-5.48,14.61-13.76,14.65-24.47,7.3-22-15.13-44.6-29.48-67.27-43.63-14.81-9.25-30.16-17.63-45.31-26.33-4-2.3-8.12-4.49-12.3-6.47-9.2-4.35-11.62-3.77-19,2.86-11.23,10.05-36.6,42.72-39.58,47.56-9.54,15.45-18.81,31.07-28.19,46.62a44.4,44.4,0,0,0-2.7,4.61c-3,6.71-1.22,10.13,5.93,11.31a19.88,19.88,0,0,0,3.19.21h35.13v-.12c10.7,0,21.41-.21,32.1.1a91,91,0,0,1,14.72,2c2.72.52,3.16,2.74.91,4.47a112.48,112.48,0,0,1-9.72,6.56c-7,4.31-13.91,8.63-21,12.7-5.55,3.18-11.28,6-17,9-15.85,8.13-31.93,15.82-47.49,24.45-9.62,5.34-18.46,12.09-27.67,18.16-7.93,5.22-9.63,12.37-7.61,21.36,2.64,11.79,4.51,23.75,6.85,35.61,1.65,8.33,15.82,67.74,17.61,70.77,2.14,3.64,5.51,4.38,9.12,2a46.38,46.38,0,0,0,8.13-6.88c8.11-8.47,44.13-40.2,51-46.17,9.92-8.58,64.25-57.29,75.66-66.88,13.91-11.69,27.34-23.95,41.17-35.75,4.26-3.64,8.71-8,13.81-9.46,5.8-1.64,9.85,4.55,14.64,7.35.62.36,1.25.7,1.84,1.1,5.17,3.55,5.13,4.18,3.23,10.55-5.89,19.8-12.51,39.44-17.12,59.54-7,30.54-12.6,61.4-18.67,92.14-3.94,19.91-8.17,39.79-11.35,59.82-4.81,30.24-8.83,60.59-13.13,90.91-1,7-1.69,14.08-2.68,21.1a9.67,9.67,0,0,1-1.78,4.77c-14,16.59-25.72,34.94-41,50.54-9.94,10.18-18.95,21.28-28.35,32-5.85,6.65-11.34,13.66-17.59,19.91-8.54,8.54-17.79,16.37-26.48,24.76-14.34,13.84-28.18,28.21-44,40.44-6.16,4.77-11.94,10-18.1,14.79-11.25,8.7-22.34,17.64-34,25.7-24.74,17.06-52.14,29.3-78.77,43-7.7,3.95-13.7,3.71-20.9-.17-15.1-8.15-31.2-13.9-47.58-19-22.3-7-45.26-9.33-68.38-10.52-20.07-1-39.88,1.9-59.36,6.46a159.52,159.52,0,0,0-36,13.43c-3.61,1.84-7.37,3.25-6.5,8.38.65,3.81,2.68,4.93,9,5.29s12.8.75,19.18,1.3c.67.06,1.44,1.25,1.77,2.07.15.39-.47,1.37-1,1.7a20.58,20.58,0,0,1-3.79,1.88c-9,3.42-17.08,8.58-25.15,13.78-14.37,9.25-24.76,22.45-35.67,35.16-2.62,3.05-2.44,6.45-.45,9.93s5.16,3.37,8.41,2.89c7-1,14.11-2,21.12-3.33,8.39-1.54,16.8-3.1,25.07-5.15,12.08-3,24.07-6.4,36.08-9.72,4.09-1.13,8.08-2.63,12.18-3.73a2.91,2.91,0,0,1,2.45,1.27c.42.74.45,2.4-.06,2.85a93.29,93.29,0,0,1-10,8c-8.91,5.88-52.52,38.7-64,50.76-2.57,2.68-3.95,6.68-5.28,10.29a3.07,3.07,0,0,0,3.3,4.24,60.29,60.29,0,0,0,9.33-1.82c1.91-.44,4.09-3,5.54-.5.77,1.32-.22,4.09-1.13,5.83-1.11,2.13-3,3.86-4.52,5.77-3.55,4.46-7.2,8.83-10.57,13.42-1.51,2-2.44,4.87-.29,6.84a8.07,8.07,0,0,0,5.69,1.68c3.86-.43,7.93-1,11.4-2.58,10.35-4.76,20.71-9.6,30.59-15.25,17-9.69,59.8-36.16,64.61-39,.69-.42,1.89,0,2.86.09-.27.92-.27,2.1-.86,2.71-2,2-4.25,3.78-6.29,5.77-5.1,5-10.81,9.46-15,15.08-8,10.7-17.67,20.4-22.15,33.5-.67,2-2.6,3.47-3.39,5.41a60.29,60.29,0,0,0-3.7,11.05c-1,5.09,1.32,7.5,6.52,6.81,6.34-.84,12.56-2.24,18.22-5.57,1.66-1,4.29-2.1,5.67-1.45,10.87,5.15,21.89,2.16,32.27-.34,17.72-4.27,33.61-13.41,49.5-22.17a53,53,0,0,0,5.17-3.75c9.78-7.14,19.61-14.2,29.33-21.43,3.94-2.93,20.59-21.1,25.73-26.45,10.71-11.12,20.1-23.17,27.24-36.83,2.53-4.83,6.21-7.16,11-9.3,15.58-7,31.22-13.92,46.21-22,19.73-10.7,39-22.22,58.17-33.92a411.51,411.51,0,0,0,37.19-25c12.63-9.76,45.35-36,49.08-39.29,6.12-5.39,10.29-9.61,18.26-16.29s12.66-1.79,14.19,1c1.35,2.46,2.06,5.28,3.06,7.93,2.63,7,5.22,14,7.91,20.92,2.18,5.64,15.76,44,21.72,56.86,7.72,16.71,19.79,53.08,50.72,81.17,14,12.68,22.62,20.53,37.65,25.3,8.76,2.78,17.21.49,20-8.19,5.88-18-9.18-58.72-14-73.86a362.53,362.53,0,0,0-17.37-44.72c-1.57-3.78-.11-6,3.6-5.07,6.55,1.6,13,3.67,19.44,5.62,3.31,1,4.25,3.29,3.63,6.63q-2,10.9-3.74,21.89c-.68,4.47.62,6.51,4.89,8.27a22.72,22.72,0,0,0,4.12,1.1c13.61,2.8,27.14,6.22,40.87,8.22,27.16,3.95,54.43,7.14,81.66,10.59,11.67,1.47,23.32,3.31,35,4.06,17.08,1.11,34.21,1.34,51.32,2,33.14,1.32,66.28,2.93,99.43,4,22.06.7,44.16,2.46,66.19-1,3.38-.54,7,.43,10.53.84,7.42.88,14.8,2.19,22.24,2.71,12.72.91,61.89,5.16,95.53,2.72s77-17,83.78-19.13c12.45-3.92,49.75-17.67,55.13-20.9,5-3,32.34-13.4,37.87-15.55,12.25-4.75,24.71-9,37-13.53,2.31-.86,18.13-8.65,24.14-10.41,2.38-.7,5.78.19,8.11,1.47q18.24,10.07,36.14,20.75c12.52,7.5,24.82,15.36,37.25,23a31.22,31.22,0,0,0,18.43,4.43,11.73,11.73,0,0,0,8.38-3.78q17.25-17.4,35-34.3c13.13-12.55,25.48-25.82,37.32-39.57,4-4.59,7.92-9.16,11.61-14,11.28-14.69,22.64-29.33,33.56-44.28,8.38-11.47,16.92-22.9,24-35.18,18.95-32.73,27.24-60.94,30.78-78,2-9.58-1-13.09-10.47-14.57-9.3-1.45-32.13,9.66-35.4,11.77-8.45,5.46-16.8,11.08-24.31,17.62-26.11,22.71-51.1,46.65-72.78,73.78a42.13,42.13,0,0,1-4.38,4.68c-5,4.6-6.44,4.49-9.75-1.06-2.55-4.28-4.79-8.75-7.18-13.14-12-21.92-24-43.81-38.79-64a18.32,18.32,0,0,1-3.64-12c.4-14.6.78-29.21.57-43.8-.29-21.37-1.18-42.72-1.67-64.09-.34-14.91-.19-29.83-.72-44.73-.48-13.16-3.77-49.25-4-54.17-.29-7.07-1.92-38.16-3.16-46.58-2.27-15.47-8.06-51.28-8.37-53.75q-2.3-18.57-4.53-37.15c-.41-3.46-.72-7-.83-10.44,0-.73,1-1.56,1.66-2.17.12-.11,1.31.55,1.52,1.06,2.16,5.22,4.4,10.43,6.24,15.77,1.77,5.13,3.41,6.14,8.52,4.47,4-1.31,6.6-3.67,7.69-8,1.19-4.79,8.73-32.51,9.79-35.44.4-1.11,2.7-1.87,4.22-2.06.55-.07,2,2,1.95,3.12-.3,8.84.58,17.88-5,25.82-1.54,2.22-2,5.27-2.7,8a116.87,116.87,0,0,0-3.45,31.72c.37,15.93-.19,16,9.42,28a42.54,42.54,0,0,0,9.6,8.26c1.46,1,4.17.94,5.91.29.84-.31,1.29-3.17,1-4.73-2.08-12.48-1.31-24.94.47-37.3,1.11-7.69,3.62-15.17,5.26-22.8,1.34-6.24,2.26-12.56,3.54-18.81.15-.76,1.32-1.31,2-2,.57.72,1.61,1.43,1.66,2.18.52,9.63.74,19.27-2,28.68-3.35,11.76-3.86,23.81-4.55,35.94-.5,8.73,4.8,12.86,10.33,17.08,3.83,2.92,8.15,1.34,10.65-3.08s5.24-8.54,7.12-13.11c2.43-5.89,5.25-12,5.91-18.16,2.08-19.44,3.24-39,4.74-58.49.82-10.6,1.57-21.16.89-31.86a26.24,26.24,0,0,1,8.82-22c8.5-7.54,14.46-16.55,15-28.24a13.73,13.73,0,0,1,5.52-11c1.69-1.3,3.22-2.81,4.95-4,5.39-3.85,7.62-9.17,7.67-15.62,0-2.85.17-5.7.31-8.55a10.44,10.44,0,0,1,4.3-8.09c10.92-8.94,12.78-23.24,5-35.07-3.07-4.65-2.81-6.05,2-9.39q7.39-5.16,14.91-10.2a14.58,14.58,0,0,1,3.81-1.84,4.89,4.89,0,0,1,6.37,3.93,29.79,29.79,0,0,1,.27,6.4c-.83,13.5-1.07,27.06-5.5,40.09a79.41,79.41,0,0,0-3.17,12.4c-2,11.76-.11,24.16-6.57,35.22-1.84,3.15.51,7.08,3.61,9.08,3.52,2.27,6.59.37,8.67-1.72a15.18,15.18,0,0,0,4.23-8.28c1.22-10.22,1.67-20.54,2.59-30.8.6-6.7.23-13.87,2.6-19.94,3.44-8.8,4.86-17.78,6.41-26.9.76-4.5,2.37-8.85,3.7-13.23.18-.58,1-1,1.52-1.42.39.59,1.07,1.16,1.11,1.78.64,8.47,1.92,17,1.54,25.4-.41,8.91,2.77,16.75,5.45,24.71,1.7,5.09,5.56,5.93,10.47,3.78a21.51,21.51,0,0,0,3.71-2.09q9.23-6.39,18.39-12.87c7.13-5,11.18-4.64,16,2.1a41.27,41.27,0,0,1,4.21,8.56c2.14,5.26,3.64,10.81,6.16,15.88,4.49,9,7.73,18.31,7.74,28.53a14.31,14.31,0,0,0,.53,3.15c.64,2.71,2.16,4.38,5.16,4.43,2.8,0,4.82-1,5.92-3.63,1.82-4.34,3.22-8.83,1.91-13.52a134.19,134.19,0,0,0-5.57-17.23c-4.09-9.48-8.83-18.67-13.2-28a56.26,56.26,0,0,1-4-9.91c-1-4.13-1.5-8.44,1.7-12.17,2.68-3.12,6.22-2.82,7.26,1.06.9,3.37.86,7,1.36,10.49.64,4.46,2.68,6.25,7,6.46a10.53,10.53,0,0,0,8.66-3.36c2.43-2.6,4.78-5.29,7.37-7.73,4.73-4.46,6.77-4.71,10.52-.12a124.32,124.32,0,0,1,11.58,16.61c4.42,7.7,7.68,16.07,12.24,23.67,8.89,14.82,15.62,30.35,18.37,47.48a7.88,7.88,0,0,0,.81,3.08c1.1,1.65,2.25,4,3.83,4.41a4.65,4.65,0,0,0,5.79-3.54c.76-3.74,1.36-7.8.68-11.47-1.36-7.33-2.92-14.76-5.69-21.63-4.51-11.22-9.12-22.61-15.53-32.76-3.58-5.66-7.27-11.23-10.37-17.21-2.45-4.72-5.24-9.26-7.69-14-1.63-3.14-3.43-6.34-4.23-9.73-1.33-5.7,3.32-12.17,8.88-12.3,6.07-.14,12.17.54,16.7,5.49q13,14.18,25.93,28.36c9.55,10.51,19,21.12,28.64,31.54,1.74,1.88,3,5.67,6.54,4.19,3.8-1.57.89-12.48.51-14.94-.92-6.09-11-21.36-12.64-24-2.07-3.31-17.75-25.15-23.36-32.89a97.16,97.16,0,0,1-6.47-9.77,5.85,5.85,0,0,1-.28-4.84c1.41-2.45,3.82-1.4,5.54-.13,5.44,4,11.24,7.7,16,12.45a171,171,0,0,0,18.51,15.59c7.49,5.67,21.55,27.89,24.18,30,5,4.08,10.6,1.77,12-4.59a13.85,13.85,0,0,0,0-5.29c-1.11-6.31-.49-13-6.33-24.66s-29.72-38.39-40.51-45.42a37.9,37.9,0,0,1-5.89-4.55c-1.85-1.81-1.43-5.47.64-7.75s4.09-.44,5.61.65c3.14,2.26,5.85,5.11,8.93,7.47,10.65,8.21,21.41,16.27,32,24.48,6.73,5.2,13.08,10.93,20.07,15.72,4.35,3,7.52,6.42,9.39,11.22.52,1.32.81,3,1.8,3.78,1.54,1.16,3.81,2.53,5.37,2.16s3.73-2.69,3.84-4.28c.38-5.33.15-10.71-4.6-14.64-2.14-1.78-41.68-36.88-42.8-37.75q-12.15-9.46-24.29-18.93a20.68,20.68,0,0,1-3.9-3.55c-1.72-2.32-.55-5.56,2.57-8.36,2.09-1.88,3.84-1.06,5.64.42,2.71,2.22,5.12,5.23,8.23,6.47,9,3.63,18.37,5.82,27.54,0a10.93,10.93,0,0,1,2.93-1.27c4-1.18,7.52-.94,10.66,2.55,1.79,2,4.57,3.12,6.92,4.62,1.76,1.12,3.63,2.09,5.29,3.34,3.39,2.56,6.68,5.27,10,7.9,9.73,7.69,20.87,13.64,28.3,24.15,4.49,6.35,9.72,12.19,14.63,18.24,1.93,2.37,4.24,3.9,7.43,2.66a6.35,6.35,0,0,0,3.31-8.11,23.56,23.56,0,0,0-4.4-7.14c-5.36-6.15-35.23-36.34-43-42.59-9.6-7.77-9.51-9.7-2.23-20.35.6-.88,1.29-1.71,2-2.52a6.62,6.62,0,0,1,8.65-1.85c4.11,2,8,4.47,12.09,6.53,5.38,2.71,10.66,6,16.37,7.65,10,3,16.62,8.89,20.19,18.62,2,5.37,6.54,8.39,10.23,7.29,4.24-1.27,5.41-6.58,2.59-12.84-5-11.09-12.07-20.15-24.33-24-2.7-.84-5.15-2.65-7.88-3.27-6-1.36-9.59-5.41-13.53-9.68-3.6-3.91-4.47-7.07-2.75-12.31,4.06-12.39,4.13-25.22,1.57-38-1.07-5.37,18-7.48,21.45-6.71,4.84,1.07,9.77,2.28,14.68,2.33,5.16,0,7.19-5,4-9.18a16.17,16.17,0,0,0-10.64-6.6c-8.78-1.28-17.55-2.59-26.35-3.66-5.27-.64-5.41-.47-4.39-5.71.9-4.57-.17-8.11-3.5-11.6-7.41-7.75-8.13-14.46-3.29-23.85,1.28-2.49,2.74-4.9,4.18-7.31,2.53-4.22,2.52-5.69-.69-9.47-1.61-1.89-3.67-3.4-5.24-5.32a18.23,18.23,0,0,1-3.29-5.41c-1.55-4.65.31-7.64,5.27-8.27,8.11-1,16.29-2.49,24.42-2.38,10.73.16,22.59-2.22,30.29,8.85a2.54,2.54,0,0,0,.88.6c3.15,1.68,7.68,1,9.79-1.61s1.15-5.17-.23-7.89C2216.36,1077.24,2212.41,1073.42,2206.46,1072.09Zm-408.35-123.9c4.38-2.3,8.73-4.64,13.18-6.8,1.56-.76,3.4-1.63,5-1.46,13,1.36,26.29,1.59,37.85,9.24,4.71,3.12,9.94,5.45,14.81,8.35,2.25,1.34,3.94,1,5.72-.64,6.8-6.14,7.37-14.18,6.79-22.52-.1-1.36-1-2.65-1.2-4a3.3,3.3,0,0,1,4.09-3.6c8.55,2.4,16.86,5.37,23.64,11.46,2.17,2,3.35,3.79,3.12,7.26a20,20,0,0,0,3,10.89c3.29,5.47,9.91,7,14.74,3.32,3.08-2.37,6.05-4.9,9-7.44,3.76-3.24,12.06-3.2,15.58.43.7.71.69,2.56.38,3.73-.82,3.08-2.27,6-3,9.12-1.38,6.21,1.15,9.43,7.57,10,3.17.29,6.57-.3,9.49.64a111.79,111.79,0,0,1,14.54,6.3c4.17,2,7.93,4.15,13,2.41,5.4-1.84,11.56,1.25,13.92,6.41.49,1.09-.39,3.76-1.44,4.41-2.37,1.47-5.25,2.09-7.9,3.14-5.79,2.29-10.1,6.55-13.88,11.22-3.18,4-2,6.71,2.92,8.68,2,.79,4.14,1.31,5.89,2.46,2.33,1.52,5.16,3.17,6.22,5.48.71,1.56-1,4.48-2.09,6.55-1.89,3.59-.7,6.38,2.13,8.4a106.48,106.48,0,0,0,10.09,5.91c4.4,2.45,6.43,6.3,7.33,11.15,2.38,12.91-2.93,24.47-6.24,36.35-.75,2.73-3.71,3.62-6.19,2.64-7.27-2.84-14.73-5.48-21.42-9.39-3.37-2-5.26-6.49-7.79-9.87-1.66-2.23-2.94-4.9-5-6.63-3.13-2.6-6.55-2.28-9.86.06-3.59,2.53-4.78,6-3.25,10.19a18.09,18.09,0,0,0,2.87,5.68c3.72,4.28,3.43,8.74,2.37,14a96.13,96.13,0,0,1-9.72,27.94c-1.6,2.9-3.84,3.08-5.83.48-3.54-4.6-6.22-9.59-6-15.63.15-4-.38-7.78-2.79-11.17-2.56-3.58-5.73-4.61-9-1.81-2.59,2.21-4.51,5.33-6.29,8.31-2,3.34-3.27,7.12-5.34,10.41-.75,1.2-2.82,1.91-4.38,2.1-.55.07-1.9-2-2-3.22-.35-5.4-2.18-10.28-3.94-15.35-1.57-4.53-1-9.81-1.34-14.76l.75,0c0-3.55.17-7.11,0-10.65-.24-4.25-2.72-6.29-7-6.15-3.48.11-6.32,1.55-7.89,4.63a68.6,68.6,0,0,0-5.12,11.71A28.06,28.06,0,0,1,1878,1103c-2.53,2-5.06,3.94-7.65,5.82-8.62,6.26-16.88,12.91-24,20.85-1.5,1.66-3.72,1.23-4-1-.84-7.67-3.13-15.08-1.41-23.17,2-9.33,2.61-19,3.1-28.58a21.23,21.23,0,0,1,6.78-15,59.28,59.28,0,0,0,9.5-11.33c2.82-4.62.36-8.64-5.12-8.32-7,.4-14,1.83-21.06,2.69a4.05,4.05,0,0,1-2.45-1.13c-.18-.14.19-1.4.62-1.79,6.09-5.41,12.29-10.69,18.35-16.13,2.61-2.35,5.42-4.68,7.31-7.56,2.43-3.71.26-8.08-4.15-8.84a33.5,33.5,0,0,0-9.47-.46c-7.37.89-33.24-5.13-35.36-8.6,2.59-.93,5.13-2,7.77-2.74,2.31-.61,4.74-.75,7.1-1.16,5.91-1,11.93-1.63,17.67-3.24,4.33-1.22,4.56-5.38.83-8-1.43-1-3.09-2.22-4.71-2.34-7.26-.53-12-5.65-14.89-10.76-5.19-9-13.67-13.18-21.66-18.34-.9-.58-1.92-1-2.82-1.54C1796.37,951.07,1796.3,949.14,1798.11,948.19Zm-203.29,172.59c.39-1.37,1-2.68,1.5-4,4.18-10.62,10.29-20.19,17-29.28,2.2-3,5.89-5,9.27-6.8,2.74-1.44,5.72-2.91,4.54-6-.84-2.24-3.64-4.44-6-5.22s-5.58.07-8.41.22v-.37c-3.18,0-6.44.44-9.52-.09-5.25-.92-6-3.31-2.62-7.27a19.33,19.33,0,0,1,4.72-4.18c5.81-3.43,11.87-6.45,17.63-9.94,4.84-2.94,9-2.81,13.7.58,8.18,5.86,11.6,4.53,16.86-3.73,6.11-9.58,13-18.69,19.59-27.93a17.34,17.34,0,0,1,4.51-4.49c2.61-1.68,6.45-4.69,8.13-3.86,3,1.49.94,5.51.45,8.52-1.16,7-2.24,14-3.32,21a22.72,22.72,0,0,0-.15,3.2c-.06,6.22,2.12,9.87,6.48,10.89,4.09,1,9.48-2.93,10.91-8.33.88-3.33.22-6.87,3.09-9.82,8.1-8.33,15.59-17.32,26.53-22.23,5.25-2.35,7.69-.81,6.72,4.82a56.17,56.17,0,0,1-4,11.95c-2,4.91-5,9.5-6.61,14.52-2.14,6.58,1,10.28,8,10.08a18,18,0,0,0,7.25-1.39c8.25-4.06,16.32-8.49,24.49-12.73,6.68-3.47,13.31-6.64,21.32-4,3.28,1.09,7,.67,10.58,1.13,5.12.66,7.3,4.24,4.17,8a88.46,88.46,0,0,1-15,14.76,105.17,105.17,0,0,1-24.17,13.07c-3.14,1.26-6,3.94-8.23,6.61-4.61,5.51-2.9,11.5,4,12.85,15.94,3.1,24.11,15.36,32.92,26.9a17.26,17.26,0,0,1,2.94,7.88,19.78,19.78,0,0,0,5.39,11.38c2.46,2.54,3.09,5.44,2.93,8.78-.21,4.1-.78,4.58-5.23,4.79a136.65,136.65,0,0,0-13.73,1.16c-4.94.75-9.49,0-12.51-3.92-3.34-4.4-8-5.67-12.77-7.13-6.42-2-10.42,1-9.93,7.77a81.83,81.83,0,0,0,2.18,12.57,37.48,37.48,0,0,1-1.61,22c-.18.49-.87,1.18-1.2,1.12-.59-.11-1.48-.65-1.56-1.13-1.16-6.51-6-10.1-10.47-14.23s-8.42-9.5-12.57-14.32c-1.38-1.62-2.51-3.54-4.15-4.82-3.94-3.09-9.5-1.6-10,3.27-1.43,15.29-10.11,27.88-14.82,41.93-1.66,5-4.48,9.67-7.35,14.13s-7.78,4.15-10.06-.73a162.08,162.08,0,0,1-7.53-19.81c-.68-2.13.39-4.81.65-7.24.81-7.7,2.85-15.36.78-23.16a31.25,31.25,0,0,0-1.12-4.12c-2.21-5.23-7-6.62-11-2.59-4.47,4.46-8.24,9.63-12.24,14.55-5.59,6.87-11,13.86-16.74,20.63-.94,1.12-2.89,1.4-4.37,2.07-.58-1.57-1.54-3.1-1.69-4.7-1-10.52,1.27-20.48,5.72-30,1-2.24,2.58-4.31,3.29-6.65a7,7,0,0,0-5.19-9,48.3,48.3,0,0,0-6.39-.42c-2.49-.18-3-1.85-2.06-3.65,1.62-3.11,3.78-5.93,5.39-9,.75-1.44,1.58-4,.91-4.77a7.1,7.1,0,0,0-5.28-2.13,24.77,24.77,0,0,0-8,2.57c-3.51,1.69-6.73,4-10.26,5.66-2.1,1-5.29,2.41-6.72,1.54C1591.89,1126.62,1594.05,1123.41,1594.82,1120.78Zm29.13,188c4.1,4.8,12.69,3,13.29-3.09.64-6.49,3.38-10.49,8.61-13.64a7.93,7.93,0,0,0,3.38-3.94c2.21-7.21,7.66-11.83,12.79-16.71,1.5-1.43,3-3.06,4.87-3.82,1.37-.56,4-.48,4.73.41s.58,3.41-.06,4.82a38.4,38.4,0,0,1-4.19,6.15c-1.68,2.3-3.61,4.43-5.08,6.86-2.8,4.61-3.18,8.62-1,9.71,3.72,1.91,7-.29,10-2,2-1.14,3.24-3.65,4.82-5.55,3-3.66,4.22-3.76,7.74-.68,4.38,3.82,4.62,6.55-.25,8.92s-7.77,5.62-8.84,11c-1.64,8.24-6.78,13.92-14.27,17.57-8.59,4.18-16.56,9.72-26.4,11.06-3.11.43-11.72.78-12.94-3-2.09-6.56-5.83-19.19-7.43-27-3.2-15.71-7.92-23.51-6.92-40.61.49-8.35,4.74-15.18,10.62-20.31,9.6-8.38,19.57-16.45,31.43-21.73,2.84-1.26,5.1-3.79,7.72-5.6a29.6,29.6,0,0,1,4.12-2c.94,1.31,2.53,2.58,2.34,3.46-.48,2.3-1.15,5.21-2.82,6.48-6.77,5.18-10.58,12.34-14.6,19.5-5.4,9.59-11.37,18.87-16.67,28.51-4.83,8.82-7.76,18.33-7.4,28.52A11.65,11.65,0,0,0,1624,1308.75Zm-43-159.48a136.51,136.51,0,0,1,14.45-6.75c3.63-1.44,6.94,1.22,5.75,4.87a69.71,69.71,0,0,1-6.34,13.32c-1.2,2.07-3.4,3.59-5.25,5.26-1.5,1.36-3.13,2.57-4.71,3.85-1.43-1.86-3.48-3.53-4.16-5.63-1.07-3.33-1.22-7-1.89-11.31C1579.21,1152.05,1579.67,1149.94,1580.9,1149.27ZM1404,401.26c-.26.8-1.37,1.42-2.25,1.89-3.09,1.63-6.56,2.74-9.28,4.83-5.45,4.2-7.17,11.84-4.62,18.19,5.48,13.66,14.93,23.94,27.13,31.9,4.67,3.05,9.74,3.78,15.26,3.66,8.48-.17,10.91,2.3,10.49,10.89a63.66,63.66,0,0,1-7.18,25.38c-3.06,6.06-9.12,8.51-16,9-26.76,2-47.64-8.77-63.73-29.48-2.7-3.47-11.12-18.46-13.16-33.81-1.69-12.8,1.74-25.52,10.17-35,18.54-20.91,45-14.67,51.55-9.66C1403.08,399.63,1404.15,400.75,1404,401.26ZM856.08,1467.43c7-21.28,11.86-43.22,20.48-64,4.18-10.08,65.87-171.08,70-180.88,5.51-13.06,22.26-56.7,25.41-65.36q5.46-15,11.6-29.71c6.8-16.34,26.56-68.66,30.46-78.13,2.83-6.85,8.7-22.16,13.29-36.33,3.28-10.15,5.9-19.72,6.26-25.17,1.49-22.72,1.47-56.84,1.71-64,.17-5.28,2.09-36.42,1.91-46.73-.2-10.73,3.62-83.08,4.52-103.36,1.33-29.92,3.51-59.8,5.2-89.71.39-6.75.07-13.54.41-20.29.4-7.79,6.68-119.82,7.12-128,.41-7.52,3.83-61.84,6.51-87.4.61-5.76,2-21.6,5.49-22.38s5.53,6.5,7.17,8.73c3.42,4.64,6.82,9.29,10.26,13.91a61,61,0,0,0,4.8,5.74c3.23,3.36,6.41,3.72,9.36,1.27,3.37-2.8,4.46-7,2.13-10.47a123,123,0,0,0-9.61-12.76c-4.45-5.13-36.18-51.42-40.56-62.9-6.31-16.56-13.8-32.68-21.07-48.87-5.26-11.7-17.52-55.33-20.29-64.87a49.24,49.24,0,0,1-1.88-10.35c-.69-10.23-1.18-20.47-1.58-30.72-.07-2,1-15.07,2-26.29.77-8.34.07-24.72,5.73-26.1s7.18,4.55,9.59,7.72c9.42,12.4,48.75,71,58.1,86.5,11.2,18.53,21.61,37.53,32.26,56.39,5.42,9.6,20.62,40.3,30.28,35.46,4.83-2.42,2.81-9-1.16-16s-9.9-14.45-12.88-18.67c-2-2.88-3.94-5.86-5.72-8.91-2.29-3.95-1.79-6.15,1.48-9.49a22.51,22.51,0,0,1,12.26-6.06c6.09-1.17,8.44-5.15,8.44-10.62,0-7.09-.6-14.18-1-21.26-.13-2.13-1-104.42,0-123.21.29-5.52,2.91-11,4.82-16.31,1.26-3.54,3.93-3.89,6.42-.69s5.22,6.9,6.74,10.78c5.17,13.18,11.18,26.12,13.13,40.35a49.81,49.81,0,0,1,.45,5.31c.35,10.29.69,20.63.83,30.84.14,9.91,5.4,55.73,4.26,63.29-.56,3.7.26,7.68.87,11.46.58,3.58,2.77,5.59,6.71,5.4,4.27-.21,7.3-1.88,7.79-5.83.61-4.91,1.07-10.09.18-14.89-1.14-6.24-3.75-34.11-4.78-41.84-.51-3.87-.75-7.77-1-11.67,0-.49.56-1,.86-1.54.52.37,1.28.62,1.53,1.12,2.65,5.43,5.63,10.75,7.69,16.4,2.91,8,5.17,16.23,7.61,24.38,1.22,4.07,2.37,8.16,3.55,12.25,1.07,3.73,3.33,11.17.42,16.76s3.67,16.17,8.43,16.86c18.57,2.7,35.43,9.72,51.84,18.25,1,.51,2,1,2.95,1.55,6.56,3.49,71.51,37.56,78.64,42.14,8.7,5.59,18,10,27.22,14.51,3.19,1.56,15.78,6.35,14.73,9s-8.38-.34-20,.78-24,2.88-38.23,20.51-13.15,40.53-10.26,50.29c1.61,5.43,10.14,39.85,40,55.16s54,12.19,60.23,10.27a23.71,23.71,0,0,0,14.62-11.68c6.55-12.12,10.19-24.65,9.62-38.77-.55-13.77-5-36.46-13.41-51.89-7.3-13.34-18.9-20.44-18.1-21.49,1.71-2.25,18.71,4.52,25.76,6,18.89,4.05,46,8.9,74,10.31,51.28,2.6,42.92,1.7,50,1.69,13.85,0,27.7-.13,41.55-.12,3.09,0,22.79.56,39-3.09,14.53-3.28,25.34-10.53,33.75-15.07,22.24-12,44.67-23.68,69.07-30.7a376.37,376.37,0,0,1,38.5-9c13.67-2.41,51.09-11,83.83-2.1s44.39,28.41,54.16,42.82c8.89,13.11,14.9,27.26,19.8,42.33,3.74,11.48,11.28,36.09,12.5,56.9s1,53.35.28,65.32A234.9,234.9,0,0,1,1952,620.1c-5.36,16.24-11.11,28.87-19.72,47s-33,58-55.37,78.65A397.48,397.48,0,0,1,1811,795.41c-20.85,12.35-88.35,44.67-100.84,48.77-17.58,5.77-35.45,10.9-53.5,15-20.11,4.5-77.1,15.47-143.26,16.13s-114.64-21.42-130-27.72c-8.5-3.47-16.58-8-24.83-12.06-25.72-12.77-48.19-30.26-70.3-48.29-2.48-2-7.67-9.75-12.55-5s3.3,12.8,6.52,15.94A120.21,120.21,0,0,0,1297.14,810c8.44,5.94,32.36,26.24,69.56,43.18s87.63,31.34,97.49,32.88c5.11.79,7.7,3,9.85,8.08,8.51,19.9,21.46,50,29.79,70C1511.7,983,1543,1077,1545.37,1084c3.89,11.79,7.43,23.69,11.17,35.52,1,3,10.07,36.94,16.86,67.13,11.31,50.24,25.58,115.54,26.7,121.37,2,10.39,22.51,111.41,24.52,123.57,1.57,9.45,9.31,61.77,9.56,63.88,1.09,9.12,8.9,67.22,10.15,75.6a17.51,17.51,0,0,1,.38,2.1c.37,16,1.63,15.7-12.69,21.46-17.37,7-35.78,9.51-53.68,14.2-19.71,5.16-39.87,7.68-60,10.31-13,1.7-75.28,5.22-93.22,6.52-10.21.75-63.19-.07-75.18-1.21-9.55-.91-19.1-1.82-28.65-2.81-13.41-1.4-26.81-2.81-40.21-4.36-2.43-.28-33.63-6.15-46.73-8.92-7.94-1.67-15.67-4.45-23.43-6.92-3.83-1.22-5.66-3.91-5.2-8.16.82-7.75,12.31-75.26,15.32-101.21,3.57-30.71,4.47-61.93,5.55-72.2.48-4.58,2.18-13.32-5.94-13-5.17.19-8.21,10.24-8.55,14.42-1.7,20.56-2.57,41.2-4.7,61.71-1.83,17.56-11.79,86.14-14.23,102.94-1.45,10-1.79,20.12-4.33,30-1.74,6.83-1.28,13.84,3.37,20.32,5.58,7.78,10.28,16.2,15.18,24.45,6.61,11.12,15.08,20.6,24.68,29.19,1.33,1.19,5.05,1.79,2.51,5.24s-4,1.74-5.84,1.51c-5.73-.7-9.42-4.65-12.59-9.11-2.68-3.77-5.28-7.6-8.05-11.3a32.25,32.25,0,0,0-4.34-4.71c-7.57-6.79-15.9-4.9-19.59,4.42-3.22,8.1-2.45,16.29,1.15,23.83,2,4.18,1.92,11.63-.52,15.08-3.25,4.61-8.84,15-18.91,14.6-7.43-.89-13.78-6.76-16.08-13.13s-6.78-26.81-11.46-40.11c-3.22-9.13-6.58-12.54-12.83-10s-1.84,12.67-1.52,14c1.44,6.21,2.85,12.43,4.38,18.62a89.47,89.47,0,0,0,3.3,11.2c4.32,11-.77,17.66-9.22,23.42-3.2,2.18-9.94.78-12.52-2.79s-5.45-7.74-6.5-12c-3.13-12.74-5.51-25.67-8-38.58a65.73,65.73,0,0,0-3.25-12.18c-1.84-4.47-10.64-1.84-9.88,10.81.56,9.49,2,28.06.83,38.52-.4,3.48.49,13.86-11,15-5.45.53-11.86-6.77-14.59-17.16-3-11.55-2.08-26.64-1.54-33.32a84.06,84.06,0,0,0,.19-12.79c-.28-3.84-2.72-5.83-6.18-6.13s-5.34,1.71-6.3,4.62c-1.4,4.26.69,25.12-.5,31.14-1,5.07-4.33,7.67-9.26,9.15-5.16,1.55-10.13,0-12.47-3.49a32.71,32.71,0,0,1-5.37-15.92c-.73-13-2.81-26-1.08-39.11.67-5.09,1.77-9.82,5.39-13.62,3.76-4,4.58-8.83,4.19-13.91-1.47-19.17-4.23-86.29-4.32-90.13-.26-10.92-.59-21.89-1.54-32.72-.65-7.29-1.53-33.69-1.48-51.87,0-8.45.71-30-7.58-30.16s-7.47,16.16-7.51,21.43c-.08,9.61-.14,19.31,1.13,28.79s2.77,53.54,3.39,66c.33,6.76.39,13.55.17,20.31-.16,4.84-1.76,6.52-6.59,6.51-4.18,0-8.73-.18-12.48-1.77-15.06-6.41-29.89-13.36-44.78-20.19-6.4-2.93-38.24-22.51-48.08-28.85q-11.64-7.5-22.74-15.81c-4.24-3.17-7.77-7.28-11.93-10.55C855,1478.56,854.17,1473.27,856.08,1467.43Zm370.51,380.88c-4.33-.07-6-16.16-7-20.22-1.76-7.35-3.12-14.77-3-22.46a42.74,42.74,0,0,1,.54-8.49c.3-1.36,2.09-3.29,3.21-3.3a5,5,0,0,1,3.8,2.86c.73,2.67.56,5.6.68,8.44.08,1.77,2.2,24.42,3.73,33.9C1229.53,1844.86,1230.92,1848.38,1226.59,1848.31ZM797.34,1480.56c-.75,1.2-4.56,9.44-6.2,11.9-4.54,6.81-11.6,11.39-17.9,16.72-10.27,8.68-20.16,17.81-30.36,26.58-6.16,5.3-12.83,10-18.86,15.48-14.76,13.29-29.2,26.92-43.91,40.26-6.27,5.68-13.05,10.8-19.31,16.49-7.59,6.89-14.89,14.1-22.28,21.21-5.12,4.92-10.07,10-15.32,14.79a19.69,19.69,0,0,1-6.45,3.58c-.81.29-3-.71-3.19-1.5-3.28-11.21-7-22.34-9.28-33.77-3.37-17.37-5.63-35-8.36-52.45-.11-.7-.16-1.41-.24-2.21,0-4.57,1.81-8.67,5.83-10.62,8.59-4.16,51.29-28.09,63.09-34.37,4.95-2.63,43.17-23.31,55.12-29.54A98.48,98.48,0,0,0,734.63,1473c3-2.33,5.87-3.71,9.68-3.51,11.72.61,23.44,1,35.15,1.59,4.86.23,9.8.17,14.56,1C799.32,1473.09,800.22,1476,797.34,1480.56Zm-86.49-47.07a33.57,33.57,0,0,0,11.86,4c14.76,2,29.66,3,44.34,5.41,7.59,1.23,14.85,4.54,22.24,7,2.79.92,19.48,2.88,18.39,7.36s-10.56,2.81-11.9,2.71c-3.28-.25-6.55-.53-9.83-.79v.08c-29.79-2.5-59.56-5.23-89.38-7.41-17-1.24-33.95-4.2-51.11-3a18.19,18.19,0,0,1-3.21-.12c-3.86-.39-4.88-2.08-3-5.75,2.31-4.41,4.89-8.68,7.55-12.89,6.25-9.9,13.25-19.39,18.74-29.68,5-9.41,13.17-15.72,19.92-23.4a84,84,0,0,1,9.36-8.61c5.13-4.31,8.94-4.75,14.49-1.64q27,15.09,53.84,30.34c9.86,5.62,20,11,29.21,17.48,9.84,6.94,18.8,15.12,28.12,22.78a7.67,7.67,0,0,1,1.35,1.64c1.76,2.51.7,5.42-2.24,5.39a36.49,36.49,0,0,1-9.34-1.37c-6.84-2-13.58-4.21-20.34-6.43-2.46-.81-15.2-5.7-25.78-7.15-15.6-2.15-47.95-4.61-51.69-3.92C708.28,1426.25,707.24,1431.43,710.85,1433.49Zm109,60.71c-4.49-4-5.05-8.2-2-13.17,3.52-5.62,8.8-10.14,10.37-17,.17-.74,3.24-1.69,4.37-1.19a13.67,13.67,0,0,1,8.41,12c-2.92,7.47-5.7,15-8.83,22.38a3.42,3.42,0,0,1-5.31,1.58C824.53,1497.26,821.92,1496,819.86,1494.2Zm-40.63,301.25c4.32-30.93,8.53-55,11.62-73.56,1.62-9.75,9.33-50,11.54-58.91,4.22-17,19.69-84.28,22.57-101.08s10.85-31.56,15.67-47.53c.67-2.23,2.51-3.48,5-2,2.13,1.24,4.68,2.21,6.15,4,7.46,9.19,33.48,28.78,36.7,32.07,9.44,9.68,20.21,17.75,30.68,26.2,6.66,5.36,7.09,6.05,4.26,13.41a287.31,287.31,0,0,0-9.46,29.34c-3.17,11.91-24.43,61.38-29.66,74.86-4.85,12.49-8.58,25.4-13,38.06-2.2,6.34-19.2,55.39-22.44,62.83-5.65,13-20.45,55.81-21.15,58.5-2.59,10-22.23,52.57-24.53,61.46-2.17,8.44-7.26,16.11-10.85,24.21-2,4.54-3.49,9.32-5.37,13.91-.33.8-1.57,1.8-2.27,1.72s-1.63-1.27-1.91-2.15c-2.18-6.77-8.67-49.26-9.43-59.48C772.38,1878.52,772.46,1844,779.23,1795.45ZM716.33,1992c-2.07,1.9-4.1,3.84-6.11,5.81-14.2,13.92-71.9,62.16-84.58,71.23-14.71,10.52-29.58,20.81-44.42,31.12-2,1.41-4.38,2.33-6.5,3.6-3,1.8-29.76,16.3-35,19.33a225.77,225.77,0,0,1-40.52,18.61c-16.37,5.62-26.51,17.26-34.59,31.62a94.51,94.51,0,0,1-8.2,12.29c-22.7,28.61-51.32,50.22-82.3,69-4.11,2.48-10,7.7-13.54,4.3s22.46-17.91,28.15-22.82c7.73-6.67,15.09-13.79,23.21-20,5.87-4.49,11-10,16.17-15.35,4.57-4.7,5.52-10.23,3.1-14.55-1.84-3.31-5.27-4.1-8-1.51-4.88,4.65-24.3,24.42-30.12,28.46-7.27,5-27,20.95-30.26,23.11-9.76,6.54-19.64,12.9-29.95,18.49-5,2.69-22.91,13.14-25.16,10.17s2.33-7.35,4.46-10.34c3.33-4.7,24.18-23.9,40.71-42.18,11.16-12.33,20.12-25.85,21.26-28.1,4.91-9.71,8.34-19.62,7.22-20.66-1.68-1.58-3.45-2.37-5.72-1s-4.59,2.08-6.55,3.57c-6.16,4.68-12.14,9.62-18.22,14.41C336.66,2191.8,320.5,2200,304.83,2209c-10.18,5.84-20.08,12.15-30.19,18.1-7.62,4.49-15.34,8.78-23.1,13-.63.34-1.89-.47-2.86-.75.22-.67.24-1.54.69-2,5.9-5.63,11.94-11.13,17.8-16.81,7.83-7.6,58.87-37.81,63.5-40.45q18-10.21,35.9-20.61c2.09-1.22,5.06-2.7,3.67-5.57-1.3-2.64-4.4-3.64-7.42-2.64-4.69,1.55-9.63,2.79-13.85,5.24-8.26,4.81-39.33,21.82-46.29,26.12-14.5,9-29.85,16.62-42.8,28a6.6,6.6,0,0,1-2.72,1.58,5.15,5.15,0,0,1-2.9-.51c-.25-.1-.34-1.34-.07-1.8,3.07-5.18,57.31-46.31,84.22-64.21,13.23-8.81-1.77-17.38-9.25-15.19-13.62,4-27.28,7.82-40.94,11.66-3.74,1.06-7.62,1.69-11.31,2.92-12.46,4.15-24.78,8.77-37.34,12.61-6.08,1.86-12.54,2.53-18.88,3.43-2.18.31-5.52,2.31-6.42-.92-.47-1.68,1.46-4.85,3.2-6.19,6.45-5,12.86-10.29,20.05-13.95,12.3-6.27,25.11-11.6,37.86-17a152.08,152.08,0,0,1,48.4-11.71c3.67-.25,7.19-.15,9.62-3.1,1.35-1.65-2.72-4.1-9.44-4.81-15.24-1.6-30.51-3-45.76-4.42a15,15,0,0,1-3.14-.48,2.1,2.1,0,0,1-1.23-1.36,2,2,0,0,1,.68-1.79,38,38,0,0,1,6.84-2.59c15-3.43,20.31-5.43,45.54-4.66s37.93,1.67,66.73,9.76,40.67,14.41,45.27,17.11c2.12,1.24,13.52,9.37,18.51,7.51,6.31-2.36,28.16-10.72,65.33-31.35s36.11-20.79,52.85-33.29c7.07-5.27,13.86-10.92,20.79-16.38,4.45-3.49,9.06-6.8,13.36-10.47,2.66-2.27,23.1-19.93,28.75-24.71,4-3.4,23-21.52,28.56-27,10.33-10.21,20.27-20.82,30.32-31.31,4.92-5.13,9.7-10.4,14.58-15.57,1.22-1.3,2.78-2.32,3.81-3.74,11.35-15.47,26.28-27.9,37.11-43.81a17.49,17.49,0,0,1,3.86-3.61c2.28-1.77,3.75-1.1,4.1,2,.27,2.44,0,4.93.26,7.38a74.41,74.41,0,0,0,1.3,10.45c2.07,8.84,2.53,17.81,2.72,26.79,0,2-1.54,11.72-4.31,15.86C750.28,1959.51,724.12,1984.83,716.33,1992Zm114.36,133.44c3.1,7.92,17.23,51.76,18.95,66.25.41,3.4.6,7.64-2.86,9.75s-6.73-.54-9.85-2.24a85,85,0,0,1-19.56-14.72,215.68,215.68,0,0,1-30.31-38.5c-7-11.26-11.78-23.35-17.4-35.18C762,2094.67,756,2078,750,2061.34c-3.88-10.68-7.18-21.57-11-32.28-2-5.67-4.32-11.24-6.86-16.69-3.59-7.74-2.79-14.65,4.13-19.75A106.26,106.26,0,0,0,759.12,1969a26.37,26.37,0,0,1,3.69-3.86c4.35-4,7-3.4,8.23,2,1.18,5.16,1.92,10.42,3,16.53a61.81,61.81,0,0,1-2.55,7.26q-8.78,18.24-17.8,36.37c-3.66,7.32-2.61,9.87,4.7,14.41a238.44,238.44,0,0,0,29.93,15.95c9.57,4.19,16,11.39,20.62,20.5,3.17,6.31,6.13,12.73,9.18,19.11,2,4.17,4,8.3,5.93,12.51C826.36,2115,828.62,2120.16,830.69,2125.43Zm76-239c-2.67,8.76-11.81,42.1-12.85,50.32-.83,6.6-10.48,44.35-12.94,54.7-4,16.83-7.27,33.84-10.81,50.78-1.52,7.29-2.92,14.6-4.42,21.89-1.22,5.91-2.31,6.72-8.81,6.82-8.41-.15-15.93-3.62-23.27-7s-33.89-18.51-40.26-21.63c-7.3-3.56-14.67-7-21.94-10.6-2.88-1.43-4.24-3.73-2.56-7,.8-1.58,1.64-3.14,2.4-4.74,5.07-10.57,10.64-20.93,15-31.77,4.79-11.83,8.46-24.11,12.67-36.18,1.16-3.34,20.37-46.72,26.58-66,2.49-7.74,31.19-78,32.86-83.08,5.24-15.81,9.9-31.83,15.87-47.36,5.58-14.53,28-76.08,29.59-79.6,3.36-7.41,7.06-14.56,9.69-22.41,6.65-19.82,14.54-39.22,22.17-58.7,2.12-5.42,3.23-5.51,7.52-2.25,5.08,3.87,10,7.89,15.22,11.61,7.49,5.38,15.17,10.48,22.68,15.83a11.35,11.35,0,0,0,9.08,2c3.65-.68,5.5-4.28,3.24-7.25-2.78-3.63-15.11-14.35-18.17-16.14-13.26-7.72-58.71-43.41-66.78-50.92-2.82-2.62-34-29.6-43.35-37.28-1.36-1.12-10-6.12-6.71-9.22s11.5,5,13.57,6.57c10.89,8.21,51.15,34.15,59.12,38.37,14.4,7.64,33.71,18.18,42.75,22a235.86,235.86,0,0,0,26.14,9.15c6.3,1.84,8.13,6.35,8.71,11.83.83,7.68,1.16,15.41,1.88,23.11.51,5.36-1.38,9.65-4.83,13.62-4.92,5.63-9.77,11.35-14.36,17.25-14.13,18.14-51.73,93.59-55.59,109a7.27,7.27,0,0,1-4,4.44c-11.12,3.77-16.92,12.89-21.39,22.48a163.2,163.2,0,0,0-9.87,25.66c-1.57,5.75-6.48,25.53-5.89,41.79.54,15.19,6.37,26.93,10.54,32.07A7.61,7.61,0,0,1,906.7,1886.46Zm6.75-27.92c-2.15.69-2.5-2.76-3.06-4.13-2.58-6.29-6.69-17.13-1.4-40.84,4.31-19.32,8.41-26.32,12.43-30.36,1-1,5.91-6.16,7.59-5.15s-.78,5.17-1.37,6.78c-2.6,7-5.21,14-7.95,21-4.88,12.39-6.26,25.4-6.74,38.52C912.8,1848.49,915.6,1857.84,913.45,1858.54Zm32-49.35c-2.49,10.94-5.08,21.85-7.65,32.76a7.77,7.77,0,0,1-.75,2c-1.16,2.12-2,4.93-5.2,4.28-2.86-.58-5.48-2-6-5.21a53.35,53.35,0,0,1-.07-7.62c-.18-10.11,2.17-20,6-29.5,2.07-5.13,6.35-7.3,11.78-5.8a4.22,4.22,0,0,1,2.46,2.9A19.57,19.57,0,0,1,945.44,1809.19Zm17.54,5.63c-.63,5.37-6.38,24.63-7.67,29.42-.37,1.36-2.21,7-5.66,5.68s-1.16-5.32-.9-6.34c1.49-5.83,3.33-11.6,4.35-17.52,2-11.55,5.09-23,4.72-34.81-.09-3.07-3.23-10.06.47-11.51s6.27,6.27,6.71,11.85C965.66,1799.92,963.32,1812,963,1814.82Zm112.09,38c-5.3-1.31-8.13-6.26-10.38-11.22-7.5-16.5-2.16-31.67,4.66-46.7,1-2.25,2.05-4.5,3.24-6.66,3.9-7,10.8-10.37,18.68-9.4,17.25,2.12,19.83,11.18,22,23.94.41,2.42,1.58,17.31-1.67,26.36s-11.9,14.54-17.44,19.49S1081.75,1854.5,1075.07,1852.85Zm134.78-2.86c.23,2.73.23,2.73.61,7.87s-16.54,5.25-22.45,5.33c-11.1.16-27.72.24-36.46.77-13.12.78-26.11-.58-39.17-.66-2.81,0-5.63.44-8.45.45-2.09,0-4.12-3.76-2.82-5.18,4.56-5,9.6-9.53,13.75-14.81a45.36,45.36,0,0,0,10-24.27A200.89,200.89,0,0,0,1125,1795c-.47-12.33-9.37-28.13-21.29-30.89s-34,2.39-44,21.75-12.28,38.85-11.56,44.39c1,7.28,1.61,14.57,5,21.56s1.13,9.39-7,9.36c-2.12,0-4.23-.44-6.36-.57-6-.35-12-.45-18-1-7.75-.73-46.07-2.48-51.5-4.57-2.08-.81-4-2.15-2.36-4.75,6-9.58,7.55-20.77,9.89-31.36,2.07-9.38,1.16-19.51.82-29.28-.3-9-3.85-17.25-7.89-25.13-2.42-4.7-2.07-8.35.78-12.81,7.85-12.26,12.54-26.1,18.81-39.16,3.23-6.72,6.86-13.2,12.79-18,1.7-1.38,3.15-1.61,3.55,1.17,1.23,8.54,3.17,15.92,10.36,22.29s19.6,4.2,23.06,3.37c4.13-1,5.79-.17,7.48,3.94.67,1.64,3.69,10.19,8,14.4s13.47,5.21,19,4.26c11-1.9,14-3.8,17.33-7.78s4.52-1.28,5.14.07c3.76,8.22,15.25,13.54,25.09,11.74s11.62-7,15.41-10.17c2.21-1.88,4.13-2.17,6.69-.65,6.59,3.92,26,9.67,39.17-2.75s13.9-14.13,16.19-11.06a44.75,44.75,0,0,1,5.06,8.12c3.48,7.76,6.44,15.75,10,23.46,2.8,6,2.25,10.89-1.16,16.93-4.88,8.66-6.08,18.85-7,28.76C1205.13,1814,1209.57,1846.8,1209.85,1850Zm28.46,289a105.86,105.86,0,0,1-18.85,3.06c-3.6.31-4.42-1.59-4.09-5.49.81-9.46,4.14-48.22,5.1-56.6,1.34-11.6,3.35-23.13,5.17-34.68,1.76-11.2,3.92-22.35,5.41-33.58,2.73-20.41,5-40.89,7.7-61.31.55-4.1,1.47-13.8,4.5-13.91s3.74,10.45,4.25,15c1,9.22,1.85,18.47,2.61,27.15.32,3.58-.14,25.74.15,33.11.42,10.84.84,35.39,1.3,37.1,1.39,5.3,3.27,7.38,6.43,7.4a9.08,9.08,0,0,0,9.08-7.55c.69-3.07-1.89-23.51-2.83-30.54-1.63-12.21-4.08-61.47-4.49-76.46-.37-13.57-2.9-17.65.78-19.19s8,18.7,10.44,25.34a91.1,91.1,0,0,1,3.39,10.08c3.77,15.77,7.21,31.63,11.12,47.36,1.78,7.18,9.32,40.89,10.41,45.34,2.21,9,5.52,42.17,7.43,49.32,2.54,9.52-.48,16-9,20.1a123.48,123.48,0,0,1-15.57,6.72C1265.35,2131.1,1251.88,2135.26,1238.31,2139Zm-1.74-327v-3.2h0c0-1.42-.09-2.85,0-4.26.23-3-1.07-6.72,3.9-7.25,6.24-.66,8.47.25,10.12,5.08a44.33,44.33,0,0,1,1.77,8.26c.3,2.1,1.81,19.36.14,25.48-.49,1.76-1.19,13.94-5.93,13.94s-4.06-6.76-4.75-8.72A86.08,86.08,0,0,1,1236.57,1812Zm25.77,53c1.36-8.31,2.32-48.88,3.8-56.69s7,.9,8.27,6.48c2.25,10.17,1.11,29.61-.75,39.81-2.87,15.79-4.71,22.75-8.7,22.75S1261.78,1868.42,1262.34,1865Zm473.24,128.53c17.13-16.12,37.24-38.1,41.78-43.1,13.16-14.51,28.12-27,41.78-41a112.38,112.38,0,0,1,37-24.78,26.68,26.68,0,0,1,4-1.56c4.8-1.18,7.55,1.23,7.09,8.14-.84,2.57-2,7.06-3.75,11.3-3.77,9.19-7.79,18.28-11.81,27.36-5.61,12.68-11.94,24.94-20.15,36.22-4.8,6.59-15.4,23.38-16.48,24.76-9,11.39-17.94,22.81-27,34.15-1.54,1.92-20.42,21.07-23.79,25-6.43,7.57-32.21,33.84-38,40.07-5.13,5.53-12.11,13.8-19.07,19.6s-11.78,4-16.91,1.32-11.76-6.45-19.55-10.05c-15.57-7.2-38.93-24.15-43.91-27.48-2-1.34-.92-3.3.62-4.33,2.92-2,6-3.74,9.1-5.41a523.78,523.78,0,0,0,50.94-31.58A569,569,0,0,0,1735.58,1993.56Zm-80.86-365c1,14.17,1.65,28.36,2.45,42.54-.11,0,1.42,19.62,2.15,29.42.21,2.82,2.46,40.21,2.61,47.32.11,4.83,1.81,63.83.37,111-1.1,35.88-5.4,62.67-5.54,66.48-.28,7.37-1.47,14.73-1.33,22.09.12,5.87,2.57,8.4,6.09,8.71s6.35-1.56,7.66-7.38,1.32-11.91,2-17.88c.45-4.21,1-8.42,1.56-12.6.07-.45.94-1,1.49-1.1a2.34,2.34,0,0,1,1.89.69c4.73,7,23,39.45,24.69,43,3.83,8,8,15.85,11.4,24,.53,1.27,2.94,4.6.1,8-10.16,12.31-64.28,46.71-69.46,49.75-3.73,2.18-33.29,19.2-59,31.21-22.59,10.54-64.4,26.54-126.15,49s-59.39,23.9-109.52,25.14c-39,1-62.91-2.44-65.37-2.75-.55-.07-1.48-1-1.42-1.31.18-.91.6-2.18,1.3-2.51,4.49-2.09,9.19-3.74,13.61-6,6.64-3.33,13-7.25,19.68-10.46s7.52-8.91,6.44-15.1c-1.47-8.37-3.77-16.61-5.21-25-.86-5-12.39-58.82-20.86-97.09-4.49-20.29-17.1-59.3-21.29-69.84-1.31-3.3-2.57-6.64-4.12-9.83a9,9,0,0,1,.14-9c6.19-11.76,9.4-24.64,11.42-37.58,1.21-7.78,2.93-19.53,1-41.84s-15.31-47.84-21.73-51.1c-1.88-1-3.48-2.45-5.28-3.59a11.36,11.36,0,0,1-5.64-8.53c-.49-3.49-2.14-6.82-2.66-10.31-1.53-10.34-6.5-19.4-10.25-28.93-2.75-7-2.06-8.57,5.07-11,4.54-1.56,8.7-3.18,10.94-7.77,1.57-3.21,1.51-6.18-1.23-8.76-1.65-1.54-8.78-6-13.27-10.43a108.73,108.73,0,0,1-15.92-20c-5.87-9.73-11-19.88-16.5-29.86a27.39,27.39,0,0,1-1.18-3c-.9-2.29-2.41-4.59.17-6.78,2.07-1.77,4.13-1.59,6.83-1,11,2.27,22.22,3.88,33.31,6,6.58,1.25,50.85,7.47,63.88,8.47,6,.47,11.94,1,17.88,1.74,3.91.47,7.51,4.2,7.87,9,.8,10.58,1.5,21.19,1.53,31.78,0,9.94-1.21,19.88-1.28,29.83a342.24,342.24,0,0,1-5.07,54.83c-.58,3.47-4.38,20,1.14,20.31,2.37.12,5.25-1.47,7.3-6.47,2.72-6.65,7.32-38,8.73-69.21s2.51-48.93,3.13-60.64c.33-6.33,2.64-8.4,9-7,8.48,1.81,42.34,1.38,50.83,1.64,7.39.22,54.56-1,63.4-2,12.91-1.47,57.86-5.53,67.39-6.51,2.11-.21,26.19-5.6,36.14-7.93.69-.16,25.45-5.28,37.07-7.93,10-2.27,19.67-5.67,29.53-8.41,3.87-1.08,7.15.85,7.87,4.9A165.43,165.43,0,0,1,1654.72,1628.6Zm6.54-124.3c-.29,2.6-2.25,4.33-5.24,4.21s-4.37-1.92-4.41-4.8c0-2.48,0-5,0-7.43h-.13a19.83,19.83,0,0,1,0-3.18c.31-1.92.42-5.21,1.3-5.45,2.22-.6,4.84,0,7.23.49a3.15,3.15,0,0,1,1.6,2.46A113.76,113.76,0,0,1,1661.26,1504.3Zm20.38-43.08a72.3,72.3,0,0,0-5.28,9.19c-1.66,3.13-12.35,3.45-14.69,3.43-4.41,0-8.83-.06-13.24.11-3.73.15-5.16-1.71-5.61-4.88-.92-6.32-1.65-12.66-2.62-19q-3.39-22-7-44c-1.89-11.53-3.94-23-6-34.54-1-5.93-2.37-11.81-3.3-17.76-.69-4.41.9-6.11,5.19-5.69,9.5.94,19,1.83,28.47,3.2,3.61.52,6.37-.27,8.6-2.78,16.69-18.8,38.75-27,62.53-31.83a37.87,37.87,0,0,1,7.41-.88c5.52,0,8.45,4.91,5.36,9.52a18.23,18.23,0,0,1-7.22,5.84,64.83,64.83,0,0,1-12.16,3.9c-13.1,3.22-20.32,11.63-21,24.89-.28,5.74-2.27,8.33-7.66,9.51-9.43,2.08-12.65,7-9.94,18.81.79,3.44,2.39,7.27-1.83,13.35-2.31,3.31-4.4,11.85-4.49,14-.22,5.44-7.57,6-7.6,11.92a36.3,36.3,0,0,0,4.93,17.42c2,3.34,4.46,6.44,6.79,9.59C1683,1456.73,1683.54,1458.66,1681.64,1461.22Zm58.24,3.49c-5.91,5.5-12.87,5.89-20.39,2.55-11.13-5-18.67-14-26.91-22.31a154,154,0,0,1-10.32-12.14,3.34,3.34,0,0,1-.39-2.85c.35-.82-.78-2.44,3-2.44s10.81,4.87,15.92,8c7,4.22,13.56,9.07,20.35,13.59,6.19,4.11,12.48,8.08,18.58,12.31C1740.27,1461.8,1740.43,1464.2,1739.88,1464.71Zm14.72-13.62c-2,1.45-3.72,1.43-5.81.1-14.31-9.12-28.72-18.08-43-27.27a37.16,37.16,0,0,1-8.92-7.45c-1.86-2.3-3.43-5.63-.84-8.81,2.35-2.89,5.34-3.22,8.65-2,1.66.6,3.3,1.28,4.93,1.95a210.46,210.46,0,0,0,45.82,13c5.42.91,9.1,5.57,9.21,12.07C1763.35,1439.31,1761.13,1446.31,1754.6,1451.09Zm19-40.83a10.33,10.33,0,0,1-5.79,1.07c-5.22-.83-10.32-2.44-15.54-3.22-10.7-1.6-20.22-6.34-29.92-10.64-3.88-1.73-7.72-3.54-11.58-5.3-.64-.3-1.33-.52-2-.77-3.2-1.21-6.19-3.46-5.76-6.79.47-3.57,4.25-4.24,7.54-4.39,2.13-.09,30.34,1.67,42.23,3.32,4.93.69,9.84,1.6,14.71,2.65,7.16,1.53,11.25,6.33,12.14,12.86C1780.37,1404.49,1778.14,1408,1773.58,1410.26Zm12.72-34.78c-1.06.06-2.13,0-4.33,0l-14.69-2.09c-10.53-1.48-21-3.13-31.61-4.35a31.34,31.34,0,0,1-14.87-5.24c-4.36-3.07-4.36-7.85.52-10,4.09-1.81,8.88-3.2,13.27-3,15.23.81,30.42,2.34,45.62,3.75,5.71.53,9.85,3.64,12.6,8.69C1796.76,1370.52,1794.38,1375,1786.3,1375.48Zm219.51-70.88c-7.1,5-14.2-3.88-18.67-6s-9-4.41-13.77-5.56c-6.77-1.64-12,4.56-9.36,11,2.18,5.33,4.6,10.09,2.19,16.2-3.14,8-5.36,16.26-13.37,21.12a31.77,31.77,0,0,0-4.78,4.24c-2.14,2-3.19,1.93-4-1.29-1.87-7.13-5.38-13.85-4.57-21.61.16-1.56-1-3.4-1.88-4.91-2.53-4.35-7.09-5.3-10.8-2a17.91,17.91,0,0,0-4.08,6,20.75,20.75,0,0,0-1.92,7.17c-.51,8.75-6.1,14.1-12.2,19.19-4.06,3.39-8.08,6.82-12.19,10.15-5,4-9.94,8-15,11.83-1.88,1.41-3.21.69-3.55-1.7-.25-1.75-.12-3.78-1-5.19-7.26-11.82-4.7-24.35-3-36.86a80.7,80.7,0,0,0,.65-9.58c.1-6.06-3.49-9-9.33-7.64a23.54,23.54,0,0,0-6.73,2.69,21.17,21.17,0,0,1-14.23,3.31,28,28,0,0,0-15.5,1.6,21.15,21.15,0,0,1-6.27,1.22c-3.13.3-5.07-1.61-4-4.48,1.52-3.89,3.85-7.46,5.87-11.15,1-1.88,2.56-4,.43-5.7-1.51-1.25-3.81-2.46-5.58-2.24-2.72.33-5.35,1.78-7.92,3-4.5,2.09-8.89,4.44-13.43,6.46-1.08.49-3.06.62-3.7,0s-.65-2.52-.48-3.79c1.64-12.11,8-21.67,16.33-30.18a56.15,56.15,0,0,0,6.84-8.12c1.71-2.58-1-6.78-3.67-5.67-8.87,3.62-18.3.89-27.31,3.21-4.92,1.27-10.52.47-15.72-.15-2.71-.32-3.83-2.62-2.41-5.68,4.62-10,12.07-17.48,20.62-24,4-3,8.2-5.62,12.32-8.4,3.27-2.21,6.58-4.11,10.8-4a13.7,13.7,0,0,0,6.08-1.51c3.63-1.81,4.18-6.59.76-8.65a42.28,42.28,0,0,0-11.67-4.83c-4.09-1-8.46-.8-12.7-1.26a5.15,5.15,0,0,1-2.39-1.33,3.37,3.37,0,0,1,.89-1.71c7-6.46,14.75-11.28,26.68-9,2.56-.31,7-.17,10.92-1.47,6.1-2,11.76-3.87,18.55-2.6,5.64,1,9.43-3.26,10.64-9.08.94-4.48,1.78-9.09,3.56-13.26,2.29-5.34,5.93-5.74,9.94-1.71,3.25,3.26,6.65,6.42,9.55,10,3.59,4.42,8.34,6.58,13.58,7.88,15.23,3.78,30.09,4.24,44.51-3.77,4.15-2.3,9.4-2.67,14.18-3.76,2.32-.53,6-1.75,6.85-.76,2.12,2.46-1.43,3.94-2.57,5.9a24.64,24.64,0,0,0-3.15,6.57c-2.27,9.91,1.48,14.93,11.66,15.83,7.42.65,14.85,1.07,22.26,1.71a15.44,15.44,0,0,1,5.18,1.21c3.12,1.49,8.09,2.83,8.66,5.13,1.13,4.57-4.74,4.11-7.45,5.78-4.48,2.78-9.58,4.66-14.57,6.49-6.9,2.52-9.57,5.23-9.69,10.79-.14,6.11,3.4,12.15,9.29,14a35.28,35.28,0,0,1,18.14,12.52c4.21,5.63,7.55,12,10.79,18.24C2011,1276.39,2012.92,1299.62,2005.81,1304.6Zm140.76-102.09a77.54,77.54,0,0,0-1.44,12.7c-.13,6.08-2.35,10.26-8.59,11.76a7.65,7.65,0,0,0-2.8,1.54c-2.2,1.75-3.8,1.39-4.91-1.17a35.15,35.15,0,0,1-2-4.94,8.25,8.25,0,0,0-7.51-6.59c-4.43-.42-7.19,2.62-9.08,6.27-1.78,3.42-3.14,7.07-5,10.42-1.7,3-3.56,7-7.78,5.34-1.16-.46-1.11-5.13-.84-7.79.54-5.28,1.62-10.51,2.46-15.77a14.84,14.84,0,0,0,.58-4.12,5.72,5.72,0,0,0-7.93-4.61,19.24,19.24,0,0,0-4.48,2.88c-9.33,8-19.47,15.3-25.73,26.35a5.26,5.26,0,0,1-.6.88c-2.53,3-5,6.57-9.44,5.89-4.08-.61-5.46-4.34-6.42-7.78-1.81-6.43-3.31-13-4.16-16.33.45-15,2.62-25.71,10.51-35.08,6.29-7.46,3.75-10.7-2.28-17.6-3.69-4.23-8.1-7.84-12.24-11.67a17.25,17.25,0,0,0-3.45-2.5c-5.57-3-22.45-8.47-22.45-12.93s3.64-3.33,5.74-4.47c5.77-3.12,12.1-4,18.59-3.77a15.52,15.52,0,0,0,11-3.3c4.49-3.63,5.53-6.91,3-12a44.39,44.39,0,0,0-4-6.28c-10.34-14.19-13.52-30.28-12.61-47.44.14-2.74,2-3.69,4.4-1.79,6,4.79,12.93,7.15,20.23,8.92,7.92,1.93,12.84,7.14,15.42,14.81a33.94,33.94,0,0,0,3.5,7.73c4.07,6.23,9.7,7,15.29,2.24a3.76,3.76,0,0,1,.81-.69c3.55-1.69,3.41-8.45,8-7.4,2.72.63,4.31,5.28,6.9,7.58,3.27,2.9,7.39,3.86,11.84,4.12,6.2.37,11.6,3.09,16.23,7.21,3.59,3.2,4.51,7.07,2.69,11.59-1.32,3.3-3,6.55-3.66,10a39.23,39.23,0,0,0-.89,12.56c.79,6,2.7,11.74,4.1,17.61.41,1.72,1.44,3.71.95,5.16-3.68,10.73,3.24,18.93,6.57,27.89A26.12,26.12,0,0,1,2146.57,1202.51Z"></path><path class="cls-3" d="M1101.35,401.76c-2.27-3.59-5.22-6.88-6.82-10.73-5.85-14.09-11.27-28.35-16.83-42.55-4.65-11.91-9.45-23.76-13.84-35.76-2.29-6.28-3.88-12.82-5.61-19.29-.17-.64.72-1.71,1.35-2.33.2-.19,1.46.25,1.78.72,4.62,6.71,9.11,13.51,13.72,20.22,5.41,7.86,11.28,15.42,16.27,23.53,5.77,9.38,10.58,19.34,16.25,28.79,3.09,5.16,12.17,22.39,20,17s-14.89-34.85-20-43c-4.71-7.52-38.53-60.55-40-62.56-6.41-9-12.71-18-19.43-26.73a18.16,18.16,0,0,0-7.53-5.51c-4.09-1.6-7.89,1.2-8.47,5.54-.19,1.4,3.08,18.83,5.43,25.85,3.49,10.43,17.6,51.35,21.19,61.32,6.13,17,13.51,33.63,20.38,50.4,2.69,6.56,5.27,13.16,8.18,19.61a24.36,24.36,0,0,0,4.32,6.07c2.38,2.64,5.94,2.57,8.52.13A8.28,8.28,0,0,0,1101.35,401.76Z"></path><path class="cls-3" d="M1276.82,461a9.14,9.14,0,0,0,5.4-4.31c.79-1.5.31-4.24-.56-5.95-6-11.94-10.85-19.93-10.66-46.18s12.26-37.78,15-41.48a19.35,19.35,0,0,0,2.81-5.64c.64-2-1.91-4.86-3.65-4.06-3.46,1.61-23.42,12.86-28.29,42.8s9.48,51.88,15.26,61.4C1273.12,459.16,1275.55,461.27,1276.82,461Z"></path><path class="cls-3" d="M1410.77,1851.62c.12-13.3.79-26.7-.49-39.89-2-20.17-.15-40.4-2.48-60.58-1.42-12.27-.27-24.84-.27-37.28,0,0,.12-23.46-.25-35.17-.24-7.4-1.35-14.78-2.29-22.14-.33-2.61-2-5-4.75-4.93a8.39,8.39,0,0,0-5.31,2.79c-3,3.42-3.27,7.61-2.69,12.08a129.68,129.68,0,0,1,1.4,18c-.17,16.28,1.29,32.52,1.13,48.81,0,4.89,1,75.24,1.85,85.44.75,9.12,1.19,18.28,1.21,27.43a179.5,179.5,0,0,1-1.3,21.23c-2,17.27,3,34.58-.47,51.82a8.06,8.06,0,0,0-.07,2.14c.36,5.27,5.17,8.1,9.91,5.83,4.41-2.12,6.88-6.88,6.47-12.15-.94-12.39-2.18-24.77-2.58-37.17C1409.52,1869.15,1410.7,1860.38,1410.77,1851.62Z"></path><path class="cls-3" d="M1931.42,1225c-5.33-6.3-11.24-12-20.53-12-2.77.52-5.6.84-8.31,1.58-5.8,1.59-11.45,4-17.34,5-6.67,1.15-10.12,5-11.19,11.08a21.11,21.11,0,0,1-4.27,9.5c-3.52,4.67-3.15,7,1,11a29.44,29.44,0,0,0,5.76,4.72c5.12,2.89,8.64,7.14,11.93,11.9,6.56,9.5,15.17,10.21,24.56,3.15a205.74,205.74,0,0,1,20.31-13.39c10-5.81,11.56-12,4.92-21.84C1935.87,1232.14,1934.12,1228.17,1931.42,1225Z"></path><path class="cls-3" d="M1897.81,1024.88c5.39,6.07,11,12,16.83,17.59,1.59,1.52,4.46,1.71,6.38,2.38,4.41-.74,8.9-.32,11.93-2.23,6.23-3.92,11.78-9,17.4-13.79,2.58-2.22,3.22-5.43,2.57-8.81-1.84-9.54-4-18.82-14-23.66-2.47-1.19-4.28-3.69-6.55-5.38a14.23,14.23,0,0,0-15.15-1.46c-8,3.77-15.4,8.41-21.35,15.33-3.53,4.1-4.29,8-2.18,12.6C1894.87,1020,1896,1022.81,1897.81,1024.88Z"></path><path class="cls-3" d="M1689.24,1120a46.43,46.43,0,0,0,4-5c4.94-7.78,9.84-15.59,14.63-23.47.88-1.44,1.17-3.25,2-5.57-.88-1.89-1.35-4.68-3-6.08-4.84-4.11-9.7-9.68-16.29-9.45-9.36.33-18.3,3-22.76,13-1.29,2.87-3.52,5.3-4.94,8.12-2.67,5.35-5.27,10.75-7.44,16.31a8.26,8.26,0,0,0,.32,6.18C1662.15,1125.76,1678.87,1132.17,1689.24,1120Z"></path><path class="cls-3" d="M2112.66,1123.26c-5.2.84-10.41,1.62-15.56,2.67-12.53,2.58-17.06,8.7-16.44,21.78.14,2.83,0,5.67,0,8.51h.1c0,5-.32,9.92.07,14.84.72,9.27,6.49,12.76,14.5,8.25a77.06,77.06,0,0,1,14.45-6.28c6.62-2.13,10.71-6.54,10.55-14.14-.06-2.75,1.22-5.51,1.22-8.27,0-7,.21-14.11-.72-21C2120.17,1124.51,2116.81,1122.6,2112.66,1123.26Z"></path></svg> 