<?xml version="1.0" encoding="UTF-8"?> <svg xmlns="http://www.w3.org/2000/svg" viewBox="0 0 2400 2400"><path d="m1134.21 427.43c10.46.56 23.76 1.08 40.38 1.31 39.59.54 84.6-.86 152.52-11.06 42.64-6.41 108.15-25.71 154.26-40.36 5.61-1.78 3.38-4.47 3.39-8.69s-.26-17.89 0-23.61c.17-4-2.94-3.78-6.4-2.86-11.48 3.12-24 8.63-41.82 15.83-29.33 11.84-63.38 17.94-71.27 19.33-10.41 1.82-100.26 20.1-132.68 20s-38.49-1.07-57.71-2.11c-10.61-.58-21.24-1-31.85-.95-6.12 0-11.38 0-11.62 9.61s-2.49 22.97 2.8 23.56z" fill="#fef065"></path><path d="m1801.26 1711.62c-7.68-3.12-13.21-2.66-21.38-1.4-7.16 1.11-13.33-1.57-19.62-4a8.65 8.65 0 0 1 -5-5.47c-3.76-10-7.92-19.8-11.88-29.7-5.65-14.1-10.41-28.64-17.08-42.24-8.24-16.79-35.28-72.46-41.11-83.18-2.81-5.17-31-70.63-35.86-82-12.1-28.27-29.49-73.23-32.17-80.3-.92-2.41-1.77-4.86-2.83-7.21-5.46-12-32.3-93.3-36.62-108.48-4.15-14.58-8.6-29.06-13-43.57-1.31-4.32-16.34-61.07-17.23-65.76-2-10.42-4.58-20.73-6.51-31.16-5-26.89-9.75-53.82-14.59-80.74-1.25-7-2.2-10.48-5.53-31.24s-3.11-41-1.91-52.39c.88-8.25 2.94-54.44 3.08-64.41.09-6.42 0-47.25-.1-56.9-.18-15.44-1.38-30.88-1.41-46.33 0-6.48-.41-12.82-.9-19.26-.67-8.63-3.49-57.65-5.73-102.37s-5-100.74-8.26-122.09-6.17-42.6-7.7-51.47c-3-17.43-12.2-70.88-16.13-78.16-2.14-4-1.76-4.33-6.23-3.12-2.44.66-22.28 13.77-73.23 26.11-50.42 12.2-87.44 19.88-151.58 22.07s-77.66 2.75-88.65 2.51a269.35 269.35 0 0 0 -26.95 1.26 8.29 8.29 0 0 0 -5.59 3.05 56.65 56.65 0 0 0 -6.5 12.88c-1.79 5.52-15.35 28-28.69 46.27-8.16 11.17-16.24 20.92-21.86 27.6-4 4.77-12.22 15.79-16.26 17.6-7.33 3.29-14.5 7-21.91 10-10.73 4.46-21.49 8.93-32.48 12.66-11.26 3.81-23 6.25-34.19 10.2-8.54 3-16.18 2.38-24.33-1.12-10.68-4.58-21.68-8.39-32.59-12.42-5.15-1.9-10.44-3.42-15.59-5.32a167.26 167.26 0 0 0 -67.16-10.24c-15.21-.28-53.87 4.64-82.06 16.12s-39.59 14.47-73.81 55.27-44.51 83.76-44.51 105.77-2.05 27.71 9.25 64 29.85 67.41 72.77 107.66 113.5 73.36 185.51 89.93 202.34-1.21 249.13-15.7 90.78-34.47 133.33-65.44c33.63-24.48 67.27-59.29 81.69-74.82 3.83-4.12 6.36-12.38 13-9.59s-4.85 20.54-32.85 48.55-40 35.91-71.9 58.52-93.92 45.67-133 57.52-76.53 14.92-84 16.88a30.38 30.38 0 0 0 -9.67 4 48 48 0 0 0 -9.89 9.2c-9.42 11.87-21.39 21.22-31.57 32.38-9.57 10.49-17.7 22-26.89 32.79-5.56 6.51-10.58 13.75-15.75 20.72-5.77 7.76-35.46 49.08-46.55 60.4a38.74 38.74 0 0 1 -6 4.91c-4.48 3-8.87 3.2-13.39-.36-5.8-4.57-34.49-31.47-39.69-37.57-2.93-3.43-43.82-49.87-50-57.23-7.76-9.29-17.51-16.92-26.53-25.13-3.33-3-7-5.71-10.52-8.53l-30.81-24.56c-6.52-5.19-18.46-11.39-47.93-37.75-31.61-28.27-52.8-53.06-59-59.62a2.71 2.71 0 0 0 -2.6-.44c-.9.65-2 2-1.9 2.91.42 4.16 1.74 8.27 1.78 12.42.09 7 3.54 12.22 7.76 17.12q14.82 17.24 29.89 34.23c3 3.37 6.29 6.45 9.43 9.68 2.47 2.54 5 5 7.31 7.7 1.92 2.32 1.41 4.84-.92 6.76-3.27 2.69-6.63 2.55-10.37-1-2.54-2.42-4.35-5.59-6.83-8.07-5-5-10.19-9.84-13.48-16.31-1.54-3-4.32-4.67-7.69-5.34-5.37-1.08-10.78-2-16.06-3.44-10.56-2.85-21-2-31.39.57-9.68 2.41-19.35 4.9-29 7.56-8.38 2.31-16.8 4.6-25 7.5-3.85 1.36-7.24 4.06-10.74 6.32-.47.3-.53 1.59-.39 2.35.09.44.92.86 1.5 1a5.52 5.52 0 0 0 1.9.09c8.67-.37 17.35-.73 26-1.15a46.21 46.21 0 0 0 5.75-.66c8.86-1.59 17.66-3.63 26.58-4.76a44.31 44.31 0 0 0 17.33-5.58c2.42-1.41 5.42-1.9 8.22-2.58 2.55-.62 4.37.7 5.6 2.84 1.41 2.44 1.1 6.38-.73 8.15a14.23 14.23 0 0 1 -3.23 2.13c-6.27 3.34-12.4 7-18.89 9.88-19 8.42-36 20.09-52.32 32.8-7.22 5.63-14.25 11.64-19.91 18.88-1.88 2.41-10.85 10.65-6.21 13.87s18.6-8.8 22.39-11.82a33.1 33.1 0 0 1 5.56-3.76c4.25-2.2 8.61-4.2 12.95-6.23 11.36-5.32 22.47-11.34 34.19-15.67a126.26 126.26 0 0 0 24.26-11.81 28.57 28.57 0 0 1 6.88-3.38 6.76 6.76 0 0 1 8.42 4.54 6.84 6.84 0 0 1 .22 2.81 11.71 11.71 0 0 1 -3.46 6.58c-3.12 2.73-6.94 4.63-10.38 7-4.76 3.29-9.82 6.27-14.08 10.13-9.54 8.65-17.57 18.71-25.93 28.49-10.7 12.55-16.88 27.39-23.5 42.07-.42.94.23 2.36.38 3.56 1.2-.34 2.7-.32 3.54-1.07 7-6.21 14-12.33 20.6-18.92q12.24-12.24 23.75-25.2c6.62-7.44 24-26.29 26.35-28 1.52-1.12 3.45-1.93 5.24-.09a4.71 4.71 0 0 1 .75 6.2c-1.36 2.17-11.92 31.3-14.87 37.53-3.58 7.55-8.12 14.64-11.91 22.1-4.93 9.74-9.58 19.64-14.21 29.54-.43.93.22 2.36.37 3.56 1.07-.48 2.54-.67 3.15-1.49 5.9-8 11.61-16.22 17.46-24.29 5.1-7 10.47-13.89 15.45-21 4.41-6.33 8.47-12.92 12.63-19.43 1-1.61 1.72-3.47 2.85-5 3.1-4.21 5.79-5.33 8.8-4s3.94 4.44 1.35 9.22c-2.11 3.88-2 7.1-.51 11 3 8.1 18.53 46.09 22.87 57.17 2.46 6.26 23 54.62 25.92 64.14 1.53 5 27.45 60.7 30.44 67 1.94 4 18.7 35 24.48 46.86 4.23 8.66 9.2 17 13.91 25.38a45.44 45.44 0 0 0 3.79 5.63c2.78 3.58 4.41 3.44 6.12-.5 4.6-10.6 9.15-21.2 13.27-32 4.9-12.89 23.34-49.09 26-54.91a24.2 24.2 0 0 1 4.62-7.14c1.11-1.1 4.09-1.77 5.22-1 1.59 1 3.42 3.72 3.11 5.31-1 5.26-16.13 37.75-21.92 48.87-4.27 8.49-13.27 30.38-14.27 32.39-2.62 5.17-13.7 32.57-16.47 41.15-1.87 5.81-16.33 44.41-27.28 110.2s-1.25 114.66 8.83 157.75 32 91.24 33 93.28c3.25 7 18.41 39.89 19.52 41.86 5 8.91 9.76 18 15.21 26.62 5.27 8.38 43.75 61.85 50.46 70 3.21 3.92 17.71 23.24 28.48 32s17.6 14.8 27.47 19.86a13.6 13.6 0 0 1 3.25 2.1c2.18 2.08 2.15 4.68.82 7.11a4.54 4.54 0 0 1 -5.91 2c-3-1.2-5.61-3.14-8.48-4.59a69.32 69.32 0 0 0 -8.76-3.9c-2.77-.93-4.66.35-4.7 3-.14 8-.38 16-.09 24 .43 11.52 7.33 61.7 9.21 75.38.7 5.08 6.81 31.35 7.7 39.62.4 3.77-1.67 6.83-4.54 7.67-3.27 1-5.21-1-7.42-3.2-5.22-5.21-39.74-25.55-43.92-28.45-17.26-12-35.73-21.8-54.46-31.12-7.75-3.85-16-6.69-24.17-9.71-1.92-.71-4.88-1.55-5.91 1.26-.52 1.4.19 3.72 1.12 5.1 4 5.86 21.22 29 26.13 34.52 3 3.35 29.67 34 41.07 45 5.56 5.37 11 10.86 16.4 16.4 2.24 2.3 26.39 25.23 36.31 34.33 4.84 4.43 47.81 38.08 49.42 39.09 12.87 8.05 38.5 22.95 50.06 19.85s45.9-53.26 55.35-66.62c6.69-9.47 12.62-19.5 18.81-29.33 4.46-7.09 9-14.15 13.11-21.44q8-14.24 15.39-28.83c5.07-10.05 10.35-20.06 12.89-31.16 1-4.37.2-6-4.15-7.16-9.33-2.57-18.67-5.07-28.09-7.24-3.33-.77-6.12-2-8.2-4.6-2.57-3.27-2.8-7.36-.57-9.81 2.41-2.66 5.24-1.86 8-.77a27.19 27.19 0 0 0 2.66 1.17c12.42 3.41 24.74 7.27 37.31 10 13.23 2.87 26.7 4.63 40.06 6.9 18.1 3.08 36 7.31 54.46 8 7.09.27 14.15 1.29 21.24 1.77 3.26.22 5.69 1.62 6.84 4.51.44 1.11-.08 3.52-1 4.05a12.91 12.91 0 0 1 -6.28 1.89q-8.73.16-17.46-.43c-8.06-.54-16.09-1.52-24.15-2.06-5.11-.34-5.59.08-6.16 5-1.34 11.49-3.09 23-3.55 34.51-.75 18.4-4.1 36.46-5.91 54.7-.79 8-1 16-1.34 24-.18 3.82-.22 7.65-.28 11.48-.11 6.76-.55 13.55-.15 20.28.34 5.66 3.44 9.37 9.55 10.43 7.93 1.38 15.71 3.53 23.64 4.9 6.63 1.14 80.43 16 128.68 16s70.77-.47 84.77-1.49c12.78-.93 48.36-3.39 53.1-7.62s-35.49-23.27-43.28-26.37c-18.65-7.41-37.79-12.91-57.79-15a48.86 48.86 0 0 0 -13.38.83c-3.22.58-6.82 2.24-9-.69-2-2.74-.32-6.24 1.33-9.1 1.28-2.23 2.7-4.38 4.17-6.49 1.29-1.85 3-3.46 4.06-5.41 10.28-18.21 21.3-35.94 33.29-53.08 2.91-4.18 19.19-30.41 22.54-38 4-9.1 25.7-46.89 31.92-57 5.55-9 11.14-18 16.59-27.14 3.64-6.07 46.84-81.19 54.51-98.59 3.38-7.68 6.58-15.46 9.84-23.2 3-7.11 17-40.18 24.49-71s11.74-66.24 12.85-75.36c3.06-25 5.15-27.77-14.78-59.3-10.13-16-18.38-33.26-30.59-48a11.56 11.56 0 0 1 -2.61-6.12c-.19-2.77 0-6 3.11-7.51s5.69-.36 8 1.83a10.71 10.71 0 0 1 1.68 2.33c5.31 8.82 10.5 17.71 15.91 26.47 8.93 14.48 27.26 44.67 27.6 45.22 7.25 11.41 14.33 22.92 21.79 34.19 6 9.11 12.58 17.88 18.81 26.87 1.65 2.38 3 5 4.45 7.48 1.15 2 14.57 19.19 20.37 25.65a16.14 16.14 0 0 0 6.31 4.14c4.53 1.65 6.4.53 7.27-4.46 1.48-8.56 2.67-17.18 3.83-25.79 1.3-9.7 5.22-17.17 15.55-19.76a56.78 56.78 0 0 0 6.31-2.45c7.3-2.88 11-1.76 15.87 4.62 5.88 7.64 9.6 16 9.15 25.87-.23 5.17 0 10.35-.07 15.53a16.57 16.57 0 0 1 -.93 5.67c-.94 2.37-2.29 5.19-5.47 4.34-2.75-.72-2.09-3.61-2.15-5.76-.11-4.5 0-9-.21-13.51a3.58 3.58 0 0 0 -2.12-2.7 3.43 3.43 0 0 0 -2.79 2c-1.55 7.56-3 15.15-4 22.79a6.42 6.42 0 0 0 2.32 4.91c2.52 1.89 5.49 4.07 8.42 4.3 6.72.53 19.52.73 25.61-5.63s7.84-12 9.78-17.74c5.51-16.37 3.93-30.85-1-46.07a72.94 72.94 0 0 0 -4.38-9.66c-2-3.92-4.55-7.09-9.41-7.35-3.08-.16-4.93-1.69-4.54-4.92s3.2-3.75 5.82-3.87c8.49-.39 14.38 4 17.73 13.38 1.85 5.15 3.61 10.34 5.22 15.58 2.34 7.63 4.83 15.47 4 23.42-.75 7.3-3.12 14.45-5 21.6-1.1 4-2.88 7.87-4.06 11.89a5.12 5.12 0 0 0 .94 3.54c.21.33 1.88.07 2.7-.32 9.53-4.52 15.67-12.1 19.57-21.74a71.28 71.28 0 0 0 4.6-20.52c1.08-11.21.88-21.76-6.56-31-1.41-1.75-2.34-3.87-3.69-5.67a4.12 4.12 0 0 1 .48-6c2.07-2.06 4.34-1.12 6 .47a35.61 35.61 0 0 1 4.11 5.36c1.71 2.32 7.7 8.67 10.22 19.14s-.1 31.62-7.12 46.36a28.56 28.56 0 0 0 -1.53 3.55 1.92 1.92 0 0 0 .41 1.69c.26.23 1.2 0 1.62-.32a15.3 15.3 0 0 0 2.86-2.59c4.38-5.53 9-10.91 12.89-16.79 2.62-4 5.14-8.51 5.89-13.09 2.35-14.44.31-28.27-8.33-40.62a42.06 42.06 0 0 1 -3.52-5.78 2.71 2.71 0 0 1 .71-2.54 7.72 7.72 0 0 1 4.21-.12c1 1 2 2.1 2.93 3.18a52.52 52.52 0 0 1 13.22 34.76c0 3.87-.35 7.75-.46 11.62 0 .45.53 1.28.81 1.28a2 2 0 0 0 1.6-.76c1.23-2.57 3-5.13 3.33-7.85 1.3-9.91 2.81-14.79-.94-29.7s-9.97-19.01-19.55-22.91zm-608.26-1162.96c-1.46 1.39-6.53 1.85-7.61 1.65a67.68 67.68 0 0 0 -33.52 1.77c-3.65 1.13-7.89.59-11.35 2-5.58 2.32-10.76 5.62-16.07 8.56-3.94 2.19-7.78 4.57-11.77 6.67a10.61 10.61 0 0 1 -4.58 1.2c-3.2.06-5.44-3.65-3.48-6.09s4.63-4.24 7.13-6.15c3.3-2.51 7-4.54 10-7.32 6.83-6.25 13.93-12.16 20-19.31 3-3.5 9.08-4.29 13.69-6.46 5-2.37 9.23-.58 13.63 2 3.59 2.07 7.62 3.39 11.47 5 5.19 2.17 9.55 5.23 12.34 10.34 1.24 2.19 1.92 4.38.12 6.14zm41.55-15.86c-2.66.16-4.71-1.79-5.2-4.78-.42-2.54-.9-5.07-1.39-7.6-2.31-11.87-8.79-20.42-19.77-25.77a78.46 78.46 0 0 1 -12.12-7.89c-2.08-1.56-3.8-4.2-1.86-6.63 1.18-1.48.62-2.39 5.68-2.49s22.39 6.72 30.18 16.26c9.53 11.66 11.51 21.52 11.51 29.58s-5.2 9.2-7.07 9.32z" fill="#fff"></path><g fill="#0e5256"><path d="m1180.57 532.15c-3.85-1.6-7.88-2.92-11.47-5-4.4-2.53-8.59-4.32-13.63-1.95-4.61 2.17-10.7 3-13.69 6.46-6.1 7.15-13.2 13.06-20 19.31-3 2.78-6.75 4.81-10 7.32-2.5 1.91-5.2 3.74-7.13 6.15s.28 6.15 3.48 6.09a10.61 10.61 0 0 0 4.58-1.2c4-2.1 7.83-4.48 11.77-6.67 5.31-2.94 10.49-6.24 16.07-8.56 3.46-1.44 7.7-.9 11.35-2a67.68 67.68 0 0 1 33.52-1.77c1.08.2 6.15-.26 7.61-1.65 1.85-1.76 1.17-3.95 0-6.17-2.91-5.13-7.27-8.19-12.46-10.36z"></path><path d="m1199.84 477.64c-5.06.1-4.5 1-5.68 2.49-1.94 2.43-.22 5.07 1.86 6.63a78.46 78.46 0 0 0 12.12 7.89c11 5.35 17.46 13.9 19.77 25.77.49 2.53 1 5.06 1.39 7.6.49 3 2.54 4.94 5.2 4.78 1.87-.12 7-1.26 7-9.32s-2-17.92-11.51-29.58c-7.76-9.54-25.08-16.36-30.15-16.26z"></path><path d="m1839.07 1763.17c-.75-4.38-1.79-9.24-4.37-12.62-2.84-3.73-5.62-20.54-8.59-27.83s-5.7-10-12.09-14.41a47.67 47.67 0 0 0 -29.57-7.9c-15.55 1.42-16.32-1.86-18.69-7.19-5.25-11.81-10.79-23.48-16.13-35.24-4.39-9.66-8.91-19.24-12.91-29.08-3.76-9.23-35.33-77.1-39.75-85.34-.92-1.71-36.31-84.88-42.1-97.47-4-8.81-7.73-17.78-12-26.45-4.43-8.91-6.73-18.59-11-27.63-6.84-14.58-12.41-29.76-18.47-44.71-.6-1.46-43-146.43-43.79-150.19-1.23-5.63-10.09-41.34-12.52-52.3-2.14-9.68-9.89-53.83-11.63-63.33-2-10.76-15-68.6-14.08-109s4.6-73.33 2.94-126.58-7.6-196.72-7.94-204.46c-.7-15.81-4.27-70.94-10.72-120.17s-10.66-63.76-13.46-76c-2-8.81-4.46-17.54-6.32-26.38-1.17-5.58-.33-6.2 4.43-7.8 15.59-5.25 31.31-10.18 46.61-16.17 12.92-5.06 25.31-11.44 37.94-17.22 3.82-1.76 6.19-4.44 6.4-8.87.44-9 1.06-18.07 1.54-27.11a30.5 30.5 0 0 0 -.17-5.81c-.73-5.14-3-7.58-8.12-8.06a82.43 82.43 0 0 0 -10.66 0c-6.15.21-12.29.86-18.43.74q-25.23-.51-50.44-1.58c-5.2-.21-6.71-2.14-7.06-13.55s.27-105.86.81-117.44c1.13-23.88 4.58-98.77 4.44-112.35 0-5.49-2.77-7.44-8.21-7a57.85 57.85 0 0 0 -5.68 1.19c-5.7 1.14-11.36 2.78-17.12 3.26-15.76 1.34-103.58 7.25-147.84 8.3-35.61.84-65.5-1-78.76-1.2-29.76-.36-48-2.54-54.18-3-10.3-.73 0 0-30.9-2s-47.09-3.82-56.64-.68c-10.56 3.47-11.69 5.26-9.45 16.2.06.32.15.63.21 1 3 15.54 17.14 63.66 20.63 118.18s2 97.52 2.78 121 .7 47.2.8 51.06c.13 4.94-4.38 12.38-8.26 12.89-7.63 1-38.9 4-53.2 5.1s-18.51 10-14.28 21.2a135.77 135.77 0 0 1 5 15.62c2.64 10.52 5.45 14.4 20 16.64s46.14 6.4 47.74 6.58c2.41.28 3.49 1.82 2.69 4a52.3 52.3 0 0 1 -3.36 7c-3.07 5.69-23.92 41.35-32.78 52.36-8.7 10.82-18.62 20.66-27.91 31a61.48 61.48 0 0 1 -25.33 17.29c-5.74 2-11.5 4.1-17.38 5.71-14 3.84-27.37 9.54-41.79 12-9.56 1.62-18.54.38-27.51-2.52-18.43-5.94-61.68-27.17-103.75-27.17-27.39 0-58.61 5.82-79.12 10.88-11 2.72-36.17 13.92-47.43 20.56-33 19.51-83.46 73.52-92.56 121.13-10.29 53.89-4.82 76.09 5.8 111.81 4.92 16.56 20.38 47.13 43.74 74.94 27 32.22 63.34 61.51 84.56 73.34 36.49 20.35 113.36 50.34 156.32 55.95 34.09 4.46 71.77 5.2 94.37 3.93 7.38-.42 10.38-.77 16.56-1.27s-9.29 11-13.48 15.45c-6.42 6.76-30.28 32.69-35.52 39-4.86 5.88-9 12.45-14.33 18.07-4.66 4.88-36.72 49.64-48.8 66.73s-25.09-.86-28.44-4.11c-5.29-5.12-40.16-41.9-43.21-45.19-9.62-10.36-18.84-21.1-28.68-31.25-7.58-7.82-15.79-15-23.84-22.38-12.58-11.46-71.08-57.34-78.52-63-5.36-4.07-22.84-21.13-27.51-25.93-13.93-14.33-27.7-28.84-41-43.71a54.2 54.2 0 0 0 -15.38-11.5 8.32 8.32 0 0 0 -12.44 6.18 31.74 31.74 0 0 0 -.21 9.63c1 6.32 1.7 12.71 3 18.91 1 4.51 4.2 12.56 6.47 18.82 1.84 5.09.79 8.67-19.21 10.18s-52.21 10.22-61.23 12.61c-11.11 2.93-20.72 8.71-29.4 16-4.89 4.13-10 13.89-3.49 17.79s36.58-.29 39.76-.75c5.73-.83 11.46-1.69 17.21-2.4q5.73-.72 11.5-1a7.79 7.79 0 0 1 2.58.82 9.59 9.59 0 0 1 -1.8 2.57c-6.82 4.29-13.84 8.29-20.57 12.7-13.18 8.64-26.84 16.64-38 28-5 5.1-9.51 10.56-12.25 17.27-2.32 5.7-5.07 11.15 4.5 18.16s34.65-13.48 43.83-19.32c10.31-6.56 21.68-11.46 32.62-17a25.08 25.08 0 0 1 4.52-1.69 10.87 10.87 0 0 1 2.61-.13c-.16 1.16.11 2.69-.53 3.43q-11 12.81-22.26 25.38c-7.15 8-19.75 31.07-20.89 33.38-3 6.07-6.11 12.09-8.55 18.37a29.22 29.22 0 0 0 -1.56 10.45c0 4.9 4.53 11.1 8.49 12 4.8 1.1 7.92-1.79 10.69-5.14.42-.5.74-1.07 1.15-1.57 10.14-12.11 19.73-24.73 32.23-34.66a28.21 28.21 0 0 0 2.51-2.94c7.52-8 15-15.9 22.64-23.78.51-.53 1.56-.54 2.37-.79a6.34 6.34 0 0 1 -.43 1.66c-8.83 16.09-17.29 32.39-26.69 48.15-5 8.44-8.14 17.55-11.91 26.45-1 2.28-1 5-1.1 7.59-.19 6.45 1.53 9.12 6.89 11.38 4.52 1.9 8.76.89 12.46-4.28 6.56-9.16 12.49-18.76 18.86-28.06 8.39-12.25 16.81-24.48 25.5-36.51 3-4.13 4.79-3.84 6.69.76 4.94 11.92 9.57 24 14.38 36q5.21 13 10.57 25.89c4.36 10.33 9 20.53 13.26 30.92 4.34 10.73 31.73 77.45 39 90.12 5.75 10 10.81 20.39 16.32 30.53 5.69 10.47 11.53 20.86 17.36 31.26 4.72 8.42 9.57 16.77 14.26 25.21 2.07 3.73 1.59 7.48-.57 11-.67 1.1-9.43 28.34-13.58 40.79-1.52 4.52-13.69 52.28-17.18 94.83s-2.56 63.8 1.16 93.3 24 96.61 27.22 104.61c4.95 12.16 22.2 54.25 23.49 56.85 7.19 14.42 15.61 28.15 23.64 42.11 10.79 18.77 23.54 36.19 35.54 54.14 9.09 13.59 31.3 39.73 42.52 55.11 4.29 5.87 7 10.17 6.72 11.6-.74 4-.49 53.73 4.57 87.35s5.13 27.16 7.69 40.74a3.26 3.26 0 0 1 -.58 2.58 2.53 2.53 0 0 1 -2.46-.06c-7.45-5.62-61.65-40.35-86.67-49.53s-38.38-12.83-46.74-12.34c-3.15.19-9.3 2.77-5.49 12.51s5.88 16.07 19.19 34.52c18.33 25.43 36.08 40.69 63.35 70.44s54.18 49.25 76.14 67.79 39.72 27.44 54.76 33.62c3.88 1.59 28.43 15 49-10.54s25.48-32.47 36.55-49.93c2.62-4.14 23.74-33.39 41.5-65.15 11.46-20.49 21.7-46.21 24.09-52.88 3.44-9.62 7.31-12.07 17.41-10.62 8.6 1.24 17.24 2.17 25.86 3.31a57.16 57.16 0 0 1 6.63 1.32c4.06 1 4.61 2 3.93 6-1.62 9.52-3.31 19-4.77 28.57-1 6.68-2 13.39-2.46 20.11-.71 10-6.47 99.26-6.41 110.46 0 7.85.76 9.53 8.42 11.67a200.27 200.27 0 0 0 19.83 4.36c17.19 2.95 82.21 18.33 158.4 18.33s113.21-4.78 134-9.73c12.62-3 14.74-23.51-26.06-40.17s-66.85-22.64-71.23-23.65c-2.81-.65-5.74-.81-8.55-1.45-6.2-1.41-6.65-2.52-3.06-7.41 3.26-4.43 26.09-37.22 33.12-50 8.37-15.21 31.9-53.66 34.29-58.21 5.84-11.11 42.62-75.35 56.09-95.82 8-12.12 39.75-68.13 58.42-123.84s22-114.2 23.13-119.88c.51-2.58 0-6.2 3.41-7.35s9.62 11.65 11.71 14.86c4.94 7.55 9.82 15.14 15.11 22.44 7.17 9.88 13.08 20.67 22 29.31 4.66 4.49 9.2 7.75 15.9 7.93 5.14.14 5.8 1.31 5.43 6.76-.49 7.09-1.29 14.16-1.66 21.26-.91 17.43-1.51 34.88-2.48 52.31-1.29 22.92-10.08 123.18-10.58 130.85-.69 10.6-9.06 165-8.35 210.11.23 15 .88 25 2.18 25.13 5.16.36 14.32.21 19.49.06 7.78-.23 8.8-1.41 8.87-9.19.2-22.61.29-45.23.69-67.84.14-8.35 3.63-101.59 3.76-106.72.23-9.32 5.89-73.59 7.16-92.22 1-15.42 1.87-30.86 2.79-46.3a8.24 8.24 0 0 1 .16-1c1.51-8.9 9-101.56 9.23-104.46.32-4 1.24-4.69 4.74-3.16 10.06 4.4 23.34 2 33.55-2.29 2.46-1 8.23-2 15.35-2.22 9.69-.27 15.45-3.85 16.71-4.12 9-1.89 17.5-4.5 24.06-11.4a16.71 16.71 0 0 1 3.64-3.12 64.56 64.56 0 0 1 10.35-5.12c4-1.4 6.12.29 6.1 4.49-.07 12.28-.37 24.55-.44 36.83 0 3.52-.07 7.19.83 10.54 2.09 7.78 9.94 10.52 16.93 6.5 6.21-3.58 9-9.29 9.7-15.95a242.1 242.1 0 0 0 1.61-27.05c-.14-11.63-1.16-23.25-1.92-34.87a167.92 167.92 0 0 0 -1.74-18.32zm-707.67-1359.32c.24-9.57 5.5-9.61 11.62-9.61 10.61 0 21.24.37 31.85.95 19.22 1 25.29 2 57.71 2.11s122.27-18.16 132.68-20c7.89-1.39 41.94-7.49 71.27-19.33 17.85-7.2 30.34-12.71 41.82-15.83 3.46-.92 6.57-1.11 6.4 2.86-.25 5.72 0 19.39 0 23.61s2.22 6.91-3.39 8.69c-46.11 14.65-111.62 33.95-154.26 40.36-67.92 10.2-112.93 11.6-152.52 11.06-16.62-.23-29.92-.75-40.38-1.31-5.28-.57-3.03-13.98-2.8-23.56zm690.32 1360.44c-.35 2.72-2.1 5.28-3.33 7.85a2 2 0 0 1 -1.6.76c-.28 0-.82-.83-.81-1.28.11-3.87.5-7.75.46-11.62a52.52 52.52 0 0 0 -13.22-34.76c-.93-1.08-1.9-2.14-2.93-3.18a7.72 7.72 0 0 0 -4.21.12 2.71 2.71 0 0 0 -.71 2.54 42.06 42.06 0 0 0 3.52 5.78c8.64 12.35 10.68 26.18 8.33 40.62-.75 4.58-3.27 9.13-5.89 13.09-3.87 5.88-8.51 11.26-12.89 16.79a15.3 15.3 0 0 1 -2.86 2.59c-.42.32-1.36.55-1.62.32a1.92 1.92 0 0 1 -.41-1.69 28.56 28.56 0 0 1 1.53-3.55c7-14.74 9.64-35.88 7.12-46.36s-8.51-16.82-10.22-19.14a35.61 35.61 0 0 0 -4.11-5.36c-1.7-1.59-4-2.53-6-.47-1.78 1.78-2.15 3.8-.48 6 1.35 1.8 2.28 3.92 3.69 5.67 7.44 9.27 7.64 19.82 6.56 31a71.28 71.28 0 0 1 -4.6 20.52c-3.9 9.64-10 17.22-19.57 21.74-.82.39-2.49.65-2.7.32a5.12 5.12 0 0 1 -.94-3.54c1.18-4 3-7.86 4.06-11.89 1.93-7.15 4.3-14.3 5-21.6.8-8-1.69-15.79-4-23.42-1.61-5.24-3.37-10.43-5.22-15.58-3.35-9.33-9.24-13.77-17.73-13.38-2.62.12-5.41.51-5.82 3.87s1.46 4.76 4.54 4.92c4.86.26 7.46 3.43 9.41 7.35a72.94 72.94 0 0 1 4.38 9.66c5 15.22 6.55 29.7 1 46.07-1.94 5.74-3.7 11.37-9.78 17.74s-18.89 6.16-25.61 5.63c-2.93-.23-5.9-2.41-8.42-4.3a6.42 6.42 0 0 1 -2.32-4.91c1-7.64 2.5-15.23 4.05-22.79a3.43 3.43 0 0 1 2.79-2 3.58 3.58 0 0 1 2.12 2.7c.25 4.49.1 9 .21 13.51.06 2.15-.6 5 2.15 5.76 3.18.85 4.53-2 5.47-4.34a16.57 16.57 0 0 0 .93-5.67c.11-5.18-.16-10.36.07-15.53.45-9.91-3.27-18.23-9.15-25.87-4.91-6.38-8.57-7.5-15.87-4.62a56.78 56.78 0 0 1 -6.31 2.45c-10.33 2.59-14.25 10.06-15.55 19.76-1.16 8.61-2.35 17.23-3.83 25.79-.87 5-2.74 6.11-7.27 4.46a16.14 16.14 0 0 1 -6.31-4.14c-5.8-6.46-19.22-23.7-20.37-25.65-1.48-2.5-2.8-5.1-4.45-7.48-6.23-9-12.77-17.76-18.81-26.87-7.46-11.27-14.54-22.78-21.79-34.19-.34-.55-18.67-30.74-27.6-45.22-5.41-8.76-10.6-17.65-15.91-26.47a10.71 10.71 0 0 0 -1.68-2.33c-2.27-2.19-5-3.22-8-1.83s-3.3 4.74-3.11 7.51a11.56 11.56 0 0 0 2.61 6.12c12.21 14.71 20.46 31.94 30.59 48 19.93 31.53 17.84 34.32 14.78 59.3-1.11 9.12-5.37 44.55-12.85 75.36s-21.49 63.88-24.49 71c-3.26 7.74-6.46 15.52-9.84 23.2-7.67 17.4-50.87 92.52-54.51 98.59-5.45 9.09-11 18.1-16.59 27.14-6.22 10.13-27.88 47.92-31.92 57-3.35 7.56-19.63 33.79-22.54 38-12 17.14-23 34.87-33.29 53.08-1.1 2-2.77 3.56-4.06 5.41-1.47 2.11-2.89 4.26-4.17 6.49-1.65 2.86-3.33 6.36-1.33 9.1 2.15 2.93 5.75 1.27 9 .69a48.86 48.86 0 0 1 13.38-.83c20 2.06 39.14 7.56 57.79 15 7.79 3.1 48 22.13 43.28 26.37s-40.32 6.69-53.1 7.62c-14 1-36.52 1.49-84.77 1.49s-122-14.89-128.68-16c-7.93-1.37-15.71-3.52-23.64-4.9-6.11-1.06-9.21-4.77-9.55-10.43-.4-6.73 0-13.52.15-20.28.06-3.83.1-7.66.28-11.48.38-8 .55-16 1.34-24 1.81-18.24 5.16-36.3 5.91-54.7.46-11.53 2.21-23 3.55-34.51.57-5 1-5.37 6.16-5 8.06.54 16.09 1.52 24.15 2.06q8.71.59 17.46.43a12.91 12.91 0 0 0 6.28-1.89c.87-.53 1.39-2.94 1-4-1.15-2.89-3.58-4.29-6.84-4.51-7.09-.48-14.15-1.5-21.24-1.77-18.45-.7-36.36-4.93-54.46-8-13.36-2.27-26.83-4-40.06-6.9-12.57-2.73-24.89-6.59-37.31-10a27.19 27.19 0 0 1 -2.66-1.17c-2.8-1.09-5.63-1.89-8 .77-2.23 2.45-2 6.54.57 9.81 2.08 2.64 4.87 3.83 8.2 4.6 9.42 2.17 18.76 4.67 28.09 7.24 4.35 1.2 5.15 2.79 4.15 7.16-2.54 11.1-7.82 21.11-12.89 31.16q-7.35 14.6-15.39 28.83c-4.12 7.29-8.65 14.35-13.11 21.44-6.19 9.83-12.12 19.86-18.81 29.33-9.45 13.36-43.79 63.51-55.35 66.62s-37.19-11.8-50.06-19.85c-1.61-1-44.58-34.66-49.42-39.09-9.92-9.1-34.07-32-36.31-34.33q-8.08-8.31-16.4-16.4c-11.4-11-38.07-41.61-41.07-45-4.86-5.52-22.11-28.71-26.11-34.52-.93-1.38-1.64-3.7-1.12-5.1 1-2.81 4-2 5.91-1.26 8.14 3 16.42 5.86 24.17 9.71 18.73 9.32 37.2 19.15 54.46 31.12 4.18 2.9 38.7 23.24 43.92 28.45 2.21 2.2 4.15 4.16 7.42 3.2 2.87-.84 4.94-3.9 4.54-7.67-.89-8.27-7-34.54-7.7-39.62-1.88-13.68-8.78-63.86-9.21-75.38-.29-8 0-16 .09-24 0-2.62 1.93-3.9 4.7-3a69.32 69.32 0 0 1 8.76 3.9c2.87 1.45 5.52 3.39 8.48 4.59a4.54 4.54 0 0 0 5.91-2c1.33-2.43 1.36-5-.82-7.11a13.6 13.6 0 0 0 -3.25-2.1c-9.87-5.06-16.71-11.13-27.47-19.86s-25.27-28-28.48-32c-6.71-8.19-45.19-61.66-50.46-70-5.45-8.64-10.2-17.71-15.21-26.62-1.11-2-16.27-34.87-19.52-41.86-.95-2-22.86-50.15-33-93.28s-19.83-92-8.89-157.79 25.41-104.39 27.28-110.2c2.77-8.58 13.85-36 16.47-41.15 1-2 10-23.94 14.49-32.49 5.79-11.12 20.91-43.61 21.92-48.87.31-1.59-1.52-4.3-3.11-5.31-1.13-.72-4.11 0-5.22 1a24.2 24.2 0 0 0 -4.62 7.14c-2.68 5.82-21.12 42-26 54.91-4.12 10.83-8.67 21.43-13.27 32-1.71 3.94-3.34 4.08-6.12.5a45.44 45.44 0 0 1 -3.79-5.63c-4.71-8.42-9.68-16.72-13.91-25.38-5.84-11.84-22.6-42.84-24.54-46.84-3-6.25-28.91-61.94-30.44-67-2.91-9.52-23.46-57.88-25.92-64.14-4.34-11.08-19.88-49.07-22.87-57.17-1.44-3.9-1.6-7.12.51-11 2.59-4.78 1.68-7.85-1.35-9.22s-5.7-.25-8.8 4c-1.13 1.54-1.81 3.4-2.85 5-4.16 6.51-8.22 13.1-12.63 19.43-5 7.13-10.35 14-15.45 21-5.85 8.07-11.56 16.25-17.46 24.29-.61.82-2.08 1-3.15 1.49-.15-1.2-.8-2.63-.37-3.56 4.63-9.9 9.28-19.8 14.21-29.54 3.79-7.46 8.33-14.55 11.91-22.1 3-6.23 13.51-35.36 14.87-37.53a4.71 4.71 0 0 0 -.75-6.2c-1.79-1.84-3.72-1-5.24.09-2.3 1.7-19.73 20.55-26.35 28q-11.5 12.93-23.75 25.2c-6.59 6.59-13.65 12.71-20.6 18.92-.84.75-2.34.73-3.54 1.07-.15-1.2-.8-2.62-.38-3.56 6.62-14.68 12.8-29.52 23.5-42.07 8.36-9.78 16.39-19.84 25.93-28.49 4.26-3.86 9.32-6.84 14.08-10.13 3.44-2.38 7.26-4.28 10.38-7a11.71 11.71 0 0 0 3.46-6.58 6.77 6.77 0 0 0 -5.83-7.58 6.85 6.85 0 0 0 -2.81.23 28.57 28.57 0 0 0 -6.88 3.38 126.5 126.5 0 0 1 -24.24 11.82c-11.72 4.33-22.83 10.35-34.19 15.67-4.34 2-8.7 4-12.95 6.23a33.1 33.1 0 0 0 -5.56 3.76c-3.79 3-17.75 15-22.39 11.82s4.33-11.46 6.21-13.87c5.66-7.24 12.69-13.25 19.91-18.88 16.28-12.71 33.29-24.38 52.32-32.8 6.49-2.87 12.62-6.54 18.89-9.88a14.23 14.23 0 0 0 3.23-2.13c1.83-1.77 2.14-5.71.73-8.15-1.23-2.14-3.05-3.46-5.6-2.84-2.8.68-5.8 1.17-8.22 2.58a44.31 44.31 0 0 1 -17.33 5.58c-8.92 1.13-17.72 3.17-26.58 4.76a46.21 46.21 0 0 1 -5.75.66c-8.67.42-17.35.78-26 1.15a5.52 5.52 0 0 1 -1.9-.09c-.58-.18-1.41-.6-1.5-1-.14-.76-.08-2 .39-2.35 3.5-2.26 6.89-5 10.74-6.32 8.19-2.9 16.61-5.19 25-7.5 9.61-2.66 19.28-5.15 29-7.56 10.4-2.6 20.83-3.42 31.39-.57 5.28 1.42 10.69 2.36 16.06 3.44 3.37.67 6.15 2.31 7.69 5.34 3.29 6.47 8.47 11.29 13.48 16.31 2.48 2.48 4.29 5.65 6.83 8.07 3.74 3.59 7.1 3.73 10.37 1 2.33-1.92 2.84-4.44.92-6.76-2.26-2.72-4.84-5.16-7.31-7.7-3.14-3.23-6.45-6.31-9.43-9.68q-15.06-17-29.89-34.23c-4.22-4.9-7.67-10.14-7.76-17.12 0-4.15-1.36-8.26-1.78-12.42-.1-.93 1-2.26 1.9-2.91a2.71 2.71 0 0 1 2.6.44c6.16 6.56 27.35 31.35 59 59.62 29.47 26.36 41.41 32.56 47.93 37.75l30.68 24.53c3.53 2.82 7.19 5.5 10.52 8.53 9 8.21 18.77 15.84 26.53 25.13 6.15 7.36 47 53.8 50 57.23 5.2 6.1 33.89 33 39.69 37.57 4.52 3.56 8.91 3.37 13.39.36a38.74 38.74 0 0 0 6-4.91c11.09-11.32 40.78-52.64 46.55-60.4 5.17-7 10.19-14.21 15.75-20.72 9.19-10.74 17.32-22.3 26.89-32.79 10.18-11.16 22.15-20.51 31.57-32.38a48 48 0 0 1 9.89-9.2 30.38 30.38 0 0 1 9.67-4c7.47-2 45-5 84-16.88s101-34.91 133-57.52 43.9-30.5 71.9-58.52 39.52-45.77 32.85-48.5-9.15 5.47-13 9.59c-14.42 15.53-48.06 50.34-81.69 74.82-42.55 31-86.55 50.94-133.33 65.44s-177.11 32.27-249.13 15.7-142.67-49.66-185.59-89.91-61.46-71.37-72.77-107.66-9.25-42-9.25-64 10.28-65 44.51-105.77 45.62-43.79 73.81-55.27 66.85-16.4 82.06-16.12a167.16 167.16 0 0 1 67.18 10.28c5.15 1.9 10.44 3.42 15.59 5.32 10.91 4 21.91 7.84 32.59 12.42 8.15 3.5 15.79 4.13 24.33 1.12 11.2-3.95 22.93-6.39 34.19-10.2 11-3.73 21.75-8.2 32.48-12.66 7.41-3.08 14.58-6.76 21.91-10 4-1.81 12.26-12.83 16.26-17.6 5.62-6.68 13.7-16.43 21.86-27.6 13.34-18.3 26.9-40.75 28.69-46.27a56.65 56.65 0 0 1 6.5-12.88 8.27 8.27 0 0 1 5.59-3.05c9-.71 18-1.45 27-1.26 11 .24 24.5-.31 88.65-2.51s101.16-9.87 151.58-22.07c51-12.34 70.79-25.45 73.23-26.11 4.47-1.21 4.09-.84 6.23 3.12 3.93 7.28 13.11 60.73 16.13 78.16 1.53 8.87 4.48 30.12 7.7 51.47s6 77.37 8.26 122.09 5.06 93.74 5.73 102.37c.49 6.44.88 12.78.9 19.26 0 15.45 1.23 30.89 1.41 46.33.1 9.65.19 50.48.1 56.9-.14 10-2.2 56.16-3.08 64.41-1.2 11.4-1.42 31.62 1.91 52.39s4.28 24.29 5.53 31.24c4.84 26.92 9.6 53.85 14.59 80.74 1.93 10.43 4.54 20.74 6.51 31.16.89 4.69 15.92 61.44 17.23 65.76 4.38 14.51 8.83 29 13 43.57 4.32 15.18 31.16 96.44 36.62 108.48 1.06 2.35 1.91 4.8 2.83 7.21 2.68 7.07 20.07 52 32.17 80.3 4.88 11.41 33 76.87 35.86 82 5.83 10.72 32.87 66.39 41.11 83.18 6.67 13.6 11.43 28.14 17.08 42.24 4 9.9 8.12 19.73 11.88 29.7a8.65 8.65 0 0 0 5 5.47c6.29 2.4 12.46 5.08 19.62 4 8.17-1.26 13.7-1.72 21.38 1.4 9.58 3.9 15.76 8.07 19.52 23s2.24 19.73 1 29.64z"></path></g></svg> 