<?xml version="1.0" encoding="UTF-8"?> <svg xmlns="http://www.w3.org/2000/svg" viewBox="0 0 2400 2400"><circle cx="663.59" cy="1730.97" fill="#fff" r="11.07"></circle><circle cx="732.53" cy="1656.71" fill="#fff" r="11.07"></circle><circle cx="795.34" cy="1563.82" fill="#fff" r="11.07"></circle><circle cx="850.7" cy="1483.44" fill="#fff" r="11.07"></circle><circle cx="921.23" cy="1393.48" fill="#fff" r="11.07"></circle><circle cx="976.06" cy="1311.24" fill="#fff" r="11.07"></circle><path d="m1364 1881.51c15.17-8.78 99-154.9 99-154.9l20.76-248.33-12-124.56-24.76-96.62s-34.07-64.94-34.6-66.54-31.4-41.56-31.4-41.56 12.78-85.7 13.84-91-7.45-43.65-7.45-43.65l-49 13.31-40.46 16s-16.5-9.59-16-11.72 6.39-21.29 6.39-21.29l2.68-48.45 2.13-28.21s46.31-11.71 47.91-12.25 71.86-19.69 71.86-19.69 42.59-13.84 44.72-14.37 47.91-30.88 47.91-30.88l30.87-29.28 25.6-55.89 16-5.85 7.45-30.35-7.45-108.06-27.68 11.18-12.32-19.69-38.86-56.43-44.14-54.83-71.33-55.36-93.67-52.7-78.78-21.29s-11.18-13.31-8-15.44 14.37-19.69 14.37-19.69l17-40.46 6.38-42.05-6.36-67.61-20.23-59.08-42.05-51.64-27.15-12.28-20.18 8-26.08 35.67-22.41 54.33-8.51 29.79-3.72 24 3.19 60.68 21.82 47.38 16.51 34.6 32.47 21.29-7.45 16.5-28.22 21.3-40.45 46.84-67.61 79.32-52.7 80.91-26.61 57s-21.3-13.31-22.89-12.78-16.5 3.73-16.5 3.73l-.54 56.95s3.2 47.91 4.79 50.57 12.78 42.06 14.91 41.52 25.55-5.85 25.55-5.85l17 11.18 22.36 27.68s36.73 30.34 39.39 30.87 43.65 16 46.31 17.57 61.75 15.44 63.35 16 83 8.52 83 8.52l2.13 29.27-2.66 46.31-10.65 29.81-75 80.38-35.14 63.35-20.22 30.87-20.23 2.13-6.39 12.25 8.52 18.63-3.2 33-18.1 45.78-101.14 174.6-177.25 278.82 85.71 73.46 206.53 82.51 195.9 39.93z" fill="#fff"></path><path d="m1323.5 1988.15c1.07-1.42.36-13.84.36-13.84l-19.16 2.13-28.7 12.78.36 25.19-.71 47.56-2.13 51.81s18.09 2.48 19.16 2.48 27.33 3.55 27-.71 3.55-50.74 3.19-52.87 5-67.79 5-67.79z" fill="#fef065"></path><path d="m1222.36 2004.83-20.58-2.13-16 6.74-7.1 7.46v25.55l-2.13 83.75 38 2.48s3.55-72.75 3.9-73.81 1.77-36.91 1.77-36.91z" fill="#fef065"></path><path d="m1265 1068.66-20.23-16-50.57 12.78-57.49-43.12-41.52-16.5-10.11 6.39-12.78 33s-2.13 83-1.06 86.77 10.11 51.1 10.11 51.1l11.18 20.23s29.28-.53 31.94-2.66 72.92-74.53 72.92-74.53l55.37 12.78s2.13-13.84 3.72-12.78 28.75 23.43 31.94 24.49 50 30.34 50 30.34h23.95l11.71-9 3.2-28.74 17.56-81.45-5.85-43.11-21.29.53-42.06 9.05-27.64 15.42z" fill="#fef065"></path><g fill="#0e5256"><path d="m1501.82 2320.82c-22.83-.46-45.58-1.37-68.48-2.09-12.4-.39-24.93-.8-36.91-4-23.88-6.47-43.24-23.44-62.24-39.29 1.34 1.13-3 22.8-7.93 22.54-10.55-.54-21.75 1.08-32.27 2.07a70 70 0 0 1 -13.33-.46c-3-.29-6.11-.63-8.6-2.29-4.53-3-5.42-9.16-6.53-14.49-1.2-5.82-4.69-11.27-5.75-16.94-.92-5 .32-10.93.33-16 0-13.64-.86-27.26-1.58-40.88-1.39-26.37-2.72-53.37 3.69-79.24 1.51-6.1 3.83-12 5.37-18.07 2.62-10.35 2.92-21.13 3.21-31.8l1.15-42.35c.32-11.72 2.84-24.86 1.78-36.44-.56-6.06-5.38-7.43-10.86-6.16-5.27 1.22-10.42 2.91-15.64 4.32q-8.37 2.24-16.78 4.32c-13.15 3.26-7.82 34.07-8.62 44.24-1.76 22.41-5.32 44.84-3.46 67.37 2.24 27 2.84 53.52 3.46 80.62a304.09 304.09 0 0 1 -2.83 49.2c-1.4 9.92-3.37 19.8-4.15 29.81-.54 6.85 2.73 20.11-.95 25.78a3.9 3.9 0 0 0 -.45 1.61c-1.06 8.28-51.65 4.45-61.33 4.54a2.3 2.3 0 0 1 -2.84-3c.23-3 .48-6.17-.48-9.07s-3.48-5.51-6.53-5.56a11.06 11.06 0 0 0 -4.94 1.53c-47.69 23.4-93.42 43.53-147.43 45.57q-28.65 1.09-57.32-.33c-7.62-.38-15.51-1-22.18-4.65-4.77-2.63-8.95-7.6-8.17-13 1-6.75 8.6-10 15.11-12.05 36.32-11.33 72.21-23.59 108-36.48 22-7.92 44.8-16.36 61-33.2 3.93-4.09 7.74-8.84 13.19-10.41 5.28-1.52 12.62.61 17.39-2.32 6.28-3.85 4.36-12.61 10-17.76 3-2.76 6.58-5 9-8.25 2.74-3.62 3.87-8.18 4.93-12.61l4.56-19c.34-1.41.31-3.44-1.12-3.7a2.75 2.75 0 0 0 -1.92.69c-15.05 10.39-28.63 22.91-44.17 32.55-3.34 2.07-6.9 4-10.79 4.56s-8.23-.49-10.73-3.52c-3.82-4.64-2-11.71 1.09-16.84 5.89-9.72 15.53-17 24.52-23.7 2-1.52 11.36-5.26 9.82-8.61a3.73 3.73 0 0 0 -1.36-1.43c-5.8-4-22.54-4.92-18-16.48 1.1-2.82 3.42-5 5.75-6.89a103.68 103.68 0 0 1 25.11-15.42c-6.48-1.06-12.74-1.46-18.49-4.83-2.93-1.73-5.88-1.13-8.82 1.46a5.83 5.83 0 0 1 -5.84.69c-2-1.21-1.85-3-1.23-5 .34-1 .48-2.18.78-3.25 2.53-8.9 22.9 2.83 29.34 3.79 2.95.43 6 .71 8.61 2.17 3.35 1.87 6 5.69 9.85 5.56-1.45-4.19-5.45-6.49-7.44-10.29s-2.38-8.1-4.56-12.09c-4.22-7.71 4.68-15 6.71-6.5.47 2 .32 4 .63 6 .64 4.12 3.17 7.66 5.63 11s26 39.53 28.81 20.76c3.23-21.26 4.7-42.75 7.09-64.17a39.68 39.68 0 0 0 .35-6.44 38.18 38.18 0 0 0 -1-5.9c-2.83-13.1-5.8-22.46-21-22.1-6.46.16-13-.32-19.4.14-12 .85-24.54-5.08-36.06-7.82-13.92-3.31-28-6-42.07-8.47-28.26-4.86-56.73-8.45-85.06-12.88q-72.54-11.32-143.7-29.86c-15.51-4-31.07-8.44-45.65-15.2-10.82-5-31.5-14.82-36.62-26.3-.51-1.14-1.83-1.9-2.73-2.89-17.12-18.73-32.28-35.48-55.8-46.61-20.29-9.59-42.34-14.92-64.5-18.49-3.79-.61-8-1.41-10.25-4.5-2.68-3.67-1.35-9 1.29-12.68a499 499 0 0 1 31.58-39.7c9.66-11 16.24-24.17 25-35.85 9.61-12.86 22.57-23.17 33.6-34.83 19.22-20.34 40.21-38.6 58.21-60.17 18.78-22.5 34.94-47 51.06-71.5 22.93-34.82 45.21-70.39 69.86-104.09 20.85-28.5 43.39-55.71 64.52-84q17.37-23.28 33.44-47.5c5.53-8.33 10.74-16.86 16.22-25.22 4.41-6.74 10.27-11.71 12.76-19.67 1.07-3.41 4-6 4.07-9.79 0-1.84.74-3.66 1-5.51.64-4.59 3.07-8.43 5.31-12.28 3.36-5.79 10.9-18.73 8.92-25.72a25.57 25.57 0 0 0 -3.81-7c-3.93-5.88-7.36-12.4-7.87-19.45s2.54-14.75 8.82-18c5.53-2.87 12-5.89 18.24-5.2 2.44.27 3.27-.64 4.1-2.56 2-4.62 3.81-9.37 6.36-13.68 3.42-5.78 6.38-11.87 11.52-16.61a10.93 10.93 0 0 0 3-11.83c-.68-2.12-.79-4.42-1.28-6.62-6-26.71-2.28-58.4-2.77-85.85-.15-8.28-.3-16.62 1.14-24.77a108.21 108.21 0 0 1 16.55-40c4.6-6.65 6.45-9.76 13.83-8.53 13.61 2.28 29.87 13.85 42.45 19.68 8 3.72 16.3 7.81 23.61 12.75 2.66 1.8 6.24 2.49 9.52 3.06 8.91 1.55 13-37.27 14.34-43.66a58.17 58.17 0 0 0 0-24.26c-1.48-6.76-3-13.52-4.53-20.27-.64-2.73-2-3.81-4.68-4-.38 0-.77 0-1.14 0-8.11-.38-16.28-.26-24.3-1.31-50.94-6.69-107.49-14.65-151.59-41.69-4.46-2.74-8.77-5.75-13.16-8.61-.94-.62-2-1.05-2.93-1.71a91.35 91.35 0 0 1 -8.45-6.41c-8.2-7.6-16.14-15.48-24.35-23.07-4.83-4.47-11.59-8.44-15.69-13.53-2.62-3.25-3.67-10-8-11.5-2-.69-4.2.06-6.23.68a57.67 57.67 0 0 1 -23.89 2.12 16.66 16.66 0 0 1 -7.61-2.4c-2.31-1.59-3.81-4.09-5.15-6.55-18.65-34.4-13.08-69.94-14.68-106.86q-.58-13.53-1.19-27.05c-.28-6.41-.56-12.89.58-19.2.73-4 2.08-8 4.72-11.06s6.75-5.09 10.75-4.43c11 1.81 14.13 18.29 24.33 21.56a3.8 3.8 0 0 0 2.47-.27 3.48 3.48 0 0 0 1.55-1.62c2.09-4.57 4.1-9.18 6.14-13.77.37-.84.78-1.66 1.18-2.49 1.13-2.36 2.58-4.63 3.34-7.11 1.57-5.14 4.83-9.54 6.2-14.75 3.15-11.95 16.69-26.49 23.51-37q13.59-20.84 27.85-41.22c27.49-39.3 56.41-77.57 88.74-113 15.45-16.43 31.59-36.55 50.61-48.89a65.89 65.89 0 0 0 6.08-5.05c6.18-5.19-8-11.53-11.13-13.88-5.1-3.86-9-9.05-12.89-14.17-27.1-35.93-43.65-73.2-45.44-118.69-1.65-41.88 6.66-85.69 25.44-123.29 11.48-23 25-40.4 47-54.52 3.69-2.37 7.56-4.6 11.84-5.54 10.61-2.32 21.17 3.67 29.83 10.23 41.88 31.69 64.9 82.11 72.06 133.17 6.35 45.37 2.74 92.46-16.76 134.11-3.24 6.92-7.2 13.5-10.84 20.24-1.62 3-1 5.31 2.22 6.16 34.53 9.14 68.35 19.51 100.35 36.89 19.91 10.81 38.94 23.16 57.54 36.08 30.14 20.94 59.57 43.13 86.29 68.35 28.3 26.72 48.59 56.15 69.94 88.27 2.89 4.34 5.8 8.74 7.55 13.65 1.59 4.49 4.94 8.57 6.16 13 1.67 6.11 5.43 6.76 11.34 3.73 6.19-3.16 9.72-9.63 15.74-12.91 3.58-1.95 8.23-2.47 11.63-.22 3 1.94 4.41 5.57 4.67 9.08s-.48 7-1.07 10.5c-3.12 18.68 2.23 34.83 2.71 53.07.11 4.14-.73 8.27-.63 12.42.11 4.86 1.49 9.59 2.32 14.38 3.38 19.56-.86 38.19-7.92 56.11a49.88 49.88 0 0 1 -7.41 12.56c-1.43 1.8-4.55 2.33-7 3.19-1 .35-2.29-.1-3.4.09a7 7 0 0 0 -5.66 4.07c-5.07 10.75-10.29 21.43-15.48 32.13a66.16 66.16 0 0 0 -3 6.09c-3.17 8.88-9.27 15.53-16.08 21.67-1.67 1.5-3.59 2.73-5.29 4.21-32.17 27.82-71.36 46.81-111.41 60.37a517.62 517.62 0 0 1 -61.48 16.56c-11.55 2.38-44.85 1-47.27 15.31-3.14 18.65-8 36.68-8.52 55.82-.23 8.2-2.86 15.46-2.83 23.64 0 3.88 2.47 7 5.12 9.16 2.48 2 6.18 1.46 9.16-.07 4.87-2.52 9.59-5.34 14.44-7.89 9.09-4.77 18.26-9.28 28.29-12 4.4-1.17 8.67-.88 13-.77 6 .14 11.36-2.41 17-3.85 1.78-.46 3.09-2.67 4.66-4 14.47-12.51 17.67 23.63 18.57 31.06 4 33.21-3.45 65.28-8.45 97.88a34.25 34.25 0 0 0 -.55 9.73c1 7.65 7.15 14 11.19 20.27 2.86 4.44 5.8 8.81 8.63 13.26 2.53 4 4.88 8.08 7.46 12 3.82 5.83 7.82 11.54 11.65 17.36 2.59 3.94 5.14 7.9 7.5 12 10.79 18.64 17.64 40 24.45 60.36 4.74 14.16 9 28.57 10.74 43.41 1.9 16.6.86 29.37 11.77 43 1.94 2.41 2.72 5.76 4 8.72 8.16 19.09 25.29 37 37.45 53.92l42.05 58.63c28.55 39.8 58.17 79.07 86.12 119.24 3.31 4.77 6.28 9.78 9.59 14.54 1.51 2.16 3.74 3.82 5.24 6 3.31 4.76 6.28 9.77 9.58 14.55 1.7 2.46 4 4.53 5.7 7 30.61 44.23 62.53 87.6 93.92 131.29 3.43 4.76 6.88 9.58 9.08 15a37.56 37.56 0 0 1 -8 39.59c-4.31 4.32-9.61 7.5-14.88 10.58-30.45 17.85-62 33.81-93.71 49.18-30.94 15-57.82 37.5-90 50-32.85 12.75-69.41 15.48-104.17 19.11-43.62 4.55-87.94 3.34-131.33 8.76a5.79 5.79 0 0 0 -3.44 2.47 34.24 34.24 0 0 0 -3.54 7c-7.73 21.06-10.23 45.76-10.91 68.07-.54 17.72-1.8 35.25-1.82 53 0 3.15 2.42 5.32 3.51 8 .42 1.05 1.53 1.42 2.87.71 1-.54 1.86-.72 2.13-2.18 1.42-7.69 2-15.74 4.86-22.92s5.11-15.61 12.93-20c.8-.45 1.25-1.78 1.54-2.79 1.5-5.12 6.06-6.59 9.81-2.91 1.81 1.78 2.19 7.41-.14 9a4.58 4.58 0 0 1 -2.29.57c-2.39.17-4.91.46-6.85 1.88s-3 3.64-3.94 5.8a90.05 90.05 0 0 0 -7.34 23.45c-.12.73-.57 1.41-.65 2.14a17.23 17.23 0 0 0 .1 2.58 10 10 0 0 0 1.82-1.94c4.73-8.92 14.5-15.39 22.54-21.07 2.1-1.48 4.44-3.25 4.67-5.81a5.53 5.53 0 0 1 .38-2.55 3.43 3.43 0 0 1 2.62-1.12c2.58-.28 5.74-.31 7.11 1.9 1.11 1.8.33 4.26-1.13 5.79s-3.44 2.43-5.24 3.54a48.21 48.21 0 0 0 -5.45 4.1c-4.05 3.35-9.21 6.47-12.77 10.26-1.53 1.63-2.85 3.46-4.22 5.23a1 1 0 0 0 0 .92 1.15 1.15 0 0 0 1 .19 38.66 38.66 0 0 0 6.75-2.8c3.46-2.14 7.2-3.55 10.85-5.41a76.42 76.42 0 0 1 9.62-4.61 10.3 10.3 0 0 1 4.83-.68 9.52 9.52 0 0 1 4.1 1.87c12.85 9.3 7.93 27.13-4.64 34-3 1.65-11.3 5.84-11.93 9.51 4.84 1.32 9.85 2 14.6 3.58s9.4 4.24 12 8.5a10.49 10.49 0 0 1 1.73 5.46c0 5.79-6.32 9.88-12.11 9.89s-11.16-2.81-16.49-5.09c-3.69-1.58-13.57-7.12-15.83-2.61-1.55 3.09 3.38 9.21 3.21 12.67a5.49 5.49 0 0 0 .33 3.13c.64 1.06 2 1.38 3.09 1.92 4.87 2.37 5.33 9 5.36 14.4a5.88 5.88 0 0 0 .9 3.75c1.28 1.55 3.63 1.41 5.56 2 7.75 2.16 7 14.06 13 19.46 4.88 4.41 12.5 3.1 18.82 4.95 8.49 2.47 12.73 10.78 13.17 19 .24 4.58-2.28 7 1.1 10.55 1.23 1.31 10.29 3.29 12.65 4.39 9 4.16 18.61 3.28 27.78 6.61 10 3.65 18.79 10 28.87 13.59 6.34 2.22 13 3.24 19.49 5.13 8.58 2.52 16.62 6.56 24.61 10.58 4.45 2.25 9 4.57 12.39 8.25s5.34 9.07 3.64 13.77c-2.86 7.91-13.31 9.24-21.73 9.23q-13.53.02-26.71-.27zm-580-1518.64c1 11 7.23 16 15.41 22.25 8.38 6.4 13.47 16 21.43 22.83 8.14 7 15.7 14.81 24 21.7a144.07 144.07 0 0 0 28 17.6c23.79 11.78 48.95 17.63 74.59 23.72a635.32 635.32 0 0 0 113.32 16.25q28.18 1.5 56.44.53a494.49 494.49 0 0 0 138.93-24.55 456.19 456.19 0 0 0 65.82-27.73c22.68-11.74 51-27.76 65.87-49.08a159.23 159.23 0 0 0 8.68-14.56l9.59-17.47a41.16 41.16 0 0 0 4.15-9.27c1.92-7.33 0-15 .72-22.5s2.91-14.61 3.06-22.19c.35-17.36-1.06-34.74-.87-52.14.1-8.5.18-17.1-1.86-25.35-1.73-7-4.92-13.51-8.1-20 0-5.58-7.78-15.84-10.3-21a201.52 201.52 0 0 0 -10.09-17.47 238.22 238.22 0 0 0 -20.91-28.89c-4.52-5.33-9.06-10.65-13.56-16-5.59-6.65-11-13.45-16.75-20s-11.64-12.47-17.47-18.69c-.52-.56-.93-1.2-1.45-1.76-3.2-3.48-6-7.41-9.7-10.33-11.31-9.06-22.9-17.77-34.45-26.52-13.64-10.35-27.68-20.15-42-29.59q-19.54-12.93-39.38-25.42c-9.85-6.25-19.85-12.26-29.81-18.35-1.29-.78-2.72-1.32-4.07-2a3.86 3.86 0 0 0 -4.27.17c-1.06.71-2.36 1.07-3.41 1.8a1.71 1.71 0 0 0 -.16 1.69 5.53 5.53 0 0 0 1.86 1.25c21.73 12.34 41 33.45 60.26 49.6 9.94 8.31 19.9 16.64 29.17 25.7 8.2 8 14.57 19.43 23.79 25.68 3.68 2.5 7.55 5.09 10.32 8.48 8 9.77 19.73 14.47 29 23 3.2 2.93 6.37 6.39 6.94 10.69s-2.84 9.3-7.14 8.7c-1.92-.27-3.53-1.53-5.08-2.68-11.51-8.57-25.26-13.31-39.15-16.34-12.24-2.66-29.09-7.29-41.49-4.7a63.23 63.23 0 0 0 -8.63 2.25 4 4 0 0 0 -2.26 2.81c-.19 3.17-.62 6.39 1.1 9.46a17.59 17.59 0 0 1 2.23 9.84c-.1 1.63-.28 3.12-1.85 3.85-1.83.85-3.14-.23-4.54-1.41-9.45-8-14.3-24.15-20.12-34.81-7.71-14.11-16.12-27.89-26.26-40.4-16.49-20.37-34.06-40.41-51.94-59.34-1-1.1-1.93-2.35-3-3.35-2.11-1.88-4.33-3.62-6.5-5.43-2.46-2.05-4.81-4.25-7.42-6.09a14 14 0 0 0 -4.69-1.75 1.94 1.94 0 0 0 -2.23 2.41c2.15 6.18 4.23 12.47 8.47 17.57a69.69 69.69 0 0 1 6.92 10.24c24.11 42.44 45.42 84.46 58.92 132 1.84 6.47-2 7.74-6.48 5-4.81-3-6.11-12.73-7.86-17.62-5.15-14.35-10.47-28.66-16.41-42.71a367.51 367.51 0 0 0 -22.51-45.16 251.57 251.57 0 0 0 -14.44-21.71c-2.31-3.09-5.69-6.16-7.52-9.52-1.12-2.06-1-5.3-2.46-7.05a128.77 128.77 0 0 1 -12.85-18.43 2.5 2.5 0 0 0 -1.18-1.18 3.65 3.65 0 0 0 -2.12 0c-.32.1-.62.95-.55 1.41.56 3.67 1.26 7.32 1.83 11a57.32 57.32 0 0 1 1.12 8.89c0 9.13 5.44 18.93 8.32 27.41q6 17.68 11.16 35.65c2.73 9.55 5.28 19.14 7.84 28.74l2.91 11c2.24 8.43 8.56 20.29 3.75 28.79a4 4 0 0 1 -1.79 1.84c-1.92.79-3.87-1-5-2.78-2.17-3.47-3.55-7.45-6.21-10.55-6.49-7.55-18.92-1.41-27-.13-11.79 1.87-23.84 2.6-35.13 6.82a126.46 126.46 0 0 0 -13.57 6.31l-13.75 7.01c-9.49 4.88-17.14 10.61-25.66 16.8-3.56 2.58-5.77 2.38-9-.51-1.36-1.2-3.25-2.28-3-4.55.37-3.51 1.55-7.09 4.77-8.48 14.68-6.34 31.23-16 44.1-25 2-1.39 4-2.74 5.92-4.29 1.25-1 2.92-2.23 3.24-3.62 1.1-4.71 2.42-9.57 2.3-14.34-.43-16.77 6.2-35 8.64-51.66 2.74-18.69 11.92-43.79 3.52-62-2.35.21-2.88 1.77-3.78 3.95-4.7 11.38-9.43 22.52-14.93 33.5-1.18 2.35-2 5-3.58 7-13 16.4-22.88 35.14-31.49 54.15-7.73 17-16.86 35.25-20.21 53.67a16.53 16.53 0 0 1 -2.28 5.78c-3.25 5.11-6.6 10.14-8.52 16a11.56 11.56 0 0 1 -2.17 4c-1.15 1.29-2.09 3.55-4.52 2.44-1.59-.72-2.13-3.23-1.4-5.65a16.81 16.81 0 0 1 .82-1.49c8-19.28 11.09-41.05 18.76-60.73 10.26-26.36 24.42-50.52 37.29-75.49 2.85-5.51 5.26-11.2 7.56-17 2.46-6.19 6.23-11.84 9.23-17.83a44.49 44.49 0 0 0 2.59-7.38c.18-.61-.29-1.41-.47-2.12-.62.33-1.46.5-1.83 1-1.22 1.68-2.28 3.47-3.38 5.23-5.61 9-11.46 17.78-19.11 25.25a128.84 128.84 0 0 0 -11 12.26c-22 27.66-41.26 57.38-59.2 87.79-4 6.86-51.41 89.48-52.75 88.55-2.14-1.5-1.4-4.79-.42-7.22a743.44 743.44 0 0 1 55.62-110.14c10.58-17.27 22.26-33.83 34.24-50.15 6.16-8.39 12.41-16.71 18.63-25.05 5.46-7.32 14.56-16.16 17.35-24.66-11.23 2-21.51 15.77-29.08 23.68-10.43 10.89-20.08 22.47-30.24 33.6-9.27 10.15-18.43 20.41-27.59 30.67-21.2 23.75-38.29 50.64-56.43 76.82-11.41 16.48-23.13 32.66-34 49.49-10.36 16-15.5 33.61-23.63 50.69-4.47 9.4-8.29 18.12-8.26 28.74 0 6.2.83 12.4 1 18.6.58 18.74 1.75 37.37 3 56.11.29 5.15.63 10.4 1.13 15.65zm200.18 448.08c-.41-11-1.09-21.91-2.33-32.85a12.15 12.15 0 0 0 -1.22-4.77c-2.38-4.17-8.41-4.18-13-2.77s-9.36 3.71-14 2.31-7.17-5.8-10.43-9.18-8.95-5.81-12.41-2.64a11 11 0 0 0 -2.27 3.53c-4.17 8.79-8.63 17.42-11.78 26.61-1.63 4.77-3.26 9.53-5.12 14.22-1.44 3.62-6 10.09-6 13.86a10.38 10.38 0 0 0 -1.18 2.57c-1 6.67-4.9 12.19-7.31 18.27-34.1 86.17-32.43 179.83-4.55 267.32 2 6.26 4.82 12.25 6.75 18.52a189.78 189.78 0 0 0 9.62 25.86c.4.85.64 1.77 1 2.65 1.66 4.59 3.24 9.21 5 13.75a19.32 19.32 0 0 0 2.43 3.81c3.68 5.24 7.94 10.18 10.91 15.8a64.85 64.85 0 0 0 7 10.81c4.78 5.85 9.75 11.54 14.58 17.35 7.15 8.59 13.57 17.19 21.83 24.87a267.61 267.61 0 0 0 40 30.65 75.19 75.19 0 0 0 14.45 7.46c1.84.66 4.5.83 5.14-1a3.78 3.78 0 0 0 -.26-2.42c-7.66-21.73-26.51-37.12-38.93-55.95a520.65 520.65 0 0 1 -40.13-73.13 14.59 14.59 0 0 1 -1.74-6.2c0-2.16 1.31-4.46 3.41-5 3.13-.78 5.67 2.46 7.27 5.26l16 28c3.42 6 7.67 19.11 15.44 20.75-2.39-.5-5.61-32.13-6.08-36-.38-3.06-.13-7 2.79-8l24.55 53.1c7.16 15.51 12.85 35.1 24.1 48.06 1.48 1.71 3.12 3.29 4.48 5.09 2.86 3.78 5.81 7.31 10.24 9.5 3.39 1.68 4 2 5.06-1.44a12.43 12.43 0 0 0 .3-7.13c-14.61-43.11-28.91-85.53-39.4-130.07-4.26-18.13-8.36-36.31-11.11-54.73-.8-5.35-1.48-10.72-2.17-16.09 0-26.33-6.93-54.46-10.27-80.61-3.35-26.35-6.25-52.78-8.27-79.27-1.98-26.86-1.39-53.82-2.39-80.73zm180.9 411a27.4 27.4 0 0 0 .1 5.84c.12 1 .4 2.08 1.3 2.44a2.77 2.77 0 0 0 1.77-.1c17.23-4.93 23.86-19.44 33.29-33 7.44-10.65 14.69-19.16 20.6-31a437.85 437.85 0 0 0 18.06-41.76c1.31-3.5 2.71-7.21 5.67-9.49s8-2.29 9.83 1c1.24 2.18.64 4.9 0 7.32-11.11 40.28-34.26 69.86-56.81 104-2.37 3.59-4.81 7.64-4.18 11.9a5.42 5.42 0 0 0 2.93 4.34c2 .82 4.28-.21 6.14-1.33 9.34-5.62 16.79-13.86 23.93-22.1 41-47.29 76.93-100 89.59-162.31 11.31-55.73 12.3-112.31 1.48-168.31a454.11 454.11 0 0 0 -42.67-122.54c-2.42-4.69-5.33-9.13-8.11-13.61-3.08-5-6.24-9.88-9.42-14.77-1.85-2.84-4-5.54-5.69-8.44-1.43-2.37-3.79-1.83-5.55-1.6-1.22.16-2.9 2.06-3.14 3.41a13.35 13.35 0 0 1 -3.51 7c-3 3.19-5.57 6.71-8.72 9.69a11.63 11.63 0 0 0 -3.9 10.73c.74 5.2 1.57 10.39 2.55 15.55 1.33 7 2.91 13.93 4.23 20.92 1.94 10.3 3.83 20.62 5.57 31 .68 4.07 1 8.21 1.29 12.33 2.27 33.56 7.64 66.09 6.89 100-1 42.9-6.22 87.49-18 128.85-7.84 27.55-17.63 54.49-27.5 81.36-4.94 13.47-10 27.08-17.36 39.44-7.05 11.61-19.34 19.32-20.63 33.2zm-138.11-591 8.57-.08c3.47 0 7.74-.58 9-3.82 1-2.61-.62-5.47-2.43-7.6-5.23-6.14-12.37-10.3-19.42-14.22-19.81-11-40.14-21-60.54-30.91-1.43-.69-3-1.4-4.54-1.06-1.91.41-3.13 2.24-4.09 3.94a107.54 107.54 0 0 0 -13.66 50.43c-.18 9 2.26 17.39 2.7 26.17.43 8.39-3.08 16.63-4.12 25-1 8.12 1.29 16 2.54 23.9 2.37 15.07 3.24 28.07 9.36 42.5 1.79 4.22 4 8.72 8.13 10.72 6.41 3.09 13.78-1.27 19.5-5.5 37.14-27.43 72.27-67.84 92.74-109.34a108.22 108.22 0 0 0 -15.71 5.09c-11 4.51-17.54 12.12-26.74 19-8.61 6.44-32.5 26.95-43.94 24.51a19.68 19.68 0 0 1 -3.43-1.38 11.51 11.51 0 0 1 1.33-2.93c2.93-3.46 6-6.83 9-10.19a10.49 10.49 0 0 1 2.17-1.81c3.19-2 6.41-4 9.62-6a70.1 70.1 0 0 0 7.11-4.37c4.3-3.39 8.4-7 12.51-10.63a3.08 3.08 0 0 0 1.15-2.23 2.93 2.93 0 0 0 -1.83-1.88c-16.54-3.17-33.2 3.77-50.86-2.72-2.77-1-5.61-2.32-7.34-4.72s-1.85-6.17.47-8c1.53-1.22 3.65-1.29 5.6-1.31zm223.49-27.1c-.19-10.74-3.13-19.88-13.37-19.93-13.26-.07-28.32 6.81-40.18 12.29-3.43 1.58-6.8 3.3-10.16 5-8 4.1-40.44 14.47-40.45 26.36 0 5.44 8.7 3.68 11.79 3.06a170.77 170.77 0 0 1 36-2.88c5.43.09 11.28.5 15.48 4a6.6 6.6 0 0 1 2.13 2.75c1 2.79-1 6-3.74 7.19-7.73 3.55-17.88-.41-26 .66l-22.84 3c-1.52.2-3.44.82-3.47 2.35 0 1 .87 1.79 1.73 2.36 6.42 4.24 14.41 5.12 21.79 7.33 9.56 2.87 23 8.45 24.7 19.61.83 5.31-2.56 9.43-8.26 7.07-2.68-1.1-4.74-3.29-7-5.06-7.69-5.89-17.87-6.94-27.26-9.3-7.18-1.81-25.86-5.52-25.24-15.56.15-2.5-1.56-3.78-3.07-5.16-1.73-1.57-4-.86-4.13 1.44-1.12 21.12 14.84 40.94 29.34 55.17 10.25 10.06 68 46.84 73.19 16.07 6.41-38.15 19.74-78.98 19.05-117.83zm-223.1-802.64c-.89-10.42-1.78-20.83-3.65-31.16-6.06-33.51-17.4-64.13-27.2-96.32-.84-2.78-2.58-5.31-4.1-7.85-1.25-2.07-2.44-2.09-3.67 0-12.32 20.37-10.59 43.34-4.5 65.78 7.57 27.86 13.77 57.3 20.4 85.87 3.4 14.63 6.94 29.23 11 43.71 3.37 12.2 10.1 25.51 12 37.85a66.25 66.25 0 0 0 5.72 19 4.54 4.54 0 0 0 1.2 1.85 1.89 1.89 0 0 0 1.77-.34 7.27 7.27 0 0 0 .43-2.76c0-4.13-.72-8.25-.93-12.32-.79-16.07-.85-32.21-1-48.3a65.74 65.74 0 0 0 -.3-6.88 80 80 0 0 0 -1.83-9.07c-3.13-12.89-4.23-25.97-5.34-39.06zm215.57 285.48c3.42.36 6.83.37 8.35-1 3.28-3 .32-8.69-3.52-11-7.62-4.62-13.71-13-20.35-19.05q-12.64-11.5-25.48-22.8c-17.75-15.63-35.43-32-55.08-44.81-3.89-2.54-7.57-5.45-11.63-7.68-8.73-4.78-17.64-9.23-26.49-13.78-.48-.25-1.2-.06-1.65-.33-1.76-1-4.09-1.7-5.23-.24s.56 3.46 1.73 4.89c2.49 3.08 5.06 6.1 7.6 9.14 15.74 18.83 32.29 38.56 47.44 58.46 8.16 10.71 16.07 21.63 23.53 32.84 5.2 7.81 9.53 19.64 21.25 17 10-2.27 21.17-3.63 31.43-2.74 1.7.1 4.91.74 8.1 1.1zm-143.75 414c-.62 0-1.24 0-1.86 0-8.35-.09-16.18 2.62-24.56 2.42a8.78 8.78 0 0 0 -8.69 6.53c-1.81 6.51-.36 13.49.07 20.13.46 7.1 1.08 15.84-.94 22.78-.65 2.26-.75 5.37 2 6.6 6.12 2.78 11.42 7.21 18.61 8a53.82 53.82 0 0 1 13.66 3c4 1.5 8.56 2.82 12.56 2.19 4.37-.68 8.65-.44 13-.84a30.82 30.82 0 0 0 10.78-3c12.32-6 10.48-44 10.16-55.39-.11-4-.56-8.4-3.53-11.06-4.48-4-11.39-1.65-17.31-.64-8.1 1.28-16.01-.4-23.95-.72zm-36.24-682c-4.41-61.49-15-125.17-51.41-174-2.69-3.61-7.42-7.49-11.1-4.9 2.48 7 5.32 13.83 8.15 20.67 0 6.88 7.5 18.08 10.17 24.52 2.81 6.79 6.17 14.29 7.67 21.51 1.41 6.73 2.08 13.63 3.69 20.31a629.26 629.26 0 0 1 14.11 86c2.3 23.47 3.12 47 4.06 70.52l.27 6.73c.48 12 1 23.92 1.34 35.88.07 2 0 3.52 1.1 5.12 11.58-11.22 13.52-36.62 14.36-51.62 1.1-20.04-1-40.74-2.44-60.74zm-93.69-118.3a21.3 21.3 0 0 0 -1.56-4.95c-1 2.37-1.93 4.79-2.86 7.2a101.32 101.32 0 0 0 -5.1 15.58 100.84 100.84 0 0 0 -1.62 17.71c-.32 10-2.33 21.55-.18 31.33 3.29 15 4.79 30 6.91 45.14a197.81 197.81 0 0 0 6.25 27.45 476.67 476.67 0 0 0 40.52 97.92c1.62 2.93 3.41 6 6.32 7.67s7.26 1.33 8.89-1.6c1.35-2.43.38-5.44-.61-8-5.74-15-11.69-30-16.55-45.33-6.46-20.39-13.6-40.64-18.17-61.77-4.89-22.6-10.69-45-15.23-67.68-2.26-11.25-4.21-22.58-5.58-34-.9-7.44.18-18.58-1.43-26.67zm-224.26 595.54c-.25 19.69.11 39.42 3.36 58.61.7 4.13 1.6 8.35 3.91 11.84 6.44 9.75 20 10.79 20.6-2.41.22-5.12.21-10.27 0-15.4-.22-5.82-.59-11.66-1.17-17.46-.55-5.38-1.82-10.71-2.13-16.1-.6-10.18-.08-20.37-.95-30.6-.68-8.05-2.49-16-2.64-24.05a3.6 3.6 0 0 0 -1.26-2.4c-2.19-1.73-3-4.18-4.1-6.59-1.73-3.88-3.73-4.83-7.68-4.06a9.17 9.17 0 0 0 -7.34 9.25c0 12.99-.41 26.13-.6 39.37zm281.65-195.47a11.19 11.19 0 0 0 .81 4.78c3.08 7.18 12.19 2.77 17.61 2 3.88-.57 7.92-1.94 11.63-1.34 4.89.8 9.88.37 14.75 1.87 4.33 1.33 7.18-2.25 5.82-6.61q-3-9.59-6.18-19.14c-5.35-16-8.3-32.27-15.29-47.79-1.79-4-3.75-8-4.29-12.34-.44-3.58.1-7.24-.48-10.81s-2.77-7.28-6.32-8l-2.16 14.84c-3.65 25.12-7.33 50.32-14.33 74.71a33.29 33.29 0 0 0 -1.57 7.83zm52.54-237.52c-.23 2.66 1 4.7 2.83 6.48 1.08 1.06 1.91.84 2.51-.58 12.54-29.85 9.43-69.59 4.25-100.88-1.35-8.14-3.46-16.12-5.57-24.09-4.75-17.93-9.68-38.31-18.74-54.61a81.71 81.71 0 0 0 -13.28-17.72c-1.21-1.22-3.13-2.45-4.46-1.36 5.12 8.56 7.58 17.22 9.55 26.78 2 9.72 6.51 18.22 9.33 27.67 3.4 11.35 5.1 23.12 6.16 34.89 1.09 12.09 1.32 24.22 2 36.33.67 11.71 4.27 23.21 4.3 34.93 0 3.16-.3 6.31-.34 9.47-.13 7.81 2.11 14.9 1.46 22.69zm-132.91-110.16c-.13-5.56-.22-11.05-.3-16.43-2.68 1-3.51 4.28-3.91 7.1-4.37 30.83-7.31 62.77-2.34 93.71 5 31.11 22.37 60.87 41.07 85.82 2.57 3.42 6 7.14 10.26 6.66-4.73-11.75-13.2-23.31-17.07-35a60.39 60.39 0 0 0 -5.76-12.68 15.39 15.39 0 0 1 -1.18-3.7c-.4-1.42-.73-2.87-1.15-4.28-.74-2.5-1.38-5-2.34-7.44-13.69-34.47-16.37-75.85-17.28-113.76zm214 1589.7a19.84 19.84 0 0 0 6.74-.87 23.71 23.71 0 0 0 7.08-4.64l6.89-5.8a17 17 0 0 0 3.94-4.18c3-5 .15-11.37-2.65-16.49a5.42 5.42 0 0 0 -2.26-2.59 5.12 5.12 0 0 0 -3.8.35 43 43 0 0 0 -7.13 3.53c-2.37 1.46-4.63 3.18-7.25 4.08a22.82 22.82 0 0 1 -7.22.93 91.83 91.83 0 0 1 -21.6-2.4c-2.78-.65-5.59-1.43-8.44-1.19-8.1.7-11.07 10.1-9.73 16.85a12.31 12.31 0 0 0 2 5.11c5.4 7.54 17.93 6.84 26.18 7l15.64.29zm-16.51-737.79c-6.69-1.58-13.81-5-9.78-13.52.87-1.84 3.64-5.42.13-6.57-1.47-.47-3.06.1-4.5.66-10 3.94-20.73 7.68-31.41 6.11-13.34-2-23.09-8.67-36.92-7-1.85.22-3.63 1.94-5.17 3.29s-1.44 3-.19 4.6c3.34 4.26 4.65 8.81 2.11 14a3.37 3.37 0 0 0 .08 2c2.23 9.44 19.27-3.3 24.77-3.62a42.53 42.53 0 0 1 6.67.25 104.16 104.16 0 0 1 14.46 2.53 18.1 18.1 0 0 0 6.29.87c3.88-.43 7.44-3.56 11.23-2.68 4 .94 5.84 5.8 9.55 7.58 4.88 2.36 10.38-1.42 14.47-5 .72-.63 1.52-1.57 1.07-2.42a2.19 2.19 0 0 0 -1.61-.88zm-45 77.86a7.68 7.68 0 0 0 3.92-.66 8.7 8.7 0 0 0 3.15-3.46 45.65 45.65 0 0 0 5.07-13.94c1.94-9.31 4.15-24.4-2.12-32.41-1.84-2.36-3.51-3.56-6.51-3.51s-5.79.64-8.77-.87a4.72 4.72 0 0 0 -6.08 1.7c-.7 1-2 1.66-3 2.52-2.27 2-4.56 4-6.73 6a2 2 0 0 0 -.29 1.88 2.41 2.41 0 0 0 1.83.77 5.28 5.28 0 0 0 2.13-.66c4.24-2 7 1.25 7.72 4.65.94 4.63-1.35 8.55-4 11.88-1.7 2.09-4.4 3.58-6.93 4.75-4.13 1.91-5.27 5-4.87 9.2.21 2.17 1 3.19 3.22 3.88 4 1.23 8.12 2.07 11.79 4.76a22.34 22.34 0 0 0 10.5 3.49zm339.24-433.91-3.82-37.62a16 16 0 0 0 -1.66-6.6c-1.18-2-3.54-3.41-5.74-2.79-3.38 1-3.89 5.48-3.71 9 1.73 35.46 3.81 71.17 5.93 106.68a4.75 4.75 0 0 0 .93 3.1c2 2.1 5.3-.68 6.56-3.29 6.8-14.19 5.36-30.78 3.76-46.44zm-435.16 1454.91 1.38-.05a5.73 5.73 0 0 0 3.43-1 4.93 4.93 0 0 0 1.39-2.45c1.64-5.7-.93-12.07-5.42-15.94s-10.57-5.49-16.49-5.63c-7.54-.18-25.82 5.47-16.73 16.09a17.67 17.67 0 0 0 7 4.45 62.66 62.66 0 0 0 25.44 4.53zm109.46-404.49a3.32 3.32 0 0 0 -.07-1.21c-.56-2.49-3.8-3.53-6.21-2.69-15.66 5.42-25.49 30.51-33.3 43.45-1.55 2.57-3.15 5.26-3.45 8.26s1.09 6.39 3.93 7.4a3.54 3.54 0 0 0 2.89-.12 5.25 5.25 0 0 0 1.67-1.83c8.43-12.77 17.55-22.55 24.12-36.59 1.85-4 3.75-8 6.74-11.18 1.56-1.63 3.45-3.42 3.68-5.49zm66.1-43.44a4.37 4.37 0 0 0 -.31-3.21c-1.09-1.8-3.84-1.89-5.61-.75-7.09 4.61-13.37 13.33-20.31 18.75-6.13 4.79-12.47 8.72-20 10.7-2.45.64-3.23 2.78-1.46 4.67 7.13 7.59 20.17 7.38 28.2 1.21 4.21-3.23 7.11-7.85 9.92-12.37 3.48-5.61 7-11.29 9.14-17.54a13.66 13.66 0 0 0 .43-1.46zm39.08 435.43a11.44 11.44 0 0 0 3.27-.62c1-.36 1.85-.94 2.82-1.29a28.13 28.13 0 0 1 5-.86c9.27-1.63 16.14-9.14 20.61-16.81.74-1.27.38-3.34.11-5-1.67-10.08-18.39.21-22.54 2.69s-8.31 5.39-12.33 8.3c-3.33 2.41-12.35 5.56-11.43 10.64a2.12 2.12 0 0 0 1.32 1.45c3.68.47 8.87 1.77 13.17 1.5zm-262.3 58.12a14.45 14.45 0 0 0 2.13-.93c11.45-5.84 23.18-16.59 29.7-27.67a5.74 5.74 0 0 0 -1.37-7.14c-2.16-1.59-4.19-.92-6.57 1.45-7.71 7.65-17.16 12.6-25.24 19.92-2.28 2.07-4.58 4.41-5.28 7.41s.89 6.74 3.93 7.24a5.78 5.78 0 0 0 2.7-.28zm111.15-76.48a46.82 46.82 0 0 0 .45 5.41 2.08 2.08 0 0 0 1.59 1.18c.44 0 1.25-.8 1.32-1.32.87-6.1 1-12.36 2.56-18.28 2.21-8.58 1.67-18.42 2.29-27.23 0-14.49 1.72-29.6 3.23-44 .33-3.16-.23-6.31 1-9.51.74-2 .28-4.51.06-6.77-.08-.73-1.3-2-1.68-1.92-.94.26-2.24 1.06-2.42 1.86-.41 1.82.26 3.95-.38 5.62-2.21 5.69-1.41 13.59-1.85 19.65-1.1 15.29-1.84 30.6-3 45.9-.39 5.23-.83 10.46-1.37 15.68-.46 4.08-2.08 9.64-1.8 13.73zm-12.66-3.58c.07 6.59.66 11.39 2.23 11.33 2-.08 1.26-2 1.31-3.14.16-3.59-.26-7.27.36-10.77 4.64-25.88 4.89-52.61 7.68-78.74.22-2 .81-4 .93-6a41.29 41.29 0 0 0 -.19-6.76 2.2 2.2 0 0 0 -1.59-1.38c-.58-.06-1.34.56-1.84 1.05a2.67 2.67 0 0 0 -.6 1.53c-2.13 18.73-4.58 37.42-6.23 56.2-.3 3.32-2.2 23.53-2.06 36.63zm-8.89-5.42v5.12c0 2.85-.08 5.7.12 8.54a2.65 2.65 0 0 0 1.57 1.95c1.66.31 1.6-1.12 1.62-2.25.09-3.74.75-7.49.92-11.15.35-7.71 1-15.4 1.31-23.1.86-20.71 1.4-41.5 2.22-62.15a3.1 3.1 0 0 0 -1.83-2.43c-1.45-.23-2.41 1-2.46 2.49-.21 6-.27 12-1 18-1.06 8.38 0 16.88-1.06 25.39-1.19 9.68.25 19.58-1.3 29.35-.56 3.29-.11 6.77-.11 10.24zm137-115.39a27.48 27.48 0 0 0 -.57-3.49 1.58 1.58 0 0 0 -1.26-.91 2.77 2.77 0 0 0 -1.77 1 4.89 4.89 0 0 0 -.41 2.17c-.41 4.5-.71 9-1.21 13.49-.66 5.77-1.63 11.51-2.18 17.29-.57 6-.81 12-1.19 18 0 .57 0 1.15-.08 1.71-2.1 16.72-3.49 33.51-5 50.29-.48 5.17.13 10 .61 15.19a41.41 41.41 0 0 0 1.39 6.56c.07.28.95.45 1.47.47.26 0 .78-.41.79-.65a56 56 0 0 0 0-5.65c-.2-2.61-.89-5.22-.81-7.82.93-30 6-59.66 8-89.53 0-.56.2-1.11.27-1.66.57-5.35 1.25-10.72 1.99-16.51zm-81.25-172.46a61 61 0 0 0 3.21 15.88c6.13-9.84 8.34-21.66 14.74-31.15a9.79 9.79 0 0 0 .82-2.67c.68-2.21.16-4-1.7-4.56-12.06-3.78-16.53 3.75-17.12 15.31a59.47 59.47 0 0 0 .09 7.14zm58.84 276.21c-.26 5.2-.36 10.61 1.31 15.15.26.71 1 1.23 1.52 1.84.4-.73 1.13-1.47 1.13-2.2 0-2.06-.32-4.11-.53-6.17-.74-7.14.95-14.82 1.45-22.09.65-9.47.5-19 1.22-28.44 1.61-20.86 1.61-41.94 2.38-62.8 0-.79-1.2-1.62-1.84-2.44-.65.82-1.8 1.6-1.85 2.45-.3 5.08-.55 10.14-1.06 15.22-.93 9.19.07 18.47-1.17 27.75-1.38 10.3-1 21.09-1.48 31.49q-.55 11.61-.76 23.25c0 2.16-.16 4.53-.28 6.94zm-.81-97.59c0-1.5.09-3 .17-4.5a2.87 2.87 0 0 0 -.3-1.79c-.66-.93-2.23-.65-2.94.24a5.5 5.5 0 0 0 -.87 3.25c-1 17.36-2.2 34.7-3.13 52.06-1.14 21.66-1.4 43.34-2.17 65 0 .48.81 1 1.24 1.48.46-.47 1.27-.92 1.3-1.42.17-2.84-.51-5.91.35-8.48 1.08-3.23.62-6.36.93-9.51s.9-6.3 1.09-9.46c.38-6.38-.3-12.76 1-19.18.86-4.19 0-8.71.2-13.07s.79-9 1.09-13.45c.36-5.44.17-10.85.92-16.33 1.17-8.26.94-16.61 1.16-24.89zm-19.61 101.41c0 4.56-.06 9.12.07 13.67 0 .61 1 1.19 1.53 1.78.38-.56 1.06-1.1 1.09-1.67.2-4.31.39-8.57 1-12.89.87-6.28.56-12.71 1.18-19.11 1.12-11.67.66-23.61 1-35.33.47-15 1.41-30 1.41-45a13.34 13.34 0 0 0 -.43-3.33 1.61 1.61 0 0 0 -1.26-.92 3.29 3.29 0 0 0 -1.79 1 2.37 2.37 0 0 0 -.38 1.6c.41 7.76-.68 15.45-1.14 23.16-.6 10 0 20-.92 30-1.17 12.56.19 25.31-1.35 37.94a72.69 72.69 0 0 0 .03 9.05zm-71.64-366.84c1.33 4.78 2.7 10 4.3 15.24.44 1.41 1.76 1.31 2.69.23a71.69 71.69 0 0 0 6.46-7.84c2.06-3.23 5.39-5.63 5.84-10 .28-2.66.34-5.21-1.45-6.88a40.56 40.56 0 0 0 -8-5.25c-.56-.32-1.82.13-2.53.59-4.77 3.02-5.88 8.17-7.27 13.86zm146.1 409.85-1.13-.13c-1.65-.19-3.64-.23-4.59 1.13s0 3.51 1.39 4.53 3.21 1.4 4.74 2.25a31.74 31.74 0 0 0 3.21 1.93c2.19.91 4.72.37 7 .87 3.73.81 6.3 4.1 9.4 6.32 4.24 3.06 18 7 17.23-2.29a2.67 2.67 0 0 0 -1-1.77 47.75 47.75 0 0 0 -18-6.8 27.59 27.59 0 0 1 -10.46-3.68c-2.5-1.77-4.83-2.08-7.75-2.41zm-84-306.57a21.39 21.39 0 0 0 1.89 10.22c2 3.92 6.56 6.87 10.81 5.67 10.85-3.07-1.24-28.39-9-25.88-2.74.89-3.47 4.38-3.64 7.26.03.85-.01 1.77-.02 2.68zm34.92-21.09c2.6-.73 4.49-2.63 4.65-6.36.16-3.56-16.5-6.2-19.09-6.83a3.48 3.48 0 0 0 -1.5-.12c-1.08.24-1.63 1.46-1.75 2.56-.43 3.89 2.56 7.5 6.15 9.08s8.2 2.56 11.58 1.62zm-259-579.94c.13-3.35-2.93-7-5.87-7-3.65 0-7.73 3.57-7.71 6.81s4.16 6.85 7.75 6.78c2.73-.18 5.74-3.53 5.86-6.64z"></path><path d="m754.51 1652.87c-.67 6.6-3.87 12.77-8.15 17.84-5.62 6.67-13.87 11.85-22.57 11.22a15.84 15.84 0 0 1 -9.35-3.68 18.65 18.65 0 0 1 -4.47-6.61c-3-6.89-3.33-15.54 1.36-21.42a30.76 30.76 0 0 1 5.7-5.09l8.57-6.46c2.95-2.22 6-4.49 9.48-5.7 12.92-4.49 20.56 8.68 19.43 19.9zm-15 3.57a7 7 0 0 0 -6.87-6.82 7.11 7.11 0 0 0 -6.73 6.43c-.2 3.34 3.21 7.13 6.64 7.12s6.53-2.53 6.92-6.73z"></path><path d="m925 1370c10.91-.33 20.73 5.86 19 20.55-1.28 10.69-11.25 17.85-20.33 23.65-2 1.31-4.21 2.66-6.64 2.8a11.14 11.14 0 0 1 -5.14-1.16 24.32 24.32 0 0 1 -14-20.8 19.74 19.74 0 0 1 1.17-7.81 26.18 26.18 0 0 1 5.57-8.3 29.6 29.6 0 0 1 20.37-8.93zm-4 28.36c4.72.07 6.9-1.87 6.8-6a6.47 6.47 0 0 0 -6.49-6.41c-3.63 0-7.18 3.29-7.09 6.61.15 3.44 2.78 5.72 6.84 5.78z"></path><path d="m832.2 1487.53c-1.44-5 2-8.45 3-12.51 1.11-4.33 4.18-7 7.08-10a9.05 9.05 0 0 1 7.11-2.82c2.84.11 5.7.17 8.53 0 7-.44 12.28 2.8 17 7.54 1.71 1.72 2.24 3.73 1.29 5.68-1.9 3.9-2.12 8-1.92 12.12a5.53 5.53 0 0 1 -1.76 4.56c-1.19 1.16-2 2.68-3.11 4s-1.91 2.77-3.17 3.16c-2.9.89-5.58 1.69-7 4.73-.24.5-1.7.54-2.6.59-3 .15-5.9.07-8.91 1a10.88 10.88 0 0 1 -8.74-1.12c-1.63-1-3.45-2.75-3.89-4.49-1.11-4.25-4.84-7.89-2.91-12.44zm18.57 2.13c3.13-.11 6.26-3.48 6.3-6.77a7 7 0 0 0 -6.8-6.81c-3.53 0-7 3.59-6.77 6.86s4.22 6.83 7.27 6.72z"></path><path d="m815.48 1555.3c.48 7.64-1.85 16.37-6.26 22.07-5.23 6.75-13.6 10.6-22.08 11.59a7.46 7.46 0 0 1 -3.55-.21 7 7 0 0 1 -2.89-2.47c-6.76-8.9-6-21.86-.74-31.74 2.86-5.4 7.1-10.29 12.69-12.74 15.29-6.69 22.12 2.2 22.83 13.5zm-20.1 14.28a6.94 6.94 0 0 0 6.85-6.8c.19-3.59-3.25-6.87-6.83-6.78-3.3.08-6.65 3.27-6.72 6.4s3.49 7.09 6.7 7.18z"></path><path d="m686.24 1723.94c-.73 2-1.48 4.7-2.62 7.2-2.59 5.64-9.09 15.22-14.61 18a31.28 31.28 0 0 1 -10.55 2.75 18 18 0 0 1 -7.84-.26c-3.87-1.27-6.59-4.92-7.82-8.81s-1.19-8-1.15-12.13a15.14 15.14 0 0 1 .9-6.07c1-2.25 3-3.86 5-5.37l6.7-5.2a24.22 24.22 0 0 1 4.43-2.95 16.63 16.63 0 0 1 6.79-1.41c6.74-.1 16.5 3.11 19.91 9.58.56 1.15.49 2.59.86 4.67zm-22.91-.12a7 7 0 0 0 -7.07 6.62 6.82 6.82 0 0 0 6.78 6.93c3.7-.2 6.14-2.31 6.74-6.34.51-3.4-2.89-7.03-6.45-7.21z"></path><path d="m955.69 1309.61c.85-15.78 27.7-31.76 38.09-14.93 1.28 2.06 1.62 4.55 1.93 7 1 8.07 1.53 17.51-4.47 23-3.44 3.15-8.27 4.2-12.89 4.84a26.88 26.88 0 0 1 -8.25.18c-8.59-1.49-14.42-10.55-14.43-19.27 0-.31.01-.57.02-.82zm20.29 7.63c3 .22 6.34-3 6.67-6.42a6.57 6.57 0 0 0 -6.28-7.14c-3.59-.14-7.21 3-7.29 6.42-.08 2.9 3.79 6.9 6.92 7.14z"></path><path d="m1208.71 773.35c-4.89.7-8-2.31-10.46-5.67a10.06 10.06 0 0 0 -5-4c-3.11-1.11-5.8-4.87-9.06-5.32-3.93-.53-9.18 2.62-13 3.76a141 141 0 0 1 -27.59 5.45c-18.94 1.76-38.48-.74-55.57-9.44-13.29-6.76-24.88-17-39.1-21.5-20-6.31-37.34 3.33-56.71 2.31-3.79-.19-5.68-5.47-3.41-8.78s4.71-6.33 7.16-9.41c1.55-2 3.09-3.78 2.35-6.58a4.74 4.74 0 0 1 .42-2.52c1.33-3.64 4.71-8.84 4.73-12.74 0-4.63-4.1-10.44-4.86-15.29-.49-3.15-.19-7.15 2.73-8.41 3.1-1.33 6.22 1.52 8.87 3.61s7.53 3 8.56-.25c.48-1.49-.28-3.07-.86-4.53a21.07 21.07 0 0 1 -1.23-10.72c.25-1.65.82-3.45 2.28-4.25 2.86-1.56 5.81 1.71 7.94 4.18s7.09 3.84 7.85.67c.32-1.34-.5-2.66-1.08-3.91-3-6.37.8-15 7.52-17a15.64 15.64 0 0 0 10.53 10.69c.56-3.65-2.21-6.86-3.56-10.3s.33-8.85 4-8.17c4.16.79 3.48 8.06 7.38 9.72 2.87-2.3 1.35-6.81.07-10.25s-1-8.73 2.6-9.16c3-.35 4.8 3.08 6.21 5.74s4.91 5.31 7 3.18c1.77-5.24-7.63-10.89-3.92-15 2.66-2.94 7.25.69 9.42 4 .6-2.68 1.26-5.48 3.06-7.55s5.12-3.12 7.35-1.52c1.79 1.28 2.28 3.69 3.38 5.6s3.89 3.39 5.38 1.76c-2.32-4.66-3.68-12 1.24-13.63 5.08-1.73 8.38 5.29 9.13 10.6a44.71 44.71 0 0 1 8.85-18.93c3.36 1.85 3.41 6.53 3.57 10.36s2.1 8.68 5.93 8.39c4-.29 5-5.62 5.61-9.6s4.59-8.78 7.72-6.24c.7 3.5-.56 7.08-.64 10.65s1.91 7.81 5.47 7.93c4 .13 6-4.62 7.43-8.36s5.34-7.89 8.71-5.73c5.51 3.54-4.29 13.17-.11 18.22 2.36 2.85 7.18 1.3 9.67-1.44s4-6.41 7.12-8.45 8.64-.71 8.46 3a43.62 43.62 0 0 0 -8.36 11.83c-.76 1.59-1.43 3.41-.85 5.07 1.45 4.21 7.88 2.5 11.22-.43s8.08-6.56 11.6-3.84c2.91 2.23 1.84 7.09-.78 9.65s-6.25 3.81-9.14 6.08c-1.43 1.12-2.77 2.89-2.2 4.62 1 2.88 5.24 2 7.9.54l10.81-5.9c3.6 1.9 3.47 7.51.8 10.58s-6.82 4.3-10.72 5.49a5.22 5.22 0 0 0 -3 1.74c-1.58 2.34 1.46 5.35 4.29 5.49s5.61-1.15 8.41-.78 5.33 4 3.22 5.92c-4.71.15-7.75 5.65-7.12 10.32 1.43 10.49 7.76 19.86 9.4 30.57 2.19 14.34 2.11 29.25 2.61 43.73.29 8.42.43 12.7-7.63 14.15zm-32.16-88.67a24.79 24.79 0 0 0 .1-3.66c-1.18-23-23.73-47.68-46.43-49.8a43 43 0 0 0 -12.67.3 52 52 0 0 0 -11.21 4.2c-6.07 2.82-12.24 5.71-17.25 10.16-22.89 20.39-17.2 77.36 12.22 90.21a25.07 25.07 0 0 1 6.19 3.85c8.38 7.19 32.83.48 40.67-5.42 4.56-3.43 7.87-8.24 10.93-13.06q6.18-9.71 11.47-19.93c2.75-5.32 5.37-10.97 5.98-16.85zm-115.27-14.47h.11c0-2.47.16-5-.05-7.41a2.31 2.31 0 0 0 -3.65-2c-2 1.09-3.54 3.06-5.58 3.77-16.73 5.8-31.47 35.1-39.24 49.74-.55 1-1 2.45-.2 3.27a2.79 2.79 0 0 0 2.24.43c12.62-1.15 23.29-2.21 35.69.5a38.25 38.25 0 0 1 6.13 2.53c1.66.77 3.18 1.9 4.89 2.51 3.07 1.1 4.9-.37 4.33-3.48-.54-2.92-1.46-5.78-2.16-8.67-.78-3.25-1.52-6.51-2.25-9.78-.44-2-1.19-4-1.16-6 .17-8.45.62-16.93.9-25.41zm125.54 73.38h7.39c4.55-.09 6.49-2 6.54-6.56a139.81 139.81 0 0 0 -.91-15.15c-.54-5.52-1.24-10.72-4.51-15.31a8.26 8.26 0 0 0 -1.64-1.7c-8.6 9.33-10.94 23.48-19.33 33.29-1.28 1.5-1 2.91.49 3.86a9.45 9.45 0 0 0 4 1.52c2.65.22 5.32.05 7.97.05z"></path><path d="m1449.62 605.88c2.18-.27 4.63-2.67 5.78-5 1.64-3.26 4.92-7.32 8-5.38 2.22 1.39 1.88 4.64 1.73 7.26s1.21 6.12 3.8 5.67l4.65-8.83a6.31 6.31 0 0 1 2.15-2.72c2.52-1.46 5.67 1.25 6.21 4.11s-.42 5.78-.33 8.69 2 6.26 4.87 6.1c.38-3.57 2.07-8.22 5.64-7.81s4.1 5.73 2.92 9.26-2.69 8 .1 10.49c1.71-2 3.54-4.1 6-4.92s5.82.29 6.41 2.85c.79 3.4-3.33 6-3.95 9.42-.37 2 .54 4 1.43 5.9 6.26 13.09 13.39 26 18.51 39.64a21.59 21.59 0 0 1 -1.33 18.6c-.82 1.45-1.91 2.39-3.64 2.17-16.62-2-34.91 10.92-49.61 17.53-7.65 3.44-15.34 6.9-23.38 9.3-29.22 8.74-62.08 4.52-89.43 20-5.67 3.22-10.13.92-11.48-5.32a170.77 170.77 0 0 1 -2-62.28c.59-3.67 7-8.5 2.29-12.09-1.88-1.43-4.5-2-5.73-4-1.95-3.14 1.35-7.39 5-7.81s7.12 1.61 10.25 3.56c1.74-2-.41-5-2.67-6.3s-5.14-2.71-5.27-5.33c-.13-2.37 2.42-4.2 4.8-4.16s4.51 1.41 6.41 2.83c1.08.8 2.38 1.69 3.65 1.27 2.42-.79 1.21-4.7-1-5.89s-5.19-1.43-6.65-3.52c-2.36-3.37 2-8.11 6.12-7.68s7.17 3.79 9.84 6.93l5.7-5.89c-4.46-2.12-9.22-4.53-11.45-8.93s0-11.19 4.93-11.47c4.26-.24 7.12 4 10.17 7s9.44 4.11 10.57 0c.43-1.55-.2-3.18-.89-4.63-1.83-3.86-4.21-7.72-4.11-12s4.22-8.74 8.22-7.22c5.49 2.08 6.42 13 12 11.21 6.27-2-1.48-13.75 3.68-17.84a13.47 13.47 0 0 1 7.23 10.19c.24 1.95.27 4.34 2 5.27 2.73 1.48 5.17-2.59 5.15-5.7s-.23-7.12 2.65-8.29c2.35-1.05 4.93 1.3 5.71 3.76s.62 5.19 1.75 7.5 4.58 3.82 6.25 1.86c-.9-2.67-1.81-5.54-1.08-8.26s3.87-5 6.4-3.71c4.32 2.15.74 9 2.41 13.52a2.71 2.71 0 0 0 2.62 1.09zm-15.46 106.61c6.42-.32 12.58-1.48 17.45-5.24 4.43-3.43 7.74-8 10.93-12.65 5-7.2 9.94-14.56 13.29-22.68 4.38-10.62 6.65-26.36 1.23-37.08-4.49-8.88-13.12-15.6-22.54-18.55-13.31-4.16-28-1.77-40.81 3.63-10 4.22-19.57 10.54-25.13 19.88-6.95 11.69-6.66 26.31-4.16 39.68 1.28 6.87 3.14 13.76 6.87 19.67 4.4 7 14.35 14.46 23.1 13.66 6.08-.55 13.06.02 19.77-.32zm-66.23 14a27.32 27.32 0 0 1 5.12 0c4 .76 6.4-1.43 8.75-4.08a2.71 2.71 0 0 0 .43-3.57 35.44 35.44 0 0 0 -6.83-9 10.37 10.37 0 0 1 -2.71-4.05c-2.45-7.18-4.44-14.46-3.51-22.18a4.83 4.83 0 0 0 0-1.14c-.27-3-2.57-4.52-4.76-6-1.05-.69-6.17 1.53-6.9 3-1.78 3.66-3.85 7.32-4.14 11.45a88 88 0 0 0 3.45 32.46 4 4 0 0 0 4.27 3c2.27.03 4.55.09 6.83.09zm138.46-44.4c-.3-1.08-.49-2.2-.89-3.24-2.11-5.42-4-10.93-6.54-16.17-1-2.11-3.22-3.68-5-5.34a1.4 1.4 0 0 0 -2.37 1.15c-.38 14.69-2 27.27-12 39 3.67-4.24 18.13-8.74 23.6-10.59a4.2 4.2 0 0 0 3.2-4.83z"></path><path d="m1287.42 731.55c-.5 6.77-.93 13.54-1.55 20.29a53.83 53.83 0 0 1 -1.37 6 25.66 25.66 0 0 0 -.81 5 25.14 25.14 0 0 1 -1.59 8.22c-1.17 3.33-1.53 7-3.5 10-8.33 13-21.87 21.83-35.64 28.18s-29.88 7.5-42.79 14.27c-.21.11 0 1.76.26 1.88 1.54.57 3.33 1.51 4.76 1.18 11.21-2.64 21.93 2.28 33.09 1.93 13.51-.42 27-2.2 40.35-3.87l57-7.13c13.35-1.67 27.16-3.5 38.64-10.51-1.75 1.23-42.63-25.3-46.22-27.33a52.25 52.25 0 0 1 -17.42-16c-5.62-7.92-9.52-16.32-6-26.35a12.36 12.36 0 0 1 1-2.6c1.9-2.86 3.56-2.92 5.54 0a20.17 20.17 0 0 1 3.06 6.07c1.43 5.56 4.93 9.65 8.72 13.64 1.56 1.63 2.78 3.6 4.4 5.17a36.1 36.1 0 0 0 6.48 5.39c8.63 5.07 17.37 10 26.12 14.81a156.82 156.82 0 0 0 31.85 13.21c6.64 2.06 13.52 7.16 13.27 14.11-.23 6.36-6.42 10.92-12.51 12.78-17.33 5.27-35.91 9.86-53.92 12-50.62 6-104.55 14.54-155.3 5.82-5.4-.91-12.23-3.83-11.53-9.27a9.48 9.48 0 0 1 2.19-4.44c10-12.77 27.21-16.56 42.49-21.89 20-7 42.09-16.73 51.67-36.53 3.2-6.62 5.48-13.66 5.66-21.13s0-14.83.08-22.24a9.53 9.53 0 0 1 1.12-4.8c1.35-2.07 3.85-4.17 6.08-3.15 2.76 1.25 5.63 3.49 5.9 7.09.26 3.37.06 6.77.06 10.16z"></path><path d="m1475.16 832.82a9.2 9.2 0 0 1 -.94 3.51c-1.86 3.7-5.53 6.08-9 8.29l-34.76 21.91c-5.53 3.49-11.14 7-17.4 8.9-13.34 4-26.52 7.34-39.87 11.56a403.93 403.93 0 0 1 -57.4 13.66c-39 6.34-81.23 5.25-120.46 1.05a126.09 126.09 0 0 1 -25.18-4.8c-7.85-2.51-15.94-3.16-23.9-5.49a122.33 122.33 0 0 1 -36-17.33c-2.49-1.75-5.14-5.11-3.16-7.43 1-1.21 2.85-1.31 4.45-1.24 12.6.6 23.87 6.66 35.47 10.94 13 4.79 28.2 5.88 41.79 8.71a245.84 245.84 0 0 0 49.8 5.11 350.34 350.34 0 0 0 37.33-2.28c64.42-6.9 131.32-19.23 184.36-58.8 3.3-2.46 7.45-5.14 11.22-3.5 2.64 1.18 3.84 4.23 3.65 7.23z"></path><path d="m1112.23 678.37c0-.71 0-1.42.11-2.13a30.82 30.82 0 0 1 9.93-19.94 15.25 15.25 0 0 1 4.6-3 15.71 15.71 0 0 1 6.43-.79 35.45 35.45 0 0 1 17.24 5.47c2.37 1.52 4.64 3.42 5.76 6s1 5.34.81 8.06c-.28 5.21-.56 10.47-2 15.48-3 10.6-12.67 18-24 14.21-4.63-1.53-8.59-4.63-12-8.13a24.41 24.41 0 0 1 -5.94-8.88 19.07 19.07 0 0 1 -.94-6.35z"></path><path d="m1438.63 631.19.85.08c9.43 1.09 17.51 9.1 19.11 18.46 2 11.87-5.87 24-17.46 27-2.13.56-4.79 1.22-6.61.44-9.75-4.22-15.79-6.72-17.44-18.41-.62-4.39-.85-9 .39-13.21 2.6-8.85 11.98-14.99 21.16-14.36z"></path></g></svg> 