<?xml version="1.0" encoding="UTF-8"?> <svg xmlns="http://www.w3.org/2000/svg" viewBox="0 0 2400 2400"><g fill-rule="evenodd"><path d="m1071 1713.91c2.13-.71 28.75-7.1 32.65-8.87s19.16-13.49 19.16-13.49l28.75 21.29 30.52 33.72s24.84 29.45 25.9 29.81 11 42.58 11 42.58l-4.25 58.56-16.73 71.33-23.07 66 .35 9.94s16 8.52 17.39 8.52 50.75-1.78 50.75-1.78l96.17-7.8 33-1.42 41.52-7.1 8.16-11.71-6.74-13.13-2.13-16.68-22.72-11-14.55-11-29.1-1.78-71 8.87 19.16-38 15.62-85.17s8.51-63.17 8.51-64.59-8.16-62.1-8.16-62.1l-28-63.17-34.07-44.71-15.62-16.33 18.1-35.84 27.68-55 33.72-73.46 106.46-18.1 77.72-14.9 31.94 2.13 35.48 10.65 41.17 8.87 31.94 5 34.78-5.68 7.1-30.52-22.72-65.65-63.17-24.49-33.67-14.92-26.26-.71-22.71 1.78-20.23 10.29-41.88 13.49-42.23 3.9-52.87-1.78 17.39-102.2 7.8-78.43 8.88-113.56 7.45-66.36 17-56.78 31.23-42.94 28.43-11.71 35.13 2.13 35.14 15.26s53.23 25.9 55 27 23.07 21.64 23.07 21.64 54.66 30.19 56.04 30.85 45.07 17 45.07 17l23.78 5.68 36.9 4.26 25.91-3.55s10.65-7.81 10.29-9.58-11.35-16-11.35-16l-20.59-14.2-31.23-29.1-39-35.48-25.91-39.39-14.25-52.82-10.3-44.72-29.45-73.46 27.33-3.54 42.58-4.26s24.84-11.71 25.55-12.78 21.65-33 21.65-33l50-78.78 45.42-63.17-7.1-4.26-15.26 4.26-63.87 12.77-55.72.36-29.81 1.77-30.16 13.84-25.2 8.87 1.77-8.16 9.94-22.71 5-28.39 8.87-76.65-7.1-5.33-11.71 6-34.42 19.51-40.01 23.11-26.26 24.49s-48.27 53.94-49.33 54.29-25.2 30.52-25.2 30.52l-18.1 33s-11.71 37.26-11.71 38.68-6.74 36.2-6.74 36.2l-9.23 16s-37.26 62.81-37.26 64.23-41.52 82-41.52 82-32.29 50-31.94 51.45-48.62 66.36-50 66.36-67.78 74.53-67.78 74.53l-65.65 55-57.49 46.85-64.59 63.52-59.26 72.75-50.75 69.56-30.16 60-24.14 92.27-6.74 64.23.36 64.59s1.06 52.52 2.84 57.49 15.61 67.07 15.61 67.07l-4.26 52.88-13.48 66-22.72 50.39-40.5 47.14-66.72 49.33-82 34.77-79.49 19.52-104.69 14.55-117.82 15.26-91.56-2.13h-61.41l-13.48 4.26-7.1 4.62 20.23 5.32s63.52 5 64.58 5 107.89 1.42 109 1.77 118.89-9.58 118.89-9.58l109.3-11.71s67.07-16.33 69.2-16.68 78.78-27.68 78.78-27.68l68.14-45.07 42.94-44.72 38-58.91 16-44 14.9-53.23 2.49-61.75 5-1.07s20.58 19.88 22.71 20.23 39 50 38 49.69 25.55 36.55 25.55 36.55l8.87 39-6.38 51.82-13.13 56.07-19.88 50-4.61 16.32 5.68 6.74 49 .36 75.94-3.55 47.56-.36 21.29-9.58.36-8.87-8.88-6-5-11.36-13.85-5.68-7.09-8.51-18.46-5-38.68.35 19.17-31.94 19.16-55 6.39-58.91-11-41.52z" fill="#fff"></path><path d="m1878.48 1701.84s-2.13-12.77-2.66-17.57.53-33.53.53-33.53l-20.22-5.86-6.92 8.52-6.92 30.87s3.72 36.73 2.13 37.8-11.72 4.79-11.72 4.79l-15.43 24s-10.12 24-11.71 24-5.86 29.28-5.86 29.28l2.13 29.27 9.58 34.6s11.71 33.54 12.25 35.67 5.85 26.62 5.85 26.62h18.63l9.58-23.43 3.2 26.62s19.69 12.77 20.23 11.18 9-21.83 9-21.83l13.85-29.81 70.79 21.3-1.59 24 34.06 18.1 17-5.86 8.52-37.79 16-32.47 13.84-30.88 39.92 20.23 35.13 7.45s20.76-3.19 22.36-3.72 36.2-16 36.2-16l21.29-24.49 19.16-30.34s8-11.18 8.52-12.78-1.6-18.1-1.6-18.1l-18.63-2.12s-12.24-15.44-12.24-17-16-37.79-16-37.79l-22.36-27.68 7.45-18.1-9.58-5.86-30.34-4.26-27.68 2.67-18.1 1.06-22.89 9-36.73 29.28-31.94-11.18-38.32-5.33-54.3 5.33z" fill="#fef065"></path><path d="m1908.12 1370.39 33.71-38-7.81-9.93-63.17-20.94-119.23-9.52-114.28-.71-76.65 7.81s-24.13 7.8-23.78 8.87a36.26 36.26 0 0 1 .36 5.68l45.42 6.38 42.94 9.58 2.84 5.33-3.9 6.74-38.68 1.77-27 1.78s1.77 6 3.19 6.74 29.1 9.23 29.1 9.23l61.75 17.39s15.26 2.48 16.32 3.19 7.1 23.07 7.1 23.07 38.68 2.48 42.59 2.84 84.81-1.78 87.65-2.84 46.85-9.94 46.85-9.94z" fill="#fef065"></path><g fill="#0e5256"><path d="m1636.47 664.17c-24.65-2-44.31 9.83-57.28 25.21-5.52 6.55-7.64 14.65-12.6 20.62-14.67-8.09 5-29.23 11.46-35.52 12.11-11.8 33.43-24.19 49.25-20.61 3.81.86 10.3 2.76 9.17 10.3z"></path><path d="m1881.61 1695.14c31.42-9.83 75-21.37 114.55-13.74 14.2 2.74 27.37 10 40.1 12.6 19.93-16 37.67-34.09 68.72-37.81 8.55-1 18.07 1.8 27.5 0 5.57-1.06 11.09-6.14 17.18-9.16 16.73-8.29 40.5-16.14 60.71-16 4.2 10.15-3.7 16.47-9.16 20.61-5.13 12.44-13.71 21.42-20.62 32.08 3.16 7 8.49 12.21 12.6 18.33 11.94 17.75 22.39 38.49 30.93 60.71 14.57 1.84 24.92 6.93 41.24 12.6 9.43 3.27 22.89 6.44 22.91 13.75 0 8.2-26 15.81-36.66 18.33-3.93.92-7.93.21-11.45 1.14-11.74 14.85-17.78 34-32.08 45.82-7.56 6.23-17.46 10-26.35 14.89s-17.68 10.92-28.63 12.6c4.51 15.3 18.13 32.57 13.74 49.26-7.38 1.28-4-8.25-6.87-11.46-3.94-14-9.58-26.3-17.18-36.65a58.09 58.09 0 0 1 -16-1.15c3.7 16.48 20.61 35.69 11.45 53.84-6-3-3.38-11-4.58-16-2-8.36-6.58-18.48-10.3-26.34-3.88-8.19-8.56-18.23-18.34-18.33.68 13.13-.91 30.18-2.28 44.67-.68 7.1.42 14.67-3.44 19.48-6.67-.94-3.78-9.69-3.44-14.89.91-14 4.93-35.38 0-50.4-10.65-5.77-21.87-11-29.78-19.48-15 30.81-35.39 56.25-36.66 100.81 5.36 4.75 12.83-.47 20.62 0 4.33 1.39 4.92 6.53 8 9.16-6 10.69-31.32 28.77-48.11 25.2-8.18-1.73-8.24-8.75-13.75-14.89-8.35.55-16.43 5.78-25.2 2.29-6.8-16.34-2.61-37.84-2.29-57.28-18.89-8.6-40.45-14.53-61.86-20.61-4.12 10.18-11.7 20-14.89 30.92-2.62 9-4.3 25.11-1.15 34.37 1.93 5.65 11.86 9.33 12.61 14.89.38 2.92-3.29 7.16-2.3 10.31-10.12 4.79-21.09 8.08-35.51 5.73-3.5-6.43-7.21-12.64-8-21.76-11.2.46-19.89 7.52-32.07 3.43-5.52-10-2.38-29.94-3.44-47-2.35-37.92-23-65.27-25.2-107.67-2.27-43 11.58-71.68 32.07-98.52 2.1-1.73 6.43-1.22 8-3.44-3.78-67 32-125.29 40.09-187.86 1.29-9.94 1.82-20.7 2.29-30.93.8-17.7-.38-35.49 0-53.84a5.73 5.73 0 0 1 3.43-3.43c17.91.76 17.54 18.64 19.48 36.65 2.31 21.5.94 49.4-2.29 74.46-5.39 41.63-25.84 92.81-18.34 139.71zm-26.35-41.24c-2.84 15.2-9.29 34.53-9.16 52.7.07 9.35 6 17.78 2.29 25.2-4.85 4-5.84-3.49-10.31-3.44-19.7 25.47-35 55.65-32.07 98.52 2.37 34.86 20.47 60.63 24 91.64 4.88 1.23 8.53 3.69 14.89 3.44.39-10.31 2.35-19 8-24.06-1.52-9.6-4.69-19.65-8-29.78-2.78-8.47-10.61-20.65-2.29-26.35 10.28 8 12.32 23.18 16 36.66 3.8 13.78 7.16 29.24 6.87 45.82 4.87 3.15 5.5 10.54 13.75 10.31 7.22-20.35 20.21-38.45 22.91-63 .44-4-2.06-11.39 2.29-14.89h4.58c7.21 7.13 1.84 24.48 0 33.22 30.41 3.31 48.7 19.13 79 19.47.08-7.71-6.6-8.67-5.73-17.18 1.7-.59 2.89-1.69 4.59-2.29 15.18 9.26 13.62 35.26 20.62 52.69 4.56 2.53 7.79-.73 13.74 0 2.61-14.72 2.48-26 8-40.09 3.46-8.79 11.34-17.16 16-26.35 3.5-6.84 12.54-25.82 11.45-32.07-.76-4.41-6.15-7.47-9.16-11.46-5.68-7.51-9.43-15.53-13.75-24-9-1.23-16.89-.66-24-1.14-3.75-.26-9.4 1.66-10.31-3.44 8.89-6.26 27.18 2.44 33.22-4.59-1-5.89-7.92-2.91-12.6-3.43-5.41-.6-11.26-2.26-17.18-2.29-11.32-.06-27.39 6.21-30.94-2.29 15.43-9.93 44.56-.49 57.28-2.29.19-6.69-2-11-1.15-18.33-7.78-5.12-18.82-8-29.78-10.31-8.73-1.81-33.11-2.31-33.22-10.31 8.82-4.69 19.93 1.56 29.78 3.43 12.29 2.34 24.38 4.27 34.37 8 4.47-1.26 5.87-10.4 11.46-6.87 3.53 3.24-1.2 7.91 0 12.6 5.26 2.17 10.73 4.27 16 6.88 4.71 2.3 10.68 5 13.75 9.16-1.15 1.52-1.08 4.26-3.44 4.58-10.61-3.14-17.49-10-28.64-12.6a35.79 35.79 0 0 0 2.3 13.75 129.87 129.87 0 0 0 14.89 3.43c5.08.91 13.37-.88 14.89 4.58-3.79 12.65-22.07-4-27.49 3.44 4.47 5.84 21.8-1.18 21.76 9.16-2.82 5-13.24 1.16-18.32 1.15 11.36 19.57 24.48 37.37 44.67 48.11 1.58-1.84-1.33-9 5.73-8 4.3 3 .91 13.59 9.16 12.59 3.83.38-.6-6.34 5.73-5.72 8.32 3.51 8.24 15.43 21.76 13.74-2.42-8-18.1-18.81-6.87-26.34 6 8.88 11.36 18.43 18.33 26.34 9.68-1.93 19.85-3.7 28.64-8a222.72 222.72 0 0 0 24.05-13.74c8.58-6 12.22-15.41 18.33-24.06 4.82-6.81 12.31-12.65 11.46-21.76 2.33-.34 2.24-3.1 4.58-3.44.47-2.76-2.09-2.49-1.15-5.73 2.59-1.61 3.77-4.63 6.88-5.72-2.34-4.12-4.77-7.71-2.29-13.75-5.79-.7-10.87-2.11-17.19-2.29-10.3-20.79-20.2-46.75-34.36-66.44-7.76-10.79-21.59-19.75-10.31-33.22-4.9.32-5.84-3.33-8-5.73-9.61 1.68-14.73-1.14-22.91-4.58-2.42 1-3.39 3.49-6.87 3.43-33.37-2-50 3.46-68.74 16-10.88 7.32-22.69 16.61-28.64 25.21-3 4.34-1.54 12.58-9.16 12.59-5.57-3.39.07-12 0-17.18-31.9-15.94-75.18-15.1-113.4-6.87-21.76 4.68-36.24 11.47-49.26 18.33-.6-1.7-1.7-2.89-2.29-4.59.07-6 6.14-6.07 6.87-11.45-4.43-10.17-1.75-27.92-1.14-40.09-6.11-5.32-5.61-9.07-14.75-4.62zm134 264.62c-1.22 2.6-7.2.44-10.31 1.14-2.13 2.47-.77 8.39-1.15 12.61 7.23.41 10.84 4.44 16 6.87 1.94-6 .82-18.09-4.51-20.62zm-132.88 26.35c-1.7-3.65 0-10.69-2.29-13.75.18 4.5-5.83 14.77 2.32 13.75z"></path><path d="m2127.9 1705.45c.75 4.59 2.83 7.86 4.58 11.46-4.09 3.92-3.83 12.21-11.46 12.6 4.44 8.16 12.86 12.34 13.75 24-1.53 1.15-3.46 1.89-4.58 3.44-8.6-2.47-10.55-11.6-17.18-16-5.25 6.77-11.89 15.83-20.62 14.89-11.74-1.27-15-19.92-10.32-33.22 13.93-6.7 24.07-22.02 45.83-17.17z"></path><path d="m2124.46 1824.59c-4.95 3.53-6.44-5.56-9.17-5.73-3-.19-11.16 9.17-19.47 10.31-8.61 1.18-16.6.37-21.76-8 8.81-8.78 31.61.37 34.36-16-2.16-3.19-4.62 2.92-9.16 1.15-10.32-9.68-13.23-34.52 11.45-29.79 16.19 3.05 31.75 36.55 13.75 48.06z"></path><path d="m2188.61 1802.82c-.76 6.76 4.21 6 5.73 12.6-1.12 0-.89 1.41-1.15 2.3-6.56 3.72-12.75-4.65-17.18 2.28 2.82 7.88 1.79 19.6 6.87 25.21-1.13 2.69-4.92 2.71-6.87 4.58-5-.73-6.6-5.24-11.46-8-2.28-1.31-4.32-.11-6.87-1.14-11.56-4.68-11.42-15.33-4.58-26.35 6.34-10.3 16.65-16.25 35.51-11.48z"></path><path d="m1645.63 321.66h5.73c3.7 8.55.63 18.91 0 28.64a294.78 294.78 0 0 1 -3.44 29.79c-5.46 32.92-3.76 66.08-19.47 87.06 11.13-1.25 21.52-12.37 33.22-16 33.83-10.61 83.4-1.56 123.71-9.16 14.12-2.67 27.93-6.66 40.1-10.32 12.78-3.84 25-12.63 37.8-8 1 10.86-9.62 17.14-14.89 25.2-15.94 24.34-34.59 47-51.55 73.31-15.47 24-31.82 50.84-49.26 75.6-5.71 8.13-11.73 17.63-18.33 22.92-20.09 16.1-56.86 12-87.06 14.89 11.13 30.82 22.62 51.4 29.79 82.47 3.19 13.84 7.54 28.74 11.46 44.68 3.3 13.44 6.18 28.78 12.59 42.38 9.09 19.27 28.48 38.13 45.82 56.13 17.89 18.57 35.36 37.29 52.7 49.26 6.68 4.61 36.4 15.5 36.66 26.35.43 18.24-35.49 17.2-48.11 21.76-5.26 6 4.64 16.5-1.15 19.48-7.45-1.33-4.94-12.63-6.87-19.48-7.26.39-11.62-2.13-18.33-2.29-6.5 9.17 4.27 21.89 2.29 29.79-10.78-2.59-9.41-17.32-10.31-29.79-4.73-3.33-11.73-4.33-18.33-5.78-4.86 11.73 4.31 30.4-2.29 40.1-5.5-3.16-3.95-12.7-4.58-19.48-.66-7.11-1.89-14.65-1.15-21.76-8.76-7.83-17.36-5.66-27.49-9.16-17.56-6.08-37.21-17.17-52.7-27.5-7.74-5.16-16-10.31-24-16-7.27-5.16-14-12.37-21.77-17.19-11.26-6.95-27.43-12.9-42.38-20.62-14.12-7.29-28.73-16.24-41.24-20.61-25.93-9.07-56-4-72.16 13.74-10.16 11.12-16.8 26.72-24.06 42.38-14.67 31.64-18.57 66.6-22.91 107.68-6.21 58.7-7.34 124.3-16 181-6 39.19-13.26 76.15-19.47 112.26 46.45 7.06 84-1.76 120.28-12.6 24.29-7.27 44.79-21.18 80.18-13.75 9.12 1.91 17 5.8 25.21 9.17 7.51 3.06 16.31 9.27 22.91 10.3 13.1 2.07 31-2.29 47-2.29 80.95 0 156.24 1.55 224.52 12.6 25.43 4.12 50.57 11.35 67.59 28.64-4.62 15.81-14.39 25.34-26.35 36.66-3.64 3.44-6.76 9-10.31 11.45-2.68 1.83-8.6 3.68-12.6 5.73-23.14 11.85-62.85 24.3-92.78 27.49-21.48 2.29-43.77 1.84-66.45 3.44-10.79.76-21.18 2.48-32.07 2.29-10.45-.18-21.37-2.76-32.07-2.29-6.22.28-11.93 4.18-18.33 4.58-13.79.86-29.35-1-42.39-2.29a327.89 327.89 0 0 1 -49.25-9.16c-16.15-4.3-31.72-11-47-11.46-14.62-.48-34.73 4.16-50.41 6.87-46.06 8-98.71 17.26-147.77 22.91-25.27 53.78-46.14 111.94-76.75 160.38 17.77 20.83 36.7 43.76 51.55 71 14.51 26.64 27.1 56.31 29.78 92.79 2.84 38.55-4.54 73.9-10.31 110-5.54 34.71-12.06 67.88-26.34 95.07 35-.75 94.18-22 111.12 8 9.42 1.65 16.53 5.61 21.76 11.45 1.79 2.63 1.79 11.12 0 13.74 3.18 5.93 10.94 13 9.16 22.92-2.35 13.08-27.46 17.34-41.23 18.33-16.58 1.18-33.32.64-50.41 2.28-30.33 2.93-66.77 5.38-98.51 6.88-26.36 1.24-59.41 5.43-71-11.46-1.63-18 9.76-33.75 16-50.4 17.05-45.17 34.87-103.18 29.78-161.52-3-34.87-24.74-56.46-45.82-75.6-13.76-12.5-25.22-28.22-41.23-39-12.8 8.59-28.18 14.59-44.68 19.47 6.17 23.08 16.36 41.67 18.33 67.59 4.45 58.68-21.39 104.16-42.39 139.75 24.49-3 54-2.43 61.86 14.89 8 0 10.91 5.14 17.19 6.88.48 4.09 3 6.11 2.29 11.45 5.33 5.6 11.09 6.29 10.31 16-1.18 14.63-24.91 15.25-45.82 16-45.39 1.7-76.36 1.59-120.28 3.44-18.06.76-44.36 2.27-48.12-10.31-2.45-8.24 5.7-24.27 10.31-35.52s10.72-23.16 13.75-32.07c11.62-34.19 23.15-67.22 19.47-115.7-2.39-31.57-21.49-53.82-35.51-74.46-8.55-12.6-15-21.85-24-30.93-8.56-8.55-17-16.89-27.49-26.34 2 105.92-38.49 180.51-90.5 236-40.21 42.88-91 74.37-153.5 93.94a314.75 314.75 0 0 1 -33.22 8c-10.49 2.08-20.35 6.5-30.93 9.17-17.4 4.39-36.82 6.41-56.13 8-38.45 3.2-77 7.69-118 10.31-18.91 1.21-38.32 4.34-57.27 5.72-40.49 3-81.19.38-121.43 0-19.25-.17-38.64-1.55-57.28-3.43-25.56-2.59-46.55-8.78-74.45-6.88-5.59.39-12.63 2.88-17.19-2.28.79-10.3 14.86-7.29 22.91-10.31 28.28-8.72 68-7 100.81-5.73 16.34.63 34.38.17 51.55 1.14 58.64 3.33 115.58-5.83 173-14.89 44.63-7 90.87-10.86 132.88-20.62 20.18-4.68 38.37-12.89 57.28-19.47 20.27-7.07 38.08-13.27 55-21.77 41.92-21.07 76.4-49.61 104.24-87.06 5.44-7.31 12.53-13.35 17.19-20.62 14.67-22.91 22.85-52.3 30.92-84.77 4.58-18.37 7.61-39.73 6.88-60.71-.54-15.41-5-30.9-8-45.82s-6.16-29.86-8-44.67c-12.41-97.21 2.36-201.41 31.86-275.93 25.56-64.64 64-111.78 105.38-161.52 4.08-4.91 7.15-10 11.46-14.89 19.69-22.46 43.09-44.24 65.29-66.44 36.16-36.16 77.75-65.06 115.7-97.37 75.51-64.3 138.78-145.13 187.87-237.13 23.85-44.7 46-91.2 75.6-136.31 1.39-22.1 5.64-43.79 12.6-61.86 6.89-17.88 14.38-36.35 24.06-50.4 5.85-8.5 14.68-15.73 21.76-24.06 6.87-8.08 13.58-16.4 20.62-24.05 14.47-15.74 28.34-33.06 43.53-47 16.36-15 35.35-25.25 53.84-36.66 8.89-5.49 18-11.53 27.49-17.18 10.43-6.22 21.82-11.04 30.93-19.47zm-145.48 260c16-10.17 27.63-18.9 40.1-32.08 15.34-16.22 27.86-35.7 44.67-50.4 6.43-5.62 16.15-9.34 21.77-16 4.61-5.5 8.31-15.8 12.59-24.05 6.16-11.84 11.54-21.29 12.61-34.37 2-24.56 7.49-53.1 8-82.48-.07-.69-.18-1.35-1.15-1.14-12.2 7.18-26.81 14.06-39 21.76-5.56 3.53-10.53 8.24-16 11.46-6 3.52-12.64 5.44-18.34 9.16-15.12 9.89-30.52 24.86-43.52 39-20.43 22.13-40.21 44.84-58.42 66.44-19.37 23-30.6 55.73-37.81 88.21 1.58.37 13.26-3.76 14.9 2.29-.95 5.93-7.17 8.51-10.31 12.6-3.5 4.55-6.15 10.15-9.17 14.89-44 69.13-76.17 145-120.28 213.07-12 18.52-26.13 36.86-40.09 55-41.53 53.91-91.72 99.48-145.48 140.9-13.49 10.39-27 21.9-39 32.08-4.55 3.87-9.25 6.55-13.75 10.3-16.85 14.07-32.36 31.22-48.11 47-31.39 31.39-59.78 66.14-88.2 102-27.65 34.84-52.45 74.42-69.88 120.28-8.69 22.88-14.13 49.32-19.48 75.6-5.57 27.42-11.33 54.9-12.6 83.63a621.53 621.53 0 0 0 8 128.3c3.22 19.67 9.81 38.84 11.46 59.57 3.13 39.22-6 68.52-13.75 98.51-5.73 22.11-13.85 44.08-24 60.71-6.56 10.69-17.3 20.59-25.2 30.93-24.81 32.47-56.47 56.57-90.5 77.89-50.82 21.25-107.34 44.69-170.68 53.84-28.81 4.17-58.72 4.85-88.21 10.31-3.86.72-7.55 2.79-11.45 3.44-21.64 3.59-45 5.44-67.59 8-24.13 2.75-47.34 6.8-71 5.73-23.16-1.05-45.19-1.33-68.73-1.15-14.22.11-30.16-2.47-47-2.29-5.35.06-12.76-1.89-17.18 2.29 42.5 8.24 85.32 5.65 126 6.87 6.67.2 13.82 2.26 20.61 2.3 46.68.27 94.47-6.91 138.61-10.31 47.6-3.67 93.76-5.9 134-13.75 13.89-2.71 26.39-7.85 40.09-10.31a309.63 309.63 0 0 0 75.6-24c68.87-32.19 121.54-75.73 155.8-142 5.6-10.84 12.59-20.84 17.18-32.08 14.13-34.64 26.79-77.88 24-126-.54-9.64-6.76-18.31 2.3-24.06 14.76 4.32 23.75 18 34.36 28.64 10.45 10.45 20.61 20.45 29.78 33.22 17.63 24.53 38.76 50.44 42.39 84.77 5.26 49.77-6.74 85.11-18.33 119.13-3.77 11.08-9.27 21.53-13.74 32.08-4.63 10.91-9.95 22.49-10.32 34.36 13 3.81 26.29 4 40.1 3.44 25.12-1 52.07-2.82 77.89-4.58s53.18 3.33 73.32-8c-14.38-7.35-35.86-3.19-56.13-2.29-9.73.42-23.14 2.93-28.64-4.58 2.29-10.47 14.86-5.6 22.91-5.73 15.65-.25 34.74-4.13 51.55-2.29-5.62-9.5-22-7.57-36.66-6.87-6.47.3-13.75 1-20.62 1.14-5.88.16-16.23 4.71-16-4.58 4.87-8 16.3-5.27 22.91-5.73 6.09-.43 15.36-.39 22.92-3.44-14.2-4.64-35-2.23-51.55 0-9.15 4.69-13.17 20.32-25.21 18.33-.47-7 5.79-11 9.17-16 23.14-34.6 51.28-75.45 55-127.15 2.63-36.61-7.81-67.06-20.61-93.93-9.37-.57-22.34 2.48-20.63-9.17 5-5.47 14.11-1.77 21.77-2.28 17.67-1.19 36.32-8.35 45.82-17.19-13.49-7.78-27-17.25-40.09-24.06-3.94-2-12.28-3.43-11.46-10.31 8.19-7.5 22.58 2.23 28.64 5.73 26.77 15.5 50.12 34.26 71 53.84 29.4 27.54 59.62 53.79 63 104.24 5.36 80-29.26 138.83-47 199.32 5 5.25 14.89 5.71 22.87 8 5.95 1.72 18.89-2.44 25.42-2.91q15.75-1.12 31.53-2c32.73-1.75 66.12-4.26 98.88-4.26 7.47-.46 14.66-.37 21.77-1.14 14.18-1.56 31.8-2 38.94-12.61-9.54-16.55-43.92-9.21-65.29-6.87-10.42 1.14-22.27 5.42-27.49 0 1.24-11.76 17.8-10.37 29.78-11.46 18.62-1.68 39.58-3.66 55-3.43-4.15-14-23-10.57-36.65-9.16-14.68 1.51-31.1 3.27-43.53 5.72-7.89 1.56-18.6 9.75-22.91 1.15 3.87-10.75 18.59-11.64 30.93-13.75 13.36-2.28 28.46-2.32 39-6.87-29.57-7.45-67.53 2.43-96.23 6.87-6.39 6.21-5.21 20-17.18 20.62-6.9-6.81 1.79-15 4.58-20.62 3.65-7.37 5.87-15.42 9.17-22.91 6.55-14.9 14.36-29.39 18.32-47s6-36.83 9.17-56.12c4.48-27.53 9.77-55 8-85.92-2.62-46.29-23.3-87.54-44.67-118-7.82-11.14-14.83-23-22.91-32.07-10.92-12.24-24.42-23.14-35.51-33.22-3.89-3.54-11-7-10.31-13.75 13.84-8.47 20.95 15.36 34.37 18.33 21.55-34.17 38.08-74.79 55-112.26 5.81-12.87 12.68-25.35 14.89-39-22.79 1.79-47.4 7.37-57.28-10.31-3.65-6.55-5.13-22.52-5.72-34.37-.67-13.34-.73-28.72-1.15-43.53-.46-16.53-2.77-32.9-2.29-45.82.3-8 .55-18.62 9.16-19.47 6.47 46.09-.88 99.16 10.31 139.76 8.84 4.48 19.95 5.54 33.22 4.58 17.05-1.24 36.22-4.43 55-6.88 37.89-4.93 73.07-10.65 105.39-16 18.52-3.09 37.38-7.89 53.84-9.17 30.82-2.4 47 8.64 71 13.75 8.59 1.83 17.88 1.8 26.35 3.43 13.26 2.56 25.55 6.85 36.65 6.88 10.25 0 21.05-1.39 29.79-4.59-5.23-8.06-16.46-5.33-27.49-5.72-8.89-.32-18.5-2-27.5-3.44-8.43-1.34-20.57-.09-22.91-8 2.49-5.66 11.07-3.71 16-3.43 17.65 1 38.46 7.78 53.84 2.29-27.4-5.84-70.3-14.67-97.37-27.5-7.91-3.74-26.44-9.19-25.2-17.18 1.3-8.38 13.45-5.69 18.33-1.14 8-2.77 21.53-.82 33.22-1.15 12.42-.34 24.31.24 32.07-3.43-22.78-7-57.27-20.88-89.35-11.46-6.62 1.94-11.52 6.57-18.33 8-7.25 1.53-15 1.32-24 2.29-30.3 3.26-65.66 6.38-97.37 9.16-16.15 1.42-33 4.44-45.82 3.44-31.28-2.44-32.22-23.42-29.79-55 1.34-17.32 7.34-35.15 9.17-52.69.58-5.6-2.32-14.95 5.73-16 7.19 4.26 5.35 15.44 4.58 22.92-.76 7.3-3.25 15.87-4.58 22.91-4.61 24.14-12.43 56.46 5.72 64.14 11.71-35 17.64-76.59 24.06-120.27 3-20.64 7.13-41.58 9.16-63 6.18-65.15 8.77-136.77 18.33-198.18 6.29-40.44 20.85-78.22 41.24-103.09 5.18-6.32 13.28-13.44 20.62-17.18 23.94-12.24 51.6-8.44 72.17 0 26.22 10.74 49.43 26.77 74.45 35.51 31.72 22.88 60.08 49.13 102 61.85-2.78-11.95-20.73-17.59-16-29.78 9.92-.07 16 9.79 21.76 17.18 6.41 8.26 11.16 17.6 21.77 20.62 3.24-7.44 3-18.36 12.6-19.47.4 9.94-5.77 13.32-5.73 22.91 5.79 1.08 9.38 4.37 17.19 3.44 2.13-6.27-.07-16.86 6.87-18.33 4.86 4.62.17 14 0 20.62 5 1.09 11 1.19 16 2.29.2-9 .46-17.87 8-19.48 2.71 5.1-1.46 11.94 0 19.48a64.32 64.32 0 0 0 24.06-4.58c-2.34-4.26 2.36-5.24 1.15-11.46-10.79-8.39-21.12-13.46-30.93-21.76-14.56-12.32-26.09-25.84-38.95-39-17-17.33-36.88-35.35-48.11-56.13-9.71-18-10-40.41-19.48-59.57-3.84 20.29-16.82 43.87-33.22 48.11-21.75 5.63-35-7-43.53-19.47-27.81-40.91 5-109.54 55-107.68-5.77-13.32-11.43-26.75-17.18-40.09-12.7.08-24.32.08-35.52 2.29-9.87 1.95-21.38 11.26-27.49 4.58-.38-8.48 9.73-10.82 16-12.6a140.4 140.4 0 0 1 25.2-4.58c34.77-2.64 82.68 3 107.68-9.17 14.35-7 24.19-27.72 34.37-43.53 10.55-16.39 21.39-31.34 29.78-44.67 20.08-31.89 42.82-58.21 60.71-88.21-30.74 7.61-60.26 16.34-96.22 18.33-22 1.22-46-3.29-68.74 1.15-17.69 3.45-31 14.65-44.67 22.91-5.69 3.42-12.06 5.42-17.18 9.16s-8.88 8.73-13.75 12.6c-20.58 16.34-37.19 35.83-51.55 55-9.41 6-17.7 16.66-27.49 24.05-7.58 5.73-20 15.14-28.64 11.46-4.48-7.5 4.87-10.75 8.1-12.8zm124.85 107.72c-12.4 5.26-29.84 28.74-32.07 47-2.89 23.54 5.44 46.81 18.33 49.26-16.71-33.85 19.81-77.21 47-58.42 1.42 1 4.33 8.19 5.73 3.44-2.8-17.44-11.68-28.8-18.33-42.39-6.87-1.57-13.9-1.76-20.66 1.11zm-96.21 587.62c-13.37 1-23.37 7.69-33.22 11.45-19.78 7.56-40.82 13-61.86 17.19-26.06 5.14-50.15 1.9-77.9 1.14a200.81 200.81 0 0 1 -8 26.35c44.68-.83 86-4.87 129.44-9.17 13.57-1.34 32-1.87 40.1-6.87 5.07-3.12 7-11.17 12.6-14.89 15.58-10.42 36.81-5.45 55-12.6-17.12-7.23-35.72-14.16-56.16-12.6zm367.71 36.65c-15.4-4.17-33-5.86-50.4-8-45.13-5.58-96-8-140.9-8-57.45 0-113.92-1.56-161.52 11.45a266.39 266.39 0 0 1 55 5.73c14.93 3.26 39.21 10.67 37.81 22.91-1 9-12.94 8-21.77 11.46 40.81 10.82 100 7.32 140.9 11.45 13.69-2.77 29.73-.06 45.82-1.14s32.91-2.87 48.12-4.58c15-1.7 32-3 47-5.73 14.48-2.64 30.42-5.84 39-16-9.22-10.86-24.4-15.54-39.06-19.52zm-288.67 45.83c-13.66-.48-19.88-14.48-35.51-9.17 10.39 3.77 24.4 9.99 35.51 9.2zm10.31 4.58c8.5 1 20.95 5.22 35.51 8 11.82 2.26 30.61 1.93 32.07 11.45s-12.3 7.81-5.72 18.33c26.25 3.44 56.2.6 85.91-1.15a407.89 407.89 0 0 0 103.1-19.47c15.5-5 31.18-10.65 40.09-21.76-85.1 14.72-197.73 12.93-290.96 4.63z"></path></g></g></svg> 