<?xml version="1.0" encoding="UTF-8"?> <svg xmlns="http://www.w3.org/2000/svg" viewBox="0 0 2400 2400"><path d="m819.24 1638.12c-4.72-28-7.69-59.25-4.16-84 1.64-11.57 3-22.31.74-27.19-1.64-3.57-6.54-2-14.92-.49s-21.38 3.32-28.89.75c-3-1-15.93-12.39-27-25.58-10-11.95-22.3-32-31.66-44.7a299.21 299.21 0 0 0 -22.17-26.91c-2.39-2.88-6-3-8.72-.37-1.42 1.35-5.56 10.4-4.87 23.21 1.1 20.35 8.51 50.19 13.77 73.74 8.58 38.37 11.15 43.26 20.93 71s21.4 55.73 23.75 62.36c1.28 3.61 20.33 39.13 26 47.66 4.74 7.07 13 22.55 27.92 20.42s25.15-3.94 28.81-4.64c8.72-1.68 15.14-2.57 23.71-5 1.7-.48 5.61-4.68 4-8.11-2.37-5.21-22.35-43.13-27.24-72.15z" fill="#fff"></path><path d="m829.46 1491.15c2.27 1.15 3.72.44 4.59-1.82 1-2.72 2.19-5.41 3-8.2a7.26 7.26 0 0 0 0-3.87c-2.47-8.87-5.22-17.66-7.56-26.56-1.38-5.23-11.32-34.38 7.46-48.53s20.93-19.39 31.12-16.92 32.48 16.38 32.4 34.14-7.65 48.9-7.93 51.21c-.26 2.09-.76 4.41 2.75 5.39 3.21.89 4.68-.23 6.42-2.38 1.94-2.39 4.29-4.44 6.2-6.86 4.45-5.64 19.41-28.55 19.92-29.86 2.69-6.85 5.68-11.83 15.56-24.78s26.63-13.26 44.58-11.6c18.82 1.73 26.52 2.6 28.29 2.63 2.53 0 5.53-3 5.5-5.8q0-7.27-.58-14.53c-.48-6.13-1.29-12.24-1.83-18.37-.07-.79-.78-26.81.59-46.48 1.42-20.31 4.94-34.33 5.24-37 0-.32.09-.78-.08-1-.63-.68-1.33-1.77-2-1.81a26.31 26.31 0 0 0 -5.81.47c-1.7.29-3.33 1-5 1.35-4.08 1-57.64 12.55-60.58 13.1-4.1.78-59.18 12.37-61 12.75-4.73 1-33.38 3-36.15 2.92-6.73-.16-13.45-.56-20.17-1-3.9-.23-7.81-.53-11.7-1-4.63-.55-39.36-6.21-43.66-7-1.68-.32-33.33-6.07-38.61-7.37-6.7-1.64-13.47-3-20.25-4.32-1.18-.23-3.34.27-3.7 1-.9 2 .44 3.28 2.41 4 5.78 2.18 11.49 4.54 17.29 6.67 3.48 1.28 17.78 7.36 21.56 8.67 6.38 2.23 26.79 9.55 29.44 11.31a31.74 31.74 0 0 1 5 3.86c2.39 2.39 1.57 5.66-1.65 6.94-1.33.54-2.82.67-4.22 1.08-9 2.6-36.88 13.77-42.4 16.06a92.18 92.18 0 0 0 -19.9 11.44c-5.73 4.25-16.36 9.45-13.51 14.87s19.72-2.46 20.34-2.66a228.06 228.06 0 0 0 21.33-9c1.13-.63 16.55-5.95 19.94-7 1.83-.59 29.82-12.1 31.94-9.78s2.07 5.34.07 8a30.06 30.06 0 0 1 -6.24 5c-1.75.8-11.87 9.52-14.8 13.34-4.05 5.27-7.85 10.74-11.47 16.31a49.25 49.25 0 0 0 -5.63 10.73c-2.27 6.72-4.06 13.63-5.68 20.54a101.61 101.61 0 0 0 -2.25 14.41c-.37 4.35-.08 8.76-.08 11.7 1.23 6.24 1.71 11.11 3.21 15.65 1.81 5.46 6.88 6.25 10 1.41 1.93-3 5.36-17.29 6.07-20.77.38-1.86.76-3.71 1-5.58.32-2.33 10.7-32.86 20-49.76 6.71-12.17 13.88-18.6 18-21.23a5.41 5.41 0 0 1 4.83.29 5.24 5.24 0 0 1 1.94 4.33c-.35 1.92-8.61 9.27-15.24 23.17-18.25 38.27-2.95 63.67 2.61 73.66s9.24 19.47 19.08 24.44z" fill="#fff"></path><path d="m712 365a400.47 400.47 0 0 1 22.73-37.91c10.53-15.23 23.16-29.85 26.41-33.82 3.61-4.41 3.56-7.68-.91-11.17-3.18-2.49-6.53-4.78-9.88-7.05-1.45-1-43.56-27.3-54.36-34.09-7.23-4.54-30.38-14.3-45.65-20.3-7.54-3-18.63-5-20.74-4.52a16.17 16.17 0 0 0 -9.13 6c-2.9 3.66-2.6 7.57-2.72 12.34-.92 9.38 10.51 34.86 10.9 35.58 3.26 6.11 7.16 17.57 25.83 41.58s32.52 37.08 37.72 43.19a67.94 67.94 0 0 0 13.21 11c2.72 1.67 5.29 1.92 6.59-.83zm-31-64.68c-1.12-1.11-2.2-2.26-3.33-3.36-2.06-2-11.57-10.79-13.56-12.22-1.11-.8-3.73-4.49-5.81-3.22s.55 5.09.93 6.36c.53 1.81 1.08 3.62 1.57 5.44.93 3.52 2 8-1.84 9.17s-5.53-2.42-6.88-5.85c-3.13-8-5.9-16-9-24a44.67 44.67 0 0 0 -3.75-6.77c-2.58-4.23-2.5-6.95.66-9.88s8.71-.46 10.34.95c4.65 4.06 9.11 8.33 13.6 12.55.82.78 19.47 15.11 21.2 16.93q6 6.38 12.3 12.55c4.42 4.39 8.86 8.77 13.44 13 2.72 2.52 5.83 4.61 8.57 7.11s4.21 5.52 2.52 9.79c-1.94 4.93-5.44 6.54-9.44 3.08-2-1.68-3.27-4.08-5.1-5.92-3.78-3.79-7.73-7.38-11.57-11.11-5-4.84-10-9.72-14.85-14.59z" fill="#fff"></path><path d="m749.43 561.28c.54.69 2.16 1.4 2.66 1.1a3.58 3.58 0 0 0 1.57-2.8c-.43-3.51-7-25.49-8.39-33.06-1.81-9.93-3.72-28.87-2.3-54.72s9.11-64 9.72-66c1.51-5 3.17-26 9.65-25.38s3.35 11.5 2.49 15.8c-1.57 7.85-7 37.24-7.84 57.13s4.07 38.88 13.17 66.09a85.23 85.23 0 0 0 3.72 8.95q3.38 7.2 7 14.3c.79 1.55 6.39 15.32 9 14.52s-1.48-13-2-15.84c-1.09-5.85-2.41-13.82-2.94-16.92-1.75-10.32-5.85-75.83-5.43-81.84.69-9.83 1.84-20 3-32.71s5.36-28.84 6.39-36a5.08 5.08 0 0 1 4.67-4.4 4.24 4.24 0 0 1 5 3.06 12.41 12.41 0 0 1 .67 5.6c-.8 5.06-5.33 26.71-7 53.22s1.82 35.91 4.15 48.37 9.28 33.85 14.16 42.55 9.79 17.6 10.84 18.46 1.73 1 1.21-.86c-1-3.41-1.7-6.89-2.63-10.31-1.44-5.31-3.32-10.51-4.39-15.89-1.81-9.2-12.61-59.67-12.92-81.35-.22-14.58.24-23.89.92-30.35.33-3.14 1.51-8.44 4.7-8.45s3.55 6 3.94 9.54c.55 4.93.71 9.92 1.3 14.85s1.46 9.72 2.26 14.58c.49 3 1 6.05 1.61 9 1 4.26 2 8.49 3.12 12.73 2.12 8.41 8.36 28.53 21.15 53.06a139 139 0 0 0 31.72 40.06c3.51 3.55 10.79 11.1 13.1 9.7s-1.91-6.22-4.08-11c-6.11-13.39-16.35-37.8-21.14-52.86-6.48-20.4-7.78-33.82-9-40.15-2.85-15.25-7.36-63.55-8.58-81.07-.76-11 0-15.7.47-16.66 1.09-2.21 3.6-3.89 6-3.11 1.6.52 3.31 2.78 3.72 4.56a129.33 129.33 0 0 1 3.13 18.54c.53 6.74 5.85 34.52 7.19 40.34.7 3.08 5.25 24.15 8.1 31.32 3 7.47 13.75 29.2 15.73 32.79 4.09 7.45 7.73 15.16 12 22.52 4.09 7.07 8.62 13.89 13.12 20.71 1.61 2.45 5.2 8.39 7.28 7.16s-9.78-26.41-11.88-32.93c-4.11-12.74-11.89-43.65-14-53.05-1.23-5.53-6.75-38.93-7.64-54.35s-2.49-27.66-.57-35 5-11 10.23-8 8.24 13.36 8.35 23.48 1.5 37.27 2.32 42.19c1.21 7.31 6.38 27.07 7.15 29.71 2.43 8.24 5.74 16.17 8.61 24.25 1.16 3.27 9.41 21.54 11.6 20.84 1-.31-2.64-10.39-4.88-19-2.76-10.6-4.41-20.21-4.6-21.36-.71-4.14-1.69-8.24-2.27-12.39-1-7.54-1.9-15.11-2.77-22.67-.48-4.22-2.18-51.07-2.68-56.3-1-10.48-2.12-23.7 3.36-24.17 8.21-.7 10.37 13.74 11.11 15.92 1.85 5.42 4 26.86 4.8 32 .91 5.79 1.4 11.65 2.15 17.47.51 4 1 8.07 1.75 12.06 1.29 6.83 2.61 13.66 4.27 20.41 1.15 4.7 2.79 9.29 4.39 13.86 1 2.87 10.07 22.48 17 40.83a176.72 176.72 0 0 0 16 31.62c3 4.55 5.4 7.29 6.32 6.93 2.45-1 .24-5.2-.52-8.32-4.14-16.83-17.12-68.89-22.43-91.13a462.91 462.91 0 0 1 -9-49.42c-.87-5.62-1.4-11.3-2-17-.4-3.57-2.88-31.92-3-35.23-.08-1.58-.19-3.58-1.13-4.62-4.86-5.39-29.16-33.3-36.11-45.49s-11.55-20-14.35-27.57c-1.51-4.09-6.35-6.65-10.08-4.7-1.25.66-34.7 9.82-43.9 13.51s-35.49 10.46-59.87 32.94-41.15 45.52-43.55 49.32c-4.92 7.74-10 15.42-14.28 23.52-3.27 6.19-6.85 12.14-10.51 18.08-3.11 5.05-14.6 30.56-17.68 37.81-3 7-11.17 36-12.58 55.34s.82 56.63 13.88 75.7 17.08 25.36 19.13 23.83-2-12.15-3-17.37c-2.29-11.41-13.2-34.4-10.3-83s15.13-69.93 17.53-76.21 6.71-7.72 10.08-5.18-.09 13.09-1.23 16.15c-3 8-8.75 34.15-9.68 38-2.74 11.14-2.36 20.85-.82 40.14a220.19 220.19 0 0 0 11.86 53.17 127.93 127.93 0 0 0 14.43 26.5z" fill="#fef065"></path><path d="m782.77 570.86c-1.16-2.29-19.59-41-22.11-51.94-.6-2.6-2.49-8.47-5.33-7.89-1.4.29-2.15 4.08-.77 12.52a233.09 233.09 0 0 0 6.44 26.15c1.86 5.67 10 32.34 13.7 39.55a44.23 44.23 0 0 0 8.34 11.6 3.53 3.53 0 0 0 2 1.16c3.67 0 6.47-1.79 8.74-4.57 2.05-2.49.09-4.15-1.11-6.07a44.25 44.25 0 0 1 -2.11-4.39c-2.56-5.38-5.1-10.79-7.79-16.12z" fill="#fff"></path><path d="m803.35 530.25c-1.06-2.87-2.35-5.66-3.62-8.44-.4-.87-1-2.76-3-2.31s-.68 6.42.26 9.45c.57 1.84 5.84 26.76 7 32.28 1.43 6.82 3.17 13.44 6.55 19.61 1.15 2.1 3.18 5.2 7.87 1.92s6.89-4.84 9-6.25c3-2 1.93-2.44 1-4-3.72-6-7.44-11.94-11.29-17.82-5.12-7.82-10.47-15.55-13.77-24.44z" fill="#fff"></path><path d="m913.92 1720.11c4.69-3.21 3.42-10.12 1.77-11.71a150.48 150.48 0 0 1 -15.56-17.34c-10.38-13.69-29.56-42-34.84-89.14-4.18-37.26 3.79-78.29 4.78-84.71.87-5.61 3.29-11 5.47-16.36a74.86 74.86 0 0 1 5.46-9.78c1-1.75 1.21-3.64-.23-4.85-2.81-2.34-5.72-5.49-9-6.14-7.54-1.47-14.66 1.27-20.3 6.23-8.27 7.27-15.68 25.82-18.84 51.64-1.58 12.91-3.79 30.88-3 52.27s4.54 46.2 4.9 48.44c.22 1.43 8.07 28 9.69 31.38 4 8.31 17.73 47.16 42 55.36 10.3 3.48 21.06-.75 27.7-5.29z" fill="#fef065"></path><path d="m1742.92 1231c-4.13-9.15-15.42-39-17.64-43.63-1.86-3.92-3.52-7.94-5.43-11.85-1.06-2.18-22.9-45.26-39.49-69.16-2.16-3.54-22.23-32.81-23-34-1.91-3-12.93-19-17-23.63-3.23-3.69-9.44-12.22-18-22.84s-16.51-21.13-24.69-30.1-14.56-16.4-18.39-20.78c-4.12-4.71-20.56-26.08-24.87-31.91-3.29-4.45-6.73-8.79-10.12-13.16-3.65-4.7-7.39-9.34-11-14.1-1.73-2.33-9.26-12.55-11.17-15.41-3.48-5.2-18.31-27.32-21-30.94a290.63 290.63 0 0 1 -31.83-49.14c-13.9-27.48-43.2-84.6-46.49-90.28s-29.17-50.37-37.92-64.79-25.86-41.32-34.76-56.73-15.68-28.23-18-31.67c-1.83-2.78-8.8-14.81-18.3-29.39s-29.61-45-33.23-51c-2.24-3.73-35.4-48-45.88-62.11s-29.59-39.43-33.13-42.75c-4-3.77-23.69-29.2-58-59.95s-66.38-52.44-71-55.38c-1.6-1-4.26-2.87-6.42-.57s3.79 16.38 3.48 21.12c-.3 4.53-4.68 6-8.08 3.33-4.58-3.57-9.7-25.21-11.11-30.74-.58-2.28-14.06-32-44.4-57.74s-65.05-47.58-71.69-50.86c-5.22-2.57-10.32-5.36-15.55-7.91a123.56 123.56 0 0 0 -11.48-5.08c-3.41-1.24-5.11-1.44-6.39-.08-.77.82-7.68 17.68-6.21 37.43a164.34 164.34 0 0 0 8.22 40c1.76 5 12.28 28.59 13.59 31.11 3.13 6 33.24 47.73 48.74 59.26s25 18.72 28.54 19.92c5 1.7 6.75 6.06 3.69 9.21s-7.62 6.46-6.87 8.58c1.08 3 2.06 6.13 3.13 9.18 1.16 3.33 2.63 6.57 3.52 10 2 7.6 8.55 29.11 9.25 31.37 1.48 4.82 3.48 9.49 5 14.3 2.78 8.6 4.3 12.85 8 25.89s9.31 23.45 12.54 30.36a5.19 5.19 0 0 1 .14 4c-2 3.88-6.16 3.88-8.41 0-3.27-5.7-6.29-11.54-9.34-17.36-.6-1.16-6.37-17.46-8.34-24.53-1.79-6.38-3.81-12.7-6-19-3.1-8.93-9.53-29.43-9.9-30.67-1-3.28-1.83-6.59-3-9.82-1.2-3.42-5.46-16.73-6.38-20-1-3.56-3-14.72-6.53-13.92s1.85 23.32 3 31.3c.66 4.59 7.21 31 9.12 35.55.69 1.63 7 26.7 11.09 37.12 1.58 4 16.1 39.42 17.31 42.17 1.86 4.27 4.3 8.28 6.12 12.56a12.11 12.11 0 0 1 .91 6.48c-.28 1.59-1.87 3.29-3.33 4.24-1.68 1.1-3.47.21-4.74-1.39-3-3.76-10.92-20.29-12.7-24.32-3-6.69-6.12-13.29-9.1-20-.9-2-1.72-4.06-2.55-6.11-.64-1.59-2.4-6.9-5.17-4.54s0 10.33 1.09 13.67c2.58 7.74 14.69 44.18 18.36 54.6 1.72 4.89 16.35 8.3 41.55 17.89 17.69 6.74 35 16.87 43.61 23.63 3.66 2.86 6.2 6.59 3.06 10.8s-13.43-.55-15.13-1.83c-6.3-4.74-12.92-10.15-17.39-12.41-5.68-2.86-8.13-4.71-28.92-11s-33.35-7.12-39.49-9a16.92 16.92 0 0 1 -9.86-7.48c-2.69-4.74-5-9.69-8.25-14.13-2.74-3.72-14-22.32-16.31-28-2.51-6.23-12.72-33-14.67-40.31-2.26-8.48-6.15-30.93-6.62-33.48-1.32-7.15-2.79-14.27-4.11-21.42-.18-1-.3-6.46-2.5-5.9s-1 5.43-.86 7.14c.86 11.95 4.9 36.32 5.38 41.32.46 4.77 5.67 26.57 7.67 32.51 2.95 8.77 6.66 17.27 10 25.88 2 5 14.45 41.58 18 45.92 1.63 2 1.72 5.61 1.64 8.46-.11 4-2.73 5.85-6.7 5.4-3.13-.35-5.93-1.76-7.3-4.56-2.01-4.26-12.53-20.84-15.23-25.44-1.1-1.91-12-22.26-14-26.81-.54-1.24-1.66-3.78-3.47-2.92s-1.81.87-.66 5.28c1.34 5.13 5.73 14.75 6.58 18.25 1.41 5.76 11.63 28.78 9.62 35.59a7.71 7.71 0 0 1 -3.4 4.38c-3.67 1.76-10.18-1.14-12.43-4.73-2.11-3.37-4.62-6.48-6.81-9.79-3.83-5.77-21.5-29.87-25.16-37.12-3.77-7.48-8.08-14.71-12.51-21.82-2.63-4.21-7-14.07-9.59-13.31s2.43 16.66 4 20.25c2.08 4.6 12.4 28.37 14.52 34.58 1.67 4.88 11.08 25.51 12.64 31.39 1.4 5.27-2.3 7.93-6.49 10.2a14 14 0 0 1 -16.73-2.2c-4-4-8.06-8.08-12.08-12.12-2.27-2.28-4.59-4.51-6.8-6.85s-4.18-4.58-6.21-6.92c-3.07-3.53-16.33-21.8-19.77-29.73s-6-12.85-8.45-19.54c-.76-2.11-1.56-4.22-2.52-6.26-.21-.44-1.16-.54-1.77-.79a11.09 11.09 0 0 0 0 1.63c1 5.44 5.89 24.6 7 27.81 3 9 6.37 17.9 9.24 26.94 2.93 9.19 6.29 18.08 12.39 25.74 3.86 4.84 7.46 9.9 11.14 14.89 2.24 3 3.15 6.34 1.83 10.08s-4.14 5-7.55 3.14c-1.45-.78-6.86-7.11-9.76-10.45s-2.84-6.47-8.91-2.77c-3 1.85-8.48 5-12.43 7.92-6.74 5-5.38 6.93-4.61 9.64.18.62 3.28 5-1 8.54s-8.21-2.33-9.46-3.1c-2.82-1.76-5.56-1.41-8.27.34-5.95 3.83-11.83 7.78-18 11.31a7.57 7.57 0 0 1 -5.92.38 5.09 5.09 0 0 1 -3-6.14c1-3.84-.7-6.19-3.63-8.56a74.14 74.14 0 0 1 -10.12-10 194.55 194.55 0 0 1 -14-18.23c-4.77-7.34-8.68-15.24-13.08-22.84-.93-1.59-2.36-6.06-4.58-5.35s1.91 9.45 2.7 12c1.85 6 3.28 12.22 5.66 18 2.55 6.23 9.59 13 10.58 27.14s2.59 47.52 2.76 50.75c.21 3.82 2.77 5.35 6.62 5.68 2.85.25 6.81-7.27 6.52-10a112.69 112.69 0 0 1 -.33-13.25c.23-1.68.41-3.62 3-3.76a4.73 4.73 0 0 1 4.79 2.77c.29.54-.93 5 3 4.89s4.5-7.2 4.73-8.51a69.61 69.61 0 0 1 1.47-7 5.28 5.28 0 0 1 3-3.31c1.22-.31 3.5-.21 4.24 2 .34 1 1.82 6.77 4.93 6.09s2-2.84 2.5-4.41c.8-2.43.83-5.14 1.84-7.45 1.23-2.85 2.77-3 4.86-.74a15.42 15.42 0 0 1 2.31 3.7 20.3 20.3 0 0 1 1.81 4.49c.56 2.55 2.78 2.76 4.52 3 .69.09 1.76-2 2.51-3.12 2.09-3.24 4-6.58 6.19-9.78 1-1.55 2.44-1.6 4.32-.85 1.71.69 2.66 1.21 2.71 3.25.08 3-.63 9.55 3.76 11s5.86-6.82 7.18-8.41c1.84-2.22 3.49-1.85 5.38.55 2.54 3.22.47 11.88 3.73 14.46 2.31 1.83 5.18-2.15 10.53-3s7.2 3.5 5.13 7.1c-.71 1.23-4.52 4.5-2.66 7s2.53.34 7-.26 4.44 3.6 5.29 5.94c.91 2.53-.74 5-3.61 6.11a3.23 3.23 0 0 0 -2.38 3.66c.28 2.85.46 3.91 3.73 3 2.14-.62 4.38.61 5.56 3s1.6 4.58-.46 6.77a8.24 8.24 0 0 0 -2.14 3.22c-.52 2-1.79 3.64.09 6.18 3.43 4.62 2.28 12.58.55 15.19s.3 3-1 19.15-7.53 32-15.56 41.34-33.3 32.38-66.45 26.19-43-38-43.49-39.91c-.21-.73-1.42-1.4-2.28-1.59-.36-.07-1.32 1.15-1.47 1.89-1.41 6.83-2.53 13.72-4.07 20.51-2 9-10.21 47.46-17.88 69s-18.72 37.24-33 51.25c-19.62 19.33-46.71 41.12-50.78 46.71-4.47 6.13-25.49 24.39-31.51 74.77s33 90.52 38.71 98.07c2.27 3 41.11 43.6 76 59.34 18.94 8.55 51.44 23.49 117.15 30.33 45.43 4.73 101.92-.33 126.66-4.76 52.29-9.35 111.29-36.1 119.09-40.55 15.87-9.07 53.63-26.1 80-51s65.56-77.22 79.69-110.12c23.81-55.43 28.55-70.89 33.48-118.85a333.38 333.38 0 0 0 -.19-66.33c-2.94-29.83-10-72.3-14-92.65-5.77-29.82-18.88-72.26-20.73-77.76-1.92-5.71-.44-11.16 4.23-13.08s7.16 5.26 9.34 11.2c6.54 17.82 17.37 53.46 22.3 80.82 6.58 36.49 13.08 72.79 14.22 94.12s3.06 64.77-4.28 101.67c-9.9 49.76-26.82 79-30.53 87-.7 1.51-25 44.49-45.16 70s-36.77 44.85-70.5 66.89-54.76 31.39-58.15 32.88c-4.68 2.06-9.63 3.79-11.58 9.53s-18.8 43.4-22.74 57.63c-2.46 8.88-4.85 17.81-6.55 26.85-1.57 8.28-10.29 56.54-9.5 85s2.58 48.78 6.57 55.91c2.11 3.77 2.57 3.78 7.16 3.64 4.91-.15 11.61-1.32 21-.7a132.69 132.69 0 0 1 22.4 3.69 10.57 10.57 0 0 0 8-.44c3.54-1.54 12.59-4.22 26.1-3.72a136.76 136.76 0 0 1 38.06 7.62c15.53 5.77 25.51 11.79 31.16 15.73 3 2.07 7.25 6.44 15.84 1.83s11.92-5.48 31.3-17.53 41.41-33.73 49.12-39.83c5.87-4.65 29.5-28.71 35.74-35.65 4.91-5.44 9.09-11.53 13.9-17.07a298.07 298.07 0 0 0 26.63-37.18c8.55-14.26 18.94-41.58 20.11-44.42 1.37-3.29 2.54-6.67 4.16-9.83 1.23-2.4 4.37-3.15 6.86-2.15 3.46 1.39 4.76 3.28 4 6.49a263.82 263.82 0 0 1 -13.89 34.6c-9.3 18.71-19.17 38.36-49.75 72.91s-47 49.61-67.18 65.61a366.06 366.06 0 0 1 -41 28.17c-7.44 5-14.94 9.76-23.49 12.6a8.45 8.45 0 0 1 -3.64.25c-3.44-.47-14.31-9.4-21.2-13.59a122.71 122.71 0 0 0 -23.83-11.47c-6.23-2.19-13-3.14-19.56-4.06a94.87 94.87 0 0 0 -9.82-.8c-2.43-.1-10.52-1.13-11.7 1.39s6.18 6.44 7.93 7.43a134.29 134.29 0 0 0 16.31 8.29c2.35 1 14 3.3 13.75 8.74s-10.63 5.58-13.09 6c-12.09 2.33-24.19 8.86-40.81 18.42-11.5 6.62-31.63 26-30 28.92s18.51-4.88 21.23-6c7.83-3.24 15.32-7.31 23-10.86 5.39-2.48 10.83-4.9 16.39-7 8.55-3.21 31.19-8.19 33.63-8 2.73.28 4.21 2.63 5 4.83 1.27 3.6-1.3 7.22-3.48 8.54-5.29 3.21-10.3 6.72-15.39 10.22-5.61 3.85-35.71 25.31-43.68 33.78-4.76 5.07-19.7 23.68-20 29.74s10.19 0 12.74-1.83c2.89-2 30.52-21.87 45.44-31.71s40.45-19.54 43.5-14.2-2.79 9.84-6.14 13.89-7.13 8.12-10.28 12.48c-2.3 3.16-27 30.59-29.65 33.56q-8.28 9.24-16 19a61.31 61.31 0 0 0 -5.49 9 3 3 0 0 0 1.09 4 6.82 6.82 0 0 0 8.46-1.42c4.17-3.94 8.13-8.1 12.37-12 1.36-1.24 21.92-18.35 25.51-21.88a346.94 346.94 0 0 1 27.41-21.51c4-2.82 14.48-11.59 21.86-9s3.82 12 2.14 13.84c-3.46 3.84-7.51 7.17-10.83 11.12-3.89 4.63-33.72 41.59-34.42 42.74a127 127 0 0 0 -6.51 11.17c-1.79 3.75-5 7-4.75 11.53.07 1.45.39 3.3 1.33 4.17.76.7 2.82.65 4 .16 10.66-4.47 16.43-14.28 23.64-22.42 1.06-1.2 11.8-14.39 21.47-24.12s18.28-16 21.4-17.78c6.25-3.55 7.72 3 21.6 4.33s25.18 1.15 45.49-2.09c87.7-14 120.35-24.23 157-44.24 38.55-21.08 59.29-44.72 62.15-48.24 3.26-4 11.44-15.23 13-16.13 2.61-1.56 4.8-.12 6.59 1.6s-1 9.83-9.61 20.63-29.67 31.21-51.07 44.3-36.3 22.07-65.11 32.06c-26.14 9.06-75 19.5-113.4 22.93-29.79 2.65-55.48 1.91-61.1 1.28s-14.1 3.8-23.48 14.68-23.21 28.3-33.28 38.42-23.71 14-31.42 8-2.32-19.61-.18-23.88c3.76-7.5 10.78-19.4 24-34.71 4.45-5 18.75-19.22 15.58-22.06s-13 9.44-16.85 12.83c-.49.43-25.73 26.07-36.75 34.25s-25.83 10.61-31.27 3.06 6.51-25.14 9.12-28.38c2.86-3.55 5.48-7.36 8.7-10.56 6-6 35-40.32 37.76-43.92a20.27 20.27 0 0 0 1.88-3.86 18 18 0 0 0 -4 .57 41.71 41.71 0 0 0 -6.13 2.87c-2.49 1.41-19.74 14.4-36 26.48-13.4 9.94-26.17 19.27-29.54 21-.61.32-10.79 6.16-14.49 4.3-4.41-2.22-6.45-4.82-6-9.7.22-2.43 4.14-18.11 17-36.53s36.27-36.43 40.56-40c.47-.39.45-1.34.66-2-.64-.08-1.35-.4-1.9-.21-3.79 1.32-7.53 2.8-11.32 4.12-1.75.62-13.18 7-17.73 9-4.3 1.86-8.54 3.84-12.78 5.82-5.81 2.73-11.51 5.68-17.42 8.16a11.63 11.63 0 0 1 -6.27.39c-2.34-.41-4-1.67-4.93-4.49-2.32-6.86-.93-12.89 3-18.42 3.61-5 7.66-9.74 11.64-14.48 1.74-2.09 18.83-17.83 40.32-28.58 4.25-2.2 8.56-4.28 12.79-6.52a3.51 3.51 0 0 0 1.8-2 3 3 0 0 0 -1.19-2.41c-1.48-1-8.13-3.13-19.76-10.59s-26.15-9.25-48.13-8.72-42.11 9.43-45.3 10.89c-9.39 4.28-18.83 8.49-28.06 13.11-5.3 2.66-43 22.3-47.8 26.53-5.06 4.45-25.81 21.62-33.32 22.33a10.53 10.53 0 0 0 -8.5 5.21c-3.28 6.19-4.65 13-6.17 19.76-1.07 4.76-7.24 36.18-6.28 69.07a172 172 0 0 0 14.9 63.43c9.57 20.81 25.12 40 26.3 41.5 2.64 3.41 6 9.24 19.38 6s35.08-8.65 37.75-9.36c5.92-1.59 50.06-9 62.58-9.87s20.85 1 25.4 5c3.4 3 15.75 17.59 19.64 21 4.12 3.64 8.32 7.15 12.28 11 5.4 5.27 50.17 41.42 88.61 62.2s73.07 33.06 79.21 35.75c.75.33 20 6.36 32.73 9.18 7.06 1.57 20.44 3 19.83 9s-3.69 5-23.06 1.59-34.62-10.26-40.92-11.92c-3.55-.93-17.84-6.67-42.94-17.5s-33-14.76-53.36-28-62.9-44.43-74.71-54.65c-6.13-5.32-11.46-9.79-15.8-13.71-4-3.62-10.47-12.84-16-14s-40.74 3.66-59.31 7.56-28.91 6.07-41.33 10c-5.08 1.6-8.24 9-11.54 13.32a40.57 40.57 0 0 1 -17.35 13.79c-13.28 5.94-21.63 2-22.79 6.19-3.19 11.47-6.94 62.22 1.62 93.57a509.4 509.4 0 0 0 22.76 64.65c.69 1.45 3.91 7.72 6.5 12.74 1.13 2.2 4.15 9-12.42 16.82s-51.9 17.6-56.26 18.8c-3.08.84-38.9 13.32-43.11 15.38-3.29 1.61-4.31 5-1.49 6.86 3.32 2.24 14.59 4.87 34.37 6.86s100.85 6.58 107 6.48a11.53 11.53 0 0 0 4.71-.88c4.8-2.34 9.54-4.8 14.17-7.45 4.22-2.43 40.75-22.94 67.11-29.39s53.36-8.76 57.41-9.6a4.7 4.7 0 0 0 3.93-5.35s0-.06 0-.09c-.4-4.38-.12-85.89-2.76-93.14-1.09-3-2.21-4-4.88-4h-8.45c-2.81 0-5.42-1.08-6.48-3.64-1.13-2.73-.58-5.8 2.26-7.35 4.16-2.26 49.84-.48 59.37 1.77 3.53.84 54.93 6.7 58.58 7.25s72.91 11.08 126.19 13.41 70.32 1.93 106.46 1.55 63 .2 92.2-3.93 45.77-7.7 56.47-17.4c3.78-3 8.29-4.08 10 2s-6.33 12.6-20.54 24.88-32 24.66-58.74 42.31-79.25 43.62-83.65 46c-5.49 3-68.79 29.55-71.87 31-6.07 2.86-28.05 11.49-51.31 16.91s-42.58.75-53 .2-39.33-9.69-45.19-12.12c-3-1.23-32-11.72-34-12.63-3.36-1.5-29.88-9-57.87-11.1s-54.84 2.63-61.64 4.07c-22 5.17-42 14.65-47.48 16.61-3.88 1.38-24.39 11.44-35.35 17.81-4.84 2.81-7.12 2.88-6.15 5.32s19.73-2.76 24.88-3.65c10-1.74 20.44-3.53 23.51-4.4 1.42-.4 42.89-8.08 74.48-10.53s43.91 4 43 9.69-10.63 3.92-13 3.92c-5.8 0-46.93-.66-79.26 7.39s-63.5 29.35-67 32.07c-.42.32-.45 1.13-.66 1.71a7.32 7.32 0 0 0 1.85.37c2.73-.19 63.18-9.55 87.85-15 21-4.61 50.77-9.72 61.81-11.44 2-.3 10.21-2.27 12.22 3.67s-7.51 8.18-8.87 8.62a169.68 169.68 0 0 1 -19.47 5.18c-3.28.5-24 5.56-68.26 16.72s-61.93 25.49-65.71 26.15c-.51.09-1.07.86-1.27 1.44-.12.36.39 1.35.6 1.35 3.32-.06 35.33-3.74 36.45-3.87 8.37-1 59.58-7.22 97-15.31s66-17.26 67-17.27c3.94 0 7.22 5 5.78 8.74-.85 2.21-6 5.11-11.52 7.55-5.87 2.58-39.84 13.76-78.37 22.32-22.57 5-94.27 22-94.39 26.13-.05 1.86 5.39 1.52 11.75.72 7.75-1 43.44-6.64 64.44-10.15s47.87-7.85 72.75-12.54 61.45-20 64.38-21.5c4.09-2.16 6.67-2.15 9.1.94 1.91 2.42 1.58 7.2-1.36 9.26-3.89 2.72-11.66 7.61-37.63 16.75s-61.49 18.28-68.27 19.73c-3.22.69-23.83 5.19-31 6.6-.67.13-1.2.92-1.8 1.41.52.59.92 1.43 1.57 1.73a6.89 6.89 0 0 0 2.87.51c13.08 0 26.17.18 39.23-.33a256.37 256.37 0 0 0 25.63-2.78c5-.71 35.23-4 63.92-17.35s32.08-14.37 39.12-18.18c30.88-16.75 36.22-28.58 56.33-37.55s65.6-24 69.17-25.4c1.8-.73 30.09-11.63 37.14-14.65 5.16-2.21 32.9-16.26 42-20.34 11.47-5.17 85.28-44 124.93-73s64-50.7 67.93-54.21c4.83-4.26 7-5.46 28.81-30.13s37.8-49.09 45.19-62.39c2.4-4.31 4.1-7.44 4.49-8.26.8-1.63 5.51-9.44 1.17-5.5s-6.62 6.31-11.3 10.72c-1.4 1.32-8.17 8.18-15.94 14.89-1.55 1.34-8.43 6.66-12.37 2.72s.44-7.59 2.7-9.33c18-13.87 37.56-32.09 51.47-55.17 32.32-53.63 49.68-100.81 53.79-148.36 10.12-117.07-14-210.43-20.26-232.43s-27.07-88.42-30.36-95.72zm-732.86-960.83c-5.66 2.73-9.47-4.45-10.45-6-3.08-4.74-8.19-12-10.14-13.87a255.07 255.07 0 0 0 -20.31-18.44c-11.92-9.86-25.61-17.51-29-19-1.5-.65-6.9-5.31-8.06-1.51s7.5 15.18 10.89 21.1c1.58 2.78 15 22 20.1 29.08s25.73 30.46 29.09 34.56 6.69 8 4 12.21-6.65 2.21-12.19-2.21-20.29-24.52-24.47-30c-3.73-4.89-13.77-19.75-15.37-22.09-4.42-6.44-9-12.78-13.1-19.43-2.62-4.25-10.06-18-11.42-20.5-1.71-3.09-6.16-11.81-8.83-17.41-1-2-2.46-4-1.41-6.8s3.22-3.76 6.56-2.37c6 2.47 42 19.5 60.71 34.89 16.22 13.31 29.66 29.55 33.46 36.87.63 1.19 5.59 8.19-.06 10.92zm59.06 413.4c5 8.28 4.22 31.34 2.1 41.46s-6.28 23.35-20.08 35.45-30.06 22.4-60.18 21.26-39.87-31.5-41.81-35.21c-1.58-3-4-13.63-5.13-14.79-4-4-5-9.39-6.57-14.45a5.64 5.64 0 0 1 2-6.63c2.57-1.9 2.16-4.61 1.22-7.17-.87-2.39-2-4.71-3-7-1.42-3-1-5.1 2-5.84 5.74-1.38 6.75-5.83 7-10.43a51.54 51.54 0 0 0 -1.09-11.08c-.53-3.25 1-5 3.62-6.35.86-.44 1.84-.62 2.71-1 4.82-2.21 5.74-5.9 4-10.89a35.05 35.05 0 0 1 -1.54-11.51c0-1.48 1.72-3.65 3.18-4.28 2.31-1 4.48.26 5.6 2.7.41.88.71 1.81 1 2.72 1.44 3.87 3.3 4.27 6.3 1.37 2.76-2.67 2.88-6.15 2.43-9.52a98.23 98.23 0 0 0 -2.52-11.5c-1-4.09.16-9.31 4.39-10s5.12 6.53 6.71 10.8c1.68 4.51 3.54 8.7 6.18 8.9 3.82.3 4.22-5 4.47-8.66.08-1.24-.06-11 5.78-11.08s2.49 10.75 8.29 10.7 8.37-7.46 10-8.32a6.73 6.73 0 0 1 5.35-.55c1.17.54 2 2.9 2.05 4.49.1 1.87-.85 3.77-1.17 5.68-.14.8 0 2.3.32 2.4a4 4 0 0 0 3-.11c2.3-1.62 4.34-3.62 6.56-5.37a13.74 13.74 0 0 1 4.07-2.61c4.81-1.47 6.68.49 5.32 5.44-.47 1.67-1.31 3.23-1.88 4.88-.48 1.36-1.23 2.81-1.1 4.15a5.4 5.4 0 0 0 2 3.58c.67.47 2.5 0 3.39-.68a53.12 53.12 0 0 0 6.69-5.75c2.3-2.37 4.23-1.71 6.24.2a6 6 0 0 1 .6 7.2 27.8 27.8 0 0 1 -3.61 4.61c-2 1.84-2.93 2.84-.34 5.44s12.58-1.65 15.32-1.3 4.45 4.66 2.62 7c-1.65 2.14-8.63 7-8.55 7.64.22 1.81 1.29 3.38 3.65 3.11a4.52 4.52 0 0 1 2 .16c3.61 1.32 6.49 4.71 2.9 9.1a6.64 6.64 0 0 1 -.68.72c-3.4 3.15-4.21 6.94-1.81 10.92zm15.19-67.73a6.27 6.27 0 0 1 -6 3.26 18.56 18.56 0 0 1 -9.5-3c-6.31-3.81-9.29-7.51-28.51-19.83a133 133 0 0 0 -39.41-16.53c-4.63-2-5.83-4-4.86-8.14.66-2.83 4.46-5.37 8.94-5.28 4.69-.85 9.45 2 14.5 3.85 7.14 2.57 13.59 6.59 20.46 9.71 2.48 1.13 16 8 19.84 11.24 3.13 2.64 6.94 4.47 10.31 6.85 4.12 2.9 8.12 6 12.13 9 2 1.57 3.44 6.34 2.1 8.87z" fill="#fff"></path><path d="m825.82 768.15c3.61-1.4 7.19-4.85 9.19-6.64a57.85 57.85 0 0 0 14.61-18.24c4.16-8.34 7-20.67 7.61-27.88a111.87 111.87 0 0 0 -2.22-33c-2.26-9.86-4.34-21.2-14.24-29.33s-22.85-9.07-28.07-9.54c-7.13-.53-13.51 1.19-19.86 4.53-4.22 2.22-16.49 13.27-19.09 15.82-5.42 5.33-12.14 15.25-16.17 30.55s-4.3 21.89-5 34.83 8.28 26.53 12.19 31.38 6.52 6 11.16 7.34c1.69.51 1.56-4.7 1.4-8.2a37.4 37.4 0 0 1 1.08-9.54c2.51-11.5 12-19.07 22.31-19.08s15.63 6.64 17.61 9.05c2.65 3.21 5.26 10.18 4.42 17.06s-1.33 12.59 3.07 10.89z" fill="#fff"></path><path d="m1012.88 639.59c-28-4-42.75 16.57-47.64 25.18s-9.71 20.61-10.17 44.91 8 37.38 10.2 40.91a23.45 23.45 0 0 0 5.17 6.1c2.29 1.79 4.17.69 4.59-2.23.4-2.74-1.06-4.71 1.31-12.09s8.25-16.19 21.57-14c7.9 1.28 13.88 6.12 16.63 14.24 1.88 5.55 2.05 14.4 1.11 17.69s.49 2.9 2.36 2.78a8.83 8.83 0 0 0 3.23-.84c3.16-1.52 19.59-5.6 27.75-18.75s9.49-35.28 7.88-50.63-16.03-49.26-43.99-53.27z" fill="#fff"></path><g fill="#0e5256"><path d="m1776.58 1282.08c-18.33-59.81-41.37-110.33-62.71-148.34s-65.22-95.87-90.3-128-64.71-76.3-89.31-112.91-44.07-62.09-58.91-89.43-33.2-65.87-37.27-73c-16.5-28.95-54.42-95-56-97.69-3.54-6.11-32.66-55.23-34.8-58.66-3.53-5.64-51.59-85.63-54.13-89.1-2.71-3.69-48.7-70.39-97.42-122.31-24.39-26-60.86-56.94-87-75.68s-41.87-25.22-45.17-27.24c-6.6-4-13.27-18.89-20.76-28a260.63 260.63 0 0 0 -38-36.92c-29.88-23.71-66.76-48-79.58-53.72s-22.1-10.62-25.92-10.37c-1.55.1-3.27-.19-4.62.38-4.48 1.88-7.44 5-8.18 10.18-.52 3.62-6.44 27.55-4.4 44.92s8.49 32 9.53 34.58c1.67 4.19-7.36 7-10.19 7.75-11.79 3-42.2 11.66-59.92 19.5-22 9.72-39.21 21.49-43.18 24.69-3.55 2.87-11.33 1.69-14.6-.65-15.07-10.72-51-35.56-53.88-37.21-14.17-8-66.3-38.2-88.31-34.47s-17 36.57-14.3 48.35a181.73 181.73 0 0 0 13.1 38.27c12.17 25.37 24.68 39 37.16 52.81s37 35.16 40 38.75c2.22 2.65 3.38 3.69 1.29 7.62s-9.6 22.44-11.8 28.38a311.16 311.16 0 0 0 -10.93 37.38c-3.26 15.86-6.22 47.2.91 73.19s24 43.16 29.72 50c5.08 6.15 10 11.06 18 12.45.9.16 5.92 6.49 8 8.58 4.91 5 5.3 70.58 5.16 75.06-.22 6.61 1.06 25.62-1.37 39.11s-17 82.26-18.06 87.81a186 186 0 0 1 -10.57 35.7c-7.85 18.79-21.19 38.12-33.5 49-26.59 23.41-57.61 47.68-71.5 79.19-8 18.11-12.54 41.82-12.54 65.33 0 75.22 92.6 139.44 124.25 153.85 26.33 12 59.2 22.29 91.12 26.55s75.11 7.24 114.62 3.53c68.12-6.41 109.49-22.28 116-24.37 5-1.6 10.28-3.05 13.94-3.27 1.57-.09 2 .49 1.22 2.1-2.52 5.4-4.92 10.86-7.27 16.35-3.89 9.09-13 42.17-15.47 53.84-1.36 6.37-8.75 10.28-12.69 10.93-13.5 2.22-42.22 7.66-46 8.82-5.77 1.79-53.72 10.13-70.83 14s-29.25 4.59-35.84 4.67a345.25 345.25 0 0 1 -40.79-2.21c-20.25-2.22-60-8.77-84.87-13-12.83-2.2-37.8-5.55-45.49-2.64a8.6 8.6 0 0 0 -4.88 11.13 8.88 8.88 0 0 0 .88 1.67c3.74 5.31 8.92 8.88 14.78 11.53 3 1.34 28.38 10.72 29.28 11.07 6.76 2.64 13.57 5.13 20.24 8 3.37 1.44 5.75 1.53 10.18 4.14s-21.93 12.57-27.81 15.61c-7.91 4.08-17.77 9.86-23.93 15.45-5.65 5.12-12.64 12.56-14.35 21.75-.39 2.09-.74 9.42 7.54 10.35 10 1.13 29.12-4.4 30.4-4.83 6.39-2.15 27.12-11.8 29.59-12.7a4.39 4.39 0 0 1 4 .94c.61.71-.06 2.6-.35 3.92a113.36 113.36 0 0 0 -14 27.28c-5.91 16.85-8.21 33.54-5.33 50.35 1.43 8.4 2.26 12.43 3.4 17.15 1.62 6.7 9.2 10.24 16.15 9.52 10.41-1.09 16.9-17.24 18.66-24.29.21-.84.74-2.24 1.17-2.26.84 0 2.24.52 2.48 1.18 1.61 4.21 11.33 23.27 12.55 26.17 2.15 5.11 13.65 20.25 17.31 22.62 2.38 1.53 1.56 3.51-1.36 4.32-1.21.44-2.45.82-3.7 1.14-5.88 1-17.08 8.82-33.26 5.63s-42.19-41.53-46.27-47.78c-4.25-6.51-14.66-20.07-32.12-42.55-9.46-12.18-23.63-16.18-31.66-5.59-6.78 9-8.35 31.3-7.49 37.85 2.59 19.91 3.14 24.43 7.32 44.88s9.21 39.55 18.63 75.13 27.61 79.71 29.73 84.16c3.13 6.74 9.15 19.57 19.64 41.19s20.76 40.36 31.89 43c5.56 1.32 14.64 2.12 33.52-1.49s47.55-11.65 51.11-13.13c7.11-3 7.51 0 15 5.7s11.22 7.24 10.07 19.38c-.39 4.1-2.23 47.58 1.87 72.09 4.74 28.36 16.06 58.49 22.62 73.13 2.19 4.88 7 16.51 2.57 18.51s-8.58 3.66-12.9 5.42c-2.81 1.15-5.63 2.25-8.48 3.27-5.1 1.83-10.22 3.58-15.33 5.38-2.86 1-62 23.15-65.28 24.4a32.65 32.65 0 0 0 -6 3c-3.79 2.36-6.22 5.51-6.55 9.74-.3 3.72-.26 7.28 2.63 10.88 3.06 3.83 6.14 7 10.68 8.63.54.2 10.53 3.49 27.8 5.26 24.4 2.5 58.81 3.68 62.49 3.82 4.41.17 22.42 1.23 27 1.9a12.45 12.45 0 0 1 4.35 2.14c.42.27.78 1.56.59 1.72-1.58 1.4-12.13 6.59-15.9 7.49-2.49.6-3.92 4.7-3.27 7 .83 2.94 3.7 5.74 6 5.37 2.85-.46 19.73-4.55 32.43-7.68s29.57-6.64 34.34-6c.64.08 1.27.2 1.9.3a9.28 9.28 0 0 1 -1.93 1.43c-4.76 1.94-22 10.49-25.88 12.75-10 5.86-53 26.51-56.09 28.27a4.85 4.85 0 0 0 -1.83 2.61c-.78 2.53 1.47 8 3.92 9.24 1.68.88 3.92 2.25 5.36 1.76 5.94-2 12.06-3.16 18.12-4.66 10.59-2.62 21-6 31.49-9 2.17-.62 14.29-5.29 17-1.7s-6.77 6.33-10.56 8.32c-10.27 5.38-21.7 8.19-32.37 12.88-5 2.2-12.19 4.89-10.95 11.47s4.63 6.88 19 5.55 43.48-4.13 54-5.13c1.06-.1 2.13 0 3.2 0a16.27 16.27 0 0 1 -2.79 1.85c-1 .4-21.22 6.31-25 8-3.42 1.51-6.12 3.35-6.69 7-.52 3.37-1.13 7.05 3.07 9.12 1.26.61 4.12 6.79 32.51 8s37.19 0 38.49 5.82 5.21 8 11.14 7.38c4.93-.53 95.81.1 133.39-10.39s60.24-22.54 77.69-31.92c14.54-7.82 31.19-22.08 40.08-29.73 1.78-1.53 3.25-2.8 4.33-3.69s4.09-2 7.8-3.24c3.07-1 75.78-30.06 76.4-30.25 5.52-1.69 52.76-22.64 58.68-25.58 5.75-2.87 11.7-5.34 17.42-8.27 3.12-1.61 46.81-25.81 52.5-28.41 6.32-2.89 42.27-25.34 44.8-27.12 5.44-3.82 11-7.43 16.57-11.12 2.35-1.58 3.5-1.13 4.23 1.75.4 1.56.61 3.17 1 4.74.62 2.51 3 52.55 3 58.42 0 3.72 1.7 21.92 3.19 22.65 2.64 1.28 35.24 3.71 41.39 2.82 2.76-.4 9 .44 11-2.35 2.27-3.21 3.06-29.33 3.07-29.49.11-3.68 2.77-34.89 3.33-40.06.67-6.31 2.23-33.52 3.39-54.39.72-12.83 1.28-23.26 1.4-25a5.82 5.82 0 0 1 2-3.17c4-3.76 8.08-7.32 12-11.11a461.56 461.56 0 0 0 40.71-48.35 452.69 452.69 0 0 0 31.58-51.71c1.87-4.08 13.63-30.49 14.37-34.52.7-3.85 2.48-6.61 4.79-9.59 4.88-6.27 41.35-72.47 48.77-135 6.91-58.31-.18-136.2-3.29-165.45s-8.68-59.41-27.01-119.22zm-1084.39-927.24c-5.17-6.11-19-19.23-37.72-43.24s-22.57-35.47-25.83-41.6c-.39-.72-11.82-26.2-10.9-35.58.12-4.77-.18-8.68 2.72-12.34a16.17 16.17 0 0 1 9.13-6c2.11-.51 13.2 1.56 20.74 4.52 15.27 6 38.42 15.76 45.65 20.3 10.8 6.79 52.91 33.11 54.36 34.09 3.35 2.27 6.7 4.56 9.88 7 4.47 3.49 4.52 6.76.91 11.17-3.25 4-15.88 18.59-26.41 33.82a401.38 401.38 0 0 0 -22.72 38.02c-1.29 2.74-3.86 2.49-6.59.82a67.25 67.25 0 0 1 -13.22-10.98zm30.9 126.75c-1.54-19.29-1.92-29 .82-40.14.93-3.81 6.69-30 9.68-38 1.14-3.06 4.59-13.62 1.23-16.15s-7.67-1.09-10.08 5.18-14.62 27.63-17.53 76.21 8 71.57 10.3 83c1 5.22 5.09 15.85 3 17.37s-6.06-4.76-19.13-23.83-15.28-56.35-13.88-75.7 9.62-48.35 12.58-55.34c3.08-7.25 14.57-32.76 17.68-37.81 3.66-5.94 7.24-11.89 10.51-18.08 4.28-8.1 9.36-15.78 14.28-23.52 2.45-3.78 19.22-26.78 43.6-49.3s50.7-29.25 59.89-32.94 42.65-12.85 43.9-13.51c3.73-1.95 8.57.61 10.08 4.7 2.78 7.56 7.37 15.31 14.32 27.5s31.25 40.1 36.11 45.49c.94 1 1 3 1.13 4.62.16 3.31 2.64 31.66 3 35.23.63 5.66 1.16 11.34 2 17a462.91 462.91 0 0 0 9 49.42c5.31 22.24 18.29 74.3 22.43 91.13.76 3.12 3 7.34.52 8.32-.92.36-3.32-2.38-6.32-6.93a176.72 176.72 0 0 1 -16-31.62c-6.91-18.35-16-38-17-40.83-1.6-4.57-3.24-9.16-4.39-13.86-1.66-6.75-3-13.58-4.27-20.41-.76-4-1.24-8-1.75-12.06-.75-5.82-1.24-11.68-2.15-17.47-.81-5.09-2.95-26.53-4.8-32-.74-2.18-2.9-16.62-11.11-15.92-5.48.47-4.36 13.69-3.36 24.17.5 5.23 2.2 52.08 2.68 56.3.87 7.56 1.73 15.13 2.77 22.67.58 4.15 1.56 8.25 2.27 12.39.19 1.15 1.84 10.76 4.6 21.36 2.24 8.63 5.86 18.71 4.88 19-2.19.7-10.44-17.57-11.6-20.84-2.87-8.08-6.18-16-8.61-24.25-.77-2.64-5.94-22.4-7.15-29.71-.82-4.92-2.22-32.08-2.32-42.19s-3.14-20.54-8.35-23.48-8.31.68-10.23 8-.32 19.6.57 35 6.41 48.82 7.64 54.35c2.1 9.4 9.88 40.31 14 53.05 2.1 6.52 14 31.7 11.88 32.93s-5.67-4.71-7.28-7.16c-4.5-6.82-9-13.64-13.12-20.71-4.24-7.36-7.88-15.07-12-22.52-2-3.59-12.76-25.32-15.73-32.79-2.85-7.17-7.4-28.24-8.1-31.32-1.34-5.82-6.66-33.6-7.19-40.34a129.19 129.19 0 0 0 -3.17-18.42 7.13 7.13 0 0 0 -3.72-4.56c-2.37-.78-4.88.9-6 3.11-.48 1-1.23 5.64-.47 16.66 1.22 17.52 5.73 65.82 8.58 81.07 1.18 6.33 2.48 19.75 9 40.15 4.79 15.06 15 39.47 21.14 52.86 2.17 4.74 6.4 9.56 4.08 11s-9.59-6.15-13.1-9.7a139 139 0 0 1 -31.72-40.06c-12.79-24.53-19-44.65-21.15-53.06-1.07-4.24-2.17-8.47-3.12-12.73-.66-3-1.12-6-1.61-9-.8-4.86-1.68-9.7-2.26-14.58s-.75-9.92-1.3-14.85c-.39-3.51-.75-9.54-3.94-9.54s-4.37 5.31-4.7 8.45c-.68 6.46-1.14 15.77-.92 30.35.31 21.68 11.11 72.15 12.92 81.35 1.07 5.38 3 10.58 4.39 15.89.93 3.42 1.66 6.9 2.63 10.31.52 1.84-.16 1.73-1.21.86s-6-9.75-10.84-18.46-11.83-30.1-14.16-42.55-5.85-21.87-4.15-48.37 6.24-48.16 7-53.22a12.41 12.41 0 0 0 -.67-5.6 4.24 4.24 0 0 0 -5-3.06 5.08 5.08 0 0 0 -4.67 4.4c-1 7.16-5.23 23.31-6.39 36s-2.31 22.88-3 32.71c-.42 6 3.68 71.52 5.43 81.84.53 3.1 1.85 11.07 2.94 16.92.54 2.89 4.65 15.05 2 15.84s-8.23-13-9-14.52q-3.62-7.1-7-14.3a85.23 85.23 0 0 1 -3.72-9c-9.1-27.21-14-46.2-13.17-66.09s6.27-49.28 7.84-57.13c.86-4.3 4-15.18-2.49-15.8s-8.14 20.42-9.65 25.38c-.61 2-8.31 40.1-9.72 66s.49 44.79 2.3 54.72c1.38 7.57 8 29.55 8.39 33.06a3.56 3.56 0 0 1 -1.57 2.8c-.5.3-2.12-.41-2.66-1.1a127.81 127.81 0 0 1 -14.4-26.5 219.85 219.85 0 0 1 -11.89-53.19zm105.3 91c.94 1.52 2.05 2-1 4-2.13 1.41-4.32 3-9 6.25s-6.72.18-7.87-1.92c-3.38-6.17-5.12-12.79-6.55-19.61-1.16-5.52-6.43-30.44-7-32.28-.94-3-2.29-9-.26-9.45s2.63 1.44 3 2.31c1.27 2.78 2.56 5.57 3.62 8.44 3.3 8.89 8.61 16.62 13.75 24.48 3.92 5.8 7.59 11.77 11.31 17.74zm-34.61 24.89c-2.27 2.78-5.07 4.58-8.74 4.57a3.53 3.53 0 0 1 -2-1.16 44.23 44.23 0 0 1 -8.34-11.6c-3.74-7.21-11.84-33.88-13.7-39.55a235.08 235.08 0 0 1 -6.39-26.15c-1.38-8.44-.63-12.23.77-12.52 2.84-.58 4.73 5.29 5.33 7.89 2.52 10.94 21 49.65 22.11 51.94 2.69 5.33 5.2 10.74 7.79 16.12a44.25 44.25 0 0 0 2.11 4.39c1.15 1.88 3.11 3.59 1.06 6zm16.72 869.27c-5.56-10-20.86-35.39-2.61-73.66 6.63-13.9 14.89-21.25 15.24-23.17a5.24 5.24 0 0 0 -1.94-4.33 5.41 5.41 0 0 0 -4.83-.29c-4.16 2.63-11.33 9.06-18 21.23-9.33 16.9-19.71 47.43-20 49.76-.26 1.87-.64 3.72-1 5.58-.71 3.48-4.14 17.81-6.07 20.77-3.14 4.84-8.21 4-10-1.41-1.5-4.54-2-9.41-3.21-15.65 0-2.94-.29-7.35.08-11.7a101.61 101.61 0 0 1 2.25-14.41c1.62-6.91 3.41-13.82 5.68-20.54a49.25 49.25 0 0 1 5.63-10.73c3.62-5.57 7.42-11 11.47-16.31 2.93-3.82 13-12.54 14.8-13.34a30.06 30.06 0 0 0 6.24-5c2-2.67 2-5.73-.07-8s-30.11 9.19-31.94 9.78c-3.39 1.08-18.81 6.4-19.94 7a228.06 228.06 0 0 1 -21.33 9c-.62.2-17.49 8.08-20.34 2.66s7.78-10.62 13.51-14.87a92.55 92.55 0 0 1 19.88-11.35c5.52-2.29 33.41-13.46 42.4-16.06 1.4-.41 2.89-.54 4.22-1.08 3.22-1.28 4-4.55 1.65-6.94a31.74 31.74 0 0 0 -5-3.86c-2.65-1.76-23.06-9.08-29.44-11.31-3.78-1.31-18.08-7.39-21.56-8.67-5.8-2.13-11.51-4.49-17.29-6.67-2-.75-3.31-2.06-2.41-4 .36-.78 2.52-1.28 3.7-1 6.78 1.28 13.55 2.68 20.25 4.32 5.28 1.3 36.93 7 38.61 7.37 4.3.84 39 6.5 43.66 7 3.89.46 7.8.76 11.7 1 6.72.39 13.44.79 20.17 1 2.77.06 31.42-1.92 36.15-2.92 1.8-.38 56.88-12 61-12.75 2.94-.55 56.5-12.14 60.58-13.1 1.69-.4 3.32-1.06 5-1.35a26.31 26.31 0 0 1 5.81-.47c.72 0 1.42 1.13 2 1.81.17.19.12.65.08 1-.3 2.65-3.82 16.67-5.24 37-1.37 19.67-.66 45.69-.59 46.48.54 6.13 1.35 12.24 1.83 18.37.39 4.83.53 9.68.58 14.53 0 2.76-3 5.85-5.5 5.8-1.77 0-9.47-.9-28.29-2.63-18-1.66-34.7-1.36-44.58 11.6s-12.87 17.93-15.56 24.78c-.51 1.31-15.47 24.22-19.92 29.86-1.91 2.42-4.26 4.47-6.2 6.86-1.74 2.15-3.21 3.27-6.42 2.38-3.51-1-3-3.3-2.75-5.39.28-2.31 7.85-33.46 7.93-51.21s-22.21-31.67-32.4-34.14-12.34 2.77-31.12 16.92-8.84 43.3-7.46 48.53c2.34 8.9 5.09 17.69 7.56 26.56a7.26 7.26 0 0 1 0 3.87c-.83 2.79-2 5.48-3 8.2-.87 2.26-2.32 3-4.59 1.82-9.91-5-13.47-14.52-19-24.52zm198.41-51a6.75 6.75 0 0 1 -1.45 1.27c-2.64 1.18-5.29 2.34-8 3.39-4.92 1.93-28.85 14.83-34.26 17.36q-2.84 1.32-5.63 2.71c-4.11 2-24.73 13.13-28.68 14.9-1 .47.37-2.61 4.65-10.67s12.48-27.32 31.85-31.11 37.34 1.2 39.81 1.56a8.68 8.68 0 0 1 1.71.6zm-123 40.17c-.81 5.63-3.73 10.27-8.94 11.42-.39.09-6.35-1.52-12.32-.68-5.68.8-11.37 4-12.1 4.36-3 1.26-5.44 0-6.19-3.11-1-4.38-9.45-26.94-9.45-37.39s.61-12.29 5.58-16.46c5.26-4.41 8-8.21 16.1-13.61s9-3.76 13.37-1.07 7.8 3.44 14.85 11.25.19 38-.88 45.3zm-43.35 262.38c-8.57 2.39-15 3.28-23.71 5-3.66.7-13.91 2.52-28.81 4.64s-23.18-13.35-27.92-20.42c-5.72-8.53-24.77-44-26-47.66-2.35-6.63-14-34.66-23.75-62.36s-12.35-32.58-20.93-71c-5.26-23.55-12.67-53.39-13.77-73.74-.69-12.81 3.45-21.86 4.87-23.21 2.72-2.58 6.33-2.51 8.72.37a299.21 299.21 0 0 1 22.17 26.94c9.36 12.71 21.68 32.75 31.66 44.7 11 13.19 23.92 24.54 27 25.58 7.51 2.57 20.51.78 28.89-.75s13.28-3.08 14.92.49c2.24 4.88.9 15.62-.74 27.19-3.53 24.78-.56 56.06 4.16 84 4.89 29 24.87 66.94 27.32 72.08 1.55 3.48-2.36 7.68-4.06 8.16zm1.61-48.27c-1.62-3.37-9.47-30-9.69-31.38-.36-2.24-4.12-27.05-4.9-48.44s1.43-39.36 3-52.27c3.16-25.82 10.57-44.37 18.84-51.64 5.64-5 12.76-7.7 20.3-6.23 3.3.65 6.21 3.8 9 6.14 1.44 1.21 1.28 3.1.23 4.85a74.86 74.86 0 0 0 -5.46 9.78c-2.18 5.33-4.6 10.75-5.47 16.36-1 6.42-9 47.45-4.78 84.71 5.28 47.14 24.46 75.45 34.84 89.14a150.48 150.48 0 0 0 15.56 17.34c1.65 1.59 2.92 8.5-1.77 11.71-6.64 4.54-17.4 8.77-27.71 5.29-24.24-8.19-38-47-42-55.39zm949.63-111c-4.11 47.55-21.47 94.73-53.79 148.36-13.91 23.08-33.43 41.3-51.47 55.17-2.26 1.74-6.64 5.38-2.7 9.33s10.82-1.38 12.37-2.72c7.77-6.71 14.54-13.57 15.94-14.89 4.68-4.41 7-6.79 11.3-10.72s-.37 3.87-1.17 5.5c-.39.82-2.09 4-4.49 8.26-7.39 13.3-23.34 37.71-45.19 62.39s-24 25.87-28.81 30.13c-4 3.51-28.28 25.17-67.93 54.21s-113.46 67.85-124.93 73c-9 4.08-36.79 18.13-42 20.34-7 3-35.34 13.92-37.14 14.65-3.57 1.45-49.07 16.43-69.17 25.4s-25.45 20.8-56.33 37.55c-7 3.81-10.43 4.87-39.12 18.18s-58.87 16.64-63.92 17.35c-8.49 1.35-17 2.28-25.63 2.78-13.06.51-26.15.28-39.23.33a6.89 6.89 0 0 1 -2.87-.51c-.65-.3-1-1.14-1.57-1.73.6-.49 1.13-1.28 1.8-1.41 7.12-1.41 27.73-5.91 31-6.6 6.78-1.45 42.31-10.58 68.27-19.73s33.74-14 37.63-16.75c2.94-2.06 3.27-6.84 1.36-9.26-2.43-3.09-5-3.1-9.1-.94-2.93 1.54-39.5 16.81-64.38 21.5s-51.74 9-72.75 12.54-56.69 9.19-64.44 10.15c-6.36.8-11.8 1.14-11.75-.72.12-4.15 71.82-21.12 94.39-26.13 38.53-8.56 72.5-19.74 78.37-22.32 5.56-2.44 10.67-5.34 11.52-7.55 1.44-3.72-1.84-8.78-5.78-8.74-1 0-29.58 9.18-67 17.27s-88.69 14.3-97.09 15.3c-1.12.13-33.13 3.81-36.45 3.87-.21 0-.72-1-.6-1.35.2-.58.76-1.35 1.27-1.44 3.78-.66 21.5-15 65.71-26.15s65-16.22 68.26-16.72a169.68 169.68 0 0 0 19.47-5.18c1.36-.44 10.87-2.67 8.87-8.62s-10.27-4-12.22-3.67c-11 1.72-40.83 6.83-61.81 11.44-24.67 5.42-85.12 14.78-87.85 15a7.32 7.32 0 0 1 -1.85-.37c.21-.58.24-1.39.66-1.71 3.52-2.72 34.69-24 67-32.07s73.46-7.39 79.26-7.39c2.35 0 12.13 1.72 13-3.92s-11.46-12.14-43-9.69-73.06 10.13-74.48 10.53c-3.07.87-13.48 2.66-23.51 4.4-5.15.89-23.91 6.1-24.88 3.65s1.31-2.51 6.15-5.32c11-6.37 31.47-16.43 35.35-17.81 5.48-2 25.47-11.44 47.48-16.61 6.8-1.44 33.64-6.22 61.64-4.07s54.51 9.6 57.87 11.1c2 .91 31.1 11.4 34 12.63 5.86 2.43 34.72 11.56 45.19 12.12s29.79 5.23 53-.2 45.24-14 51.31-16.91c3.08-1.45 66.38-28 71.87-31 4.4-2.43 57-28.4 83.65-46s44.52-30 58.74-42.31 22.28-18.77 20.54-24.88-6.25-5.06-10-2c-10.7 9.7-27.24 13.28-56.47 17.4s-56.06 3.55-92.2 3.93-53.19.78-106.46-1.55-122.52-12.85-126.19-13.41-55-6.41-58.58-7.25c-9.53-2.25-55.21-4-59.37-1.77-2.84 1.55-3.39 4.62-2.26 7.35 1.06 2.56 3.62 3.65 6.48 3.64h8.41c2.82 0 3.79 1 4.88 4 2.64 7.25 2.36 88.76 2.76 93.14a4.68 4.68 0 0 1 -3.82 5.42h-.09c-4 .84-31 3.15-57.41 9.6s-62.89 27-67.11 29.39c-4.63 2.65-9.37 5.11-14.17 7.45a11.53 11.53 0 0 1 -4.71.88c-6.18.1-87.25-4.48-107-6.48s-31-4.62-34.37-6.86c-2.82-1.9-1.8-5.25 1.49-6.86 4.21-2.06 40-14.54 43.11-15.38 4.36-1.2 39.68-11 56.26-18.8s13.55-14.62 12.42-16.82c-2.59-5-5.81-11.29-6.5-12.74a507.94 507.94 0 0 1 -22.74-64.63c-8.56-31.35-4.81-82.1-1.62-93.57 1.16-4.17 9.51-.25 22.79-6.19a40.57 40.57 0 0 0 17.34-13.69c3.3-4.35 6.46-11.72 11.54-13.32 12.42-3.9 22.75-6.07 41.33-10s53.78-8.73 59.31-7.56 12 10.39 16 14c4.34 3.92 9.67 8.39 15.8 13.71 11.81 10.22 54.36 41.39 74.71 54.65s28.25 17.2 53.36 28 39.39 16.57 42.94 17.5c6.3 1.66 21.56 8.56 40.92 11.92s22.45 4.49 23.06-1.59-12.77-7.47-19.83-9c-12.68-2.82-32-8.85-32.73-9.18-6.14-2.69-40.77-15-79.21-35.75s-83.21-56.93-88.61-62.2c-4-3.86-8.16-7.37-12.28-11-3.89-3.45-16.24-18.07-19.64-21-4.55-4-12.87-5.93-25.4-5s-56.66 8.28-62.58 9.87c-2.67.71-24.32 6.07-37.75 9.36s-16.74-2.54-19.38-6c-1.18-1.53-16.73-20.69-26.3-41.5a172 172 0 0 1 -14.87-63.46c-1-32.89 5.21-64.31 6.28-69.07 1.52-6.74 2.89-13.57 6.17-19.76a10.51 10.51 0 0 1 8.5-5.21c7.51-.71 28.26-17.88 33.32-22.33 4.8-4.23 42.5-23.87 47.8-26.53 9.23-4.62 18.67-8.83 28.06-13.11 3.19-1.46 23.32-10.36 45.3-10.89s36.49 1.27 48.13 8.72 18.28 9.62 19.76 10.59a3 3 0 0 1 1.19 2.41 3.51 3.51 0 0 1 -1.8 2c-4.23 2.24-8.54 4.32-12.79 6.52-21.49 10.75-38.58 26.49-40.32 28.58-4 4.74-8 9.46-11.64 14.48-4 5.53-5.35 11.56-3 18.42 1 2.82 2.59 4.08 4.93 4.49a11.63 11.63 0 0 0 6.27-.39c5.91-2.48 11.61-5.43 17.42-8.16 4.24-2 8.48-4 12.78-5.82 4.55-2 16-8.33 17.73-9 3.79-1.32 7.53-2.8 11.32-4.12.55-.19 1.26.13 1.9.21-.21.7-.19 1.65-.66 2-4.29 3.57-27.67 21.59-40.56 40s-16.81 34.1-17 36.53c-.47 4.88 1.57 7.48 6 9.7 3.7 1.86 13.88-4 14.49-4.3 3.37-1.78 16.14-11.11 29.54-21 16.31-12.08 33.56-25.07 36-26.48a41.71 41.71 0 0 1 6.13-2.87 18 18 0 0 1 4-.57 20.56 20.56 0 0 1 -1.88 3.86c-2.76 3.6-31.76 38-37.76 43.92-3.22 3.2-5.84 7-8.7 10.56-2.61 3.24-14.57 20.83-9.12 28.38s20.25 5.12 31.27-3.06 36.26-33.82 36.75-34.25c3.84-3.39 13.68-15.67 16.85-12.83s-11.13 17-15.58 22.06c-13.23 15.31-20.25 27.21-24 34.71-2.14 4.27-7.52 17.85.18 23.88s21.35 2.17 31.42-8 23.9-27.54 33.28-38.42 17.87-15.31 23.48-14.68 31.31 1.37 61.1-1.28c38.45-3.43 87.26-13.87 113.4-22.93 28.81-10 43.71-19 65.11-32.06s42.45-33.5 51.07-44.3 11.33-19 9.61-20.63-4-3.16-6.59-1.6c-1.52.9-9.7 12.13-13 16.13-2.86 3.52-23.6 27.16-62.15 48.24-36.61 20-69.26 30.29-157 44.24-20.31 3.24-31.61 3.43-45.49 2.09s-15.35-7.88-21.6-4.33c-3.12 1.78-11.73 8-21.4 17.78s-20.41 22.92-21.47 24.12c-7.21 8.14-13 18-23.64 22.42-1.16.49-3.22.54-4-.16-.94-.87-1.26-2.72-1.33-4.17-.21-4.51 3-7.78 4.75-11.53a127 127 0 0 1 6.51-11.17c.7-1.15 30.53-38.11 34.42-42.74 3.32-4 7.37-7.28 10.83-11.12 1.68-1.87 5.23-11.21-2.14-13.84s-17.81 6.13-21.86 9c-12.4 8.64-26.09 20.21-27.41 21.51-3.59 3.53-24.15 20.64-25.51 21.88-4.24 3.86-8.2 8-12.37 12a6.82 6.82 0 0 1 -8.46 1.42 3 3 0 0 1 -1.09-4 60.79 60.79 0 0 1 5.49-9q7.73-9.71 16-19c2.66-3 27.35-30.4 29.65-33.56 3.15-4.36 6.84-8.33 10.28-12.48s9.2-8.56 6.14-13.89-28.57 4.36-43.5 14.2-42.55 29.67-45.44 31.71c-2.55 1.8-13.08 7.88-12.74 1.83s15.29-24.67 20-29.74c8-8.47 38.07-29.93 43.68-33.78 5.09-3.5 10.1-7 15.39-10.22 2.18-1.32 4.75-4.94 3.48-8.54-.78-2.2-2.26-4.55-5-4.83-2.44-.24-25.08 4.74-33.63 8-5.56 2.08-11 4.5-16.39 7-7.71 3.55-15.2 7.62-23 10.86-2.72 1.13-19.65 8.87-21.23 6s18.55-22.3 30-28.92c16.62-9.56 28.72-16.09 40.81-18.42 2.46-.47 12.85-.61 13.09-6s-11.4-7.79-13.75-8.74a134.29 134.29 0 0 1 -16.31-8.29c-1.75-1-9.12-4.9-7.93-7.43s9.27-1.49 11.7-1.39a92.18 92.18 0 0 1 9.82.8c6.6.92 13.33 1.87 19.56 4.06a122.71 122.71 0 0 1 23.83 11.47c6.89 4.19 17.76 13.12 21.2 13.59a8.45 8.45 0 0 0 3.64-.25c8.55-2.84 16-7.61 23.49-12.6a366.06 366.06 0 0 0 41-28.17c20.15-16 36.61-31.07 67.18-65.61s40.45-54.2 49.75-72.91a263.82 263.82 0 0 0 13.89-34.6c.81-3.21-.49-5.1-4-6.49-2.49-1-5.63-.25-6.86 2.15-1.62 3.16-2.79 6.54-4.16 9.83-1.17 2.84-11.56 30.16-20.11 44.42a298.07 298.07 0 0 1 -26.63 37.18c-4.81 5.54-9 11.63-13.9 17.07-6.24 6.94-29.87 31-35.74 35.65-7.71 6.1-29.74 27.78-49.12 39.83s-22.7 12.91-31.3 17.53-12.87.24-15.84-1.83c-5.65-3.94-15.63-10-31.16-15.73a136.76 136.76 0 0 0 -38.06-7.62c-13.51-.5-22.56 2.18-26.1 3.72a10.57 10.57 0 0 1 -8 .44 132.69 132.69 0 0 0 -22.4-3.69c-9.41-.62-16.11.55-21 .7-4.59.14-5 .13-7.16-3.64-4-7.13-5.77-27.42-6.57-55.91s7.93-76.76 9.5-85c1.7-9 4.09-18 6.55-26.85 3.94-14.23 20.83-52 22.74-57.63s6.9-7.47 11.58-9.53c3.39-1.49 24.43-10.84 58.15-32.88s50.29-41.43 70.5-66.89 44.46-68.45 45.16-70c3.71-8 20.63-37.29 30.53-87 7.34-36.9 5.42-80.35 4.28-101.67s-7.64-57.63-14.22-94.12c-4.93-27.36-15.76-63-22.3-80.82-2.18-5.94-4.67-13.12-9.34-11.2s-6.15 7.37-4.23 13.08c1.85 5.5 15 47.94 20.73 77.76 4 20.35 11 62.82 14 92.65a333.38 333.38 0 0 1 .19 66.33c-4.93 48-9.67 63.42-33.48 118.85-14.13 32.9-53.37 85.23-79.69 110.12s-64.09 41.92-80 51c-7.8 4.45-66.8 31.2-119.09 40.55-24.74 4.43-81.23 9.49-126.66 4.76-65.71-6.84-98.21-21.78-117.15-30.33-34.88-15.74-73.72-56.37-76-59.34-5.75-7.55-44.72-47.69-38.71-98.07s27-68.64 31.51-74.77c4.07-5.59 31.16-27.38 50.78-46.71 14.23-14 25.28-29.73 33-51.25s15.85-60 17.88-69c1.54-6.79 2.66-13.68 4.07-20.51.15-.74 1.11-2 1.47-1.89.86.19 2.07.86 2.28 1.59.54 1.87 10.33 33.72 43.49 39.91s58.42-17.04 66.45-26.34 14.27-25.19 15.56-41.34-.74-16.54 1-19.15 2.88-10.57-.55-15.19c-1.88-2.54-.61-4.21-.09-6.18a8.24 8.24 0 0 1 2.14-3.22c2.06-2.19 1.63-4.36.46-6.77s-3.42-3.66-5.56-3c-3.27.94-3.45-.12-3.73-3a3.23 3.23 0 0 1 2.38-3.66c2.87-1.1 4.52-3.58 3.61-6.11-.85-2.34-.79-6.54-5.29-5.94s-5.17 2.75-7 .26 2-5.75 2.66-7c2.07-3.6.22-8-5.13-7.1s-8.22 4.86-10.53 3c-3.26-2.58-1.19-11.24-3.73-14.46-1.89-2.4-3.54-2.77-5.38-.55-1.32 1.59-2.79 9.82-7.18 8.41s-3.68-8-3.76-11c0-2-1-2.56-2.71-3.25-1.88-.75-3.27-.7-4.32.85-2.16 3.2-4.1 6.54-6.19 9.78-.75 1.17-1.82 3.21-2.51 3.12-1.74-.23-4-.44-4.52-3a20.3 20.3 0 0 0 -1.81-4.49 15.42 15.42 0 0 0 -2.31-3.7c-2.09-2.23-3.63-2.11-4.86.74-1 2.31-1 5-1.84 7.45-.52 1.57.61 3.74-2.5 4.41s-4.59-5-4.93-6.09c-.74-2.24-2.89-2.33-4.24-2a5.06 5.06 0 0 0 -3 3.31 69.61 69.61 0 0 0 -1.47 7c-.23 1.31-.82 8.4-4.73 8.51s-2.7-4.35-3-4.89a4.73 4.73 0 0 0 -4.79-2.77c-2.59.14-2.77 2.08-3 3.76a112.69 112.69 0 0 0 .33 13.25c.29 2.7-3.67 10.22-6.52 10-3.85-.33-6.41-1.86-6.62-5.68-.17-3.23-1.77-36.65-2.76-50.75s-8-20.91-10.58-27.14c-2.38-5.81-3.81-12-5.66-18-.79-2.59-4.92-11.33-2.7-12s3.72 3.88 4.72 5.43c4.4 7.6 8.31 15.5 13.08 22.84a194.55 194.55 0 0 0 14 18.23 74.14 74.14 0 0 0 10.12 10c2.93 2.37 4.61 4.72 3.63 8.56a5.09 5.09 0 0 0 3 6.14 7.57 7.57 0 0 0 5.92-.38c6.13-3.53 12-7.48 18-11.31 2.71-1.75 5.45-2.1 8.27-.34 1.25.77 5.15 6.7 9.46 3.1s1.22-7.92 1-8.54c-.77-2.71-2.13-4.64 4.61-9.64 4-2.93 9.4-6.07 12.43-7.92 6.07-3.7 6-.56 8.91 2.77s8.31 9.67 9.76 10.45c3.41 1.84 6.27.48 7.55-3.14s.41-7-1.83-10.08c-3.68-5-7.28-10-11.14-14.89-6.1-7.66-9.46-16.55-12.39-25.74-2.87-9-6.23-17.93-9.24-26.94-1.07-3.21-6-22.37-7-27.81a11.09 11.09 0 0 1 0-1.63c.61.25 1.56.35 1.77.79a57.61 57.61 0 0 1 2.52 6.26c2.42 6.69 5 11.61 8.45 19.54s16.7 26.2 19.77 29.73c2 2.34 4.08 4.67 6.21 6.92s4.53 4.57 6.8 6.85c4 4 8 8.1 12.08 12.12a14 14 0 0 0 16.73 2.2c4.19-2.27 7.89-4.93 6.49-10.2-1.56-5.88-11-26.51-12.64-31.39-2.12-6.21-12.44-30-14.52-34.58-1.62-3.59-6.68-19.48-4-20.25s7 9.1 9.59 13.31c4.43 7.11 8.74 14.34 12.51 21.82 3.66 7.25 21.33 31.35 25.16 37.12 2.19 3.31 4.7 6.42 6.81 9.79 2.25 3.59 8.76 6.49 12.43 4.73a7.71 7.71 0 0 0 3.4-4.38c2-6.81-8.21-29.83-9.62-35.59-.85-3.5-5.24-13.12-6.58-18.25-1.15-4.41-1.15-4.41.66-5.28s2.93 1.68 3.47 2.92c2 4.55 12.92 24.9 14 26.81 2.65 4.58 13.22 21.18 15.28 25.4 1.37 2.8 4.17 4.21 7.3 4.56 4 .45 6.59-1.4 6.7-5.4.08-2.85 0-6.5-1.64-8.46-3.58-4.34-16-40.88-18-45.92-3.39-8.61-7.1-17.11-10-25.88-2-5.94-7.21-27.74-7.67-32.51-.48-5-4.52-29.37-5.38-41.32-.12-1.71-1.35-6.58.86-7.14s2.32 4.88 2.5 5.9c1.32 7.15 2.79 14.27 4.11 21.42.47 2.55 4.36 25 6.62 33.48 2 7.31 12.16 34.08 14.67 40.31 2.29 5.7 13.57 24.3 16.31 28 3.27 4.44 5.56 9.39 8.25 14.13a16.92 16.92 0 0 0 9.86 7.48c6.14 1.92 18.69 2.73 39.49 9s23.24 8.15 28.92 11c4.47 2.26 11.09 7.67 17.39 12.41 1.7 1.28 12 6 15.13 1.83s.6-7.94-3.06-10.8c-8.64-6.76-25.92-16.89-43.61-23.63-25.2-9.59-39.83-13-41.55-17.89-3.67-10.42-15.78-46.86-18.36-54.6-1.11-3.34-3.86-11.31-1.09-13.67s4.53 2.95 5.17 4.54c.83 2 1.65 4.1 2.55 6.11 3 6.68 6.15 13.28 9.1 20 1.78 4 9.71 20.56 12.7 24.32 1.27 1.6 3.06 2.49 4.74 1.39a7.78 7.78 0 0 0 3.33-4.24 12.11 12.11 0 0 0 -.91-6.48c-1.82-4.28-4.26-8.29-6.12-12.56-1.21-2.75-15.73-38.17-17.31-42.17-4.14-10.42-10.4-35.49-11.09-37.12-1.91-4.54-8.46-31-9.12-35.55-1.16-8-6.54-30.5-3-31.3s5.52 10.36 6.53 13.92c.92 3.26 5.18 16.57 6.38 20 1.13 3.23 2 6.54 3 9.82.37 1.24 6.8 21.74 9.9 30.67 2.17 6.26 4.19 12.58 6 19 2 7.07 7.74 23.37 8.34 24.53 3 5.82 6.07 11.66 9.34 17.36 2.25 3.93 6.42 3.93 8.41 0a5.19 5.19 0 0 0 -.14-4c-3.23-6.91-8.81-17.31-12.54-30.36s-5.26-17.29-8-25.89c-1.55-4.81-3.55-9.48-5-14.3-.7-2.26-7.26-23.77-9.25-31.37-.89-3.4-2.36-6.64-3.52-10-1.07-3.05-2-6.14-3.13-9.18-.75-2.12 3.82-5.43 6.87-8.58s1.3-7.51-3.69-9.21c-3.52-1.2-13-8.39-28.54-19.92s-45.61-53.27-48.74-59.26c-1.31-2.52-11.83-26.12-13.59-31.11a164.25 164.25 0 0 1 -8.15-39.89c-1.47-19.75 5.44-36.61 6.21-37.43 1.28-1.36 3-1.16 6.39.08a121.4 121.4 0 0 1 11.22 5.21c5.23 2.55 10.33 5.34 15.55 7.91 6.64 3.28 41.36 25.16 71.69 50.86s43.82 55.46 44.4 57.74c1.41 5.53 6.53 27.17 11.11 30.74 3.4 2.66 7.78 1.2 8.08-3.33.31-4.74-5.64-18.82-3.48-21.12s4.82-.45 6.42.57c4.6 2.94 36.64 24.64 71 55.38s54 56.18 58 59.95c3.54 3.32 22.66 28.66 33.13 42.75s43.64 58.38 45.88 62.11c3.62 6 23.72 36.41 33.23 51s16.47 26.61 18.3 29.39c2.27 3.44 9.06 16.25 18 31.67s26 42.3 34.76 56.73 34.68 59.2 37.92 64.79 32.59 62.8 46.49 90.28a290.63 290.63 0 0 0 31.83 49.14c2.67 3.62 17.5 25.74 21 30.94 1.91 2.86 9.44 13.08 11.17 15.41 3.56 4.76 7.3 9.4 11 14.1 3.39 4.37 6.83 8.71 10.12 13.16 4.31 5.83 20.75 27.2 24.87 31.91 3.83 4.38 10.22 11.81 18.39 20.78s16.13 19.48 24.69 30.1 14.77 19.15 18 22.84c4.06 4.66 15.08 20.66 17 23.63.74 1.17 20.81 30.44 23 34 16.59 23.9 38.43 67 39.49 69.16 1.91 3.91 3.57 7.93 5.43 11.85 2.22 4.66 13.51 34.48 17.64 43.63 3.29 7.27 24.36 73.58 30.64 95.58s30.19 115.35 20.07 232.35zm-679.43 283.17c.33-4.8 2-5.76 6.55-5 8.18 1.37 16.43 2.36 24.67 3.35 6.63.8 13.3 1.33 20 2 2.6.27 2.53 7.11 2.29 10.14-.88 11.15-2 83.15-2.54 86.86-.8 5.44.12 7.78-5.2 8.23-5.13.43-32.2-4.56-39.22-7.28-5.24-2-4.11-20.5-4.39-24.1-.53-6.4-2.27-72.35-2.14-74.19zm108.21 99.15c.63-15.88 1.59-39.84 2.05-41.32 1.58-5.08 11.79-2.82 16.83-2.08a1081.65 1081.65 0 0 0 110.18 10.3c49 2 104.58.81 105.61.82 2.23 0 2.06.75.71 2.06-2.34 2.27-57.14 29.76-60.27 31.06-2.28 1-37.43 15.85-44.11 18.61-3.45 1.43-49.09 21-84.41 20.26-26.51-.55-41.18-8.46-45.71-9.87s-1.14-22.64-.86-29.83zm-404.21-1201.13c-2-2.41-7.34-9.06-17.61-9.05s-19.8 7.58-22.31 19.08a37.4 37.4 0 0 0 -1.08 9.54c.16 3.5.29 8.71-1.4 8.2-4.64-1.39-7.25-2.5-11.16-7.34s-12.81-18.44-12.19-31.38.93-19.53 5-34.83 10.75-25.22 16.17-30.55c2.6-2.55 14.87-13.6 19.09-15.82 6.35-3.34 12.73-5.06 19.86-4.53 5.22.47 18.16 1.4 28.07 9.54s12 19.47 14.24 29.33a111.87 111.87 0 0 1 2.22 33c-.65 7.21-3.45 19.54-7.61 27.88a57.68 57.68 0 0 1 -14.66 18.22c-2 1.79-5.58 5.24-9.19 6.64-4.4 1.7-3.86-4-3-10.87s-1.81-13.85-4.44-17.06z"></path><path d="m1071.75 672c3.59-4.39.71-7.78-2.9-9.1a4.52 4.52 0 0 0 -2-.16c-2.36.27-3.43-1.3-3.65-3.11-.08-.68 6.9-5.5 8.55-7.64 1.83-2.37.26-6.66-2.62-7s-12.73 3.9-15.32 1.3-1.65-3.6.34-5.44a27.8 27.8 0 0 0 3.61-4.61 6 6 0 0 0 -.6-7.2c-2-1.91-3.94-2.57-6.24-.2a53.12 53.12 0 0 1 -6.69 5.75c-.89.65-2.72 1.15-3.39.68a5.4 5.4 0 0 1 -2-3.58c-.13-1.34.62-2.79 1.1-4.15.57-1.65 1.41-3.21 1.88-4.88 1.36-5-.51-6.91-5.32-5.44a13.74 13.74 0 0 0 -4.07 2.61c-2.22 1.75-4.26 3.75-6.56 5.37a4 4 0 0 1 -3 .11c-.33-.1-.46-1.6-.32-2.4.32-1.91 1.27-3.81 1.17-5.68-.08-1.59-.88-4-2-4.49-1.43-.66-3.81-.24-5.35.55s-4.24 8.27-10 8.32-2.44-10.76-8.29-10.7-5.7 9.84-5.78 11.08c-.25 3.62-.65 9-4.47 8.66-2.64-.2-4.5-4.39-6.18-8.9-1.59-4.27-2.47-11.45-6.71-10.8s-5.43 5.86-4.39 10a98.23 98.23 0 0 1 2.52 11.5c.45 3.37.33 6.85-2.43 9.52-3 2.9-4.86 2.5-6.3-1.37-.34-.91-.64-1.84-1-2.72-1.12-2.44-3.29-3.69-5.6-2.7-1.46.63-3.17 2.8-3.18 4.28a35.05 35.05 0 0 0 1.44 11.54c1.76 5 .84 8.68-4 10.89-.87.4-1.85.58-2.71 1-2.58 1.31-4.15 3.1-3.62 6.35a51.54 51.54 0 0 1 1.09 11.08c-.27 4.6-1.28 9-7 10.43-3 .74-3.45 2.81-2 5.84 1.08 2.31 2.18 4.63 3 7 .94 2.56 1.35 5.27-1.22 7.17a5.64 5.64 0 0 0 -2 6.63c1.56 5.06 2.53 10.42 6.57 14.45 1.16 1.16 3.55 11.76 5.13 14.79 1.94 3.71 11.69 34.06 41.81 35.21s46.38-9.16 60.18-21.26 18-25.32 20.08-35.45 2.87-33.18-2.1-41.46c-2.4-4-1.59-7.77 2-10.88a5.81 5.81 0 0 0 .54-.79zm-22.75 71.45c-8.16 13.15-24.59 17.23-27.75 18.75a8.83 8.83 0 0 1 -3.23.84c-1.87.12-3.3.52-2.36-2.78s.77-12.14-1.11-17.69c-2.75-8.12-8.73-13-16.63-14.24-13.32-2.15-19.19 6.67-21.57 14s-.91 9.35-1.31 12.09c-.42 2.92-2.3 4-4.59 2.23a23.45 23.45 0 0 1 -5.17-6.1c-2.23-3.53-10.66-16.6-10.2-40.91s5.29-36.3 10.17-44.91 19.68-29.19 47.64-25.18 42.39 37.89 44 53.23.26 37.51-7.89 50.67z"></path><path d="m976.7 222.44c-18.7-15.39-54.7-32.44-60.7-34.89-3.34-1.39-5.51-.46-6.56 2.37s.46 4.82 1.41 6.8c2.67 5.6 7.12 14.32 8.83 17.41 1.36 2.46 8.8 16.25 11.42 20.5 4.09 6.65 8.68 13 13.1 19.43 1.6 2.34 11.64 17.2 15.37 22.09 4.18 5.49 18.93 25.59 24.47 30s9.54 6.37 12.19 2.21-.68-8.11-4-12.21-23.94-27.52-29.09-34.56-18.52-26.3-20.1-29.08c-3.39-5.92-12.06-17.3-10.89-21.1s6.56.86 8.06 1.51c3.39 1.46 17.08 9.11 29 19a255.07 255.07 0 0 1 20.31 18.44c2 1.92 7.06 9.13 10.14 13.87 1 1.51 4.79 8.69 10.45 6s.69-9.73.1-10.86c-3.85-7.37-17.29-23.62-33.51-36.93z"></path><path d="m1070 598c-3.37-2.38-7.18-4.21-10.31-6.85-3.8-3.23-17.36-10.11-19.84-11.24-6.87-3.12-13.32-7.14-20.46-9.71-5-1.82-9.81-4.7-14.5-3.85-4.48-.09-8.28 2.45-8.94 5.28-1 4.14.23 6.17 4.86 8.14a133 133 0 0 1 39.41 16.53c19.22 12.32 22.2 16 28.51 19.83a18.56 18.56 0 0 0 9.5 3 6.27 6.27 0 0 0 6-3.26c1.34-2.53-.07-7.3-2.15-8.88-3.93-3.07-7.93-6.13-12.08-8.99z"></path><path d="m712.47 331.94c4 3.46 7.5 1.85 9.44-3.08 1.69-4.27.37-7.15-2.52-9.79s-5.85-4.59-8.57-7.11c-4.58-4.22-9-8.6-13.44-13q-6.24-6.19-12.3-12.55c-1.73-1.82-20.38-16.15-21.2-16.93-4.49-4.22-9-8.49-13.6-12.55-1.63-1.41-7.18-3.89-10.34-1s-3.24 5.65-.66 9.88a44.67 44.67 0 0 1 3.75 6.77c3.1 8 5.87 16.05 9 24 1.35 3.43 3.09 7 6.88 5.85s2.77-5.65 1.84-9.17c-.49-1.82-1-3.63-1.57-5.44-.38-1.27-3-5.1-.93-6.36s4.7 2.42 5.81 3.22c2 1.43 11.5 10.21 13.56 12.22 1.13 1.1 2.21 2.25 3.33 3.36 4.94 4.87 9.88 9.75 14.85 14.58 3.84 3.73 7.79 7.32 11.57 11.11 1.83 1.91 3.15 4.31 5.1 5.99z"></path></g></svg> 