<?xml version="1.0" encoding="UTF-8"?> <svg xmlns="http://www.w3.org/2000/svg" viewBox="0 0 2400 2400"><path d="m1555.44 273.74c1.07-1.78 11-46.14 11-46.14l2.49-53.94-14.2-77.36-21.29-21.65-19.16-2.13-19.17 10.65-11.71 23.07-18.4 48.26-10.65 35.13-98.35-4.63-24.48-1-7.81-22.71-16.33-39-39.74-33-28-5.68-22.71 17-11 53.94s-5.68 86.23-5.32 87.3 2.48 31.23 2.48 31.23l-19.52 16.68-8.16 16-16.68 46.13-8.87 22s-36.2 17-36.2 18.46-2.48 22.35-2.48 22.35l23.77 65.66-22.75 140.45-43.65 194.47-46.49 241.32-41.16 190.57-25.55 125.62-15.62 96.53-4.61 111.43 8.88 124.56 12.06 72.4 28.4 82.33 29.1 48.26s38 40.46 40.1 42.94 38.32 34.07 37.61 36.2-6 19.17-6 19.17l-36.91 35.13-85.17 60-98.3 42.94s-71.33 16.33-72.75 17-56.42 8.51-58.91 7.8-22-16-22-16l-24.84-32.65-45.78-29.1-58.2-19.52-53.94 5.32-13.84 13.13-11.71 13.49-34.78 17s1.42 15.26 0 16-23.42 5.32-23.42 5.32l-9.59 8.52s1.78 12.78 2.84 13.84 14.2 26.62 14.2 26.62l-16 17.39 13.83 15.66 25.2 14.91 10.29 3.54-1.42 16 8.16 10.3 24.49 3.54 69.55-.35 46.14-14.2 46.49-23.06 41.87-21.3 34.78.71 57.84-7.8 69.56-18.1 92.27-31.23 68.84-33.36 65.66-40.81 20.93-7.81 9.23 15.26 10.65 60.69 11.35 74.52s14.55 19.16 15.62 19.52 76.3 29.1 76.3 29.1l110.36 10.64 71 .71 44.36-4.61s12.07-16.32 12.78-18.1-1.07-20.58-1.07-20.58l-26.23-31.26-44.36-40.1 1.06-109.66 36.56-7.1 18.45 1.42 5.32 15.62 6.75 71 11 41.17 18.45 13.13 60.69 12.42 79.84 6 77.72-4.25 45.78-14.55 11.36-13.84-1.78-10.3-26.26-23.42-38.68-23.07 2.48-41.16 14.55-39.75s5.33-38 6.39-41.52 7.1-44 7.1-44l11-31.23 28-34.78 31.22-51.81 36.56-77.37 12.77-60.68s7.1-78.07 7.1-80.91-1.42-63.17-1.42-63.17l36.2-24.13 27.68-25.91s13.84-19.16 14.19-22 .71-46.49.71-46.49l-11.35-52.88-34.08-50.74s-50.75-50-51.81-52.17-65.66-61.39-65.66-61.39l41.17-22.36 57.85-38 37.26-50.75 31.94-60.69 6.38-56.07-5.32-40.81-41.87-60.68-66-57.14-85.88-83.39-23.78-29.46s-14.55 5.68-14.55 3.91-30.16-64.24-30.16-64.24l-1.07-67.42-24.84-80.21-31.58-87.3-34.78-104.33-19.53-29.81z" fill="#fff"></path><path d="m1356 185-20.76 9.58 5.86 29.81s76.65 84.11 77.72 85.7 17.56 12.25 20.76 12.78 33.53-8 33.53-8l51.64 20.23s16.5-15.44 20.22-15.44 50 9.05 50 9.05 18.1-11.71 21.29-12.24 63.35 3.19 63.35 3.19l19.7-26.08-60.16-8-62.28-31.41-70.26-43.12-83.58-21.82z" fill="#fef065"></path><g fill="#0e5256"><path d="m1195.23 1907.81 4.48-1.21c0-3 .9-6.31-.14-8.85-6.29-15.24-12.29-30.85-19.29-45.76-3.08-6.56-8.17-12.9-15.28-14.34-4.41 6.77-2.12 15.94 2 22.88 5.37 9 11.52 17.53 16.9 26.57 4.04 6.75 7.57 13.8 11.33 20.71z"></path><path d="m1281.34 184.53c-1.62-4.46-6.29-12.76-11.75-12.83-2.77 0-5.39 1.32-7.64 3-10.87 7.93-14.89 22.25-16.2 35.64-1.11 11.29-1.5 85.88 14.84 85.7 3.89 0 9.69-3.57 11.23-7.11 5.09-11.63 11.6-20.38 24.4-24.79 3.47-1.2 7.26-10.44 6.09-14.67-6.04-21.94-13.21-43.57-20.97-64.94z"></path><path d="m1441.63 520.09c-21-7.23-73 15-82.43 35.09-1.1 2.36-1 5.29-2.2 12.58 10-4.7 16.46-7.93 23.06-10.74 12.28-5.23 24.53-10.6 37.06-15.18 8.48-3.11 17.56-4.55 26-7.66 2.31-.84 4.85-5.17 4.61-7.65s-3.49-5.53-6.1-6.44z"></path><path d="m1135.5 1852.48c-1.71-.35-3-.44-3.94 1 2.1 7.32 7.32 13.75 11 20.34 4 7 7.16 14.89 6.36 22.89-.17 1.66-.74 3.59-2.33 4.11a4.36 4.36 0 0 1 -2.91-.37c-14.19-5.65-21.78-23.85-28.46-36.42-4.83-9.09-9.17-16.66-20.42-19.88a17.66 17.66 0 0 1 -6.22-3.52c-2.52-5.33-5.09-10.65-7.21-16.14-6.4-16.55-10.82-34.52-16.51-51.42-9.27-27.47-12.85-55.66-18.4-83.95-6.37-32.48-14.42-64.7-19.29-97.4-7.47-50-14.72-100.7-18.85-151.08-.56-6.79-2.6-14.09-8.16-18-4.58 1.8-5.05 8-4.76 12.91 2.17 36.35 1 75 8.18 110.81 4.39 35.31 12.11 70.26 19.48 105.13 8.22 38.88 17 78.32 28 116.51 8.16 28.34 5.95 84.31 39.61 97.43.33.55.65 1.12 1 1.67 22.27 37.87 56.78 61.13 95.55 79 4.8 2.21 12 2.89 16.7.9 10-4.27 20.54-8.69 29.09-15.49 7.15-5.69 13-13.65 14.08-22.72.92-7.49-1.36-15-3.62-22.16l-20.73-66.16c-1.27-4-2.52-8.45-1-12.37 2.15-5.4 8.88-7.57 14.65-6.92s11.1 3.33 16.72 4.83a41.42 41.42 0 0 0 33.89-6.01c7-4.85 12.61-12.74 11.93-21.21-.53-6.58-4.73-12.31-9.49-16.88-8.09-7.77-18.15-13.27-26.17-21.11-12.37-12.09-19.1-29-22-46.06s-2.23-34.49-1.84-51.78q1.29-57.48-1.36-115c-.14-3.1-.34-6.36-2-9s-5.33-4.25-8-2.64c-2.24 1.36-2.86 4.27-3.21 6.86-5.15 37.67 1.22 75.86 1.55 113.88.17 19.74-1.29 39.58 1.32 59.15s9.81 39.33 24.43 52.58c9.52 8.62 22.54 15.25 25.8 27.66a6.8 6.8 0 0 1 0 4.54c-.81 1.77-2.75 2.69-4.58 3.31-19.88 6.79-40.76-5.05-61.45-8.64-2.71-.47-5.75-.73-8 .91-3.23 2.38-2.91 7.22-2.21 11.18a781 781 0 0 0 25.4 103.34c2.07 6.49 4.25 13.39 2.56 20s-9 12.23-15.24 9.52c-5.62-2.44-7.09-9.52-8.62-15.45a69.45 69.45 0 0 0 -16-29.38 5.72 5.72 0 0 0 -2.23-1.71c-2.14-.73-4.43 1.3-4.84 3.53s.46 4.47 1.32 6.57l11.55 28.29c1 2.36 1.95 5 1.14 7.42-4.61 13.72-28.58-14.24-31.08-18.24-7.52-12-11.88-25.51-18.66-37.85-1.72-3.13-3.49-6.33-6.19-8.67a12.14 12.14 0 0 0 -5.33-2.64z"></path><path d="m1818.66 1219.56c51.51-21.16 90.85-57.16 122.63-102.22 12.47-17.68 18.34-38.12 26.93-57.44 19-42.82 11.52-83.27-4.82-121.82-9.82-23.19-29.16-43.61-47.83-61.52-32.36-31.08-68.56-58.15-101.13-89-20.92-19.83-38.41-43.31-56.92-65.59-2.5-3-2.85-8.56-2.71-12.88 1.08-32.72 3.6-65.45 3.09-98.13-.12-7.64-8.7-16.89-15.74-22.38-26.51-20.69-43.68-47.91-56.14-78.18-14.15-34.36-26.75-69.35-40-104.09-7.36-19.36-14.41-38.83-21.92-58.12-5.84-15-2-20.64 13.88-18.34 30 4.35 55.6-7 79.64-22.57 6.9-4.45 11.29-12.79 16.82-19.35l-2.6-4.12c-25.9-1.5-52-5.73-77.63-3.78-27.87 2.13-73.47-27.88-80.36-50-4.6-14.76-2.13-32-1.42-48.08 1.47-33.77-2.44-66.38-17.5-97.06-13.19-26.89-37.1-29.8-63.6-6.89a53.27 53.27 0 0 0 -14.33 20c-8.39 21.22-15.42 43-22.85 64.57-4.25 12.33-12 19.71-25.75 19.1-26.15-1.15-52.29-2.7-78.45-3.36-13.11-.33-19.41-3.36-23.27-18.64-6.68-26.67-22.26-49.67-42.54-69.28-9.54-9.19-17.74-17.48-32.83-16.5-19.84 1.29-31 8.36-38.62 26.8-19.36 46.56-19.12 95.44-18.43 144.5.1 6.87.39 15.25-3.13 20.39-18.19 26.61-28.84 56.4-38.89 86.52-3.66 11-9.83 15.37-22.26 14.53-28.28-1.91-44.11 20.46-33.89 46.76 9.44 24.27 20.33 48 28.9 72.57a29.83 29.83 0 0 1 1.1 4.1c-4.07 12.51-4.64 28.58-7.19 41.09q-11.4 56-22.81 112l-18.31 89.85c-1.27 3.25-2.7 6.49-3.18 9.86-.84 5.91-1.64 11.81-2.44 17.73l-21.42 105.12q-12.6 61.83-25.19 123.67-10.18 49.94-20.35 99.87-13 63.95-25.89 127.92a187.78 187.78 0 0 0 -5.61 22.07c-1.85 10.64-3.51 21.32-5.09 32q-2.15 11-4.28 22c-10.39 53.66-23.7 108.09-29.4 162.48-1.49 14.14-2.15 28.36-2.82 42.57-2 42.7-5.22 85.5-4.23 128.27 1.29 55.93 9.32 111.57 25.65 165.92 12.59 41.88 28.53 81.91 54.73 116.55 17.16 22.7 39 42 59.29 62.19 18.42 18.34 21.08 24.12 3.33 42-35.16 35.42-78 63.4-122.92 85.83-23 11.51-46.68 21.74-70.5 31.49-25.34 10.37-50 15.4-76.77 20.74-19.17 3.81-38.62 6.14-58 9.1-10.58 1.62-19.11-.57-26.29-9.84-21.22-27.43-44.24-53.21-76.57-68.11-33.9-15.63-69.58-18.28-106.07-12.62-5.69.88-11.08 4.53-16.7 4.78-19 .87-30.39 10-36.9 27.92-1.95 5.36-10.16 8.29-15.19 12.69-5.89 5.15-22 14.35-18.21 24-1.64-4.15-19.88 9-21.5 10.64-17.49 17.53 18.94 23.34 15.3 39.09-1.49 6.43-8.41 7.65-13 11.3-14.25 11.27 7 29.59 16.72 33.87 3.3 1.46 23.29 5.6 24.3 7.34.36.61.75 1.25 1.19 1.91a4.56 4.56 0 0 1 .45 3c-8 6-17.89 8.28-10.93 17.11 8.86 11.25 27.37 14.22 40.75 14.59 29.79.81 59.87 3.07 89.3-.19 20.13-2.22 39.91-11.46 58.85-19.81 19.2-8.48 37.1-19.85 55.73-29.68 4.74-2.5 9.9-5.12 15.1-5.7 24.11-2.64 48.3-4.48 72.42-7.13 22.58-2.48 45.57-9.43 67.72-15.09 76.34-19.5 145.29-50 214.57-86.81a285.58 285.58 0 0 0 34.62-21.81c13.46-9.78 23.83-6.42 26.44 10.33q9 57.75 17.06 115.66c2.35 16.81 11.89 28 26.05 35.87 29.49 16.35 62.15 21.4 94.51 29.23 59.47 14.4 121.65 7.43 182.18 8.53 7.8.14 15.88.28 23.05-2.8 25.25-10.89 29.81-44.86 11-63-16.41-15.87-34.27-30.25-51.64-45.11-8.55-7.32-11.6-15.85-11-27.48 1.15-22.83.22-45.77.33-68.65.05-10.41 2.86-19.29 15-20.93 15.63-2.12 30.56 4.32 33.71 15.3a106.1 106.1 0 0 1 4.15 25.69c.58 19.06-.65 38.2.48 57.21.42 7.24 3.86 15.31 8.34 21.15 17.09 22.29 43.13 31.4 70.43 32.79 42.16 2.15 85 9.2 127.73 8.54 21.8-.34 43.73-2.66 64.67-9 16.82-5.08 45.48-14.69 55-30.82 3.54-6 .53-12.63-4.59-16.51-14-10.63-28.81-20.79-44.61-28.41-21.44-10.32-26.85-22.35-21.4-45.1 5.65-23.62 12.81-47.49 17.27-71.23 4.56-24.28 3.12-49.69 11.69-73.16 9.63-26.37 30.82-44.4 46.12-67 28.76-42.45 50.86-90.85 62.93-141.21 6-25.07 8.2-50.47 11.71-75.93 4.12-29.91 7.18-60.2 4-90.36-1.29-12.35 3.28-19 16.65-23.06 20.55-6.17 33.88-22.83 46.9-39.49 10.92-14 15.56-28.4 12.6-45.89-1.24-7.28-.37-15-.17-22.44 1.13-44.66-18.82-81.56-45.75-114.32-1.52-1.84-3.09-3.63-4.7-5.4a23 23 0 0 0 -3.36-5c-21.49-25.16-46.53-51.72-74.81-69.32-3.08-1.92-7.19-4.44-11.82-7-2.65-2.37-5.31-4.71-8-7-8.86-7.68-10.5-11.75 2.16-16.95zm-113.09-548.87a4.64 4.64 0 0 0 2.86-.64c2.74-1.7 2.72-5.62 2.37-8.83-.9-8.42-2-16.76-3.2-25.14-.94-6.47-5.2-16.1-2.54-18.65 4.88-4.67 14.23-7.7 20.84-6.53 4.78.86 10.75 9.22 11.62 14.94 2.64 17.36 1.22 36.11 1.76 53.7.21 6.84.41 13.76-1.13 20.42-4 17.34-23.71 27.21-40.43 23.79-2.6-.53-5.31-1.47-6.88-3.61-4.3-5.84 2.55-12.91 3.41-18.85.89-6.12-.9-13.64-4-19.06s-9.84-8.32-14.15-13.09c-8.15-9-23.5-9.54-37.79-1.32-21 12.06-3.09 23-4.91 39.79-.58 5.42-2.52 16.25-8 16.61-2.66.18-8.53-4.69-10.78-6.26-7.48-5.24-11.13-11.45-14.21-20.22-7.14-20.29-3.14-41.93 4.6-61.41 9.31-23.42 51.26-37.37 72.11-22.87 3.07 2.13 5 6.51 6.44 10.24 5 12.74 9.59 25.63 14.37 38.44.88 2.38 1.82 4.85 3.65 6.62a6.9 6.9 0 0 0 3.99 1.93zm-238-498.9c4.84-15.34 12.09-30.28 14.46-46 2.92-19.38 12.5-32.15 27.61-43.36 9.33-6.94 15.42-6.14 22 2.12 16.44 20.62 23.39 46.67 27.23 72.3 3.06 20.46 14.16 53.9-4.17 70.37-1.21 1.09-10.34-3.06-11.88-6.56-6-13.64-8.7-25.78-9.38-41-.42-9.32-2.8-26.5-16.16-19.52-7.55 3.94-8.21 15.07-9.61 22.42-2.12 11.18-8.65 18.66-20.41 17.48-10.5-1.04-22.44-19.35-19.64-28.25zm-119.68 33.9c1-3.67 8.42-6.52 13.49-7.9 33.34-9.13 65.32.23 97.21 8.38 14 3.58 27.68 8.43 41.32 13.23a130.22 130.22 0 0 1 21.68 9.74c7.85 4.52 14.77 10.66 22.61 15.2 11 6.38 23.32 10.8 33.63 18.09 25 17.65 52.9 27.88 81.91 36 3 .84 6 1.87 8.92 2.8-.19 1.38-.37 2.75-.56 4.13-21.68 1.83-43.5.51-63.6-8.36-19.42-8.57-37.52-20.13-56.23-30.34-1.45-.79-3.14-1.8-4.63-1.68-3.13.25-6.85.37-9 2.14-1.22 1-1 6 .47 7.75 7.26 8.69 14 18.37 23 24.82 9.25 6.62 20.89 9.92 31.9 14.86-9.43 6-32.87 2.27-42.14-5.18-13.82-11.1-27.9-21.91-42.39-32.09-3-2.14-9.16-2.51-12.41-.86-2.42 1.24-4.67 8.75-3.26 10.54 6.29 8 13.92 15 21.05 22.36 3.39 3.5 6.74 7.05 10.11 10.57-5.3.47-11.64 3-15.69 1a145.93 145.93 0 0 1 -29.03-18.89c-15.18-12.85-29-27.38-44.23-40.11-3.61-3-10.87-1.64-16.45-2.28.12 5.71-.32 11.52.64 17.09.4 2.38 3.75 4.24 5.74 6.36q11.86 12.62 23.71 25.25c-6.42 2.49-12.36 3.62-15.58 1.18-15.41-11.69-31.8-22.81-44.52-37.08-13.2-14.82-22.93-32.81-33.44-49.88-2.98-4.88-5.57-11.96-4.18-16.84zm-181.38 148.22c2.77-14 5-28.69 11.06-41.35 4-8.43 13.94-18.73 22-19.44a10.48 10.48 0 0 1 3.43.18c-.2.58-.41 1.2-.61 1.89-2.67 8.9-4.52 27.67 5.48 32.94 12.72 6.69 4.14-29.38 4-34.07-1.29-35.26-3.75-70.68-1.7-105.81 1.64-28.08 1.38-57.14 15.85-83.43 8.58-15.59 21.55-21.68 37.09-12.89 26.33 14.88 40.73 40.39 51.72 66.54 7.62 18.13 8.08 39.25 11.94 59a37.31 37.31 0 0 0 3.72 10.46c23.32 42.83 57.84 74.74 99.24 99.33 10.58 6.28 21.46 12.12 33.52 14.95 9.38 2.2 5-7.62 4.43-12-1.62-12.42 31.92 3 37.21 5.45s10.65 5.43 16.43 6.82c8.38 2 26.72 4.85 33.24-1.45-3-4.07-7.62-7-12.07-9.44 1 .52 8.24-2 9.91-2.12a33.1 33.1 0 0 1 13.34 2c7.73 2.9 12.9 9.42 21.35 10.82 2.51.41 5.25.42 7.38-1a34.09 34.09 0 0 1 2.87-2.11c5.68-2.86 8 5.42 8.34 9.19a25.46 25.46 0 0 1 3.64 6.6c10.92 27.7 22.67 55.06 33.81 82.67 5.64 14 10.65 28.26 16 42.4 5.76 15.27 11.76 30.45 17.18 45.84 1.7 4.82 1.85 10.18 2.7 15.28-5.14-1-10.49-1.42-15.39-3.13-16.56-5.77-32.8-12.54-49.58-17.58-8.33-2.47-13.46 5.49-6 10.93 23 16.76 50.24 19.94 76.21 29.68 3.45 1.29 6.84 7.06 7.06 10.94.12 2.31-5.83 6.87-9.33 7.18-30.55 2.66-61.16 4.75-91.78 6.66-18.63 1.16-22.33 6.66-14.95 23.58 5.45 12.53 1.75 19-11.91 19.78-8.26.48-16.65-.62-24.86.21-16.08 1.64-18.43-.59-20.37-16.73-.61-5-5-13.09-8.71-13.75-22.71-4-45.66-7.53-68.66-8.85-22.79-1.32-46 2.15-68.56-.2-19.52-2-32.09 5.45-44.63 18.39-21.84 22.55-35.69 21.36-51.76-5.84-11.11-18.8-18.92-39.54-28.27-59.37-26.74-56.75-53.69-113.41-80-170.37-2.52-5.27-2.19-12.69-1.01-18.78zm278.12 321.35c-7.73-2.33-15.81-3.49-23.19-.64a29.79 29.79 0 0 0 -13.1 10.76c-4.54 6.35-7.26 14.27-6.19 22 .84 6.08 10.83 23.15 5.8 28.69-2.76 3-21 1-23.6-2.83-12.86-19.06-22.3-40.13-12.85-64.27 2.88-7.34 5.87-14.67 8.07-22.23 4-13.56 14.59-19.83 28.42-19.62 11 .17 22.8-2 33.57.92 5.36 1.46 10.13 3.87 13.37 8.55 3 4.29 2.49 12.56 8.49 13.95 2.37-4.68 14.9-30.81 21.16-21.09 13 20.24 9.75 46.4 10.59 69.45.2 5.47.38 11.09-1.41 16.27-1.57 4.54-11.08 19.84-17.3 18.52-7.21-1.53-6.41-17.88-6.13-23 .46-8.25 1-17.32-4.06-23.89-3.58-4.69-9.33-7.13-14.86-9.2-2.21-.84-4.48-1.6-6.78-2.34zm375.35 582c23.2 17.93 44.43 38.24 65.61 58.52 14.24 13.63 27.15 25.71 37.78 42.71 10.41 16.66 23.75 35.46 28.44 54.62 5.12 21-.13 42.65.19 63.85.39 26-25.33 53.86-50.66 61.68-12.86 4-18.53-.56-22.59-13.26-6.74-21.05-15.86-41.34-23.86-62-3.88-10-8.14-19.82-12-29.88-8.47-22.25-18.27-43.74-27.93-65.46-4.34-9.74-1-15.34 9.2-18.9 7.89-2.76 11.82-10.57 2.3-14.16-9.28-3.51-22.15 6.76-29.93 10.45-2.67 1.26-48.14 16.38-46.57 8.93 1.53-7.19 3.3-14.83 8.59-19.93 3.88-3.74 9.15-5.59 13.8-8.33s9.07-7.12 9-12.51c-5.91-1.78-12.44.14-17.53 3.62-6.58 4.5-10.94 14.49-18.06 17.74-3.21 1.46-14.33 7.5-17.84 6-5-2.21-4.08-11.74-2.67-16 4.93-14.75 18-16.48 28.52-25.43 12.45-10.65 3-18.67-9.27-11.61-6.78 3.89-11.09 11.59-17.83 15.79a27.16 27.16 0 0 1 -18.55 3.67c-9.16-1.71 21-34 22.68-35.76 2.23-2.39 2.47-7.37 2.4-10.39-15.8.74-22.07 19.73-36.51 24.51-1.76.59-3.88.94-5.32-.23s-1.53-3.6-1.26-5.58a57.38 57.38 0 0 1 17.81-34.2c13.16-12.12 29.48-15.7 46.82-14.37a166.28 166.28 0 0 1 36.51 6.92c8.05 7.27 21.49 13.39 28.75 18.99zm-58-42.43c-44.3 5.13-88.19 10.26-132.93 9.8-23.23-.23-46.52-1.68-69.63-4.07-15.82-1.63-31.58-5.07-47-9-15.15-3.89-29.91-9.33-44.75-14.33-112.08-37.76-197.74-107.34-252.88-212.53-8-15.2-14.4-31.14-20.71-47.1-4.45-11.27-8.26-30.46-16.42-39.35-6.86-7.48-19.92-6.75-15 6.13 38.12 99 90.92 187.42 181.86 247.73 44.12 29.25 91.35 52.44 142 67.57 45.42 13.58 92 21.09 139.93 16.36 15.26-1.51 30.73-1.08 46.11-1.19 15-.1 14.66 13.41 11.06 24.34-3.66 11.12-17.85 25.3-6.8 36.24 5.74 5.69 6.24-1.37 12.47.91 5.92 2.16.66 12.86 3.85 18.52s15.35 16.62 19.49 4.35c-3.11 9.21-1.83 17.47 4.25 24.78 1.74 2.1 14.43 14.57 17.62 8.57-3.4 6.39 1.48 16.45 7.5 19.67 11.3 6 28.59-2.43 39.71-5.39a18.88 18.88 0 0 1 6.89-1c6.3.69 9.14 7.8 11.88 12.61 12 21.17 22 43.41 32.07 65.57 9.83 21.64 22.94 42.89 27.37 66.45 14.3 76 19.27 150.55 2 226.71-11.21 49.34-39.42 97-65.06 140.12-7.68 12.92-15.82 25.58-24.72 37.7-8 10.92-18.45 19.41-20.54 33.2q-1.14 7.44-2.27 14.87a28.63 28.63 0 0 0 -.43 7c-5.34 27.18-9.88 54.53-15.92 81.55-4 17.69-10.38 34.84-15.88 52.18-7 21.92-3.28 28.33 16.88 37.54 14.67 6.69 35.44 15.68 46.75 27.38 4 4.17 6.27 10.62 3.88 15.9s-8.31 7.73-13.77 9.53c-35.94 11.82-74.29 14.3-112.12 13.81a745.43 745.43 0 0 1 -75.85-4.87c-24.17-2.79-43.49-7.07-65.44-17.45-11.62-5.49-19.3-15.57-20.66-29.33-2.65-26.8-5.77-53.56-8.09-80.38-1.79-20.76 26.28-20.07 39.35-26.38a6.28 6.28 0 0 0 2.82-2.13c1.24-2-.2-4.86-2.33-5.94s-4.65-.91-7-.72c-10 .8-20.24 2.41-30.24 2.41-15.28 1.53-30.45 4.29-45.74 5.41-27.34 2-8.66-24.56-24-32.69-8.49 8.82-7.13 20.68-7.93 31.84-1.22 16.92-4.29 34.28-3.41 51.16 1 18.43 2.67 36.67 1.77 55.16-.29 6.09-.81 12.3.71 18.2 2.07 8.05 7.81 13.32 13.88 18.53a558.27 558.27 0 0 1 54.9 53.74c9.66 10.93 1.11 28.67-13.83 32.14a101.94 101.94 0 0 1 -24.74 2.93c-43.2-.79-87 1.8-129.41-4.32-42.64-6.14-86.45-11.84-125.68-33.38-12.92-7.1-18.63-17.81-20.73-30.69-7.35-45.08-13.87-90.3-20.8-135.44-2.24-14.57-11.35-18.42-22.64-11-23.89 15.65-47.81 31.32-72.57 45.5-23 13.15-46.74 25-70.75 36.17-60.19 28-124.12 46.67-189.91 54.41-21 2.47-43.19-2.24-63.39 2.51-18.56 4.36-36.56 15.16-52.33 26.54-33 23.82-69.25 34.84-109.36 35.12-13.32.09-26.66.35-40 0-6.59-.17-13.59-.44-19.58-2.78-4.78-1.88-8.3-7-12.38-10.64 5-1.57 9.94-3.89 15.07-4.56 11.1-1.44 22.44-1.34 33.4-3.37 3.65-.67 6.46-5.91 9.66-9.06-3.4-2.47-6.71-6.92-10.22-7.08-23.14-1.09-44.43-.15-66.74-5.63-6.46-1.59-13.23-1.39-19.78-2.55a5.84 5.84 0 0 1 -2.67-1c-1.1-.89-1.44-2.41-1.71-3.8-.81-4.18-1.23-9.39 2.27-11.81 1.72-1.18 3.94-1.3 6-1.38 26.59-1 54.62 1.11 80-7.42 16.89-5.68-3.65-10.69-10.85-10.45q-24.51.84-49-.66c-8.82-.54-19 .26-26.45-5.4-3.5-2.67-5.89-6.51-8.19-10.26s-4.75-8.73-2.41-12.59c2-3.24 6.31-4 10.1-3.95 9.42 0 18.62 2.61 27.69 5.16 17.06 4.8 35.37 12.88 53.27 11.81l13.11-.79c3.29-.2 6.82-.48 9.39-2.55s3.36-6.6.66-8.5a8.25 8.25 0 0 0 -4-1.1c-16.76-1.73-31.74-8.11-48-11.17-1.17-.22-2.91-.51-4.85-.72-4.8-1-9.9-1.73-13.37-4.47-3.82-3-7.23-9.58-6.7-14.1.36-3.23 7.45-7.84 11.72-8 29.66-1.49 58.93 1.82 88.65-1.57 1.6-.18 3.44-.55 4.16-2 1.2-2.4-1.86-4.69-4.45-5.41-16.89-4.72-32.63-1.55-47.87-12.39a3.26 3.26 0 0 1 -1.48-1.76 3 3 0 0 1 .83-2.34c3.64-4.58 10-5.83 15.79-6.5 41.6-4.79 84.35 3.76 118.28 29 14.65 10.92 28.4 25.58 37 41.54 14.27 26.6 35.22 27.05 59.19 21.84 44.73-9.73 89.78-17.32 132.89-33.23 78-28.75 151.67-78.9 205-142.93 8.89-10.74 2.13-18.07-5.72-25.4-19.71-18.42-40.87-35.62-58.39-55.94-31.21-36.21-54.68-77.25-63.91-125-8.19-42.39-18.21-84.66-22.67-127.48-5.35-51.44-3.79-103.25-2.5-154.85.6-24.18 1.77-49.67 5.16-74.14 3.48-25.07 11.33-48.62 16.83-73.17s10.5-49.45 15.6-74.15c10.47-50.73 20.24-101.63 32.23-152 2.38-10 4.71-20 6.88-30 9.94-45.83 20-91.65 29-137.67q2.73-13.86 5.34-27.75 6.08-29.43 12.06-58.86c9.13-44.94 18.12-89.91 26.58-135 5.58-29.76 10.94-59.57 16.29-89.38q14.67-81.58 29.32-163.19a22.82 22.82 0 0 0 .33-4.62 27.63 27.63 0 0 1 1.28-2.76c5.49-10.35 6.86-19.12.89-29.22-6.08-10.29-12.54-20.5-17.15-31.44-2.29-5.43-2.29-12.94-.44-18.56 1-3 9.19-6.64 12.16-5.37 4.85 2.09 9.3 7.33 11.78 12.31 12 24.09 23.32 48.53 34.85 72.86 13 27.38 24.58 55.5 39.22 82a559.19 559.19 0 0 0 45 68.27c13.28 17.4 30.13 32 44.6 48.6 4.84 5.54 10.63 13.53 10.12 19.93-2.67 33.76 21.41 57 51.81 58.22 34.23 1.39 69.11 7 102.69-5.3 10.49-3.84 21.1-8.07 30.42-14.06 4.84-3.11 8.69-10.07 10-15.94 4.28-19.4 7.14-39.11 10.64-58.69 1.67-9.36 5.44-17.32 16.67-16.45 11.81.92 22.91 2.4 25.46 18.24a343.19 343.19 0 0 0 12.57 53.09c6.65 20.11 15.53 24.38 36.61 24 28.3-.46 56.67.74 84.92-.55 11-.5 21.72-6.67 32.85-8.6 6.35-1.11 15.77-1.45 19.56 2.23 27.91 27.07 54.2 55.82 82.07 82.92 28.87 28.07 61.41 52.73 87.87 82.81 73.78 83.88 20.59 202.33-55.08 264.24-27.94 22.87-60 34.48-95.44 38.51-5.04.53-10.11 1.12-15.11 1.7z"></path></g></svg> 