<?xml version="1.0" encoding="UTF-8"?> <svg xmlns="http://www.w3.org/2000/svg" viewBox="0 0 2400 2400"><g fill-rule="evenodd"><path d="m1617.12 785.49-11.18-33.49 43.12-17-13.13-9.58 8.51-10.29s72.4-29.45 74.17-30.52 61-42.23 61-42.23l32.65-26.26s11.71-16 12.77-17 26.27-20.94 26.62-22 5.32-24.84 5.32-24.84l-23.77-3.19-48.62 8.16-74.88 3.55-78.07-7.1-99.37-22-121.72-20.23-45.78-76.3-36.91-86.59-20.85-57.88-27.68-107.89-23.77-68.13-19.88-18.46-21.67 2.49-48.27 27-70.26 49-29.1 34.43-17.37 39.33s-30.52 100.07-30.52 101.14-28.39 109.65-28.39 109.65l-18.46 80.92-11.71 66-47.2 46.49-14.55 63.17-.71 56.43-23.06 29.81-57.51 48.14-76.64 51.22s-42.58 32.65-44.36 33.71-42.58 20.23-42.58 20.23l-5 13.49 17 5.68 106.82 15.61 95.11-.71 45.07-4.26 16.32 27.33 37.27 50.75s23.42 19.16 26.61 19.16 21.65 2.13 21.65 2.13l49.68 44 56.43 18.1-34.07 29.1-48.26 54.3s-22.36 51.81-21.65 53.94-2.49 16.32-1.07 15.61 30.17-24.84 30.17-24.84l-8.16 46.49s-1.42 35.13 1.77 31.23 33.36-63.88 33.36-63.88l35.49-51.45s25.19-28.39 26.26-29.1 19.87-9.94 19.87-9.94l6 4.26-20.88 31.62-28.75 43.3-19.52 49-1.77 18.1 20.23-6-9.23 44.36s5.32 41.87 3.55 39.74-50.39-43.65-50.39-43.65l-41.17-37.26-31.94-27-16.68-4.61-10.29-24.49-9.58-94.4s4.61-51.1 4.61-52.17-5-21.29-5-21.29l-12.77-1.06-8.52 5.68-15.58 29.75s2.48 38.68.35 35.84-23.78-37.62-23.78-37.62-20.58-32.29-22-31.94-29.81-27.28-29.81-27.28l-10.64-8.17-29.81-27.68-29.1-3.55-22.72 10.65-30.16 18.75 2.84-14.91 11.35-26.26 5-20.58-7.8-7.1-18.46 12.07-11.35 20.58-14.55 23.42-8.2 22.78-2.13 24.13 7.81 36.2s14.91 10.64 14.91 11.71 4.26 23.77 4.26 23.77l12.06 26.19s63.52 89.08 64.59 89.43 12.04 22.74 12.04 22.74l-8.16 5 11 43.3 27.33 51.1 23.78 55s9.58 24.13 7.8 24.13-38.32-6-38.32-6l-59.6-5.7-32.3 85.17 34.78 183.47 1.78 33.36-1.42 53.94-7.46 50-21.64 33.36-28 30.16-25.57 19.54 13.13 26.26 34.42-7.81 27.66-12.45 20.23 11 36.91-14.19 19.52-165.37s-3.91-34.07-3.2-35.85 7.46-19.87 7.46-20.94 5.32-8.87 5.32-8.87l19.87 20.59 19.17 29.81 12.06 31.58 30.88 54.65 29.1 38 16.32 27 1.06 52.17-17 52.17-24.91 44.31s-42.94 19.52-45.78 20.23-57.14-2.49-56.07-1.78 11.4 30.49 11.4 30.49 74.16 9.58 76.65 9.23 51.8-30.49 51.8-31.91 27-67.78 27-67.78 22.71-63.17 23.78-65 12.06-13.13 12.06-13.13l14.2-5.32 12.42 11.36 12.42 19.51s20.58 39.75 21.65 40.82 41.16 25.19 41.16 25.19l36.91 18.1 39 20.23 21.65 14.9 23.77 50s6.39 16.33 7.81 14.91 15.61-24.14 17.39-25.56 59.62-63.16 59.62-63.16l67.43-74.17 42.23-46.49 56.42-26.26 23.07-17.75 57.49-69.91 23.42-57.49 21.29-73.1 9.58-65.65 3.91-90.14-12.07-77.72-21.29-78.43-47.55-128.11-44-96.88s-31.23-57.85-30.87-58.91 8.16-12.78 8.16-12.78l122.43 132 54.3-14.91s12.06-59.62 12.42-60.68-7.45-21.65-7.45-21.65l-30.17-14.19-27.68.71-9.58 5-7.1 68.85-35.49-35.49-74.16-84.1 13.13-10.65 68.13-59.62 33.72-50.75 18.09-45.07 7.46-55 4.26-15.62 4.61-33z" fill="#fff"></path><path d="m1533.37 405.32-15.62 9.94-18.1 13.84-16.68 16-5.68-8.16-15.29-19.94-23-8.48-4.26 3.55-4.61 13.13-17.39 38.68-2.13 14.9.35 22.71 12.04 31.94-8.52 7.46s-18.81 19.87-18.81 20.93-7.09 33.36-7.09 33.36 1.06 23.78 1.77 25.55 6.74 40.1 8.52 39.75 30.16-4.61 30.16-4.61l17.75-16.33s10.64 10.65 13.13 11.71 17.38 8.52 19.16 9.58 16.68 7.46 16.68 7.46l9.58 3.55s1.06-6.39 1.42-8.88 3.19-13.48 5-13.84 6.74-2.48 7.81-.35 9.22 9.94 10.64 10.29 6 5.68 8.16 5.68 7.46-2.13 7.46-3.2 2.84-15.61 2.84-15.61l5.67-24.13 2.84-5.68s34.78 2.48 35.49 1.06 5.34-17.38 5.34-17.38l-20.22-33.36.7-31.94 7.81-13.84 23.07-12.07 7.1-4.61-4.26-10.65-21.29-14.55-33-18.81-22-4.61-1.42-11s2.13-23.78 2.13-26.62-3.25-12.42-3.25-12.42z" fill="#fef065"></path><path d="m983 720.45-33 4.62-15.62 16-13.18 28.36-7.45 49.32 2.13 25.2s7.1-9.94 9.58-11 31.54-22.36 31.54-22.36l26.62-19.52 12.46-18.07 11.71-21.65 24.13 16-9.92 10.24-15.26 14.55s-17.74 27.32-17.74 28.74-3.9 17.75-3.55 19.17-.71 6.74.71 5.68 13.49-15.62 13.49-15.62l11.35-18.45 20.58-12.78-4.61 16-1.42 17.75-2.49 14.55s5 8.16 6.74 5 10.3-22.35 10.3-22.35 6-15.62 8.16-16.68 17.74-15.69 17.74-15.69l5.68 2.13-.36 26.62 3.91 19.87s7.45 10.65 7.45 8.87-.35-9.93 1.07-13.13 3.9-18.45 5-19.87 4.62-14.55 5.68-15.26 6.39-4.61 6.39-4.61l9.23 11.35 11.71 8.16 18.81 13.84 31.23 7.81 2.83-10.64s-.71-18.46-.71-19.52-1.42-23.43-1.42-23.43l-8.87-17s-2.48-6-1.42-6 30.52-1.42 30.52-1.42l29.1-2.49 17.75 22.72 17.74 9.58s36.91 5 38.33 3.9 26.26-8.16 26.26-8.16l18.81-2.84-3.55-12.78-16-27.68-13.49-22.71s2.84-17.39 3.91-17.74 22.35-28 22.35-28l7.46-17.39 2.13-30.52-13.13-14.9-13.84 6.39-12.07 13.84-30.52 6-28 8.87-8.87-.35 1.07-15.62 5-34.77-7.1-21.65-7.1-.36-3.55 16.68-13.84 28-6 15.26s-11.36 15.61-12.78 16.68-11.8 10.61-11.8 10.61l-3.55-8.87c-.71-1.77-6.38-23.07-6.38-24.13s-8.88-28.75-8.88-28.75l-2.84-6.38-11.35 6.38-29.1 15.26-19.52 25.91-17 27.33-2.49 16.67-13.48-11-22.41-18.81-22.36-6-5.32 3.2 2.48 16-28-5.33-.36 17s-1.42 24.84-2.13 26.26-5.31 9.91-5.31 9.91z" fill="#fef065"></path><path d="m955.45 624.46-3.2-36.73-19.16-42.59-13.31-18.63-12.24 23.43-7.45-25.56-11.71 11.71-10.65 29.81-2.66 31.41-1.07 23.42-27.68-22.89-37.79-31.94-5.33 17-3.72 30.87-2.66 33.54 20.76 42-19.7 17-9.58 3.72-6.39-17.56s-17.56-37.27-18.1-38.86-20.76-31.41-20.76-31.41l-8 10.65-19.15 43.24-12.77 38.33s3.19 28.21 4.79 30.34 25.55 31.94 25.55 31.94l-22.36 8.52-13.84 19.69-16.5 29.81-9 26.09-1.59 37.26 3.72 13.31 18.1-13.84s33.54-21.29 36.2-23.42 25.5-19.12 25.5-19.12l8-5.85 6.92 19.16 29.81 31.41 37.8 8.51h14.9l-.53-16-4.79-22.89-4.81-38.34-27.15-29.81 11.71-7.45s21.83-17.57 23.42-18.1 16.51-27.64 16.51-27.64 16.5-11.18 18.63-11.18 32.47-6.92 32.47-6.92l18.1-36.2 13.3-36.2z" fill="#fef065"></path><g fill="#0e5256"><path d="m1469.78 539.41c12.48 22-10.28 40-15.07 59.14-2.74 0-3.42 2-7 1.16-3.2-3.44-1-6.75 0-11.59 0-1.9-6.55 1.85-8.12-1.16-2.74-2.73.19-5.7 0-9.28-3.89 1.29-8.62 4.08-11.6 0 4.86-15.26 21.08-29.56 34.8-37.11 1.76-.95 3.32-1.11 6.99-1.16z"></path><path d="m1532.41 588.12c-2.58.9-4.52 2.43-8.12 2.32-2.15-9.84-7.08-16.89-15.07-20.88-1 8 6.12 17.83 5.8 29-3 .47-3.5 3.46-7 3.48-4.39-9.22-6.33-22.22-12.75-32.47-4.39-7-8.94-10.39-1.16-18.56 21.3 3.85 34.47 15.81 38.3 37.11z"></path><path d="m1106.79 682.06a61.94 61.94 0 0 0 3.47 10.43c4.62-.79 2.35-8.47 8.12-8.11 7 .7 4 9.58 3.48 15.07 5.65-.15 4.67-6.92 8.12-9.28 4.35-.86 5.65 1.31 5.8 4.64 4.31.45 3-4.7 8.12-3.48 10 23.71-19.8 34.15-34.8 44.07-2.59-4 2.5-8.62 4.64-11.59-1.29-3-9 .46-10.43-2.32 2.39-12-5-29.81-1.17-39.43z"></path><path d="m1047.64 711.05c17.36 5.74 38 19.56 32.47 40.59-6.09.67-5.32-5.5-9.28-7-8.11-3.1-17.38-5-24.35-9.28-7.79 1.12-12.66-3.89-9.28-10.43 9.85-.19 15.11 4.22 24.35 4.64-3.28-6.73-22.23-7.57-13.91-18.52z"></path><path d="m1196.09 730.76c1.42 10.89-17.79 17.18-27.84 18.56-15.18 2.09-39.62-.44-40.59-10.44 3.29-7.86 13-.77 19.72 0 17.63 2 34.72-2.58 45.23-8.12z"></path><path d="m982.69 736.56c-4.69 7.15-13.43 7.27-19.71 11.6-8.61 5.93-13.12 15.64-22 20.88 0 3.45.11 7.06-3.48 7-.09-1.84.56-4.43-1.16-4.64 1.41-5.46 7.55-12.33 13.92-18.56 8.33-8.23 19.43-21.84 32.43-16.28z"></path><path d="m1110.26 750.48h3.48c7.57 15.66 29.68 22.85 26.68 45.23-6.43-.64-8.05-1.9-15.08 2.32-6.42-13.45-20.88-29.4-15.08-47.55z"></path><path d="m987.33 758.6c-2.3 9-11 14.66-17.4 19.71-6.83 5.37-13.93 9.84-19.71 16.24-1.89 3.91-2.32 9.28-7 10.44-3.74-4.76 1.12-11.89 3.48-15.08 8.76-11.83 26-21.33 34.79-32.47a7.52 7.52 0 0 1 5.84 1.16z"></path><path d="m798.29 838.62c1.45 5.13 6.82 6.33 5.8 13.92-1.71.6-2.92 1.71-4.64 2.32-16.63-7.72-16.39-32.32-22-51-6.79 5.28-14.58 7.35-20.88 12.76-7.19 6.17-9.15 18.24-19.71 20.87-5.71-6.24 2.21-17.38 8.11-23.19 2.84-2.79 8.45-5 12.76-8.12 4.61-3.36 8.29-7.83 11.6-9.28 4.49-2 9.31.85 11.6-3.48 7.09 1.41 4.15 12.86 12.75 12.76 1.48 11.81 9 19.88 15.08 27.83 3.38 4.42 11 8.69 8.12 16.24-10.62.51-11.58-8.59-18.59-11.63z"></path><path d="m1360.77 901.25c1.87-.33 2 1.09 3.48 1.16 2.89 15.66 4.72 26.16 9.28 34.79 8.64 16.37 28.94 31.83 49.87 38.27 17 5.22 58.52 8.89 56.82 31.31-1 13.42-23.26 19.68-39.43 24.36a436.52 436.52 0 0 1 -52.19 11.59c-26.52 4.31-52.92 9.34-82.34 13.92-28.77 4.48-74.4 5.71-93.94-10.43 1.54-23.17 22.15-33.14 38.27-42.91 10.52-6.38 21.09-12.23 31.32-17.4 1.87-8.11 5.26-16.17 8.11-24.36 2.56-7.33 3.8-17 10.44-20.87 6.78 11.22-.39 26.15-4.64 37.11-7.47 19.28-22 23-40.59 34.79-13.26 8.43-25.45 15-31.31 26.68 7.15 8.33 22 9.5 34.79 10.43a215.3 215.3 0 0 0 30.16 0c30.6-2.32 64.46-10.59 96.25-16.23 15.61-2.77 31.85-5.19 46.39-9.28 14.11-4 29.17-8.64 37.11-18.56-12.55-15-35.15-14.53-53.35-20.87-11.76-4.1-26.13-12.11-34.78-19.72-13.81-12.13-25.27-33.36-22-60.31.37-1.52 2-1.82 2.28-3.47z"></path><path d="m1023.28 1489.24c-31.76-16.56-58.5-38.14-83.5-61.47 8.14 24.71 25.67 40 40.59 58 13.49 10.88 26.12 21.72 40.59 32.47 4.23 3.14 10.75 6.56 11.6 12.76-8.35 1.31-15.42-5.82-22-10.44-31-21.64-61.79-51-81.18-88.14-3.71-7.12-6-14.23-9.27-24.36-4.74-14.61-15.55-25.51-2.32-34.79a5.41 5.41 0 0 0 3.47 1.16c18.22 43 49.64 72.35 88.15 96.26 5.59 3.46 17.47 8.44 13.87 18.55z"></path><path d="m1372.36 439.67c8.58-11.47 12.94-26.22 23.2-37.11 4.56-4.84 10.57-9.49 16.24-13.92 5.13-4 11.28-11.71 19.71-8.12 2.29 10.14-8.39 14.18-12.75 20.88-8.53 13.06-14.12 36.22-9.28 54.51 5.32-3.47 6.6-10.61 9.28-16.24 2.48-5.24 6.08-10.47 8.11-16.24 2.55-7.22 2.22-15.66 5.8-23.19 25.94 3.44 41.3 17.45 49.87 38.27a47.83 47.83 0 0 0 16.24-15.08c7.36-3.31 13.62-8 19.71-12.75 5.71-4.47 10.31-10.81 17.4-13.92 8.35 5.07 8.87 23.73 7 37.11-1.14 8-7.46 13.71-4.64 18.56 6.9-.08 5.27-8.72 8.12-12.76 4.3-6.12 11.26-9.63 20.87-10.44 4.31 3.16.84 8.28 1.16 13.92 7.18.55 17.23-1.77 18.56 4.64-.4 10-15 5.84-19.72 11.6 9.6 9.19 22.66 14.13 33.63 22 10.33 7.43 21.75 15.18 26.68 27.83-13.78 5.94-31.81 7.63-40.59 18.56 19.45 2.07 34.08-5.24 47.55-12.76 7-3.9 12.94-10.91 22-10.44 5.67 17.25-9.26 33-17.39 44.08 30.78 11.51 74.27 3.84 114.81 5.8 18.22.87 32.86-2.52 48.71-4.65 19.64-2.63 40.32-10.69 59.15-1.15 2.93 29.11-17.9 38-32.47 53.34-7.52 7.88-13.5 16.83-20.88 23.2-30.87 26.6-64.42 54.33-104.38 70.74-19.83 8.15-41 15.17-58 29 5.45 4.85 13.34 3.58 11.59 11.59-1.21 5.59-11.24 3.68-18.55 5.8-10.84 3.15-21.86 10.28-27.84 9.28 8.8 33.65 36.42 96.23 8.12 132.21 1.6 59.29-18 102.12-42.91 135.69-25.12 33.78-56.59 62.12-91.62 85.82 8.5 8.64 17.22 16.64 25.52 25.52 23.8 25.45 45.19 55.84 69.58 82.34 1.51-19.58 7-39.44 9.28-61.47 18-8.32 36.52-5.6 55.67 1.16 14.62 5.17 32.75 13.16 34.79 29 3.33 25.89-1.65 53.41-11.6 71.9-10.52 19.54-22.59 34.62-55.67 30.15-17.72-2.39-36.83-17.3-47.55-29-7.41-8.09-12.14-20.45-19.72-30.15-3.63-4.66-8.13-8-11.59-12.76-16.09-22-34.18-51.58-53.35-68.43-1.12 5.09 2.37 9.61 4.64 13.92 25.38 48.13 47.75 101.19 71.9 154.25 33.66 73.93 63.37 156.44 73.07 254 7.31 73.51-7.29 162.89-23.2 225-3.37 13.18-10.44 24.86-15.07 37.11-9.63 25.47-20.11 48.56-36 68.43-15.49 19.41-32.94 36.62-49.86 54.5 11.51 3.12 22.52 1.63 33.63 2.32 54.33 3.38 90.3 31.88 122.93 58 19.19 7 37.5 17.1 59.15 24.36 32.09 10.75 65 15.51 91.62 30.15 4.08 2.24 7.67 5.58 11.6 8.12 3.62 2.34 9.47 3.32 10.43 8.11 2-.28 2.65-2 2.32-4.64 3.07 3.79-1.77 12.16-1.16 13.92-15 10.88-33-10.32-45.23-16.23-7.84-3.79-17.93-5.18-27.83-8.12-25.89-7.69-52.7-15.47-78.86-25.52-17.53-6.72-33.59-12.56-47.56-23.19-6.78-5.17-12.72-10.45-19.71-15.08-15.6-10.32-32.16-20.07-53.35-26.67-12.84-4-25.16-4.36-39.43-5.8-13-1.31-21.78-5.18-36-3.48-2.64.32-6.14-.48-8.12 0-7.54 1.82-13.9 8.1-20.87 11.6-7.17 3.6-14.48 5.88-23.2 9.28-2.89 1.36-2.17 6.33-4.64 8.11-32.54 26.14-56.77 61.34-87 92.78-24.92 25.94-51.85 52.62-75.38 82.35-6.51 8.21-13.86 14.63-16.24 27.83-5.29.65-7.22-2.05-12.75-1.16-10-27.79-16.81-51.94-37.12-68.42-19.43-15.79-45.17-28.12-69.58-40.6-24.91-12.73-49.33-25.42-68.43-41.75-10.87-22-20.41-45.3-36-62.62-1.43 6.88-7 13.81-13.92 11.59.71 52.28 6.8 127.59 1.16 185.56-1.19 12.3.52 25.14-5.8 34.8-17.21.87-31.37-2-49.86-3.49-1.24-22.52 2.57-44.22 0-64.94-10.32 8.41-17.12 19.41-25.52 29-18.41 21-36.49 37.19-75.38 40.58-22.72 2-40.15 1.55-60.31-4.64-9.13-2.8-24.38-2.46-32.47-6.95-17.26-9.59-14-35.32-12.76-63.79.35-7.84-1-15.4 0-20.87 3.06-16 15.33-32.92 32.48-32.48 8.07.21 15.88 6.43 23.19 10.44 13.11 7.19 27.77 16 48.71 16.24 30.17.35 48.27-14.38 61.47-32.48 11.63-15.95 17-32.13 19.71-54.51 1.61-13.35 3.16-34.16 10.44-42.91.46-9.74-.39-18.16-1.16-26.67-5.82 4.87-4.34 13.75-11.6 15.08-10.59 1.94-17.1-14.31-25.51-18.55-10 1.78-10.7 11.89-19.72 12.75-6.87.66-11-8.09-18.55-8.12-8.6 0-7 8.29-17.4 7-7.17-22.14 7.05-48.8 11.6-75.38 2.51-14.72 4.44-29.16 7-42.91 0-5-5.1-5-5.8-9.28-.76-10.68-4.75-15.22-4.64-24.35-8.62-19.61-18.72-37.73-31.31-53.35-3 8.57 3.22 18.72-1.17 26.67-5.1 2.88-9.31-.23-13.91-1.16 2 19.33 2.45 39.24 3.48 62.62 1.48 33.66 7.21 65.35 5.8 97.42-1.6 36.27-7.77 72.29-9.28 111.34-13.72 6.77-41.78 7.6-58 4.64-1.93-16-1.94-37.15-2.32-56.83-6.71 2.25-6.93 10.21-9.28 15.08-6.75 14-16.43 31.22-30.15 41.75-13.36 10.25-46 19.6-71.9 24.35-11.94 2.2-23.44.85-35.47 0a50.72 50.72 0 0 1 -10-1.42 37.26 37.26 0 0 1 -13.18-7.43c-3.53-2.89-6.88-6.3-8.32-10.62-4.09-12.24-8.12-24-10.29-36.8-2.38-14-6.3-31.21-3.31-45.23 2-9.4 6.56-22.59 16.37-26.45 6.72-2.64 14.49-.48 21.34.43 13.61 6.13 26.3 15.76 45.23 13.92 20.4-2 47.78-26.41 60.3-40.59 15.13-17.13 30.24-41.61 32.48-68.43 1.18-14.19.79-30 1.15-45.23.39-16 1.41-32.3-2.32-47.54-11.82-.11-13.69 10.43-23.19 9.27-10.5-1.27-10.1-16.24-19.72-22-10-2.77-9.3 18-17.39 20.87-11.17 4-10.58-14.94-10.44-19.71.36-11.81 1.8-22.16 2.32-30.16 1.81-27.83 5.54-49 7-81.18 1-22.7 5.25-53.4 9.28-80 3.14-20.81 9.76-57.69 20.87-66.11 4.06-3.07 12.59-4 18.56-7 7.43-3.72 11.18-8 22-9.28 24.24-2.74 56 7.85 84.66 12.75-3-13.81-10.09-26.1-15.07-39.43-3.76-10-6.83-19.65-11.6-30.15-1.38-3-4.19-5-5.8-8.12-3.21-6.3-4.93-14-8.12-20.88-9.3-20.11-28.08-44.65-27.83-70.74-1.13-5.77 4.69-4.59 5.8-8.12-21.36-34.47-47.94-67.88-69.59-104.37-5.84-9.86-13.62-19-17.39-32.48-1.31-4.66-.4-9.35-2.32-13.91-2-4.73-6-6.72-9.28-11.6-4.54-6.81-12.94-22.86-13.92-33.63-2.83-31.39 11.54-65.27 23.2-83.51 5.35-8.37 30.46-42.62 46.39-34.79 15.22 7.5-8.62 47.43-11.6 59.15 8.67.09 14.35-9.3 22-13.92 8.34-5 18-7.12 26.67-11.59-2.87-13.92-4.55-30.64-2.32-46.39-9.63-5.53-22.41-3.21-34.79-4.64-10.81-1.25-21.75-4.51-32.47-5.8-15-1.81-57.76-1.38-56.83-19.72.41-8.12 22.75-17.54 29-20.87 33.77-18 61.71-37.27 87-61.47 0-9.64 4.79-14.54 5.8-23.19-9.46.19-16.34 8.36-23.19 13.91-14.28 11.57-29 19.08-45.23 32.48-2.39 2-16.42 17.89-20.88 17.39-8-.89-8.08-33.44-7-47.55 1.54-19.32 7-31.16 11.6-44.07-14.85-7.86-22.13 9.77-41.75 4.64-.42-6.15-3.31-9.84-5.8-13.92 1.86-5.1 4.13-9.78 9.28-11.59 1.76-3.06-3.13-6.84 1.16-10.44 10.33-9.78 30.17-2.81 25.51 16.24 24.14 10.47 26.41-18.57 38.27-27.84-7.83-6.85-20.71-8.67-27.83-16.23-10.06 5.1-31.71-8.53-31.31-18.56.3-7.58 16.83-18.55 25.51-18.56 13.64 0 23 13.78 16.24 30.16 8.82 7.35 26.11 17 38.27 10.44-12.59-14.85-26.62-23.57-27.83-47.56-.82-16.06 4-35.35 9.27-48.7 7.88-20.11 23.08-34.92 26.68-53.35 1.83-9.4-2.12-18.48 7-18.56 5.09 0 11.51 16.61 15.07 22 14 21.39 32.2 42.73 36 73.06 5.29-1.29 12.78-10.4 19.71-13.92-7.57-16-20.6-38.48-18.56-66.1.91-12.25 4.91-23.9 7-38.27.87-6.09 1.18-13.41 2.32-19.72 1.58-8.73 1.22-14.47 8.12-13.92 4.83.4 5.38 8.35 9.28 13.92 5.77 8.25 16 14.55 25.51 23.2 8.92 8.11 17.73 16.94 26.68 22-3.53-31.28 6.16-62.58 19.71-83.5 2.65-4.08 5.29-11.85 11.6-10.44 5.93 2.19 3.16 13.08 7 17.4 6.95-4.64 4.42-18.78 16.23-18.56 5.4-.37 2 8 4.64 10.44 9 21.16 21.14 39.17 29 61.47 14.24-59.26 23.89-124.8 40.59-185.56 12.06-43.88 23.29-86.55 37.11-131 3.18-10.25 8.45-20.14 11.6-30.16 1.16-3.69 1-8 2.32-11.6 6.64-17.82 25.68-41.51 40.59-55.66 7.85-7.46 20.48-14.51 32.47-23.2 11.27-8.16 23.38-15.64 33.63-22 21.59-13.46 48.43-32.77 74.23-35.95 10.08-1.25 19.4 6.34 24.35 12.75 8.75 11.34 10.63 29.45 18.56 40.59 14.82 53.28 23.56 107.25 40.59 156.57 16.86 48.82 37.65 94.15 57.95 137.91zm-45.22-77.67c-21.81-52.93-36-112.38-52.2-169.33-6.42-22.66-13.44-52.13-23.19-70.74-4.76-9.1-10.43-20.21-18.55-22-10-2.25-21.43 8.37-30.16 12.75-24 12.09-48.83 26.11-68.42 40.59-13.89 10.27-28.41 20.3-40.59 32.47-19.52 19.52-31.83 37.75-41.75 64.95-9.12 25-15.49 50.37-24.36 76.55-5.76 17-9.05 35.55-13.92 53.34-9.62 35.15-18 69.45-25.51 106.7-12.12 60-22.58 126.57-39.43 179.76 4.24-.25 4.45-1.59 8.12 0 5.09 13.07 15 21.34 26.67 27.83 5.16-11.59-4.63-26.72 2.32-33.63 7.72 3.1 19 2.68 26.68 5.8.94-10.54-8.46-17.29-1.16-24.36 13.54 3.81 26.94 7.92 38.27 15.08 7.28 4.61 13.43 13.45 18.55 18.56.62.61 4.51 6.07 5.8 2.32-5.84-18.78-8.63-45 1.16-61.47-9.89-13-2-38 12.76-40.59 3 9.29 14.92 9 16.24 17.39s-8.89 12.62-9.28 23.2c-3.9 1.52-8.63 2.2-11.6 4.64-5.26 9.8-9.21 30.61-1.16 40.59 17.7-27.91 38.47-52.76 70.74-66.11 3.48-2.71 4.51-7.86 10.44-8.11 7 3.65 3.39 11.33 4.64 17.39 3.21 15.64 13.37 31 12.76 49.87 3.4 1.27 6.62-3.32 9.28-5.8 14.3-13.36 25.52-39.83 32.47-62.62 2.72-8.92 3.63-16 10.44-16.24 7.31-.24 12.75 11.83 13.91 19.72 3 20.15-5.82 40.74-3.48 55.66 8.5-11.9 24.9-36.61 29-54.5.84-3.68-.3-11.59 2.31-13.92 13.44-12 18.19 11.17 18.56 20.87.52 13.47-4.6 25.08-5.79 34.8 4 .5 6.49-.46 9.27-1.16-.32-16.94 5.35-25.47 10.44-37.11 6.95-15.93 10.76-30.36 16.23-44.08 2.78-6.93 3.31-18 11.6-19.71 13.23 30.08 27.86 58.73 48.71 81.18 2.77-9.82-4.74-15.53-8.11-23.19-3-6.91-5-16.28-5.8-25.52-1-11.8 3.66-25 1.16-36-1.39-6.06-13.9-14.4-2.32-19.71 14.29 7.35 20.13 23.16 44.07 20.87-33.75-50.77-60.75-106.16-85.82-166.98zm164.68 109c10.75-6.26 19.12-14.89 33.63-17.39 2-11.7 12.17-27 4.64-40.59-15.25 15.8-51.86 24.36-38.27 57.98zm-52.19-56.82c-4.17 21.35-21.08 42.6-23.19 68.42-2.07 25.16 2.63 39.83 19.71 48.71 6.7-.94 19.28-6.2 17.4 5.8-13.78 6-26.83 6.91-37.11 13.91-13.67 9.31-21.88 28.41-22 46.39-.15 17.19 8.09 35.55 8.12 54.51 27.14-16 60.67-22.79 68.42-55.67 1.41-5.93-.26-16 8.12-18.55 10.75 4.06 3.42 13.55 1.16 25.51-1.27 6.76-2.91 15-3.48 20.88-2.35 24.13 10.12 31.67 24.36 41.75 2.92-11.38 2.75-25.86 11.59-31.31 10.72 6 16.87 22.47 29 23.19-2.28-9.78 3.62-17.26 5.8-26.67 6.73-29.06-1.53-58.14-16.24-75.39-1.62-1.45-10.4.45-11.6-5.8-2.2-11.48 13.93-5.3 17.4-5.79 13-1.84 27.52-13.66 39.43-22a292.09 292.09 0 0 1 34.79-20.87c-4.73-5.7-14.54-13.21-25.51-19.72-9.14-5.42-19.48-13.1-29-16.24-30.14-9.92-68.08 8.65-63.78 34.8 5.78-6.59 7.54-17.21 19.71-17.4 3.56 4.78 1.16 8.42 0 13.92 6.88-.08 10.9-3 17.4-3.48 3.46 2.89-.95 7.62 3.48 8.12 7.52 1.62 17.14-3.46 18.56 2.32 0 4.67-2.66 6.62-5.8 8.11-12.6-3.28-22.32 3.13-33.64 4.64-5.42 1.17-3.85-4.65-9.27-3.48-4.59 1.61-2.6 9.78-10.44 8.12-3.23-1.41-2.15-7.12-2.32-11.6-5.4.34-6.46 3.58-10.44 0 .1-43.55-1.84-87.64-40.63-95.15zm-526.52 140.31c-1.38 11.3 6.84 27.89-7 30.15-5.85-5-2.34-15.71-3.48-24.36a81.65 81.65 0 0 0 -7-23.19c-15.4 18.6-18.09 50.79-15.08 84.66 12.57 12.18 21.09 28.39 32.48 41.75-2.41-20-9.79-35.06-13.92-53.35 2.29-2 2.66-5.84 8.12-4.64 5.81 5.79 3.67 19.52 11.6 23.2 3.11-7.71-1.16-22.81 11.59-20.88 2.38 3.81.63 11.75 1.16 17.4 3.51.36 9-1.29 9.28 2.32-5.87 14.21-17.12 26.65-15.07 45.23-1.3 4.83-11.07-.61-10.44 3.48 1 17.29-6.69 34.1-2.32 47.55 6.39-9.15 12.24-22 17.39-36 4.73-12.82 11.38-27.05 13.92-40.59 1.86-9.92 4.53-21.38 4.64-31.31 0-2.26-2.1-4.15-2.32-7-1-12.56 1.4-20.5-2.32-30.15-5.28-13.72-18.64-34.25-24.35-42.91-.42 6.28-5.87 10.29-6.88 18.64zm-47.55 349.08c-2.61-2.29-11-11.86-9.28-7 2.15 3.26 4.89 5.93 5.8 10.43-1.56.77-2.16 2.48-2.32 4.65-12.07 5-30.47-1.37-42.91-3.48-8.17 3.5-12.32 11.13-19.72 16.23-12.47 8.62-28.75 9.82-42.91 17.4-8.17-11 .87-25.7-1.16-39.43-9.76 2.21-15.45 11.61-23.19 17.39-16.44 12.27-35 21.11-53.35 30.16-8.61 4.24-21.08 10.15-22 17.39 35.27 6.1 70.6 12.14 110.18 13.92 8.78-24.47 22.37-44.13 45.23-54.51 11.14 10.9 8.93 35.14 9.28 56.83 36 1.44 72.42-1.29 102.05-8.12 17.56-4 35.39-13.71 47.56-19.72 4.08-2 9.21-2.48 12.75-4.63 6.59-4 10.79-11.14 16.24-15.08 21.17-15.34 51.23-21.1 80-29 32.25-8.84 67.21-17.14 102.06-24.35 51.51-10.66 102.25-23.33 154.24-33.63 13.61-2.7 27.58-2.89 41.76-4.64 13.51-1.67 26.91-4.76 40.59-7s22.65-2.63 32.47-5.8c33.4-10.77 55.44-32.15 80-51 14.93-11.47 32-18.48 48.71-25.51 17.49-7.35 35.68-14.18 54.51-20.88-4.15-10.06 6.4-19.08 15.07-24.35 15.94-9.68 33.62-14 49.87-20.88 16.61-7 30.2-16.85 45.23-26.67 23-15 43.06-29.39 61.47-46.39 6-5.54 10-13.24 16.23-19.72 11-11.51 29.66-20.17 31.32-39.43-21.07-3.87-44.73 2.81-69.59 5.8-13.77 1.66-26.54 1.16-39.43 1.16-20.75 0-51 2.85-74.22 1.16-20.88-1.52-49.47-9.47-64.95 1.16 4.17 8.29 10.16 12.84 17.4 20.88 4.64 5.15 17.62 15.77 16.23 23.19-1 5.51-12.77 8.54-19.71 10.44-19 5.2-41.34 5.9-59.14 2.32-3.87 15.83-8 30.8-2.33 47.55-11.45 7.88-25-3.59-32.47-9.28-3.17-2.42-5-9-9.28-5.8-4.92 9.3 6.81 22.36-3.47 26.68a67.53 67.53 0 0 1 -22-9.28c-1.9-1.28-5.14-8.77-7-3.48-.17 8 3.31 14.23 5.8 20.87s4 14.57 8.12 19.72c3.62 4.56 12.8 5.8 11.59 13.92-6.76 5.13-16.17 1.18-23.19-1.16-23.18-7.76-45.4-22.65-62.63-34.8-9.85-.67-26.83-6.36-32.47 2.32 9.61 18.6 32.15 26.84 39.43 48.71 1.51 4.54.87 9.6 2.32 13.92 2.38 7.07 10.81 12.28 8.12 20.88-15-.37-31.26-6.78-48.71-10.44-15.38-3.23-34.32-7.2-40.59-22-7-16.44 6.26-49.45-7-66.1-7.71 11.23-16.7 21.18-24.35 32.47 12.52 6 24.23 12.88 26.67 29-4.69 4.2-16.15 1.64-22 4.64 6 11.4 11.39 22.41 19.71 31.32 3.92 4.19 11.94 6.12 11.6 13.91-5.48 6.18-15.2 4.67-24.36 7-7.56 1.9-15.44 6.31-23.19 8.12a102.38 102.38 0 0 1 -66.1-7c-3.21 13.74-17 29.06-31.32 20.88-4.83-16.82-10.83-32.43-19.71-45.23-6.42-.48-16.09 0-19.71 2.32 11.86 11.9 5.21 37.52 9.28 58 1.21 6.11 5.63 10.34 4.64 16.24-11.23 5.47-24.57.28-34.8-3.48a177.17 177.17 0 0 1 -29-13.92c-8.62-5.18-12.86-15.72-20.87-19.71-3.31 9-9.83 18-10.44 30.15-.51 10.28 7.06 21.86 0 29-22.1-6.89-25.19-32.79-24.36-62.62-19.24 12.07-19.58 43-37.11 56.83-14.59-10.62-5.67-43.52-2.32-55.67-17.05 11.43-23.64 32.83-33.63 49.87-3.24 5.52-7.09 13.36-13.92 15.07-6.94-5.74-2.54-16.48-1.16-23.19 1.74-8.44 3.32-17.74 5.8-24.35 8.89-23.68 29.62-42.17 44.07-58-7.42-1.09-10-7-17.39-8.12-5.21 12.8-9.74 25.61-18.56 34.79-16.68 17.36-46 27-60.31 45.23-6.23 8-6.47 20.46-17.39 25.51-7.78-.72-3.07-13.94-8.12-17.39-7.18 11.24-19.82 24.49-20.82 41.73-.46 7.84 4 14.93 0 22-1.65.28-2 1.91-3.47 2.32-4.64-1.4-9.41-5.25-13.97-9.24zm-46.39-221.51c20.48-7.64 37-30.67 62.62-25.52-.73 12.46-10.79 25.46-8.11 45.23 8.67 1.76 13.49 7.38 25.51 5.8 10.53-21.33 4.17-38.83-5.8-53.35-19.07-27.77-57.61-61.1-83.5-78.86-9.32 35.98-14.26 81.99 9.28 106.7zm739.92-70.75c10.29-1.69 22.86-1.1 31.31-4.64.72-3.38-4.49-8.52-8.12-11.59-6.23-5.28-13.7-9.5-22-10.44h-2.31c.73 8.5 1.58 16.93 1.12 26.67zm-380.4 63.79c-1.83 9.77-6.86 16.34-10.44 24.35 10.55-4.91 25.55-5.37 40.59-5.8.87-9.73 2.18-13.52 5.8-19.71 4.83-8.28 13.83-15.79 16.24-23.2 1.31-4 .34-10.24 1.15-15.07 2.63-15.54 7.94-29.58 3.49-48.71-.26-.91-1-1.35-2.32-1.16-9.98 37.95-28.34 67.53-54.51 89.3zm-22 24.35c5.69-8 12-20.35 13.92-30.15 4.78-24.54-6.6-40.74-11.6-63.79-.06-.71-.17-1.37-1.16-1.16-9.21 4.87-16.26 8-25.51 15.08-15.67 12-44.74 42.12-45.23 61.47-.32 12.48 8.88 18 11.6 30.15-4.2 3.92-4.8 11.44-11.6 12.76-16.35-26.57-28.69-57.14-63.79-64.95-.44 13 13.87 21.72 9.28 31.31-10.09 2-9-7.21-13.92-10.43-8.12-1.16-13.44-5.12-23.19-4.64-1.81 22.94 1.09 38.44 5.8 51 1.66 4.45 2.41 9.66 3.48 11.6 10.55 19.27 38.41 23.22 61.46 23.2 8.32 0 21.63-6 25.52 5.8-11.92 16.2-24 49-12.76 75.38 1.18-19.54 9.57-36.11 15.08-49.87 1.86-4.66 2-12.58 8.11-13.92 9.24 4.24 4.54 17.09 7 24.36 1.25 3.73 5.71 9.12 8.12 11.6 11.67 12 34.62 20.05 53.35 23.19-2.53-16.86 1.31-34.41-3.48-47.55-3.2-8.77-10.34-12.95-13.92-19.71-10.3.92-23.12-7.92-11.59-15.08 45.75 14.4 85.7-7.72 100.89-38.27-1-2.06-4.7-1.48-3.47-5.8-18.48-5.66-48.59-10.09-66.11-1.16-10.52 5.36-15.43 18.72-29 18.55-4.97-13.28 6.72-20.63 12.68-28.97zm124.09 19.72c6.6-2.5 15.12-6 20.88-10.44 8.52-6.56 28-30.5 32.47-40.59 6.44-14.54 3.45-28.13-1.16-41.75h-2.31c-32.77 27.61-105.1 15.55-113.66 67.26 9 2.16 15.41 7.09 24.35 5.8 3.06-.44 8.51-5.36 15.08-8.12 12.09-5.08 23.42-8.8 32.48-13.91 5-2.8 11.7-5.2 15.07-8.12s5.25-11 8.12-10.44c5.71 1.19 3.2 9.77-1.16 15.08-3.35 4.07-11.34 6.92-15.08 9.27-11 7-19.25 13.37-31.31 16.24-.82 4.3 2 5 1.16 9.28-9.74 8.43-16.63 19.7-23.2 31.31 16.21 2.43 30.66 5.37 42.91 11.6 8.54 4.33 19.24 12.34 13.92 22-14.78-12.68-34.7-20.2-59.14-23.2.39-3.6-2.69-5.54 0-8.12-13.76 2.08-7.75 14.17-4.64 22 2.34 5.92 3.4 10.52 5.79 13.91 17.84 25.27 69.43 11.73 92.78 3.48-7.64-16.41-22-39.72-40.59-46.39-9.48-3.4-23.49 2.57-31.31-3.48-.61-10.44 11.88-10.15 18.51-12.67zm-518.4 52.19c-9.16-11.4-22-26.54-24.35-46.39-.68-5.76-3.77-16.54 8.11-13.92 2.56 6.74.82 23.9 7 23.19-2.62-9.21-2-25.23 8.12-25.51 2.71 7 .31 15.18 1.16 23.19 1.67 15.66 8 40.48 18.56 40.6 1.79-5.11 4.11-11.44 8.11-16.24 6.54-7.83 22.94-21.74 33.64-16.24.38 4.41-3 7.08-5.8 10.44-1.93 2.32-9.25 5.34-4.64 7 6.11.07 12.75-.38 15.08 3.48-7.06 9.81-22.43 5.63-32.48 11.6-5.8 3.44-5.54 10-12.75 10.43-6.61-3.57-12.5-3.63-18.56-9.27.86 5.88-2.88 7.17-4.64 10.43 3 1.68 8.81.48 7 7-3.11 3.46-9.13 4-15.08 4.64-12.87 18.44-31.86 30.76-60.3 33.63-9.88 19-19.14 46-12.76 74.23 17.91-15.16 41.34-26.76 59.15-41.75 5.78-4.88 14.15-11.35 17.39-16.24 4.92-7.43 1.26-19.32 13.92-20.87.25.9 1 1.34 2.32 1.15 1.56 10.21-3.29 20.13 0 29 9.25 25 38.56 46.66 73.06 45.23-6.64-20.17-4.94-46.67-12.87-66.17-.71-1.73-3.59-3.61-4.64-5.8-3.92-8.14-5.61-14.2-11.6-18.55-6.58-4.78-18.56.11-22-10.44 19.38-9.24 39.24-9.06 52.19-23.19 21.93-23.93 14.1-73.81 22-107.86-14.09 1.29-24.5 12.05-36 19.71-17.3 11.59-34.33 21.37-41.76 40.59-2.58 6.71.44 18.41-9.27 22-10.22-4.56-1.85-16 0-23.19 6.89-27.1-11.22-58.13-22-74.23-5-7.44-10.56-14.85-16.23-19.71-9.17 22-31.12 52.69-33.64 83.5-2.26 27.74 15.91 46.66 36 55.67 5.68-6.41 13.74-2.14 18.52-1.14zm586.79-107.86c7.83 6.94 26.61 7.52 37.11 2.32.69-8-4.36-10.32-8.12-13.92-6.93 2.05-19.17-3.76-27.83-7-2.25 4.47-3.42 13.18-1.16 18.6zm-430.26 75.38c3 1.65 1.73 7.54 5.79 8.12 5.93-12.25 15.91-20.43 27.84-26.67-4.38-12.63.88-34.9-7-44.07-9.41 20.31-16.15 43.34-26.63 62.62zm52.18-11.59c-18.47-.54-32 11.1-38.27 23.19-1 4.49 5.07 1.89 3.48 7-13.17 19.3-18.37 46.57-18.55 78.86 14-12.11 31.81-24.8 47.55-37.11 5.83-4.56 13-7.92 17.39-12.76 8.82-9.72 13-23.08 18.56-35.95-6.06-11.51-14.25-2.15-22 4.64-8.85 7.72-22.56 18.84-29 25.51-2.68 2.35-.8 9.26-7 8.12-6.88-12.59 8-22.74 13.92-30.15 7.71-3.7 15.12-11.11 20.87-15.08 5.06-3.49 11.5-4.13 13.92-9.28-4.32-6.48-14.29-6.8-20.87-6.99zm-76.54 18.55c-.25-.9-1-1.35-2.32-1.16-9.44 6.4-19.63 12.07-29 18.56-5.69 11.53-12.3 21.21-23.2 27.83-5.6 3.41-13.2 4.48-17.39 10.44 6.14 4.68 8.71 12.94 15.07 17.4q49.64-15.33 56.84-73.07zm691.21 16.24c.29 7.08 4.93 12.29 8.11 18.55 12 23.44 17.55 54.54 24.36 82.35 8.91-22.75.49-49.42-5.8-71.91-3.47-12.43-6-25.44-12.76-33.63-3.98-.07-8.67 2.9-13.91 4.64zm-24.36 12.75c7.17 11.25 16.41 15.87 22 26.68 10.21 19.6 13.53 54.4 9.28 75.38-5.36 26.43-26.9 43.84-48.71 56.83-39.74 23.67-84.81 14.73-109-12.76-14.23-16.16-22-41.42-18.55-71.9-63.18 7.18-122 18.74-179.77 31.31 25.11 76.26-22.4 154.16-90.45 163.53-24.82 3.41-57.22-3.3-78.87-17.4-7.72-5-16.07-14.06-23.19-22-14.55-16.29-22.91-35.21-20.88-66.1-13.63 1-21.43 12.22-31.31 18.55a198 198 0 0 1 -25.51 13.92c-6.27 2.79-13.7 2.95-18.56 9.28 11.69 35.21 32 66.53 55.67 89.3 16.66 16 29 27.69 48.71 40.59 8.59 5.61 16.81 12.4 24.35 16.24 4.92 2.5 11.06 3.46 16.24 5.8 1.54.69 3.21 3 4.64 3.48 2.82.89 8 .19 11.59 1.15 3.78 1 8 2.38 11.6 3.48 47.17 14.55 106.13 20 161.21 18.56 6.42-.16 13.47-.52 19.71-1.16 26.31-2.69 53.26-8.58 77.7-15.08 24.9-6.61 48.12-17 67.27-26.67-10.48-12.33-26.17-19.45-41.75-26.67-25.91 10.34-60 19.46-96.26 23.19-27.79 2.86-55.95-.39-81.18-3.48-6.75-.82-18.6 2.28-20.88-7 3-5.71 9.78-3.74 15.08-3.48s12 1.76 17.4 2.32a363.26 363.26 0 0 0 112.49-5.8c37.85-8 71.92-23.4 100.9-38.27 3.9-2 13.14-10.27 16.23 0-.75 7.07-8.79 7.79-13.91 10.44-5.58 2.89-11.19 6.34-16.24 9.28 4.07 5.93 11.62 8 17.4 11.59s11.22 9 18.55 10.44c45.12-28.34 92.1-72.4 116-122.93 3.76-8 9.21-15.63 11.6-23.19 20.22-64.06-2.9-135.22-23.2-185.56a112.48 112.48 0 0 0 -17.4 8.11zm-516.08-4.63c-25.65 9.72-48.7 41.95-54.51 66.1 13.45-25.21 30.77-46.54 56.83-59.15 11.14 8-4.91 20.64-10.44 32.48-5.38 11.53-8.82 21-9.28 32.47 4.49-1.39 3.17-6.06 4.64-9.28a157.78 157.78 0 0 1 16.24-27.82c8.36-11.29 18.93-20.06 25.51-32.47-9.44.54-23.48-4.42-28.99-2.33zm495.21 35.95c13.63 1.79 22.76 15.48 25.51 24.35 8.49 27.39 2.18 55.79-15.08 71.91-5.94 5.55-15.13 12.42-23.19 15.07-50.52 16.63-75.64-39.45-54.51-74.22 4.25-7 11.36-9 15.08-17.4-17.89 9.18-36.23 17.89-59.14 22-6.15 26.33.11 47.78 10.43 61.46 12.24 16.24 38.12 29.07 63.79 26.68 34.21-3.19 73.91-33.35 78.86-63.79 5.4-33.21-5.15-77.73-33.63-90.46-15.19 9.09-30.21 22.35-44.07 32.48-4.76 3.47-12 5.44-12.76 11.59 1.31-2.93 5.14-3.36 9.28-3.48-1.22 7.87 4.34 16.77 7 25.52 2.71 9 2.42 20.16 9.28 25.51 3.65-19.54 1.57-44.82 4.64-64.94 9.45 0 9.58-3.43 18.51-2.28zm-823.42-13.92c-6.73 7.19-15.5 12.33-17.4 24.36 16-2.93 29.15-8.75 36-20.88-7.46.07-11.49-3.25-18.6-3.48zm168.16 10.44c2.39 1.54 11.64 2.2 13.92 0-4.82-1.37-5.83-6.54-9.28-9.28-.23 4.41-4.91 4.4-4.64 9.28zm167 194.84c17.23 19 45.81 36.22 81.18 36 26.36-.21 48.25-11.23 64.94-27.84 26.11-26 36.77-54.48 33.63-92.78-.85-10.49-4.24-30.85-11.59-29-6.26 1.59-12.79 2.72-20.88 4.64-6.33 1.5-14.65 2.93-17.39 7 21.48 0 30.57 17.68 32.47 33.63 4.24 35.5-11.91 68.21-37.11 80-62.25 29.18-114.47-57.64-62.63-95.1 5.41-1.19 14.43-4.86 12.76-9.28-30 9-62.12 16-91.62 25.52-4.28 30.82 1.7 51.19 16.25 67.21zm96.25-97.42c9.09 16.64.14 44.94 10.44 63.78 9.64-16.26 10.14-41.66 13.92-63.78 2.69-2 4.9-4.38 8.12-5.8-12 .76-22.06 3.45-32.47 5.8zm-227.3 85.82c11.22 30.92 30.71 53.56 48.71 77.7 8.52 4.24 13.72 11.8 25.52 12.76-9-13.58-23-25.65-32.47-41.75-9.74-16.49-18.68-33.59-25.52-52.19-6.11.46-12.89.25-16.24 3.48zm-103.22 9.28c-6.48 20.19-11.82 41.53-22 58 15.47 4.19 20.37 20.73 31.32 30.16 3.28 2.83 8.21 3.33 11.6 5.8 5.82 4.23 10.83 11.66 16.23 17.39 11.64 12.36 22.33 25 31.31 38.27 4.56 6.75 6.3 16.2 13.92 20.88 4.9-27.81 13.65-57.16 44.07-55.67 12.27 15.78 6.05 36 4.64 54.51-1.07 14.12 0 29.67 1.16 44.07 2.74 34.13 7.48 69.45 17.39 96.26 28.51 7.44 38.54 33.37 62.63 45.23-.85-25.2 2.86-45.86 8.12-65-13.7 9.38-19.35 27.29-35.95 32.48-5.64-8-.78-17.87 2.32-25.52 10-24.67 21.43-50.61 34.79-70.74 18.87-28.46 44.56-51.45 68.42-71.91-19.33-8.32-37.06-15.31-54.5-26.67-10.51-6.84-22.33-13.44-31.32-20.88-5.53-4.58-8.58-11.72-15.07-13.92-3.5-1.18-8.15.6-11.6 0-3.82-.66-12-3.66-16.24-5.79-19.64-9.79-32.53-30.67-44.07-48.71-8.89-13.9-17.94-28.51-24.35-44.07-28.82 4.11-61.32 4.46-92.82 5.83zm-99.74 25.51c-11.27 8.67-19.75 16.88-27.83 29-15.64 23.46-30.51 76.66-8.12 100.9 2.71-11.07 4.78-20.87 8.12-31.31 3.21-10 9.76-19.22 11.59-29 1-5.45-1-11.76 0-17.4 1.48-8 8.34-16.89 11.6-25.52 1.67-4.42 3.23-9.14 4.64-13.91.93-3.16 6.07-9.33 1.16-12.76zm31.31 90.46c6.86-5.28 19-8.31 29-7 17.73 13.19 36.56 25.29 53.34 39.43-6.07-21.37-21.54-33.34-22-60.3-8.18-12.31-22.86-18.12-40.59-20.88-.92 6.33 7.19 3.64 7 9.28-4.27 17.1-22.53 26.31-26.74 39.47zm-33.57-19.72c-2.1 2.54-2.44 6.63-4.64 10.44-2.09 3.63-5.52 6-7 9.28-5 11.56-9.87 33.56-10.43 45.23-1.4 29.09 10.23 45.49 22 63.79 15 23.24 32.37 46.61 47.55 68.42 8.65 12.43 16.16 24.65 23.2 34.79 19.65 1.52 35.34.11 49.86-5.79-.38-4.9-5.41-9.25-9.27-12.76-12.8-11.66-27.06-21-39.43-33.64-8.1-8.24-15.65-16.36-24.36-24.35-8.87-8.13-18.61-17.4-24.35-25.51-11.12-15.69-2-33.68 10.43-45.23-4.33-5.72-8.69-11.41-9.28-20.88 3.7-4.76 10.52-3 17.4-2.32 11.44-7.28 16.16-24.77 4.64-34.79-24.31 10.53-39.44 36.26-38.27 68.42-2.78.71-5.29 1.67-9.28 1.17-6.27-28.55 4.65-54.57 16.24-73.07 9.48-15.14 24.38-24.9 31.31-40.59-19.21-.58-37.08 6.22-46.32 17.39zm109 8.12c12.46 30.84 30.29 61.18 47.55 87 4.93 7.38 19.31 17.86 11.59 26.68-9.12 1.19-13.22-8.59-17.39-13.92a381.41 381.41 0 0 0 -31.32-36c-16.52-16.53-34.5-32.65-55.66-42.91 1.23 12.08 10.94 21.72 18.55 31.31 19.53 24.6 39.72 50.09 58 74.23 3.3 4.36 9.64 11.54 4.64 17.39-12.18-.58-19.23-10.22-26.68-17.39s-15.44-13.9-23.19-20.88c-15.3-13.79-29.74-29.32-51-37.11 10.37 20.52 28.25 37.62 44.07 55.66a307.26 307.26 0 0 0 24.36 25.52c3.35 3 9 8.54 12.75 12.76 3.42 3.89 9.81 9.92 3.48 15.07-13 .14-18-14.32-26.67-22-9.14-8.11-20.67-15.2-31.31-22-10.86-7-22.4-16.07-36-16.23 26 30.74 57.7 56.4 85.82 83.5 9.72 9.36 21 17 30.16 26.67 9.77 10.39 14.91 24.06 24.35 34.8 12.46-6.88 22.44-17.1 33.63-25.52s22.92-16.6 32.48-26.68c-8-20.42-11.3-44.58-13.92-69.58-2.58-24.62-7.68-49.81-5.8-74.22 1.16-15 9.12-33.48-2.32-45.23-18.95 12.23-24.71 38.27-24.35 60.3.1 6.43 5.36 16.4-3.48 20.88-11.09-.73-9-10.92-11.6-17.4-3.44-8.63-9.43-16.22-13.92-24.35a220.93 220.93 0 0 0 -53.34-63.79h-3.48c-.48 1.62-1.43 1.88 0 3.44zm626.26 26.68c-21.71 12.17-51.44 22.37-82.34 30.15a460.8 460.8 0 0 1 -98.58 13.92c-1.46 4-1.61 9.21-3.48 12.76 42.1 10.93 89.17-1.32 124.09-11.6-3.14 8.56-14.76 14.14-25.51 17.39-31.67 9.59-75.5 12.56-104.38 3.48-3.61 6.06-8.23 11.1-10.44 18.56 34.87 9.89 65.15 9.15 96.26 0 10.68-3.14 20.62-8.73 30.15-13.92 28-15.22 54.39-26.91 73.07-48.71 5.52-6.45 11.49-12.83 13.91-19.71-4.25-5.73-8.6-4.67-12.78-2.32zm-641.34 60.3c-10.13-13.45-19.47-27.69-30.15-40.59-5.42 1.54-6.89 7-9.28 11.6 12.51 9.5 27.62 22.6 39.4 28.99zm606.55 2.32c-9.65 5.56-21.65 9.07-32.48 15.08-5.31 3-8.87 6.87-13.91 9.28a142.13 142.13 0 0 1 -17.4 7c-12.35 3.94-26 7.91-38.27 9.27-16.22 1.81-39.26.13-55.67-4.63a33.18 33.18 0 0 1 -12.76-7c-30.35 67.06-64.23 130.6-80 212.23 62.61-11 119.77-30.82 162.36-60.31 5-3.46 11.54-14.39 19.72-8.11 1 8.1-9.74 13.8-15.08 17.39-50.26 33.76-115 54-185.55 65 7.71 7.36 23.27 6.87 25.51 19.71-4.49 5.93-8.43.84-12.76-1.16-14.42-6.65-26.48-17.73-40.59-22-24.76-20.55-49.36-38.86-75.38-61.47-5.66-4.92-11.21-10.77-17.4-16.24-5.84-5.15-13-9.25-19.71-15.07-7.29-6.28-26.34-31.69-37.12-31.32-5.44.19-15.82 10-20.87 13.92-7.35 5.71-12.8 10.75-19.72 16.24-11.78 9.35-33.76 21.82-36 36-1 6.67 3.44 22.76 5.8 32.48 13.08 53.79 30.78 102.61 59.15 138 12 15 26 29.7 40.59 38.27 2.73 1.6 7.76 4.63 10.44 4.64 13.36 11.79 29.39 20.9 46.39 29 52.73 25.1 114.88 40.3 191.35 33.63 28.61-2.5 64.27-13.65 92.78-20.88 7.89-2 24.74-10.07 27.84-3.48 2.57 5.49-10.39 9.06-15.08 10.44-36.39 10.74-75.52 20-116 23.2-33 2.58-69.33 4.45-100.89-3.48-9.25-2.33-18.57-6.83-27.84-9.28-32.41-8.56-56.79-19.75-81.18-33.63-17-9.67-32.29-18.62-45.23-31.32-12.5-12.27-24.67-24.89-37.11-39.43-17-4.35-32.13-11.72-47.55-18.55-15-6.67-30.78-14.68-48.71-15.08-21.81-14-62.74-19-91.62-18.56 47.15 46.59 78.29 118.16 105.54 186.73-6.7-52.47 24.84-68.2 63.79-77.71 25.56-6.24 46.65 1.15 68.42 10.44 9.77 4.17 17.9 12.47 27.83 16.23 5.91 2.24 11.87 2.69 17.4 4.64 17.2 6.07 30.83 15.69 46.39 23.2 56.22 27.14 109.82 60.63 161.2 90.46 3.78 2.19 11.51 4.16 10.44 10.43-9.15 0-16.72-6.59-24.35-10.43-34.62-17.43-64-38.47-97.42-55.67-25.84-13.28-50.74-26-77.7-37.11 32.35 32 70.59 63.64 102.05 95.1 4 4 13.51 8.25 10.44 16.23-6.13.54-9.54-5.81-12.76-9.27-26.07-28.07-57-49.87-83.5-76.54-27.87-24.24-69.76-57.44-114.81-68.43-17.11-4.18-36.7-.08-47.55 5.79 6.32 6.65 15.31 10.24 22 16.24 7.44 6.64 18.47 17.64 20.88 26.68.42 1.6 1.71.22 2.32 1.16 5.39 8.34 9.53 16 13.91 24.35 5.6 10.63 12.59 20.77 18.56 31.32 12.32 21.78 21.05 45.66 31.31 68.42 20.56 45.57 46.37 87.79 76.55 122.93 6.28-8 15.19-14.65 23.19-22 7.46-6.89 15.06-18.51 26.68-17.4-8.06 26.35-18.8 50-24.36 78.86 5.21.89 10.9-12.44 19.72-8.11 2.13 18.1-6.75 33.8-4.64 51s14.78 34.09 24.35 48.71c29.33 44.79 65.18 85.37 82.35 136.85 12.45-11.73 22.35-26 33.63-39.43 11-13.15 23.58-25.9 36-38.27 31.09-31.09 61-64.38 88.14-97.42.8-1 7.68-3.7 3.48-5.8-44.93 19.28-116 40.63-176.28 25.52 5.42-14.42 28.08-6 41.75-5.8 23 .36 43.84-4.31 64.94-9.28a523.42 523.42 0 0 0 113.66-40.59c30.07-14.82 52.25-31.33 73.06-53.35 23.73-25.11 45-56.47 58-90.46 18.47-48.28 32.31-102.69 37.11-160 1.62-19.41.28-39.21 1.16-59.15 2.46-55.91-9.3-102.11-20.88-150.77-4.48-18.87-10.76-37.68-17.39-55.67-6.86-18.59-12.42-36.62-19.72-53.34-31.18-71.46-59.88-141-93.93-199.48-.07-.7-.18-1.37-1.16-1.16-.07-.71-.18-1.37-1.17-1.16-12.05 17.52-28.99 31.38-48.71 42.73zm-295.74-34.79c-6.83-1-16.3 9.82-20.87 13.92-5.09 4.55-10.16 9.45-15.08 13.92-29.66 26.93-54.62 69.21-67.26 106.69 17.47-17.7 33.85-36.83 49.86-54.51 5.35-5.9 10.47-14.58 19.72-15.07 1.71 9.13-5.53 14.65-10.44 20.87-19.28 24.46-38.71 53.51-34.79 96.26 21.19-47.28 47.23-90.75 81.18-125.25 11.45-11.64 23.57-24.32 37.11-32.48 6.73-4 15.08-5.26 19.72-12.75-22.22-2.14-41.69-9.16-59.18-11.6zm483.61 3.48c3 10.4 16.61 12.3 26.68 15.08 11.13 3.07 23.24 6.27 33.63 4.64-8.5-15.11-40.43-24.74-60.34-19.72zm-415.19 18.56c-5.26 4.27-8.86 10.77-13.91 17.39-4.54 6-10.77 11.56-15.08 17.4-9 12.23-17.32 26.54-25.51 39.43-17.72 27.9-34.66 58.87-40.59 85.82 6.24-2.26 7.94-9.07 17.39-8.12 6.13 21.1-12.58 52.08-7 77.7.93 4.26 6.51 9.75 8.11 12.76 1.46 2.74 1 4.45 2.32 5.8 3.08 3.07 8.93 3.35 11.6 7h27.83a306.3 306.3 0 0 1 15.08-56.83c27-71.63 54.7-139.83 89.3-203-4.88-2.47-14.13-.56-20.88-1.16-17.67 30.74-37 62.48-52.18 95.09-7.71 16.55-15.32 31.53-20.88 48.71-3.82 11.84-6.68 21.14-10.44 31.32-1.57 4.27-.07 13.5-8.11 12.75 1.74-37.88 19.49-68.61 33.63-98.57 14.44-30.63 29.26-60.16 45.23-89.3-15.65-3.63-26.75-1.66-35.94 5.81zm-443 25.51c12.21 1.33 21.89 11.35 32.48 10.44-8.32-8.7-14.43-19.6-24.36-26.68-1.81 6.36-7.36 8.93-8.17 16.24zm330.53 89.3c-13.58 22.28-22.47 50.52-37.11 69.59 18.73 16.06 35.51 34.07 56.83 47.54-3.56-21.22.22-42.13 4.64-61.46-8 1.31-10.8 7.75-20.88 7-2.11-15.41 5.53-29.48 10.44-41.75 15.56-39 41.1-69.8 60.3-104.38-.13-1.41-.34-2.75-2.32-2.32-31.58 22.35-52.18 53.35-71.95 85.78zm-174 172.8c-3.7-11.7-7.74-24.94-11.6-38.27-5.14-17.8-11.91-37.8-7-53.35-11.51-16.24-22.08-38.78-39.43-47.55-14.41 14-48.45 7.84-67.26 11.6 8.25 30.17 23.12 57.12 36 84.66s21.31 57.26 37.11 83.5c28.59 8.52 53.81 20.42 81.18 30.16-7.22-22.31-20.79-44.76-29.01-70.75zm-23.19 177.44c-2.47 2.86-4.79 11.75-5.8 17.4-5.57 30.84 5.8 69.25 13.91 87-2.67-.35-1.29 3.35-3.48 3.48-12.53-1-11.94-15.12-19.71-20.88-2.22 6.73 3.62 16.58-4.64 18.56-5.46-.34-3.85-7.75-9.28-8.12-2.11 1.37-.91 6.05-2.32 8.12 7.36 0 7.75 6.94 12.76 9.28-.83 6.91-10.18 5.28-9.28 13.91 4.19 3.33 6.5-5 11.6-1.16.54-7.18-1.59-17 2.32-20.87 2.58-2.68 4.52.39 8.12 0v9.28a7.06 7.06 0 0 1 9.27 3.48c-.34 8.54 1.73 19.51-4.64 22-5 1.66-5.33-4-8.11-1.16-.17 12.15 6.68 17.29 11.59 24.36 2.55-10.41 4.52-24.48 5.8-32.48 7.06-43.83-.68-97.26 22-125.25 3.49-1.53 7.16-2.89 8.12-7-10.72-8.18-30.62-8.79-38.24.05zm-41.76 40.59c11.89-2.22 4.71 14.63 13.92 15.08.34 7.68-.76 13.93-7 15.08-5.66.63-4.48-5.57-9.28-5.8-.56 8.91-4.66 25.61 4.64 27.83-.06-5.08-.81-10.86 3.48-11.59 9.12 6.7 12.11-5.32 15.08-11.6-6.11-13.61-10.65-28.78-16.24-42.91-.25-.91-1-1.35-2.32-1.16-.85 4.92-1.41 10.16-2.29 15.07zm-49.86 89.3c-6.24.51-8.59 8.29-13.92 9.28-9.75 1.82-12-7.31-20.88-5.8 1.92.16-1.21 4.84 0 8.12 10.34 9.55 27 2.08 36 1.16 8-.81 14.82 3.3 18.56-1.16-7-6.93-10.87-12.32-19.77-11.6zm91.62 49.87c-.85-3.54 2-3.41 1.15-7h-3.47c-.25 3.38.28 5.93 2.31 7zm-120.62 19.72c11.44 5.47 16.3-10.17 10.44-18.56-13-6.08-15.96 12.12-10.45 18.56zm281.82 44.07c7-1.51 9.82-7.19 17.4-8.12-5-5.41-7.27-13.6-13.92-17.39-1.31 8.36-4.02 15.31-3.49 25.51zm-277.18-22c-8.84-.18-10.16 12.28-7 20.88 17.42 6.99 20.14-20.59 6.99-20.92zm295.73 22h2.32v-2.32h-2.32zm3.48 13.91c3.34-.24 5.9.3 7 2.33-.47 7.81 4 10.7 2.32 19.71 3.6-.12 6.43.53 8.12 2.32-4.77 11.47-1.36 31.11-7 41.75 3.6.12 3.31-3.65 8.12-2.32 1.19 15.8 2.83 27.09 2.32 48.71a16.53 16.53 0 0 1 -8.12 3.48c-2.19 8.12.14 18.28 5.8 22 4.37-3.26 8.15-6.08 13.92-2.33 2.7-8.08 2-14.38 0-22-2.93-.54-8.35.56-9.28-4.64 4.66-5 4.89-14.44 4.64-24.35-.71-1.61-4.47-.18-4.64-2.32.14-13 1.53-24.76 4.64-34.8-6.56-.75-7-11.62-2.32-13.91a22.15 22.15 0 0 1 7 4.64c1 3.7-1.83 3.58-2.32 5.8 4.17-.85 5.86-4.2 11.6-3.48 1.06-4.72 2.5-5.6 1.15-10.44-3.14-2.8-4.12 3.59-9.27 2.32-11-13.32-19.29-29.43-32.48-40.59-.41 2.73-1.92 4.36-1.21 8.12zm-318.92 25.52c14.74.49 24.29-15.42 11.59-23.19-9.8 1.55-19.87 14.27-11.6 23.19zm361.83 1.16c1.17-2.7 4-3.74 8.12-3.48 1.79 8.94 2 36.56-13.91 26.67-1.73 1.38-1.81 4.38-3.48 5.8 6 13.06 5.39 34.12 1.16 48.71 3.39.86 3.62 4.89 9.28 3.48-.78-7.6-12.21-37.45 3.47-41.75 2.56.92 1.51 5.45 4.64 5.8 3.08-3.92-3.51-5.93-3.48-10.44 3.23-20.36 16.12-37.22 13.92-59.14-6.35 7.58-19.94 14.05-19.73 24.35zm-54.5 25.51c-5 1-10.4-1-15.08 2.32-2.36-.34-2.27-3.13-4.64-3.47.57 3.65-2.09 4.09-1.16 8.11 5.78.41 10.41 2 12.76 5.8-3.14 2.66-3.17 8.43-4.64 12.76 5.33 6.27 7.61 15.58 15.08 19.71a25 25 0 0 1 1.16-10.44c-12.09-5.69-6.08-29.53-1.16-38.27 3.12-1.12 5.94-2.55 9.27-3.47-.84-8.58 1.3-14.17 1.16-22-4.56.7-6-1.71-8.11-3.48-.09-4.94-1.94-8.11-1.16-13.92-3.28 1-3-1.63-5.8-1.16 3 9.58-4.47 17-10.44 10.44-.69-2.4 1.43-7.62-1.16-8.12-1.77 10.62-4.93 26-3.48 36 2.36-7.68 12.38-7.72 13.92-16.23h5.8c2.87 7.7.18 19.24-2.33 25.42zm-91.63-13.91c0 13.82 3 33.76 1.16 47.55 14.42-.88 28.46 4.77 41.75 1.15-8-6.32-20.61-8-35.95-6.95-6.76-8.59 3-30.86-2.32-45.23-.26-.9-1-1.35-2.32-1.16-.02 2.3-3.17 1.47-2.32 4.64zm-241.23 20.87c9.61 1.34 23.6-2.57 22-16.24-11.21-3.65-25.91 4.75-22 16.24zm338.65 0c3.42 1.57 7.18 1.46 9.27-1.16.67-5.69-1.5-8.54-5.79-9.28-.93 3.72-3.4 5.86-3.48 10.44zm66.1 11.6c2.79-.48 2.52 2.12 5.8 1.16-.48-2.8 2.12-2.52 1.16-5.8-2.74 1.14-7.36.38-6.98 4.64zm-438.38 12.76c9.39 8.89 24.66-3 25.51-13.92-9.46-.57-24.62 2.16-25.51 13.92zm385-7c-3.6 3.36-9.56 4.35-11.59 9.28 4 11.37-3.75 27.35 5.79 32.47 1-15.27 6.82-25.65 11.6-37.12-3.31-.09-1.98-4.9-5.77-4.59zm55.67 2.32c-1.78 2.47-5.15 3.35-8.12 4.64.89 6.29-1.83 9-1.16 15.07 4.31-.71 5.31-4.74 11.6-3.47-1.25-4.87 2.76-15.06-2.29-16.2zm-4.64 59.15c3.27 6.78 3.77 16.33 10.44 19.71.14-10.91-2.61-14.41-4.64-25.51 2.21-.5 2.91-2.5 5.8-2.33 5.31 2.81 4 12.27 4.64 19.72a6.34 6.34 0 0 1 5.8 5.8c2.73 0 3.41-2 7-1.16 1.91 6.59 5.38 11.63 8.11 17.4 6.82.38 13.76 7.95 16.24 16.23-1.34 4.08-6.58 4.25-8.12 8.12 4.16.53 8.16 7.25 11.6 4.64-2.54-.17-2.49-2.92-2.32-5.8 3.28-.2 8 1 8.12-2.32-20.79-26.37-40.08-54.25-55.67-85.82-3.67 9.14.03 25.6-6.97 31.36zm-16.23-10.44c2 9.84-.2 24.21-8.12 27.83 3.5.36 9-1.29 9.27 2.32a7.57 7.57 0 0 0 -1.15 5.8c2.44 1 3.42 3.53 7 3.48 0-3.08-.43-6.63 1.16-8.12-5.92-1.43-4.94-9.75-5.79-16.24 2.43-3 4.52-1 7-2.32-2.85-8.14 1.48-11.24 2.32-18.55-1.65-.28-2-1.91-3.48-2.32a13.25 13.25 0 0 1 -8.18 8.16zm-145 19.71c2.88.18 3.59-1.82 5.8-2.32 1.23-31.03-23.77-4.55-5.74 2.36zm121.77-1.16c.27 4 3.45 5.06 7 5.8-.21-3.66-.82-6.92-4.64-7-.24.99-.95 1.43-2.3 1.24zm41.75 27.84c5.47.72 7.11 5.26 12.76 5.8.2-3.28-1-8 2.32-8.12 5.77-1.13 6.9 2.37 10.43 3.48.84-3.55-1.18-4.23-1.15-7-5.24.59-9.2-.09-10.44-3.48-2.02 5.77-11.29 4.2-13.88 9.36zm-9.28-4.64a5.41 5.41 0 0 1 3.48 1.16c.61-3.57-3.06-4.31-3.42-1.07zm-176.28 23.19c13.28.26 20-11.37 17.4-23.19-13.16-3.91-16 11.54-17.34 23.23zm205.28-8.12c6 2.13 9.69 6.55 16.23 8.12-.18-5.43-.24-6.59-1.16-9.28-5.39-.57-10.11-1.11-15.01 1.18zm44.07 24.36c3.48 1.58 7.87 8.31 11.59 5.8-3.82-2-2.84-8.76-8.11-9.28-.07 2.23-3.78.84-3.42 3.52zm-277.18 8.12c.57 4.06 1.73 7.55 1.16 12.76 13.87-.14 26.66-7.24 22-22-9.61-3.31-16.14 6.04-23.1 9.28zm-78.86 18.56v9.27c5.45 6.84 19.92 5.28 23.19-2.32-5.61-5.21-14.47-14.73-23.13-6.91zm37.11 8.11c6.68 4.91 27 6.25 27.83-4.64-5.57-10.79-25.65-6.97-27.77 4.68z"></path></g></g></svg> 