<?xml version="1.0" encoding="UTF-8"?> <svg xmlns="http://www.w3.org/2000/svg" viewBox="0 0 2400 2400"><path d="m2310.67 1628.67s-26.35-17.56-27.15-15.17-41.52 67.87-41.52 67.87l-87-31.94-8.78-13.57 9.58-17.57 19.16-24 18.37-52.7v-27.15l-13.58-4.79-36.75 73.51-19.16-76.65-43.12 7.18 16 76.66 4 44.71-51.1-20.76-4-75 20.76-37.53v-25.55l-13.58-31.94-46.31-65.48-44.71-54.29-60.69-47.11-36.73-47.11 10.38-56.7 66.26-30.39 71.06-56.69 39.93-60.68 16-75.86-20-50.3-30.34-43.12-4-32.74-24.75-24.75-13.58-26.35-37.53-21.56-121.36-14.37-52.7 4.79-75.06 29.54h-24l-30.35 21.56-12.73 22.33-21.59 13.6s-24 .8-24 3.2-20.76 21.56-20.76 21.56l-35.93 34.33 1.6 15.17 20.76 9.58-2.4 23.16 5.59 70.26 20.76 59.89 16.77 39.13-78.25.79-19.16-27.94-70.27-13.58-51.9 6.39-27.15 14.37-16 34.34-196.42 30.34-79-92.62 5.59-56.7 60.68-25.55 104.6-87 19.17-79.85-8-23.15-2.28-25.58-9.63-23.14-10.37-20-6.39-25.55-15.17-28.75-14.39-16.7-14.37-21.56-17.56-13.57-16-4-15.12-15.21-94.22-19.17-95 7.19-53.5 5.59-31.98 14.37v11.18l-42.3 12.78-25.55 28.74-27.95 27.95-26.37 43.91-123.76-64.67-8 52.7-12 87 4.79 8 123 4 4.84 25.56 23.16 43.12 31.94 37.52 60.68 43.12s76.66 33.54 79.85 33.54 59.89 8.78 59.89 8.78l4.79 61.48-29.55 17.57-42.32 40.72-35.93 47.11-41.52-9.58-43.12-24.75-22.35-21.56-20.76-4.79-14.43-6.07-14.33 1-17-10.11-27.68 19.16-211.86-67.6s-52.17-17.57-50-21.3 28.21-66.54 28.21-66.54l32.33-103.25-25.55-13.31-10.65 27.68-10.64 39.39-39.36 75.59-22.89 24.48-149.58-58.55-116-46.31-25.07 18.67-5.32 17 2.66 29.28 26.62 26.62 64.94 23.42 36.2 54.3 27.64 28.2 66.54 42.58 1.59 42.59 5.87 105.93 5.32 50 5.86 26.08s21.29 17.57 23.42 16.5 34.6-11.71 34.6-11.71v-46.79l2.13-118.18 4.26-77.18 12.24-40.46 80.91 25 249.66 88.37 5.32 21.29 27.15 45.24-1.06 11.72-25.55 14.37-79.26 30.35-56.46 16.48-85.7 8.52-51.63 35.13 38.32 33 49 46.84s23.42 32.47 26.08 33.54 105.93 11.71 105.93 11.71l5.32 33.53 22.89 49 22.36 4.79 22.89-19.7 25.55 27.15 92.09-4.79s22.36 27.68 24 28.74 27.15 25 27.15 25l26.08-13.84-.27-24.75 46.31 22.36-5.59 80.64 35.94 27.95 103 35.93 53.5 14.37 62.28 4 56.69-16.77 132.55-38.33 43.11 22.36 59.89 30.34 19.16 52.7 57.49-8 3.2 8-4.79 28.74 11.18 12.78s25.55 0 31.93-.8 54.3-23.15 56.7-24 31.14-12.78 31.14-12.78l18.36 5.59 22.36 24 57.49 8.79 51.9-7.19 99.81-32.74 107.79-32.73 67.87-39.93 9.59 12.78s4.79 31.94 4 35.13-9.58 103-9.58 103l-2.4 93.43s12 6.38 15.17 7.18 8.78 16.77 8.78 16.77l20-10.38 19.16 3.19 4-75 11.18-135.74 38.33-80.65 28.74 2.4 16-46.32-6.39-9.58zm-576.14-423.1s-34.78 18.1-38 19.52-29.81-24.13-29.81-24.13l21.64-41.17 50.4 22.71z" fill="#fff"></path><circle cx="1725.1" cy="1354.73" fill="#fef065" r="32.21"></circle><path d="m1127.31 1558.87 2.39 57.49 12.78 29.54 83.04-6.38 133.35-79.85-12.78-83.04-31.94.8-71.06 60.68-91.83 10.38z" fill="#fef065"></path><path d="m1013.92 1383.21-38.32 165.28 4 8.78 67.07-8.78s28.75-20 29.55-22.36 13.57-27.14 13.57-31.93-17.57-74.26-17.57-74.26z" fill="#fef065"></path><g fill="#0e5256"><path d="m557.14 791.62c0-19.4 6.88-39.75 8.21-59.91s6.28-39.75 7.17-59.45c.61-13.5 2-27.62 19.59-18.08 25.79 14 51.87 27.5 77.14 42.37a99 99 0 0 0 14.68 7.24 162.4 162.4 0 0 0 18.64 5.71c9.27 2.31 17.34-20.5 21.29-27.46a101.49 101.49 0 0 1 8.53-13.39 103.83 103.83 0 0 1 9.61-10.07c18.58-18.58 37.31-41.34 63.76-48 4.74-1.2 9-3.77 14.12-3.95a3.51 3.51 0 0 0 2.31-6c-24.1-22.24-34.35-44.5-30.52-79.67 3.7-33.91 18.16-74.62 45-97.34 2.09-1.77 5.65-3.26 7.18-1 1.32 1.95-.47 4.44-2.1 6.13a124.45 124.45 0 0 0 -31.19 58.34c-5.56 24.24 3.19 45.57 1.08 68.83-.48 5.39 1.83 9.7 4.29 13.91 1.85 3.16 4.61 5.8 7 8.61 3.1 3.59 6 7.36 9.48 10.63 3.87 3.69 7.62 7.19 8.33 12.93.23 1.84 2.1 2.26 4 2.25 3.91 0 7.81-.32 11.64 1.18 7.18 2.83 14.76 4.6 21.69 8.11.37.19.72.58 1.09.59 8.4.25 13.72 6 19.29 11 5 4.59 9.61 9.62 12.58 15.93a25 25 0 0 0 3.66 4.93c2.81 3.38 2.39 7.75 3.58 11.62 2.47 8.1 1.42 16.52 1.13 24.76-.13 3.91-2 7.89-3.64 11.6-2.27 5.21-3.21 11.13-7.69 15.22-.56 4.52-4.73 6.87-6.56 10.81a16.34 16.34 0 0 1 -9.4 8.54 25.44 25.44 0 0 0 -7.88 4.64 29 29 0 0 1 -10.18 5.5c-2.22.73-4.1 2.69-5.94 4.31a4.7 4.7 0 0 0 -1.13 2.73c-.46 3.26.5 4.44 3.63 3.82 20-4 39.86-13 57-23.92 3.26-2.08 6.57-4.32 10.37-5s8.28.62 10 4.09c2.74 5.55-2.92 11.45-8.06 14.91-22.49 15.11-43.88 23.6-70 28.77-7.21 1.43-14.67 1.6-21.95 2.73-23.94 3.72-52.76-7.88-75.35-15.1-34.13-10.91-73.77-22.82-105.22-39.75-6.26-3.37-12.18-7.37-18.47-10.68-2.81-1.48-6.18-2-8.75-4-11.33-8.94-27.86-14.63-40.58-21.73-2.29-1.27-4.77-2.59-7.38-2.32-6.9.73-7.76 10.32-7 17.22a194.24 194.24 0 0 1 -11.13 88.11c-2.37 6.35-4 15.52 2.23 18.18a13.08 13.08 0 0 0 5.68.6 1140.37 1140.37 0 0 1 203.86 10.35c4.06.56 8.2.73 12.15 1.71 5.62 1.39 11.4.79 17.06 2.12 7.73 1.82 15.76 2.37 23.49 4.19 7.55 1.78 15.43 1.79 22.75 4.61a6.9 6.9 0 0 0 2.45.27c6.2 0 12.21 1.14 18.26 2.37 2.61.53 5.46-.17 8.12.22 5.12.75 10.38-.19 15.41 1.23a25 25 0 0 1 7.32 3c2.28 1.55 2.75 4.52 2.73 7.12 0 .84-1.89 2.19-3.05 2.36-2.07.29-3.86.45-5.7 1.89-1.2.93-3.55.61-5.36.49-2-.12-4-.84-6-1-8.26-.51-16.62-.26-24.76-1.5-5.94-.92-12.12-1.42-17.8-4.14-2.67-1.28-5.93-1.37-8.94-1.86-5.65-.91-11.34-1.6-17-2.61-5.81-1-11.54-2.48-17.36-3.5a71 71 0 0 0 -12.21-1.39c-8.08 0-15.75-3.35-23.88-2.61-3.93-1.84-8.24-.56-12.23-1.35-8.65-1.7-17.64-.59-26.14-3.49-1.88-.64-4.15-.22-6.24-.14a56.93 56.93 0 0 1 -17-2.29 8.89 8.89 0 0 0 -2.47-.22c-2.48.07-5 .22-7.44.34.31 2.57.42 5.19 1 7.72 1.73 8 6.33 14.91 8.85 22.64.57 1.77 2.33 2.27 4.15 1.41.37-.17.61-.63 1-.76 4-1.42 7.25-6 12.24-2.67 3.57-2.3 7.12.09 10.68.13 5.37.05 7.74 3.88 9.57 8.31 1.66 4 1.25 7.69-1.55 11-1.76 2.06-3.53 4.38-5.81 5.65a28 28 0 0 1 -8.63 2.62c-4.67.86-5.75 2.65-3.06 6.57a39.09 39.09 0 0 0 5.64 5.8c.72.68 2.17.9 2.49 1.65 7.09 17.06 32.4 32.76 47.24 42.71 22.32 15 46 27.92 70.12 39.65 53.38 25.9 118.7 29.36 176.75 17 28.26-6 57.88-15.46 84.08-29.46 27.8-14.86 47.42-36.57 70.55-56.41 6.64-5.69 11.39-12.46 13.33-21.2.43-1.91 2.76-3.49 4.42-5 1.2-1.08 2.79-1.7 4.1-2.67a2.49 2.49 0 0 0 -.2-4.4 3.41 3.41 0 0 0 -1.76-.46c-2.47.26-4.87-.17-5.92-2.51a14.73 14.73 0 0 1 -1-8.64c.74-4.23 4.32-6.18 6.83-9 1-1.14 2.77-1.62 4.12-2.5 4-2.57 5.32-5.7 4.08-9.8-.23-.78-1.31-1.34-2.06-1.92-4.1-3.18-6.18-7.24-5.27-12.47a4.82 4.82 0 0 1 1.69-3.06 53.42 53.42 0 0 1 8.1-4.17c9-3.66 1.07-15.15 18.57-12.68 51.19 7.22 101.1-14.27 152.1-14.84a62 62 0 0 0 14-1.94 38.72 38.72 0 0 1 8.63-.54c.67 0 1.89.85 1.89 1.31a3.36 3.36 0 0 1 -1.22 2.35 44.05 44.05 0 0 1 -17.17 7.6c-3.37.77-6.71 1.64-10.07 2.47-.6.14-1.48.07-1.76.44-3 4-8.2 3.39-12 5.8-.83.53-2 .57-2.71 1.22-1.08 1.05-2.78 2.64-2.55 3.6.45 1.9 2.71 1.52 4.33 1.39a41.71 41.71 0 0 0 5.42-.91 11.34 11.34 0 0 1 8.93 1.26c.77.49 1.8 1.83 1.59 2.32a4.51 4.51 0 0 1 -2.46 2.34c-3.09 1-6.27 2.25-9.45 2.36-4.85.17-9 2.81-13.72 3.17-1.61.13-3.19.69-4.8.84-6.52.64-13 1.16-19.51 2.35-5.44 1-11.07 1-16.62 1.44a201.13 201.13 0 0 0 -20.75 2.36c-8 1.54-16.09 3-24.21 3.78-6.63.61-13.37.29-20 .07a49.6 49.6 0 0 0 -14.66 1.76c-.88.24-1.87 0-2.78.21a8.8 8.8 0 0 0 -1.91.8c.36.61.64 1.68 1.11 1.76 4.64.88 8.75 3.11 14.12 2 6.63-1.32 13.73-.43 20.62-.3 7.88.14 15.47-1.86 23.19-2.87 4.65-.6 9.25-1.59 13.91-2.14 7.74-.92 15.53-1.17 23.27-2.3a52.1 52.1 0 0 1 12.63-.37c4.56.44 9.19.11 13.78.13 1.26 0 2.67-.28 3.71.21s2.17 1.82 2.09 2.66a5.06 5.06 0 0 1 -2.16 3.29c-.93.56-2.44.15-3.69.2-2.84.11-5.41.06-8.23 1.8s-6.76 1.14-10.1 2a79.28 79.28 0 0 0 -11.43 3.88c-1.87.8-1.64 1.75.28 2.56s4.22 1.55 6.18 2.6a3.09 3.09 0 0 1 1.49 2.4 3.49 3.49 0 0 1 -2 2.13 10.12 10.12 0 0 1 -4.72 1.09c-4.58-.58-8.32 2-12.48 3-3.73.86-7.43 2.22-8.27 7a5.56 5.56 0 0 1 -2.94 3.68c-3.62 1.31-7.47 2.86-11.19 2.78-7.15-.14-13.85 1.56-20.63 3.19-.59.15-1.12.59-1.71.68-2 .31-4.41-.06-6 .92-2.09 1.32.86 3.64 0 5.52a8.94 8.94 0 0 1 -1.42 2.37 9.73 9.73 0 0 1 -3 2.26c-6.72 2.82-12.83 7.17-20.27 8.2-.38 0-.8.69-1.06.6-6.57-2.21-12 2.93-18.22 2.9a14.16 14.16 0 0 0 -4.76 1.26c-2.07.76-4.49 1.31-6 2.74-3.14 3-6.6 6-8.43 9.81-2.51 5.17-6.72 8.09-11 11.26-24.54 18.32-42.86 42-71.87 55.31-13.28 6.07-27.44 9.75-40.9 15.34-22.71 9.43-24.65 25.36-31.35 47.35-.7 2.28-1.39 4.73-.69 7a12.06 12.06 0 0 0 2.24 3.7c21.91 28 47.41 53.65 70.42 80.46 2.29 2.67 4.6 5.35 7.12 7.79 1.33 1.29 2.8 3.26 5.17 1.53 6.42.8 12-2.12 17.88-3.9 23.69-7.2 54-6.85 78.93-10.65 17.28-2.63 34.05-7.54 50.76-12.55 7-2.09 34.72-5.53 38.64-11.54 3.08-4.72 5.91-9.61 9.07-14.27 29.79-43.89 125.17-31.43 165.69-15.75 4 1.55 5.47 5.36 7.3 8.66 1.36 2.44 1.64 5.45 2.72 8.08a21.47 21.47 0 0 0 3.21 5.17 3.22 3.22 0 0 0 2.61.7c3.41-.56 6.81-1.21 10.16-2 14-3.47 25.52-6.13 39.89-6.38a6.87 6.87 0 0 0 3.89-.86c3.44-2.45 0-7.63-2.93-10.65-10.85-11.14-14.34-27.31-17.36-42.56q-4.63-23.41-9.28-46.83c-3.42-17.27-1.49-38.82 2.14-56.08a20.64 20.64 0 0 0 .08-4.38c0-5.4-.08-5.24-5.31-7.31-10.67-4.21-21.28-8.75-29.63-16.82-4.35-4.2-7.84-9.39-11.22-14.46a78.89 78.89 0 0 1 -7.19-13.4c-1.23-2.94-1.23-6.39-1.83-9.59a10.77 10.77 0 0 0 -.88-2.91c-2.23-4.31-2.67-8.89-3-13.7-.53-7.1-1.18-14.26-3.07-21.2-.11-.4-.43-.76-.46-1.14q-.69-11.76-1.33-23.53c2.23-4.66.47-9.18-.34-13.78-.33-1.86.55-3.92.27-5.81-.85-5.69 0-11.14 1.18-16.71.73-3.4.22-7.08.12-10.63a100.89 100.89 0 0 1 6.55-39.83c4.24-10.82 6.91-22.17 11.67-32.8 1-2.19 1.27-4.71 1.89-7.07a11.92 11.92 0 0 1 4.42-6.55 7.58 7.58 0 0 1 3.33-1.26c1.43-.24 2.57.45 2.29 2.08-.45 2.6-.46 5.62-1.84 7.66-4 5.95-4.9 12.85-6.91 19.42a57.12 57.12 0 0 1 -2.46 6.9c-2.61 5.83-3.74 12-5 18.22-.88 4.19-1.71 8.39-2.64 12.57-.18.78-1 1.46-1 2.22-.5 7.43-.92 14.85-1.34 22.28a2.59 2.59 0 0 0 1.68 2.88c1.51.75 2.35.55 2.88-.75.69-1.69 1.58-3.52 1.52-5.26-.27-7.94 2-15.39 3.84-22.95 1.69-7.13 2.91-14.34 4.79-21.45a167.41 167.41 0 0 1 6.45-18.43c1.78-4.56 3.34-9.23 5.48-13.61s4-8.78 8.56-11.66c2.21-1.41 3.3-4.57 4.94-6.91 2.55-3.63 3.79-8.37 8.56-10.12.84-4.07 6-3.8 7.38-7.44a97.49 97.49 0 0 1 4.1-9.44c1.46-2.92 3.34-5.63 4.84-8.54 2.61-5.07 5.28-10.13 7.54-15.36s6.25-8.92 9.93-12.93c1-1 6.35-.81 6.35.13 0 1.81.28 4.2-.72 5.32-16.81 19-32.82 50.9-37.13 75.64l27-53c3.3-6.48 9.83-14.12 16.26-10.73-8.46-4.46-40.58 87.71-42.57 96.42-6.57 28.82-15.34 74.51-1.72 102.33 1.49 3 1.79 6.67 2.68 10a10.85 10.85 0 0 0 1.21 3.43c4.92 7 9.71 14.22 18.53 17a19.83 19.83 0 0 0 4.18.82c6 .5 8.44 4.13 7.56 10-1.31 8.82-7 13.44-14.52 16.63a13.15 13.15 0 0 0 -3.21 1.81 2.16 2.16 0 0 0 -.35 1.91 39.31 39.31 0 0 0 1.72 4c1.87 4.14.68 6.91-3.65 8.44-1.73.62-3.43 1.34-5.2 1.79a11.41 11.41 0 0 0 -7.62 5.73 8 8 0 0 1 -3.33 3.52c-2 .85-1.62 2.21-1.53 3.57.11 1.66 1.18 2.52 2.82 2.81 2 .34 4 1 6 1.18 3.77.4 7.2.25 10.14-3.12a117.35 117.35 0 0 0 8.17-10.81c2.43-3.55 5.65-6.56 8.5-9.82a47.76 47.76 0 0 0 4.35-5.22c1-1.57 2.6-3.1-.42-5.1-2.1-1.39-1.2-5.59 1.13-6.93a9.71 9.71 0 0 0 3.37-3.31c1.23-1.81 3.23-3.12 5-4.54 2.39-1.93 4.78-3.9 7.34-5.6a20.7 20.7 0 0 1 5.95-3 80.58 80.58 0 0 1 9.08-1.44c.61-.09 1.53 0 1.78-.31 2.48-3.36 6.54-2.32 9.73-3.15 45.06-11.73 86.28 10.09 106.12 50.6a2.29 2.29 0 0 1 .13 1.8c-1.45 2.65-2.94 5.28-4.6 7.8a1.76 1.76 0 0 1 -3.12.09 32.16 32.16 0 0 1 -3.41-5.1c-1.17-2.37-1.93-4.94-3-7.36a12.91 12.91 0 0 0 -5.78-6.12c-4.24-2.42-8.28-5.29-12.35-8-6.33-4.21-12.29-9.36-20.58-10.42-4.65-.59-9.27-3-13.44-5.42-5.21-3-10.27-1.92-15.48-.89-1.84.36-3.39 2.47-5.56.82a1.56 1.56 0 0 0 -.86.77 1.35 1.35 0 0 0 .51 1.16c3 1.18 6.18 2 9.1 3.45 9 4.33 18 8.8 26.92 13.33a55.6 55.6 0 0 1 7.33 4.5 35.64 35.64 0 0 1 4.34 4.09c.58.58.91 1.43 1.54 1.92 4.58 3.55 6.75 8.75 9.64 13.51 2.27 3.74 5.48 6.9 8 10.5 5 7.18 10.25 14.3 11.77 23.26.25 1.42.65 3 .27 4.3-4.3 14.79-2.13 30.82-7.11 46.19-5.48 16.93-13.63 32.89-21.67 48.71-10.9 21.47-21.8 36-37.19 54.16a180 180 0 0 0 -19 27.26 24.71 24.71 0 0 1 -9.22 10.22c-14.49 11.09-23.84 31.76-39.16 40.45a16.61 16.61 0 0 0 -3.94 2.89c-4.41 4.67-8.53 9.62-13.08 14.15a151.32 151.32 0 0 1 -12.12 10.63c-5.91 4.74-12.14 9.09-16.8 15.2-1.72 2.26-1.75 4.29.51 5.72a85 85 0 0 0 8.09 4.23c7.87 3.88 16.46 6.77 23.46 11.85 7.44 5.4 15.43 8.93 23.85 12a8.3 8.3 0 0 1 2.2 1c7.09 5.42 15.76 7.61 23.66 11.37 4 1.93 8.07 3.51 11.31 6.8 2.59 2.64 4.75 2.75 7.8 1.14.67-.35 1.7-.82 1.81-1.38 1-5.23 5.43-8.87 5.8-14.68.4-6 4-11.46 6.44-17.07 2-4.48 4.28-8.94 5.18-13.66.55-2.89 2.1-4.88 3.36-7.1 5.27-9.24 8.16-19.62 13.44-28.76 4.29-7.42 6-16.18 12.18-22.61 1.91-2 2.85-4.92 4.26-7.4 25.21-44.31 56.39-85.95 88-125.78 4.46-5.62 8.7-11.44 13.44-16.83a40.89 40.89 0 0 1 9.37-8c4.46-2.71 9.39-.94 11 3.44a6.2 6.2 0 0 1 -.07 4c-1.41 4-4.62 6.73-8.61 6.88-7.4.29-13.15 13.77-15.61 19.44-2.35 5.43-5.69 10.36-9 15.27-11 16.24-22 32.51-34.11 47.93-13.14 16.72-22.07 37.49-35.25 53.25-1.15 1.37-.41 2.45.69 3.09 8.81 5.17 19.44 8.26 28.65 13.45 15.62 8.82 36.92 9.63 54.56 9.29 19.63-.38 47.31-1.64 65.64-9.21 11.93-4.92 27.25-4.76 40-9.5a257.08 257.08 0 0 0 41.58-20.22c24.35-14.49 48.11-30.76 68.28-50.78 16-15.91 46.94-51.07 42.19-76.3-.49-2.62.86-4.77 2.19-6.89a45.27 45.27 0 0 0 3.64-6.41c1.28-3 .58-6.17-2.28-7.56s-3.8-3.53-4.9-6c-1.45-3.25-.93-6 1.7-8.13.79-.63 1.81-.95 2.62-1.56 1.73-1.3 4.13-2.12 3.36-5.19-.21-.85.64-1.91.8-2.9.43-2.67 1.25-4.78 4.57-4.75a8 8 0 0 0 2.83-1.1 12.06 12.06 0 0 0 1.28-.77c-.43-.44-.82-1.23-1.29-1.27-5.25-.49-7.45-4.94-8.93-8.58-1.63-4-1.75-9.17 1.36-13 2-2.43 2.39-4.08.05-6.36-1-.94-1.29-2.55-2-3.77-2.28-3.71-1.47-7.23 1-10.31s6-4.65 10-3c11.84 4.94 52.93-10.22 54.78-20.55-6.32 3.16-13.07 5.47-19.45 8.57a16.38 16.38 0 0 1 -7.13 1.27c-4.94 0-9.25 1.84-13.7 3.26s-9.25 1.43-13.94 1.57a3.48 3.48 0 0 0 -2 .41c-4.27 3.82-9.45 2.45-14.3 2.36a4.49 4.49 0 0 1 -4.27-2.95 4.31 4.31 0 0 0 -1.62-1.86c-5.68-4-5.19-9.56-3.67-15.07.67-2.44-.36-3.12-1.94-3.66a18.34 18.34 0 0 0 -6-1.27 5 5 0 0 1 -4.63-2.66 31.73 31.73 0 0 1 -3.12-7.29c-.8-2.78 1.91-3.87 3.33-5.55 1-1.21 2-.78 3.26-.15 4.65 2.32 9.37 2.26 14.34.6a46.31 46.31 0 0 1 11.93-2.51c4.6-.24 8.79-1.86 13.2-2.66 10.66-1.91 20.67-6.15 31.16-8.6 4.9-1.15 8.6-4.34 12.92-6.44.67-.33 1.21-1 1.9-1.22 10.24-2.54 19.21-7.77 28.12-13.15a28.82 28.82 0 0 1 4.86-2.39c3.81-1.41 7.79-2.4 11.51-4 5-2.17 9.83-4.73 14.68-7.22 8.54-4.39 16-10.42 24.19-15.44 4.18-2.58 8.76-3.1 13.27-4.17a4.9 4.9 0 0 1 2.95.58 2.16 2.16 0 0 1 .56 1.73c-9.39 7-14.41 17.93-22.75 25.9a13.1 13.1 0 0 1 -2 2c-3 1.75-6 3.36-9 5.06-2.83 1.6-5.61 3.3-8.48 4.84a427.31 427.31 0 0 1 -59.06 25.83c-15.07 5.39-40.75 8.37-53.17 16.75a21.49 21.49 0 0 1 -2.44 1.24 7.6 7.6 0 0 0 2.36 1.22c9.07 1 12.79.28 22.15-2.19a323.22 323.22 0 0 0 100.22-45.74 23.9 23.9 0 0 1 4.45-1.92c4.72-1.91 9.44-3.84 14.19-5.7a9.86 9.86 0 0 1 3.51-.91 4.86 4.86 0 0 1 3.12 1.15c.37.37-.12 2-.65 2.76-2.2 3.21-4.52 6.33-6.86 9.44-2.71 3.61-5.58 7.1-8.21 10.77-3 4.23-6.2 8.25-10.63 11.12-.4.26-.83 1.08-.69 1.41a1.73 1.73 0 0 0 1.41.81c4.09-.36 8.19-.66 12.24-1.31 3.4-.54 6.73-1.55 10.12-2.32 4.52-1 7.78-2.36 11.74-.68-8.55 11.51-35.32 24.64-47.88 31.92-17.85 10.35-36.67 17.89-55.61 25.88-2.3 1-4.41 2.23-7.05 1.88a3.72 3.72 0 0 0 -2.41.31 45.44 45.44 0 0 0 -5.36 4.52c-.48.48 4.87 3.91 6.48 3.74a4.63 4.63 0 0 0 2.65-1.3c2.64-2.73 6-3.29 9.52-3.66 2.22-.24 4.41-.77 6.6-1.23 3.79-.8 7.53-1.87 11.35-2.38a10.84 10.84 0 0 1 6 .82c4 2 7.25.63 10.72-1.22a91.13 91.13 0 0 1 11.11-5 72.15 72.15 0 0 0 16.55-9.19c3.69-2.65 7.14-5.13 11.62-6.41a199.88 199.88 0 0 0 20.76-7.23c2.63-1.09 3.43.35 4.59 1.63 1.34 1.46-.26 2.77-.92 3.67a19.44 19.44 0 0 1 -5.05 5.1c-3.58 2.26-6.08 5.35-8.61 8.64a71.2 71.2 0 0 1 -8.59 8.69c-2.11 1.94-4.5 3.6-6.79 5.35-1.13.86-2.4 1.56-3.45 2.51-.67.61-1.65 1.8-1.45 2.28.65 1.52 2.12 1.75 3.71 1.32 5.29-1.46 10.58-2.93 15.91-4.26a16.76 16.76 0 0 1 4.89-.47c.81 0 2.1.71 2.26 1.33a3.06 3.06 0 0 1 -.86 2.7c-3.47 2.13-7.09 4-10.67 6-2.68 1.46-5.49 2.7-8 4.35-.82.53-1.18 2-1.31 3.15 0 .32 1.51.85 2.37 1.2.36.15 1-.1 1.21.12 1.25 1.27 3 2.49 3.35 4 .18.9-1.84 2.87-3.21 3.32-3.66 1.2-7.51 1.81-11.27 2.72a14 14 0 0 0 -3.35 1.27c-4.84 2.67-9.6 5.47-14.45 8.11-3.78 2.06-7.9 3.53-10.83 7-.88 1-2.39 1.58-3.67 2.22-2.16 1.09-4.34 2.16-6.59 3.07a12.28 12.28 0 0 1 -3.44.59c-.33 0-.86-.69-1-.6-1.88 1.06-3.71 2.22-5.55 3.35 1.36 2.54 3.68.87 5.53 1.18a5.36 5.36 0 0 0 2.95-.61c4.76-2.28 13.43-4.4 18.22-4.34 4.59.06 6 1.38 5.57 5.93-.17 1.64-1.07 2.9 1.33 3.49 3.54.87 4.19 3.5 3.84 6.74-.33 2.92-.79 3.42-3.67 4a31.93 31.93 0 0 0 -6.39 1.88c-6.92 3.08-13.71 6.44-20.66 9.46-3.34 1.45-6.89 2.42-10.37 3.55a2.48 2.48 0 0 1 -1.84 0c-4.93-3.15-9.44 0-13.45 1.65a99.84 99.84 0 0 1 -19.61 6.31c-1.59.31-3.18.67-4.78.94-2.62.45-5.27.72-7.85 1.31-5 1.14-9.8 2.83-14.8 3.57-3.73.55-6 3.33-9.28 4.55-.91.34-1.52 1.89-2 3-2.12 5.41-4.87 10.38-9.27 14.3a6.09 6.09 0 0 0 -1.22 1.42c-3.88 7-7.68 14-11.63 20.92-16.28 28.57-41.92 50.5-69.68 67.49-19.86 12.16-71.43 23.17-78.55 46-.19.58-.83 1.13-.79 1.66.4 6.06-1.31 11.78-2.47 17.63a58.49 58.49 0 0 1 -2 7.66 10.76 10.76 0 0 0 0 7.15c1.28 2.91 1.5 6.49 4.46 8.64.68.49.73 1.82 1.15 2.73 1.46 3.17 2.91 6.27 5.44 8.88s3.58 6.81 6.73 9.4c1.86 1.53 3 4 4.75 5.62 17.7 16.61 32.2 33.86 52.16 49.15 42.28 32.39 72 75.08 100.22 119.2a37.72 37.72 0 0 0 4.37 5.94c6.74 7 9.21 16.2 13.15 24.66 1.53 3.31 2.72 6.73 4.6 9.94a33 33 0 0 1 4.13 14.63c.41 6.24.78 12.48 1.28 18.71.28 3.55 2.75 5.08 6.41 4 11.07-3.3 19.52 6.7 29.76-1.12 5.79-4.42 19.58-9.34 19.1 3.48-.09 2.34.91 4.79 1.7 7.09 4.78 13.9 8.64 29.76 12.1 44 .41 1.69 2.83 1.83 3.92.14 11.41-17.73 16.59-39.29 26.81-58 1.58-2.89 4-6.17 7.28-5.68a8.37 8.37 0 0 1 3.56 1.86l9.42 7.12c4.2 3.17 8.53 6.48 11.09 11.07 8.64 15.46-13.33 41.88-16.89 57-1.7 7.23-4.81 14-7.89 20.79l-12.85 28.11c-1.65 3.61-3.39 7.34-6.37 10-1.48 1.29-3.24 2.29-4.51 3.79-10.34 12.2 18.28 16.47 23.54 19.23 6.4 3.35 13.43 4.78 20.12 7.21 6.14 2.23 12.36 4 17.94 7.65 4.24 2.79 9.4 4.08 14.38 4.71 2.42.3 5.33-1.16 7-3.92 8.81-14.41 20.72-25.78 26.25-42.17 2.63-7.8 8.31-25.32 17.94-27 6.54-1.12 32.22 14.7 36.4 20.36 6.53 8.85 1.95 21.54-4.48 30.46-7.41 10.29-12.62 20-14.58 32.69-.62 4-2.46 7.07-4.72 10.12-.61.82-1.24 1.63-1.79 2.49-.81 1.28-1.26 2.51.56 3.45a12.07 12.07 0 0 1 3 2 4.33 4.33 0 0 1 1.35 2.64c0 8.71-15.26 64.24-20.16 64.56a9.94 9.94 0 0 1 -3.74-.11c-6.17-2.1-12.34-4.19-18.38-6.62-4.16-1.67-4.45-2-6.91 1.56a52 52 0 0 0 -6.25 11.73c-11.27 30.36-31.68 57.12-30.63 90.7.14 4.44 1.19 8.79 1.74 13.2 1.23 9.75 0 19.62-1.23 29.36-2.8 22.15-3.72 43.44-4.69 65.7-.07 1.59-.87 3.14-1.18 4.73-1.38 7.06-2.67 14.11-2.6 21.36 0 2.83-1.06 5.65-1.13 8.49-.21 8.25 1.16 16.37 2.3 24.52 1 7.24.21 14.39-3.52 21-2.36 4.15-8.58 5.8-13.54 2.8a42.31 42.31 0 0 0 -11.91-4.46 28.8 28.8 0 0 0 -4.27-.53c-2.1-.19-3.35.65-4.34 2.67-1.79 3.68-4 7.14-6.07 10.69-1.74 3-2.69 3.47-5.93 2.59-5.41-1.47-8.86-6-9.2-12.89a13.58 13.58 0 0 0 -1.73-6.46c-.74-1.26-1.78-1.87-2.74-.25-4 6.85-10.42 8-17.57 7.39a3.27 3.27 0 0 1 -3.08-2.61c-1.22-4.09-2.55-8.15-3.69-12.27a3.09 3.09 0 0 1 2.24-3.92c3.11-1.13 3.1-3.06 2.86-6.13-.35-4.65-.73-9.4.82-14.18 3.47-10.89-1-24.91-.72-36.33.45-18.55 1.21-37.1 2.06-55.63 1.84-40.21 7.5-81.61 7.5-121.37 0-.37-.43-.71-.62-1.07-1-1.91.38-5.2-2.65-5.75-1.84-.33-3.92.69-5.9 1-24.51 3.87-47.37 22.38-70.19 31.93-26.81 11.24-54.58 20-82.27 28.76l-97.86 31c-15.37 4.86-32.9 13.54-48.86 15.46-32.68 3.93-87.77 3.88-103.93-32.69-1.67-3.78-4.32-5.74-8.7-5.54a19.41 19.41 0 0 1 -7.08-1.22c-5.53-1.91-8.18 9.87-15.46 8.76-2.88-.43-5.64-1.78-8.55-1.68-4.8.18-8.49 4.11-12.73 6.36-5 2.64-10.9 2.93-16.17 5-8.76 3.37-15 11.14-22.78 16.36-10.53 7-35.31 12.08-47.26 5.26a44.58 44.58 0 0 1 -12.47-10.05 8.34 8.34 0 0 1 -1.7-4.55c-.41-7.22-2.23-14.37-1.35-21.64.21-1.76 1.26-3.41 1.87-5.14a9.37 9.37 0 0 0 .29-1.68c-.46.15-1.1.16-1.37.48-4.57 5.4-11.22 7.8-16.86 11.66a5.49 5.49 0 0 1 -4 .83c-5.27-1.52-10.47-3.31-15.64-5.15a4.43 4.43 0 0 1 -2.3-2.05c-1.68-3.47-5.48-4.58-7.86-7.3-.92-1-2.94-1.39-4.52-1.58-3-.35-4.77-2.11-5.94-4.61-3.12-6.67-6-13.43-9.27-20-5.51-11.31 3.49-17-11.76-26.17-23.92-14.42-52.67-19.22-73.66-38-2.58-2.3-5.64-4.05-8.42-6.13-3.62-2.7-7.21-5.43-10.73-8.25-.84-.66-1.3-.67-2 .08-1 1.07-2.17 2-3.09 3.13-11.13 13.77-48.07 14.44-64.93 19.92-14.85 4.83-29.59 10.23-44.79 13.89-13.6 3.28-33.27 1.62-44.8 10.31-1 .72-2.13 1.86-3.08 1.75-4.72-.52-8.4 2-12.12 4-4.64 2.54-9.09 2.67-14.24 1.65-11.71-2.31-22.75.41-34.33-1.89-17-3.37-34.08-6.17-51.13-9.15-19.27-3.37-38.63-6.76-57.17-13-22.71-7.67-43.61-19.54-65.71-28.67-20.28-8.37-43.62-13.63-56.73-33.08a17.19 17.19 0 0 1 -2.92-6.25c-.57-3.11.36-6.26 1.18-9.31 4.44-16.63 4.64-31.71 4.15-48.5-.09-3.23.69-6.5 1.18-9.73s-1.16-5.06-4.07-6c-1.74-.56-3.55-1-5.23-1.71-1.85-.79-4-1.45-5.3-2.86-2.25-2.49-5-3.21-8-4.14-2.54-.81-4-.27-4.92 2a19.57 19.57 0 0 0 -1.22 3.44 18.51 18.51 0 0 1 -9.94 13.37c-1.09.57-2.46 1-3.12 1.91-3 4.2-7.87 5.18-12.18 6.87a15.44 15.44 0 0 1 -11.51-.16c-4.49-1.86-9.12-3.57-13.26-6-3.41-2.05-6.18-5.13-9.24-7.76-1.18-5.68-4.9-10.14-7.17-15.27a81.11 81.11 0 0 0 -4.62-9.23c-2.46-4.1-6-3.94-9.57-3.29-7.09 1.27-7.06 1.43-10.84-4.36-.34-.52-.86-.93-1.16-1.46-.56-1-.8-2.64-1.58-2.92a24.86 24.86 0 0 0 -6.55-1.28c-.91-.07-1.87.94-2.84 1-22.57 1.85-44.19 2.92-66.94 2.68a12.42 12.42 0 0 1 -11.46-5c-5.46-5.65-14.41-21.37-21.77-12.62-7 8.31-16.35 12-26.67 9.15-18.52-5.17-30.33-16.48-37.35-34.63-4.39-11.35-6.32-23.48-8.07-35.53-.7-4.79-1.48-9.85-4.53-13.61-5.38-6.64-18.81-2.79-26.52-5.43-8.25-2.83-16.79-5.13-25.71-5.28a26.18 26.18 0 0 1 -7.82-1.27c-4.83-1.64-22.09-6.45-26.87-4.1-2.4 1.19-4.46 3.11-7 3.89-6.43 2-12.46-3.7-16.74-8.89-17.93-21.79-34.31-43.32-53.31-63.75-17.91-19.22-41.39-33.3-59.94-52.23-4.39-4.49 49.91-38.06 60.05-40.8 20-5.4 41.13-4.2 61.78-6 36.71-3.25 72.16-14.92 106.17-28.61 17.11-6.89 34-14.42 50.73-22.11 20.08-9.19 10.66-7.56 15.29-23.66a5 5 0 0 0 -.52-4.49c-6.64-11-14.77-20.79-17.69-33.7-1-4.51-1.65-9.44-4.8-12.83a21.83 21.83 0 0 0 -5.82-4l-17.38-9.34a93 93 0 0 0 -12.43-5.92c-11.38-4.11-23.41-3.29-35.07-5.72s-20.94-8.43-32.12-12.08q-30.72-10-61.13-20.93-33.75-12.12-67.08-25.35c-18.25-7.24-37.9-19.15-57.28-22.38a15.46 15.46 0 0 1 -5.14-1.92c-5.78-3.29-12.32-4.25-18.54-6.13-4.73-1.43-8.13.6-10.19 5-.59 1.27-1.29 2.49-2 3.71a12.15 12.15 0 0 0 -1.88 7c1.86 21.07-4.6 44-6.2 65.12-2.09 27.68-1.78 55.2-2.06 82.92-.37 35.8-.15 71-1.85 106.85-.13 2.61-.3 5.37-1.77 7.52s-3.73 3.21-6 4.27q-13.41 6.28-27.34 11.37c-3.73 1.36-7.61 2.68-11.57 2.36-12-1-17.5-17.16-29-20.7a6.36 6.36 0 0 1 -3-3 38.41 38.41 0 0 1 -2.53-6.22 3.11 3.11 0 0 1 0-2.38c9.9-14.21-2.6-62.29-3.86-79.14l-6.68-89.23c-.7-9.31-1.39-18.67-.57-28 .49-5.44 1.48-11 .29-16.29-2.17-9.65-17.85-16.13-24.92-22.51-12.07-10.9-27-18-40.66-26.81-22.28-14.47-30.4-37.19-48.88-55.1-2-2-3.51-4.54-5.31-6.78-16.56-20.91-43.31-25.58-65.61-39.91-12.92-8.3-35.25-26.42-38.14-42.8-.56-3.2-1.06-6.44-1.56-9.67-.38-2.63-1.57-5.55-.82-7.83 1.3-4 .15-7.88.86-11.71 1.34-7.31 4.08-13.7 11.79-16.64a10.81 10.81 0 0 0 4.4-3.13c2.3-2.87 4.22-6 6.27-9.09.34-.51.43-1.3.87-1.6 6.24-4.27 12.24-9.37 20.74-6.72a4.61 4.61 0 0 0 1.75.48c8.54-1.36 10 6.52 15.46 10.22 9.12 6.15 19.23 10.27 29.43 14.33 34 13.56 69.73 33 104.86 41.95a8.39 8.39 0 0 1 2.37.56c10 6.19 21.91 8.17 31.51 15.07 7.58 2 14.34 6 21.28 9.43a101.76 101.76 0 0 0 17.54 6.86 69.41 69.41 0 0 1 14.1 5.6c2.94 1.58 6.59 1.94 10 2.54 1.64.29 3.1.34 4.55 1.53 2.48 2 5.6 1.21 8.36.64 1.17-.24 2.45-1.76 3-3 7.95-18.58 21-33.93 31.85-50.76 12.35-19.12 19.95-40.22 27.14-61.71 2.17-6.48 18.23-71.34 28.49-54.2 3.3 5.5 8.49 7.56 13.88 9.42 8.38 2.89 11.48 10 14 17.37.5 1.49-.62 4.21-1.89 5.49-12.95 13-12.25 39.91-18.32 56.48-11.52 31.49-27.73 61.34-38.44 92.8-.59 1.73-1 3.53-1.4 5.3-1.16 4.55-1.05 5.37 3 7q60.48 24.59 123 43.76c37.75 11.6 80 16.6 116.55 30.92 3 1.16 6.41 1 9.32 2.85.63.4 2.29-.43 3.28-1 6.31-3.77 12.64-7.52 18.81-11.51 2.19-1.42 4.44-1.26 6.62-.94a64.93 64.93 0 0 1 11.31 2.53 16.87 16.87 0 0 1 6.15 3.87c2.69 2.61 5 4.76 9.13 2.46 2-1.12 4.75-.94 7.16-1.31a1.74 1.74 0 0 1 1.19.15c3.42 2.66 8.29 2.58 11.29 6 3.6 4.14 8.16 4.59 13 3.07 5.17-1.62 9.58.42 13.93 2.61a46.85 46.85 0 0 1 7.18 4.69c5.07 3.84 8.07 9.29 10.17 15.06 1 2.86 2.48 3.62 5 3.33 8.82-1 16 11.63 22.63 16.26 13 9.1 27.71 9.81 41.43 15.78 3.46 1.5 6.15.05 8.37-2.21 3.53-3.6 6.76-7.5 10.12-11.28 14.07-15.77 28.22-31.47 42.84-46.74 13.64-14.25 34.12-27.87 44.45-44.58a8.29 8.29 0 0 0 .63-6.58c-2.39-5.72.14-10.85 1-16.22.9-5.9 2.23-11.76 1.74-17.81-1-12.37-65.91-20.39-77-25.1-57.13-24.17-132.61-65.56-162.32-122.94-6.56-12.67-13.88-26.39-17.69-40.06-1-3.52-2-7-3.1-10.51a3.34 3.34 0 0 0 -3.52-2.7c-21.38-.4-45.13-1.84-67.41-1.11-16.62.53-44.09 11.63-55.72-4a11.24 11.24 0 0 1 -1.83-5.73c-.34-3.91-.2-7.89-.2-13.6zm937.86 963.84c.06-8.11 1.27-16 5.67-23.79 6-10.44 15.65-18.52 26.64-23.38 2.19-1 4.55-1.84 6.94-1.55s4.24 1.56 6.13 2.81c7 4.66 14 9.54 19.37 16 17.83 21.72 7.22 52.53 11.2 77.81 3.37.93 5.46-3.51 6.16-6.93a214.73 214.73 0 0 1 13.89-43.56c1.79-4.05 3.82-8.2 7.28-11 4.25-3.42 10-4.25 15.39-4.87 8.37-1 17-1.74 25.08.68 14.47 4.33 24.47 18.71 26.59 33.67 2.95 20.83-9.06 46.88-14.67 66.72-.6 2.13.85 3.65 3.2 3.58 10.22-.31 20.57.06 30.59-1.57 10.67-1.74 41.94 5.89 49.3 14.23 3.11 3.52 4.34 8.3 6.82 12.28 4.89 7.87 14.1 11.88 23 14.41 54.53 15.47 103.84-6.4 155.45-21.87 38.39-11.51 77.36-21.46 114.68-36.28 18.85-7.49 91.44-34.92 91.46-60.6a15.61 15.61 0 0 0 -1.47-5.68c-4.52-11.37-16.56-29.09-16.56-41.25-.46-3.09-1.69-4.29-4.1-5.21-1.14-.43-2.27-.9-3.43-1.26-14.85-4.54-121.48-46.9-128.94-34.64-2.58 4.24-7 6.4-10 9.93-6.06 7.11-14.1 11.31-21.86 15.92-5 2.94-10.5 3.36-16.14 2-1.18-.29-2.49-.84-3.58-.58-4.9 1.17-9.76.21-14.57-.26-3.57-.35-7.82-1-10.35-3.19-4.54-3.9-10.49-6-13.78-11.67-2.45-4.19-5.79-8-6.6-12.82-1.64-9.59 6.44-23.68-.92-31.48-1.94-2.06-4.64-3.19-7.26-4.27-15.55-6.4-30.61-12.64-46.74-17.09-3.72-1-7.36-2.39-11.13-3.09a9 9 0 0 0 -5.41 1.15c-1 .51-1.58 2.21-1.83 3.48-.8 4-1.52 8-2 12.08s.66 8.28-1.2 12.27a5.11 5.11 0 0 0 0 3.1 16.64 16.64 0 0 0 9.32 11.49c34.11 16.65 24.06 72.13 2.9 94.24-4 4.15-8.51 7.9-13.87 10-20.74 8-48.67-11.58-53.91-31.73-7.67-29.51 8.92-66.8 38.33-77.85a6.78 6.78 0 0 0 4.53-5.53c.38-3.67.27-7.53 1.45-10.93.92-2.62-.36-4.73-.06-7 .55-4.23 1.91-8.38 2.12-12.6.09-1.91-1.57-4.06-2.81-5.83-.78-1.09-2.4-1.54-3.43-2.51a10.7 10.7 0 0 0 -7.9-2.89 21 21 0 0 1 -7.93-.95c-16.71-6.26-7.79 12.38-13.16 22.21-3.83 7-10 12.36-16.12 17.55-6.84 5.83-14.41 12-23.38 12.33a31 31 0 0 1 -12.51-2.6c-19.26-7.61-30.23-25.49-25.77-46a27.33 27.33 0 0 0 -.13-11.15c-.59-3.18-1.58-6.35-1.68-9.55-.14-4.63-1.39-8-4.54-10.39-2.86-2.2-6.32-2.5-9.59-3.52-7.77-2.4-15.35-5.39-23.15-7.66-5.1-1.48-11.23-.06-11.85 7.8-.26 3.37-2.24 6.61-.12 10.16.5.83-.56 2.68-1 4a25.77 25.77 0 0 0 -1.1 13.47 10.75 10.75 0 0 1 -.7 6.82c-1.08 2.53-2.39 6-1.49 8.11 2.11 5 4.16 10.24 8.5 14.19a79.19 79.19 0 0 1 16 20.92c1.85 3.38 3.14 6.62 2.6 10.47a8.44 8.44 0 0 0 0 1.88c.76 9.7-14.54 31.57-21.69 37.27s-16.23 7.46-25.11 8.8c-10.46 1.59-21.73 2.54-31.11-2.36-11.18-5.84-17-18.92-17.81-31.51-1.37-21.09 10.38-42.68 27.21-55.16a63.45 63.45 0 0 1 23.49-11.35c2.15-.49 3.37-1.2 3.63-3.46a12.5 12.5 0 0 1 1.1-2.85c2.29-5.9.57-12.41 3.54-18.48 1.93-3.95 1.33-9.24 1.49-14 .6-18-43.11-12.89-53-21.32-4.1-3.5-4.64-4.48-7.46 2.11a9 9 0 0 0 -.8 2.92c-.18 2.91-.24 5.86 1.68 8.33 2.55 3.28 2.86 7.53 2.9 11.08 0 3.06-.73 6.45-.88 9.74 0 .59-.09 1.42-.46 1.73-5.2 4.36-1.14 17.26-2.94 23.33-1.44 4.82-4.9 9.29-9.72 10.72-19.74 5.82-18.88-20.92-19.73-32-.13-1.7-.42-3.67-1.88-4.55-3-1.78-5.67 2.6-6.47 6-3.85 16.34-11.85 33.52-27.31 40.06-6.66 2.81-15 3.08-20.54-1.61-2.54-2.17-4.25-5.18-6.73-7.42a21.84 21.84 0 0 0 -8.85-4.54c-15.56-4.41-31.25 3-42.46 13.71-2.94 2.81-7.48 3.16-10.92 5.15-5.3 3.06-31.2 11.22-28.72 19.28a11.38 11.38 0 0 0 2.89 4.15 92.06 92.06 0 0 1 13.52 19.54c7.55 14.28 8.06 35.66 19.39 47.3a37.82 37.82 0 0 1 7.93 11.42 10.66 10.66 0 0 0 4.15 5c3.09 2 6.06 4.19 9 6.42a225.52 225.52 0 0 0 59 32.88 39.41 39.41 0 0 1 4.5 1.86c6.32 3.43 8.7 2.19 8.53-4.92-.16-8.21-1.21-16.41-1.21-24.45zm-665.55-217c.42-6.24.94-12.28 1.22-17.8.49-9.55 1.26-19.24 4.61-28.2s9.63-17.23 18.44-20.93c16.41-6.9 36.2 5 42.92 21.47 3.59 8.81 4.32 18.48 5 28l2.33 31.81c1 14-7.78 41 8.16 48.24 9.13 4.14 16 11.12 22.37 18.39a14.72 14.72 0 0 0 12.81 5.47c8.6-.44 15.24-29.69 17.65-37.08 7-21.42 6.13-45.78 10.85-67.93 6.4-30 11.89-60.25 17.83-90.35 3.75-19 12.35-39.31 13.9-58.43.27-3.39 1.55-6.69 2.14-10.08 2.58-14.78 10-22.43-3.53-31.83-12.41-8.61-36.27-12.92-50.8-18.48q-25.32-9.68-50.4-19.94c-33.93-13.89-67.33-28.92-100.8-43.87-7.49-3.35-98.94-38.33-99.29-34-.37 4.76 1.44 9 2.52 14 2.73 12.74 20.36 33.34 31.88 40.13a24 24 0 0 1 5.08 3.47 32 32 0 0 1 3.27 4.44c7.6 10.7 26.94 14.36 39.15 15 8.45.43 17.35-1.54 23.71-7.13 1.69-1.49 3.29-3.28 5.45-3.92s5.08.58 5.12 2.84a5.38 5.38 0 0 1 -1.07 2.8l-7.45 12c-2 3.23-4.15 6.6-7.46 8.47-7.83 4.43-33.3 6.65-41.85 4.21-16.2-4.62-20.61-18.83-39.82-15.58-12.6 2.13-24.53 7.06-36.34 12-54.41 22.55-107.57 43.22-166.87 48.24-19.17 1.63-46.53.68-60.25 16.61-.8.92-1.86 2.27-2.83 2.29-2.77.07-3.86 2.24-5.58 3.63a39.58 39.58 0 0 1 -3.93 2.92 82.49 82.49 0 0 1 -10 5.74c-2.3 1-1.33 2.31-.66 3 3.35 3.7 6.52 7.72 10.47 10.67a146.53 146.53 0 0 1 13.73 11.49c2.64 2.52 5.87 4.43 8.81 6.64 2.13 1.61 4.32 3.16 6.34 4.9 3.92 3.37 7.73 6.87 11.6 10.29 3.17 2.8 6.9 4.73 9.93 8a91.78 91.78 0 0 0 10.27 9.32c5.45 4.29 10.63 8.25 16.47 12 3.27 2.11 6.26 6 4.87 9.63-.55 1.44-1.73 2.63-2 4.16-.42 2.75 2.31 4.86 4.74 6.22 21.92 12.23 44 13.91 68.13 18.15 5.81 1 11.6 2.22 17.4 3.32 5.21 1 10.41 2 15.63 2.9 1.61.28 3.31-.24 2.64-2.25-2.26-6.76-1.84-14.23-5.67-20.55a5.56 5.56 0 0 1 -.47-2.4c-.44-6-.82-11.92-1.29-17.88-.1-1.21-.61-2.37-.78-3.57-.54-3.83-1.7-7.73-1.32-11.47.52-5 2.22-9.85 3.46-14.76 4.86-19.15 35.07-45.55 55.65-39.32 8.67 2.62 15.25 9.84 19.7 17.72 12.9 22.82 10.8 50.8 8.33 76.89-1.43 15.13-4 29.56-.87 44.54a4.18 4.18 0 0 0 1.36 2.61c6.56 3.57 7.35 14.07 10.73 20.17 5.13 9.26 13.74 16.25 19.2 25.35 2.4 4 4.29 8.41 7.58 11.71 9.89 9.91 29.45 7 42 4.91 9-1.47 18.27-.41 27-3.31 4.57-1.52 9.31-4.3 10.56-8.95a17.49 17.49 0 0 0 .07-6.65c-1.53-13.87-1.71-26.36-1.71-40.11zm-138.87-363.15c-4.91-.74-9.89.51-14-4-1.43-1.57-2.73-2.53-2.91-4.83-.35-4.19-3.15-6.63-7.28-6.72-3.34-.07-6.69 0-10 0-4.5-.08-7.33-2.44-7.63-7-.26-4-2.32-7.63-5.35-8.48-4.94-1.39-7-5.43-10.3-8.23-2.23-1.88-2.64-4-1.22-6.64a67.81 67.81 0 0 0 3.17-6.67c2.13-5.2 1.67-6.46-2.72-8.14-2.47-.94-5.1-1.72-7.38-2.75a150.5 150.5 0 0 0 -37.12-11.72c-30.09-5.27-56.46-19.16-85.5-27.12a938.68 938.68 0 0 1 -97.93-33 44.56 44.56 0 0 0 -7.64-2 104 104 0 0 1 -17.58-5c-22.67-9-44.34-18.59-67.51-26.45-16.54-5.61-33.13-11.24-48.86-18.82-14-6.75-28.64-12.1-42.56-18.83a38.76 38.76 0 0 0 -4.37-2.19c-35.08-12-68.76-27.92-104.1-39.51-9.89-3.24-24.59-13.93-34.29-13.82a19.61 19.61 0 0 0 -8.36 2.52c-16.72 8.32-25.71 21.93-17 40.11 10.79 22.46 28.22 32.14 49.94 41a73.37 73.37 0 0 1 11.51 5.44 5.5 5.5 0 0 0 2.39.49c4.31.29 5.35-1.45 3.75-5.62-1.86-4.89-5.2-9.41-4-15.13a1.89 1.89 0 0 0 -.27-1.18c-2.46-4.68.28-8.48 2.53-12a6.81 6.81 0 0 1 8.51-2.78 7.74 7.74 0 0 0 4.29.21 100.88 100.88 0 0 0 10.47-3.3 40.37 40.37 0 0 1 14.35-2.86c1.65 0 3.48.17 4.9-.46 2.84-1.26 5.25.41 7.53 1.11 1.75.55 3.58 3.07 4.05 5 .6 2.5-.1 5.32-.32 8-.09 1-.89 2.19-.55 2.91 1.53 3.29 1.35 7.19 4.24 10.07 2.43 2.43 4 5.69 6.17 8.39a69.11 69.11 0 0 0 7.82 8.72q10.09 8.88 20.69 17.21c3 2.34 6.13 4.86 10.08 5.46s8.16.82 12.24 1.34c1.59.2 3.23 1.31 4.7 1.07 4.61-.72 8.62.47 12.67 2.53 5.47 2.78 11 5.15 14.38 10.87a8.77 8.77 0 0 0 6.31 4.56c4.18.73 8.14 2.71 12.32 3.41 7.12 1.19 13.66 4.06 20.28 6.66 55.45 21.75 111.87 40.92 168.13 60.46 28.24 9.8 56.46 19.69 84.51 30 123.24 45.51 251.58 82.63 372.24 136.81 2.58 1.17 5.06 2.6 7.84 3.11a122.2 122.2 0 0 1 18.17 5.13c6.3 2.22 12.41 5 18.59 7.54 72.5 30 149.42 55.06 222.31 86.44 38 16.33 76 32.52 114.62 47.26 42.87 16.37 86.74 29.59 129.44 46.36 36.13 14.2 70.53 32.17 106.33 46.92 18.58 7.66 37.39 13.77 56.66 19.83 4.14 1.3 9.08 2.48 12.49-.21 1.9-1.51 2.84-3.89 3.69-6.16l9.64-25.61c.81-2.16 1.64-4.43 1.36-6.72-.61-5-5.93-7.82-10.57-9.78-43.46-10.86-87.77-37-129.1-54.5-41.59-17.56-83.14-35.09-125-51.92l-148.12-59.53-72.35-29.08c-20.8-8.36-46.78-14.54-64-29.46-4-3.42-9.48-5.07-13.39-8.54-5-4.41-9.86-7.08-16.84-6.91-5.54.15-16 4.68-22 8-1.41.79-3 2.14-4.35 2a32.33 32.33 0 0 1 -9.3-2.68c-2.39-1.15-4.05-.89-5.39 1-3 4.36-6.4 8.61-8.58 13.38-1.22 2.66-3.07 4.35-4.9 6.2a66.23 66.23 0 0 1 -7.12 5.91 7.44 7.44 0 0 1 -3.25 1.44c-7.68 1.07-14.28-1.47-18.29-7.92-2.23-3.6-4.88-3.85-7.75-3.14a11.9 11.9 0 0 1 -11.16-2.57c-2.22-1.84-4.29-3.87-6.62-5.55-4.45-3.22-8.68-6.28-15.06-4.85-5.67 1.28-11.07-.49-14.06-6.39a4.65 4.65 0 0 0 -1.58-1.89c-5-3-5.89-8.54-8-13.3a2.73 2.73 0 0 1 -.27-1.79c1.57-4.39 1.58-9.43 4.74-13.13 3.87-4.54 5.61-10.38 9.56-14.88 1.1-1.25 1.17-3.39 1.72-5.13a40.82 40.82 0 0 0 -5.22-.85 15.13 15.13 0 0 0 -3.56.73c-6.49 1.38-14-2.83-16.12-9-.73-2.12-1.47-4.24-2.39-6.27-.49-1.08-1.17-2.45-2.12-2.86-5.22-2.29-10.06-5.36-15.81-6.6-5.29-1.13-10.78-2-15.52-5.09a12.2 12.2 0 0 0 -5.66-2.16c-5.92-.38-10.88-3-16-5.61a109.31 109.31 0 0 0 -12.45-5c-7.09-2.5-14-5.56-21.73-6-2.91-.16-5.77-1.88-8.59-3-2-.85-3.9-2.61-6-2.85-4.42-.5-8.2-2.48-12.15-4.14-.74-.31-1.64-1.09-2.19-.89-4 1.43-8.59 1.61-11.25 5.69a36.11 36.11 0 0 1 -17.08 14.14c-3.37 1.35-6.44 3.91-10.48 1.9-.63-.31-2 .21-2.68.77-2.27 1.83-4.71 1.83-7.31 1.12a57.3 57.3 0 0 1 -7.63-2.11c-4.57-2-9.31-1.87-14-1.57-3.91.24-7.75 1.09-11.59 1.67zm1347.42 388.09c.9-4.43-.78-8-5.46-10.1a.81.81 0 0 1 -.44-.41v-.05c0-.15-34.69-4.54-40.15-8.16-9.49-6.28-16.87-15.28-23.14-24.77a198.72 198.72 0 0 1 -23.34-48.41c-1-3-1.55-6.28-2.56-9.4-.54-1.64-.65-3.49-2.57-3.78s-4.11-.69-5.83 1.2c-3.81 4.21-8.42 4.49-13.61 2.83a8.69 8.69 0 0 0 -8.67 1.59c-3.24 2.61-7.33 3.47-11.68 3.06-6.87-.64-11.88-4.68-13-10.87-1.13-6.36-2.21-7.23-8.5-6.7a12.27 12.27 0 0 0 -3 .74 7.76 7.76 0 0 1 -6.58-.41 24.66 24.66 0 0 0 -6-2.75c-3.8-.89-5.18-3.19-4.77-6.77a17 17 0 0 1 1.32-5.9c1.24-2.39 1.24-4.79 1.12-7.25-.19-4-2.83-6.16-6.7-4.91-1.88.61-3 .78-4.3-.67a4.36 4.36 0 0 0 -2.2-.94c-4.29-.9-6.64-3.81-8.12-7.69a22.69 22.69 0 0 1 -1.06-14.11c.46-1.76 1.57-3.36 2-5.13 1.9-8 6.55-14.41 11.89-20.42a37.86 37.86 0 0 0 3.51-4.3 5.08 5.08 0 0 0 1-3.36c-.18-.73-1.8-1.1-2.78-1.62s-2.23-1.09-3.26-1.76c-3.59-2.33-7.2-4.65-10.7-7.13a21.51 21.51 0 0 1 -4.41-4c-4.14-5.26-8.61-9.93-16-9.9-3.41 0-7-.25-10.18.59-5.86 1.54-11.81 1.87-17.74 2.22s-10.36 2.4-12.1 8.2c-4 13.41-3.42 27-11.91 39-8.65 12.2-22.26 21.18-37.14 22.7-20 2-33.77-7.86-48.39-19.53-2-1.57-6.39-2.14-8.13-.71-5.06 4.12-10.42 7.94-14.52 13.14-14 17.78-44.22 27.69-43.29 54.39 0 1.55-.81 3.13-1.22 4.69-.83 3.14-1.76 6.26-2.42 9.43-.31 1.48.13 2.46 2.11 3 6.87 1.85 13.62 4.11 20.42 6.2 3.54 1.1 7.15.21 9.15-2.44 2.84-3.75 5.55-7.6 8.32-11.41.48-.66.82-1.62 1.46-1.93 6.5-3.12 13.31-4.63 20.17-1.63 3 1.32 5.26 3.89 4.85 7.93a27 27 0 0 0 .25 8.7c1 4.4 2.11 8.72 2.3 13.27a6.09 6.09 0 0 0 2.26 4.08 15.82 15.82 0 0 0 6.54 3.26c4.57.73 8.54 2.71 12.59 4.67a28.39 28.39 0 0 0 5.17 1.76c33 8.78 66.51 30 101.12 28.94a6.72 6.72 0 0 0 5.83-2.85c2.83-4 5.83-7.92 8.35-12.11 2.83-4.71 7.23-7.42 11.51-10.45 4-2.81 8.37-2.74 12.54-2 2.29.4 4.22 3 6.25 4.7 1 .8 1.64 2.09 2.71 2.58 5.65 2.62 6.51 8.48 7.79 13.2 2.39 8.73 4.38 17.41 10.35 24.54 1.46 1.74 3.54 3.19 4.38 5.18 3.63 8.56 29.89 10.34 37.82 12.5 27.11 7.4 53.85 16 80.71 24.25 5 1.54 10.25 2.41 15.32 4 3.62 1.16 7.61 1.56 11 3.54 16.26 9.69 10.44-11.65 12.34-19.34.91-3.74.6-7.78.93-11.62a102.45 102.45 0 0 0 .49-12.39zm-82.16-113.4c-1.39 7.22-1 20.07 3.64 23.59 19.23 14.52 18.73 45.37 39.71 58.24 19.15 11.76 41.6.2 53.09-16.67 12.46-18.29 9.08-36.92 1-56.18-16.3-38.73-46.79-69.34-72.69-101.63-4.14-5.16-8.32-10.3-12.84-15.13-16.11-17.19-36.24-29.57-54.17-44.65-12.82-10.79-33.75-27.38-42.23-41.68-1.51-2.55-2.56-5.42-4.56-7.61-10.16-11.11-26.54 1.8-36.73 5.69a39.6 39.6 0 0 1 -33.52-2.72c-9.61-5.58-17.81-10.19-27.86-2.17-11.34 9-27.54 16.09-40.71 22.74-12.42 6.26-22.59 16.11-32.56 25.81-20.45 19.9-53.69 42.24-65.14 68.13-3.16 7.17-9.46 12.36-15.13 17.77-10 9.56-18.62 20.51-27.17 31.41-9.72 12.4-11 28.11-20.23 39.71-.8 1.67-.49 2.94.34 3.76 1.4 1.4 3.15 2.92 5 3.32 4.86 1.06 9.23 3.2 13.69 5.21 4.3 1.95 5.44 1.64 8.59-1.8 2.11-2.29 1.88-5.38 3.09-7.87 3.59-7.44 6.82-15.14 12.38-21.46a15.67 15.67 0 0 0 2.15-3c4.22-7.92 10.55-13.89 17.59-19.23 10.55-8 23.31-15.85 31.82-26 11.35-13.58 3.74-19.56 4.71-33.34 2-28.47 21.62-44.66 47.83-55.36 6.12-2.51 12.54-4.64 19.15-4.7 12.69-.1 27.88 10.65 36 19.56 4 4.36 8.34 8.58 9 15a13.2 13.2 0 0 0 1.07 3.5c1.59 4 2.69 4.75 7.11 4.19a8.46 8.46 0 0 0 4.53-1.63c2.1-2 4.7-2.63 7.2-3.22 6.92-1.64 13.58-4.28 20.68-5.19 1.17-.15 2.48-1.16 3.4-.84 5.15 1.76 11 2 14.84 6.77a17.46 17.46 0 0 0 4.15 3.22c6 3.93 18.51 12.57 25.6 10.57 2.47-.7 4.43-2.53 6.42-4.15 25.49-20.64 46.34-9 58.93 15.34 8 15.41 22.07 24.51 30.36 39.77 10.69 19.67 1.9 31.86-6.41 49.26a15.83 15.83 0 0 0 -1.12 3.67zm230.33 77.68c-.41-.91-.69-2.8-1.78-3.66-1.89-1.48-3.2 1-4.83 1.56a3.53 3.53 0 0 0 -1.75 1.74c-2.57 5.49-6 10.49-7 16.78-.94 5.69-2.2 11.5-6.16 16.31-2 2.45-2.83 5.88-4.76 8.44a39.65 39.65 0 0 0 -7.52 18.45c-.62 4.32-3 7.59-4.64 11.29-1.23 2.76-4.38 3.22-6.85 3.55-4.08.56-7.3-2.91-7.6-7.07-.4-5.67-2.55-11.31 0-17a2.17 2.17 0 0 0 0-1.24c-1-4.79-1.78-9.62-3-14.34-1.68-6.28-3.81-12.44-5.57-18.7a32.27 32.27 0 0 1 -1.34-7.84c-.14-6.83-2.52-13.13-4.46-19.6-2.82 3.53-8.3 2.56-12.7 1.54s-10.24-1.08-12.07 3.06c-1 2.28-.24 4.91.48 7.31 10.06 33.59 11.81 72.3 14.33 107.12 1.22 16.88 2.45 33.82 5.76 50.42 5.18 25.94 18.9 47 26.86 71.65 1.25 3.84 1.28 7.74 2.39 11.5 1.67 5.66 3.26 11.34 4.7 17.06.6 2.36.67 4.85 1.08 7.26.78 4.62 1.68 9.21 2.41 13.83 3.92 24.49-2.3 52.88-4 77.53 0 36.5-5.48 72.69-4.7 109.13.11 5.2-.11 10.31-2.12 15.18a5.89 5.89 0 0 0 .83 5.85c1.58 2.42 3.89 2.8 5.92 1 .93-.85 1.65-2 2.71-2.58 1.69-.87 3.56-2.37 5.52-1.1s4.61 2.74 5.48 4.75c2.17 5 4.71 10.21 2.11 15.94-1 2.18 1.09 2.86 2.15 3.91.22.21 1.66-.51 2.27-1.08q3.54-3.33 6.89-6.86c1.18-1.23 2.26-1.68 3.73-.44.77.64 1.95.86 2.59 1.58 1.58 1.78 2.93 1.36 4.07-.27 1.6-2.28 3-4.56 2-7.7-.58-1.93-1-4.35-.29-6.13 1.52-4 .3-8.71 3.07-12.43.54-.73.38-2 .55-3 .39-2.2.89-4.39 1.14-6.61a19.79 19.79 0 0 0 -.07-4.35c-.27-2.43-1.07-4.85-1-7.26 1-31.64 3-63.4 4-95.12.7-22.23 4.32-44.26 12.18-65.12 8-21.18 24.06-39 30.47-60.31.53-1.78 1-3.74.32-5.47-1-2.54-4.05-3.5-6.71-4.16-7.89-1.93-11.51-2.78-17.56 3.26-4.67 4.49-6.27 5-11.82 2.59a14.5 14.5 0 0 0 -2.2-1.09c-8.58-2-13.77-8.59-18.45-15-11-15-26-12.08-26.06-36 0-9.57 1.67-19.26-.31-28.62-3.64-17.22-21.79-36-12.61-54.19 5.31-10.5 17.93-18.26 23.9-30.62 8.42-17.43 11.47-36.33 18-54.31 1.12-3 1.29-6.41 2.02-10.36zm-1836.89-430c-.34-1.79-.13-4-1.16-5.23a7.8 7.8 0 0 0 -5.29-2.64c-5.75.06-10.47-3.4-16-4.12-3.57-.46-7.57-1.26-10.34-3.32s-5.91-2.73-8.6-4.53a3.26 3.26 0 0 0 -4.49.32c-1.06.94-2.63 1.37-3.51 2.41-13.09 15.55-31.43 2.78-41.34-8.44-28.8-32.6-70.89-42-95.37-80.06-3.36-5.23-6.57-10.85-11.73-14.34s-13-4-17 .77c-4.48 5.29-2 13.32 1 19.59 27.84 58.79 77 103.47 134.31 132.77 5.37 2.74 7.67 7.14 6.52 12.63-3.79 18-1.15 36.88-.35 55.14 1.53 34.67-.32 69.48 3.46 104 3 27.3 7.77 85.59 47.55 67a13.7 13.7 0 0 0 5.45-4c2.66-3.65 1.81-8.66 1.31-13.15-1.75-15.62 3.72-31 3.83-46.76.12-16.35-1.66-32.65-1.53-49 .28-36.49.57-72.92 3-109.09.45-6.8.11-13.57.95-20.43s3.82-12.91 6.38-19c1.41-3.53 2.83-6.75 2.95-10.59zm1282.72 447.18c.4 5.07 4.14 7.52 12.72 10.22 23 7.26 46 14.44 69.31 20.9 20.45 5.68 40.68 12.14 61 17.53 4.71 1.25 9.35 2.79 14.08 3.94 3.26.79 4.52-.11 6-3.39a7 7 0 0 1 1.06-2.21c4.25-4.11 4.83-9.66 6.42-14.95 1.39-4.58 4-8.81 6.33-13.07.84-1.56 2.67-2.47 4.26-1.21 1.4 1.11 3.1 1.83 2.45 4.88-1.36 6.41-3.79 12.47-5.27 18.82-.82 3.53-1.16 7.19-3.71 10.24a3.32 3.32 0 0 0 .79 5c4.67 2.53 9.36 5.63 14.42 6.69 4 .83 8 1.79 11.84 3 6.57 2 13.65 1.55 20 4.76 15.76 8 33 13.83 49.39 20.42 5.59 2.25 11.21 4.5 17.11 5.7 5.43 1.11 11 1.3 16.48 2 11.69 1.52 22.93 5.38 34.07 9.21 22.8 7.85 43.4 17.84 67.2 23.34 18.24 4.21 35.61 9.33 53.3 14.64 1.55.46 3.12.86 4.69 1.28.68.18 1.36.34 2 .5a6.9 6.9 0 0 0 -.39-1.67 19.73 19.73 0 0 1 -1.73-12.69c.81-4.19.06-7.92-1.11-11.74-1.43-4.66-3-9.27-4.33-14-.92-3.31-1.61-6.69-2.2-10.09-2.89-16.58-66.6-26.38-81.1-30.9-53.36-16.62-107.26-30.91-161.47-44.47-55.43-13.85-113.94-31.18-167.66-50-6.88-2.41-14.37-2.39-21.08-5.45-3.28-1.49-6.84-1.22-10.36-1.33-4.57-.15-4.64-.3-5.94 3.5-2.31 6.75-4.67 13.48-6.78 20.3-1.37 4.44-2.04 7.7-1.79 10.3zm-579-299.6c2.33 1.94 2.59-.11 3.27-2a40 40 0 0 1 2.73-5.43 91.8 91.8 0 0 0 9.85-26.83c.72-3.73 1-7.72 3.86-10.83.73-.81.75-2.25 1.09-3.4 2.27-7.85 4.63-15.63 10.39-21.87 1.63-1.76 2.51-4.2 3.92-6.2 1.53-2.17 2.94-4.66 5-6.19 4.22-3.14 8-7.07 13.64-8 1.74-.29 3.38-1.47 5-2.42s2.87-2.07 4.29-3.12c-2.39 1.76-39.48-43.9-42.43-48.36-6.16-9.33-12.37-20-23-23.48-3.06 10.67-8.32 22.1-20.39 25a6.34 6.34 0 0 0 -2.78 1.24c-4.34 4-10.07 5.3-15 8-1.9 1-4.24 1.29-6.37 1.94s-4.54 1.23-6.87.29c-2.64 2.51-5-.65-7.61-.36-4.82.53-9.34-1.31-13.69-2.92-3.58-1.32-7.53-3.22-9.83-6.06-4.56-5.62-9.51-11.21-11-18.83a15.35 15.35 0 0 0 -3.52-6.42 11.66 11.66 0 0 0 -5.39-3.89c-1-.26-2.71 2-4.07 3.15-.64.54-1.17 1.21-1.8 1.75-23.61 20.23-66.87 53.51-77.81 84.61-1.9 5.43-1 7.74 4.53 8.76a56 56 0 0 1 6.58 1.35c4.31 1.34 8.58 2.75 13.21 2.46 1-.07 2.35-.1 3 .48 3.92 3.61 6.21.68 8.64-2 .42-.46.93-.85 1.32-1.33 5.26-6.53 12.74-7.84 20.39-8.47a63.82 63.82 0 0 1 11.89 0c5.62.6 11.36.74 15.92 5.36a12.62 12.62 0 0 0 6.92 3.59c3.71.59 8.14 1.94 10.49 4.55 5 5.52 12.54 7.19 17.16 12.89a3 3 0 0 0 2.13 1c4.8-.19 9.48.08 13.8 2.53.48.27 1.23 0 1.86.06a34.32 34.32 0 0 1 20.18 7.67c7.57 6 15.12 12 21.48 19.39 3.06 3.53 5.13 7.3 5 12.22-.07 3 .8 6.07 1.18 9.11.09 2.02.95 2.19 2.84 1.01zm635.8-305.15a27.17 27.17 0 0 0 -3.84-13.69c-2.06-3.52-4.7-6.75-6.39-10.43-11.48-25-42.9-37.41-68.9-38.4-9.79-.37-20 .43-28.58 5.12-10.43 5.68-17.14 16.21-23.39 26.31-4.46 7.21-9 14.58-10.87 22.85-3.79 16.71-.27 48.87 12.58 61.31 8.05 7.8 16.46 15.82 27.06 19.46 18 6.18 33.38-2.8 50.66-3.26 3.82-.1 6.46-2.09 9.52-3.78 3.92-2.15 6.94-5.5 11.27-7.23 2.66-1.07 4.52-4.41 6.45-7q7.05-9.28 13.81-18.79c2.12-3 4.86-5.85 5.79-9.2 2.03-7.58 3.24-15.48 4.79-23.27zm-933.12-252.87c-.16 6.5 1.11 12.72 4.38 17.91.31.48.12 1.25.36 1.8 3.79 8.48 8 16.66 16.17 21.9 1.54 1 3.53 1.4 4.87 2.58 5.55 4.9 12.11 7.29 19.2 9.05a56.09 56.09 0 0 0 28.05-.15c5.27-1.38 10.42-3.41 15.81-4.55 2-.42 4-1.28 6-1.07 16.32 1.79 39.48-26.92 46.48-39.28 13.74-24.27 6.78-56.27-20.82-67.09-4.35-1.7-8.45-4-12.8-5.52-23.45-8.22-45.52-3.85-67.45 7.5-8.72 4.52-17.14 9.89-23.83 17.08-8.44 9.06-16.1 25.18-16.42 39.84zm315.28 790c-1.14-12.51-5.86-24.4-10.72-36-5.32-12.71-18.11-31.44-31.31-37.42a11.17 11.17 0 0 0 -6.5-1.24c-4.89.91-7 6.56-8.35 11.36-9.56 35.58-19.52 71-25.71 107-1 5.56-2.91 11-4.35 16.44-5.62 21.3 56.38 1.48 64.88-5.81a65.07 65.07 0 0 0 22.11-53.75c-.01-.16-.01-.35-.01-.55zm164.85 143.83c4.07 0 14.49-2.86 19.43-5.44 8-4.17 16.21-7.7 23.41-13.36 10.7-8.43 21.7-15.23 32-24.39 9.39-8.38 33.63-7.88 36.13-22.94a23.24 23.24 0 0 0 -.2-6.81c-1.72-13.44-1.62-29-6.58-41.76-1.38-3.54-3.08-7-3.29-11.11-.12-2.4-2.14-4.73-3.45-7a2.75 2.75 0 0 0 -1.84-1.19c-4.9-.55-9.7.41-13.34 3.56-15.53 13.43-45.92 22.54-57.36 38.66-18 25.33-17 53.14-26.26 81.15a46 46 0 0 0 -1.33 7.82c-.37 2.23.69 3.11 2.68 2.84zm-94.37-31c1 19.63 8.89 43.39 18.62 45.13 1.86.33 3.87-.25 5.81-.35 5.14-.27 10.31.57 15.41-1.17 2.66-.91 5.62-1 8.46-1.33 4.28-.5 8.65-.52 12.85-1.4 6.07-1.27 11.84-3.33 13.21-10.66a6.2 6.2 0 0 1 1-2.23c3.67-5.38 4.13-11.86 6.15-17.8a18.55 18.55 0 0 0 1.18-4.1c.59-6.73 3.75-13.12 2.66-20.08-.08-.52.54-1.1.68-1.69q2.14-8.91 4.24-17.82a26.15 26.15 0 0 0 1.16-6c0-3.2-2.78-4.91-5.93-4.22a22.55 22.55 0 0 1 -5.46.72c-19.7-.56-56.54 7.43-73.41 17.93-5.32 3.42-7.19 13.56-6.63 25.12zm-501.08-151.76a55.91 55.91 0 0 0 1 7.85q4.62 26.35 11.6 52.21c1.82 6.72 2.93 18.66 7.48 24.07 3.38 4 9.82 3.77 13.2 7.91a20.56 20.56 0 0 0 7.18 5.38 21.91 21.91 0 0 0 8.62 2.28c2.89.09 5.31-3.54 5.66-7.17.2-2 .07-4.19.64-6.12.79-2.69.48-5.13 0-7.85a34 34 0 0 1 -.24-11.68c1-5.25 2.3-10.37 2.16-15.79a24.53 24.53 0 0 1 1.11-6c1.26-5.38 2.79-10.63 2.75-16.32-.14-19.86-2.52-38.63-15.89-54.45a16.71 16.71 0 0 0 -5.77-4.85c-4.86-2.13-10.47.06-15.12 2.62a95.64 95.64 0 0 0 -15.31 10.46c-3.18 2.65-6.27 5.63-7.83 9.46a19.15 19.15 0 0 0 -1.24 7.99zm1626 306.17a7.5 7.5 0 0 0 5.56-3.75c2.17-3.85 2-8.51 2.22-12.92.31-7.28 4.15-13.56 7.19-19.86-1-1.9-2.49-2.43-4.55-2.8-27.18-5-50.81-22.85-76.15-32.53q-7.12-2.73-14.28-5.42c-6.69-2.52-12.75-5.72-19.83-6.6.34 9.13 2.39 19.41 3 29.06.82 12.58 11.88 31.32 25.49 33.22 3.54.49 6.88 2.42 10.32 3.66 2.3.83 4.6 1.63 6.91 2.38 2.13.69 4.3 1.25 6.42 1.94 7 2.26 13.81 4.89 20.88 6.74 6.01 1.57 18.79 8.29 26.8 6.88zm-1277.52-657.24c3.61-.56 8.82-.45 13.22-2.28a81.89 81.89 0 0 1 19.91-5.64c1.33-.19 3.24-.88 3.68-1.87a29.21 29.21 0 0 0 2.84-9.26c.73-9.06 1.06-18.16 1.32-27.26a33.62 33.62 0 0 1 4.29-15.19 65.37 65.37 0 0 0 3.18-6.52c.75-1.88.81-4.09 1.8-5.79 1.46-2.5 0-4.22-1.49-5.2-9.07-6-25.15-1.13-34.92.2-10.67 1.44-30.08-1.77-39.13 2-3.33 1.39-3.9 1.06-3.75 4.47.22 5.34.37 10.76 1.51 15.94.54 2.46.57 4.87 1 7.27.44 2.58.52 5.9 2.15 7.47 4.26 4.12 2.7 8.76 2.42 13.38-.21 3.48-.65 7-.84 10.44-.21 3.74 1.82 6.69 4 9.38 2.7 3.35 5.47 6.88 10.1 7.69 2.41.43 4.87.45 8.71.77zm654.62 692.17a35.55 35.55 0 0 0 -1.47-8.27c-3.56-11.58-16.18-21.12-27.64-17.21-11.17 3.82-15.35 17.13-18 28.64-4.32 18.92-13.8 42.6-8.44 62.14 2.77 10.08 7.69 15.94 17.83 19 22 6.65 23.22-6.79 24.09-23.55.62-11.78 4.81-22.45 8.63-33.49 3.03-8.76 5.54-18.14 5-27.26zm-30.1-681c4.3-1.38 9.26-3.55 12.33-7.55 4.88-6.36 9.59-12.78 14.63-19 8-9.87 16-19.82 22-31a99.48 99.48 0 0 0 9.2-24.87c-1.91 8.28-23.44 16.45-30.62 18.76-17.3 5.58-51.43 9.5-65.91-4.6-4.28-4.16-10.3-6.26-16.23-7.8-2.24-.58 7 23.91 7.35 29.36 1.56 23.21 24.75 42.81 47.25 46.66zm-725.57 438c-.41-12.83-.69-28.92-8.06-38-4-4.91-10.87-6.15-17.13-7.07a13.39 13.39 0 0 0 -4.72-.13 10.2 10.2 0 0 0 -4.87 3c-7.28 7.32-8.46 18.6-8.71 28.92a309.18 309.18 0 0 0 4.94 63c.72 3.95 1.67 8.16 4.62 10.89a19.06 19.06 0 0 0 5.52 3.18l16.8 7.37c1.69.74 3.71 1.47 5.3.52 1.24-.74 1.75-2.26 2.1-3.67 5.06-20.07 6-40.12 4.54-60.68-.12-2.25-.24-4.74-.33-7.33zm535.83-461.88c-26.21-.13-85 5.21-86.78 36.36l-1.1 19.17c-.29 5-.56 10 .91 14.76a21.29 21.29 0 0 0 19.29 14.56 5.88 5.88 0 0 0 4.41-1.29c1.92-1.94.88-5.19-.29-7.66-4.75-10-9.75-22.15-4-31.68 2.53-4.21 6.8-7.07 11.13-9.41 29.44-15.9 67.5-19.74 100.16-15 3.35.49 5 2.64 6.41 5.2 3.65 6.72 2.64 14.53 4.9 21.63.9 2.84 0 6.25 3.13 8.26a2.24 2.24 0 0 1 .68 1c1 2.22 1.06 2.28 2.44 1.62.92-.44 1.89-.79 2.77-1.32 3.21-1.91 5.44-4.35 4.9-8.52s-.84-8.58-1.3-12.86c-.84-8.06-4.84-15-8.15-22.15-5-10.84-45.24-12.36-55.49-12.67-1.24.03-2.58 0-4.02 0zm125.12 682.37a103.53 103.53 0 0 0 -4.42-14c-2.76-6.58-8.53-12.39-15.64-13.09-9.06-.9-17.16 6.86-19.84 15.56s-1.28 18.07.15 27.07c1.74 10.93 1.45 26 5.74 36.16 3.16 7.47 7.86 9.58 12.31 16.25.73 1.37 3.6 1.58 5.47 2.36a66.29 66.29 0 0 1 8.42 3.62c2 1.18 3.07.69 4-1s1.45-3.47 2.65-4.79c10.55-11.53 6.71-46.04 1.16-68.14zm269.86-519.42c.73-.15 2.41-1 3.89-.71 3.39.58 5.75-2.46 9.16-2 2.06.27 4.45-.56 6.44-1.46a131.51 131.51 0 0 0 12.93-6.53 12.11 12.11 0 0 0 6.43-10.4 17.7 17.7 0 0 1 .73-4.19c.94-3.31 2-6.57 3-9.88 1.64-5.77 13.7-22.11-.65-20-7.43 1.08-80.62 8.61-80.62 12.89.22 6.1-.07 12.3 4.41 17.41 3.91 4.48 7.58 9.17 11.32 13.8 1 1.27 1.59 3.12 2.87 3.92 5.86 3.67 12.01 6.8 20.09 7.15zm-342.27 369.79a4.34 4.34 0 0 0 0 1.25c.65 2.21.23 5.44 2.85 6.08 2.45.6 3.42-2.15 4.79-4 11.64-15.45 25.08-28.41 36.41-44.49.82-1.16 1.93-2.46 3.35-2.3a3.85 3.85 0 0 1 2.3 1.58 45.75 45.75 0 0 1 10.77 32.31 21.79 21.79 0 0 0 4.77-23.49c-2.48-5.9-9.58-12.42-8.14-19.34.67-3.2 8.41-13.62 12.35-10-6.56-6.11-38.51-21.63-45.5-17.42-7.2 4.33-12.8 12.93-18.82 15.86-12.79 6.22-24.76 11.83-36 20.28-3.08 3.32-3.74 5.9-2.09 7.53s4.74 1.24 7.92-1c2.51-1.75 5.12-3.36 7.65-5.09 1.52-1 3-2.15 4.45-3.25 3.44-2.59 6.66-5.53 10.34-7.7 3.4-2 6.54-.78 9.11 2.65 1.8 2.41 1.39 5.61-1.25 8.27-5.53 5.58-11.38 10.7-18.71 13.91-1.83.81-3.27 2.46-5 3.53-5.81 3.56-6.07 11.18-11.21 15.24-.37.29-.42 1.16-.39 1.75a3.87 3.87 0 0 0 .56 2.29c.27.3 1.4-.13 2.12-.34 3.31-1 6.56-2.33 9.94-2.81a10.23 10.23 0 0 0 5.41-2.48c5.1-4.12 7.33-10.43 11.85-15 3.61-3.64 5.24-8.75 9-12.39 5.27-5.07 9.7-15.09 16.23-18 4.7-2.1 11.75 1.36 10.8 6.42a10.66 10.66 0 0 1 -2.38 4.34c-7.55 9.88-33.48 32.99-33.48 45.81zm-1050.13-754.27a12 12 0 0 0 -6.85 5.9c-2.27 4.49-2.25 9.73-2.89 14.72-2.23 17.41-12.08 33.58-17.38 50.19-7.24 22.7-16.84 48.78-34.39 65.54-3.4 3.24-6.67 6.63-10 10-5.46 5.47-5.47 5.51 1.83 9.24 1.62.82 3.43 1.26 5.11 2a35 35 0 0 1 3.72 1.88c1.23.72 2.33 1.67 3.59 2.33s2.79 1.71 3.7 1.34c1.82-.74 3.89-2 4.79-3.63 3.4-6.22 6.18-12.78 9.6-19 15.35-27.83 29.17-57.27 38.07-87.36 3.62-12.24 7.65-24.72 10.31-37.22 1.19-5.59 1.39-12.84-3.68-15.48a7.24 7.24 0 0 0 -5.53-.45zm1658.8 725.45v-.06c-4-17.85-5.83-37.27-10.29-54.47-9.69 4-25.16 20.59-23.07 31.52 3 15.62 4.1 36.22 8.47 50.78 3.95 13.14 13.49 14 26.87 16.89a2.48 2.48 0 0 0 3.62-2.76c.29-14.3-2.52-28.04-5.6-41.9zm-642.16-350.68c19.93-4.77 40.68-7.67 59.4-13 2.68-.77 5.23-2.39 6.22-5.34.29-.85.31-2.44-.19-2.8-3.33-2.39-7-4.95-11.2-4a64.61 64.61 0 0 0 -13.28 4.45 248.21 248.21 0 0 1 -50.65 16.39c-12.93 2.79-29 1.77-41.06 7.34-.72.33-1.61.27-2.38.53-4.82 1.61-9.6 3.32-14.45 4.86-2.34.75-1.9 1.87-.57 3.05 2.92 2.61 5.91 5.14 8.93 7.64a2.75 2.75 0 0 0 1.7.6c3.89-.08 7.92.84 11.51-1.51 13.68-9.05 29.55-14.27 45.99-18.21zm844.54 400.35a5.86 5.86 0 0 0 -3.23.77 9.88 9.88 0 0 0 -3 3.57c-8.79 14.5-18.31 28.63-25.52 44a4.81 4.81 0 0 0 1.25 6.13c4.24 4 9.59 5.14 15 6.19a2.77 2.77 0 0 0 2.16-.88c1.29-1.53 2.38-3.24 3.54-4.9 9.46-13.63 17.25-25.51 22.71-42a10.44 10.44 0 0 0 .78-4.85c-.61-4-5.06-5.86-8.88-7.06a17.09 17.09 0 0 0 -4.84-.97zm-827.38-495.75c-.09-2.34-.89-3.82-2.87-3.88-17.48-.6-54.14 5.9-68.65 16.23-2.55 1.81-2.93 2.69-2.1 5.67.71 2.54 1.6 5 2.18 7.6.51 2.28 1.91 3.27 4 2.88 5-.93 10-1.85 14.86-3.23 5.46-1.54 11.11-2.26 16.48-4.18 2.26-.81 4.79-.86 7.18-1.33 3.58-.71 7.13-2 10.73-2.11 4.66-.2 8.28-3.12 12.63-4 1.56-.3 3.34-.44 4.59-1.3 2.31-1.59-.86-3.2-.39-5 .41-1.57.3-3.26.56-4.88a14.76 14.76 0 0 1 .8-2.47zm-502 568.45.48.09c0 1.46-.11 2.93 0 4.38.4 4.31 1.37 8.7 4.1 11.93a77 77 0 0 0 29.8 21.75c1 .42 1.93 1.47 3.13 0 1.07-1.34 2.34-2.49 1.44-4.35-8.33-17.12-16.23-44.07-27.75-58.45-2.14-2.67-2.1-6.9-5.39-9.18-.72-.51-1-1.66-1.48-2.51-.45 1.09-1.26 2.16-1.3 3.26-.15 4.17-.25 8.36 0 12.51s-.6 8.19-1.37 12.22c-.53 2.77-1.11 5.53-1.66 8.35zm722.43-493.55v-.09c1.46 0 3.09.43 4.34-.07a32.14 32.14 0 0 1 13.24-2.37 8.1 8.1 0 0 0 3.44-1.09c5-2.42 9.82-5.14 14.91-7.31 4-1.7 5.56-5.4 7.79-8.5a3.51 3.51 0 0 0 -1.05-5 53.05 53.05 0 0 0 -5.92-3 24.88 24.88 0 0 1 -3.31-1.34c-5.3-3.53-11.27-5.42-17.15-7.66-2.91-1.1-4.48-.72-6.06 1.75-2.74 4.31-6.31 8.24-8.28 12.87-2.78 6.5-4.43 13.49-6.45 20.3-.1.34.81 1.31 1.39 1.45a13.41 13.41 0 0 0 3.1.06zm274.8 201.08c1.64-6.28-3.48-10.74-6.35-16-6.62-4.59-14-7.38-21.79-9.3-1.87-.46-6.25 2.29-6.35 4.1a15.91 15.91 0 0 0 .89 5.91c.33 1 1.62 1.68 2.53 2.43 3.72 3 7.7 5.91 4.91 11.71-.33.68.09 1.69-.11 2.47-.51 2-.78 4.15-1.88 5.74a50.64 50.64 0 0 1 -7.16 8.49c-5.88 5.4-9.19 12.42-12.86 19.25a6.51 6.51 0 0 0 -.6 1.72c-.43 2.16.28 3.14 2.42 3.22 2.5.1 4.72 0 6.78-2.19 2.88-3.12 6-5.94 8.4-9.52 4.22-6.29 7.43-13.17 12-19.26a24.21 24.21 0 0 1 5.91-5.42c2.22-1.53 4.12-1.61 6.26-.22 1.37.9 2.71 1.83 4.11 2.68 2.29 1.39 2.76 1.17 2.84-1.27.07-1.3.04-2.56.04-4.54zm-1249.56 155.65c-.9-2.9-2.63-5.07-5.3-5.75-4.41-1.12-9.31 0-13.42-2-2.73-1.29-4.82-3.8-7.71-4.67-5-1.52-10.39 3-11.35 8.16s1.4 10.42 4.51 14.66c23.44 32 37.42 2.99 33.27-10.4zm1049.5-370.34h-2.5c-4.56.08-6.35 1.62-6.72 6.1a46.2 46.2 0 0 0 0 6.86c.56 8.32-.37 16.39-3.79 24.08-.66 1.48-1.23 3-2 4.45-1 1.79-.42 3.09.92 4.41 2.69 2.65 6.44 2.17 8.64-1.39 3.46-5.64 8.14-8.69 15-8.3 3.79.22 5.69-1.52 6.08-5.35a14.56 14.56 0 0 0 -.72-6q-3.81-11.24-8.09-22.31a5.45 5.45 0 0 0 -3.1-2.42c-1.1-.49-2.47-.17-3.72-.17zm-405.53 61.48c-11.63-5.9-35.51-15.81-48.55-12-6.42 1.89-12.55 4.77-18.76 7.33a2 2 0 0 0 -.69 3.46 12.65 12.65 0 0 0 3.54 2.24c1.67.71 3.49 1 5.19 1.71a25.86 25.86 0 0 0 9.5 2.19 35.32 35.32 0 0 1 8.45 1.31c1.31.33 2.43 2.21 3.6 2.18 5.73-.17 11.57 1.38 17.18-1.3a89.68 89.68 0 0 1 9.74-3.4c4.37-1.49 8 1.6 10.8-3.76zm-190.44 531.56a12.16 12.16 0 0 0 3.48-.69c8.64-4.06 13.52-11.35 12.48-21-.41-3.84-2-7.51-.22-11.39.15-.33-.56-1-.78-1.57s-.46-2-1.38-.84c-2.36 2.93-5.86 3.6-9 5.1-1.36.65-2.38 2-3.51 3.09-1.63 1.56-3 3.66-4.88 4.65-5.44 2.81-11.09 5.2-16.67 7.72-3.16 1.43-6.38 2.73-9.52 4.2a2 2 0 0 0 -.48 3.5c2.92 2.58 5.81 5.08 10.24 4.77a19.87 19.87 0 0 1 8.54.89c3.4 1.18 7.28 1.03 11.7 1.57zm-195.34-586.18c-.72-.76-1.23-1.74-1.72-1.74a75.37 75.37 0 0 0 -9.86.47c-6.15.84-9.94 5.61-13.39 9.84-5 6.18-10.88 11.68-15.28 18.49-4.59 7.09-6.34 11.35-5.25 19.07.39 2.81 3.07 4.52 5.43 3 2.9-1.87 6.4-3.86 7.85-6.72 2.29-4.53 6.1-7.68 8.73-11.83 4.81-7.58 12.38-13.15 15.8-21.81.54-1.35 2.5-2.07 3.56-3.29 1.44-1.65 2.65-3.49 4.13-5.48zm235.79 469.62c-.15-3-1.67-4.37-5.16-3.25-1.8.58-3.62 1.33-4.19 4-1.07 4.9-4.29 9.12-5 14.23a5.33 5.33 0 0 1 -1.25 2.77c-4 4.26-4.91 10.15-8 14.87-1 1.49-1.31 3.4-2 5.09-2.64 6.59-3.44 13.81-7.32 20-1.79 2.86-2.78 6.23-4.11 9.38a8.2 8.2 0 0 0 -.36 1.48c.6.07 1.46.44 1.77.18 3.47-3.06 8.22-4.64 10.34-9.32 2.47-5.48 25.93-46.82 25.28-59.43zm-509.65-505.46c3.69 0 5.27-.75 8.59-4.09 1.69-1.7 3.26-3.55 5.07-5.1 4.35-3.72 9.47-6.24 13-11.3 3.17-4.56 7.17-9.14 13.16-10.78a7.36 7.36 0 0 0 2.12-1.17c2.87-2 5.65-4 8.57-5.91s2.91-2.73.79-5.13a4.79 4.79 0 0 0 -5.11-1.49c-6.07 1.62-12.24 3.08-18 5.44-7.49 3-13.09 9-19.32 14a18.92 18.92 0 0 0 -5.95 9.22 21.06 21.06 0 0 1 -3.76 6.92 13.08 13.08 0 0 0 -2.6 5.41c-.8 3.41-.09 3.99 3.44 3.98zm620.66-.56c-4.65-.24-9.35 1.2-13.85 2.62-10.85 3.43-35.09 5.61-43.29 13.35-2.12 1.93-2.16 3.13-.37 5.29 4.69 5.64 4.84 5.48 12.22 2.82 16.71-6 39-13.84 57.79-12.48.55-5.52-4.62-10.27-10.07-11.31a17.91 17.91 0 0 0 -2.46-.29zm-172.16-6.87a42.94 42.94 0 0 0 -5 .41 75.1 75.1 0 0 0 -10 2.29 78.52 78.52 0 0 0 -11.83 4.93 124.51 124.51 0 0 0 -12.42 7.83c-1.08.75-1.58 2.35-2.35 3.55-1 1.52.09 2.5 1.16 3a7.93 7.93 0 0 0 3.64.46 15.48 15.48 0 0 1 9.4 2.41 76.74 76.74 0 0 0 8.84 4.3c4.89 2.13 7.68 1.11 10-3.48.84-1.63 1.32-3.74 2.64-4.79 5.64-4.48 5.71-11.65 8.73-17.38 1.14-2.19-.15-3.51-2.84-3.53zm-187.45 103.75c1.41 1.18 3.58.72 6.79-2.72s5.65-7.48 8.21-11.41c3.57-5.49 5.71-11.72 8.79-17.47 2.4-4.49 3.6-9.38 5.36-14.09a3.13 3.13 0 0 0 -.63-3.76c-1.43-1.73-3.55-2.36-5-1.45-3.24 2-6.93 3.7-8.67 7.61a30 30 0 0 1 -3 4.64c-4.42 6.45-10.78 13-13.14 20.65-1.2 3.94-1.94 15.29 1.29 18zm543.87-480.2h.21c0 2.93-.16 5.86.06 8.77a48.22 48.22 0 0 0 1.28 6.59c.06.24.45.4.69.59.11-.17.33-.36.32-.53-.5-4.81 4.61-8.9 1.52-14.26-4.87-8.6 6.84-39.4 8.83-48.79 3.91-18.44 11.86-38.36 13.1-56.88-2.2 2-3.2 5.37-4.48 8.59-.3.75-.48 1.56-.83 2.28-1.77 3.66-3.58 7.3-5.36 11-.42.86-.61 2.35-1.2 2.52-2.66.76-2.59 3.08-3.1 5-1.7 6.31-3.37 12.61-3.41 19.28a44.73 44.73 0 0 1 -1.78 12.1 157.51 157.51 0 0 0 -4.22 20.94c-1.13 7.47-1.14 15.17-1.63 22.8zm-493.76 435.2-.33-1a22.57 22.57 0 0 0 -2.94 1.25 30.07 30.07 0 0 0 -3.46 2.5 15.78 15.78 0 0 0 -5.07 6.71c-2.09 5.24-3.5 11-8 15.13-1.15 1.07-1.33 3.37-1.58 5.16-.56 4.07.35 8.16-.77 12.34-.58 2.14 1.2 4.92 1.92 7.4 3-.14 4.06-3 5.86-4.64 1.28-1.21 2-3.05 2.83-4.69 3.54-7.08 8.26-13.56 10.71-21.2 0-.18.28-.31.42-.46 4.31-4.42 5.4-10.43 7.72-15.82 1.22-2.84.1-4.09-2.91-3.74a35.52 35.52 0 0 0 -4.4 1.06zm223.69 314.76c8 0 14.49-4.47 16.36-11.46 3-11.36-1.3-23 3.87-33.35 6-12 2.66-21 6.5-32.66.67-2 0-3.42-2-3-7.41 13.71-10.51 29.2-13.9 44.26-3.07 13.61-10.14 22.31-14.15 34.41-.36 1.09-1 1.84.8 1.83zm15.15-292.59a12.06 12.06 0 0 0 3-.35c.4-2.44-.87-3.84-3-5.07-25-14.43-53.58-20.24-78.8-31.69-4.09-1.85-8.15-3.78-12.28-5.54a8.36 8.36 0 0 0 -3.59-.5c-.4 0-1.18 1.43-1 1.6 2.43 3.06 4.5 6.78 7.65 8.79 10.25 6.52 26.58 8.59 38.12 12.37 12.15 3.97 36.68 20.37 49.9 20.39zm623 165.88c3.69-1.39 9.09-1.83 13.3-5.5a47.24 47.24 0 0 1 5.39-4c4.28-2.77 8.61-5.39 11.25-10.06.76-1.33.87-2.1-.15-3.19-2.44-2.6-5.68-2.9-8.82-2.72-4.53.25-8.8 2.91-13.65.76-2.32-1-5.34.21-6.7 2.13-3 4.26-7.83 7.3-8.81 13.06-.3 1.76-1.91 3.4 0 5 2.06 1.78 3.26 5 8.19 4.52zm59.41-32c1.25-12.17-14.86-34.58-27.7-27.85-5.63 3-11.57 5.47-15.85 10.47-1.07 1.26-.63 2.76 1 3a16.22 16.22 0 0 0 3.75.08c4.08-.35 8.28.94 12.25-.91a58.66 58.66 0 0 1 19.26 9.13 4.42 4.42 0 0 1 1.29 2.66v.13c.64 3.4.52 7 1 10.08 3.11-1.05 4.65-3.56 4.98-6.78zm-1198.41-658.83c0 4.77 1.19 6.11 5.76 8s9.79 2.55 14 5.69c1.87 1.39 4.46 1.85 6.77 2.6a2 2 0 0 0 1.67-.43 1.68 1.68 0 0 0 .07-1.58 22.7 22.7 0 0 1 -2.27-6.92 58 58 0 0 0 -3.59-10.93c-2.06-4.86-5.07-9.33-5.11-14.92 0-1.76-1.74-1.66-2.81-1.14a8.37 8.37 0 0 0 -2.74 2.47c-3.34 4.37-6.3 9.07-10 13.07a5.54 5.54 0 0 0 -1.75 4.09zm-52.57 426.09c-1.17 3.43.9 5.57 3.73 7.14a2.75 2.75 0 0 0 2.59-.32 10.83 10.83 0 0 0 2.25-3.51c.72-1.68.69-3.9 1.81-5.13 4.76-5.24 7.85-12.27 15.39-14.63.89-.28 1.62-1.29 2.28-2.08 2.85-3.41 6.53-5.58 10.45-7.52 1.89-.93 4.77-1 5-3.9.14-1.74-2.7-2.6-7-2.26a5.06 5.06 0 0 0 -2.39.44c-3.85 2.81-8.58 3.67-12.68 5.83-4.36 2.3-8.29 5.13-10.85 9.71-1.56 2.81-3.68 5.89-6.36 7.37-3.82 2.12-4.71 4.82-4.22 8.86zm219.29 504.46c1.44-.12 3.27.29 4.26-.44 4.43-3.28 8.33-7.39 10.47-12.37 1.29-3 .55-6.75-2.13-9.79s-3.46-3.37-6.3-.62c-.75.72-1.85 1.41-2.07 2.29-.9 3.67-4.27 3.63-6.79 4.44a45.48 45.48 0 0 1 -9.07 1.4c-5.55.59-5.6.58-2.29 5.4 1.4 2 3 3.94 4.55 5.82a10.44 10.44 0 0 0 9.37 3.87zm442.28-368.62a14.21 14.21 0 0 0 -3.08 0c-4.42 1.49-8.83 3-13.24 4.6-3.35 1.17-4.93 3.38-4.66 7.09a13.11 13.11 0 0 1 -4 10.6c-1.49 1.52-2.28 3.78-3.16 5.8a2.26 2.26 0 0 0 .7 2.08 3.16 3.16 0 0 0 2.61.36c3.95-2.07 8.16-3.89 11.57-6.66a95.61 95.61 0 0 0 11.9-12c1.93-2.24 2.9-5.29 4.49-7.86.53-.86.77-1.37-.09-2-1.28-.84-2.59-1.7-3.04-2.01zm269.73 614.28c6.77-.57 12.36 1.23 14.82-5.82-8-6.18-19.28-13.77-29.94-12.78a4.43 4.43 0 0 0 -3.25 2.18c-1.88 5.26 1 11.09 5.82 13.94a20.84 20.84 0 0 0 12.54 2.48zm234.12-365.43c-5.39 4.11-16.92 20.38-5.35 23.91 7.26 2.21 13.57 5.51 21.25 3.68-3.33-9.51-10.51-18.81-15.9-27.59zm73.07-122.12c-1.06-.45-2-1.27-2.82-1.14a104.93 104.93 0 0 0 -11.27 2.38 13.44 13.44 0 0 0 -5.27 2.84 34 34 0 0 0 -5.07 6.13 109.89 109.89 0 0 0 -6.07 9.88c-1.15 2.13-.46 5.84 1.16 6.8 2 1.2 3.84.49 5.55-1.12s4-2.93 5.72-4.62c4.36-4.18 8.68-8.4 12.78-12.82 1.77-1.91 2.95-4.36 4.38-6.58.3-.49.51-1.01.91-1.78zm-696.92 389.28a7.73 7.73 0 0 0 -.63-1.78q-4.65-5.36-9.39-10.65a2.78 2.78 0 0 0 -1.62-.75c-2.85-.36-4.82-2.08-6.81-3.94-1.8-1.68-2.11-1.48-3.36 1.1-1.93 4-3.88 8-5.92 12-.56 1.08-1.71 1.88-2.21 3-1 2.25.16 4 2.68 4 4.58.07 9.28-.61 13.69.25 3.14.61 5.93-.09 8.79-.38 1.78-.21 3.31-1.91 4.78-2.85zm78.89-505.71v-1.87c-.06-5.43-.19-5.53-5.53-7.47-1.52-.55-2.84-1.69-4.38-2.19a82 82 0 0 0 -9.35-2.49c-1.46-.29-2.47.61-1.41 2.22a30.9 30.9 0 0 1 4.28 12c.66 3.8 2.88 6.72 4.22 10.1.71 1.79 5.19 3.19 6.15 2.2 3.58-3.67 7.05-7.38 6.05-12.5zm-537.89-144.45c.2-1.76-.59-2.47-2.47-2.55a11.76 11.76 0 0 0 -8.06 2.44c-2.58 2-5.11 4.45-8.08 5.44-3.39 1.13-5.64 3.28-7.91 5.62-3.13 3.2-3.14 4.88-.26 7.87 3 3.17 6 3.35 9.15.67 1.56-1.33 3.29-2.43 4.85-3.74q5-4.18 9.83-8.49a8.51 8.51 0 0 0 2.95-7.26zm343.15 51c-4.08.13-3.78.57-6.4 2.73-4.55 3.74-4.25 9.1-5.56 13.93-.5 1.8.65 2.75 2.49 2.46a14.43 14.43 0 0 0 2.88-.93c3.23-1.25 6.36-2.55 9.94-2.92 4-.4 7-3.21 9.85-5.88 2.12-2 1.38-4.25-1.42-5.79-3.7-2.11-7.47-3.85-11.79-3.68zm-63.15 46.35a29.85 29.85 0 0 1 -1.47-4.59c-.45-2.81-2-5.52-4.29-6-2.85-.62-4.61 2.42-5.73 4.82-2.16 4.6-4 9.35-5.87 14.09-.32.83-.21 2.66.1 2.76 1.43.45 2.34 2.47 4.4 1.25 1.73-1 4-1.19 5.62-2.3 3.43-2.38 7.69-4.38 7.24-10.03zm-357.36-137.35c-4.07-.45-6.51.71-8.87 3.71a35.72 35.72 0 0 0 -5.31 8.78 16.8 16.8 0 0 1 -3.32 5.1 11.15 11.15 0 0 0 -2.85 9.11c.11 1.29.17 1.63 1.69.92 2.89-1.36 3.06-4.57 5.06-6.45 4-3.75 6.83-8.43 10.11-12.74 1.1-1.45.64-4.07 3.76-3.72a2.67 2.67 0 0 0 3-3.09c-.14-2.78-2.43-1.42-3.27-1.62zm982.54 753.46c-1.35 0-2.59 0-3.83 0-4.33.16-5.51 1.07-6.79 5.3a31.82 31.82 0 0 0 -1.53 5.82 3.92 3.92 0 0 0 1.24 3.14 4.13 4.13 0 0 0 3.35.1c2-.79 3.83-2.26 5.89-2.94 4.14-1.36 6.71-4.59 9.65-7.42.81-.78.44-1.22-.1-2-2.13-2.94-5.21-1.84-7.88-2.05zm70.83-503.6a5.79 5.79 0 0 0 -3.62-6.34c-2.55-1.09-5-.46-7.25 1.76a19.41 19.41 0 0 0 -5.24 10.11c-.41 1.81-.09 2.64 1 3.66a5.67 5.67 0 0 0 7.74.25 46.92 46.92 0 0 0 5.26-5.29 21 21 0 0 0 2.1-4.2zm-803.82-171a13 13 0 0 0 -1.87 0c-3 .46-6.24.44-9 1.61-2.53 1.09-4.55 3.4-6.7 5.28-.87.76-.18 2.71.93 3a6.36 6.36 0 0 0 1.24.08c6.46.17 12.14-3.12 18.31-4.31 1.07-.21 1.74-2.53 2.6-3.88-1.23-.58-2.43-1.23-3.71-1.71a5.7 5.7 0 0 0 -1.8-.11z"></path><path d="m841.62 504.9c.86-31 10.79-60.29 31.33-86.75 2.89-3.71 8.55-7.43 11.62-3.88-6.35 8.53-12.07 21.06-19.47 28.46-1.28 1.22-1.78 3.74-1.82 5.68a19.16 19.16 0 0 1 -2.12 8.25c-2.57 5.35-5.26 10.78-4.26 17.07a4.76 4.76 0 0 1 0 1.25c-.6 4.91-2.82 9.44-1.49 14.86 1.84 7.55.37 14.93 4.36 21.94-1.46-6.77-.57-13.72 1.1-20.62a290.39 290.39 0 0 1 31.41-77.91c4.11-7 10.15-16.7 19-15.4.48 3-.59 5.16-2.13 7.81-7.28 12.58-15.4 24.68-21.41 37.95-3.62 8-6.9 16.13-10.32 24.21a11.64 11.64 0 0 0 -.47 1.78 3.19 3.19 0 0 0 0 .62c-.42 9.73-.75 19.46-1.29 29.18a11.39 11.39 0 0 0 4 9.21c-3.07-2.54 14-47.13 16.06-52.43 6.78-17.18 17.21-31.88 26.9-47.44a27.6 27.6 0 0 1 3.22-4.47c2.2-2.32 4.87-2.63 6.54-1 1.42 1.36 1.5 5.05.11 6.93a6.65 6.65 0 0 1 -1.31 1.34c-5.79 4.19-8.49 10.82-12.86 16.14-5.43 6.6-7.88 14.7-11.25 22.32-2.31 5.23-4.56 10.49-6.49 15.85a35.82 35.82 0 0 0 -2.28 12.62c.06 4.39.25 8.79 0 13.16-.52 8.16 1.79 15.86 3.21 23.72.62 3.45 1.22 6.81 3.64 9.51.19.22.76.18 1.12.11.1 0 .18-.6.12-.89-.56-2.79-1.16-5.57-1.7-8.36a2.26 2.26 0 0 1 .14-1.2c2.66-6.79 1.88-14.2 3.65-21.07 1.42-5.55 2-11.28 3.74-16.67 1.54-4.77 4.16-9.19 6.29-13.77 1.79-3.85 3.52-7.72 5.36-11.54 2.76-5.69 5.12-11.64 8.54-16.91 2.63-4 3.91-8.51 6-12.7a83.85 83.85 0 0 1 3.88-7.62c3.61-5.69 7.5-11.21 11.15-16.88 2.32-3.62 5.3-6.28 9.53-7.27a3.81 3.81 0 0 1 2.77.55c.39.26.42 1.7.06 2.28-20.64 33.22-38.64 62.66-43.74 102.74-.85 6.68-.34 15.23 5.91 17.75a234.55 234.55 0 0 1 52.8-112.6c2.73-3.19 6.68-6.61 10.6-5.11-1.16 8.17-6.73 14.91-11.83 21.4-12.66 16.1-23.78 33.71-30.05 53.21-5.33 16.55-11.09 48.12 2 62.06.47-6.24 2.47-12.88 4.33-19.27.74-2.53.82-5.25 1.44-7.82.76-3.16 1.78-6.25 2.66-9.37 1.22-4.31 2.4-8.62 3.62-12.93a5.17 5.17 0 0 1 .71-1.67c5.19-7.37 8.54-15.65 11.87-23.94 2.63-6.53 6.93-12 10.93-17.76 2.7-3.85 5.36-7.75 7.67-11.83 3.54-6.23 6.6-12.74 10.2-18.93 1.42-2.45 4.28-4.11 5.54-6.61 1.84-3.65 5.39-4.68 8.26-6.77a2.94 2.94 0 0 1 4 .23c1.56 1.33.49 2.37 0 3.77-1.88 5-5.85 8.29-9.49 11.78a26.53 26.53 0 0 0 -5.69 7.23c-3.85 7.7-7.1 15.72-12.5 22.55-.5.64-.72 1.54-1.3 2.06-3.06 2.7-4.38 6.05-5.47 10-2.36 8.6-5.75 16.92-8.68 25.37a33.24 33.24 0 0 0 -.91 3.53c-.8 3.55-1.34 7-3.48 10.29-1.7 2.59-2.4 6.11-2.67 9.29-.58 6.74-3.66 12.93-.17 17.85 4.85-6.68 5.73-17.58 8.23-26.06 10.29-34.87 29.56-66.63 52.88-94.54 2.64-3.15 4.65-5.25 8.52-3.75 1.06 3.1.12 5.77-2.12 8.15-2.82 3-6.23 5.53-7.49 9.75a3.35 3.35 0 0 1 -1.21 1.4c-9.12 7.24-14.26 17.14-18.47 27.65-2.79 7-4.78 14.3-8.54 20.92a31.49 31.49 0 0 0 -4.25 14.6c-.07 2-1.06 3.92-1.52 5.9-.73 3.16-1.42 6.33-2 9.52-.07.41.59 1.11 1.08 1.4a1.46 1.46 0 0 0 1.42-.21 17.82 17.82 0 0 0 2.8-4c1.27-3 2.06-6.19 3.37-9.17 1.19-2.71 1.47-6.14 5.05-7.33.6-.19 1-1.19 1.35-1.87.79-1.44 1.58-2.89 2.25-4.39 4.08-9.22 9.85-17.49 15.59-25.65a60.4 60.4 0 0 1 10.89-11.59c3.46-2.86 6-6.81 9.15-10.08a20.5 20.5 0 0 1 5-3.58c1.42-.77 3.81 1.15 3.11 2.51-1.11 2.13-1.1 4.66-3.29 6.5-3.83 3.21-7.09 7.08-10.73 10.53a79.18 79.18 0 0 0 -15.87 21.84c-2.8 5.45-5.87 10.92-7.58 16.75-2.09 7.16-5.85 14.08-4.92 21.94.32 2.63 1.23 5.26 1.15 7.86-.13 4.93-.73 9.85-1.25 14.76-.32 3.09 1.39 6.72 4 7.94 1.27.6 4.61-1.78 4.75-3.66.38-5.16 2.7-9.78 3.89-14.71.7-2.89 2.54-5.48 3.71-8.27 3.47-8.27 6.06-17.05 10.48-24.77 6.42-11.22 12.23-22.74 18.33-34.11 1.92-3.58 4.54-6.78 6.76-10.21 1.22-1.88 2.27-3.87 3.46-5.77v-.05c5.76-9 6.22 4.35 5.76 6.91-1.13 6.22-10.68 15.43-14.11 21-9.29 15.11-17.35 31.2-20.38 48.84l30.28-38.12c2.81-3.54 6.92-7.5 11.18-6-5.92 15.57-23.14 24.53-29.49 39.93-5.55 13.46-3.53 36.12 3.14 49.11 2.43 4.71 4.31 9.8 7.34 14.08 3.8 5.36 8.45 10.14 12.9 15 2.11 2.31 5.15 3 8.15 3.37 4.94.64 10 .2 14.72 2.72 2.36 1.25 5.32 2.59 8.81.8 1.78-.91 4.59.86 7.52 0 5.84-1.69 12.06-2 18.13-2.93 34.31-5 77.27-24.5 103.49-47 1.49-1.27 3.16-2.66 5.12-2.58s3.41 1.5 5.06 2.42c10.06 5.62 27.45-16.73 29.46-25.16 5.24-5.75 9.53-12.38 15.84-17.11a4.22 4.22 0 0 1 3.38-.42 2.81 2.81 0 0 1 1.74 3.6c-13.67 49.42-66.49 91.23-110.32 113.59 18.54.5 46.8-11.46 60.86-23.73 3.57-3.11 6.89-6.35 10.92-9.06 5.09-3.42 9.15-8.5 13.28-13.19 2.59-3 4.83-6.17 8.45-8 3.78-6.48 10.46-10.42 14.38-17a88.74 88.74 0 0 1 17-20.38c1-.88 2.67-.93 3.86-1.64 1.72-1 1.71.21 1.68 1.2-.09 3.47-2.14 6.1-3.91 8.86-4.16 6.5-8.51 12.85-11.22 20.21a51.09 51.09 0 0 1 -9.11 15.22c-2.5 3-4.4 6.46-7 9.32-3.88 4.28-7.92 8.4-13.2 11.15-3 1.55-3.76 3.78-2.81 5.48 1.11 2 3.35 2.32 6.54.52a48.19 48.19 0 0 0 7.08-4.81c4.12-3.45 8-7.13 12.06-10.72l14.8-13.29c3-2.68 6-5.34 9-8 .62-.56 1.45-1.08 1.72-1.79 2.26-5.84 8-8.38 11.89-12.66a54.54 54.54 0 0 1 6.09-5.22c.89-.74 2.55-2.09 2.7-1.94 1.14 1.09 2.58 2.39 2.8 3.8a10.19 10.19 0 0 1 -.76 6c-25 47.38-72.23 90.3-125.59 103.21-8.07 2-17.2 3.94-21.59 11a359.22 359.22 0 0 0 174.6-82.48c4.31-3.74 10.18-7.83 15.18-5.09-1-.53-63.44 55-70.49 59.77a288.41 288.41 0 0 1 -70.16 34.39c-18.57 6.15-53 19.58-72 9.35-4.6-2.49-7.47-8.85-4.48-13.14-6.11-.46-14.39-3.74-12.72-9.65 1-3.42 4.94-4.87 8.37-5.81 14.14-3.87 28.72-7.13 42.51-11.93-5.81-1.27-11.88 2.66-17.28 1-3.95-1.18-7.74 1.54-11.84 1.13-2.16-.22-4.42.67-6.65.78-9.34.46-20.72 5.64-28.28-2.43-3.06-3.28-5.25-7.42-8.88-10.06-7-5.07-17.88-3.49-23.54-10-1.75-2-2.77-4.61-4.65-6.5-5.31-5.3-14.1-2.76-21.58-2.21-24 1.76-46-21-69.46-15.47-5.32 1.25-10.26 3.92-15.63 4.9-7.15 1.3-14.46-.48-21.5-2.24l-21.12-5.29c-11.34-2.84-15.18 6.7-25.83 6.34a7.5 7.5 0 0 0 -3.26.55c-1.28.58-2.32 1.7-3.6 2.28a17.07 17.07 0 0 1 -14.49.26c-43.83-18.67-71.03-33.31-69.58-85.71zm303.06 98.15 11.83-2.61c7.76-1.68 15.49-3.48 22.69-7 4.53-2.21 9.23-4.18 13.45-6.87 3.95-2.52 8.83-4.19 10.65-9.36.54-1.52 5.47-3.12 6.76-4-16.92-4.41-36 11.62-51.75 16.07q-12.93 3.66-26.09 6.23a55.72 55.72 0 0 0 -8.14 2.48c-1.53.57-1.69 2-.34 2.69 2.94 1.44 6 2.79 9.4 2a31.82 31.82 0 0 1 9-.13c.78.26 1.6.36 2.54.5z"></path><path d="m2044.33 688c1.55 3.9-1.9 6.93-3.38 10.33-3.66 8.44-15.65 24.06-22.27 30.07a63.78 63.78 0 0 0 -9.6 11.29c-1.91 2.79-5.17 4.61-7.53 7.13-3.61 3.86-8.31 5.8-12.92 7.91-1.29.59-2.8.7-4.05 1.34a22 22 0 0 1 -12.54 2.5c-1.14-.12-2.62-.38-2.87 1.47s.83 3.27 2.22 3.23c3.89-.11 8 3.09 11.69-.6a18.25 18.25 0 0 0 8.06-.88c5.9-2 12.32-3.3 15.89-9.35 5.41-2.43 8.57-7.41 12.5-11.43s7.25-8.93 10.82-13.45a1.3 1.3 0 0 0 .15-.6c.63-4.86 3.69-8.64 6.37-12.31 4.05-5.54 6.08-12.34 11-17.27.12-.13.08-.41.17-.6 3.93-8.83 9.61-16.65 14.38-25 1.48-2.6 2.06-5.72 3.07-8.6a27.84 27.84 0 0 1 1.71-4.57c1-1.77 3.65-2.3 5.49-1.35 1.66.85 1.88 2.37 1 4.82-1.19 3.45-2 7-3.36 10.44-1.55 4-3.43 7.87-5.24 11.76-.93 2-2.51 3.86-2.94 6-7.36 36.49-28.35 70.07-63.3 85.46-11.37 5-27.89 8.88-35.87-3.9-13.13-21-55.49 8.48-67.53 16.91a36.27 36.27 0 0 1 -16.5 6.12 39.68 39.68 0 0 1 -9.55.25c-3-.35-5.84-1.9-8.83-2.34-9.44-1.4-17.68-6.09-26.32-9.57-4.46-1.79-7.92-6-12.36-7.91-8.43-3.61-11.86-11.55-17.16-17.9a34.15 34.15 0 0 0 -3.14-3.79c-3.63-3.21-4.73-7.47-5.73-12-1.85-8.4-6.05-15.12-14.45-18.58a15.57 15.57 0 0 1 -4.55-3.1c-2-1.87-4.53-2.78-6.66-4.23a59.16 59.16 0 0 1 -10.36-9.6c-.63-.69 0-3.45.92-4.44 4.33-4.68 8.68-9.3 15.26-11.15 2.41-.67 4.53-2.79 6.46-4.59 2.51-2.34 5-4.11 8.7-4a13.17 13.17 0 0 0 5.94-1.29c7.31-3.71 14.63-7.84 19.11-14.84 7.93-12.38 3.87-31 5-45.08a364.07 364.07 0 0 1 9.92-59.95c10-39.68 42.34-56.56 60.25-91.57 4.66-9.11 4.73-38.93 20.11-37.69 13.65 1.1 11.75 24.63 11.6 33.72-.46 27.38-9.94 53.16-12.7 80.09-2.23 21.75-4.45 43.76-1.29 65.39 5.09 34.86 24.14 57.85 45.55 84a7.69 7.69 0 0 1 1.69 3.28c1 5.55 5.09 9.26 8 13.65 1.19 1.79 3.29 3.1 5.19 4.27 7.16 4.38 11.53 10.9 14.37 18.54a4.23 4.23 0 0 0 2.41 2.88c4.16 2.16 6.14-1.15 8.36-3 2.94-2.41 5.56-5.19 8.64-7.54 2.35-1.8 4-4.61 5.71-7.15 5.47-8.16 10.74-16.44 16.23-24.58 3.32-4.92 6.47-9.86 8.4-15.58a8 8 0 0 1 4.35-4.63c1.06-.32 3.19 2.18 4.52 3.7 1.56 1.71 1.81 4 1.79 9.46z"></path><path d="m1636.78 817.58c-10.52-.44-19.07 6.28-27.66 12.74-3.8 2.85-8.77 4.27-13.39 5.85-4.4 1.51-9 1.88-11.88 6.67-1.87 3.14-10 3.82-13.61 2.19a34.87 34.87 0 0 1 -17-16.39c-4.17-8-7.76-16.12-9.82-24.9a183.9 183.9 0 0 1 -3.42-60.54c3-29 13-56.33 23.63-83.24 7.74-19.69 14.22-43.52 35.41-53-9.31 4.17-19.48 36.74-23.32 46a315.69 315.69 0 0 0 -16.61 52.15c-7.67 34.38-10.86 71.56 0 105.18a34.12 34.12 0 0 0 9.2 14.39c.87.83 1.68 2 3.13.93a2.9 2.9 0 0 0 1.1-3.83c-2-4-3.78-8.14-6-12-26.52-45.23-.49-125.42 23.63-166.42 6.34-10.79 13.8-21.4 23.24-29.73 9.25-8.15 23.31-11.64 29.25-23 1.39-2.67 4.89-4.28 7.55-6.21a4.08 4.08 0 0 1 2.44-.2c3.38.3 3.5 3.78 5.16 5.7 1.15 1.33.8 3.63-.92 5-2 1.65-3.19 4.5-6.45 4.51a2.57 2.57 0 0 0 -1.82 1.52c-1 3.16-3.74 4.68-5.81 6.83a8.6 8.6 0 0 0 -1.69 1.84q-6.36 12.57-12.63 25.21c-8.39 16.8-11.65 45.88-13.56 64.39-2.36 22.77-6.5 81.1 24 85.39 3 .42 5.14.81 6.17 3.91s1.09 5.55-1.5 7.92c-1.63 1.51-2.66 3.66-4.22 5.27s-4.81 1.22-5.72 4c2.39.53 4.78 1.5 7.15 1.47 3.81 0 7.58.43 11.4.34 5.32-.14 10.75-1.14 16.07.92 16.85 6.38 32.91 7.28 49.17 18.37a132.5 132.5 0 0 1 32.33 31.58c1.31 1.79 20.07 33.19 3.63 27.38-2-.71-3.26-2.69-4.4-4.51-17.48-28.09-46.77-53.17-79.93-59.11-9.27-1.66-18.77-2-28-4a24 24 0 0 0 -4.3-.57zm-40.28 4.73c5.44 1 9.67-2.33 13.76-5.82 2.74-2.33 2.59-3.27-.5-5.53-1.65-1.21-3.4-2.3-5.11-3.45-4-2.64-8-5.13-8.34-10.69-.12-1.71-1.37-3.34-2.11-5-21.18-47.25-5.39-108.48 14.11-153.42 1.54-3.56 3.09-7.11 4.53-10.71.18-.46-.24-1.16-.39-1.75a3.84 3.84 0 0 0 -1 .65c-2.14 2.5-4 5.33-6.42 7.5-23.15 20.58-27.33 66.12-31.2 94.71-3.82 28.22-3.46 54.65 7 81.49 3.26 8.35 7.7 13.08 15.67 12.02z"></path><path d="m1810.94 1055c-1.19-19.41.39-39.77 11.38-56 3.5-5.16 7.3-9.89 12.69-13.31 3.11-2 5.6-4.88 8.57-7.09 7.4-5.47 16-7.83 24.88-9.63 5.17-1 10.18-2.84 15.27-4.27a11.25 11.25 0 0 1 3-.63c7.31 0 14.47-1.39 21.69-2.26 4.24-.51 8.54-.78 12.89.73 2.82 1 6.16.86 9.19 1.3 4 .56 7.67 2.63 11.49 4.06 1 .36 1.86.81 2.83 1.09.33.09.77-.2 1.16-.31a4 4 0 0 0 -.37-1c-2.75-3.77-7-4.87-11.13-6-.59-.16-1.38.2-1.86-.07-4-2.26-8.62-2-12.91-2.93a34.09 34.09 0 0 0 -9.3-.84c-3.75.2-7.51 0-11.27.06-3.38 0-6.73-.42-10.15-.07-7.54.78-15.08 1.62-21.86 5.25-2.46 1.32-4.84 1.16-7.24.88a3.58 3.58 0 0 1 -2.25-2.51 3.7 3.7 0 0 1 1.41-3.08 41.11 41.11 0 0 1 7.17-3.11c10.21-3.45 20.46-6.82 30.7-10.19a16.25 16.25 0 0 1 4.12-1 71.76 71.76 0 0 1 28.41 4.28c7.42 2.62 13.82 6.88 20.89 9.78a49.81 49.81 0 0 1 12.78 8c4 3.25 8.19 6.22 12 9.67 5.5 5 9.38 11.3 12.65 17.94a13.16 13.16 0 0 1 .8 2.94c1.48 6.55 3 13.09 4.35 19.66.3 1.41-.06 2.93.08 4.38.22 2.23.62 4.44 1 6.66a4.71 4.71 0 0 1 .23 1.2c-.71 5.46-.93 11.06-2.33 16.35-1.59 6.06-3.24 12.54-6.71 17.56-3.18 4.59-3.52 10.11-7 14.48-4.73 5.85-8.24 12.68-12.77 18.71s-9.43 11.53-16.47 14.74a78 78 0 0 0 -10 5.92 34.84 34.84 0 0 1 -15.91 6c-3.23.29-6.59 0-9.78 1.06s-6.66 1.88-10 2.88c-3.67 1.11-7.38 1-11.17 1.07-10.35.32-19.73-3.15-29.2-6.38a73.54 73.54 0 0 1 -9.47-4c-24.46-12.51-39.39-27.63-41.89-56-.31-1.97-.47-3.97-.59-5.97zm14.43-13.18c.17 12.76 3.77 25.61 9.75 37.55 1.09 2.18 3.77 3.56 5.72 5.34 20.74 18.91 47.06 25.77 73.45 17.66 5.86-1.8 11.48-4.15 17.14-6.5 9-3.74 11.36-5 18.15-12.61a18.61 18.61 0 0 1 2-1.39 33.12 33.12 0 0 0 4.61-4.13c4.76-5.92 9.55-11.83 13.91-18 2.27-3.22 5-6.45 6.11-10.13.82-2.75 1.94-5.34 2.87-8a18.86 18.86 0 0 0 1.17-4.69c.19-2.49-.07-5 .08-7.52a15.55 15.55 0 0 0 -2.25-9.44c-2.67-4.36-5.59-8.74-7.17-13.52a24.05 24.05 0 0 0 -7.2-10.55c-1.67-1.5-3.75-2.58-5.31-4.18-17.13-17.55-46.82-23.11-70.14-19.2-20 3.34-38.88 14.07-50.72 30.48a63.88 63.88 0 0 0 -12.17 38.86z"></path><path d="m1083.25 702c2.92 0 5.85-.11 8.77 0 7.42.36 14.88.47 22.25 1.36 5 .61 10.07 1.72 15 2.75 4.49.93 8.58 3.73 12.84 5.72a6.45 6.45 0 0 1 2.14 1.15c5.09 5.82 12 9.31 17.92 14 17.12 13.64 26.49 31 25.67 52.73-.28 7.57-2 15-2.89 22.49-1.15 9.19-7.22 15.37-12.3 22.19-3.31 4.45-7 8.57-10.39 13-2.75 3.62-7 5-10.54 7.44-29.61 20.61-68.22 23.67-102.58 15.65-28.43-6.64-51-21.18-64.41-47.41a41.88 41.88 0 0 1 -3.71-8.91c-1.19-4.93-1.8-10-2.58-15.05a5.26 5.26 0 0 1 .11-3.09c2.17-3.8 1.25-8.12 2.2-12.12a15.94 15.94 0 0 1 2.38-6.13c2.94-4.11 4.26-9.15 7.73-13.09 3.63-4.13 6.2-9.27 10.05-13.15 5.77-5.8 11.25-11.92 17.92-16.86 4.94-3.65 10.23-6.76 15-10.67 4-3.26 9.46-4.74 14.25-7.06 3.55-1.72 7.43-2 11.16-3 4-1 7.83-2.24 12-2.06 4.07.26 8.04.12 12.01.12zm-84.65 83.65c0 2.93.09 5.85 0 8.77-.14 3.44.72 7 2.73 9.26 14.43 16.17 21.18 28.34 43.53 35.73 21 6.94 43.49 10.24 65.21 6.34 40.91-7.36 83.65-51 56.56-93.85-6.29-9.94-15.95-17.23-25.75-23.75-3.2-2.13-6.52-4.24-10.27-5.09-3.07-.69-6.26-.51-9.4-.65-25.36-1.16-40.72-6.83-66.11-.36-6.89 1.76-14.28 2.28-19.24 8.44-.34.42-1.17.41-1.66.75-3 2.09-6.15 4.09-9 6.39-9.84 7.88-16.15 18.57-23 28.89-3.97 5.97-3.73 12.48-3.6 19.13z"></path><path d="m1721.64 762.27c-6.27.27-12.49-.87-18.73-2.33a10.43 10.43 0 0 1 -5.36-2.62 22.1 22.1 0 0 0 -4-2.59 12 12 0 0 1 -2.09-1.18c-13.2-12.51-16-34.48-15.05-51.84 1.51-28.76 18.44-70.84 35.89-93.82 2.28-3 5.53-6.27 9.21-5.41a206.16 206.16 0 0 0 -24.1 80.68 281.53 281.53 0 0 0 29.55-55.31c.93-2.33 2.68-5.15 5.12-4.56 3 .73 2.34 5.27.57 7.8s-4 5.91-2.09 8.32a89 89 0 0 1 6.69-12.33c1.11-1.72 2.76-3.61 4.77-3.23 3.45.65 2.38 5.84.66 8.89a78.75 78.75 0 0 0 -8.84 52.14 86.71 86.71 0 0 0 15.91-27.43c.7-2 1.41-4.08 3-5.41s4.5-1.33 5.46.53c.62 1.21.23 2.67-.24 3.95-5.33 14.49-5.23 21.07-4.58 35.72.13 2.9.25 5.63 1.66 8.39a12.25 12.25 0 0 1 .82 6.63c-.71 6.14 2.17 10.69 5.89 15 2.14 2.5 4.07 5.22 6.4 7.53 2.18 2.16 4.48 4.67 7.22 5.67 4.32 1.58 4.19 5.29 5.2 8.41.56 1.76-4.26 5.63-6.94 5.83-1.87.14-3.76 0-5.64 0-5.14 0-10.21-.19-15.21 2-2.47 1.09-5.73.42-8.64.48s-5.71.81-6.82 3.41c-2.59 6-7.21 7.3-13 6.65a23.43 23.43 0 0 0 -2.69.03z"></path><path d="m2028 823.82a87.08 87.08 0 0 0 19-3.94c46.51-14 86.17-36.89 115.66-76.81 1.08-1.46 2.24-3 3.93-3.67s4.06.09 4.4 1.87a4.69 4.69 0 0 1 -.49 2.55 103.5 103.5 0 0 0 -5 15.65c-.92 4.1-3.46 7.38-5.57 10.86-16 26.22-43.38 43.28-71.47 54-12 4.57-74.61 27-79.29 7.43-.19-.8-.07-1.68-.32-2.45-.88-2.72-2.75-4.11-5-2.81-3.94 2.24-7.88.89-11.8.92-3.45 0-5.2-1.95-5.42-5.4-.35-5.45.31-6.93 4.81-8.85 55.37-23.56 102.31-59.66 141.8-105.94 5.88-6.9 13.19-14.69 22.2-13.62-4.68 30.88-24.28 55.1-49.68 71.69-1.45 1-3.69.7-5.18 1.61-4 2.45-8.22 4.8-11.58 8-5 4.71-10.88 8.09-16.05 12.47-3.07 2.6-6.09 5.44-9.6 7.3-5.66 3-10.59 7.81-17.64 7.85a5.26 5.26 0 0 0 -3.32 1.49c-4.19 4.24-9.9 5.76-14.84 8.64a37.38 37.38 0 0 0 -7.22 5.76c-1.93 1.91-1.38 3.64 1.43 4.49a37.19 37.19 0 0 0 6.24.91z"></path><path d="m1627.47 725.84c-4-36.76 9.74-77.2 22.2-109.66 1.66-4.32 4.47-8.29 7.24-12.07 3-4.16 6.56-8 10-11.8a5.2 5.2 0 0 1 3.07-1.79 20.73 20.73 0 0 1 5.63.61c.33.07.81 1.43.59 1.86a90.31 90.31 0 0 1 -5.12 8.92c-11.79 17.25-16.76 33.94-15.35 55.25a268.14 268.14 0 0 1 39.65-67.31c2.65-3.28 5.59-5 8.69-2.86-2.48 3.73-6.09 7.25-9.13 11-1.58 2-3.07 3.77-3.63 6.28a18.06 18.06 0 0 1 -4.59 8.57 8.43 8.43 0 0 0 -2.13 5.56c.43 7.57-2.76 13.91-6.3 20.12a19.83 19.83 0 0 0 -2.66 9.29 50.91 50.91 0 0 1 -1.23 9.11c-3 13.19-4.37 27.35-5.67 40.79-2.27 23.4-2.3 59.73 26.11 64.36 3.24.52 4.11 3.12 5.45 5.38.2.33.47.88.33 1.12-1.69 2.94-2.48 6.32-5.12 8.83a9.52 9.52 0 0 1 -9.84 2.15 24.16 24.16 0 0 0 -15.14.29c-6.58 2.1-11.87-.58-17-4-1.7-1.14-3.19-2.62-5-3.62-5.25-3-8.5-7.48-10.72-12.92-.3-.73-1.17-1.22-1.53-1.95a95.51 95.51 0 0 1 -8.8-31.51z"></path><path d="m1225 750.9c7.82.22 18.08 4.39 24.5 3.08 3.82-.77 7.35-2.69 11.2-3.27 5-.76 10.06.8 15 1.86 32.52 6.92 67.89-7.41 97.64-19.28 8-3.2 16.63-4 24.59-7.14 1.46-.58 3.29-.34 4.94-.24a2.4 2.4 0 0 1 1.76 1.22 2.67 2.67 0 0 1 -.4 2.29 6 6 0 0 1 -3 2c-7.11 1.07-12 5.91-17.3 10-3.27 2.51-6.27 5.36-9.46 8-1.57 1.3-3.27 2.46-4.94 3.64-1.16.83-2.58 1.41-3.48 2.45a5.43 5.43 0 0 0 -1 3.29c0 .3 1.71 1 2.58.89 5.9-.61 11.77-1.51 17.67-2.07a78.18 78.18 0 0 1 9.92-.14c.64 0 1.35.94 1.78 1.6.12.19-.5 1.12-1 1.4-18.36 10.67-40.14 20.74-61 25.2a216.23 216.23 0 0 1 -22.27 3.18c-23 2.46-70 17.22-90.33 4a12.6 12.6 0 0 1 -5.27-5.73 4.8 4.8 0 0 1 1-5.69c3-3.19 5.9-5.84 10.75-3.14 1.29.72 3.28.12 4.93.29 2 .22 4 .69 6 .9a25.19 25.19 0 0 0 4.91.1c2-.19 4-.91 6-1s3.65-.45 4.94-2.08c1-1.26 2.87-2.16 2.18-4.14-.75-2.2-2.82-1.23-4.28-1.23-3.51 0-7 .32-10.53.52-.34 0-.75.27-1 .16-4.49-1.79-9.12-.74-13.69-1-4.12-.21-8.28-2.07-12.15-3.81-7.73-3.5-1.65-12.32 2-14.63a11.91 11.91 0 0 1 6.81-1.48z"></path><path d="m1234.43 704.45c10.91-1.23 20.46-2 23.8-2.69 34.13-6.92 67.49-18.73 99.39-32.59 3.17-1.38 6-3.67 9.12-5 6.89-2.95 13-7.67 20.75-8.61 4.38-3.61 10.18-4 15-6.8 4-2.31 8.58-3.7 13-5.36a2.29 2.29 0 0 1 2.09.66c.55 1 1.23 2.56.81 3.3a11.74 11.74 0 0 1 -3.78 4.08c-4.58 2.85-8 6.91-11.73 10.64a11.72 11.72 0 0 1 -2.3 2.11c-7.25 4-12.63 10.55-19.69 14.67-4.86 2.85-9.1 6.69-14.51 8.71-49.78 18.56-102.06 37.2-156.72 37.79-11.47.13-22.91-3.79-13.11-13.57 6.69-6.79 29.03-6.35 37.88-7.34z"></path><path d="m1188.12 688.62c1.43-3.65 7-7 12.36-7.44 51.84-4.73 112.83-19.78 153.78-53.54 2.84-2.34 6.59-3 9-6.19 2.11-2.69 5.38-4.45 7.93-6.84s4.28-5.14 7-7a25 25 0 0 0 7.35-7.26c2-2.89 4.81-5.2 7.46-7.56.8-.71 2.58-1.34 3.26-.93a5.76 5.76 0 0 1 2.18 3.36c.9 3.59-2 6.18-3.31 8.93-3.27 6.56-8 12.37-12.13 18.38-37.74 54.18-115.27 65.34-175.84 74.4-4.1.62-8.38 1.21-12.33-.09-6.33-2.09-7.83-5.27-6.71-8.22z"></path><path d="m1268.17 745.12c-2.11-.51-3.87-1-5.66-1.35a11.38 11.38 0 0 0 -3.07-.28c-4.71.39-9.55.33-14.06 1.52a32.19 32.19 0 0 1 -7.91.94c-5.63.08-11.28.28-16.9-.05-8.46-.49-19.77-8-12.25-16 5.21-5.55 40.08-2.73 48.27-3.26 27.81-1.8 54.59-6.48 80.25-17.6 4.84-2.1 9.61-4.35 14.37-6.62 4.59-2.18 9-5 13.74-6.56 4.2-1.4 8.41-2.91 12.7-4.13 6.25-1.79 12.59-3.21 18.85-4.93a5.61 5.61 0 0 0 2.72-1.39c2.23-2.65 5.68-2 8.43-3.3.83-.37 2.22.48 3.35.77-.33 1.13-.32 2.61-1 3.32a37.09 37.09 0 0 1 -5.86 4.48c-7.41 4.74-14.79 9.49-21.48 15.3-3.35 2.91-7.82 4.28-11.36 7.24a48 48 0 0 1 -15.78 9.11 20.47 20.47 0 0 0 -3.71 2.16c-4 2.41-7.91 4.75-12.86 5.42-4.13.56-7.89 3-12.19 3.84-7.35 1.46-14.43 5-21.78 5.5-7.63.54-14.8 3.69-22.56 3.08-2.56-.2-5.23.7-7.82 1.23-2.26.44-4.4 1.05-6.43 1.56z"></path><path d="m1984.48 808.63c-3.83.34-8.25-2.16-8.09-6 .14-3.33 3.47-5.49 6.42-7.07l23.4-12.5c8.63-4.61 17.28-9.23 25.28-14.85 24.84-17.44 44.47-43.16 59.8-69 2.47-4.16 4.24-8.77 6.69-13 2.93-5.06 4.71-10.83 8-15.64 2.53-3.75 4.62-7.72 7.09-11.47a6 6 0 0 1 2.93-2.1c2.2-.78 3.5.26 3.58 2.64a13.7 13.7 0 0 1 -.1 3.74c-1.49 5.71-4.21 11.15-3.7 17.29-3.72 8.07-3.67 17.1-6.44 25.36-1.59 4.72-2.56 10-6.58 13.64a6.2 6.2 0 0 0 -1.73 3.23c-1.08 5.64-5.07 9.75-7.58 14.62a14.61 14.61 0 0 1 -3.65 3.85c-6.36 5.57-12.58 11.33-19.26 16.49-3.7 2.85-6.71 6.75-11.4 8.28a2.89 2.89 0 0 0 -1.48 1.08c-3.67 5.81-10.12 7.94-15.34 11.7-4.67 3.37-9.18 6.94-13.66 10.56-10.08 8.13-22.13 7.78-33 13.92-3.47 2-6.73 4.57-10.66 5.2-.19-.01-.35.02-.52.03z"></path><path d="m2018.13 865.66c-3.74-.63-7.23-1-10.57-1.86a4.72 4.72 0 0 1 -2.56-7.64c1.37-1.69 2.74-3.42 5.4-3.85 27.47-4.48 56.11-11.32 81.92-21.87 28.87-11.8 47.07-35.76 73.68-49.09 4-2 7.22-5.34 10.78-8.11.65-.51 1.15-1.58 1.81-1.66 2.21-.29 4.47-.25 6.71-.33a23.88 23.88 0 0 1 -1.94 4c-3.81 5.08-5.78 11.25-10.35 16-2.73 2.82-3.89 7.15-5.74 10.82a42.89 42.89 0 0 1 -11.08 13.64c-32.05 27.22-75.11 39.68-115.82 46.31z"></path><path d="m1911.27 918.23c21.73.53 43.59 6.7 62.64 16.15 9.41 4.67 16.95 12.12 25.95 17.39 3.05 4.35 6.3 8.57 9 13.11.83 1.4.59 3.72.22 5.49-2.23 10.45-20.31-10.28-23.56-12.58-12.37-8.8-26.75-14.66-41.42-18.31-24-6-65.62-14.69-87.21 2-1.92 1.49-4.3 2.39-6.23 3.87-4.41 3.37-8.61 7-13 10.37a17.29 17.29 0 0 1 -5.32 2.76c-1.41.43-4 .63-4.44-.09-8.38-13 43.8-34.37 51.94-36.55a111.88 111.88 0 0 1 31.43-3.61z"></path><path d="m865.67 593a22.35 22.35 0 0 1 -5.09-1.37c-5.67-2.84-11.55-5.43-16-10.24s-9.47-9-12.76-14.37c-22.06-36.17-11-89 8.32-124.48 4.39-8.06 11.46-21.28 21.14-21-.22 3.48-2 6.84-4.07 10-5.62 8.67-8.94 18.25-12.08 28-2 6.18-5.1 12-7.66 18-10.1 23.69-7.88 64.73 12.15 84.84 6.16 6.19 12 12.77 19.06 18 2.17 1.61 4.75 3.34 4.57 7-.19 4-.93 5.14-4.88 5.55-.59.12-1.22.07-2.7.07z"></path><path d="m1914.4 901.34c-4.06-.4-8.15-.72-12.24-1-8-.6-16.15-1.17-23.73 1.32-10.06 3.31-16.39 12-25.65 16.34-8.83 4.13-24.52 2.57-10-6.12 23.77-14.2 46.83-25.64 75.4-24.41 17.44.75 34.58 5.79 50.11 13.75 15.78 8.08 37.35 20.17 42.86 38.21.92 3 1.81 6.52-1 9.36-2.08 2.07-4.34 2.23-6.57.37s-4.21-3.89-4.29-6.57c-.09-3-1.8-4.5-3.55-6.23-3.9-3.86-8.82-6.39-13-9.88-3.51-2.94-7.56-4.86-11.48-7.07-2-1.1-3.54-2.84-5.48-4-15.93-9.15-33.46-12.31-51.38-14.07z"></path><path d="m1621 1002.94a40.18 40.18 0 0 1 -17.94-3.4 24 24 0 0 1 -9.3-6.82c-2.73-3.5-4-7.91-5-12.22-2.25-9.55-3.42-20.58 2.61-28.32 3.48-4.47 8.83-7 14.13-9 8.68-3.23 27.37-10.91 35.32-3.33a91.56 91.56 0 0 0 7.56 6.34c5.5 4.21 8.3 10.29 10.71 16.37 5.18 13.12-11.93 31.38-22.08 36.38a39.82 39.82 0 0 1 -16.01 4z"></path><path d="m805.83 639.21c4-.38 7.09 1.85 10.23 3.8 2.07 1.29 4 2.76 6.2 3.89 5.66 2.94 6.22 3.18 10 8.64 1.79 2.58 3 5.26 2.25 8.89-.68 3.14-.17 6.54-1.44 9.69-4.05 10-11.54 16-21.72 19.27-3.47 1.1-6.88 1.1-10.38 1.19-2.78.07-5.59.63-8.32.35-7.27-.73-12-4.9-14.19-11.78-.94-3-2.66-5.73-2.29-9.11a44 44 0 0 1 6.48-18.93 48.39 48.39 0 0 1 10.66-11.65c3.5-2.89 8.09-3.58 12.52-4.25z"></path><path d="m1898.75 1029.2c2.85-.71 5.19 1.3 8 3.29 3.56 2.48 7.25 6 12.72 3.48 2.6-1.18 5.63.5 7.77 2.38a26.14 26.14 0 0 1 7.33 11.71 22.85 22.85 0 0 1 -1 17.63c-1.57 3.51-3.89 6.69-5.93 10-7.67 12.38-16.88 23.17-32.74 23.51-13.36.29-29.65-8.64-31.24-23a5.37 5.37 0 0 0 -1-2.79c-3.18-3.57-3.29-8.26-4.71-12.46a3.92 3.92 0 0 1 .12-2.24 22.93 22.93 0 0 1 8.29-11.6c3.66-2.73 6.05-6.27 9.19-9.23 6.21-5.88 13.15-10.88 23.2-10.68z"></path><path d="m1086.75 762.05c-.06 17-3.54 34.25-22.67 40.13a24.8 24.8 0 0 1 -9.82 1.11c-12.16-1.31-20.08-13-26.28-23.54-1.54-2.61-3.13-5.39-3.15-8.42 0-2.8 1.3-5.43 2.7-7.85 9.89-17 33-33.42 53.07-21.78 3.83 2.22 5.6 5 5.83 9.36.18 3.57.34 7.27.32 10.99z"></path></g></svg> 