<?xml version="1.0" encoding="UTF-8"?> <svg xmlns="http://www.w3.org/2000/svg" viewBox="0 0 2400 2400"><path d="m1000.14 351.63-158.9 59.89-71.07-18.37-53.49-35.93 2.39 17.57 41.52 52.7-15.17-2.4-47.11-31.94-35.93-39.15v24l-3.19 23.16-3.19 14.35 8.79 63.08 27.94 42.32 44.72 46.31-3.2 7.19-23.15-12-35.1-26.33-32.78-35.08-.8 12.77 12 38.33s49.5 58.29 47.11 58.29-19.17-2.4-19.17-2.4l-38.36-31.99v10.38l20 43.91 20 33.54s59.88 37.53 55.89 38.32 13.58 65.48 13.58 65.48l31.94 68.67 48.7 59.09 79.05 35.13-12 42.32-25.55 119.77-21.61 134.95-10.37 85.44-19.16 43.91-31.14 79-34.33 88.68-4 12.78 8.79 8-8.79 16.75-16.76 39.39 1.06 35.14-11.71 6.92-19.16 17.56-100.08 24.49-71.86 22.89-9.58 8.52-4.26 18.09 8 172.47s-2.66 65-2.13 66.54-.53 44.72-.53 44.72l3.19 28.21 54.82 34.07 61.75 24.49 19.16 4.79 44.72-5.33s47.38-21.29 49-21.29 15.37 18.63 15.37 18.63 33 37.26 35.13 38.33 29.28 20.76 29.28 20.76l56.43 27.15 35.16 15.44 32.47 18.09 32.47 16.51 25 5.32 24-5.32 13.31-22.89s1.6-38.33 2.66-40.46 6.92-14.9 6.92-14.9l8-3.2 38.86-135.74 19.69-64.94 18.63-22.36 71.87-47.38 69.2-42.58s71.86-17.57 75.06-18.1 67.07-17 67.07-17l25 43.65s20.76 34.06 22.35 34.6 21.83 29.81 23.43 30.87 22.35 11.18 22.35 11.18l47.38-5.32 84.64-35.67 39.92-14.9-10.11 24-17 42-14.37 45.25-5.86 28.21 4.8 14.91s14.37-17 16.5-18.1 25-27.15 25-27.15l-6.92 30.88.53 19.69 9 4.26 14.9-19.16 24.49-43.12 2.66 8-3.19 25.56 4.79 21.29 10.11-9 22.39-45.88 2.13 9 2.66 28.74 12.24 8.52 25-38.33 12.78-76.65 17-103.8 3.2-83-9.59-51.64-52.16-4.26-101.68 2.13-9-6.92 9.59-9.58 46.31-46.84 42-50 4.79-16-17-58.55-18.1-50-22.36-38.33-19.69-55.36 25.55-53.23 49-164 16.5-76.65-6.39-28.21-15.43-19.16 19.13-76.08 3.73-14.37s24-11.71 25.55-12.24 54.83-21.29 54.83-21.29l5.32-11.18-18.1-4.26-34.07.53-45.24 9.05 10.11-16.5 31.39-22.94 24.48-17.57 8.52-15.44-23.42 2.67-20.23 7.45-22.87 9.09s-27.15 17-26.62 14.9 11.14-25.59 11.14-25.59l22.89-21.82 19.7-34.07-3.73-8-8-.53-22.86 12.25-29.78 29.86-26.09 28.75 6.39-25 14.38-36.2 10.1-27.21-1.6-14.91-11.18 5.86-19.16 14.9-30.87 38.33-27.68 42.58.53-31.4-5.86-23.43-7.45-5.85-10.11 2.13-10.62 10.64-9.58 21.3-7.45 41 .53 79.31-8.52 3.73-6.92 5.85-7.45 58-28.75-22.88-38.32-38.33-51.13-36.17-50.57-29.28-22.84-7.47 53.77-51.1s31.67-49.24 32.47-54.83 17.57-54.3 17.57-54.3l3.72-59.62-11.23-56.4-21.3-47.4-19.68-34.6 19.68-11.18 39.39-32.47 27.69-30.35s4.26-26.08 2.66-25-28.74 21.82-28.74 21.82-39.39 20.76-37.26 17 12.77-19.16 12.77-19.16l17.57-40.46-4.79-6.92-28.75 21.29-29.81 14.43 4.26-11.72 17.57-20.76 17-29.81-2.13-13.84-16.43 11.13-37.79 28.22s-14.38 8.51-13.84 6.38 9.05-20.22 9.05-20.22 19.69-33 20.22-34.6 2.67-19.7 2.67-19.7l-5.86 1.6-12.24 10.64-29.32 26.68s-38.86 17.57-42.59 19.16-99 11.18-99 11.18z" fill="#fff"></path><g fill-rule="evenodd"><path d="m1644.24 1704.6 24.13-10.64 15.63-9.96 28.39 55 25.56 59.62 10.29-29.46 14.9 3.91 5 35.13-2.13 49.33-8.52 23.77-10.64-.71s-28.39-17.74-29.1-19.16-21.65-37.62-21.65-37.62l-32.29-68.13z" fill="#fef065"></path><path d="m1622.24 1642.15 14.9-13.13 28 2.48 9.58 30.52-22 12.78s-21.65 8.51-21.65 5.67-8.83-38.32-8.83-38.32z" fill="#fef065"></path><path d="m1658.43 1600.27 4.26-31.58-5-39.39-23.69-41.88-19.88-16.68-21.64 1.42-7.81 11.36-2.49 36.19 12.43 52.53 16.67 38.32s6 7.81 6 6.75 9.58-11.36 12.06-12.43 29.09-4.61 29.09-4.61z" fill="#fef065"></path><path d="m839.73 282.26-45.42 8.87-13.84 11.35-1.78 19.17 15.62 70.62 61.39 18.1 98.3 2.13s195.54-4.26 198.73-4.62 76-9.22 76-9.22 63.16-29.81 66-30.17 55.72-26.26 55.72-26.26l4.26-17.39-5.68-9.23s-96.88-10.64-98.3-10.29-138.4-16.68-138.4-16.68l19.51-14.55 44.36-39.74 8.88-33-11.08-39.35-11 7.45-16.68-28.74-11.71 7.1-10.27-12.81-20.23 9.94-9.93-6-18.81 11.36-8.87-6.39-26.62 25.2-10.64-1.42-22.72 31.23-6 26.61s5.68 23.43 6.74 24.49 27.3 33.98 27.3 33.98l-92.27-5z" fill="#fef065"></path><path d="m1321.77 436.9c-7.22 8.25-25.67 12.74-40.1 14.71-31.21 4.24-72.43 4.54-100.26 1.33-9.79-1.13-28.17-3.41-28.07-13.36 4.44-5.95 13.67 1.33 21.39 2.67 43.17 7.48 96.75-2.51 147.04-5.35z" fill="#0e5256"></path><path d="m1474.16 530.47c.65 8.23-8.37 6.79-16 6.69 2.4 36.07-8.83 67.86-30.75 88.22-8.74 8.12-15.46 13.65-28.07 20-72 36.55-142.85-35-131-117.63.46-7.14-8.76-4.61-6.68-13.37 19.59-4.25 55.27 3.65 80.2 5.35 30.13 2.05 67.17 1.37 97.58 4 12.18 1.12 25.75 1.27 34.72 6.74zm-193.83-1.33c.12 16.62-.67 32 2.68 45.44 5.66 22.87 20.54 45.22 36.09 56.15 12.08 8.49 32.92 15.27 50.79 13.36 19-2 49.42-21.6 58.82-33.41 9-11.32 18.8-36.35 17.37-60.16-.38-6.46 2-18.79-10.69-14.7-2 46.37-26 89.41-72.18 86.89-44.37-2.43-64.21-44.31-60.15-94.91-6.44.27-20.23-7.64-22.73 1.34zm36.1 0c-9.31 34 13.63 77.83 44.11 81.54 10.2 1.24 25.6.77 33.41-10.7-31.87-.54-25.6-45.92-16-66.83-18.6-2.45-44.74-4.22-61.52-4.01z" fill="#0e5256"></path><path d="m1111.91 557.21c5.33 10.15-9.27 11-12 17.37 18.21 34.72 16.76 75.6 1.34 109.62-5.14 11.34-12 24.89-20 33.42-3.69 3.93-10.26 6.45-16 10.69-5.08 3.73-9.76 9.31-14.7 12-34.1 18.79-77.15 12.49-104.27-10.7-17.78-15.2-34.77-45.42-36.09-76.19-3-3.64-14.61 1.25-16-4 1.37-11.62 16.36-10.75 24.06-13.37 45.34-15.38 89.93-34.88 133.67-53.47 17.67-7.5 36.46-14.52 49.46-24.06 1.73-1.36 5.44-5.22 10.53-1.31zm-165.76 153.72c16.62 19 40.26 33.89 72.19 29.41 17.8-2.5 43.53-19.65 53.46-29.41 27.1-26.63 43.49-94.58 16-131-5-.55-14 6.48-21.39 8 28.75 52.8 3.06 125-54.81 127-40.63 1.4-69.85-26-74.86-72.18-5.64-.3-8.63 2.06-13.36 2.67-3.48 23.85 7.06 47.58 22.77 65.51zm66.85-96.24c-1.35 0-1.59-1.09-2.68-1.34-19.31 8.31-39.5 15.75-60.15 22.72-1 38.06 28.26 70.25 66.84 66.84 17.9-1.58 38-15.94 38.76-30.74-33.37 15.34-49.24-24.52-42.77-57.48z" fill="#0e5256"></path><path d="m1106.56 807.17c1.4-28.32 15-50.84 24.06-73.51 7-17.43 12-33.5 17.38-54.81 1.36-5.42 1.1-13.6 8-16 9.76 2.14 5.32 12.3 4 18.71-8.25 40.22-32.19 74.79-41.44 116.3 24.7 2.69 48.08-8.46 72.18-13.37s49-8.13 72.18-14.7c22.79-6.46 45.44-14.08 66.84-21.39 21.55-7.36 43.67-13.13 60.16-26.74-5-15.21-23-22.12-37.44-29.4-35.68-17.94-72.51-34.85-112.28-54.81-8.22-4.12-22-8.58-17.37-14.7a3.65 3.65 0 0 1 2.67-4h2.67c45.34 22.33 89.28 43.83 137.68 68.17 12.67 6.37 35.62 18.31 36.09 32.08s-14.81 19.39-30.74 25.4c-15.14 5.71-28.89 12.73-38.76 16-21.52 7.21-41.67 12.48-65.5 18.72-21.76 5.68-51.45 11.74-77.54 17.37-18.67 4-37.63 10.59-54.8 13.37-11.08 1.78-20.93 1.52-28.04-2.69z" fill="#0e5256"></path><path d="m1348.51 808.51c.91 6.61-6.3 10.62-10.7 14.71-37.47 34.78-95.3 56.78-164.42 50.78-7.88-.68-18.35 1.31-22.72-6.68 3.31-12.79 15.83-3.39 22.72-2.67 55.68 5.74 110.34-11.93 143-37.43 8.7-6.8 15-15.18 24-21.39 4.72-1.05 5.74 1.49 8.12 2.68z" fill="#0e5256"></path><path d="m1447.42 867.33c-.57 19.47-3.48 36.61-21.38 38.76-5.16 6.61-8.34 21.73-21.39 16-5.83 9.77-8.64 22.56-25.4 21.39-5.57 11.41-15.56 30.42-32.08 18.72-6.25 6.13-15.3 21-28.07 12-5.33 5.81-7.25 15-14.71 18.72-6 .66-10-.68-14.7-1.34-5.34 11.35-11.27 27.87-29.41 16-4.23 4.23-4.67 12.26-10.69 14.71-8.28.71-10.94-4.21-14.71-8-6.66 8.48-6.24 24.05-22.72 22.72-3-2.81-6.33-5.26-8-9.36-11.78 4.88-28.38 27-40.1 8-4.44 2.25-4.52 8.85-9.36 10.7-11.76 1.07-15.17-6.22-20-12-6.74 7.64-23.92 14.08-33.42 4-5.61 5.52-7.48 14.8-21.39 12-4.1-2.58-6.92-6.45-10.69-9.36-2.69 3.1-4.87 6.72-9.36 8-7.38.25-10.66-3.6-14.7-6.68-13.11 1.08-22.32-1.75-28.07-8-7.27 2.88-15.37 5.27-22.73 1.33-1.95-2.94-4.06-5.74-4-10.69-5.9 3.46-9.89 8.82-17.37 10.69-4.86-.93-7.28-4.3-10.7-6.68-10.45 3.27-22.11-.08-28.07-5.34-7.21 2.23-14.15-1.2-20-4 .35-9.74-5.81-15.39-6.69-20.05 1.6-10.5 24.9-25.55 28.08-6.68 5.76 0 4.92-6.66 10.69-6.68a19 19 0 0 1 9.36 4c1.49 9.5-4.32 11.72-4 20.05 8.87.84 10.69-16.93 18.71-21.39 5.74-.39 8.84 1.86 12 4-.16 3.85.73 8.75-1.33 10.69 8.83-1.85 12.34-9 18.71-13.36 15.14-.57 9.57 14.93 6.68 24.06 10.67-1.81 11.85-13.11 20.06-17.38 3.14 0 3.93 2.3 8 1.34 1.12 2.89 3.45 4.56 2.67 9.35 6.64-6.87 14-23 26.73-12 .79 6.21-1.83 8.07 0 12 3.8-4.66 6.82-10.11 12-13.36 4 .95 8.28 1.52 10.7 4 .8 8.38-1 14.13-1.34 21.38 8-5.71 9.08-22.47 18.72-24.06 15.83-2.62 12.77 14 8 26.74 11.22-1.56 14.33-24.51 25.39-30.75 5.24.11 8.34 2.36 12 4 2.23 11.58-4.44 14.27-4 24.06 7.19-3.07 11.36-20.71 21.39-25.39 3.21 1.69 8.09 1.72 10.69 4 .89 8-1.21 13-1.33 20 8.91-1.35 19.4-12.67 20-26.74a3.65 3.65 0 0 0 4-2.67c6.78-.54 9.77 2.7 13.36 5.35v13.36c7.7-7.45 7.3-23 16-29.4 5.61-.71 7.47 2.33 12 2.67 1.84 1.72 1.32 5.81 1.33 9.36 9.09-4.29 8.16-18.58 17.38-22.73 5.22 1.47 12.29 1.08 10.7 9.36 5.83-7.66 13.92-32 28.07-13.37 5-6.56 6.67-16.5 12-22.72 9.72-1.26 13.74 3.19 16 9.35 5.86-4.38 5.23-15.26 10.69-20.05 12.21-2.4 12.74 6.88 17.38 12 8-9 8.12-25.74 18.71-32.08 5.53-.18 7.66 3 10.69 5.35 5.61-5.53 2.16-20.13 10.7-22.72 5.77-.87 7.49 2.31 10.7 4 6.11-4.13 6.08-14.41 10.69-20.05 5.47-.57 8.56 1.24 12 2.68 4.39-8.88 6.76-20.81 18.93-11.81z" fill="#0e5256"></path><path d="m1516.93 919.46c-2.56 10.29.19 22.08-1.33 30.74-2.94 1.53-5.46 3.45-10.7 2.68a28.67 28.67 0 0 1 -1.34 12c-3 2.1-7.88 7.18-12 4 1 7.47 5.18 11.75 4 21.39-2.35 2.55-5 4.8-9.36 5.34 1.31 11.74 12.75 29.35-6.69 29.41-.16 5.51 2.33 8.37 1.34 14.71-2.56 1.89-3.83 5.07-8 5.34 1.81 8.44 7.1 13.4 8 22.73-2.56 2.79-4.76 5.93-9.35 6.68 2 3.84 1.81 9.78 5.34 12-.6 4.74-4.51 6.18-5.34 10.69-.21 5.4 5.24 8 5.34 13.37 0 2.32-3 4.45-2.67 6.69.94 5.64 6.63 10.36 5.34 16-4.41 19.48-31.76-2.94-29.4-21.39-.64-4.2 1.66-5.46 4-6.69-3.07-6.73-5.25-14.35-8-21.38 4.29-6.62 3.42-12.22 1.34-21.39 0-4.88 3.8-6 5.35-9.36a130.92 130.92 0 0 1 -8-25.4c.15-5.63 4.82-6.76 6.68-10.69-3.32-12.6-4.19-27.54 6.69-32.08-3.64-10.47-.88-22.11 6.68-25.4-2.69-7.8-2.37-14.61 0-22.72 3.76-1.14 5.48-4.32 10.69-4 2.26-2.2 1.66-7.26 4-9.36 12.37-3.6 26.11-13.82 37.39-3.91z" fill="#0e5256"></path><path d="m1587.78 1006.35a32.34 32.34 0 0 1 -6.69 6.68c2.61 12.23 1 27.46-9.35 30.74 5 13.63-2 26.35-13.37 28.08 1 10.8-1.87 17.74-9.36 20.05 4.8 7.13 8.77 23.61 0 29.4 4.94 11.12 13.62 31.25 0 38.77 1.11 9.72 3.88 17.09 0 25.4 5.28 12.43 21.39 32.78 0 38.76 2 10.06 14.22 15.46 10.7 26.74 1.44 3.9 5.66 5 5.34 10.69-12 19.25-28.78-9.77-36.08-20.05-1.11-3.78 1.88-3.46 1.33-6.68-6.13-10.8-15.1-18.77-17.38-33.42 2.85-4.73 7.26-7.9 16-6.68-2.11-9-7.68-14.61-10.7-22.73 1.5-3.39 6.71-3.09 8-6.68-.4-11.18-9.75-13.42-12-22.73 4.62-2.91 9.4-5.14 16-2.67.9-13.06-11.85-23.7-16-36.09 0-6.26 7.4-5.08 10.69-8-3.88-11.44-22.3-36.55 5.35-34.76-.88-6.69-3.87-11.27-5.35-17.38 6-4.25 14.4-6.86 21.39-1.33 0-11.62-6.52-16.65-6.68-28.07 3.26-3 9.54-2.93 16-2.68-.18-8.21-7-12.15-5.35-18.71 3.98-15.46 40.13-6 37.51 13.35z" fill="#0e5256"></path><path d="m1043.73 1168.09c13.39-6.14 16.19-40 37.43-25.4.27 4.19-.9 9.82 1.34 12 6.39-6.74 12.18-25.47 25.39-13.36 2.08 10.63-.08 15.51-2.67 24.06 10.07-6.86 12.21-21.66 20-30.75 14-3.33 14.79 6.6 16 16 7.82-8.32 12.32-31.77 29.41-18.71 1.81 9.41-3.6 19.64 1.34 24.06 8.79-7.7 12.59-20.37 18.71-30.74 9.83-.93 15.55 2.27 14.71 12 7.39-2.86 7.55-12.94 12-18.72 5.25.11 8.34 2.36 12 4-.41 7.55 2.38 11.89 1.34 20 17-2.19 11.34-27 21.39-36.09 10.6-.79 12.85 6.75 14.71 14.7 7.65-6.6 11.29-17.22 16-26.73 9-1.92 10.46 3.79 14.7 6.69 6.53-5.51 7.76-16.31 12-24.07 5.58-1.54 6.59.12 12 1.34a16.57 16.57 0 0 1 2.67 12c9.77-5.83 7.88-23.31 14.71-32.08 8.34-2.57 16.94 3.82 16 14.7 7.14-8.45 6.6-24.59 14.7-32.08 8.06 0 12.71 3.34 13.37 10.69 8.11-4.36 4.18-20.76 13.37-24.06 5.41-.51 6.15 3.65 9.36 5.35 5.47-3.88 5.87-12.84 9.35-18.71 6.74-1 9.19 2.4 13.37 4 4 19.89-6 35.29-16 45.45-3.84.27-6.79-.34-8-2.68-7 8.25-13.17 22.58-28.07 18.72-4.89 6.25-7.64 14.64-14.7 18.71a26.09 26.09 0 0 1 -12-5.34c-5.16 12.88-14.85 27.61-33.41 22.72-6.88 5.8-13.27 24.16-26.74 14.7-6.49 4.66-9.21 13.07-14.71 18.72-6.32.09-13.15.68-14.7-4-5.26 13.83-23.64 24.33-38.76 13.36-6.28 4.86-10.37 11.92-18.72 14.71-3.88-1-7.68-2.12-9.35-5.35-4.16 2.53-4.92 8.45-9.36 10.7-12.78.74-17.53-6.53-24.06-12-6 9.74-19.87 21.66-33.42 12-3.49 2.74-5.32 7.15-9.36 9.35-9.83.48-16.45-2.26-22.72-5.35-5.45 11.63-23.53 11-29.41 0-6.63 7.9-27.39 12-36.09 2.68-6.82 5.38-16.69 1.28-24.06 2.67-5.23 1-7.45 5.19-12 5.35-5.48.19-10.45-2.51-16.05-4-3.15-4.42-5-10.17-6.68-16-11.72 0-19.39-.44-32.08 2.67-7.74-4.67-11.81-5.89-21.39-4-12.82-6.33-22.61-15.71-33.42-24.06-2.4-16 10.91-31.14 25.4-26.74 2.07 2 1.18 6.85 1.34 10.7 4.7-2.64 11.92-6.12 18.71-2.67 2.35 3 .64 10.05 2.68 13.36 5.61-4.63 7.51-13 13.36-17.37 4.91.43 9.17 1.53 12 4 .79 11 .42 14.4-2.68 22.72 17 9.6 17.86-32.33 34.76-18.71 8.9 7.18-2.94 26.92-2.68 38.76 12.34-6.37 14-23.41 22.73-33.42a28.85 28.85 0 0 1 12 1.34c2.73 2.17-.06 9.86 2.67 12 6.39-4.55 14.25-12.17 22.72-4 1.04 9.12 1.82 14.3-2.45 20.21z" fill="#0e5256"></path><path d="m922.09 1340.53c8.53-7.16 10.51-26.16 28.07-20.06 1.83 2.64 1.28 7.64 2.67 10.7 4.49-1.75 5.56-6.92 9.36-9.36 6.1-1.19 7.58 2.23 12 2.68 1.25 11.56.5 15.42-2.67 24.06 12-5.79 17-18.62 24.06-29.41 6.51-1.17 8.87 1.83 13.37 2.67-.3 4.31 2.36 5.66 1.33 10.7 4.94-4 8.35-9.48 12-14.71a29.07 29.07 0 0 1 12 1.34c3.16 4.16 1.45 6.23 2.67 10.7 8.42-4.75 15.77-20.28 28.07-9.37-1.34 6.5 2.28 12.79 0 16 10.93-3.78 12.19-17.21 21.39-22.72 10 .72 13.5 7.88 12 20 7.29-1.18 11.83-16.66 20-21.38 11.92-1.23 14.29 7.1 14.7 17.38 8.2-7.41 11.27-19.93 18.72-28.08 6.33-3.37 10.9 7.1 13.36 6.69 5.32-.9 5.08-7.21 8-14.71 5.84-1.86 7.9 0 13.37 1.34 1.23 4.57 2 9.58 4 13.37 7.12-4.92 9.32-14.75 16-20 8-.46 11.33 3.82 13.37 9.36 7.86-8.3 19.37-39 30.74-16 8.79-2.8 7.82-15.35 17.38-17.37 4 2.21 8.64 3.83 10.69 8 6.61-4.09 5.81-15.58 13.37-18.71 6 1.17 11.63 2.64 12 9.36 7.72-5.21 8.62-17.22 17.38-21.39 5.12 1.12 10 2.45 10.7 8 7.77-4.7 7.92-17 17.37-20.05 5.21-.31 6.93 2.87 10.7 4 4.54-5.7 6.81-13.68 10.69-20 7.15.87 12.3 3.74 13.36 10.69 7.66-3.93 8.47-14.7 16.05-18.71 5-.59 6.27 2.64 9.36 4 2.53-3.71 3.64-8.83 6.68-12 3.84-.28 6.79.34 8 2.67 4.08-1.71 3.58-8 9.36-8 19.85 8.09 5.28 35.88-9.36 40.1-5.31 4.5-7.65 12-14.7 14.71-4.88.86-7.12-.9-9.36-2.68-6.2 3.62-8 11.63-16.05 13.37-4.06.06-5.19-2.82-8-4-6 4.25-9.81 10.69-16 14.71-4.6.58-7.5-.53-10.7-1.34-5.9 5.68-9 14.21-17.37 17.38-4.89 0-6-3.81-9.36-5.35-7 5-8.58 15.49-17.38 18.72-5.11.64-8.53-.38-10.69-2.68-8.42 4.72-16.55 20.23-29.41 12-6.3 4-8.24 12.27-16 14.7-4.79-1-8.5-3.09-9.36-8-8.49 6-19.17 26.77-32.08 12-6.22 5.36-8.89 14.29-17.38 17.38-8.94 2.31-7-7.86-12-8-4.42-.14-15.53 18.73-26.73 12-6.34 7.34-23.15 17.64-33.42 2.67-8.19 7-11.59 18.72-25.4 20.06-4.33-3.7-9.2-6.84-10.69-13.37-10.59 6.43-24.75 23.06-34.76 4-7.63 4.4-9.37 14.69-24.06 12-2.6-3.19-6.42-5.17-8-9.36-5.49 3.43-10.07 7.75-16 10.7-5-.35-7.6-3.1-10.69-5.35-11.62 6.73-34.13 8.43-36.1-8-12.47 8.73-34.42 14.26-45.45 0-12.59-.33-24.2-1.63-28.06-10.7-8 1.29-10.89-2.48-14.71-5.34 1-9.89-1.49-16.33-1.34-25.4 7.45-16.19 19.75-8.69 33.42-1.34.47 9.7 2.5 15.69-2.67 21.39 9.33-4 11.73-15 17.38-22.72 5.6-.71 7.46 2.33 12 2.67 2.49 6 2.1 16.99-1.19 21.39z" fill="#0e5256"></path><path d="m1464.8 1964.78c16.48-3.79 34.49.68 44.11 8 1.18 6 2.41 11.85 5.35 16 13.08-1 22.66 1.4 26.73 9.36 21.34-6.93 46.45 3.91 54.81 18.71 6-2.8 21.33-8.32 22.72 2.68.67 6.9-10 2.42-13.36 5.34-6.58 3.67-11.87 8.64-17.38 13.37-2.82 5.2-1.82 14.22-12 12-6.64-8.92 4.77-19.18 9.35-25.4-8.16-20.73-44.25-23.34-54.8-4-1.88 7-1 16.87-12 14.71-4.87-14.41 5.3-24.87 12-32.08-9.79-6.74-25.44-4.15-34.75 1.33-7.47 4.39-7.38 13.29-14.71 14.71-15.33-8.77 8.07-26.55 20.05-28.08-.06-6.62-5.29-8.07-6.68-13.37-7.22-2-18.54-4.5-26.73-1.33-7.4 6-12.68 14.06-16 24.06.66 5.65 5.46 11.89 0 16-8.71 3.27-8.22-7-16-10.69-16.69-8-44.94.65-48.12 13.37-1.4 5.61 2.11 10 1.34 17.37 7.18-3.46 28.77-9 38.76 0 19.82-14.76 66.5-10 68.18 17.38 13.94-7.27 36.28-3.64 45.44 5.35 10.34 1 25.89 3.1 34.76 9.35 5.21 3.68 15.91 15.87 4 21.39-6.57-.11-6.06-7.3-9.36-10.69-11.62-5.26-23.82-12-37.43-4-6.25 3.66-7.81 14.58-17.37 13.36-6.32-8.91 3.87-18.68 10.69-22.72-13.11-11.23-29.26 3-40.1 6.68.87 1.36 3.07 1.38 2.67 4-10 4.27-12.39 16.13-16 26.74-10.12 1.18-12.48-9.58-21.39-10.69-13.4-1.68-21.51 8.84-30.74 16-2.9 5.12-3.56 12.48-13.37 10.69-3.93-6.34 1.15-13.55 4-17.38-1-3.47-7.5-5.47-10.69-2.67-6.82-1.47-1.2 9.49-8 8h-5.35c-6.6-9.85 4.21-20.28 16-20 2.79-15.49 6.82-29.72 14.7-40.1-12.09-10.91-26.73 3.58-33.42 10.69-1 6.86 2.32 10.15 0 14.7-9.91 4.9-13.62-5.25-17.37-10.69-10.82-6.07-37.25-11.26-48.12-1.34 2.54 12.17 15.85 13.57 20.05 24.06 21.62.22 30.32 13.35 36.09 29.41-9.32 6.79-16.53-2.54-18.71-10.69-11-11.92-33.24-9.71-44.12 1.33 3.2 7.94 14.25 8 12 21.39-10 5.34-10.59-7.33-17.38-9.36-13.88-2.35-24.25 6.93-36.08 5.35.65-13.6 15.66-12.86 25.39-17.38 7.27-7.88 15.33-15 26.74-18.71-15.86-21.88-48.41.88-49.46 22.73-7.13 4.34-12.26-3.38-14.71-8-18.89-10.1-45.53-6.14-54.8 10.7 3.52 4.72 11.39 14 5.35 20-9.16-4.22-17.29-15.61-32.09-16-12.68-.37-21.19 8.36-30.74 14.7-8.24-20.72 28.23-30.75 46.79-21.38 2.77-7.93 9.23-12.16 14.7-17.38 5.31-21.07-14.3-29.25-30.75-22.73-8 3.19-9 15.66-17.37 10.7-5.88-25.78 41.8-28.16 56.14-14.7 11.13-13.6-20.41-32-38.77-29.41-15 2.12-17.56 17.29-30.74 18.71-4.53-14.52 20.4-30.21 34.75-30.75 12.19-.45 24.09 6.34 32.08 12 5.36-4 11.63-7.1 14.71-13.37 17.93-11.76 57.58-16.54 70.85 2.67 4.53-33.82 59.35-40.23 80.2-17.38 14.39-12.23 35.25-18.46 60.15-13.36 4.27-8.21 9.86-15.1 14.71-22.73-7.84-22.56-43.2-14.08-50.8 4-2.35 5.61 1.69 9.55-2.67 14.71h-5.35c-4.24-1-5.21-6.6-5.34-9.36-1.54-30.11 61.81-50.2 74.76-15.88zm-94.91 49.46c-20.71-16.4-56.29-10.41-60.15 14.7-1.47 9.57.92 15.35 4 20.06 17.63-6.41 54.15-9.29 60.15 10.69 6.86-13.08 3.11-34.82-4-45.45zm-135 17.38c-1.79 5.78-5.26 9.89-8 14.7 5.92 2 10.31-4.16 16-6.69 12.45-5.49 27.94-6.52 44.12-8-9.88-15.15-40.09-8.78-52.13-.01zm250 30.74c.8-4.75-3.41-13-6.68-16-13.83-12.71-39.84-5.22-48.13 4-8.55 9.53-14.64 27.92-10.69 40.1 12.93-3.77 29.63-12.71 45.45-5.35 3.29-11.04 18.39-13.11 20.01-22.75zm-236.6-10.69c15.13 3.58 27.29 10.13 33.42 22.72 8.21-2.93 15.4-6.87 22.72-10.69 1.08-25.97-43.18-22.9-56.18-12.03zm5.35 14.7c-17.44-3.59-30.88 2.74-32.08 18.71 13.26-4 32.13 1.42 44.11 6.69 3.17-4 7.64-6.63 9.35-12-7.29-2.43-11.93-11.45-21.42-13.4z" fill="#0e5256"></path><path d="m1442.08 2145.24c-8.41.83-8.82-6.34-13.37-9.36-8.32-2.15-20.06-4.2-29.41-1.34-5.89 1.68-4.82 10.33-14.71 8-7.04-32 69.91-25.13 57.49 2.7z" fill="#0e5256"></path><path d="m633.36 477c7.88 3.76 9 12.29 13.36 18.72 4.54 6.72 11.3 13.64 17.38 20 17.59 18.52 37.49 36.1 61.49 49.46-28.1-27.47-59.59-61.72-74.85-108.18-.81-4.81 4.07-3.94 4-8-5.89-18.3-8.64-48.59 2.68-62.82-.07-14.11-7.49-36.43 1.34-46.79 8.34-1.89 9 7.58 12 12 18.62 26.94 43.91 51.29 74.85 68.18-9-14.49-23.07-30.68-34.75-48.13-5.64-8.42-10-18.72-14.71-28.07-4.19-8.35-14.17-18.09-8-28.07 10.52-.2 14.53 14.43 21.39 22.72 20.31 24.57 50 43.93 81.54 58.82-11.43-12-36-23.31-50.79-38.76-4.14-4.33-11.44-12.35-6.69-18.72 6.22-1.11 10 4.84 13.37 8 10.1 9.68 19.25 22 34.75 28.07-5.94-24-21.33-61 0-82.88 15.43-10.36 46.64-13.86 74.86-16 54.23-4.17 112.41-1.2 164.42 1.34-.77-6.77-7.82-11.05-12-16-4.68-5.55-9.73-11.42-12-18.71-10.76-34 15-64.08 34.75-84.22h8a304.78 304.78 0 0 1 30.75-22.72c5.18.16 6.75 3.94 9.35 6.68 6.1-3.7 10.93-8.68 18.72-10.69 4.21-3.55 7.43 2.47 10.69 4 6.8-1.66 8.75-8.18 17.38-8 5.94.74 5.3 8.07 8 12 4.68 3 6.42-6.39 14.7-4 7.56 5.81 11.57 15.17 14.71 25.4 7.14.46 4.6-8.76 13.36-6.69 11.2 16.05 19.34 40 12 66.84s-42.13 46.58-62.82 62.82c7.85 3.95 17.42 4.3 26.73 5.35 55.37 6.26 111.24 14 172.44 18.72 19 1.47 31-.28 36.1 17.37 11.43-4.19 19.52-15.93 28.07-25.39 8.31-9.22 18.19-18.31 24-28.07 3.93-6.54 3.85-21 14.71-20.06 2.91 5.52-.41 15-2.67 20.06-7.83 17.45-26.46 31.86-36.09 46.78 20.73-10 41.81-29.1 58.81-48.12 2.14-2.4 3.54-7.39 8-6.69 12.15 4 7.89 20.19 5.35 28.07-5.34 16.53-23.12 35-29.41 48.13 12.25-5.16 24.49-14.56 36.09-24.06 5.43-4.45 12.24-9.81 17.38-14.71s8.25-13.57 16-14.7c2.34 39.5-19.6 61.36-38.77 85.55 23.5-8.65 48-34.64 65.51-50.8.39 39.17-18.19 59.35-33.42 82.88a201.27 201.27 0 0 0 46.78-29.41c5.66-4.79 9.32-12.72 17.38-14.7 1.76 43.1-21.26 65.63-49.46 86.89-11.68 8.8-22.43 22.89-40.1 26.73 17 34.42 39.84 67.17 46.78 112.29 5.27 34.21 4.93 69.94-4 102.92-15.71 58-51.18 110.21-93.57 139 73.54 27.17 123.27 78.14 175.11 127 5.07-22.31 1.67-59.54 24.06-60.15 1.64-20.35-.42-60.95 4-96.25 2.88-22.93 12.28-49.19 22.72-57.47 23.94-19 37.84 15.94 33.42 46.78 11.34-9.87 17.21-26.25 26.73-40.1 14.72-21.41 32.52-42.06 58.82-52.13 10 6.77 7.18 21.47 4 30.74s-10.18 19.78-14.71 30.75c-4.6 11.14-9.28 21.77-13.36 30.74 12.13-9.67 27.93-28.42 44.11-41.44 5.79-4.66 11.23-11 16-13.36 7.49-3.69 22.37-8.66 30.74 0-4.65 40.79-38.12 52.77-53.47 82.87 17.24-8.95 35.58-21.19 58.82-28.07 10.19-3 24.81-7.85 34.75 0-11 34.9-49.73 42.06-72.18 65.5 28.74.8 77.67-18.12 97.58 4-7.11 18.2-29.45 19.86-46.78 26.74-17.79 7-35.35 15.11-49.46 24.06a496.12 496.12 0 0 1 -18.72 78.86c10.77 16.42 22.06 32.3 24.07 57.48-11.6 50.51-26.9 100.46-41.44 149.72-14.31 48.47-28.23 97.13-50.8 139 4.11 13.18 10.93 25.11 16 38.77 1.61 4.3 2.34 8.6 4 13.37 5.78 16.43 17.15 30.94 24.06 48.12 9.23 22.91 17.47 54 25.4 82.88 2.55 9.29 8.69 20.55 8 26.73-.63 5.79-8.32 14.56-13.37 21.39-10.16 13.75-21.39 23.75-32.07 36.09-5.18 6-11.27 11.77-13.37 20-17.23 10.4-29.22 26-44.12 38.76 63.39 5.54 108.49-7.26 164.42 2.68 12.64 51.83 8.9 117.58 1.34 173.78-3.07 22.77-9.39 45.93-13.37 68.16-6.87 38.39-11.24 72.53-22.72 96.25-4.19 8.65-14.62 27.14-26.74 25.4-13.31-1.91-12.15-24.85-12-36.09-10.37 15.91-14.08 45.62-34.75 46.78-13.07-5.68-4.8-34.25-4-46.78-5.58 5.84-8.35 20.58-14.71 32.08-7.1 12.82-17.22 29.14-33.42 17.37-4-12-.39-23.3 0-37.42-12.3 2.65-16 35.21-33.42 33.42-12.76-1.31-11.33-22.82-8-38.77 3.65-17.56 12.56-39.12 20.05-58.82 8.3-21.85 18.51-41.35 24.06-54.8-23 8.15-46.2 18.41-70.85 28.07-23.72 9.29-48.55 22.56-73.52 25.4-31.42 3.57-46.55-16-60.15-34.76-18.77-25.9-41.35-57-54.81-85.55-28.38 9-57.57 15.2-86.88 20.06-28.16 4.66-53.87 13.39-77.53 28.07-21.92 13.58-42.3 29.13-64.17 42.77-22.3 13.91-52.85 29-65.5 49.46-8.26 13.35-12.21 32.62-17.37 49.46-15.56 50.73-29.88 102.86-44.12 155.06.94 6.28-6.66 4-9.35 6.68-7.16 21.57-4 50-16 66.84-7.65 10.65-24.5 19.2-44.12 14.7-11.11-2.55-23.11-10.32-34.75-16-11.89-5.84-22.8-11.81-33.42-17.38-22.23-11.65-47.19-21.27-69.51-32.08-48.8-23.63-88.74-53.73-109.61-92.23-16.29 5.39-32.51 12.37-49.46 17.38-16.8 5-36.42 10.63-54.8 8-10.08-1.43-24.49-8.48-34.76-13.36-31.09-14.8-65.33-35.26-93.57-50.8-12.69-18.85-9.46-48.51-8-80.2 2-44.77-.33-98.06-4-143-2-23.92 1-49.91 0-73.52-.66-14.93-3.22-27.77-1.34-41.44 23.27-18.6 55.91-24.82 89.56-34.75 15.44-4.56 31.56-9.81 48.12-13.37 17.45-3.75 37.16-4.45 50.8-10.7 10.78-4.93 15-20.25 28.07-20-8.44-35.29 9.07-61.5 22.73-82.88-.22-6-8.28-4.2-8-10.69 3.58-21.55 14.59-40.56 22.72-61.49 7.65-19.7 13.55-41 21.39-61.49 11.32-29.6 24.29-59 36.09-89.56 3.86-10 9.9-20.22 12-29.41 3.55-15.31 3.65-33.48 5.35-49.46 11.67-109.59 38.05-211.76 60.15-315.47-29.31-11.81-57-24.15-80.2-41.44a163.44 163.44 0 0 1 -34.76-34.75c-28.26-37.75-48.25-88.4-53.47-151-35.21-19.36-67.94-49.83-86.88-89.56-6.22-13-13.84-29.11-16-42.78-.89-5.52-3.73-12.82 2.68-16 10-.85 14.67 11.38 21.39 18.72 7 7.59 15.9 14.56 22.72 21.38 1.08.26 1.33 1.34 2.67 1.34-21.4-22.07-40.2-53.63-50.79-89.56-2.81-10.07-9.58-26.32.1-34.96zm486.56-334.18c-6.44 3.81-11.66 8.83-20.05 10.7-6.25 1.35-4.44-5.36-10.69-4-4.59 4.32-9.06 8.76-16 10.69-4.39-.51-4.23-5.58-8-6.68-14.46 5.28-18.7 25.93-36.09 24.06-12.93 16.77-29.56 35.14-21.39 62.82 5 16.76 22.77 25.41 32.08 37.43 10.6.51 10.74 5.94 10.7 12-42.83.77-96.15-7.09-147-5.35-30.56 1.05-100.07 2.62-113.62 16.05-7.06 7-8.54 20.88-6.69 34.75 2.55 19.05 14.15 41.53 21.39 54.81 36.82 14.12 81 19.51 129.66 17.37 64.88-2.85 132.17-.64 197.84-4 57.8-3 100.55-7.84 141.69-29.4 13.24-6.94 26.83-14.42 40.1-21.39s32-11.12 34.76-28.07c-13.3-7.61-30.06-5.61-45.45-6.69-49.57-3.47-96.42-12.59-140.36-17.37-12-1.32-26.61-1.08-40.1-2.68-10.86-1.28-28.39.33-32.08-12 5.6-2.84 17.33-10.86 22.72-5.34 12.53-12 29.47-19.55 42.78-30.75 3.85-9.74 18-18.58 21.38-32.08a68.23 68.23 0 0 0 -4-44.11c-6.57-.29-10.81 7.21-17.37 2.67-3.67-7.92-5.6-17.57-9.36-25.4-6.54-.3-8.4 4.08-14.7 4-6.51-1.63-4.55-11.61-12.15-12.04zm-343.53 442.46c4.75 2.85 11.36 4.46 14.7 9.36-.72 10.31-10 5-14.7 4-20.22-4.1-36.35-12.69-50.8-21.38a312.3 312.3 0 0 1 -66.83-53.47c-3.19-3.4-8.49-12.6-10.7-8 7.62 35.31 28.29 58.4 48.12 81.54 14.82 17.27 33.45 32.52 50.82 45.43 5.89 4.38 15.89 7.36 17.38 16-3.82 7-11.71 1.81-16 0-5.44-2.27-10.54-6.89-14.71-9.36-10-5.93-21.57-10.91-30.74-17.38-14.3-10.07-27.66-22.3-38.77-33.42-3.37-3.36-6.13-10.28-12-9.35 16.42 46.85 42.58 84 85.55 104.26 2.47-6 .25-16.68 9.36-16 7 6 1.57 12.27 1.34 21.39-.46 17.81 3.62 37.73 6.68 54.81 3.19 17.8 9.51 33.35 16 46.78 16.58 34.1 36 66.92 64.16 86.89 5 3.54 10.45 8.34 14.71 10.69 3.79 2.1 9.22 1.88 13.36 4s6.8 6.12 10.7 8c24 11.7 48.84 19.83 76.19 25.4 65.81 13.39 157.11 5 213.88-6.68.39-.08.22-2.4 1.33-2.68 2.35-.59 9.19-.57 12-1.33 30.62-8.24 65.16-12.6 93.58-25.4 56.83-25.59 111.74-53.13 155.06-89.56 19.08-16.06 32.7-33.66 45.45-54.81 19.08-31.66 36.94-75.93 38.76-116.29a231.8 231.8 0 0 0 -17.38-97.58c-10.32-24.57-24.83-50.43-41.44-70.85-8.33-10.24-18.49-18.49-28.07-28.07-9.24-9.24-17.37-21.11-29.41-26.74-17.28 20.1-40.65 30.45-68.17 41.44-18.76 7.5-39.47 14.26-60.15 16.05-24.84 2.13-49.33-2.32-76.2 1.33 22.73 5.2 51.47 11.1 77.54 10.69 12.93-.2 29.72-7.23 33.42 1.34 0 8.16-11.18 7.49-17.38 8-30.37 2.58-54.06-1.87-78.87-6.68-17.71-3.44-33.77-7.88-46.79-9.36 20.8 12.12 45.7 23.37 70.85 29.41 7.92 1.9 18.77 1.64 24.06 9.36-4.31 8.47-15.1 9.75-24.06 10.69-13.07 1.38-29.58 1.23-44.11 0-26-2.21-50.22-12.23-69.51-14.7 18.39 9.76 39 22.42 60.15 28.07 7 1.88 17.12.36 21.39 8-4.1 10.89-23.72 10.23-36.09 9.35-35.38-2.49-64.62-14.21-94.91-26.73-10.55-4.36-21.38-8.64-30.74-13.37-10.26-5.18-19.22-12.53-29.41-13.36 13.68 13.1 29.54 30.73 48.12 40.1 6.87 3.46 22.14 2.57 20.05 14.7-9 5-19.18.38-28.07-1.34-9.48-1.83-19.18-3.77-28.07-6.68a271 271 0 0 1 -137.7-102.86c-3.36-4.88-13.48-11.61-4-17.38 8.8 1.53 12 10.11 16 16.05 31.67 45.87 78.34 77.45 136.35 96.24 6-.86-2-4.64-1.33-4-21.74-22-43.92-43.26-65.51-64.16-7-6.79-21.13-14.47-14.7-26.74 18.31 5.52 28 22.42 42.78 33.42 14.14 10.52 32.67 19 49.45 26.74 16.95 7.78 34.87 15.18 53.47 22.72 18.24 7.39 39.36 13.81 61.49 12-28.37-9.19-52.26-28.61-76.19-45.45-18-12.64-38-23.48-53.47-37.43-4.34-3.91-13.63-9.16-10.69-17.37 10.24-.8 13.52 9.75 20 14.7 8.73 6.62 21.38 12.19 33.42 18.71 23.8 12.91 44 22.4 73.52 30.75 24.32 6.87 46.53 12.54 74.85 8-35.67-11.91-69.89-29.82-96.24-50.8-8.1-6.44-22.7-11.52-22.73-24.06 8.66-4.61 11.75 5.13 17.38 8 17 8.75 47.68 12.08 73.52 13.37 14.45.72 29.36 1.39 42.77 1.34 64.5-.26 123.34-20.71 151.06-50.8 1.39-.54 4.69-5.18 0-4-29 10.39-70.83 11.56-106.94 8-10.81-1.06-20.83 0-21.39-8-.66-9.46 12.66-4.27 21.39-4 33.34 1 65-17.11 88.23-22.72-5.88 15.51-26.61 16.17-38.77 25.39 25.17 2.4 49-7.95 70.84-13.36 3.8.66 1.93 7 8 5.34 30.85-11 53.61-33.78 70.85-57.47 6.3-8.67 14.38-17.85 14.7-26.74-27.85 23.51-61.33 47.82-93.57 65.5-3.55 1.95-8.48 8.88-13.36 4-1.82-11.66 11-13.23 17.37-18.71 22.15-19 35.74-49.74 52.14-74.86-.54-5.8-4.68 1.8-4 1.33-17 11.88-29.28 25.61-46.78 36.1-9.67 5.79-18.09 14-28.07 18.71-21.43 10.14-49.35 15.69-69.51 25.4-31.76 15.3-63.46 32.13-104.27 37.43-38 4.93-79.83 3.57-120.3 5.34-35.58 1.57-69.2 3.31-102.93 2.68-27.13-.51-65.84 3-98.92 0-4.89 0-2 7.84-8 6.68-61.51-5.32-105.09-28.58-143-57.48 6.23 16.25 18.88 30.68 30.75 44.12 16.52 18.7 32.44 35.71 57.48 44.11 4.53 1.52 17.38.17 16 10.69-3.67 6.2-10.65 1-14.71 0-15.71-3.73-22.52-8.25-34.75-14.7-22-11.63-37-22.81-56.14-36.1-21.21-14.76-32.33-24.48-45.45-40.1-2.74-3.26-7.26-13.07-9.36-8 2.91 46.61 28.54 82.68 53.47 111 16.48 18.57 28.6 31.56 49.48 42.76 6.61 3.53 20.84 4.2 21.39 16-9.88 2.87-18.66-3.68-26.74-8-28.27-15.2-40.33-30.62-61.48-54.81-18.93-21.63-30.77-42.3-41.45-66.84-3.85 28.74 6 49.46 17.38 68.18 21.13 34.66 58 57.77 90.9 77.53 6.53 3.92 17.68 6.91 18.72 16-10.52 3.16-19.82-4.55-28.08-9.36-17.6-10.25-33.35-22.18-48.12-33.42-7.72-5.87-14.64-12.88-22.72-16 23.05 30.08 53.81 55.84 85.59 74.88zm633.61-175.11c6.24 9.8 14.64 17.43 24.06 24.06 35.37-15 58.39-42.31 76.19-74.86-.15-1.63-.4-3.16-2.68-2.67a279.55 279.55 0 0 1 -97.57 53.47zm62.82 13.36c-8.1 8.39-18.12 14.86-29.41 20.06 5.14 8.67 12.54 15.09 20 21.38 34.92-18.11 65.69-40.36 81.55-77.53-.08-.81-.21-1.58-1.34-1.33-20.93 15.12-40.71 31.42-70.8 37.42zm215.21 373c-6.06 9.67-13.72 20.33-14.7 26.74-2.57 16.84 7.6 29.08 13.37 41.44 4.43 9.49 13.28 20.49 9.35 30.74-12 1.06-13-14.22-17.37-24.06-4-9.12-12-18.92-14.71-29.41-4.64-17.72 2.32-29.9 4-52.13.89-11.74 1.16-38.93-8-41.44-8.67-2.37-16.47 13.09-20 22.72-14.59 39.25-9.66 93.36-10.7 143-.14 7.07 2.65 16.23-4 20-12.55-4.21-2.33-18.22-8-28.07-10.29 18 4.58 33.83 14.7 44.11 10.9 11.08 25.93 21.58 37.43 29.41 27 18.39 55.68 38.48 86.89 48.12 8.79-20 15.16-42.45 21.38-65.49s9.87-47.12 17.38-69.51c5-1 5.74 2.28 10.7 1.33 22.11-14 51.86-20.32 74.85-33.42-32.17-6.63-71 3.63-94.91 10.7-5.74 1.69-13.79 5.27-18.71 1.33.7-10.82 11.4-16.89 18.71-22.72 7.46-6 16.21-12.08 24.07-17.38 16.73-11.28 35.5-20.89 46.78-37.42-25.69 4.73-47.17 13-64.16 24.06-6.15 4-13.36 8.16-18.71 12-8.18 5.9-13.06 16.67-24.07 18.71-4-8.32 3.79-17.53 8-24.06 4.81-7.42 9.72-16.2 14.71-22.72 15.52-20.3 39.8-36.56 46.78-62.83-26 6.15-41.78 25.89-57.48 42.77-7.88 8.49-15.26 17.84-22.72 26.74-7.85 9.37-13 20.71-22.72 28.07-8.73-8.7.61-20.23 4-28.07 4.09-9.45 8.19-19 12-28.07 9.82-23.1 21.29-46.74 28.07-70.85-.08-.82-.2-1.58-1.34-1.34-31.55 16.77-50.83 55-70.9 86.95zm-123 145.7c-32.35-31.33-61.57-58.26-102.92-80.2-18.26-9.68-35.2-23.08-56.14-22.72-.08-.82-.2-1.59-1.34-1.34-26.9 26.12-63.92 42.13-98.92 60.15-102.4 43.38-255.74 73.54-389 42.78-26 104.86-53.37 228.67-65.5 352.89-2.27 23.3-2.35 55.2-1.33 77.53 5.9 130.06 42.77 241.86 80.2 343.54 2.93 8 4.13 17.74 6.68 21.39 7.36 10.54 34.2 17.62 54.81 24.06 22.08 6.89 42.91 12.33 61.49 17.38 76.85 20.87 164.16 39.09 262 33.41 73.63-4.27 129.43-26 183.13-49.45 46.39-20.28 87.47-46 128.32-69.51 2.69-10.36-1.78-16.32-5.34-26.74-5.51-16.1-9.15-27.24-14.7-38.76.07-4.38 3.8-5.11 2.67-10.7-15.57-23.64-23.6-54.82-32.08-85.55-4.71 4.2-5.25 12.58-14.71 12-3.38 7.75-6.77 15.5-14.7 18.71-4.88.87-7.12-.9-9.36-2.67-5.64 6.76-8.51 20.63-21.39 16-6.84 8.74-10.9 20.28-22.72 24-5.47-.31-7-4.53-12-5.34-4.24 6.45-6.55 14.84-14.7 17.38-5.84.93-6-3.86-10.7-4-5.31 7.08-11.41 22.8-21.39 22.72-7.51-.06-7.07-7.26-14.7-10.69-6.8 10-12.31 31.45-29.41 22.72-3.82 16.59-26.91 19.46-26.73-2.67-7.78 10.49-13.65 22.89-28.08 26.73a35.24 35.24 0 0 0 -10.69-4c-5 16.13-25.38 15.12-32.08 1.34-3.21 14.1-27.64 23.43-40.1 12-5.52 9.19-11.54 17.87-24.07 20-4.38-2.29-7.85-5.5-12-8-6.67 10.91-23.32 6.33-22.72-8-9.7 6.17-21.45 22.09-36.09 14.7-5 2.57-9.89 5.27-18.71 4-7.38-9.24-22.77-2.82-33.42-9.37-7.29 8.41-24.09 7.19-32.08 0-7.35 3.88-23 8.84-32.08 2.68-5.54 9-24.35 8.68-22.73-6.68-9 5.09-20.64-.35-30.74 2.67-4.8-1.82-7.14-7.1-13.37-9.36-6.59-2.39-15.92 1.18-20-5.34-1.14 12.41-25.25 13.33-20-5.35-4.85-1.44-10.63-7.4-8-12-23.68 4.76-14.93-30.65 4-20.05 1.93 4.62-1.5 6.3 1.33 9.35 3.07-2.73 5.06-6.53 10.7-6.68 3.72 1.62 7.73 3 9.35 6.68 3.14-7 13.67-10.49 20.06-4 1.83 5.49-3.23 10.92 0 13.37 7.8-5.8 9.81-20.66 24.06-16 2.06 2 1.17 6.85 1.33 10.7 7.33-.82 6.24-11.71 13.37-10.7 4.86.69 7.94 2.75 9.36 12 2.15-12.54 23.77-12.46 18.71 6.68 4.12.52 8.76-9.93 20-6.68 5.55 4 1.55 10.49 5.35 14.71 8.13-6.73 16.05-32.44 29.41-17.38 1.16 11-2.91 16.69-5.35 24.06 14.17-4.1 12.32-24.22 30.74-24.06 6.18.51 2.23 11.14 5.35 14.7 7.31-6.06 6.7-20 22.73-17.38 5.27 2.31.39 14.76 4 18.72 4.27-2.61 5.22-12.31 12-13.37 7.56-1.18 11.5 2.94 10.69 12 13.17-6.18 16.66-29.44 33.42-24.06 2.61 5.79.37 17.62 2.67 20 4.55-9.6 15.1-27.26 25.4-12-1.33 4.78-.82 11.6 0 16 7.71-4.91 15.83-33.52 25.4-34.75 13-1.67 12.39 18.76 5.35 29.4 20.5-1.49 21.06-48.43 42.77-34.75 4.06 12.29-4.3 17.46-1.34 26.74 1.91-6 11.78-17.71 17.38-26.74 4.71-7.58 6-18.16 17.38-9.36 2.37 2.53 1 8.83 1.34 13.37 11.94-4.23 8.84-24.7 21.38-25.4 20.56-1.15 4.6 28.34 4 33.42 12.63-12.32 14-35.91 29.41-45.45 5 1.3 7.52 5 10.7 8 5.84-7.07 8.34-17.49 17.37-21.38 14.57 1.68 11.09 21 4 28.07 16.92-5.2 19.72-63.92 42.78-37.43 2.7-7.54 5.84-14.65 13.36-17.38 9 .37 6.49 12.23 10.7 17.38 8.28-10 10.79-25.75 20-34.76 4.11.35 6 2.9 9.36 4 3.95-6.29 5.41-15.08 12-18.71a47.38 47.38 0 0 1 9.39 9.55c4.32-5 5.84-12.89 9.36-18.72 9 .55 9.63-7.3 18.72-6.68-1.48-27.4 18-41.73 44.11-33.42-6.69-27 4-82.68 26.73-84.22 10.19-.68 16.32 9.33 21.39 17.38a70.34 70.34 0 0 1 10.69 29.41c5 .23 9.62-3.76 17.38 0 1.75-7.16 3.71-14.11 4-22.72 8.25 1.57 12-1.32 13.37-6.69 4.91.7 7.39 3.83 12 1.34-6.63-21-13-38.15-21.39-54.8-17.41 16.2-40.5 25.64-68.17 17.37-12.08-3.6-25.38-11.1-38.77-17.37-23-10.81-40.64-20.75-57.48-34.76-19.72-16.42-34.58-34.13-49.46-53.47-10.26-13.34-16.74-28.31-25.39-42.78-17.47-29.19-34.44-59.17-46.79-89.55 1.77-3.58 2.87-7.83 9.36-6.69 9.56 22 20.44 40.41 30.74 60.16 30.15 57.75 60.76 108.7 115 140.35a416.46 416.46 0 0 0 50.8 25.4c6.09 2.48 13.18 6.58 18.71 8 28.5 7.37 51.3-9 61.49-25.4 17.34-27.89 29.5-70.37 41.44-111 5.82-19.79 11.68-39.69 17.38-58.81 6.12-20.54 14.28-40.52 14.7-58.82-8.14 9.78-21 32.81-36.09 30.75-8.44-1.16-7.48-12-18.72-12-1.72-3.62-5.94-4.76-5.34-10.7-12.91-.46-22.29-4.45-21.39-18.71-10.74-.4-16.56-5.72-17.38-16-9.44.09-14.84-3.88-18.71-9.36 2.69-13.29-7-20.09-18.72-22.72-3.72-9.9-14.41-17.59-12-29.41-13.23-3.82-9.35-19.48-9.35-30.75 4.15-3 3.86-10.4 10.69-10.69 8.13.59 7.23 11.84 5.35 18.71 7.21 3.61 18.65 10.72 10.69 21.39 12.88-.84 8.2 15.86 24.06 12 2.39 3 5.27 5.43 4 12 8 1.85 13.83 5.78 14.7 14.71 14-2.79 23.74 6.68 17.38 16 7.82-.66 10.47-6.47 17.38-8 14.91 7.7-.88 20.17-5.35 28.07 13.74-1.86 20.8-10.4 32.08-14.71 5.67 4.59 11.39 9.11 16 14.71 1.1-4.69 5.32-6.26 9.35-8 4.91 0 5.13 4.68 8 6.68 4.29-11.31 7.93-23.26 8-38.77-24.1 3.06-39.83-5.31-53.46-10.69-18.85-7.43-31.64-15.76-46.79-25.4-21-13.36-42.64-25.94-57.48-38.76-7.65-6.62-13.55-15.46-20.05-21.39-1-.87-4.59-6.26-6.68-2.67-5.78 31.95 4.7 56 12 76.19 4.13 11.39 6.39 20.51 12 30.74a294 294 0 0 0 36.09 52.14c7.19 8.32 12.76 17.8 20 24.06 5.44 4.67 13.68 5.58 14.7 14.7a6.75 6.75 0 0 1 -4 4c-26.58-13.52-42.52-37.69-58.82-61.49a95.19 95.19 0 0 0 -12 10.7c7.3 8 31.26 26.38 8 33.42 2.47 7.32 13 6.62 14.7 14.7-.84 6.29-6.06 8.2-9.36 12 5.66 5 14.76 6.63 21.39 10.69 2.07 2 1.18 6.85 1.34 10.7-3.07 4.94-16.1-.06-18.72 5.34.88 15.92 35.61 9.75 37.44 21.39 1.78 11.49-12.44 8.2-21.4 12 7.75 7 23.28 6.14 30.75 13.37 3.76 6.65-3.55 9.25-1.34 13.37 6.14 2.64 11.12-1.63 14.71 2.67a29 29 0 0 1 -1.34 12c4.81-.8 7.54.48 8 4 2.93 20.62-49.76 22.8-41.44-4-4.8-3.21-12-4.07-14.7-9.36-.56-18.6-21.8-16.52-17.38-40.1-9.83-3.52-18-23.37-6.68-32.08-9-6.17-18.18-12.11-16-29.41-9-7-13-25-2.68-33.42-8.55-5.36-11.72-21.19-5.34-30.74-11.89-6.09-7.68-19.88-9.36-32.08-.63-4.57-4.08-7.59-4-12 .14-9 6-17.58 10.7-22.73-4.78-12.16-9.42-24.45-9.37-41.44-12.58-9.59-20.83-21.21-31.93-31.95zm203.19 89.57c6.27 1.75 14.66 1.37 22.72 1.33 2.15-11.55-5.64-23.41-14.7-28.07-2.24 9.27-6.93 16.17-8 26.69zm-137.69 37.42c-3.27-1.18-1.44-7.46-6.68-6.68.2 3.46 5.44 8.67 6.7 6.63zm125.66 32.09c-9.57 6.83 2.8-2 0 0zm-994.53 437.1c24.33 14.18 66.53 17 104.27 13.37-14.83-63.59-24.94-131.91-29.41-205.85-.08-.82-.2-1.59-1.34-1.34-26.89 62.14-50.67 127.49-73.5 193.77zm901-10.69c4.27-3.75 6.23-9.82 12-12 .72-22.12 4.3-48.68-2.67-64.16-1.41-20.58-5.71-49.42-24.06-57.48-7.51 5-14.59 17.48-12 28.07 2.66-2.69 6.12-4.58 12-4 11.46 8.62 18.55 31.25 20 52.13.83 11.53 1.59 25.27-5.35 33.42-3.45 4.48-11-2.32-12 0a268.42 268.42 0 0 1 12.05 23.97zm60.16-84.22c-3.21 3.78-8.08-1.83-10.69 1.34-.3 14.86-11.14 19.16-24.07 21.39-.69 25.19-1 68.24-10.69 89.56-2.28 5-6.83 7-8 12-2.94 12.52 3.44 23.37-5.35 32.08 2.74 7 8.12 8.17 10.69 16 4 12.25-3.15 28.71 5.35 36.1 27.06-20.4 53.6-51.07 77.53-78.87 7.68-8.92 20.58-22.6 21.39-32.08.49-5.7-4.82-16.93-6.68-24.06-4.77-18.21-10.59-48.35-17.38-62.83-2.25-4.78-8.65-7.14-8-13.37-8.47-1.77-11.58-8.91-20-10.69-3.01 2.93.34 12.06-4.13 13.38zm-77.53 49.46c-2.83-5.28 4.23-7.91 5.35-13.36 1.87-9.18 0-20.45-4-26.73-.79 5-1.6 10-6.68 10.69-11-1.48-2.93-22-9.36-28.07-.13 24.09.89 47.13 14.66 57.42zm-32.09-16a61.29 61.29 0 0 0 -17.37 1.34c-8.23 9.23-8 29.67-6.68 46.79 2.44 31.69 15.87 65.34 29.4 81.54 6.38-10.31 20.67-13 36.1-10.7 11.19-50.44-11.54-96.99-41.48-119.06zm-846.2 78.78c-9.08 14.62-23.82 34-24.06 58.82-.25 26.1 7.95 53.75 24.06 66.84 14.52-23.18 3.65-66.38-4-88.23 10.8-8.87 15.57 7.43 17.38 16 13.68-11.71 13.08-37.71 41.43-34.75 5.24 2.78 5.69 10.36 10.7 13.36 4.6-17.64 31.2-16 32.08 4 14.57-2.41 9.45-17.32 5.35-28.07-35.64 3.91-75.74 1.08-102.94-7.97zm42.78 30.75c-7.39 3.16-23.26 31-25.4 46.78-.9 6.59-.52 14 0 21.39.67 9.6 1.08 16.81 6.68 18.71 12.92 4.38 22.15-14.46 25.4-26.73 6-22.62 8.73-46.65 1.34-60.15-2.61-.23-4.31-1.58-7.99 0zm46.78 29.4c1.51-14.29-1.52-23.62-8-28.07-.3-1-1.12-1.55-2.67-1.33-1.84 6.93-10.54 10.2-13.37 18.71-3.77 11.34-1.21 27.59-4 40.1-2.23 10-9.29 14.67-8 22.73 18.48 8.2 33.59-28.62 36.07-52.14zm-2.64 44.11c21.45 10.52 21.7-20.25 28.07-33.41 3.25-2.81 6.87 2.12 6.68-2.68-4.45-8.47-3.86-22-12-26.73-11.93 16.61-14.32 42.74-22.75 62.82zm768.62-44.11c2.85 7-.34 10.85-2.68 16 10.09-7.52 27.91-14.63 44.11-8 .76-21.51-32.12-17.95-41.43-8zm-740.54 46.79c-.94 12.56 3.29 26.25-2.67 38.76 11.4.77 27.22-3.36 34.75-10.69-2.92-.85-4.25 3.79-4-1.34-8.24-18.5-11.94-41.53-21.39-58.81.51 11.14-5.87 20.9-6.69 32.08zm745.89-20c-1.1 8.25 4.29 21.54 6.69 30.74 14.94-.65 21.91-9.28 33.41-13.37-1.43-9.25-5.13-16.25-8-24-10.49-3.66-27.43-2.95-32.11 6.58zm-917 42.77c-2 14.75-3.18 34.24 2.67 44.12 10.87 3.11 24-1.38 30.75-6.69-5-15-4.12-32.75 1.33-46.78-5.34-8.47-7.43-20.19-12-29.41-12.64 6.48-20.43 21.84-22.75 38.71zm978.48-12c13.56 38.14 32.19 71.19 48.12 106.94 9.71-13.89-9.1-29.8-2.67-44.11 3.13-7 20.19-14 28.07-13.37 16.42 1.33 28.11 22.56 22.72 38.77-2.31 7-13.23 12.39-14.7 18.71-2 8.42 2.93 29 4 37.43 28.84-41.56 48.92-91.88 65.5-145.7-47.75-6.61-102.41.05-151.04 1.25zm-1153.59 42.7c11.89 17.51 31.6 27.21 49.45 38.76 17.58-7.37 38.87-11 54.81-20.05-2.95-10.86-15.84-11.78-26.73-14.7-8.9-20.85 29.38-26.26 40.1-14.71.54 6.79-4.67 7.81-6.69 12 7.33 2.33 9.39 9.72 17.38 10.7 11 1.35 24.57-8.61 34.76-10.7-.07-8-1-18.48 0-28.07.77-7.6 5.25-17 1.33-18.71-59.19 10.74-114.37 25.56-164.41 45.48zm308.78-45.45c-2.61 12.57-21.83 12.57-32.08 6.68-7.85 7.14-21 10.51-32.08 4-2.9 12.35-16.9 16.53-26.74 8-4.95 13.76 5.49 27.28 2.68 38.77-10.69 13.44-48.88 23.2-57.48 1.34-7.68 3.46-16.88 5.39-25.4 8-1.31 12.88 15.63 7.54 24.06 10.69 7.92 21.59-33.34 38.65-41.44 16-1.16-6.31 7.26-7.81 4-12-6.68-12.22-20.66-3.6-34.75 1.34-10.74 3.76-19.75 6.66-26.74 9.35 5.47 7.94 14.84 12.78 24.06 18.72 12.05 7.76 21.87 19.46 40.1 17.37 16.22-1.85 35.62-12.65 54.81-18.71 65.53-20.69 142.09-35.46 207.19-49.46-2.53-8.61-6.13-16.14-9.35-24.06-11.94.11-43.33 17.53-48.13-1.34-2.77-10.91 9.31-16.58 5.35-32.08-10.77 3.53-18.54-1.11-28.06-2.61zm795.35 14.7c-2.77 3.74 4.37 6.53 4 12 14.46-3.81 26.66-9.89 34.76-20.06-.7-2-2-3.37-2.68-5.34-14.29 2.22-20.9 12.09-36.08 13.4zm98.92 136.35c-14.65-47.36-34.37-89.07-54.8-129.66-12.06 5.32-20.54 14.22-34.76 17.38 17 43 37.45 96.34 65.5 135 7.19 9.91 25.45 36.33 40.1 30.75 7.48-17.26 8.52-45.8 8-66.84-.25-10.55 1.48-27.73-10.7-30.74-5 6.1-4.83 17.44-8 25.4 2.62 8.66 15.65 28.84 4 34.75-5.76-2.57-7.69-10.7-9.34-16.04zm33.42 13.37c-1.35 21.55 1.84 43.2-12 50.79-15.33 8.38-26.94-5.77-38.77-14.7-12.16 3.41-15.31 13.08-21.38 25.4-17.14 34.75-37.36 79.45-40.11 124.31 13.71-8.32 21.73-29.1 32.08-44.11 3.63-5.26 9.69-9.59 12-14.71 2.45-5.31 3.12-13.4 5.35-20s4.8-12.9 6.69-18.72c3.41-10.54 5.3-33 20-29.41-12 45.53-33 82-34.75 137.69 9.12-2.6 13.4-13.4 17.38-21.39 10.77-21.61 19.57-46.54 30.74-65.5 8.65-14.67 13.49-32.62 18.72-52.13 2.81-10.51 3.24-31.76 18.71-30.75-1.34 12.7-5.6 26-9.36 38.77-7.75 26.4-16.11 51.84-22.72 78.86-3.14 12.84-10.31 29.58-4 42.78 13.67-24.74 24.11-53.08 36.09-82.88 8.73-21.71 12.2-48.33 17.38-70.84 1.39-6 0-20 10.69-20 6.66 3.56 2.37 12.3 1.34 17.37-1.29 6.32-3.8 13.83-5.35 20.05-3.28 13.21-6.16 27.68-9.35 41.44-6.53 28.16-13.91 58.18-9.36 86.89 21.39-16.93 26.56-50.07 33.42-81.54 1.93-5.06-3.68-2.57-2.68-6.68 4.51-2 5.89-7.57 6.68-10.7 1.62-6.37 1.23-14.92 2.68-22.72 11.11-59.62 25.3-130.35 13.37-193.83-23.4 46.44-35.62 104.14-73.49 136.26zm-140.36-135c-13.86 10.58-31.8 18-48.12 28.07-14.9 9.17-30.19 19.57-45.45 26.73-32.56 15.3-67.49 27.76-100.25 44.11 8.64 4.55 9.36 15.83 13.36 24.07 8 16.5 19.12 26.88 28.07 40.1 8.67 12.79 15.16 25.92 24.06 37.43 3.76 4.86 11 14.45 14.71 17.37 18.1 14.43 45.93 5.8 68.17-2.67 44.56-17 85.82-35.34 127-52.13-32.98-48.58-56.61-106.49-81.55-163.09zm-1102.8 34.75c-2.78 69.79 8.46 150.86 5.35 224.57-1.08 25.68-6.38 59.73 1.34 77.53 5 11.53 22.76 18.4 33.41 24.06 2.86 1.52 7.77 8.28 10.7 4 6-103.38-6.48-201.54-5.35-302.11-14.82-11-29-22.69-45.45-32.08zm1215.09 8c1.38 5.74 2.42 11.83 4 17.37 7.79.67 11.68 5.24 20 5.34 19.49-16.48-6.96-44.58-24-22.69zm-951.75 254c-2.32-11-1-26.4 8-28.07 4.14-.77 12.16 5.62 17.38 9.35 12.33 8.83 18.13 17.31 26.73 26.74 4.45 4.89 10.5 8.68 14.7 13.37 9.1 10.14 17.43 27.62 28.08 32.08-7.15-13.44-19.94-33-29.41-52.13-4.16-8.39-26.84-53.78-8-57.48 7.42-1.46 18.72 10.1 24.06 14.7 8.45 7.28 12.41 13.83 20 18.72-.81-42.09-9-84.2-4-119 6.5-45.2 44.88-64.15 66.84-93.57-10.89-5.16-22.32-9.77-30.75-17.38-47.77 8.76-97.37 17-141.69 29.41-19.44 5.44-39.5 9.61-58.82 16-25.93 8.63-47.6 22.27-80.2 21.38-3.82 31.7-2.78 64.43-1.34 96.25 3.12 68.61 0 131 8 195.16 17.7 8.58 39.42 2 56.14-2.67 8.83-2.49 17.17-4.83 25.4-8s17.25-6.37 22.73-12c-4.83-11.11-15.84-34.91 0-38.77a17 17 0 0 1 14.7 4c-1-14.19-9.3-33.51 4-36.09 7.35-1.42 15.46 10.57 22.72 17.38 8.71 8.17 15.69 16.59 20.06 18.71-5.42-14.25-21.76-31.05-25.33-48.1zm109.61-147c-3.06 13.18-3.21 29.39-2.68 44.11 1.14 31.54 3.21 65.78 8 97.58 29.66 32.29 56.36 67.52 78.87 106.94 27.58 18.77 53.53 39.15 84.22 54.81 8.16-32.1 19.6-66 29.4-100.26 11.34-39.65 20.78-89.32 42.78-116.29 46.25-33.07 95.43-63.2 143-94.91 11.23-3.25 21.61-8.22 34.75-12 31.3-9.08 71.18-11.33 98.92-21.39 4.23-1.53 13.3-2.94 12-9.36-33.18 14.92-72.26 18.62-112.28 21.4-134.95 9.35-249.58-26.06-348.89-53.48-20.96 23.53-59.67 46.49-68.13 82.8zm-311.46 224.52c15.57 8.94 32.3 16.71 49.46 24.06-4.27-98.08-7.4-196.21-5.35-295.41-16.22-11-32.25-22.11-49.46-32.09-1.64 106.58 10.5 200.71 5.35 303.44zm263.34-116.29a533.47 533.47 0 0 0 42.77 88.22c12.32 20.44 24.29 40.87 36.09 60.15 3 4.92 12.52 15.15 4 21.39-9.42-2-11.18-11.91-16-18.71-4.58-6.43-11.22-12.34-16-18.72a827.17 827.17 0 0 0 -64.16-74.85c-10.93-11.39-19.92-28.19-37.43-32.09 1.52 20.56 9.14 30.73 17.38 45.45 10.14 18.11 22.72 34.46 33.42 50.8 6.17 9.42 10.44 19.57 16 26.73 6.1 7.82 18.14 12.21 17.38 24.06-9 13.73-25.51-12.21-32.09-20.05-23.78-28.34-42.07-59.29-68.17-80.2-.74-.59-4.9-6.88-6.68-2.68 7.94 34.21 24.62 61.67 44.11 84.22 6.31 7.31 20 12.72 17.38 25.4-11 2.63-17.27-9.54-22.73-16-6.35-7.56-13.75-15.3-20-22.73-13.06-15.41-23.26-33.9-38.76-45.45 6 28.12 22.31 52 41.43 70.85 18 17.8 40.82 34 66.84 46.79 24.13 11.85 51.24 19.9 78.87 34.75 17.36 9.34 53.72 37.65 80.2 33.42 30.25-4.84 23.28-52.47 32.08-77.53-28.67-15.88-53.87-35.24-80.2-53.47a461.12 461.12 0 0 0 -56.14-81.54c-20.86-24.5-39.66-52.16-66.84-70.85-.3-1-1.12-1.55-2.67-1.33z" fill="#0e5256"></path><path d="m1103.89 1494.25c4.94-3.09 12.13-15.47 17.37-22.72 9.53-.62 15.35 2.47 16 10.69 8.78-3.7 8.76-16.19 16-21.39 17.49.49 13.19 19.87 9.36 32.08 9.87-12.85 13.56-31.88 24.06-44.11 10.35-.1 14.53 6 14.7 16 8.54-2.59 7.52-14.76 13.37-20 6.74-.94 9.19 2.4 13.37 4 6.38 13.75-3 21.22-4 34.76 10.47-14 16.54-32.48 25.4-48.12 5 1.28 9.94 2.53 13.36 5.34 4.16 11.77-2.37 18.34-4 28.08 8.65-7.2 9.54-37.42 22.73-38.77 8.74-.9 16.23 12.16 10.69 24.06 9.34-5.38 13.46-27.53 22.73-37.43 13.15-.06 16.63 14 12 24.06 8.6-9.22 9.48-26.16 18.71-34.75 7.35 2 12.93 5.78 13.37 14.7 6.78-6.14 7.67-18.17 16-22.72 9.4-.49 10.45 7.37 13.37 13.36 9.72-5.86 9.48-21.7 17.38-29.41 10-.38 13.71 10.31 10.69 18.72 8-5.81 6.66-21 16-25.39 7.52 0 9.08 6.06 13.36 9.35 6.8-7.46 6.31-22.21 16.05-26.73 6.78-.55 7.8 4.66 12 6.68 3.45-6.35 4.19-15.41 9.36-20 5.48.3 7.39 4.19 10.69 6.68 4.24-1.55 3.29-8.29 8-9.35 4.88-.87 7.12.89 9.36 2.67 4.41-3.16 4.48-10.66 6.68-16 4.92-3.54 10.79-6.14 16-9.36 27.57 12.26-7.25 43.39-17.38 54.81-5 .12-3.81 1.49-8 0-5.07 3.39-8.36 8.56-13.36 12-12.13-2.32-12.61 7-20.06 9.35-1.7-1.86-6.55-.58-6.68-4-7.72 9.08-15.21 35.68-32.08 22.72-6.58 4.11-9.78 11.61-17.38 14.7-6.32 1-8.78-1.91-12-4-7.82 6.89-11.29 18.12-21.39 22.73-4-.92-8.18-1.62-9.35-5.35-8.44 8.49-10.75 23.12-21.39 29.41-5.91-1.67-9.23-5.92-12-10.7-8.61 6.56-19.82 29.84-33.42 14.71-7 9-23 31.11-32.08 9.36-6.86 13.64-20.65 28.49-29.41 5.34-6.72 9.32-9.77 22.31-20 28.07-10.13-1.45-12.34-10.83-14.71-20-5.08 9.39-22.43 20.31-29.4 5.35-3 17.39-25.72 17.71-33.42 4-6.79 5.29-8.05 15.13-20.05 13.36-4.25-.62-7.15-6.78-8-6.68-6.62.84-7.81 16.9-20 16-4.07-.28-6.77-3.72-12-8-6.65 5.31-10.87 15.25-21.39 14.71-6.1-.32-7.21-4.3-13.37-6.69-8.49 9.67-25.72 17.86-36.09 2.68-6.8 7.88-14.95 11.81-24.06 5.34-2.74-1.94-6.43-10.61-8-10.69-5.25-.26-9.36 14-18.72 14.71-4 .27-6.37-4.55-12-5.35-10.84-1.55-20.71 7.91-28.08-2.68-15.49 8.73-22-7.28-33.41-10.69-1.37-5.77-3.46-10.8-2.68-18.72-17.28-6.78-2.83-39.34 14.7-26.73.43 3.14 2.12 5 1.34 9.36 2.29 3.06 7.54 3.16 12 4 .43 3.14 2.11 5 1.34 9.36 6.44-.7 6.26-8 9.36-12 4.59-.58 7.49.53 10.69 1.34 2 7.67 4.81 14.29 2.67 22.73 9-5.67 12.08-17.33 17.38-26.74 6.78.8 14.72.43 13.37 9.36 6.67-2.24 8.37-9.45 13.37-13.37 5.24.11 8.33 2.36 12 4 6.9 14.61-7.6 19.62-1.34 30.75 11.1-9.4 14.4-26.59 25.4-36.09 6.1-1.21 7.57 2.22 12 2.67 8.22 15-5.3 21.63-6.69 34.75 12.69-4.06 29.87-61.49 44.12-22.72 7.2-5.72 9.06-16.79 14.7-24.06 5.38-.92 7.63 1.28 12 1.33 2.46 5.03 6.46 14.43 2.79 21.28z" fill="#0e5256"></path></g></svg> 